<svg width="275" height="250" viewBox="0 0 275 250" fill="none" xmlns="http://www.w3.org/2000/svg">
<g opacity="0.2">
<path d="M124.437 150.05L70.7315 164.404C72.6256 183.756 79.9883 203.447 81.3234 222.766C82.449 239.062 70.2438 253.505 52.9963 248.211C30.6347 241.341 17.2112 195.012 12.8381 174.337C6.7819 145.688 -8.10015 61.6244 5.66726 37.1379C13.5444 23.1351 30.178 18.5613 43.2157 28.788C59.3156 41.4135 54.9685 67.9216 56.9246 86.0018C58.3173 98.8614 61.6445 111.635 63.1688 124.484L120.656 105.973C119.187 89.773 117.627 73.4542 117.848 57.1768C118.156 34.6921 119.882 -2.81666 151.544 0.167853C179.123 2.76342 175.566 44.689 178.014 64.2383C182.347 98.7419 187.073 132.823 190.121 167.503C191.592 184.226 197.026 216.84 188.369 231.224C178.661 247.357 157.956 247.787 145.757 234.298C140.966 228.989 134.943 215.459 133.833 208.563L124.42 150.073L124.437 150.05Z" fill="#C396DB"/>
<path d="M236.762 89.9437C250.992 84.516 261.611 93.9836 265.026 107.43C266.418 112.897 265.497 117.301 266.199 122.048C268.869 139.911 279.554 186.681 272.702 201.575C267.926 211.972 255.217 213.535 246.806 206.193C231.034 192.418 225.714 146.938 224.672 126.506C224.11 115.369 224.068 94.7859 236.752 89.9453L236.762 89.9437Z" fill="#C396DB"/>
<path d="M223.105 25.9132C231.286 23.6738 238.278 22.1384 246.139 25.9387C268.325 36.6925 258.854 66.7219 233.301 66.8455C204.42 66.9921 191.953 34.4435 223.113 25.9016L223.105 25.9132Z" fill="#C396DB"/>
</g>
</svg>
