<svg width="747" height="1142" viewBox="0 0 747 1142" fill="none" xmlns="http://www.w3.org/2000/svg">
<path d="M741.424 594.104C732.467 572.813 713.805 559.527 690.264 557.643C688.661 557.504 687.075 557.452 685.472 557.417H684.008C683.416 557.417 682.823 557.434 682.492 557.452C679.913 557.487 677.439 557.626 675.086 557.888C653.775 560.154 640.096 570.738 629.032 579.3L628.805 579.474C625.337 582.142 622.061 584.653 618.908 586.745L615.144 589.117L614.15 589.64C612.844 590.372 611.519 591.017 610.16 591.628C608.644 592.308 607.372 592.813 606.117 593.214C600.158 595.167 593.728 595.708 586.444 594.853C560.673 591.854 542.899 572.186 534.796 561.078C561.37 550.268 585.625 536.859 606.971 521.166C670.399 474.558 705.319 408.891 705.319 336.25C705.319 285.631 694.149 240.452 672.124 201.935C669.789 194.419 655.57 147.427 652.137 106.904C646.997 46.3642 618.193 11.1595 591.933 3.12117C586.601 1.49956 581.252 0.523101 575.536 0.15693C572.783 -0.0174367 569.803 0 566.667 0.191804C563.339 0.401044 560.167 0.819525 556.909 1.46468C537.758 5.38794 517.981 17.0705 496.478 37.2274C485.953 47.0791 477.711 53.5656 470.497 57.6632C468.476 58.814 466.768 59.6859 465.252 60.3659C463.754 61.0459 462.046 61.6737 460.025 62.2839C453.612 64.2368 447.095 64.6379 439.01 63.6091C411.53 59.4941 382.465 57.4017 352.633 57.4017C322.801 57.4017 293.701 59.4766 266.483 63.5568C246.044 66.1723 233.637 60.5054 208.771 37.2099C182.058 12.1883 157.593 0 134.052 0C128.65 0 123.161 0.662595 117.742 1.97035C116.348 2.30165 114.936 2.66782 113.403 3.12117C107.078 5.05665 100.84 8.38706 94.915 13.0427C71.9311 31.0199 56.719 65.2307 53.1816 106.904C49.7489 147.48 34.9375 196.32 33.195 201.935C11.1695 240.47 0 285.648 0 336.232C0 338.534 0.0348504 340.818 0.104551 343.311L0.156827 344.27C0.226527 346.154 0.296228 347.984 0.418204 349.815C0.418204 350.077 0.453055 350.338 0.47048 350.6C4.30402 409.972 31.4699 463.555 78.9361 505.473L79.3891 505.891C79.6331 506.118 79.8944 506.345 80.1384 506.554L80.3475 506.728C80.6786 507.025 81.0271 507.321 81.393 507.635L82.4908 508.577C87.6661 512.988 92.9982 517.208 98.3477 521.131C115.599 533.79 134.731 544.984 155.345 554.47C142.677 563.258 121.663 579.352 99.5675 602.7C59.0714 645.455 32.1843 693.632 19.6208 745.855C19.2897 747.058 16.2925 758.34 14.55 773.876L14.0621 778.654C12.3719 797.712 12.8946 824.634 24.9703 844.634L25.1271 844.913C25.1271 844.913 25.2317 845.088 25.2839 845.175L25.493 845.506C25.8764 846.116 26.2597 846.727 26.6257 847.267C33.1601 856.945 42.1689 863.972 53.4082 868.156C58.6357 870.127 64.2641 871.452 70.1538 872.115C110.894 876.578 134.122 856.491 150.31 802.751L151.721 797.974C153.359 792.15 154.962 785.89 156.496 779.369C160.399 762.42 165.417 748.907 170.54 738.27C164.581 763.083 159.214 798.165 160.015 842.577C159.963 842.873 159.946 843.187 159.963 843.501L160.155 849.395C160.242 852.254 160.346 855.131 160.486 858.043C161.026 868.645 161.741 878.671 162.647 887.912C154.631 888.331 146.79 889.482 139.262 891.365C125.792 894.747 113.49 900.467 103.697 907.895C91.4822 917.171 83.2924 928.888 79.9816 941.792C79.3717 944.198 78.9361 946.534 78.6921 948.714C77.9951 954.73 78.483 961.356 80.121 967.86C83.031 979.403 89.3912 989.917 98.4871 998.252C100.857 1000.41 103.506 1002.49 106.363 1004.42C114.152 1009.73 123.213 1013.6 133.303 1015.95C147.887 1019.37 164.79 1019.63 183.243 1016.75C182.755 1021.6 180.664 1037.05 172.684 1049.67C164.546 1062.56 154.073 1090.13 166.393 1111.73C169.007 1116.39 172.631 1120.62 177.162 1124.34C181.553 1127.95 186.815 1131.03 192.827 1133.51C199.187 1136.12 206.523 1138.15 214.591 1139.51C224.123 1141.16 235.118 1142 247.281 1142C249.755 1142 252.299 1141.97 254.843 1141.9L260.158 1141.77C291.75 1141.04 344.618 1139.82 346.813 1100.57C347.545 1086.95 344.339 1069.15 340.941 1050.3C335.452 1019.72 329.249 985.157 337.229 959.124C339.268 959.438 341.29 959.717 343.259 959.926L343.921 960.013C352.738 960.972 360.928 960.972 368.351 960.048C368.368 960.135 368.403 960.205 368.421 960.292C375.896 986.238 369.78 1020.27 364.395 1050.34L364.308 1050.82C360.963 1069.52 357.809 1087.16 358.558 1100.59C359.203 1112.04 365.023 1127.41 389.139 1135.5C392.572 1136.65 396.458 1137.68 400.692 1138.53C405.867 1139.58 411.408 1140.34 417.577 1140.88C429.269 1141.91 441.223 1141.91 449.988 1141.91L450.511 1141.95C450.511 1141.95 450.65 1141.95 450.702 1141.95C495.729 1142.68 524.48 1132.55 536.277 1111.8C548.597 1090.13 538.142 1062.56 530.004 1049.67C520.56 1034.75 519.323 1015.27 519.305 1015.11C519.305 1015.04 519.305 1014.96 519.305 1014.89C517.04 990.405 520.508 978.618 525.787 960.693C531.851 940.118 539.414 914.521 542.202 858.287C542.202 858.2 542.202 858.113 542.202 858.026V857.729C542.359 854.922 542.481 852.15 542.585 849.377L542.62 848.261C542.62 848.122 542.655 847.965 542.655 847.825L542.76 844.721C542.76 844.721 542.76 844.599 542.76 844.547L542.812 843.257C544.276 792.743 537.846 756.387 532.182 734.783C530.422 728.07 528.61 722.194 526.868 717.189C528.732 718.236 530.614 719.247 532.513 720.223L533.542 720.747C534.221 721.095 534.918 721.444 535.702 721.828L536.469 722.194C537.236 722.56 538.002 722.926 538.699 723.24C546.976 727.041 555.497 730.127 564.036 732.412C570.239 734.086 576.547 735.376 582.785 736.248C588.448 737.067 594.251 737.555 600.036 737.73C607.773 737.956 615.614 737.625 623.351 736.719C656.494 732.795 687.998 718.375 712.115 696.056L716.157 692.185L717.778 690.546C718.231 690.093 718.667 689.639 719.05 689.238C736.806 670.407 747 646.065 747 622.473C747 612.377 745.136 602.822 741.459 594.086L741.424 594.104Z" fill="url(#paint0_linear_645_27076)" fill-opacity="0.3"/>
<defs>
<linearGradient id="paint0_linear_645_27076" x1="373.5" y1="0" x2="373.5" y2="1142" gradientUnits="userSpaceOnUse">
<stop offset="0.188113" stop-color="#C396DB"/>
<stop offset="0.672938" stop-color="#C396DB" stop-opacity="0"/>
</linearGradient>
</defs>
</svg>
