<svg width="627" height="94" viewBox="0 0 627 94" fill="none" xmlns="http://www.w3.org/2000/svg">
<path d="M34.1781 20.9365L46.2583 24.1902C47.6378 24.563 48.3626 26.0772 47.7742 27.3779C45.2763 32.903 42.3147 38.3038 38.8894 43.5804C34.9536 49.6452 30.4216 55.2168 25.2934 60.2915C20.6639 64.877 15.5045 68.814 9.82294 72.1066C8.80197 72.6967 7.49653 72.4405 6.77951 71.5047C6.3041 70.8874 5.77803 70.2312 5.2013 69.5323C4.07511 68.1812 2.90217 66.861 1.67856 65.5759C1.33564 65.2148 1.00051 64.8731 0.677076 64.5469C-0.414036 63.452 -0.149052 61.6155 1.20315 60.8623C6.01963 58.1754 10.3958 54.9683 14.3316 51.241C19.0272 46.7914 23.0644 41.9303 26.439 36.6576C29.8137 31.3849 32.3934 26.1432 34.1781 20.9365ZM4.0907 31.909H88.574C89.934 31.909 91.0368 33.0078 91.0368 34.3629V41.9108C91.0368 43.2659 89.934 44.3647 88.574 44.3647H4.0907C2.73071 44.3647 1.6279 43.2659 1.6279 41.9108V34.3629C1.6279 33.0078 2.73071 31.909 4.0907 31.909ZM71.6345 0.412625L79.1982 5.51837C80.6868 6.52398 80.5855 8.75265 79.0034 9.60296C75.3403 11.5754 71.3617 13.4235 67.0713 15.1474C61.4131 17.4227 55.4938 19.4961 49.3095 21.3753C43.1213 23.2545 36.8864 24.9202 30.6047 26.3684C24.8686 27.6924 19.3546 28.8495 14.0627 29.8434C13.1508 30.0143 12.2273 29.6299 11.6973 28.8728C11.1284 28.0574 10.4659 27.1566 9.71772 26.1704C8.56036 24.6562 7.38742 23.173 6.19499 21.7208C6.10926 21.616 6.02742 21.5151 5.94169 21.4141C4.75706 19.993 5.61046 17.8382 7.44587 17.5935C12.1844 16.9607 16.9619 16.1919 21.7745 15.295C28.1263 14.1069 34.2794 12.7091 40.2338 11.0939C46.1882 9.47871 51.745 7.71597 56.9044 5.80569C61.5066 4.10118 65.5827 2.26467 69.1327 0.300027C69.9238 -0.138717 70.8902 -0.0921246 71.6384 0.412625H71.6345ZM13.2833 5.86781L18.8909 1.21246C19.4559 0.742654 20.2041 0.556285 20.925 0.70771C25.6986 1.72109 30.8269 2.95967 36.3097 4.42345C42.229 6.0037 48.234 7.71985 54.3208 9.56413C60.4077 11.4084 66.1789 13.307 71.6384 15.2484C75.5625 16.6462 79.1164 18.0012 82.304 19.3136C83.9757 20.0008 84.3498 22.1945 82.9976 23.3943L75.9755 29.6415C75.2429 30.2938 74.1947 30.4453 73.3023 30.0337C70.0212 28.5117 66.1399 26.8809 61.6625 25.1337C56.5031 23.1225 50.9267 21.1307 44.9412 19.1505C38.9517 17.1742 32.9156 15.295 26.8326 13.5128C22.437 12.2277 18.2323 11.0629 14.2147 10.0184C12.3208 9.5253 11.7791 7.11027 13.2833 5.86393V5.86781ZM75.1611 52.7707V65.2303H31.4971V86.8685C31.4971 88.243 30.3787 89.3574 28.9992 89.3574H19.7014C18.3219 89.3574 17.2035 88.243 17.2035 86.8685V52.7707H75.1611ZM44.9217 45.4557H54.0987C55.4275 45.4557 56.507 46.5312 56.507 47.8552V91.5161C56.507 92.8906 55.3886 94.0049 54.0091 94.0049H45.0113C43.6318 94.0049 42.5134 92.8906 42.5134 91.5161V47.8552C42.5134 46.5312 43.5929 45.4557 44.9217 45.4557ZM68.8093 52.7707H80.718C82.1442 52.7707 83.2977 53.9239 83.2977 55.3411V75.4107C83.2977 78.4431 82.9314 80.8348 82.2066 82.5782C81.4779 84.3254 80.0867 85.6921 78.0369 86.6822C75.9872 87.6063 73.7037 88.1654 71.1902 88.3634C69.2457 88.5148 67.1219 88.6119 64.8228 88.6429C63.6538 88.6624 62.6523 87.8431 62.4029 86.7055C62.1028 85.3349 61.6742 83.8789 61.1169 82.3297C60.8052 81.4638 60.4934 80.6446 60.1778 79.8719C59.5153 78.249 60.7194 76.4823 62.4769 76.5212C62.8276 76.5289 63.1822 76.5367 63.5446 76.5445C65.3294 76.5794 66.5218 76.5949 67.118 76.5949C67.7142 76.5949 68.1429 76.4979 68.4079 76.2999C68.6729 76.1018 68.8054 75.7408 68.8054 75.2127V52.7669L68.8093 52.7707Z" fill="#5D64A3"/>
<path d="M141.353 8.97018C142.666 8.97018 143.73 10.0302 143.73 11.3386V20.9328H101.363C100.042 20.9328 98.9746 19.865 98.9746 18.5527V11.3503C98.9746 10.034 100.046 8.97018 101.363 8.97018H141.353ZM103.433 81.0524H187.327C188.734 81.0524 189.872 82.19 189.872 83.5878V90.1806C189.872 91.5822 188.73 92.716 187.327 92.716H103.433C102.069 92.716 100.962 91.6133 100.962 90.2544V83.5101C100.962 82.1512 102.069 81.0485 103.433 81.0485V81.0524ZM105.626 14.0138H118.724V32.7012C118.724 34.1533 118.887 35.19 119.219 35.8151C119.55 36.4441 120.31 36.7547 121.502 36.7547H132.519C133.84 36.7547 135.313 36.6887 136.934 36.5567C137.479 36.514 137.994 36.4596 138.477 36.4014C139.833 36.2345 141.053 37.2362 141.154 38.5951C141.232 39.6085 141.31 40.7073 141.396 41.8954C141.493 43.2466 141.606 44.458 141.735 45.5374C141.89 46.8264 140.998 48.0068 139.708 48.197C139.159 48.2786 138.563 48.3368 137.92 48.3756C136.232 48.4727 134.529 48.5232 132.807 48.5232H121.494C117.259 48.5232 114.001 48.0145 111.721 46.9895C109.438 45.9684 107.852 44.2716 106.959 41.8993C106.067 39.527 105.619 36.3975 105.619 32.5071V14.0177L105.626 14.0138ZM180.964 48.8493L184.253 55.7527C184.985 57.2903 184.023 59.088 182.336 59.3481C177.87 60.0392 173.12 60.6488 168.089 61.173C161.772 61.833 155.253 62.3766 148.538 62.8037C141.824 63.2347 135.09 63.5298 128.345 63.6929C122.395 63.8404 116.623 63.918 111.035 63.9375C109.812 63.9375 108.775 63.0483 108.596 61.8408C108.417 60.6333 108.144 59.4102 107.758 58.0552C107.513 57.1932 107.267 56.3817 107.029 55.6246C106.531 54.056 107.688 52.4525 109.34 52.4253C114.659 52.3437 120.072 52.1923 125.57 51.9749C132.254 51.7109 138.835 51.3498 145.32 50.8877C151.804 50.4257 158.004 49.8821 163.927 49.257C169.106 48.7095 173.891 48.1 178.287 47.4244C179.397 47.2535 180.485 47.8321 180.968 48.8454L180.964 48.8493ZM108.491 66.7136H183.06C184.467 66.7136 185.605 67.8512 185.605 69.249V75.4458C185.605 76.8474 184.463 77.9812 183.06 77.9812H108.491C107.127 77.9812 106.02 76.8785 106.02 75.5195V69.1713C106.02 67.8124 107.127 66.7097 108.491 66.7097V66.7136ZM116.958 2.40843L125.204 0.179761C126.299 -0.115324 127.46 0.377778 127.983 1.3834C128.766 2.89765 129.518 4.52061 130.235 6.25618C131.229 8.66345 131.953 10.7213 132.417 12.4374L119.121 16.5919C118.724 14.7476 118.046 12.5539 117.087 10.0185C116.506 8.48096 115.93 7.0366 115.361 5.68154C114.792 4.32648 115.544 2.80058 116.958 2.42007V2.40843ZM157.517 0.797109L165.731 2.17158C167.457 2.4589 168.401 4.33812 167.606 5.89508C165.338 10.3408 162.688 14.5768 159.66 18.6109C156.504 22.812 152.653 26.7219 148.106 30.3328C146.746 31.416 144.778 31.2297 143.613 29.9406C142.857 29.1019 141.984 28.2245 141.002 27.312C140.219 26.5821 139.463 25.9337 138.738 25.359C137.382 24.2874 137.409 22.2335 138.816 21.2278C142.518 18.5876 145.643 15.6717 148.195 12.4801C150.958 9.02065 153.148 5.6 154.758 2.21429C155.249 1.1815 156.383 0.61074 157.513 0.797109H157.517ZM137.974 56.7273H152.56V87.4782H137.974V56.7273ZM179.16 6.89682H181.739L182.721 6.7454C183.774 6.5862 184.845 6.67162 185.854 7.00554L190.675 8.58967C192.019 9.0323 192.791 10.4456 192.417 11.8007C190.39 19.0924 187.542 25.2192 183.875 30.1813C179.807 35.687 174.826 40.1171 168.938 43.4796C163.05 46.842 156.27 49.4783 148.597 51.3886C147.868 49.6763 146.859 47.7816 145.569 45.7043C145.097 44.9433 144.63 44.2367 144.174 43.5766C143.184 42.1556 143.928 40.2026 145.616 39.7832C150.588 38.5524 155.108 36.8673 159.165 34.728C164.227 32.0567 168.459 28.5661 171.865 24.2486C175.271 19.931 177.702 14.7748 179.16 8.77604V6.89682ZM143.928 26.2753L152.86 21.6278C154.313 22.8819 155.853 24.3146 157.474 25.9298C159.095 27.545 160.65 29.1291 162.138 30.6744C163.627 32.2236 164.835 33.6253 165.758 34.8755L156.332 40.2142C155.537 38.964 154.43 37.5274 153.008 35.9122C151.586 34.297 150.082 32.6352 148.492 30.919C146.906 29.2068 145.382 27.6576 143.928 26.2715V26.2753ZM161.792 6.89682H181.934V17.5742H152.065L161.792 6.89682ZM152.564 19.2554L160.404 14.1147C162.189 15.3689 164.11 16.7705 166.16 18.3158C168.21 19.865 170.177 21.4142 172.064 22.9634C173.95 24.5126 175.489 25.9142 176.677 27.1645L168.44 32.9963C167.38 31.7461 165.942 30.3095 164.122 28.6943C162.302 27.0791 160.385 25.4328 158.366 23.7516C156.348 22.0704 154.415 20.5717 152.56 19.2515L152.564 19.2554Z" fill="#5D64A3"/>
<path d="M205.245 66.8223C203.854 66.5505 202.521 67.4824 202.291 68.8762C201.785 71.9513 201.118 75.0886 200.292 78.284C199.532 81.2193 198.706 83.844 197.81 86.1659C197.276 87.5481 198.063 89.0857 199.501 89.4623C200.277 89.6681 201.118 89.8933 202.03 90.1456C203.075 90.4368 204.018 90.7319 204.851 91.0348C206.165 91.5123 207.61 90.8096 208.062 89.4933C208.885 87.1016 209.719 84.3371 210.56 81.196C211.496 77.7055 212.271 74.2421 212.883 70.8137C213.121 69.4703 212.24 68.1851 210.895 67.925L205.241 66.8223H205.245ZM221.117 26.7995C219.683 28.9699 218.249 31.0355 216.815 32.9963C215.381 34.957 214.032 36.7353 212.762 38.3389C215.151 38.0554 218.14 37.7603 221.729 37.4459C221.795 36.1257 221.978 34.4135 222.274 32.3052C222.57 30.1969 222.886 28.3176 223.217 26.6675L221.117 26.7995ZM221.117 26.7995C219.683 28.9699 218.249 31.0355 216.815 32.9963C215.381 34.957 214.032 36.7353 212.762 38.3389C215.151 38.0554 218.14 37.7603 221.729 37.4459C221.795 36.1257 221.978 34.4135 222.274 32.3052C222.57 30.1969 222.886 28.3176 223.217 26.6675L221.117 26.7995ZM236.018 46.7449L228.217 47.7932C229.062 50.2898 229.807 52.6971 230.461 54.9995C230.746 56.0168 231.003 56.9797 231.225 57.8882C232.535 57.6747 233.902 57.4534 235.325 57.2243C235.258 55.9042 235.29 54.2268 235.422 52.1807C235.555 50.1384 235.753 48.3252 236.018 46.7449ZM225.894 75.9622C225.551 73.1666 225.158 70.507 224.71 67.9793C224.456 66.5466 223.038 65.6264 221.623 65.9875L216.293 67.3426C215.046 67.6571 214.247 68.8607 214.434 70.1304C214.823 72.7434 215.17 75.5467 215.478 78.5364C215.739 81.099 215.93 83.4519 216.051 85.5951C216.137 87.1754 217.664 88.2703 219.2 87.8626L224.877 86.3406C226.046 86.0261 226.826 84.9234 226.724 83.7198C226.526 81.429 226.249 78.847 225.898 75.966L225.894 75.9622ZM238.201 70.5186C237.378 68.2822 236.541 66.1778 235.687 64.2054C235.165 62.9979 233.778 62.4116 232.535 62.862L227.609 64.6519C226.296 65.1294 225.629 66.5816 226.124 67.8823C226.884 69.8663 227.652 71.9785 228.427 74.2305C229.113 76.2223 229.674 78.0433 230.115 79.6934C230.497 81.1378 232.059 81.9221 233.454 81.3708L238.672 79.309C239.888 78.8315 240.523 77.5036 240.145 76.2572C239.623 74.5372 238.976 72.623 238.201 70.5147V70.5186ZM241.832 55.2752C241.536 54.1414 241.17 52.9145 240.73 51.5827C239.97 49.2764 239.109 46.9041 238.15 44.4658C237.507 42.8311 236.876 41.2742 236.248 39.7871C235.73 38.5641 234.366 37.9312 233.088 38.3156L228.232 39.7832C226.779 40.222 226.007 41.7945 226.553 43.2C227.106 44.625 227.648 46.1198 228.178 47.6806C228.19 47.7156 228.201 47.7544 228.217 47.7893C229.062 50.2859 229.807 52.6932 230.461 54.9956C230.746 56.0129 231.003 56.9758 231.225 57.8843C231.268 58.0435 231.307 58.2027 231.346 58.3619C231.705 59.8567 233.267 60.7226 234.728 60.2256L240.149 58.3736C241.435 57.9348 242.175 56.5836 241.832 55.2752ZM257.112 62.6678L249.599 61.1613C248.301 60.8973 247.039 61.7204 246.746 63.0095C246.06 66.0574 245.164 69.1053 244.057 72.1532C243.056 74.91 241.899 77.356 240.589 79.4954C239.829 80.734 240.336 82.3569 241.669 82.951C242.008 83.0985 242.355 83.2577 242.717 83.4247C244.139 84.0848 245.527 84.7759 246.883 85.5019C247.35 85.7504 247.787 85.995 248.196 86.2358C249.365 86.9308 250.881 86.5425 251.547 85.3622C251.89 84.7565 252.229 84.1236 252.564 83.4674C252.79 83.0248 253.016 82.5666 253.242 82.1007C254.053 80.4001 254.848 78.548 255.615 76.5523C257.003 72.957 258.129 69.3033 259.002 65.5915C259.314 64.2636 258.452 62.9396 257.112 62.6678ZM266.359 23.4254C264.703 25.6852 263.058 27.8207 261.422 29.8358C260.05 31.5247 258.756 33.0778 257.541 34.4834H257.552C259.999 34.2193 263.14 33.9242 266.979 33.5942C267.045 32.2741 267.209 30.6278 267.474 28.6477C267.739 26.6714 268.035 24.8931 268.37 23.309L266.359 23.4254ZM259.933 49.8045V56.7389C261.246 56.5953 262.684 56.4439 264.251 56.2808C266.725 56.0284 269.652 55.7372 273.03 55.4033V49.8045H259.933ZM275.719 44.9394C276.931 47.4244 277.999 49.8355 278.938 52.1768C279.293 53.0659 279.608 53.9162 279.885 54.7355C280.177 54.7083 280.473 54.6772 280.773 54.6501C280.773 53.3998 280.906 51.7808 281.171 49.8045C281.432 47.8282 281.732 46.046 282.063 44.4658L275.719 44.9394ZM266.359 23.4254C264.703 25.6852 263.058 27.8207 261.422 29.8358C260.05 31.5247 258.756 33.0778 257.541 34.4834H257.552C259.999 34.2193 263.14 33.9242 266.979 33.5942C267.045 32.2741 267.209 30.6278 267.474 28.6477C267.739 26.6714 268.035 24.8931 268.37 23.309L266.359 23.4254ZM259.933 49.8045V80.9514C259.933 81.4135 259.836 81.7241 259.637 81.8871C259.438 82.0541 259.072 82.1706 258.546 82.2366C258.082 82.2366 257.186 82.2211 255.865 82.1861C254.973 82.1667 254.1 82.1356 253.242 82.0968C252.821 82.0813 252.408 82.0619 251.995 82.0386C252.19 82.4929 252.377 82.9704 252.564 83.4635C253.079 84.8225 253.566 86.3251 254.029 87.9713C254.657 90.2116 255.105 92.2229 255.37 94.0012C258.148 94.0012 260.642 93.8847 262.86 93.6556C265.077 93.4226 267.045 92.8791 268.763 92.0249C270.552 91.0348 271.709 89.6991 272.239 88.0179C272.765 86.3367 273.03 84.0809 273.03 81.2465V49.8045H259.933ZM291.529 51.6759C291.026 50.1423 290.367 48.4999 289.553 46.741C288.396 44.2367 287.106 41.6819 285.683 39.0766C284.616 37.1236 283.54 35.2715 282.457 33.5243C281.845 32.542 280.59 32.1731 279.542 32.6663L273.475 35.5084C272.278 36.0714 271.815 37.5196 272.454 38.6728C273.432 40.4316 274.402 42.2798 275.365 44.2173C275.485 44.458 275.602 44.6987 275.719 44.9394C276.931 47.4244 277.999 49.8355 278.938 52.1768C279.293 53.0659 279.608 53.9162 279.885 54.7355C280.08 55.2985 280.251 55.842 280.407 56.3701C280.809 57.7174 282.34 58.3736 283.606 57.7484L290.367 54.4093C291.381 53.9085 291.879 52.7475 291.529 51.6759ZM292.425 79.872C292.039 78.4704 291.579 76.9717 291.042 75.3642C290.215 72.891 289.272 70.3711 288.216 67.8007C287.453 65.9487 286.673 64.1821 285.874 62.5009C285.352 61.3982 284.086 60.8624 282.921 61.239L275.992 63.5026C274.64 63.9452 273.954 65.4439 274.511 66.7485C275.181 68.3094 275.828 69.9634 276.456 71.7067C277.414 74.3741 278.291 76.995 279.086 79.5653C279.542 81.0446 279.924 82.4268 280.228 83.712C280.559 85.1214 282.044 85.9368 283.412 85.4476L290.893 82.7802C292.09 82.3531 292.76 81.0873 292.425 79.872Z" fill="#5D64A3"/>
<path d="M218.65 20.4435C217.084 22.8586 215.513 25.1299 213.947 27.2577L221.117 26.8034C219.683 28.9738 218.249 31.0394 216.815 33.0002C215.381 34.9609 214.032 36.7392 212.762 38.3427H212.754C210.143 38.6572 208.055 38.9368 206.496 39.1775C205.007 39.4105 203.85 39.6396 203.024 39.8725C203.016 39.8725 203.008 39.8764 203 39.8803C201.882 40.1909 200.717 39.5813 200.366 38.4786C200.253 38.1292 200.132 37.7526 199.996 37.3488C199.532 35.9665 199.037 34.5494 198.507 33.0972C198.274 32.4605 198.048 31.8703 197.829 31.3228C197.444 30.3638 197.783 29.2456 198.675 28.7176C199.185 28.4147 199.673 28.0458 200.144 27.611C201.103 26.7218 202.112 25.5182 203.172 24.004C203.768 23.2779 204.575 22.0898 205.604 20.4435C206.628 18.7973 207.77 16.852 209.025 14.6078C210.284 12.3675 211.523 9.9292 212.746 7.29285C213.6 5.45246 214.399 3.59653 215.143 1.72119C215.669 0.393309 217.189 -0.243453 218.51 0.311772L225.302 3.18108C226.658 3.75184 227.25 5.34762 226.588 6.65998C224.277 11.2532 221.631 15.8503 218.65 20.4435Z" fill="#5D64A3"/>
<path d="M226.093 40.0162C223.435 43.2427 220.774 46.2906 218.101 49.1522L228.217 47.7893C229.062 50.2859 229.807 52.6932 230.461 54.9956C230.746 56.0129 231.003 56.9758 231.225 57.8843C226.514 58.6454 222.555 59.2976 219.348 59.8412C215.244 60.5323 212.053 61.1109 209.769 61.569C207.49 62.0311 205.767 62.4465 204.61 62.8076C204.598 62.8076 204.586 62.8154 204.575 62.8192C203.032 63.3046 201.383 62.4698 200.9 60.9323C200.865 60.8197 200.826 60.7032 200.791 60.5828C200.327 59.1346 199.813 57.632 199.252 56.0828C199.096 55.6518 198.94 55.2402 198.788 54.8481C198.266 53.5124 198.784 51.9594 200.043 51.2644C200.662 50.9227 201.259 50.5033 201.831 50.0064C203.121 48.8843 204.692 47.37 206.547 45.4597C207.536 44.5356 208.943 42.9865 210.763 40.8121C211.406 40.0395 212.072 39.2202 212.762 38.3427C215.151 38.0593 218.14 37.7642 221.729 37.4497C221.795 36.1296 221.978 34.4173 222.274 32.309C222.57 30.2007 222.886 28.3215 223.217 26.6714L221.117 26.8034C221.9 25.6192 222.683 24.4078 223.467 23.1614C225.17 20.4474 226.771 17.7024 228.26 14.9262C228.973 13.5983 230.676 13.1713 231.931 14.0099L238.372 18.3081C239.51 19.0691 239.841 20.5833 239.128 21.7481C235.317 27.9993 230.976 34.0912 226.093 40.0201V40.0162Z" fill="#5D64A3"/>
<path d="M262.712 18.906C261.465 20.6416 260.229 22.2878 259.002 23.8409L266.359 23.4216C264.703 25.6813 263.058 27.8168 261.422 29.8319C260.05 31.5209 258.756 33.0739 257.541 34.4795C255.097 34.7435 253.133 34.992 251.649 35.2211C250.16 35.454 249.018 35.6831 248.223 35.9122L248.2 35.9199C247.113 36.2383 245.971 35.6404 245.624 34.5688C245.511 34.2193 245.386 33.8427 245.246 33.4428C244.782 32.0916 244.303 30.69 243.808 29.2378C243.718 28.9738 243.629 28.7137 243.535 28.4652C242.994 26.9509 243.508 25.293 244.763 24.2835C244.876 24.1942 244.985 24.0972 245.098 24.0001C245.99 23.208 246.933 22.1869 247.927 20.9328C248.586 20.1407 249.614 18.6924 251.002 16.5841C252.393 14.4758 253.862 12.0026 255.417 9.16819C256.562 7.08319 257.607 4.96324 258.554 2.80446C259.119 1.52317 260.603 0.921355 261.897 1.4727L268.561 4.31095C269.956 4.90112 270.533 6.57067 269.788 7.88691C267.715 11.5483 265.358 15.2213 262.712 18.906Z" fill="#5D64A3"/>
<path d="M261.808 45.9839L275.719 44.9394C276.931 47.4244 277.999 49.8355 278.938 52.1768C279.293 53.0659 279.608 53.9162 279.885 54.7355C277.422 54.9762 275.139 55.1975 273.03 55.4033V49.8045H259.933V56.7389C257.724 56.9874 255.869 57.2126 254.376 57.4184C251.995 57.7485 250.222 58.0435 249.069 58.3076C249.057 58.3076 249.045 58.3114 249.034 58.3153C247.459 58.6764 245.866 57.7989 245.371 56.2653C245.332 56.141 245.289 56.0129 245.246 55.8848C244.782 54.4676 244.268 52.9844 243.707 51.4352C243.582 51.0819 243.453 50.7441 243.333 50.414C242.772 48.9037 243.407 47.2147 244.825 46.442C245.363 46.1508 245.885 45.8053 246.388 45.4054C247.678 44.3842 249.248 43.0175 251.103 41.3014C252.093 40.4472 253.5 39.0106 255.319 36.9993C256.025 36.2189 256.769 35.3764 257.541 34.4795H257.552C259.999 34.2155 263.14 33.9204 266.979 33.5903C267.045 32.2702 267.209 30.624 267.474 28.6438C267.739 26.6675 268.035 24.8892 268.37 23.3051L266.359 23.4216C266.979 22.579 267.598 21.7132 268.218 20.8357C269.964 18.3624 271.604 15.8542 273.14 13.3071C273.899 12.0414 275.571 11.6803 276.787 12.5228L282.983 16.8326C284.132 17.6325 284.417 19.205 283.626 20.3581C279.737 26.0191 275.361 31.5519 270.501 36.9527C267.61 40.1676 264.711 43.1806 261.808 45.9839Z" fill="#5D64A3"/>
<path d="M301.785 10.2554H386.681C387.928 10.2554 388.938 11.261 388.938 12.5034V18.9836C388.938 20.2261 387.928 21.2317 386.681 21.2317H301.785C300.538 21.2317 299.529 20.2261 299.529 18.9836V12.5034C299.529 11.261 300.538 10.2554 301.785 10.2554ZM314.091 1.06113H322.579C323.826 1.06113 324.835 2.06675 324.835 3.30921V14.7049C324.835 17.0112 324.57 19.337 324.04 21.6744C323.51 24.0156 322.618 26.2715 321.359 28.4458C320.1 30.6201 318.432 32.6468 316.348 34.5261C314.676 36.0326 312.649 37.4031 310.272 38.6378C309.283 39.1504 308.063 38.8708 307.404 37.9739C306.676 36.9799 305.783 35.8967 304.735 34.7241C304.053 33.9631 303.394 33.2642 302.755 32.6235C301.672 31.5403 301.984 29.7154 303.355 29.0359C304.474 28.4807 305.444 27.8711 306.27 27.2111C307.79 25.9919 308.951 24.6563 309.742 23.208C310.537 21.7598 311.083 20.3076 311.379 18.8594C311.675 17.4112 311.827 15.994 311.827 14.6079V3.30921C311.827 2.06675 312.836 1.06113 314.083 1.06113H314.091ZM302.822 39.5231H385.937C387.32 39.5231 388.439 40.6374 388.439 42.0158V59.9693C388.439 61.3477 387.32 62.462 385.937 62.462H374.445V50.9926H313.616V62.462H302.822C301.438 62.462 300.32 61.3477 300.32 59.9693V42.0158C300.32 40.6374 301.438 39.5231 302.822 39.5231ZM309.949 56.9253H370.284V68.0997H323.942V85.4786C323.942 86.9114 322.777 88.0723 321.339 88.0723H312.552C311.114 88.0723 309.949 86.9114 309.949 85.4786V56.9253ZM331.194 0.76605H338.817C340.138 0.76605 341.209 1.83379 341.209 3.15002V25.7822H346.965V3.14614C346.965 1.82991 348.037 0.762167 349.358 0.762167H357.576C358.897 0.762167 359.969 1.82991 359.969 3.14614V33.7806C359.969 35.0968 358.897 36.1646 357.576 36.1646H331.198C329.877 36.1646 328.806 35.0968 328.806 33.7806V3.14614C328.806 1.82991 329.877 0.762167 331.198 0.762167L331.194 0.76605ZM338.902 52.4757H348.072C349.486 52.4757 350.632 53.6173 350.632 55.0267V91.3532C350.632 92.7626 349.486 93.9041 348.072 93.9041H338.902C337.488 93.9041 336.342 92.7626 336.342 91.3532V55.0267C336.342 53.6173 337.488 52.4757 338.902 52.4757ZM364.824 56.9253H379.016V75.8107C379.016 78.7771 378.619 81.165 377.824 82.9782C377.029 84.7914 375.575 86.1581 373.456 87.0822C371.273 88.0063 368.826 88.5654 366.114 88.7634C364.088 88.9109 361.882 89.0041 359.489 89.0391C358.094 89.0624 356.871 88.1189 356.551 86.7677C356.247 85.4864 355.83 84.1236 355.3 82.6792C354.977 81.8017 354.649 80.9708 354.314 80.1865C353.628 78.5752 354.84 76.8008 356.594 76.8435C356.61 76.8435 356.621 76.8435 356.637 76.8435C358.059 76.8785 359.365 76.894 360.557 76.894H362.938C363.667 76.894 364.162 76.7969 364.427 76.5989C364.692 76.4009 364.824 76.0398 364.824 75.5118V56.9253ZM366.087 0.6651H374.375C375.622 0.6651 376.631 1.67072 376.631 2.91318V22.5169C376.631 23.969 376.729 25.0057 376.928 25.6308C377.126 26.2598 377.621 26.5704 378.416 26.5704H383.178C384.039 26.5704 385.064 26.5044 386.253 26.3724C386.424 26.353 386.588 26.3336 386.748 26.3103C388.045 26.1356 389.234 27.0674 389.327 28.372C389.394 29.2922 389.46 30.2551 389.526 31.2646C389.604 32.4449 389.705 33.536 389.826 34.5455C389.974 35.7608 389.117 36.8557 387.901 37.0343C387.609 37.077 387.309 37.1158 386.993 37.1469C385.77 37.2789 384.562 37.3449 383.373 37.3449H377.122C373.483 37.3449 370.704 36.8169 368.787 35.7646C366.866 34.7124 365.561 33.0778 364.867 30.8725C364.173 28.6632 363.827 25.8133 363.827 22.3189V2.91318C363.827 1.67072 364.836 0.6651 366.083 0.6651H366.087Z" fill="#5D64A3"/>
<path d="M423.764 2.65305L435.127 6.31055C436.588 6.78035 437.305 8.42661 436.643 9.80497C434.468 14.3477 431.978 18.9138 429.176 23.5031C425.837 28.9738 422.33 34.1184 418.659 38.9291C415.654 42.8661 412.681 46.3644 409.743 49.4201C408.722 50.4801 407.023 50.4645 406.025 49.3851C405.441 48.7523 404.79 48.0689 404.069 47.3351C402.514 45.7548 400.909 44.1901 399.256 42.637C398.52 41.9498 397.826 41.3208 397.168 40.7578C396.018 39.7677 395.979 38.0127 397.098 36.9877C399.783 34.5261 402.436 31.7305 405.059 28.5972C408.398 24.6097 411.493 20.3271 414.337 15.7455C416.757 11.8473 418.869 7.93351 420.666 4.01199C421.203 2.8433 422.528 2.2609 423.756 2.65305H423.764ZM444.167 2.44727H461.972V17.2792H444.167C442.878 17.2792 441.829 16.2347 441.829 14.9495V4.77688C441.829 3.49171 442.878 2.44727 444.167 2.44727ZM450.562 2.44727H464.092C466.048 2.44727 467.802 3.6509 468.491 5.47577C469.727 8.73723 471.239 11.9793 473.035 15.2019C475.381 19.4224 478.195 23.3439 481.472 26.9665C483.95 29.7115 486.682 32.1149 489.675 34.1766C491.163 35.2055 491.452 37.2673 490.286 38.6456C489.85 39.162 489.394 39.7172 488.919 40.3152C487.496 42.0934 486.14 43.9222 484.85 45.8014C484.355 46.5236 483.896 47.2225 483.471 47.8903C482.477 49.4628 480.314 49.8006 478.904 48.5853C475.51 45.6616 472.381 42.4079 469.516 38.8281C465.877 34.2815 462.72 29.5523 460.039 24.6407C457.358 19.7291 455.16 14.934 453.442 10.2554H450.566V2.44727H450.562ZM454.79 56.7467L463.484 52.8097C464.805 52.2117 466.368 52.6272 467.213 53.8036C469.442 56.8982 471.683 60.148 473.931 63.5531C476.675 67.7076 479.255 71.7766 481.671 75.7642C483.424 78.6645 484.963 81.3436 486.281 83.8091C487.068 85.2845 486.514 87.1133 485.037 87.9053L475.537 92.9839C474.009 93.7993 472.112 93.1819 471.363 91.6288C470.179 89.1633 468.753 86.4299 467.085 83.4325C464.735 79.2159 462.186 74.8983 459.443 70.4798C457.397 67.1912 455.418 64.085 453.5 61.1614C452.483 59.6083 453.095 57.5233 454.79 56.7545V56.7467Z" fill="#5D64A3"/>
<path d="M476.46 83.7198C467.463 84.508 459.657 85.203 453.044 85.7932C446.428 86.3872 440.769 86.8803 436.074 87.2763C431.374 87.6724 427.458 88.0335 424.313 88.3635C421.172 88.6935 418.608 89.008 416.625 89.3031C414.641 89.6021 413.001 89.8972 411.711 90.1961C411.699 90.1961 411.683 90.2039 411.672 90.2039C409.731 90.6504 407.763 89.5943 407.109 87.719C407.011 87.4355 406.906 87.1366 406.797 86.8298C406.134 84.9506 405.421 83.0054 404.661 80.9941C404.279 79.9885 403.905 79.0528 403.531 78.187C402.994 76.9328 403.551 75.5079 404.782 74.9061C405.714 74.4518 406.582 73.8927 407.393 73.2326C408.847 72.0484 410.565 70.4022 412.552 68.29C413.675 67.2378 415.198 65.5061 417.116 63.0988C419.033 60.6954 421.168 57.7951 423.518 54.3977C425.864 51.0042 428.194 47.3467 430.513 43.4213C432.411 40.2065 434.153 36.9566 435.742 33.6758C436.327 32.4644 437.765 31.9247 439.012 32.4411L451.24 37.5119C452.674 38.1059 453.243 39.8298 452.452 41.1577C449.666 45.8247 446.619 50.4179 443.314 54.9413C439.409 60.28 435.376 65.3081 431.207 70.0217C430.299 71.0506 429.391 72.0601 428.49 73.0463L473.183 69.9712C473.514 72.1455 474.029 74.5683 474.722 77.2396C475.416 79.907 475.993 82.0658 476.457 83.7159L476.46 83.7198Z" fill="#5D64A3"/>
<path d="M517.81 1.20479L526.488 3.91879C527.891 4.35754 528.631 5.88732 528.101 7.25403C526.254 12.0336 524.107 16.8559 521.66 21.7287C518.784 27.4634 515.655 32.9031 512.284 38.0438C509.786 41.8488 507.238 45.2928 504.631 48.3756C503.423 49.8045 501.135 49.5055 500.368 47.801C500.227 47.4943 500.083 47.1759 499.927 46.8458C499.035 44.9356 498.076 43.0059 497.048 41.0606C496.432 39.8919 495.855 38.8591 495.321 37.9622C494.752 37.0032 494.881 35.7957 495.637 34.9765C498.01 32.4022 500.297 29.4863 502.507 26.2287C505.118 22.3732 507.549 18.2537 509.802 13.8701C511.672 10.2243 513.289 6.52408 514.657 2.76175C515.121 1.48435 516.508 0.800992 517.806 1.20479H517.81ZM505.737 28.8457L519.431 15.2019V91.3726C519.431 92.7742 518.293 93.908 516.886 93.908H508.278C506.871 93.908 505.734 92.7742 505.734 91.3726V28.8457H505.737ZM527.731 42.2914H587.045C588.452 42.2914 589.589 43.4252 589.589 44.8268V53.6017C589.589 55.0034 588.452 56.1371 587.045 56.1371H527.731C526.324 56.1371 525.187 55.0034 525.187 53.6017V44.8268C525.187 43.4252 526.324 42.2914 527.731 42.2914ZM533.775 6.89682H577.482V20.1446H533.775C532.485 20.1446 531.437 19.1001 531.437 17.815V9.22643C531.437 7.94126 532.485 6.89682 533.775 6.89682Z" fill="#5D64A3"/>
<path d="M586.893 15.33C584.831 17.6791 582.556 20.0591 580.062 22.4664C576.82 25.5959 573.445 28.5467 569.942 31.3151C568.48 32.4682 567.023 33.5593 565.573 34.5882V77.6861C565.573 81.4445 565.129 84.3604 564.233 86.4377C563.34 88.5149 561.637 90.1107 559.124 91.2328C556.677 92.285 553.731 92.9645 550.294 93.2596C547.426 93.508 544.215 93.6517 540.661 93.6905C539.453 93.7061 538.389 92.8713 538.147 91.6909C537.816 90.0757 537.317 88.2897 536.647 86.3367C536.211 85.0632 535.77 83.8751 535.326 82.7685C534.648 81.0796 535.907 79.243 537.73 79.2819C538.342 79.2974 538.958 79.309 539.574 79.3168C541.561 79.3518 543.361 79.3673 544.982 79.3673H548.408C549.331 79.3673 549.994 79.2353 550.391 78.9712C550.789 78.7111 550.987 78.1831 550.987 77.391V31.1559C550.987 29.8552 551.669 28.6554 552.772 27.9643C555.028 26.551 557.292 24.9358 559.572 23.1071C562.448 20.8007 565.078 18.4634 567.459 16.0872C569.84 13.7148 571.629 11.6065 572.817 9.76225V6.89294H576.192L578.195 6.32218C578.682 6.1824 579.212 6.27947 579.621 6.57844L586.495 11.6104C587.699 12.4918 587.879 14.2079 586.893 15.33Z" fill="#5D64A3"/>
<path d="M616.879 85.797C613.902 85.797 611.47 84.8419 609.584 82.9316C607.698 81.0213 606.755 78.614 606.755 75.7137C606.755 72.8133 607.713 70.441 609.635 68.5967C611.552 66.7524 613.968 65.8283 616.879 65.8283C619.79 65.8283 622.202 66.7524 624.123 68.5967C626.04 70.441 626.999 72.8172 626.999 75.7137C626.999 78.6102 626.04 81.0213 624.123 82.9316C622.202 84.8419 619.79 85.797 616.879 85.797ZM610.465 55.5819L607.756 27.1567C607.752 27.0985 607.749 27.0402 607.745 26.982L607.265 13.7808C607.203 12.0763 608.575 10.6591 610.289 10.6591H623.464C625.179 10.6591 626.551 12.0763 626.488 13.7808L626.009 26.982C626.009 27.0402 626.001 27.0985 625.997 27.1567L623.289 55.5819C623.141 57.1311 621.836 58.3114 620.277 58.3114H613.473C611.914 58.3114 610.609 57.1311 610.461 55.5819H610.465Z" fill="#5D64A3"/>
</svg>
