<svg width="457" height="50" viewBox="0 0 457 50" fill="none" xmlns="http://www.w3.org/2000/svg">
<path d="M25.0603 6.66531C22.6201 6.66531 20.6382 8.32994 20.6382 10.3886V17.5975C20.6382 18.0255 20.309 18.3721 19.9023 18.3721H9.58642C9.17972 18.3721 8.85049 18.0255 8.85049 17.5975V10.3886C8.85049 8.32994 6.86865 6.66531 4.42847 6.66531C1.98829 6.66531 0 8.32994 0 10.3886V36.2685C0 38.3272 1.98184 39.9919 4.42202 39.9919C6.8622 39.9919 8.84404 38.3272 8.84404 36.2685V27.0621C8.84404 26.6341 9.17327 26.2875 9.57996 26.2875H19.8959C20.3026 26.2875 20.6318 26.6341 20.6318 27.0621V36.2685C20.6318 38.3272 22.6136 39.9919 25.0538 39.9919C27.494 39.9919 29.4758 38.3272 29.4758 36.2685V10.3886C29.4758 8.32994 27.494 6.66531 25.0538 6.66531H25.0603Z" fill="#4C4948"/>
<path d="M150.762 31.791H131.931C131.524 31.791 131.195 31.4445 131.195 31.0164V27.6668C131.195 27.2388 131.524 26.8922 131.931 26.8922H147.024C148.522 26.8922 149.729 25.2956 149.729 23.332C149.729 21.3684 148.515 19.7717 147.024 19.7717H131.931C131.524 19.7717 131.195 19.4252 131.195 18.9971V15.6475C131.195 15.2195 131.524 14.8729 131.931 14.8729H149.813C151.388 14.8729 152.673 13.1879 152.673 11.1156C152.673 9.04335 151.394 7.35834 149.819 7.35834H126.78C124.339 7.35834 122.358 9.44422 122.358 12.0125V34.665C122.358 37.2333 124.339 39.3192 126.78 39.3192H150.768C152.343 39.3192 153.622 37.6342 153.622 35.5619C153.622 33.4896 152.343 31.8046 150.768 31.8046L150.762 31.791Z" fill="#4C4948"/>
<path d="M109.692 7.34475H93.5015C91.0613 7.34475 89.0795 9.43063 89.0795 11.9989V36.2617C89.0795 38.3204 91.0613 39.9851 93.5015 39.9851C95.9416 39.9851 97.9235 38.3204 97.9235 36.2617V28.8558C97.9235 28.4278 98.2527 28.0813 98.6594 28.0813H109.692C114.592 28.0813 118.562 23.4407 118.562 17.713C118.562 11.9853 114.592 7.34475 109.692 7.34475ZM108.743 20.5667H98.6594C98.2527 20.5667 97.9235 20.2201 97.9235 19.7921V15.6407C97.9235 15.2127 98.2527 14.8662 98.6594 14.8662H108.743C110.092 14.8662 111.183 16.1435 111.183 17.7198C111.183 19.2961 110.092 20.5735 108.743 20.5735V20.5667Z" fill="#4C4948"/>
<path d="M59.3648 49.9932C57.2667 49.9932 33.2781 37.1518 33.2781 14.7846C33.2781 4.14459 41.4701 -2.07229 48.8552 0.693029C53.9163 2.37125 56.4146 7.06618 58.2738 13.12C63.0896 28.8015 74.8063 28.0949 79.3058 26.1517C81.3393 25.2752 82.4174 26.8651 81.675 29.2431C78.3052 40.0394 61.4693 50 59.3712 50L59.3648 49.9932Z" fill="#745399"/>
<path d="M74.051 23.6445C80.2546 23.6445 85.2836 18.3515 85.2836 11.8223C85.2836 5.29301 80.2546 0 74.051 0C67.8475 0 62.8185 5.29301 62.8185 11.8223C62.8185 18.3515 67.8475 23.6445 74.051 23.6445Z" fill="#008D3F"/>
<path d="M196.176 20.0978C196.338 20.0978 196.473 19.962 196.473 19.7853V12.4881C196.473 12.3183 196.344 12.1756 196.176 12.1756H180.999C180.838 12.1756 180.702 12.3115 180.702 12.4881V19.7853C180.702 19.9552 180.832 20.0978 180.999 20.0978H196.176ZM184.001 15.2195H192.994V17.0607H184.001V15.2195ZM199.733 21.0762H189.417C189.256 21.0762 189.12 21.2121 189.12 21.3888V29.0393C189.12 29.1616 189.185 29.2635 189.282 29.3178H187.577C187.674 29.2635 187.739 29.1616 187.739 29.0393V21.3888C187.739 21.2189 187.61 21.0762 187.442 21.0762H177.584C177.423 21.0762 177.287 21.2121 177.287 21.3888V29.0393C177.287 29.2091 177.417 29.3518 177.584 29.3518H186.712C186.616 29.4062 186.551 29.5081 186.551 29.6304V35.4872H181.154V30.8398C181.154 30.6699 181.025 30.5272 180.857 30.5272H177.791C177.63 30.5272 177.494 30.6631 177.494 30.8398V38.7213C177.494 38.8912 177.623 39.0338 177.791 39.0338H195.776V40.0122C195.776 40.1821 195.905 40.3248 196.073 40.3248H199.139C199.301 40.3248 199.436 40.1889 199.436 40.0122V30.8466C199.436 30.6767 199.307 30.534 199.139 30.534H196.073C195.912 30.534 195.776 30.6699 195.776 30.8466V35.494H190.308V29.6372C190.308 29.5149 190.244 29.413 190.147 29.3586H199.733C199.895 29.3586 200.03 29.2227 200.03 29.0461V21.3956C200.03 21.2257 199.901 21.083 199.733 21.083V21.0762ZM184.576 26.3079H180.341V24.1201H184.576V26.3079ZM196.867 26.3079H192.206V24.1201H196.867V26.3079ZM200.54 7.57576H189.714C189.172 6.25764 188.372 4.78326 187.642 3.7573C187.565 3.64859 187.435 3.60783 187.313 3.64859L184.388 4.66096C184.298 4.69493 184.234 4.76288 184.201 4.858C184.169 4.95312 184.188 5.05504 184.24 5.12977C184.653 5.75486 185.086 6.57698 185.538 7.56896H173.285C173.124 7.56896 172.988 7.70485 172.988 7.88151V17.217C172.575 15.335 171.826 13.0045 171.013 11.1428C170.948 10.9865 170.774 10.9186 170.625 10.9865L168.23 12.0804C168.082 12.1484 168.011 12.3318 168.075 12.4881C169.031 14.8322 169.883 18.0323 170.096 20.0843C170.109 20.1862 170.161 20.2745 170.244 20.3221C170.328 20.3696 170.425 20.3764 170.516 20.3289L172.982 19.0923V20.2405C172.982 21.117 172.982 22.1022 172.923 23.0534C171.064 24.1337 169.173 25.2276 167.798 25.9274C167.669 25.9954 167.598 26.1584 167.649 26.3011L168.669 29.576C168.695 29.6644 168.766 29.7391 168.85 29.7731C168.934 29.807 169.031 29.7935 169.108 29.7459L170.264 28.9849C171.019 28.4889 171.8 27.9793 172.588 27.4494C172 31.7027 170.735 34.998 168.727 37.5119C168.676 37.5798 168.65 37.6614 168.663 37.7497C168.669 37.8312 168.715 37.9128 168.779 37.9603C169.354 38.4088 170.522 39.6657 170.967 40.3112C171.019 40.3859 171.103 40.4335 171.193 40.4403H171.206C171.29 40.4403 171.374 40.3995 171.432 40.3316C174.847 36.153 176.577 29.3926 176.577 20.2337V11.2583H200.547C200.708 11.2583 200.844 11.1224 200.844 10.9458V7.86112C200.844 7.69126 200.714 7.54858 200.547 7.54858L200.54 7.57576ZM243.185 8.16687H232.559C232.256 7.13412 231.752 5.76845 231.062 4.09702C231.004 3.96114 230.862 3.8864 230.726 3.92037L227.453 4.70173C227.369 4.72211 227.298 4.78326 227.253 4.86479C227.214 4.94633 227.214 5.04145 227.247 5.12977C227.595 5.97228 227.918 7.01862 228.228 8.03098L228.273 8.16687H216.421C216.259 8.16687 216.124 8.30276 216.124 8.47941V17.5364C215.581 15.6815 214.658 13.3986 213.716 11.6456C213.638 11.5029 213.464 11.4486 213.322 11.5233L210.927 12.8482C210.785 12.9297 210.727 13.1132 210.798 13.2627C211.811 15.3961 212.98 18.4536 213.309 20.4715C213.322 20.5667 213.387 20.655 213.471 20.6957C213.554 20.7365 213.658 20.7365 213.742 20.689L216.124 19.3165V20.0639C216.124 21.1917 216.091 22.3604 216.027 23.5426C214.026 24.6705 211.986 25.7983 210.482 26.5321C210.346 26.6001 210.281 26.7632 210.327 26.9126L211.385 30.2691C211.411 30.3574 211.476 30.4321 211.56 30.4593C211.644 30.4933 211.734 30.4865 211.811 30.4389C212.915 29.7527 214.142 28.9577 215.562 28.0269C214.904 31.9133 213.509 35.1067 211.411 37.5323C211.353 37.6002 211.327 37.6953 211.34 37.7905C211.353 37.8856 211.405 37.9671 211.482 38.0079C212.057 38.3612 213.309 39.6589 213.755 40.3044C213.806 40.3791 213.884 40.4267 213.974 40.4335C213.974 40.4335 213.987 40.4335 213.993 40.4335C214.077 40.4335 214.155 40.3995 214.206 40.3384C217.925 36.153 219.816 29.3518 219.816 20.1114V12.0329H243.185C243.347 12.0329 243.482 11.897 243.482 11.7203V8.47941C243.482 8.30955 243.353 8.16687 243.185 8.16687ZM243.185 35.0455H233.792V28.1356H241.565C241.726 28.1356 241.862 27.9997 241.862 27.8231V24.6229C241.862 24.4531 241.733 24.3104 241.565 24.3104H233.792V18.8816H242.159C242.32 18.8816 242.456 18.7458 242.456 18.5691V15.2942C242.456 15.1243 242.327 14.9817 242.159 14.9817H221.314C221.153 14.9817 221.017 15.1175 221.017 15.2942V18.5691C221.017 18.739 221.146 18.8816 221.314 18.8816H230.068V35.0387H226.078V22.9787C226.078 22.8088 225.949 22.6661 225.781 22.6661H222.825C222.663 22.6661 222.528 22.802 222.528 22.9787V35.0387H218.951C218.79 35.0387 218.654 35.1746 218.654 35.3513V38.7485C218.654 38.9183 218.783 39.061 218.951 39.061H243.179C243.34 39.061 243.476 38.9251 243.476 38.7485V35.3513C243.476 35.1814 243.347 35.0387 243.179 35.0387L243.185 35.0455ZM285.133 16.6327H268.478C268.878 15.6951 269.304 14.6623 269.737 13.548C269.769 13.4665 269.769 13.3782 269.73 13.2966C269.691 13.2151 269.627 13.1608 269.549 13.1336L268.794 12.9026C268.878 12.8686 268.968 12.8414 269.052 12.8142C269.704 12.5832 270.382 12.3522 271.021 12.0872C274.591 13.5141 277.871 15.0224 280.033 16.2454C280.149 16.3066 280.285 16.2862 280.375 16.1911L282.874 13.616C282.938 13.548 282.97 13.4461 282.957 13.351C282.945 13.2491 282.886 13.1676 282.803 13.12C281.027 12.1688 278.69 11.1224 275.856 10.0082C278.258 8.79875 280.195 7.6437 281.75 6.46827C281.828 6.40712 281.873 6.31879 281.873 6.21688C281.873 6.11496 281.828 6.01984 281.75 5.96549L279.007 3.93396C278.903 3.85922 278.768 3.85922 278.671 3.93396C276.644 5.42873 273.965 6.85555 270.912 8.07175C266.896 6.63134 263.081 5.40155 259.866 4.51148C259.769 4.48431 259.666 4.51148 259.589 4.58622L257.336 6.77402C257.258 6.84876 257.226 6.96426 257.252 7.07297C257.278 7.18168 257.355 7.27001 257.458 7.29719C260.053 8.05137 262.849 8.9822 265.599 10.0082C261.9 11.1156 258.42 11.9242 255.244 12.427C255.134 12.4473 255.044 12.5221 255.005 12.6376C254.973 12.7463 254.999 12.8686 255.076 12.9569C255.741 13.6567 256.735 15.0836 257.252 15.9804C257.316 16.0959 257.445 16.1503 257.568 16.1231C260.221 15.5048 262.797 14.8118 265.231 14.0712C264.889 15.0088 264.527 15.8513 264.127 16.6463H254.198C254.037 16.6463 253.901 16.7822 253.901 16.9588V20.159C253.901 20.3289 254.03 20.4715 254.198 20.4715H261.88C259.563 23.991 256.561 26.899 253.172 28.9034C253.094 28.951 253.036 29.0325 253.023 29.1344C253.01 29.2295 253.043 29.3246 253.107 29.3994C253.721 30.0381 254.734 31.3494 255.257 32.1307C255.347 32.2598 255.515 32.3006 255.644 32.2191C257.013 31.363 258.375 30.3234 259.705 29.1208V37.9943C259.705 38.1642 259.834 38.3068 260.002 38.3068H263.242C263.404 38.3068 263.539 38.171 263.539 37.9943V28.0065H268.975V40.1074C268.975 40.2772 269.104 40.4199 269.272 40.4199H272.441C272.603 40.4199 272.738 40.284 272.738 40.1074V28.0065H278.878V33.9788C278.878 34.271 278.878 34.3049 278.503 34.3321C277.057 34.3321 275.734 34.3049 274.572 34.2574C274.481 34.2574 274.365 34.3049 274.314 34.4001C274.255 34.4952 274.249 34.6107 274.301 34.7058C274.72 35.5619 275.166 36.8664 275.327 37.7429C275.353 37.8856 275.476 37.9943 275.618 37.9943C278.2 37.9943 279.911 37.9943 281.085 37.4236C282.435 36.8121 282.706 35.6706 282.706 34.0196V24.5414C282.706 24.3715 282.577 24.2288 282.409 24.2288H272.738V20.9879C272.738 20.818 272.609 20.6754 272.441 20.6754H269.272C269.11 20.6754 268.975 20.8113 268.975 20.9879V24.2288H264.095C265.011 22.9719 265.825 21.7081 266.515 20.4783H285.152C285.314 20.4783 285.449 20.3424 285.449 20.1658V16.9656C285.449 16.7958 285.32 16.6531 285.152 16.6531L285.133 16.6327ZM328.585 7.24963L326.616 6.46827C326.558 6.44789 326.5 6.44109 326.442 6.45468L325.88 6.60416H319.379C319.438 6.48186 319.502 6.35956 319.56 6.23726C319.754 5.84319 319.954 5.43552 320.128 5.00747C320.161 4.91915 320.161 4.82403 320.115 4.7357C320.07 4.65417 319.999 4.59302 319.909 4.57943L316.739 3.99511C316.604 3.96793 316.468 4.04946 316.416 4.17856C315.493 6.48865 314.054 8.73081 312.298 10.6332V8.20084C312.298 8.03098 312.169 7.8883 312.001 7.8883H306.991C306.501 6.49545 305.933 5.08221 305.468 4.08344C305.403 3.94755 305.261 3.8796 305.119 3.92037L302.195 4.81723C302.111 4.84441 302.046 4.90556 302.008 4.98709C301.969 5.06862 301.969 5.16375 302.008 5.24528C302.324 5.98587 302.64 6.90311 302.95 7.79318L302.982 7.8951H296.327C296.165 7.8951 296.03 8.03098 296.03 8.20764V11.2923C296.03 11.4622 296.159 11.6048 296.327 11.6048H298.922V17.5771C298.922 21.382 299.987 22.605 303.299 22.605H308.405C309.515 22.605 310.736 22.571 311.394 22.3128C311.523 22.2585 311.601 22.1226 311.581 21.9799C311.471 21.2257 311.336 19.8804 311.304 19.0107C311.304 18.9224 311.258 18.8341 311.187 18.7797C311.116 18.7254 311.033 18.705 310.942 18.7254C310.303 18.8749 309.147 18.9496 308.328 18.9496H303.292C302.711 18.9496 302.492 18.8409 302.492 17.6587V11.6116H311.342C310.761 12.1688 310.155 12.6852 309.528 13.154C309.451 13.2151 309.399 13.317 309.406 13.4189C309.406 13.5209 309.464 13.616 309.548 13.6703C310.258 14.1188 311.258 15.1583 311.755 15.8513C311.801 15.9193 311.872 15.9601 311.956 15.9736C312.033 15.9804 312.111 15.9601 312.175 15.9125L312.285 15.8174C312.575 15.5728 312.859 15.3418 313.111 15.0972C314.37 16.5104 315.558 17.9644 316.371 19.1059C315.093 19.7377 313.602 20.2405 311.827 20.6346C311.723 20.655 311.639 20.7365 311.607 20.8452C311.575 20.9539 311.607 21.0694 311.672 21.151C312.227 21.7625 312.84 22.9583 313.202 23.794C313.247 23.9095 313.356 23.9774 313.466 23.9774C313.492 23.9774 313.518 23.9774 313.537 23.9707C322.239 21.6266 326.932 16.5851 328.753 7.62332C328.785 7.47384 328.708 7.32437 328.572 7.27001L328.585 7.24963ZM319.095 17.448C317.998 15.994 316.436 14.2343 315.229 12.923C315.519 12.6036 315.797 12.2503 316.074 11.897C318.056 13.3374 319.96 15.0156 320.896 15.8649C320.38 16.3881 319.786 16.9045 319.095 17.448ZM322.743 13.4733C321.329 12.2299 319.586 10.939 318.321 10.0353H324.337C323.931 11.2311 323.395 12.3862 322.749 13.4733H322.743ZM327.739 35.9832H314.125V33.6391H325.906C326.067 33.6391 326.203 33.5032 326.203 33.3265V30.3982C326.203 30.2283 326.074 30.0856 325.906 30.0856H314.125V27.6396C318.811 27.2116 322.704 26.6952 325.68 26.0973C325.77 26.0769 325.848 26.0158 325.893 25.9274C325.932 25.8391 325.932 25.7372 325.893 25.6489L324.415 22.7205C324.357 22.5982 324.228 22.537 324.098 22.5642C317.533 23.9027 306.791 24.5686 298.935 24.7452C298.838 24.7452 298.754 24.7996 298.696 24.8811C298.644 24.9626 298.631 25.0646 298.664 25.1597C298.954 26.0022 299.283 27.2048 299.354 28.0473C299.367 28.2104 299.496 28.3327 299.645 28.3327C302.853 28.2987 306.52 28.156 310.264 27.925V30.0924H298.799C298.638 30.0924 298.502 30.2283 298.502 30.4049V33.3333C298.502 33.5032 298.631 33.6459 298.799 33.6459H310.264V35.99H296.753C296.592 35.99 296.456 36.1258 296.456 36.3025V39.3056C296.456 39.4755 296.585 39.6182 296.753 39.6182H327.739C327.901 39.6182 328.036 39.4823 328.036 39.3056V36.3025C328.036 36.1326 327.907 35.99 327.739 35.99V35.9832ZM371.404 30.7311C368.964 29.7799 366.434 28.0473 364.523 26.0226H370.875C371.036 26.0226 371.172 25.8867 371.172 25.71V22.7069C371.172 22.537 371.043 22.3944 370.875 22.3944H364.549V10.9594H369.293C369.455 10.9594 369.59 10.8235 369.59 10.6468V7.68447C369.59 7.51461 369.461 7.37193 369.293 7.37193H364.549V4.32803C364.549 4.15817 364.419 4.01549 364.252 4.01549H360.908C360.746 4.01549 360.611 4.15138 360.611 4.32803V7.37193H349.223V4.28727C349.223 4.11741 349.094 3.97473 348.926 3.97473H345.653C345.492 3.97473 345.356 4.11061 345.356 4.28727V7.37193H340.547C340.386 7.37193 340.25 7.50781 340.25 7.68447V10.6468C340.25 10.8167 340.379 10.9594 340.547 10.9594H345.356V22.3944H338.817C338.656 22.3944 338.52 22.5302 338.52 22.7069V25.71C338.52 25.8799 338.649 26.0226 338.817 26.0226H345.408C343.426 28.2443 340.831 30.1604 338.352 31.1999C338.255 31.2407 338.184 31.329 338.171 31.4377C338.152 31.5464 338.191 31.6551 338.275 31.7231C338.972 32.3414 339.895 33.6119 340.321 34.4069C340.399 34.5495 340.573 34.6039 340.708 34.5292C342.619 33.5236 344.466 32.1987 346.092 30.6631V32.5316C346.092 32.7015 346.221 32.8441 346.389 32.8441H352.819V35.6978H341.741C341.58 35.6978 341.444 35.8337 341.444 36.0103V39.0135C341.444 39.1833 341.573 39.326 341.741 39.326H368.26C368.422 39.326 368.557 39.1901 368.557 39.0135V36.0103C368.557 35.8405 368.428 35.6978 368.26 35.6978H356.725V32.8441H363.406C363.567 32.8441 363.703 32.7083 363.703 32.5316V30.3302C365.343 31.8929 367.176 33.2042 369.029 34.1011C369.164 34.169 369.326 34.1147 369.403 33.9788C369.861 33.1771 370.797 31.8997 371.495 31.2407C371.572 31.1659 371.604 31.0572 371.585 30.9553C371.566 30.8534 371.495 30.7583 371.398 30.7243L371.404 30.7311ZM349.236 10.9662H360.624V12.5289H349.236V10.9662ZM349.236 15.8038H360.624V17.4073H349.236V15.8038ZM349.236 20.6822H360.624V22.4011H349.236V20.6822ZM356.737 29.3518V26.736C356.737 26.5661 356.608 26.4234 356.44 26.4234H353.129C352.967 26.4234 352.832 26.5593 352.832 26.736V29.3518H347.383C348.365 28.2715 349.243 27.1368 349.94 26.0294H360.12C360.869 27.198 361.753 28.3191 362.722 29.3518H356.737ZM414.146 15.9057C408.917 14.1663 403.185 10.5585 399.789 6.88273C399.938 6.65172 400.086 6.40712 400.235 6.16252C400.344 5.97907 400.461 5.78883 400.577 5.60538C400.622 5.53064 400.635 5.43552 400.615 5.35399C400.59 5.26566 400.538 5.19772 400.461 5.15695L397.394 3.63501C397.259 3.56706 397.097 3.62142 397.02 3.75051C393.992 8.94143 387.969 13.4733 380.913 15.8717C380.816 15.9057 380.745 15.9872 380.72 16.0891C380.694 16.1911 380.72 16.2998 380.791 16.3813C381.585 17.2578 382.475 18.6303 382.921 19.6494C382.986 19.7989 383.147 19.8668 383.295 19.8125C384.954 19.1534 386.497 18.406 388.001 17.5499V19.0515C388.001 19.2214 388.13 19.364 388.298 19.364H395.367V23.4679H384.038C383.876 23.4679 383.741 23.6038 383.741 23.7804V27.0553C383.741 27.2252 383.87 27.3679 384.038 27.3679H388.808L386.601 28.3327C386.523 28.3666 386.459 28.4346 386.433 28.5229C386.407 28.6112 386.413 28.6996 386.459 28.7811C387.782 31.064 389.015 33.7614 389.506 35.4532H382.411C382.25 35.4532 382.114 35.5891 382.114 35.7657V39.0814C382.114 39.2513 382.243 39.3939 382.411 39.3939H412.623C412.784 39.3939 412.92 39.2581 412.92 39.0814V35.7657C412.92 35.5959 412.791 35.4532 412.623 35.4532H404.773C405.844 33.8429 407.239 31.4785 408.653 28.8966C408.698 28.8151 408.704 28.7267 408.672 28.6384C408.646 28.5501 408.582 28.4889 408.498 28.455L405.838 27.3746H410.925C411.086 27.3746 411.222 27.2388 411.222 27.0621V23.7872C411.222 23.6173 411.093 23.4747 410.925 23.4747H399.421V19.3708H406.555C406.716 19.3708 406.851 19.235 406.851 19.0583V17.217C408.452 18.1818 410.086 19.0039 411.7 19.663C411.835 19.7174 411.996 19.663 412.068 19.5203C412.558 18.5555 413.565 17.1423 414.262 16.4357C414.34 16.3609 414.372 16.2454 414.346 16.1435C414.32 16.0348 414.249 15.9533 414.146 15.9193V15.9057ZM395.348 35.4328H390.784L392.811 34.4612C392.946 34.3933 393.017 34.2302 392.966 34.0807C392.41 32.2802 391.035 29.4673 389.68 27.3475H395.348V35.4328ZM404.934 27.3543C404.237 29.3586 402.791 32.321 401.558 34.2438C401.506 34.3185 401.493 34.4137 401.519 34.502C401.545 34.5903 401.603 34.665 401.681 34.699L403.249 35.4328H399.415V27.3543H404.934ZM391.416 15.3825C393.715 13.7587 395.761 11.897 397.51 9.8315C399.286 11.7543 401.5 13.6567 403.972 15.3825H391.41H391.416ZM456.765 13.2423C451.272 11.9581 445.539 9.02976 442.383 5.91113C442.447 5.8228 442.499 5.74127 442.557 5.65294C442.615 5.55782 442.68 5.46949 442.744 5.38117C442.802 5.30643 442.821 5.19772 442.796 5.1026C442.77 5.00747 442.705 4.93274 442.615 4.89197L439.729 3.7641C439.607 3.71654 439.465 3.7641 439.387 3.87281C436.476 8.0174 430.776 11.5301 423.739 13.5141C423.636 13.5412 423.558 13.6228 423.532 13.7315C423.507 13.8334 423.532 13.9489 423.603 14.0304C424.146 14.6283 425.037 16.0756 425.308 16.7142C425.366 16.8569 425.514 16.9249 425.656 16.8841C426.347 16.6667 427.064 16.4153 427.883 16.0959V25.479C427.883 25.6489 428.013 25.7915 428.18 25.7915H451.988C452.15 25.7915 452.285 25.6557 452.285 25.479V15.8174C452.937 16.0688 453.673 16.3202 454.545 16.6055C454.674 16.6463 454.816 16.5919 454.88 16.4696C455.377 15.6067 456.268 14.3634 456.901 13.7723C456.985 13.6975 457.017 13.5752 456.991 13.4665C456.966 13.351 456.875 13.2695 456.772 13.2423H456.765ZM440.259 8.35711C441.182 9.29474 442.157 10.144 443.17 10.8914H437.36C438.412 10.0897 439.4 9.2268 440.265 8.35711H440.259ZM431.253 22.7952V18.0323H433.797L432.596 18.44C432.512 18.4672 432.441 18.5351 432.415 18.6235C432.389 18.7118 432.389 18.8069 432.435 18.8884C433.074 20.0707 433.681 21.613 433.971 22.7952H431.253ZM438.309 22.7952H436.172L436.87 22.537C437.012 22.4827 437.089 22.3332 437.057 22.1769C436.831 21.0898 436.14 19.4184 435.359 18.0256H438.303V22.7884L438.309 22.7952ZM442.77 22.4759C442.802 22.5574 442.867 22.6254 442.951 22.6525L443.351 22.7884H441.569V18.0256H444.416C444.029 19.2689 443.364 21.0491 442.776 22.2109C442.738 22.2924 442.731 22.3876 442.763 22.4759H442.77ZM448.806 22.7952H445.875C446.469 21.6741 447.153 20.2201 447.812 18.7933C447.85 18.7118 447.85 18.6167 447.812 18.5351C447.779 18.4536 447.708 18.3857 447.624 18.3653L446.566 18.0323H448.793V22.7952H448.806ZM430.395 15.0292C431.66 14.4517 432.744 13.8878 433.732 13.3034V13.7043C433.732 13.8742 433.861 14.0169 434.029 14.0169H446.211C446.372 14.0169 446.508 13.881 446.508 13.7043V13.1132C447.644 13.7926 448.89 14.4313 450.284 15.036H430.401L430.395 15.0292ZM430.188 26.736C430.027 26.736 429.891 26.8719 429.891 27.0485V40.0394C429.891 40.2093 430.02 40.352 430.188 40.352H433.429C433.59 40.352 433.726 40.2161 433.726 40.0394V39.1426H446.624V39.8831C446.624 40.053 446.753 40.1957 446.921 40.1957H450.265C450.426 40.1957 450.562 40.0598 450.562 39.8831V27.0485C450.562 26.8787 450.433 26.736 450.265 26.736H430.188ZM446.617 36.0579H433.719V34.4952H446.617V36.0579ZM446.617 31.3766H433.719V29.8478H446.617V31.3766Z" fill="#4C4948"/>
</svg>
