<svg width="32" height="45" viewBox="0 0 32 45" fill="none" xmlns="http://www.w3.org/2000/svg">
<path d="M14.5729 42.9571C14.883 44.5279 17.1151 44.5262 17.4253 42.9571C20.2344 28.7465 31.9976 28.7945 31.9976 16.1843C31.9976 7.26062 24.8205 0 15.9985 0C7.17654 0 0 7.26062 0 16.1843C0 28.7929 11.7632 28.7465 14.5729 42.9571ZM15.9985 10.6705C19.0044 10.6705 21.4499 13.1444 21.4499 16.1849C21.4499 19.2253 19.0044 21.6997 15.9985 21.6997C12.9926 21.6997 10.5472 19.2259 10.5472 16.1849C10.5472 13.1439 12.9926 10.6705 15.9985 10.6705Z" fill="#FFD84A"/>
<path d="M15.9987 22.364C19.3667 22.364 22.1074 19.592 22.1074 16.1842C22.1074 12.7764 19.3672 10.0044 15.9987 10.0044C12.6303 10.0044 9.89014 12.7764 9.89014 16.1842C9.89014 19.592 12.6303 22.364 15.9987 22.364Z" fill="white"/>
</svg>
