<svg width="272" height="417" viewBox="0 0 272 417" fill="none" xmlns="http://www.w3.org/2000/svg">
<path d="M270.897 221.564C270.584 220.107 270.145 218.694 269.572 217.335C269.044 216.074 268.409 214.903 267.693 213.821C267.487 213.508 267.281 213.213 267.057 212.909C266.833 212.614 266.61 212.328 266.377 212.05C266.028 211.63 265.661 211.228 265.276 210.843C264.381 209.949 263.414 209.144 262.367 208.447C262.071 208.25 261.758 208.054 261.445 207.875C260.827 207.508 260.174 207.177 259.511 206.882C258.67 206.516 257.811 206.194 256.907 205.926C256.522 205.809 256.128 205.711 255.725 205.622C255.322 205.532 254.928 205.452 254.517 205.38C253.693 205.246 252.861 205.139 252.001 205.085C251.59 205.058 251.169 205.031 250.748 205.022C241.188 204.862 236.086 208.823 231.109 212.649C228.344 214.786 225.667 216.834 222.319 217.987C222.122 218.05 221.917 218.122 221.711 218.184C221.487 218.247 221.254 218.318 221.021 218.381C220.816 218.435 220.61 218.479 220.404 218.533C219.697 218.685 218.972 218.801 218.202 218.864C216.913 218.971 215.525 218.962 214.013 218.783C212.616 218.622 211.283 218.336 210.003 217.943C209.689 217.844 209.367 217.746 209.063 217.639C207.98 217.254 206.923 216.807 205.939 216.306C205.652 216.163 205.375 216.02 205.097 215.859C202.197 214.268 199.727 212.247 197.74 210.271C197.552 210.083 197.364 209.896 197.185 209.708C196.272 208.769 195.484 207.866 194.804 207.025C194.526 206.686 194.275 206.364 194.034 206.06C193.917 205.899 193.801 205.747 193.694 205.604C193.47 205.309 193.273 205.031 193.094 204.772C192.995 204.638 192.915 204.522 192.834 204.397H192.297V202.769H194.311C203.97 198.871 212.813 194.034 220.672 188.266C224.96 185.128 228.881 181.739 232.434 178.136C247.812 162.542 256.128 142.978 256.128 121.77C256.128 112.023 254.973 102.832 252.7 94.2748C252.162 92.2541 251.563 90.278 250.9 88.3378C250.569 87.3721 250.22 86.4064 249.862 85.4497C249.683 84.9758 249.495 84.493 249.307 84.028C248.743 82.6064 248.134 81.2115 247.508 79.8345C246.872 78.4576 246.201 77.1074 245.494 75.7752C245.02 74.881 244.536 74.0048 244.035 73.1285C244.017 73.0749 243.999 73.0123 243.972 72.9318C243.945 72.8513 243.918 72.753 243.883 72.6457C243.865 72.592 243.847 72.5294 243.829 72.4669C243.766 72.2791 243.704 72.0556 243.623 71.7963C243.471 71.2866 243.283 70.6518 243.059 69.9007C242.952 69.5252 242.835 69.1228 242.719 68.7026C242.477 67.8531 242.209 66.8964 241.931 65.8592C240.58 60.8342 238.861 53.7973 237.671 46.5548C237.509 45.5534 237.357 44.5519 237.214 43.5505C236.999 42.0484 236.811 40.5462 236.668 39.062C236.614 38.5612 236.57 38.0695 236.525 37.5866C236.319 35.1725 235.979 32.7225 235.495 30.2815C233.714 21.2508 230.053 12.3988 224.503 6.6853C224.351 6.5333 224.208 6.3813 224.047 6.22929C221.603 3.82407 218.811 2.02686 215.669 1.07013C215.427 0.998601 215.176 0.944953 214.935 0.882363C214.111 0.658829 213.279 0.471061 212.455 0.33694C211.802 0.229644 211.148 0.140231 210.495 0.0776411C210.28 0.0597584 210.056 0.0418757 209.842 0.0329343C201.231 -0.423075 192.36 3.85089 182.37 13.1946C177.045 18.1749 172.972 21.3581 168.487 22.7619C167.637 23.0301 166.76 23.2358 165.874 23.3699C164.182 23.6292 162.4 23.6739 160.44 23.4772C160.172 23.4593 159.894 23.4235 159.617 23.3878C159.608 23.3878 159.599 23.3878 159.59 23.3878H159.572C150.406 22.0108 140.721 21.2776 130.74 21.1614C129.845 21.1524 128.95 21.1435 128.055 21.1435C117.126 21.1435 106.519 21.9035 96.538 23.4056C96.1979 23.4414 95.8756 23.4682 95.5444 23.504C94.1391 23.6381 92.8143 23.656 91.5612 23.5487C85.3401 23.0212 80.5602 19.5966 73.7395 13.2214C67.1962 7.09661 61.1273 3.17135 55.3001 1.31155C53.1608 0.623064 51.0662 0.220703 48.9806 0.0955238C46.5459 -0.0564792 44.147 0.167055 41.7481 0.757184C41.3095 0.86448 40.8798 0.971777 40.4412 1.09696C34.1486 3.01041 29.2613 8.28581 25.7882 15.0186C25.3586 15.8591 24.9379 16.7175 24.553 17.6027C24.1591 18.4879 23.7921 19.391 23.452 20.303C23.2819 20.759 23.1118 21.2239 22.9507 21.6889C22.4674 23.0837 22.0287 24.5054 21.6439 25.9539C21.3932 26.9107 21.1515 27.8853 20.9367 28.8599C20.2922 31.7837 19.8536 34.7343 19.603 37.6224C19.236 42.0126 18.5199 46.6263 17.6695 51.0165C17.2936 52.9747 16.8908 54.8792 16.479 56.7033C15.763 59.9043 15.02 62.8549 14.3487 65.3495C14.2502 65.7072 14.1607 66.0559 14.0622 66.3957C13.8832 67.0752 13.7042 67.7101 13.5431 68.3002C13.4625 68.5953 13.373 68.8814 13.3014 69.1496C13.2656 69.2837 13.2208 69.4179 13.185 69.552C13.1134 69.8113 13.0418 70.0616 12.9702 70.3031C12.8359 70.7769 12.7106 71.1972 12.6032 71.5727C12.5495 71.7515 12.4958 71.9304 12.451 72.0824C12.4331 72.1629 12.4063 72.2344 12.3884 72.3059C12.3257 72.5205 12.2631 72.6993 12.2183 72.8424C12.1646 72.9944 12.1377 73.1017 12.1109 73.1732C11.8603 73.6114 11.6096 74.0495 11.3769 74.4876C10.1595 76.6872 9.04065 78.9493 8.02022 81.2652C7.82329 81.7301 7.61742 82.1951 7.42049 82.66C6.82972 84.0638 6.27475 85.4944 5.75558 86.934C5.40649 87.8996 5.07529 88.8743 4.76201 89.8578C4.44872 90.8414 4.14438 91.8249 3.86689 92.8263C3.58046 93.8278 3.31192 94.8292 3.06129 95.8485C1.01148 103.923 0 112.605 0 121.778C0 138.91 5.42439 154.969 15.6197 168.721C16.1031 169.373 16.6044 170.026 17.1056 170.67C17.6158 171.314 18.135 171.948 18.6542 172.583C20.2385 174.479 21.9213 176.33 23.6937 178.136C27.2473 181.73 31.1768 185.119 35.4644 188.257C42.6343 193.515 50.6008 198.004 59.2744 201.714C53.0176 205.711 27.5068 223.388 13.561 254.334C12.7822 256.051 12.0482 257.812 11.35 259.609C10.8846 260.808 10.437 262.033 10.0074 263.275C9.79255 263.892 9.58667 264.518 9.38079 265.144C8.56624 267.657 7.83225 270.241 7.18776 272.896C6.96398 273.71 2.35415 290.645 6.85657 303.377C6.99084 303.753 7.13406 304.12 7.27728 304.495C7.57266 305.228 7.90385 305.953 8.27085 306.65C8.53938 307.177 8.83477 307.687 9.15701 308.188C9.26443 308.358 9.37184 308.519 9.47925 308.68C9.62247 308.894 9.76569 309.091 9.91786 309.297C12.1377 312.319 15.0737 314.474 18.69 315.77C20.3728 316.369 22.1988 316.781 24.1681 316.995C25.9314 317.192 27.5874 317.254 29.1628 317.192C31.6781 317.085 33.9606 316.629 36.0373 315.797C43.0997 312.971 47.8796 305.747 51.7555 292.612C51.8629 292.46 51.9166 292.272 51.9076 292.093C52.5969 289.697 53.2682 287.131 53.9127 284.341C54.772 280.64 55.7745 277.358 56.8576 274.47C57.1262 273.746 57.4036 273.048 57.6811 272.369C57.8154 272.029 57.9676 271.698 58.1018 271.367C58.5225 270.384 58.9522 269.463 59.3818 268.587C59.9547 267.424 60.5365 266.342 61.1094 265.35C61.5391 264.599 61.9687 263.901 62.3894 263.258C63.929 260.879 65.3791 259.1 66.5517 257.848C66.4443 258.134 66.3279 258.447 66.2116 258.769C65.8804 259.636 65.5313 260.638 65.1553 261.764C65.0569 262.05 64.9674 262.337 64.8689 262.632C64.7257 263.079 64.5825 263.544 64.4392 264.018C64.1439 264.983 63.8485 266.029 63.5441 267.138C63.4636 267.424 63.392 267.71 63.3203 268.005C63.1682 268.596 63.016 269.204 62.8638 269.82C62.7922 270.133 62.7117 270.455 62.6401 270.777C60.2859 280.792 58.254 295.205 59.167 313.624C59.3102 316.512 59.4893 319.177 59.6951 321.654C59.7936 322.887 59.91 324.077 60.0263 325.212C60.0532 325.436 60.08 325.668 60.0979 325.892C60.1158 326.106 60.1427 326.33 60.1606 326.544C56.7413 326.58 53.483 326.974 50.4397 327.662C38.5884 330.38 30.1295 337.784 29.0106 347.297C28.9748 347.583 28.948 347.887 28.9301 348.191C28.7958 350.606 29.1986 353.503 30.416 356.426C30.6845 357.07 30.9888 357.714 31.3379 358.349C31.517 358.662 31.696 358.984 31.8929 359.297C32.0898 359.61 32.2957 359.931 32.5105 360.244C32.7343 360.557 32.9581 360.87 33.1998 361.174C33.9248 362.095 34.7483 362.998 35.6882 363.866C38.3019 366.262 42.1867 368.694 47.808 369.982C48.3451 370.107 48.9001 370.223 49.4819 370.321C49.5893 370.339 49.6967 370.357 49.8041 370.375C50.1443 370.438 50.5023 370.482 50.8604 370.536C51.9166 370.688 53.0176 370.786 54.1812 370.849C54.5661 370.867 54.96 370.885 55.3628 370.903C55.7835 370.92 56.2221 370.92 56.6607 370.92C56.7771 370.92 56.9024 370.92 57.0187 370.911C57.3768 370.911 57.7527 370.894 58.1197 370.885C61.0289 370.795 64.2244 370.464 67.7512 369.794C67.7512 369.892 67.7422 369.982 67.7333 370.08C67.7333 370.178 67.7243 370.277 67.7154 370.366C67.6975 370.643 67.6796 370.92 67.6527 371.207C67.6437 371.35 67.6348 371.475 67.6169 371.618C67.6169 371.627 67.6169 371.752 67.59 371.984C67.5721 372.154 67.5542 372.387 67.5184 372.655C67.4737 373.031 67.411 373.478 67.3305 374.005C67.1425 375.176 66.8381 376.697 66.3637 378.351C65.7282 380.559 64.7794 383.009 63.383 385.218C63.1503 385.593 62.9086 385.996 62.6669 386.425C62.5506 386.639 62.4252 386.872 62.3089 387.104C62.2552 387.221 62.1925 387.337 62.1298 387.462C61.7718 388.186 61.4227 388.964 61.0915 389.787C59.9458 392.675 59.1044 396.153 59.2923 399.595C59.2923 399.613 59.2923 399.631 59.2923 399.649C59.355 400.91 59.5698 402.17 59.9458 403.395C60.2322 404.316 60.6171 405.228 61.1184 406.105C63.8306 410.87 69.3534 413.964 77.5706 415.377C78.4209 415.52 79.316 415.654 80.2201 415.761C80.6766 415.815 81.1421 415.869 81.6075 415.913C82.0819 415.967 82.5563 416.003 83.0397 416.039C83.532 416.074 84.0243 416.101 84.5166 416.137C85.0179 416.164 85.5192 416.19 86.0383 416.208C87.0677 416.244 88.1329 416.262 89.216 416.262C89.9231 416.262 90.6571 416.253 91.3911 416.235C91.6059 416.235 91.8029 416.235 92.0087 416.226L93.9511 416.182C99.1786 416.056 105.606 415.904 111.173 414.644C111.442 414.581 111.71 414.518 111.979 414.447C112.775 414.25 113.545 414.027 114.288 413.776C116.875 412.909 119.149 411.711 120.849 410.039C120.984 409.905 121.1 409.78 121.234 409.636C121.727 409.1 122.165 408.519 122.541 407.884C122.908 407.249 123.221 406.57 123.463 405.836C123.758 404.915 123.946 403.914 124.009 402.814C124.108 401.017 124.009 398.961 123.767 396.734C123.66 395.751 123.526 394.722 123.382 393.667C122.98 390.86 122.443 387.846 121.888 384.762C119.748 372.861 117.323 359.368 120.939 349.211C121.001 349.041 120.984 348.88 120.939 348.719C122.228 348.969 123.705 349.193 125.28 349.354C125.558 349.381 125.826 349.408 126.113 349.434C127.214 349.524 128.359 349.577 129.523 349.577C130.391 349.577 131.268 349.542 132.146 349.479C133.166 349.399 134.186 349.264 135.198 349.077C135.207 349.112 135.198 349.157 135.216 349.202C135.261 349.327 135.296 349.452 135.332 349.577C135.422 349.846 135.502 350.123 135.592 350.391C138.635 360.396 136.335 373.299 134.276 384.753C133.05 391.593 131.895 398.057 132.155 402.805C132.674 412.104 142.269 414.957 152.008 415.824C155.902 416.173 159.814 416.208 163.188 416.208C164.146 416.235 165.077 416.244 165.99 416.244C166.903 416.244 167.834 416.235 168.729 416.208C172.238 416.101 175.415 415.779 178.262 415.252C184.17 414.161 188.636 412.158 191.608 409.27C192.226 408.662 192.781 408.027 193.273 407.348C193.568 406.945 193.837 406.525 194.088 406.087C194.607 405.166 195.009 404.218 195.296 403.243C195.376 402.975 195.448 402.716 195.511 402.448C195.726 401.527 195.851 400.579 195.914 399.631V399.577C196.2 393.98 193.801 388.329 191.823 385.2C191.008 383.912 190.346 382.544 189.818 381.185C189.737 380.988 189.666 380.801 189.594 380.613C189.451 380.228 189.317 379.844 189.191 379.459C188.636 377.752 188.26 376.133 188.019 374.819C187.938 374.381 187.866 373.969 187.822 373.603C187.634 372.387 187.58 371.618 187.58 371.582C186.989 365.207 187.437 360.978 188.395 356.865C188.466 356.57 188.538 356.266 188.609 355.97C188.762 355.371 188.914 354.772 189.084 354.173C189.129 354.021 189.164 353.869 189.209 353.717C189.46 352.805 189.737 351.875 190.024 350.901C191.268 346.68 192.682 341.879 193.864 334.842C194.025 333.867 194.186 332.839 194.338 331.775C194.49 330.702 194.634 329.585 194.786 328.422C194.839 327.948 194.893 327.474 194.956 326.992C195.018 326.509 195.063 326.017 195.117 325.516C195.171 325.016 195.215 324.506 195.269 323.987C195.323 323.469 195.368 322.941 195.412 322.405C195.466 321.859 195.511 321.323 195.547 320.759C195.591 320.196 195.627 319.633 195.672 319.061C195.797 317.326 195.905 315.502 195.994 313.588C195.994 313.579 195.994 313.571 195.994 313.562C195.994 313.562 195.994 313.544 195.994 313.535C196.997 295.947 195.466 282.553 193.389 272.986C193.371 272.905 193.354 272.816 193.336 272.735C191.698 265.296 189.737 260.2 188.413 257.258C188.762 257.499 189.12 257.732 189.469 257.964C191.93 259.574 194.383 260.924 196.8 262.068C197.149 262.229 197.498 262.39 197.838 262.542C198.017 262.623 198.187 262.703 198.366 262.775C198.527 262.855 198.688 262.927 198.85 262.989C200.908 263.866 202.94 264.599 204.918 265.189C210.003 266.709 214.809 267.379 219.133 267.523C219.75 267.54 220.359 267.549 220.959 267.549C222.382 267.549 223.734 267.496 225.032 267.397C225.909 267.335 226.768 267.254 227.583 267.156C228.576 267.031 229.561 266.888 230.546 266.709C236.471 265.681 242.227 263.705 247.508 260.933C248.43 260.441 249.352 259.931 250.247 259.395C251.142 258.858 252.028 258.295 252.896 257.714C253.469 257.32 254.033 256.918 254.597 256.516C254.884 256.31 255.161 256.104 255.439 255.89C255.985 255.47 256.522 255.04 257.059 254.602C258.124 253.717 259.153 252.805 260.138 251.848C260.245 251.813 260.344 251.741 260.424 251.661C260.505 251.571 260.577 251.473 260.621 251.357C260.8 251.178 260.979 250.999 261.167 250.82C261.346 250.641 261.525 250.454 261.695 250.275C269.501 242.013 272.92 230.961 270.915 221.537L270.897 221.564ZM227.395 265.564C224.978 265.851 222.275 266.012 219.33 265.922C217.432 265.868 215.436 265.707 213.368 265.412C211.274 265.117 209.108 264.688 206.87 264.08C204.032 263.32 201.087 262.283 198.089 260.906C197.731 260.745 197.382 260.575 197.023 260.405C196.656 260.226 196.29 260.048 195.923 259.86C192.87 258.304 189.764 256.391 186.658 254.039C186.604 254.003 186.533 253.976 186.479 253.959C186.443 253.941 186.407 253.923 186.372 253.905C186.345 253.905 186.309 253.905 186.282 253.905C186.211 253.896 186.13 253.887 186.058 253.896C186.04 253.896 186.023 253.914 186.005 253.914C185.924 253.932 185.835 253.959 185.763 254.003H185.754C185.754 254.003 185.691 254.066 185.664 254.093C185.62 254.128 185.566 254.155 185.53 254.209C185.53 254.209 185.53 254.209 185.53 254.218C185.494 254.271 185.477 254.325 185.45 254.379C185.432 254.423 185.396 254.459 185.387 254.504C185.387 254.54 185.387 254.584 185.387 254.62C185.387 254.683 185.369 254.745 185.387 254.817C185.387 254.844 185.405 254.871 185.414 254.906C185.432 254.978 185.45 255.049 185.494 255.112V255.121C185.521 255.166 188.323 259.797 190.802 269.266C192.915 277.313 195.18 290.484 194.598 308.706C138.223 326.124 77.0156 312.837 63.2398 309.422C62.9444 309.35 62.6669 309.288 62.4163 309.216C62.103 309.136 61.8345 309.064 61.5928 309.002C61.1721 308.894 60.8409 308.805 60.644 308.751C60.1785 288.463 63.3024 273.576 65.9699 264.688C66.2653 263.696 66.5607 262.784 66.8381 261.943C67.1425 261.022 67.4379 260.2 67.7064 259.466C68.7626 256.623 69.5235 255.13 69.5503 255.076C69.7204 254.745 69.6488 254.343 69.3713 254.093C69.0938 253.842 68.6821 253.815 68.3777 254.03C67.9391 254.325 57.5379 261.523 52.3463 283.993C51.8002 286.389 51.2274 288.606 50.6366 290.672C36.1178 278.368 14.6262 281.543 7.95756 282.92C7.64427 282.982 7.36679 283.045 7.11615 283.098C7.08035 283.098 7.03559 283.116 7.00874 283.116C7.64427 277.51 8.75421 273.406 8.79002 273.299C19.4508 228.896 56.965 205.014 61.1363 202.474C61.2079 202.501 61.2795 202.528 61.3511 202.564C61.6644 202.689 61.9687 202.805 62.282 202.93C75.7445 208.322 90.8093 211.88 107.145 213.49C108.362 215.198 114.225 222.244 128.073 222.244C141.482 222.244 146.459 215.636 147.667 213.615C163.251 212.176 177.698 208.992 190.731 204.146C192.53 207.07 200.523 218.828 213.816 220.375C217.28 220.777 220.108 220.419 222.579 219.615C223.215 219.409 223.823 219.159 224.414 218.891C225.005 218.631 225.587 218.345 226.142 218.032C226.276 217.952 226.428 217.88 226.571 217.8C226.571 217.853 226.589 217.925 226.598 217.979C226.634 218.202 226.67 218.47 226.723 218.783C226.759 219.025 226.813 219.302 226.876 219.588C228.218 226.482 234.144 246.385 258.079 251.544C249.853 259.127 238.861 264.187 227.404 265.538L227.395 265.564Z" fill="white"/>
<path d="M50.6541 170.393C50.7436 170.598 50.9137 170.75 51.1196 170.822C60.0618 179.101 71.6714 185.834 85.125 190.43C85.1966 190.466 85.2682 190.493 85.3487 190.511C98.1668 194.865 112.641 197.297 128.064 197.297C182.227 197.297 224.655 167.335 224.646 129.101C224.646 110.298 214.299 91.5209 196.271 77.5724C177.787 63.2751 153.556 55.4067 128.046 55.4067C101.738 55.4067 77.5165 62.5688 59.838 75.5695C41.5329 89.0262 31.4539 108.045 31.4629 129.128C31.4629 144.758 38.5611 159.001 50.6541 170.384V170.393ZM53.3305 170.661C58.6296 170.258 74.491 170.67 83.8539 188.284C71.922 183.983 61.5387 177.966 53.3305 170.661ZM170.42 188.919C180.875 168.408 199.529 170.294 202.644 170.777C194.033 178.395 183.059 184.609 170.42 188.919ZM60.8047 76.8839C78.2057 64.0888 102.087 57.043 128.046 57.043C153.198 57.043 177.08 64.7862 195.278 78.8689C212.911 92.5044 223.017 110.816 223.026 129.11C223.026 144.481 215.946 158.483 203.907 169.633C203.79 169.445 203.611 169.302 203.378 169.257C203.137 169.212 197.444 168.13 190.247 170.062C183.605 171.841 174.422 176.634 168.371 189.375C168.335 189.456 168.317 189.545 168.308 189.625C156.152 193.515 142.538 195.679 128.073 195.688C112.909 195.688 98.677 193.318 86.0827 189.062C75.3772 166.977 55.1208 168.738 51.7372 169.203C39.9933 158.134 33.101 144.302 33.101 129.146C33.101 108.59 42.9383 90.0366 60.8137 76.8928L60.8047 76.8839Z" fill="#7C7877"/>
<path d="M128.064 175.525C130.758 175.525 132.942 174.228 132.942 172.628C132.942 171.027 130.758 169.731 128.064 169.731C125.37 169.731 123.186 171.027 123.186 172.628C123.186 174.228 125.37 175.525 128.064 175.525Z" fill="#7C7877"/>
<path d="M76.7831 155.049C77.1233 155.049 77.4455 155.058 77.7767 155.058C90.1024 155.058 95.1151 149.157 95.3299 148.897C95.7596 148.379 95.679 147.619 95.1688 147.189C94.6496 146.76 93.8798 146.832 93.4502 147.341C93.4054 147.395 88.6076 152.93 76.8458 152.608C65.0124 152.313 59.6149 146.501 59.5343 146.412C59.0868 145.911 58.317 145.866 57.8157 146.313C57.3144 146.76 57.2697 147.529 57.7083 148.03C57.95 148.307 63.7861 154.709 76.7742 155.04L76.7831 155.049Z" fill="#7C7877"/>
<path d="M178.351 155.049C178.674 155.049 179.005 155.049 179.345 155.04C192.333 154.709 198.169 148.298 198.411 148.021C198.858 147.52 198.814 146.743 198.303 146.304C197.802 145.857 197.023 145.902 196.585 146.412C196.531 146.474 191.223 152.304 179.282 152.608C167.494 152.894 162.723 147.404 162.678 147.351C162.248 146.832 161.478 146.76 160.959 147.19C160.44 147.619 160.369 148.388 160.798 148.906C161.013 149.166 166.026 155.067 178.351 155.067V155.049Z" fill="#7C7877"/>
<path d="M270.897 221.563C270.584 220.105 270.145 218.693 269.572 217.334C269.044 216.073 268.409 214.902 267.693 213.82C267.487 213.507 267.281 213.203 267.057 212.908C266.833 212.613 266.61 212.326 266.377 212.049C266.028 211.629 265.661 211.227 265.276 210.842C264.381 209.948 263.414 209.143 262.367 208.446C262.071 208.249 261.758 208.052 261.445 207.874C260.827 207.507 260.183 207.167 259.511 206.881C258.679 206.506 257.811 206.193 256.907 205.924C256.522 205.817 256.128 205.71 255.725 205.629C255.322 205.54 254.928 205.459 254.517 205.388C253.693 205.254 252.861 205.147 252.001 205.093C251.59 205.057 251.178 205.039 250.748 205.03C241.188 204.869 236.086 208.83 231.109 212.657C228.343 214.794 225.667 216.842 222.319 217.995C222.122 218.058 221.917 218.129 221.711 218.192C221.487 218.255 221.254 218.326 221.021 218.389C220.816 218.442 220.61 218.487 220.404 218.541C219.697 218.693 218.972 218.809 218.202 218.872C216.913 218.979 215.525 218.97 214.013 218.791C212.616 218.63 211.283 218.344 210.003 217.951C209.689 217.852 209.367 217.754 209.063 217.647C207.98 217.262 206.923 216.815 205.939 216.314C205.652 216.162 205.375 216.019 205.097 215.867C202.197 214.276 199.727 212.255 197.74 210.279C197.552 210.091 197.364 209.903 197.185 209.716C196.289 208.786 195.484 207.874 194.804 207.033C194.535 206.702 194.275 206.371 194.034 206.067C193.917 205.907 193.801 205.755 193.694 205.611C193.479 205.316 193.282 205.039 193.094 204.78C192.995 204.646 192.915 204.53 192.834 204.404H192.297V202.777H194.311C203.97 198.879 212.813 194.041 220.672 188.274C224.96 185.136 228.881 181.747 232.434 178.144C247.812 162.559 256.128 142.995 256.128 121.777C256.128 112.031 254.973 102.84 252.7 94.2826C252.162 92.2619 251.572 90.2859 250.9 88.3456C250.569 87.3799 250.22 86.4143 249.862 85.4575C249.683 84.9836 249.495 84.5008 249.307 84.0358C248.743 82.6142 248.143 81.2193 247.508 79.8423C246.872 78.4654 246.201 77.1152 245.494 75.783C245.019 74.8888 244.536 74.0126 244.035 73.1363C244.017 73.0827 243.999 73.0201 243.972 72.9396C243.954 72.8592 243.918 72.7608 243.883 72.6535C243.865 72.5999 243.847 72.5373 243.829 72.4747C243.766 72.2869 243.704 72.0634 243.623 71.8041C243.471 71.2944 243.283 70.6596 243.059 69.9085C242.952 69.533 242.835 69.1306 242.719 68.7104C242.477 67.8609 242.218 66.9042 241.931 65.867C240.58 60.842 238.861 53.8051 237.671 46.5626C237.509 45.5612 237.357 44.5598 237.214 43.5583C236.999 42.0562 236.82 40.554 236.668 39.0698C236.614 38.5691 236.57 38.0773 236.525 37.5944C236.319 35.1803 235.979 32.7303 235.495 30.2894C233.723 21.2586 230.062 12.4066 224.503 6.69312C224.351 6.54111 224.208 6.38911 224.047 6.23711C221.603 3.83188 218.811 2.03467 215.669 1.07794C215.427 1.00641 215.176 0.952765 214.935 0.890176C214.111 0.666642 213.279 0.478873 212.455 0.344753C211.802 0.237457 211.148 0.139102 210.495 0.0854536C210.28 0.0675709 210.056 0.0496882 209.841 0.0407468C201.23 -0.415262 192.36 3.85871 182.37 13.2024C177.045 18.1828 172.972 21.3659 168.487 22.7697C167.637 23.0379 166.76 23.2436 165.873 23.3777C164.182 23.637 162.4 23.6817 160.44 23.485C160.172 23.4582 159.894 23.4224 159.617 23.3866H159.572C150.406 22.0097 140.721 21.2765 130.74 21.1602C129.845 21.1513 128.95 21.1423 128.055 21.1423C117.126 21.1423 106.519 21.9024 96.538 23.4045C96.1979 23.4403 95.8756 23.4671 95.5444 23.5029C94.1391 23.637 92.8143 23.6549 91.5612 23.5476C85.3401 23.02 80.5602 19.5955 73.7395 13.2203C67.1962 7.09548 61.1273 3.17022 55.3001 1.31042C53.1608 0.621935 51.0662 0.219574 48.9806 0.094395C46.5459 -0.0576081 44.147 0.165926 41.7481 0.756055C41.3095 0.863352 40.8798 0.970648 40.4412 1.09583C34.1486 3.00928 29.2613 8.28468 25.7882 15.0175C25.3586 15.858 24.9379 16.7164 24.553 17.6016C24.1681 18.4868 23.7921 19.3898 23.452 20.3019C23.2819 20.7579 23.1118 21.2228 22.9507 21.6878C22.4674 23.0826 22.0287 24.5043 21.6438 25.9528C21.3932 26.9095 21.1515 27.8841 20.9367 28.8587C20.3012 31.7826 19.8536 34.7332 19.6119 37.6213C19.2449 42.0115 18.5289 46.6252 17.6695 51.0154C17.2936 52.9736 16.8908 54.8781 16.479 56.7021C15.7629 59.9031 15.02 62.8538 14.3487 65.3484C14.2502 65.7061 14.1607 66.0548 14.0622 66.3946C13.8832 67.0741 13.7042 67.7089 13.5431 68.2991C13.4625 68.5941 13.373 68.8802 13.3014 69.1485C13.2656 69.2826 13.2208 69.4167 13.185 69.5508C13.1134 69.8102 13.0418 70.0605 12.9702 70.3019C12.8359 70.7758 12.7106 71.1961 12.6032 71.5716C12.5495 71.7504 12.4958 71.9293 12.451 72.0813C12.4331 72.1617 12.4063 72.2333 12.3884 72.3048C12.3257 72.5194 12.2631 72.6982 12.2183 72.8413C12.1735 72.9933 12.1377 73.1006 12.1198 73.1721C11.8692 73.6102 11.6186 74.0483 11.3769 74.4865C10.1595 76.6861 9.04065 78.9482 8.02022 81.264C7.82329 81.729 7.61742 82.1939 7.42049 82.6589C6.82972 84.0627 6.27475 85.4933 5.75558 86.9328C5.41544 87.8985 5.07529 88.8731 4.762 89.8567C4.44871 90.8402 4.14438 91.8238 3.86689 92.8252C3.58045 93.8266 3.32087 94.8281 3.06129 95.8474C1.01148 103.921 0 112.603 0 121.777C0 138.909 5.42439 154.968 15.6197 168.719C16.1031 169.372 16.6044 170.025 17.1056 170.669C17.6158 171.312 18.135 171.947 18.6542 172.582C20.2385 174.478 21.9213 176.329 23.6937 178.135C27.2473 181.729 31.1768 185.118 35.4644 188.256C42.6343 193.514 50.6008 198.002 59.2744 201.713C53.0176 205.71 27.5068 223.387 13.561 254.333C12.7912 256.05 12.0482 257.811 11.35 259.608C10.8846 260.806 10.437 262.031 10.0074 263.274C9.79254 263.891 9.58667 264.517 9.38079 265.143C8.56624 267.656 7.83224 270.24 7.19671 272.895C6.97293 273.709 2.3631 290.635 6.85657 303.376C6.99084 303.752 7.13406 304.118 7.27727 304.494C7.57266 305.227 7.90385 305.951 8.27085 306.649C8.53938 307.167 8.84372 307.686 9.15701 308.187C9.26443 308.357 9.37184 308.518 9.4882 308.678C9.63142 308.893 9.77464 309.09 9.91786 309.295C12.1377 312.318 15.0737 314.473 18.69 315.769C20.3728 316.368 22.1988 316.779 24.1681 316.994C25.9314 317.191 27.5874 317.253 29.1628 317.191C31.6781 317.083 33.9606 316.627 36.0373 315.796C43.0997 312.97 47.8796 305.746 51.7555 292.611C51.8629 292.459 51.9255 292.271 51.9076 292.092C52.5969 289.696 53.2682 287.13 53.9127 284.34C54.772 280.638 55.7745 277.357 56.8576 274.469C57.1261 273.745 57.4036 273.047 57.6811 272.368C57.8154 272.028 57.9676 271.697 58.1018 271.366C58.5225 270.383 58.9522 269.462 59.3818 268.585C59.9547 267.423 60.5365 266.341 61.1094 265.349C61.5391 264.598 61.9687 263.9 62.3894 263.256C63.938 260.878 65.388 259.099 66.5517 257.847C66.5517 257.847 66.5547 257.844 66.5606 257.838C66.4443 258.133 66.3279 258.446 66.2026 258.768C65.8714 259.635 65.5223 260.637 65.1464 261.763C65.0479 262.049 64.9584 262.335 64.8599 262.63C64.7257 263.078 64.5735 263.543 64.4303 264.016C64.1349 264.982 63.8395 266.028 63.5352 267.137C63.4546 267.423 63.383 267.709 63.3024 268.004C63.1503 268.594 62.9981 269.202 62.8459 269.819C62.7743 270.132 62.6938 270.454 62.6221 270.776C60.268 280.79 58.2361 295.204 59.1491 313.623C59.2923 316.511 59.4713 319.176 59.6772 321.652C59.7846 322.886 59.8921 324.076 60.0084 325.211C60.0353 325.435 60.0621 325.667 60.08 325.891C60.0979 326.105 60.1248 326.329 60.1516 326.543C56.7323 326.579 53.4741 326.973 50.4307 327.661C38.5794 330.379 30.1206 337.783 29.0017 347.296C28.9659 347.582 28.939 347.886 28.9211 348.19C28.7869 350.605 29.1897 353.502 30.407 356.425C30.6755 357.069 30.9799 357.704 31.329 358.348C31.508 358.661 31.687 358.983 31.8839 359.296C32.0809 359.608 32.2867 359.93 32.5016 360.243C32.7254 360.556 32.9491 360.869 33.1908 361.173C33.9159 362.094 34.7394 362.997 35.6792 363.865C38.293 366.261 42.1778 368.693 47.7991 369.98C48.3361 370.106 48.9001 370.222 49.4729 370.32C49.5803 370.338 49.6878 370.356 49.7952 370.374C50.1353 370.436 50.4934 370.481 50.8514 370.535C51.9076 370.687 53.0086 370.785 54.1723 370.848C54.5572 370.866 54.951 370.884 55.3538 370.901C55.7835 370.91 56.2221 370.919 56.6607 370.919C56.7771 370.919 56.8934 370.919 57.0187 370.919C57.3768 370.919 57.7527 370.901 58.1197 370.892C61.0288 370.803 64.2244 370.472 67.7512 369.802C67.7512 369.9 67.7332 369.989 67.7243 370.088C67.7243 370.186 67.7153 370.284 67.7064 370.374C67.6885 370.651 67.6706 370.928 67.6437 371.214C67.6258 371.357 67.6258 371.483 67.6079 371.626C67.6079 371.635 67.599 371.76 67.5721 371.992C67.5542 372.162 67.5363 372.395 67.5005 372.663C67.4558 373.038 67.3931 373.485 67.3125 374.013C67.1246 375.184 66.8202 376.704 66.3458 378.358C65.7103 380.567 64.7615 383.017 63.3651 385.225C63.1324 385.601 62.8907 386.003 62.649 386.433C62.5326 386.647 62.4073 386.88 62.291 387.112C62.2372 387.228 62.1746 387.345 62.1119 387.47C61.7539 388.194 61.4048 388.963 61.0736 389.794C59.9368 392.683 59.0954 396.152 59.2744 399.603C59.2744 399.621 59.2744 399.639 59.2744 399.657C59.346 400.918 59.5519 402.178 59.9279 403.403C60.2143 404.324 60.5992 405.236 61.1005 406.112C63.8126 410.878 69.3355 413.972 77.5526 415.385C78.403 415.528 79.2981 415.662 80.2022 415.769C80.6587 415.823 81.1241 415.876 81.5896 415.921C82.064 415.975 82.5384 416.011 83.0218 416.046C83.5141 416.082 84.0064 416.109 84.4987 416.145C85 416.171 85.5013 416.198 86.0204 416.216C87.0498 416.252 88.115 416.27 89.1981 416.27C89.9052 416.27 90.6392 416.261 91.3732 416.243C91.588 416.243 91.7849 416.243 91.9908 416.234L93.9332 416.189C99.1607 416.064 105.588 415.912 111.155 414.651C111.424 414.589 111.692 414.526 111.961 414.455C112.757 414.258 113.527 414.035 114.27 413.784C116.857 412.917 119.131 411.719 120.831 410.047C120.966 409.913 121.082 409.787 121.216 409.644C121.718 409.108 122.156 408.527 122.523 407.892C122.899 407.257 123.212 406.577 123.445 405.844C123.741 404.923 123.928 403.922 123.991 402.822C124.09 401.025 123.991 398.968 123.749 396.742C123.642 395.749 123.517 394.73 123.365 393.675C122.962 390.867 122.425 387.854 121.87 384.769C119.73 372.868 117.305 359.376 120.921 349.219C120.984 349.049 120.975 348.888 120.921 348.727C122.21 348.977 123.687 349.201 125.262 349.362C125.54 349.388 125.808 349.415 126.095 349.442C127.196 349.532 128.341 349.585 129.505 349.585C130.373 349.585 131.251 349.549 132.128 349.487C133.148 349.406 134.169 349.272 135.18 349.084C135.189 349.12 135.18 349.165 135.198 349.21C135.243 349.335 135.279 349.46 135.314 349.585C135.413 349.853 135.484 350.131 135.574 350.399C138.617 360.404 136.317 373.307 134.258 384.76C133.032 391.601 131.877 398.065 132.137 402.813C132.656 412.112 142.251 414.964 151.99 415.832C155.884 416.18 159.796 416.216 163.17 416.216C164.128 416.243 165.059 416.252 165.972 416.252C166.885 416.252 167.816 416.243 168.711 416.216C172.22 416.109 175.398 415.787 178.244 415.259C184.152 414.169 188.618 412.166 191.59 409.278C192.208 408.67 192.763 408.035 193.255 407.355C193.55 406.953 193.819 406.533 194.07 406.095C194.589 405.174 194.992 404.226 195.278 403.251C195.359 402.983 195.43 402.724 195.493 402.455C195.717 401.526 195.842 400.587 195.896 399.639V399.585C196.191 393.988 193.783 388.337 191.805 385.208C190.99 383.92 190.328 382.552 189.791 381.193C189.71 380.996 189.639 380.808 189.567 380.621C189.424 380.236 189.29 379.852 189.164 379.467C188.609 377.759 188.233 376.141 187.992 374.827C187.911 374.389 187.849 373.977 187.795 373.611C187.616 372.395 187.571 371.626 187.562 371.59C186.971 365.206 187.419 360.985 188.377 356.872C188.448 356.577 188.52 356.273 188.591 355.978C188.744 355.379 188.905 354.78 189.066 354.181C189.111 354.029 189.146 353.877 189.191 353.725C189.451 352.813 189.719 351.874 190.015 350.909C191.259 346.688 192.673 341.887 193.846 334.85C194.016 333.875 194.177 332.847 194.32 331.783C194.472 330.71 194.625 329.592 194.768 328.43C194.821 327.956 194.875 327.482 194.938 326.999C195 326.517 195.045 326.025 195.099 325.524C195.153 325.023 195.197 324.514 195.251 323.995C195.305 323.476 195.35 322.949 195.394 322.412C195.448 321.867 195.493 321.331 195.529 320.767C195.573 320.204 195.618 319.641 195.654 319.068C195.779 317.334 195.887 315.51 195.976 313.596C195.976 313.587 195.976 313.578 195.976 313.569V313.543C196.979 295.955 195.448 282.561 193.371 272.994C193.353 272.913 193.336 272.824 193.318 272.743C191.689 265.304 189.728 260.198 188.395 257.266C188.744 257.498 189.102 257.74 189.451 257.963C191.912 259.573 194.365 260.923 196.782 262.067C197.131 262.228 197.48 262.389 197.82 262.541C197.999 262.622 198.169 262.702 198.348 262.774C198.509 262.845 198.679 262.917 198.841 262.988C200.899 263.864 202.922 264.598 204.909 265.188C209.994 266.708 214.8 267.378 219.124 267.521C219.741 267.539 220.35 267.548 220.95 267.548C222.373 267.548 223.725 267.495 225.023 267.396C225.9 267.334 226.759 267.253 227.574 267.155C228.567 267.03 229.552 266.887 230.536 266.708C236.462 265.68 242.218 263.703 247.499 260.932C248.421 260.44 249.343 259.93 250.238 259.394C251.133 258.857 252.019 258.294 252.887 257.713C253.46 257.328 254.033 256.926 254.588 256.515C254.875 256.309 255.152 256.103 255.43 255.889C255.976 255.477 256.513 255.039 257.05 254.601C258.115 253.716 259.144 252.804 260.129 251.847C260.236 251.811 260.335 251.74 260.415 251.659C260.496 251.579 260.568 251.472 260.612 251.355C260.791 251.177 260.97 250.998 261.158 250.819C261.337 250.64 261.516 250.452 261.686 250.274C269.492 242.012 272.911 230.96 270.897 221.536V221.563ZM36.4401 186.951C34.4798 185.511 32.6 184.018 30.8009 182.489C30.5502 182.275 30.3085 182.078 30.0669 181.863C29.8968 181.711 29.7267 181.568 29.5656 181.416C12.818 166.663 3.1329 147.654 1.79918 126.784C1.79918 126.731 1.79023 126.677 1.79023 126.632C1.74547 125.953 1.71862 125.264 1.69176 124.576C1.69176 124.451 1.68281 124.335 1.67386 124.209C1.65596 123.405 1.63806 122.591 1.63806 121.786C1.63806 103.689 5.63922 87.5677 13.5431 73.8785C13.5699 73.8248 13.5968 73.7712 13.6147 73.7175C13.8653 72.9128 19.8357 53.8856 21.2052 37.7196C22.5658 21.6162 28.5899 10.8598 35.2406 5.6738C37.1114 4.21636 39.027 3.19705 40.9067 2.6248C41.3632 2.49068 41.8197 2.3655 42.2852 2.2582C44.0038 1.8469 45.7314 1.62337 47.4858 1.62337C55.3001 1.62337 63.4457 5.79004 72.6295 14.3648C82.5116 23.6012 88.1329 26.078 96.7618 24.9782C106.68 23.4939 117.206 22.7339 128.055 22.7339C138.904 22.7339 149.43 23.485 159.366 24.9692C162.785 25.3984 165.73 25.2643 168.666 24.3612C169.445 24.1288 170.215 23.8426 171.002 23.5029C171.736 23.172 172.479 22.7876 173.231 22.3584C176.275 20.6148 179.542 18.0218 183.48 14.338C190.883 7.41737 197.614 3.37587 204.041 2.06149C205.088 1.8469 206.136 1.72172 207.165 1.65019C208.114 1.5876 209.054 1.5876 209.985 1.64125C211.73 1.74855 213.476 2.05255 215.194 2.58009C223.743 5.17309 233.15 17.0383 234.905 37.6749C236.283 53.9035 242.254 72.8681 242.504 73.6728C242.522 73.7265 242.549 73.7801 242.576 73.8338C250.489 87.523 254.49 103.644 254.499 121.742C254.499 147.314 242.146 170.463 219.706 186.924C211.229 193.138 201.615 198.28 191.017 202.303C190.901 202.312 190.776 202.339 190.668 202.402C190.632 202.419 190.614 202.455 190.588 202.473C177.617 207.346 163.197 210.556 147.622 212.005C147.613 212.005 147.604 211.987 147.595 211.987C147.318 211.861 147.005 211.906 146.772 212.085C140.703 212.622 134.473 212.899 128.073 212.899C121.127 212.899 114.36 212.577 107.807 211.951C107.754 211.933 107.7 211.933 107.646 211.933C91.776 210.386 77.114 207.006 63.9827 201.883C63.1861 201.57 62.3984 201.257 61.6107 200.935C61.4943 200.837 61.3511 200.783 61.1989 200.765C52.1404 197.001 43.8516 192.387 36.4311 186.951H36.4401ZM145.581 213.811C143.737 216.18 138.859 220.624 128.073 220.624C117.349 220.624 111.683 216.091 109.446 213.721C115.497 214.249 121.709 214.517 128.073 214.517C134.043 214.517 139.888 214.276 145.581 213.811ZM24.365 315.393C22.4315 315.179 20.6771 314.75 19.048 314.151C15.6287 312.881 12.8717 310.771 10.8577 307.802C10.6877 307.543 10.5265 307.275 10.3654 307.006C6.50748 300.649 6.20314 291.86 6.82077 284.841C6.85657 284.832 6.90133 284.823 6.92818 284.814C7.15196 284.76 7.42049 284.698 7.76959 284.626C13.5878 283.357 35.7598 279.628 50.1264 292.387C43.8964 313.06 35.7687 316.654 24.365 315.393ZM48.0586 368.398C44.3887 367.539 41.5333 366.18 39.3044 364.669C38.3646 364.034 37.5142 363.364 36.7892 362.711C33.6205 359.805 31.866 356.416 31.0694 353.269C30.5323 351.168 30.4249 349.174 30.6218 347.502C30.7024 346.796 30.8367 346.098 31.0067 345.41C32.0451 341.341 34.6856 337.738 38.4541 334.886C41.6675 332.445 45.7135 330.549 50.2875 329.413C53.4204 328.636 56.795 328.197 60.3396 328.18C61.6465 339.097 63.5352 345.508 65.1374 350.944C66.8113 356.631 68.0823 360.95 67.8228 368.147C59.4892 369.784 53.0355 369.551 48.0497 368.389L48.0586 368.398ZM188.475 350.479C186.497 357.203 185.065 362.058 185.96 371.742C185.978 372.073 186.497 379.87 190.444 386.102C193.022 390.161 196.388 398.781 192.673 405.317C189.003 411.763 179.434 414.893 164.271 414.625C164.244 414.625 164.226 414.616 164.2 414.616C160.718 414.616 156.493 414.616 152.313 414.249C150.325 414.079 148.356 413.82 146.476 413.444C145.143 413.176 143.863 412.845 142.654 412.443C137.713 410.789 134.07 407.883 133.784 402.759C133.524 398.208 134.679 391.833 135.887 385.091C137.946 373.611 140.255 360.69 137.284 350.381C137.203 350.113 137.113 349.845 137.024 349.576C136.943 349.317 136.872 349.04 136.773 348.78C136.782 348.78 136.791 348.78 136.809 348.78C138.071 348.45 139.298 348.012 140.452 347.448C140.855 347.252 141.025 346.76 140.828 346.357C140.631 345.955 140.139 345.794 139.736 345.991C135.341 348.155 129.827 348.253 125.235 347.761C125.182 347.761 125.119 347.752 125.065 347.743C120.124 347.198 116.302 345.973 116.222 345.955C115.792 345.812 115.344 346.053 115.192 346.474C115.058 346.903 115.291 347.35 115.711 347.502C115.89 347.556 117.349 348.02 119.542 348.503C119.489 348.566 119.435 348.646 119.408 348.736C115.658 359.296 118.119 373.012 120.294 385.118C121.503 391.869 122.648 398.235 122.398 402.786C121.78 413.963 105.015 414.347 93.9153 414.607L91.964 414.66C86.5396 414.812 81.8313 414.526 77.8033 413.838C75.0463 413.364 72.6206 412.702 70.526 411.835C68.6194 411.057 66.9903 410.109 65.6476 409.001C64.3497 407.936 63.2935 406.729 62.5147 405.361C58.8 398.834 62.1656 390.215 64.7436 386.155C68.691 379.914 69.2102 372.117 69.2191 371.822C69.246 371.554 69.2639 371.295 69.2818 371.036C69.2997 370.749 69.3265 370.472 69.3445 370.195C69.3624 369.909 69.3802 369.641 69.3892 369.363C69.8457 361.245 68.503 356.658 66.6949 350.533C65.0837 345.07 63.1861 338.632 61.8971 327.527C61.8971 327.509 61.9061 327.473 61.915 327.455C61.915 327.437 61.915 327.429 61.924 327.411C61.924 327.285 61.8881 327.169 61.8434 327.071C61.8255 326.937 61.8165 326.785 61.7986 326.651C61.7718 326.382 61.736 326.123 61.7091 325.846C61.3332 322.269 61.0109 318.228 60.7782 313.605C60.7245 312.55 60.6887 311.513 60.6529 310.485C60.9035 310.556 61.2347 310.637 61.6196 310.735C61.8613 310.798 62.1388 310.86 62.4342 310.941C62.6938 311.003 62.9623 311.075 63.2577 311.146C65.8535 311.781 69.8815 312.702 75.0732 313.695C75.1806 314.928 75.4223 317.182 75.7356 317.87C75.7982 318.022 75.9504 318.112 76.1115 318.112C76.1652 318.112 76.2189 318.103 76.2726 318.076C76.4785 317.978 76.568 317.745 76.4874 317.539C76.2726 317.057 76.0578 315.322 75.9235 313.847C88.9385 316.305 108.801 319.131 131.43 319.131C144.785 319.131 159.097 318.13 173.527 315.501C173.401 316.69 173.187 318.711 173.008 319.793C172.972 320.016 173.124 320.222 173.348 320.267C173.366 320.267 173.392 320.267 173.41 320.267C173.607 320.267 173.777 320.123 173.813 319.927C174.01 318.729 174.243 316.493 174.359 315.349C181.09 314.097 187.84 312.479 194.526 310.44C194.481 311.477 194.437 312.532 194.374 313.605C194.374 313.623 194.374 313.641 194.374 313.659C193.38 333.875 190.659 343.094 188.475 350.506V350.479ZM227.395 265.563C224.978 265.849 222.275 266.01 219.33 265.921C217.432 265.867 215.436 265.706 213.368 265.411C211.274 265.116 209.107 264.687 206.87 264.079C204.032 263.319 201.087 262.282 198.089 260.905C197.731 260.744 197.382 260.574 197.023 260.404C196.656 260.225 196.289 260.046 195.922 259.859C192.87 258.303 189.764 256.389 186.658 254.038C186.604 254.002 186.533 253.975 186.479 253.957C186.443 253.94 186.407 253.922 186.372 253.904C186.345 253.904 186.309 253.904 186.282 253.904C186.21 253.895 186.13 253.886 186.058 253.895C186.04 253.895 186.023 253.913 186.005 253.913C185.924 253.931 185.835 253.957 185.763 254.002H185.754C185.754 254.002 185.691 254.065 185.664 254.092C185.62 254.127 185.566 254.154 185.53 254.208C185.53 254.208 185.53 254.208 185.53 254.217C185.494 254.27 185.476 254.324 185.45 254.378C185.432 254.422 185.396 254.458 185.387 254.503C185.387 254.539 185.387 254.583 185.387 254.619C185.387 254.682 185.369 254.744 185.387 254.816C185.387 254.843 185.405 254.869 185.414 254.905C185.432 254.977 185.45 255.048 185.494 255.111V255.12C185.521 255.164 188.323 259.796 190.802 269.265C192.915 277.312 195.18 290.483 194.598 308.705C138.223 326.123 77.0156 312.836 63.2398 309.421C62.9444 309.349 62.6669 309.286 62.4163 309.215C62.103 309.134 61.8344 309.063 61.5928 309C61.1721 308.893 60.8409 308.804 60.6439 308.75C60.1785 288.462 63.3024 273.575 65.9699 264.687C66.2653 263.695 66.5606 262.783 66.8381 261.942C67.1425 261.021 67.4379 260.198 67.7064 259.465C68.7626 256.622 69.5235 255.129 69.5503 255.075C69.7204 254.744 69.6488 254.342 69.3713 254.092C69.0938 253.841 68.6821 253.814 68.3777 254.029C67.9391 254.324 57.5379 261.522 52.3462 283.991C51.8002 286.388 51.2274 288.605 50.6366 290.671C36.1178 278.367 14.6262 281.541 7.95756 282.918C7.64427 282.981 7.36678 283.044 7.11615 283.097C7.08035 283.097 7.03559 283.115 7.00874 283.115C7.64427 277.509 8.75421 273.405 8.79002 273.298C19.4508 228.895 56.965 205.012 61.1363 202.473C61.2079 202.5 61.2795 202.527 61.3511 202.562C61.6644 202.688 61.9687 202.804 62.282 202.929C75.7445 208.321 90.8093 211.879 107.145 213.489C108.362 215.197 114.225 222.242 128.073 222.242C141.482 222.242 146.458 215.635 147.667 213.614C163.251 212.174 177.698 208.991 190.731 204.145C192.53 207.069 200.523 218.827 213.816 220.374C217.28 220.776 220.108 220.418 222.579 219.614C223.214 219.408 223.823 219.158 224.414 218.889C225.005 218.63 225.587 218.344 226.141 218.031C226.276 217.951 226.428 217.879 226.571 217.799C226.571 217.852 226.589 217.924 226.598 217.977C226.634 218.201 226.67 218.469 226.723 218.782C226.759 219.024 226.813 219.301 226.875 219.587C228.218 226.481 234.144 246.384 258.079 251.543C249.853 259.125 238.861 264.186 227.404 265.536L227.395 265.563ZM260.496 249.183C260.165 249.522 259.834 249.862 259.493 250.202C235.665 245.624 229.803 226.078 228.487 219.363C228.433 219.068 228.379 218.8 228.335 218.559C228.281 218.246 228.236 217.968 228.209 217.754C228.156 217.351 228.129 217.119 228.129 217.092C228.129 217.021 228.093 216.949 228.066 216.878C229.444 215.966 230.76 214.955 232.094 213.927C236.194 210.762 240.419 207.507 247.257 206.783C248.027 206.702 248.833 206.658 249.674 206.64C249.844 206.64 250.005 206.631 250.175 206.631C250.345 206.631 250.533 206.631 250.712 206.631C251.205 206.631 251.697 206.667 252.18 206.702C259.538 207.292 265.285 211.334 268.078 217.959C272.123 227.554 269.08 240.098 260.505 249.183H260.496Z" fill="#7C7877"/>
<path d="M258.07 251.571C249.844 259.153 238.852 264.214 227.395 265.564C224.978 265.85 222.275 266.011 219.33 265.922C217.432 265.868 215.436 265.707 213.368 265.412C211.274 265.117 209.108 264.688 206.87 264.08C204.032 263.32 201.087 262.283 198.089 260.906C197.731 260.745 197.382 260.575 197.024 260.405C196.657 260.226 196.29 260.048 195.923 259.86C192.87 258.304 189.764 256.39 186.658 254.039C186.604 254.003 186.533 253.976 186.479 253.958C186.443 253.941 186.407 253.923 186.372 253.905C186.345 253.905 186.309 253.905 186.282 253.905C186.211 253.896 186.13 253.887 186.058 253.896C186.04 253.896 186.023 253.914 186.005 253.914C185.924 253.932 185.835 253.958 185.763 254.003H185.754C185.754 254.003 185.691 254.066 185.665 254.093C185.62 254.128 185.566 254.155 185.53 254.209C185.53 254.209 185.53 254.209 185.53 254.218C185.494 254.271 185.477 254.325 185.45 254.379C185.432 254.423 185.396 254.459 185.387 254.504C185.387 254.54 185.387 254.584 185.387 254.62C185.387 254.683 185.369 254.745 185.387 254.817C185.387 254.844 185.405 254.87 185.414 254.906C185.432 254.978 185.45 255.049 185.494 255.112V255.121C185.521 255.166 188.323 259.797 190.802 269.266C192.915 277.313 195.18 290.484 194.598 308.706C138.223 326.124 77.0156 312.837 63.2398 309.422C62.9444 309.35 62.667 309.288 62.4163 309.216C62.103 309.136 61.8345 309.064 61.5928 309.001C61.1721 308.894 60.8409 308.805 60.644 308.751C60.1785 288.463 63.3025 273.576 65.9699 264.688C66.2653 263.696 66.5607 262.784 66.8382 261.943C67.1425 261.022 67.4379 260.2 67.7064 259.466C68.7627 256.623 69.5235 255.13 69.5504 255.076C69.7205 254.745 69.6488 254.343 69.3714 254.093C69.0939 253.842 68.6821 253.815 68.3778 254.03C67.9392 254.325 57.538 261.523 52.3463 283.992C51.8003 286.389 51.2274 288.606 50.6366 290.672C36.1179 278.368 14.6262 281.543 7.95761 282.919C7.64432 282.982 7.36683 283.045 7.1162 283.098C7.0804 283.098 7.03564 283.116 7.00879 283.116C7.64432 277.51 8.75426 273.406 8.79007 273.299C19.4509 228.896 56.9651 205.013 61.1363 202.474C61.2079 202.501 61.2795 202.528 61.3511 202.564C61.6644 202.689 61.9688 202.805 62.2821 202.93C75.7446 208.322 90.8093 211.88 107.145 213.49C108.363 215.198 114.226 222.243 128.073 222.243C141.482 222.243 146.459 215.636 147.667 213.615C163.251 212.175 177.698 208.992 190.731 204.146C192.53 207.07 200.523 218.828 213.816 220.375C217.28 220.777 220.109 220.419 222.579 219.615C223.215 219.409 223.823 219.159 224.414 218.89C225.005 218.631 225.587 218.345 226.142 218.032C226.276 217.952 226.428 217.88 226.571 217.8C226.571 217.853 226.589 217.925 226.598 217.978C226.634 218.202 226.67 218.47 226.723 218.783C226.759 219.025 226.813 219.302 226.876 219.588C228.218 226.482 234.144 246.385 258.079 251.544L258.07 251.571Z" fill="white"/>
<path d="M127.938 183.33C133.282 183.33 136.173 180.416 136.29 180.29C136.603 179.968 136.594 179.45 136.272 179.137C135.95 178.824 135.43 178.833 135.117 179.155C135.09 179.182 132.593 181.703 127.929 181.703C123.355 181.703 121.118 179.307 121.01 179.191C120.715 178.851 120.196 178.824 119.864 179.119C119.524 179.414 119.497 179.933 119.793 180.264C119.9 180.389 122.568 183.33 127.929 183.33H127.938Z" fill="#7C7877"/>
<path d="M47.5033 20.9823C47.5033 20.9823 47.5838 21.0002 47.6286 21.0002C47.7987 21.0002 47.9598 20.8929 48.0135 20.714C48.658 18.6933 48.6669 16.3596 48.6669 16.2612C48.6669 16.0377 48.4879 15.8589 48.2641 15.8589C48.0403 15.8589 47.8613 16.0377 47.8613 16.2612C47.8613 16.2881 47.8613 18.5771 47.2527 20.4726C47.181 20.6872 47.3064 20.9108 47.5212 20.9823H47.5033Z" fill="#7C7877"/>
<path d="M36.3685 31.0863C36.3685 31.0863 36.4491 31.1042 36.4938 31.1042C36.6639 31.1042 36.825 30.9969 36.8787 30.818C37.5232 28.7973 37.5322 26.4636 37.5322 26.3653C37.5322 26.1417 37.3531 25.9629 37.1294 25.9629C36.9056 25.9629 36.7266 26.1417 36.7266 26.3653C36.7266 26.3921 36.7266 28.6811 36.1179 30.5766C36.0463 30.7912 36.1716 31.0148 36.3864 31.0863H36.3685Z" fill="#7C7877"/>
<path d="M31.8209 53.5913C31.8209 53.5913 31.9015 53.6092 31.9462 53.6092C32.1163 53.6092 32.2774 53.5019 32.3311 53.3231C32.9756 51.3023 32.9845 48.9597 32.9845 48.8613C32.9845 48.6378 32.8055 48.459 32.5817 48.459C32.358 48.459 32.1789 48.6378 32.1789 48.8613C32.1789 48.8882 32.1789 51.1772 31.5613 53.0727C31.4897 53.2873 31.615 53.5198 31.8209 53.5824V53.5913Z" fill="#7C7877"/>
<path d="M23.4073 75.5514C23.1835 75.4977 22.9687 75.6408 22.9239 75.8554C22.9239 75.8732 22.4048 78.1086 21.3933 79.8253C21.2769 80.022 21.3485 80.2724 21.5365 80.3797C21.5992 80.4155 21.6708 80.4333 21.7424 80.4333C21.8856 80.4333 22.0199 80.3618 22.0915 80.2366C23.1656 78.4126 23.6937 76.1325 23.7206 76.0342C23.7743 75.8196 23.6311 75.5961 23.4162 75.5514H23.4073Z" fill="#7C7877"/>
<path d="M36.0372 69.2746C36.1088 69.3193 36.1804 69.3372 36.261 69.3372C36.3952 69.3372 36.5295 69.2746 36.6011 69.1494C37.7469 67.3701 38.3645 65.1079 38.3913 65.0185C38.454 64.8039 38.3197 64.5804 38.1049 64.5178C37.8901 64.4641 37.6663 64.5893 37.6036 64.8039C37.6036 64.8218 36.995 67.0303 35.9119 68.7113C35.7866 68.899 35.8492 69.1494 36.0372 69.2746Z" fill="#7C7877"/>
<path d="M30.9351 89.2856C30.7292 89.1873 30.4875 89.2677 30.389 89.4645C30.3353 89.5628 29.1538 91.9591 28.6615 94.9992C28.6257 95.2227 28.7778 95.4283 29.0016 95.4641C29.0195 95.4641 29.0464 95.4641 29.0643 95.4641C29.2612 95.4641 29.4313 95.321 29.4671 95.1243C29.9325 92.2184 31.1051 89.8489 31.1141 89.8221C31.2125 89.6254 31.132 89.375 30.9351 89.2767V89.2856Z" fill="#7C7877"/>
<path d="M14.9659 98.9959C14.751 98.9333 14.5273 99.0495 14.4556 99.2641C14.4288 99.3625 13.7127 101.66 13.471 105.282C13.4531 105.505 13.6232 105.702 13.847 105.711C13.8559 105.711 13.8649 105.711 13.8738 105.711C14.0886 105.711 14.2677 105.55 14.2766 105.335C14.5094 101.821 15.2165 99.5324 15.2254 99.5055C15.2881 99.291 15.1717 99.0674 14.9569 98.9959H14.9659Z" fill="#7C7877"/>
<path d="M13.4534 125.283C13.4355 125.06 13.2297 124.899 13.0148 124.917C12.7911 124.935 12.6299 125.131 12.6478 125.355C12.6568 125.462 12.8985 128.037 13.5072 130.219C13.5609 130.398 13.722 130.514 13.901 130.514C13.9368 130.514 13.9726 130.514 14.0084 130.496C14.2232 130.434 14.3486 130.21 14.2949 129.996C13.713 127.894 13.4624 125.301 13.4624 125.275L13.4534 125.283Z" fill="#7C7877"/>
<path d="M25.2873 119.695C25.511 119.695 25.6901 119.507 25.6901 119.284C25.6722 117.522 26.0302 114.393 26.0392 114.357C26.066 114.134 25.9049 113.937 25.6811 113.91C25.4573 113.892 25.2604 114.044 25.2336 114.268C25.2156 114.402 24.8666 117.478 24.8845 119.293C24.8845 119.516 25.0724 119.695 25.2873 119.695Z" fill="#7C7877"/>
<path d="M25.4661 140.135C25.4035 139.92 25.1886 139.795 24.9649 139.849C24.75 139.911 24.6247 140.135 24.6784 140.35C24.7232 140.502 25.7257 144.096 26.594 145.455C26.6745 145.58 26.7998 145.643 26.9341 145.643C27.0057 145.643 27.0863 145.625 27.1489 145.58C27.3369 145.464 27.3906 145.205 27.2743 145.017C26.4686 143.756 25.4661 140.171 25.4572 140.135H25.4661Z" fill="#7C7877"/>
<path d="M18.5286 150.909C18.466 150.695 18.2511 150.57 18.0274 150.623C17.8125 150.686 17.6872 150.909 17.7409 151.124C17.7767 151.24 18.5734 154.075 20.1309 155.657C20.2114 155.738 20.3188 155.782 20.4173 155.782C20.5158 155.782 20.6232 155.747 20.7037 155.666C20.8649 155.505 20.8649 155.255 20.7037 155.094C19.2895 153.663 18.5197 150.945 18.5107 150.918L18.5286 150.909Z" fill="#7C7877"/>
<path d="M35.0081 159.788C34.8738 159.609 34.6143 159.573 34.4352 159.708C34.2562 159.842 34.2204 160.101 34.3547 160.28C34.4531 160.405 36.6909 163.338 37.8009 164.205C37.8725 164.259 37.962 164.295 38.0515 164.295C38.1679 164.295 38.2932 164.241 38.3737 164.134C38.508 163.955 38.4811 163.704 38.3021 163.561C37.2727 162.757 35.026 159.815 34.9992 159.788H35.0081Z" fill="#7C7877"/>
<path d="M32.5736 172.359C32.4125 172.199 32.1618 172.199 32.0007 172.359C31.8396 172.52 31.8396 172.78 32.0007 172.932C32.0813 173.012 33.9073 174.818 35.3574 175.864C35.429 175.918 35.5096 175.945 35.5991 175.945C35.7244 175.945 35.8497 175.882 35.9303 175.775C36.0645 175.596 36.0198 175.337 35.8408 175.212C34.4354 174.201 32.6005 172.377 32.5825 172.359H32.5736Z" fill="#7C7877"/>
<path d="M52.8024 186.12C50.86 185.315 48.3806 182.794 48.3627 182.776C48.2105 182.615 47.9509 182.615 47.7898 182.776C47.6287 182.928 47.6287 183.187 47.7898 183.348C47.8972 183.456 50.4035 186.013 52.507 186.88C52.5607 186.898 52.6145 186.907 52.6592 186.907C52.8203 186.907 52.9725 186.809 53.0352 186.657C53.1247 186.451 53.0173 186.209 52.8114 186.129L52.8024 186.12Z" fill="#7C7877"/>
<path d="M69.0406 191.378C67.7784 191.029 64.6993 189.384 64.6635 189.366C64.4665 189.259 64.2159 189.33 64.1085 189.527C64.0011 189.724 64.0727 189.974 64.2696 190.082C64.3949 190.153 67.4562 191.789 68.8168 192.165C68.8526 192.174 68.8884 192.183 68.9242 192.183C69.1032 192.183 69.2643 192.067 69.3181 191.888C69.3807 191.673 69.2464 191.45 69.0316 191.387L69.0406 191.378Z" fill="#7C7877"/>
<path d="M84.2215 201.991C82.6014 201.759 79.1731 200.346 79.1373 200.337C78.9314 200.248 78.6897 200.355 78.6092 200.56C78.5197 200.766 78.6181 201.008 78.833 201.088C78.9762 201.151 82.3955 202.554 84.1141 202.796C84.132 202.796 84.1499 202.796 84.1678 202.796C84.3648 202.796 84.5438 202.653 84.5706 202.447C84.6064 202.224 84.4453 202.018 84.2215 201.991Z" fill="#7C7877"/>
<path d="M92.6266 197.27C89.6459 197.27 88.3301 196.34 88.3122 196.322C88.1331 196.188 87.8825 196.224 87.7482 196.403C87.614 196.582 87.6498 196.841 87.8288 196.975C87.8914 197.02 89.3326 198.093 92.6355 198.093C92.8593 198.093 93.0384 197.914 93.0384 197.69C93.0384 197.467 92.8593 197.288 92.6355 197.288L92.6266 197.27Z" fill="#7C7877"/>
<path d="M107.575 201.142C105.704 201.24 103.234 200.337 103.207 200.328C102.992 200.247 102.759 200.364 102.688 200.569C102.607 200.784 102.724 201.016 102.93 201.088C103.028 201.124 105.346 201.964 107.333 201.955C107.432 201.955 107.521 201.955 107.611 201.955C107.835 201.946 108.014 201.759 107.996 201.535C107.987 201.311 107.817 201.151 107.575 201.151V201.142Z" fill="#7C7877"/>
<path d="M127.724 205.121C124.573 205.729 122.174 205.13 122.147 205.121C121.923 205.067 121.709 205.192 121.655 205.416C121.601 205.639 121.727 205.854 121.95 205.908C122.022 205.925 123.132 206.203 124.842 206.203C125.719 206.203 126.748 206.131 127.876 205.917C128.1 205.872 128.243 205.657 128.198 205.443C128.153 205.219 127.939 205.076 127.724 205.121Z" fill="#7C7877"/>
<path d="M148.061 199.801C145.796 200.409 142.251 200.292 142.216 200.292C142.01 200.292 141.804 200.462 141.795 200.686C141.795 200.909 141.965 201.097 142.189 201.106C142.234 201.106 142.529 201.115 142.994 201.115C144.212 201.115 146.548 201.043 148.276 200.579C148.49 200.525 148.625 200.301 148.562 200.078C148.508 199.863 148.276 199.738 148.061 199.792V199.801Z" fill="#7C7877"/>
<path d="M164.119 202.242C161.38 203.234 158.659 203.395 158.632 203.395C158.409 203.404 158.238 203.601 158.247 203.824C158.256 204.039 158.435 204.209 158.65 204.209H158.668C158.784 204.209 161.532 204.039 164.388 203.011C164.603 202.93 164.71 202.698 164.63 202.492C164.549 202.277 164.316 202.179 164.11 202.251L164.119 202.242Z" fill="#7C7877"/>
<path d="M178.333 193.166C175.487 194.579 172.837 194.99 172.81 194.99C172.586 195.026 172.434 195.232 172.47 195.455C172.497 195.661 172.676 195.804 172.873 195.804C172.891 195.804 172.918 195.804 172.936 195.804C173.052 195.786 175.737 195.375 178.7 193.899C178.897 193.801 178.986 193.559 178.879 193.354C178.781 193.148 178.53 193.068 178.333 193.175V193.166Z" fill="#7C7877"/>
<path d="M200.317 184.556C197.731 186.398 195.171 187.211 195.153 187.22C194.938 187.292 194.821 187.515 194.884 187.73C194.938 187.9 195.099 188.016 195.269 188.016C195.314 188.016 195.35 188.016 195.394 187.998C195.502 187.962 198.098 187.14 200.792 185.226C200.971 185.101 201.016 184.842 200.89 184.663C200.756 184.484 200.505 184.44 200.326 184.565L200.317 184.556Z" fill="#7C7877"/>
<path d="M194.132 193.658C192.405 194.686 189.316 195.688 189.29 195.697C189.075 195.768 188.958 195.992 189.03 196.206C189.084 196.376 189.245 196.484 189.415 196.484C189.46 196.484 189.495 196.484 189.54 196.466C189.665 196.421 192.745 195.42 194.553 194.347C194.75 194.23 194.812 193.98 194.696 193.792C194.58 193.595 194.329 193.533 194.141 193.649L194.132 193.658Z" fill="#7C7877"/>
<path d="M216.116 174.988C213.834 177.447 210.773 179.352 210.746 179.379C210.558 179.495 210.495 179.745 210.611 179.942C210.692 180.067 210.817 180.13 210.961 180.13C211.032 180.13 211.104 180.112 211.175 180.067C211.301 179.987 214.353 178.082 216.716 175.543C216.868 175.382 216.859 175.122 216.698 174.97C216.537 174.818 216.278 174.827 216.125 174.988H216.116Z" fill="#7C7877"/>
<path d="M223.573 160.745C223.367 160.664 223.125 160.763 223.045 160.977C222.248 163.034 220.655 164.768 220.646 164.777C220.494 164.938 220.503 165.198 220.664 165.35C220.744 165.421 220.843 165.457 220.941 165.457C221.049 165.457 221.156 165.412 221.237 165.323C221.308 165.251 222.946 163.463 223.806 161.263C223.886 161.058 223.779 160.816 223.573 160.736V160.745Z" fill="#7C7877"/>
<path d="M231.995 165.359C231.79 165.269 231.548 165.359 231.458 165.573C230.644 167.487 228.334 169.543 228.308 169.561C228.137 169.713 228.12 169.963 228.272 170.133C228.352 170.223 228.46 170.267 228.576 170.267C228.675 170.267 228.764 170.232 228.845 170.169C228.943 170.08 231.315 167.978 232.201 165.895C232.291 165.689 232.201 165.448 231.986 165.359H231.995Z" fill="#7C7877"/>
<path d="M237.322 145.089C237.098 145.044 236.883 145.178 236.838 145.402C236.14 148.54 234.27 151.374 234.243 151.401C234.117 151.589 234.171 151.839 234.359 151.965C234.431 152.009 234.511 152.036 234.583 152.036C234.717 152.036 234.842 151.973 234.923 151.857C235.004 151.741 236.901 148.871 237.635 145.58C237.68 145.366 237.546 145.142 237.322 145.098V145.089Z" fill="#7C7877"/>
<path d="M231.592 139.089C231.592 139.089 231.664 139.107 231.709 139.107C231.888 139.107 232.049 138.99 232.103 138.812C232.138 138.686 232.98 135.718 232.568 132.401C232.541 132.177 232.326 132.016 232.111 132.052C231.888 132.079 231.727 132.284 231.762 132.508C232.156 135.655 231.333 138.57 231.324 138.597C231.261 138.812 231.386 139.035 231.601 139.098L231.592 139.089Z" fill="#7C7877"/>
<path d="M244.903 128.073C244.903 128.073 244.93 128.073 244.948 128.073C245.154 128.073 245.333 127.921 245.351 127.707C245.709 124.094 245.36 121.233 245.351 121.117C245.324 120.893 245.109 120.732 244.894 120.768C244.67 120.795 244.509 121.001 244.545 121.224C244.545 121.251 244.894 124.112 244.545 127.635C244.527 127.859 244.688 128.055 244.912 128.082L244.903 128.073Z" fill="#7C7877"/>
<path d="M236.435 107.338C236.435 107.338 237.482 111.541 237.581 115.037C237.581 115.26 237.769 115.43 237.983 115.43H237.992C238.216 115.43 238.395 115.233 238.386 115.01C238.279 111.424 237.258 107.311 237.214 107.133C237.16 106.918 236.936 106.784 236.721 106.838C236.506 106.891 236.372 107.115 236.426 107.329L236.435 107.338Z" fill="#7C7877"/>
<path d="M228.585 95.7769C228.585 95.7769 228.648 95.7769 228.684 95.768C228.899 95.7143 229.033 95.4908 228.979 95.2762C228.648 93.9707 226.186 90.1975 226.088 90.0365C225.963 89.8488 225.712 89.7951 225.524 89.9203C225.336 90.0455 225.282 90.2958 225.408 90.4836C226.097 91.5387 227.95 94.5072 228.191 95.4818C228.236 95.6696 228.406 95.7858 228.585 95.7858V95.7769Z" fill="#7C7877"/>
<path d="M236.059 85.8608C236.104 86.0486 236.265 86.1827 236.453 86.1827C236.48 86.1827 236.506 86.1827 236.542 86.1738C236.757 86.1291 236.9 85.9055 236.856 85.691C236.542 84.2693 234.43 80.1115 234.34 79.9327C234.242 79.736 233.991 79.6555 233.794 79.7539C233.597 79.8522 233.517 80.1026 233.615 80.2993C233.633 80.344 235.764 84.5375 236.059 85.8608Z" fill="#7C7877"/>
<path d="M228.227 67.7903C228.299 67.9245 228.442 68.0049 228.585 68.0049C228.648 68.0049 228.72 67.9871 228.782 67.9513C228.979 67.844 229.051 67.5936 228.943 67.3969C228.057 65.7875 226.911 59.6358 226.902 59.5732C226.858 59.3497 226.652 59.2156 226.428 59.2514C226.204 59.2961 226.061 59.5017 226.106 59.7252C226.151 59.9845 227.287 66.0736 228.236 67.7903H228.227Z" fill="#7C7877"/>
<path d="M218.426 75.7033C218.426 75.7033 218.488 75.7033 218.524 75.6944C218.739 75.6407 218.873 75.4172 218.819 75.2026C218.22 72.7974 217.011 68.2104 217.011 68.2104L216.224 68.4161C216.224 68.4161 217.432 72.9851 218.032 75.3904C218.077 75.5781 218.247 75.6944 218.426 75.6944V75.7033Z" fill="#7C7877"/>
<path d="M206.969 70.3654C206.969 70.3654 207.049 70.3654 207.085 70.3475C207.3 70.2849 207.425 70.0525 207.353 69.8379C207.353 69.8111 206.458 66.8604 206.503 64.4015C206.503 64.178 206.324 63.9902 206.1 63.9902C205.868 63.9902 205.689 64.1691 205.689 64.3926C205.653 66.9766 206.539 69.9541 206.575 70.0793C206.628 70.2581 206.79 70.3654 206.96 70.3654H206.969Z" fill="#7C7877"/>
<path d="M225.738 42.9515C225.738 42.9515 225.801 42.9515 225.837 42.9426C226.052 42.8889 226.186 42.6654 226.132 42.4508C225.747 40.9308 225.335 36.6568 225.335 36.6121C225.318 36.3886 225.121 36.2366 224.888 36.2455C224.664 36.2634 224.503 36.469 224.521 36.6926C224.539 36.8714 224.942 41.0738 225.344 42.6564C225.389 42.8442 225.559 42.9604 225.738 42.9604V42.9515Z" fill="#7C7877"/>
<path d="M217.513 30.7909C217.513 30.7909 217.531 30.7909 217.548 30.7909C217.772 30.773 217.942 30.5763 217.924 30.3528C217.745 28.1175 217.924 22.9851 217.924 22.9315C217.924 22.7079 217.754 22.5202 217.531 22.5112C217.307 22.5291 217.119 22.6811 217.11 22.9047C217.11 23.1192 216.931 28.1353 217.11 30.4154C217.128 30.63 217.307 30.7909 217.513 30.7909Z" fill="#7C7877"/>
<path d="M213.234 52.3665C213.234 52.3665 213.288 52.3665 213.306 52.3665C213.53 52.3218 213.673 52.1161 213.628 51.8926C213.037 48.7184 212.67 44.6143 212.67 44.5696C212.652 44.3461 212.455 44.1851 212.232 44.203C212.008 44.2209 211.847 44.4176 211.865 44.6411C211.865 44.6859 212.232 48.8257 212.84 52.0356C212.876 52.2324 213.046 52.3665 213.243 52.3665H213.234Z" fill="#7C7877"/>
<path d="M208.168 20.6874C208.284 20.6874 208.4 20.6338 208.481 20.5443C209.716 19.0601 211.139 15.2868 211.202 15.1259C211.283 14.9113 211.175 14.6788 210.96 14.6073C210.754 14.5268 210.513 14.6341 210.441 14.8487C210.423 14.8845 209.009 18.6577 207.854 20.0257C207.711 20.1956 207.738 20.4549 207.908 20.598C207.989 20.6606 208.078 20.6963 208.168 20.6963V20.6874Z" fill="#7C7877"/>
<path d="M198.858 52.59C198.858 52.59 198.008 56.9534 197.65 58.9741C197.614 59.1976 197.757 59.4033 197.981 59.448C198.008 59.448 198.026 59.448 198.053 59.448C198.25 59.448 198.42 59.3049 198.456 59.1082C198.814 57.0875 199.646 52.7777 199.655 52.733C199.7 52.5095 199.557 52.2949 199.333 52.2592C199.118 52.2144 198.903 52.3575 198.858 52.581V52.59Z" fill="#7C7877"/>
<path d="M198.375 38.2751C198.455 38.3466 198.554 38.3824 198.652 38.3824C198.76 38.3824 198.867 38.3377 198.948 38.2483C200.434 36.6388 201.517 33.3037 201.561 33.1606C201.633 32.946 201.517 32.7136 201.302 32.651C201.087 32.5795 200.854 32.6957 200.792 32.9103C200.783 32.946 199.718 36.2096 198.348 37.6939C198.196 37.8549 198.205 38.1142 198.375 38.2662V38.2751Z" fill="#7C7877"/>
<path d="M195.394 19.4357C195.528 19.4357 195.654 19.3731 195.734 19.2568C196.773 17.71 199.494 15.3048 199.521 15.2869C199.691 15.1349 199.708 14.8845 199.556 14.7146C199.404 14.5447 199.154 14.5269 198.983 14.6789C198.867 14.7772 196.164 17.1735 195.063 18.8098C194.938 18.9975 194.982 19.2479 195.17 19.3731C195.242 19.4178 195.322 19.4446 195.394 19.4446V19.4357Z" fill="#7C7877"/>
<path d="M188.404 35.9144C188.529 35.9144 188.646 35.8608 188.726 35.7535C189.335 34.9577 191.895 30.7821 192.002 30.6033C192.119 30.4155 192.056 30.1651 191.868 30.0489C191.68 29.9327 191.429 29.9952 191.313 30.183C191.286 30.2277 188.663 34.5106 188.082 35.2617C187.947 35.4405 187.974 35.6909 188.153 35.8339C188.225 35.8876 188.314 35.9144 188.404 35.9144Z" fill="#7C7877"/>
<path d="M175.084 34.1709C175.156 34.1709 175.236 34.153 175.299 34.1083C176.516 33.3483 178.87 30.049 178.969 29.9059C179.103 29.7181 179.058 29.4678 178.87 29.3426C178.691 29.2174 178.432 29.2532 178.306 29.441C177.653 30.3619 175.755 32.8655 174.869 33.4288C174.681 33.545 174.619 33.7954 174.744 33.9921C174.824 34.1173 174.95 34.1799 175.093 34.1799L175.084 34.1709Z" fill="#7C7877"/>
<path d="M180.464 52.3485C180.464 52.3485 180.544 52.3663 180.58 52.3663C180.759 52.3663 180.92 52.2501 180.974 52.0713C181.135 51.5259 182.495 49.6035 183.319 48.5216C183.453 48.3427 183.417 48.0834 183.238 47.9493C183.059 47.8152 182.809 47.851 182.666 48.0298C182.442 48.3248 180.446 50.9715 180.186 51.8388C180.123 52.0534 180.249 52.2769 180.464 52.3395V52.3485Z" fill="#7C7877"/>
<path d="M49.2134 44.5697C49.1865 44.7933 49.3387 44.9989 49.5625 45.0258C49.5804 45.0258 49.5983 45.0258 49.6162 45.0258C49.8131 45.0258 49.9921 44.8737 50.019 44.6681C50.2875 42.5758 50.0279 38.1588 50.019 37.971C50.0011 37.7475 49.8042 37.5597 49.5893 37.5865C49.3656 37.6044 49.1955 37.7922 49.2044 38.0157C49.2044 38.0604 49.473 42.549 49.2044 44.5608L49.2134 44.5697Z" fill="#7C7877"/>
<path d="M54.3329 65.2778C54.3866 65.3046 54.4404 65.3135 54.503 65.3135C54.6552 65.3135 54.8073 65.2241 54.87 65.0721C55.4429 63.8024 55.3623 60.4584 55.3623 60.3153C55.3623 60.0918 55.1743 59.9219 54.9595 59.9219H54.9506C54.7268 59.9219 54.5478 60.1186 54.5567 60.3421C54.5836 61.2541 54.5567 63.8292 54.145 64.7413C54.0555 64.9469 54.145 65.1883 54.3508 65.2778H54.3329Z" fill="#7C7877"/>
<path d="M60.886 45.133C60.6712 45.1956 60.5548 45.4281 60.6175 45.6427C60.7428 46.0361 61.8259 49.5143 62.3898 50.3548C62.4704 50.471 62.5957 50.5336 62.73 50.5336C62.8105 50.5336 62.8821 50.5157 62.9537 50.462C63.1417 50.3369 63.1954 50.0865 63.0701 49.8987C62.6494 49.2728 61.7274 46.4384 61.4052 45.4012C61.3425 45.1866 61.1098 45.0615 60.895 45.133H60.886Z" fill="#7C7877"/>
<path d="M61.7001 23.7719C61.7538 23.7987 61.8165 23.8077 61.8792 23.8077C62.0403 23.8077 62.1925 23.7272 62.2641 23.5841C62.3536 23.3785 62.2909 23.155 62.085 23.0655C61.8344 22.8331 60.9572 21.0001 60.2948 19.4264C60.2053 19.2208 59.9636 19.1224 59.7577 19.2118C59.5519 19.3012 59.4534 19.5337 59.5429 19.7483C61.1452 23.5394 61.5569 23.7272 61.7001 23.7809V23.7719Z" fill="#7C7877"/>
<path d="M69.1836 35.9324C69.2642 36.0307 69.3805 36.0844 69.5058 36.0844C69.5953 36.0844 69.6849 36.0575 69.7565 35.995C69.9355 35.8519 69.9623 35.6015 69.8191 35.4227C69.1209 34.5554 67.0711 30.9073 67.0532 30.8716C66.9458 30.6749 66.6952 30.6033 66.4983 30.7196C66.3013 30.8269 66.2297 31.0772 66.3461 31.2739C66.4356 31.4259 68.4496 35.0114 69.1836 35.9324Z" fill="#7C7877"/>
<path d="M78.1611 52.3306C78.2237 52.3664 78.2953 52.3843 78.3669 52.3843C78.5102 52.3843 78.6444 52.3127 78.716 52.1786C78.8324 51.9819 78.7608 51.7315 78.5639 51.6242C77.6508 51.0967 75.2609 48.5037 74.4195 47.5559C74.2673 47.386 74.0167 47.3682 73.8466 47.5202C73.6765 47.6722 73.6586 47.9225 73.8108 48.0924C73.9361 48.2355 76.9437 51.6242 78.1611 52.3306Z" fill="#7C7877"/>
<path d="M86.2265 35.8518C86.2981 35.9948 86.4413 36.0753 86.5935 36.0753C86.6561 36.0753 86.7188 36.0574 86.7725 36.0306C86.9694 35.9322 87.0589 35.6819 86.9515 35.4852C86.7635 35.1096 84.7227 32.6329 84.0961 31.8907C83.9529 31.7209 83.6933 31.694 83.5232 31.8371C83.3532 31.9802 83.3263 32.2395 83.4695 32.4093C84.5258 33.688 86.0833 35.6014 86.2175 35.8518H86.2265Z" fill="#7C7877"/>
<path d="M99.9217 48.0749C100.002 48.1733 100.119 48.2269 100.244 48.2269C100.333 48.2269 100.423 48.2001 100.495 48.1375C100.674 47.9944 100.7 47.7441 100.557 47.5652C99.2414 45.9022 96.923 43.5238 96.8246 43.4254C96.6724 43.2645 96.4128 43.2645 96.2517 43.4254C96.0906 43.5774 96.0906 43.8367 96.2517 43.9976C96.2786 44.0245 98.6417 46.4386 99.9306 48.0749H99.9217Z" fill="#7C7877"/>
<path d="M108.944 38.0784C108.989 38.2662 109.159 38.4003 109.338 38.4003C109.365 38.4003 109.4 38.4003 109.427 38.3914C109.642 38.3467 109.785 38.1231 109.741 37.9085C109.49 36.7819 107.61 33.3306 107.53 33.1786C107.422 32.9818 107.172 32.9103 106.975 33.0176C106.778 33.1249 106.706 33.3753 106.814 33.572C107.342 34.5376 108.756 37.2469 108.944 38.0874V38.0784Z" fill="#7C7877"/>
<path d="M119.784 47.8958C119.82 48.0925 119.99 48.2266 120.187 48.2266C120.214 48.2266 120.241 48.2266 120.268 48.2266C120.491 48.1819 120.635 47.9673 120.59 47.7527C120.339 46.4741 119.167 43.6844 119.122 43.5592C119.032 43.3536 118.8 43.2552 118.585 43.3446C118.379 43.434 118.281 43.6665 118.37 43.8811C118.379 43.9079 119.561 46.7155 119.793 47.9047L119.784 47.8958Z" fill="#7C7877"/>
<path d="M123.991 35.6819C123.991 35.9054 124.17 36.0843 124.394 36.0843C124.618 36.0843 124.797 35.8965 124.797 35.6729C124.797 34.7699 124.027 32.3021 123.937 32.0249C123.866 31.8103 123.642 31.694 123.427 31.7566C123.212 31.8282 123.096 32.0517 123.159 32.2663C123.382 32.9905 123.973 35.0202 123.982 35.6729L123.991 35.6819Z" fill="#7C7877"/>
<path d="M137.516 46.7872C137.57 46.8051 137.615 46.814 137.669 46.814C137.83 46.814 137.982 46.7157 138.045 46.5547C138.349 45.8036 139.155 43.8008 139.298 43.5146C139.396 43.3179 139.316 43.0676 139.119 42.9692C138.913 42.8709 138.671 42.9513 138.573 43.1481C138.394 43.5146 137.409 45.9735 137.293 46.2507C137.212 46.4564 137.311 46.6978 137.516 46.7782V46.7872Z" fill="#7C7877"/>
<path d="M140.685 35.235C140.73 35.2529 140.784 35.2618 140.828 35.2618C140.99 35.2618 141.151 35.1635 141.213 35.0025C141.437 34.4124 142.073 32.7851 142.35 32.3738C142.475 32.186 142.422 31.9356 142.234 31.8104C142.046 31.6853 141.795 31.7389 141.67 31.9267C141.294 32.49 140.542 34.4929 140.453 34.7164C140.372 34.931 140.479 35.1635 140.694 35.235H140.685Z" fill="#7C7877"/>
<path d="M156.833 36.576C156.887 36.6028 156.95 36.6118 157.003 36.6118C157.155 36.6118 157.299 36.5223 157.37 36.3793C157.388 36.3525 158.811 33.3303 159.501 32.3825C159.635 32.2037 159.59 31.9444 159.411 31.8192C159.232 31.6851 158.973 31.7298 158.847 31.9086C158.113 32.919 156.699 35.9143 156.636 36.0395C156.538 36.2452 156.636 36.4866 156.833 36.576Z" fill="#7C7877"/>
<path d="M161.541 48.629C161.604 48.6647 161.676 48.6916 161.756 48.6916C161.891 48.6916 162.025 48.62 162.105 48.4949C162.114 48.477 163.251 46.6172 164.755 44.668C164.889 44.4891 164.862 44.2388 164.683 44.0957C164.504 43.9616 164.254 43.9884 164.11 44.1672C162.58 46.1522 161.425 48.0478 161.416 48.0657C161.3 48.2534 161.362 48.5038 161.55 48.62L161.541 48.629Z" fill="#7C7877"/>
<path d="M15.0735 288.508C15.0646 288.284 14.9034 288.079 14.6528 288.123C14.429 288.132 14.259 288.32 14.2679 288.544C14.2858 288.973 14.4738 292.737 15.0467 293.703C15.1272 293.828 15.2615 293.899 15.3958 293.899C15.4674 293.899 15.539 293.882 15.6016 293.846C15.7896 293.73 15.8523 293.479 15.7449 293.291C15.3868 292.701 15.1451 290.046 15.0825 288.517L15.0735 288.508Z" fill="#7C7877"/>
<path d="M17.6698 302.117C17.5982 301.902 17.3655 301.795 17.1507 301.866C16.9358 301.938 16.8284 302.17 16.9 302.385C17.0164 302.716 18.0547 305.675 19.102 306.543C19.1736 306.605 19.2721 306.632 19.3616 306.632C19.478 306.632 19.5943 306.578 19.6749 306.48C19.8181 306.31 19.7912 306.051 19.6212 305.908C18.8782 305.3 17.9652 302.966 17.6698 302.117Z" fill="#7C7877"/>
<path d="M25.287 293.452C25.2601 293.676 25.4302 293.873 25.654 293.899C25.6719 293.899 25.6808 293.899 25.6987 293.899C25.9046 293.899 26.0836 293.747 26.1015 293.533C26.191 292.612 26.1015 289.026 26.1015 288.874C26.1015 288.651 25.9136 288.481 25.6987 288.481H25.6898C25.466 288.481 25.287 288.669 25.2959 288.901C25.2959 288.937 25.3854 292.585 25.2959 293.452H25.287Z" fill="#7C7877"/>
<path d="M29.4676 304.933C29.5481 304.933 29.6197 304.915 29.6913 304.871C30.3985 304.406 31.5084 302.662 31.6337 302.465C31.7501 302.278 31.6964 302.027 31.5084 301.902C31.3204 301.786 31.0698 301.839 30.9445 302.027C30.5059 302.716 29.6645 303.914 29.2438 304.191C29.0558 304.316 29.0021 304.567 29.1274 304.754C29.208 304.871 29.3333 304.942 29.4676 304.933Z" fill="#7C7877"/>
<path d="M36.2704 295.786C36.3868 295.786 36.4942 295.741 36.5748 295.652C37.3356 294.793 37.9532 292.522 38.0159 292.272C38.0696 292.057 37.9443 291.834 37.7295 291.78C37.5146 291.717 37.2908 291.852 37.2371 292.066C37.0671 292.71 36.5121 294.507 35.9661 295.115C35.8139 295.285 35.8318 295.535 36.0019 295.687C36.0824 295.759 36.172 295.786 36.2704 295.786Z" fill="#7C7877"/>
<path d="M37.6574 305.371C37.738 305.487 37.8633 305.541 37.9886 305.541C38.0692 305.541 38.1498 305.514 38.2214 305.47C39.1612 304.817 40.9246 302.224 41.1305 301.929C41.2558 301.741 41.211 301.491 41.0231 301.366C40.8351 301.24 40.5845 301.285 40.4592 301.473C39.94 302.233 38.4541 304.316 37.7649 304.799C37.5769 304.924 37.5321 305.183 37.6664 305.362L37.6574 305.371Z" fill="#7C7877"/>
<path d="M241.126 218.944C239.103 219.767 237.215 221.287 237.134 221.349C236.955 221.492 236.928 221.743 237.071 221.922C237.152 222.02 237.268 222.074 237.385 222.074C237.474 222.074 237.564 222.047 237.644 221.984C237.662 221.966 239.515 220.482 241.431 219.695C241.636 219.606 241.735 219.373 241.654 219.168C241.565 218.962 241.332 218.864 241.126 218.944Z" fill="#7C7877"/>
<path d="M248.179 225.203C247.991 225.087 247.741 225.149 247.624 225.346C246.496 227.259 244.697 228.94 244.679 228.958C244.518 229.11 244.509 229.37 244.661 229.53C244.742 229.62 244.849 229.656 244.957 229.656C245.055 229.656 245.154 229.62 245.234 229.548C245.315 229.477 247.132 227.769 248.323 225.757C248.439 225.56 248.376 225.319 248.179 225.203Z" fill="#7C7877"/>
<path d="M254.705 214.321C254.687 214.098 254.49 213.937 254.266 213.946C252.968 214.035 249.791 215.01 249.657 215.045C249.442 215.108 249.325 215.341 249.388 215.555C249.442 215.734 249.603 215.841 249.773 215.841C249.809 215.841 249.853 215.841 249.889 215.823C249.925 215.814 253.112 214.84 254.32 214.759C254.544 214.741 254.714 214.545 254.696 214.321H254.705Z" fill="#7C7877"/>
<path d="M256.468 223.969C256.584 223.969 256.692 223.924 256.772 223.826C257.444 223.057 258.052 220.848 258.124 220.598C258.186 220.383 258.052 220.16 257.837 220.097C257.623 220.044 257.399 220.169 257.336 220.383C257.166 221.009 256.629 222.753 256.155 223.289C256.002 223.459 256.02 223.719 256.19 223.862C256.271 223.933 256.36 223.96 256.459 223.96L256.468 223.969Z" fill="#7C7877"/>
<path d="M255.439 231.122C255.224 231.06 255 231.176 254.929 231.391C254.929 231.408 254.204 233.653 252.762 235.012C252.601 235.164 252.592 235.423 252.744 235.584C252.825 235.665 252.932 235.709 253.04 235.709C253.138 235.709 253.237 235.674 253.317 235.602C254.911 234.1 255.672 231.739 255.707 231.632C255.779 231.417 255.654 231.194 255.439 231.122Z" fill="#7C7877"/>
<path d="M264.336 226.589C264.112 226.589 263.933 226.768 263.933 226.991C263.933 227.018 263.924 229.611 262.993 231.31C262.886 231.507 262.957 231.757 263.154 231.864C263.217 231.9 263.28 231.918 263.351 231.918C263.495 231.918 263.638 231.837 263.709 231.703C264.739 229.826 264.757 227.107 264.757 226.991C264.757 226.768 264.578 226.589 264.354 226.589H264.336Z" fill="#7C7877"/>
<path d="M260.558 238.195C260.361 238.088 260.111 238.159 260.003 238.356C259.985 238.392 258.052 241.879 256.271 242.898C256.074 243.014 256.011 243.256 256.118 243.452C256.19 243.587 256.333 243.658 256.477 243.658C256.548 243.658 256.611 243.64 256.682 243.604C258.661 242.478 260.639 238.901 260.719 238.749C260.827 238.553 260.755 238.302 260.558 238.195Z" fill="#7C7877"/>
<path d="M49.8395 337.891C49.8395 337.891 49.8933 337.891 49.9201 337.891C49.938 337.891 52.2206 337.408 54.7179 337.05C54.9417 337.015 55.0939 336.809 55.067 336.594C55.0312 336.371 54.8253 336.219 54.6105 336.246C52.0952 336.603 49.7858 337.086 49.759 337.095C49.5442 337.14 49.4009 337.354 49.4457 337.578C49.4905 337.766 49.6516 337.9 49.8395 337.9V337.891Z" fill="#7C7877"/>
<path d="M44.6931 344.445C44.6483 344.221 44.4245 344.078 44.2187 344.123C41.7839 344.606 39.3313 345.795 39.2239 345.84C39.018 345.938 38.9375 346.179 39.0359 346.385C39.1076 346.528 39.2508 346.618 39.4029 346.618C39.4656 346.618 39.5193 346.609 39.582 346.573C39.6088 346.564 42.0525 345.384 44.3798 344.919C44.6036 344.874 44.7468 344.659 44.702 344.445H44.6931Z" fill="#7C7877"/>
<path d="M52.6865 347.342C52.7044 347.547 52.8834 347.708 53.0893 347.708C53.1072 347.708 53.1162 347.708 53.1341 347.708L57.5917 347.226C57.8155 347.199 57.9766 347.002 57.9498 346.779C57.9229 346.555 57.7171 346.403 57.5022 346.421L53.0446 346.904C52.8208 346.93 52.6597 347.127 52.6865 347.351V347.342Z" fill="#7C7877"/>
<path d="M56.5439 356.444C56.5439 356.668 56.723 356.846 56.9467 356.846H61.4044C61.6282 356.846 61.8072 356.668 61.8072 356.435C61.8072 356.203 61.6282 356.033 61.4044 356.033H56.9467C56.723 356.033 56.5439 356.212 56.5439 356.444Z" fill="#7C7877"/>
<path d="M46.2596 354.728C46.2596 354.728 43.4131 355.3 41.6408 354.737C41.426 354.674 41.1932 354.79 41.1306 355.005C41.059 355.219 41.1843 355.443 41.3991 355.514C42.0794 355.729 42.8761 355.801 43.6279 355.801C45.0601 355.801 46.3491 355.541 46.4297 355.523C46.6534 355.479 46.7877 355.264 46.7429 355.041C46.6982 354.826 46.4834 354.674 46.2596 354.728Z" fill="#7C7877"/>
<path d="M49.0525 361.46C49.9297 361.666 50.798 361.737 51.5678 361.737C53.0357 361.737 54.1367 361.478 54.1994 361.469C54.4142 361.416 54.5485 361.201 54.5037 360.977C54.459 360.754 54.2352 360.629 54.0114 360.673C53.9846 360.673 51.6125 361.228 49.2405 360.673C49.0167 360.62 48.8018 360.754 48.7481 360.977C48.6944 361.201 48.8287 361.416 49.0525 361.469V361.46Z" fill="#7C7877"/>
<path d="M74.062 335.182C74.1157 335.182 74.1695 335.173 74.2232 335.146C74.429 335.056 74.5275 334.815 74.438 334.609C73.7398 332.991 73.0237 328.136 73.0237 328.091C72.9879 327.868 72.7731 327.716 72.5583 327.751C72.3345 327.787 72.1823 327.993 72.2181 328.216C72.245 328.422 72.9611 333.223 73.6951 334.94C73.7577 335.092 73.9099 335.191 74.071 335.191L74.062 335.182Z" fill="#7C7877"/>
<path d="M77.615 349.309C77.3912 349.345 77.248 349.56 77.2838 349.783C77.2838 349.828 77.9999 353.959 77.9999 355.121C77.9999 355.345 78.1789 355.523 78.4027 355.523C78.6265 355.523 78.8055 355.345 78.8055 355.121C78.8055 353.887 78.1073 349.819 78.0805 349.64C78.0446 349.416 77.8388 349.273 77.606 349.309H77.615Z" fill="#7C7877"/>
<path d="M79.3254 369.722C79.1017 369.749 78.9405 369.945 78.9674 370.169C78.9674 370.205 79.3165 373.433 78.9674 375.4C78.9316 375.623 79.0748 375.829 79.2986 375.873C79.3254 375.873 79.3433 375.873 79.3702 375.873C79.5671 375.873 79.7372 375.73 79.773 375.534C80.14 373.45 79.7909 370.214 79.773 370.071C79.7461 369.847 79.5403 369.686 79.3254 369.713V369.722Z" fill="#7C7877"/>
<path d="M75.2433 392.773C75.0285 392.728 74.8047 392.862 74.76 393.086C74.76 393.121 74.0349 396.466 73.6769 397.887C73.6232 398.102 73.7574 398.325 73.9723 398.379C74.0081 398.379 74.0349 398.388 74.0707 398.388C74.2498 398.388 74.4198 398.263 74.4646 398.084C74.8226 396.653 75.5477 393.291 75.5477 393.256C75.5924 393.041 75.4582 392.817 75.2344 392.773H75.2433Z" fill="#7C7877"/>
<path d="M86.1543 334.726C86.1275 334.502 85.9216 334.341 85.6978 334.377C85.4741 334.404 85.3129 334.61 85.3487 334.833C85.4203 335.414 86.0917 340.582 86.584 341.691C86.6556 341.843 86.7988 341.932 86.9599 341.932C87.0137 341.932 87.0674 341.924 87.1211 341.897C87.3269 341.807 87.4164 341.566 87.3269 341.36C86.951 340.52 86.3513 336.29 86.1543 334.735V334.726Z" fill="#7C7877"/>
<path d="M88.9299 360.924C88.7151 360.968 88.5718 361.183 88.6166 361.407C88.6255 361.451 89.5654 365.868 89.3327 367.469C89.2969 367.692 89.458 367.898 89.6818 367.925C89.6997 367.925 89.7176 367.925 89.7444 367.925C89.9414 367.925 90.1204 367.782 90.1472 367.576C90.3979 365.841 89.458 361.415 89.4222 361.228C89.3774 361.004 89.1537 360.879 88.9388 360.915L88.9299 360.924Z" fill="#7C7877"/>
<path d="M88.1419 392.165C87.9181 392.183 87.748 392.38 87.7659 392.603C87.9002 394.293 88.0345 397.208 87.7928 397.843C87.7122 398.057 87.8196 398.29 88.0345 398.361C88.0792 398.379 88.1329 398.388 88.1777 398.388C88.3388 398.388 88.4999 398.29 88.5626 398.129C88.9475 397.11 88.6252 392.997 88.5894 392.532C88.5715 392.308 88.3746 392.147 88.1508 392.156L88.1419 392.165Z" fill="#7C7877"/>
<path d="M91.7045 319.391C91.6866 319.168 91.4897 318.989 91.2659 319.016C91.0421 319.034 90.8721 319.23 90.89 319.454C90.9258 319.955 91.2749 324.416 91.7672 325.534C91.8388 325.686 91.982 325.776 92.1431 325.776C92.1968 325.776 92.2505 325.767 92.3042 325.74C92.5101 325.65 92.5996 325.409 92.5101 325.203C92.1342 324.363 91.794 320.724 91.6956 319.391H91.7045Z" fill="#7C7877"/>
<path d="M99.5099 337.757L99.9306 343.721C99.9485 343.935 100.128 344.096 100.333 344.096C100.342 344.096 100.351 344.096 100.36 344.096C100.584 344.078 100.754 343.882 100.736 343.658L100.316 337.694L99.501 337.748L99.5099 337.757Z" fill="#7C7877"/>
<path d="M103.457 366.289C103.439 366.512 103.609 366.709 103.833 366.727C103.842 366.727 103.851 366.727 103.86 366.727C104.075 366.727 104.254 366.566 104.263 366.351C104.388 364.635 103.779 361.139 103.752 360.987C103.717 360.763 103.502 360.611 103.278 360.656C103.054 360.692 102.911 360.906 102.947 361.13C102.947 361.165 103.556 364.679 103.448 366.298L103.457 366.289Z" fill="#7C7877"/>
<path d="M104.254 380.147C104.245 379.924 104.057 379.718 103.833 379.763C103.61 379.772 103.44 379.96 103.449 380.183C103.449 380.299 103.592 383.125 103.941 384.824C103.977 385.012 104.147 385.146 104.335 385.146C104.362 385.146 104.388 385.146 104.415 385.146C104.63 385.101 104.773 384.886 104.729 384.663C104.388 383.027 104.254 380.183 104.245 380.147H104.254Z" fill="#7C7877"/>
<path d="M108.022 393.605C107.799 393.622 107.637 393.828 107.655 394.052C107.655 394.087 108.004 397.646 107.655 400.096C107.62 400.32 107.781 400.525 108.004 400.552C108.022 400.552 108.04 400.552 108.067 400.552C108.264 400.552 108.443 400.409 108.47 400.203C108.837 397.655 108.488 394.114 108.47 393.962C108.452 393.739 108.246 393.578 108.022 393.596V393.605Z" fill="#7C7877"/>
<path d="M105.91 324.89C105.847 324.676 105.632 324.551 105.408 324.604C105.194 324.667 105.059 324.89 105.122 325.105C105.364 326.008 106.214 328.985 106.993 329.567C107.064 329.62 107.154 329.647 107.234 329.647C107.36 329.647 107.476 329.593 107.557 329.486C107.691 329.307 107.655 329.048 107.476 328.914C107.1 328.628 106.366 326.607 105.91 324.89Z" fill="#7C7877"/>
<path d="M122.093 336.246C120.473 335.727 118.056 333.644 118.03 333.626C117.859 333.483 117.6 333.501 117.457 333.671C117.313 333.841 117.331 334.1 117.501 334.243C117.609 334.332 120.07 336.451 121.852 337.024C121.896 337.033 121.932 337.042 121.977 337.042C122.147 337.042 122.308 336.934 122.362 336.755C122.433 336.541 122.308 336.317 122.102 336.246H122.093Z" fill="#7C7877"/>
<path d="M126.032 324.962C124.376 324.622 122.147 323.719 122.129 323.71C121.923 323.621 121.682 323.728 121.601 323.934C121.512 324.139 121.619 324.381 121.825 324.461C121.914 324.497 124.143 325.409 125.88 325.758C125.907 325.758 125.933 325.758 125.96 325.758C126.148 325.758 126.318 325.623 126.354 325.436C126.399 325.212 126.256 324.998 126.032 324.953V324.962Z" fill="#7C7877"/>
<path d="M138.098 335.629C136.558 336.228 132.548 336.21 132.548 336.228C132.325 336.228 132.146 336.407 132.146 336.63C132.146 336.854 132.325 337.042 132.548 337.042H132.566C132.88 337.042 136.746 337.024 138.393 336.389C138.599 336.308 138.707 336.076 138.626 335.861C138.546 335.656 138.304 335.548 138.098 335.629Z" fill="#7C7877"/>
<path d="M146.736 325.158C146.629 324.961 146.378 324.89 146.181 325.006C144.615 325.891 140.793 326.946 140.757 326.955C140.542 327.018 140.417 327.242 140.47 327.456C140.524 327.635 140.685 327.751 140.864 327.751C140.9 327.751 140.936 327.751 140.972 327.733C141.133 327.689 144.928 326.634 146.575 325.704C146.772 325.596 146.844 325.346 146.727 325.149L146.736 325.158Z" fill="#7C7877"/>
<path d="M145.743 358.233C145.743 358.233 145.77 358.233 145.787 358.233C145.993 358.233 146.172 358.08 146.19 357.866C146.316 356.641 145.966 352.546 145.949 352.367C145.931 352.143 145.734 351.982 145.51 352C145.286 352.018 145.125 352.215 145.143 352.438C145.143 352.483 145.501 356.632 145.385 357.785C145.367 358.009 145.528 358.206 145.752 358.233H145.743Z" fill="#7C7877"/>
<path d="M146.36 371.805C146.136 371.823 145.966 372.02 145.984 372.243C146.065 373.397 146.226 376.598 145.993 377.537C145.94 377.751 146.074 377.975 146.289 378.028C146.324 378.028 146.351 378.037 146.387 378.037C146.566 378.037 146.736 377.912 146.781 377.733C147.094 376.482 146.799 372.36 146.79 372.19C146.772 371.966 146.557 371.805 146.351 371.814L146.36 371.805Z" fill="#7C7877"/>
<path d="M145.653 392.352C145.635 392.129 145.429 391.968 145.214 391.977C144.99 391.995 144.82 392.192 144.838 392.415C144.847 392.585 145.16 396.492 146.038 398.057C146.109 398.191 146.252 398.263 146.396 398.263C146.467 398.263 146.53 398.245 146.593 398.209C146.79 398.102 146.861 397.851 146.745 397.655C145.957 396.242 145.653 392.379 145.653 392.344V392.352Z" fill="#7C7877"/>
<path d="M161.084 320.428C161.21 320.241 161.165 319.99 160.977 319.865C160.798 319.74 160.538 319.785 160.413 319.972C160.404 319.99 159.223 321.68 157.683 321.993C157.459 322.038 157.316 322.252 157.361 322.467C157.397 322.664 157.567 322.798 157.755 322.798C157.781 322.798 157.808 322.798 157.835 322.798C159.697 322.431 161.022 320.527 161.075 320.446L161.084 320.428Z" fill="#7C7877"/>
<path d="M189.227 314.178C189.012 314.232 188.869 314.447 188.922 314.661C188.922 314.679 189.352 316.601 188.922 318.568C188.878 318.783 189.012 319.007 189.236 319.051C189.263 319.051 189.289 319.06 189.325 319.06C189.513 319.06 189.683 318.926 189.719 318.738C190.185 316.601 189.737 314.572 189.719 314.482C189.674 314.268 189.46 314.125 189.236 314.178H189.227Z" fill="#7C7877"/>
<path d="M183.346 325.954C183.132 325.909 182.908 326.052 182.863 326.276C182.666 327.259 182.058 329.987 181.637 330.755C181.529 330.952 181.601 331.203 181.798 331.31C181.861 331.346 181.923 331.364 181.995 331.364C182.138 331.364 182.281 331.283 182.353 331.149C182.917 330.112 183.633 326.598 183.66 326.446C183.705 326.222 183.561 326.008 183.338 325.963L183.346 325.954Z" fill="#7C7877"/>
<path d="M163.823 330.541C163.6 330.541 163.421 330.729 163.421 330.952C163.421 330.979 163.421 333.966 162.821 335.495C162.74 335.7 162.839 335.942 163.054 336.022C163.098 336.04 163.152 336.049 163.206 336.049C163.367 336.049 163.519 335.951 163.582 335.79C164.244 334.109 164.235 331.069 164.235 330.943C164.235 330.72 164.056 330.541 163.832 330.541H163.823Z" fill="#7C7877"/>
<path d="M156.188 349.05C155.964 349.032 155.768 349.184 155.741 349.407C155.723 349.568 155.284 353.413 155.284 354.513C155.284 354.736 155.463 354.915 155.687 354.915C155.911 354.915 156.09 354.736 156.09 354.513C156.09 353.467 156.537 349.542 156.537 349.506C156.564 349.282 156.403 349.086 156.179 349.059L156.188 349.05Z" fill="#7C7877"/>
<path d="M156.877 367.469C156.645 367.451 156.466 367.639 156.457 367.862C156.457 368.023 156.367 371.868 156.457 372.878C156.475 373.093 156.654 373.245 156.86 373.245C156.869 373.245 156.886 373.245 156.895 373.245C157.119 373.227 157.28 373.03 157.262 372.807C157.173 371.85 157.262 367.925 157.262 367.889C157.262 367.666 157.092 367.478 156.869 367.469H156.877Z" fill="#7C7877"/>
<path d="M160.261 389.313C160.225 389.089 160.019 388.937 159.804 388.964C159.581 389 159.428 389.205 159.455 389.42C159.581 390.278 160.207 394.615 160.583 395.303C160.655 395.438 160.798 395.518 160.941 395.518C161.004 395.518 161.075 395.5 161.138 395.464C161.335 395.357 161.407 395.107 161.299 394.91C161.075 394.499 160.556 391.378 160.261 389.295V389.313Z" fill="#7C7877"/>
<path d="M175.89 389.527C175.684 389.608 175.577 389.849 175.667 390.055C176.087 391.101 177.179 394.042 177.179 395.106C177.179 395.33 177.358 395.509 177.582 395.509C177.806 395.509 177.985 395.33 177.985 395.106C177.985 393.658 176.481 389.912 176.418 389.751C176.338 389.545 176.096 389.447 175.89 389.527Z" fill="#7C7877"/>
<path d="M169.812 375.418C169.588 375.418 169.409 375.597 169.409 375.811C169.409 375.99 169.319 380.184 169.409 381.185C169.427 381.4 169.606 381.552 169.812 381.552C169.821 381.552 169.839 381.552 169.848 381.552C170.071 381.534 170.232 381.337 170.215 381.114C170.125 380.157 170.215 375.874 170.215 375.829C170.215 375.606 170.044 375.418 169.821 375.418H169.812Z" fill="#7C7877"/>
<path d="M175.988 363.651C175.898 362.31 176.426 358.67 176.435 358.635C176.471 358.411 176.31 358.205 176.095 358.17C175.88 358.143 175.666 358.286 175.63 358.51C175.612 358.662 175.084 362.274 175.173 363.695C175.191 363.91 175.37 364.08 175.576 364.08C175.576 364.08 175.594 364.08 175.603 364.08C175.827 364.062 175.997 363.874 175.979 363.651H175.988Z" fill="#7C7877"/>
<path d="M171.46 340.287C171.245 340.278 171.039 340.43 171.012 340.654C171.012 340.689 170.645 344.427 170.215 346.001C170.153 346.215 170.278 346.439 170.502 346.501C170.538 346.51 170.573 346.519 170.609 346.519C170.788 346.519 170.949 346.403 171.003 346.224C171.46 344.579 171.818 340.895 171.827 340.734C171.844 340.511 171.683 340.314 171.46 340.287Z" fill="#7C7877"/>
<path d="M117.609 272.878L114.028 268.122C109.92 273.692 105.623 277.322 105.426 277.483C105.158 277.707 105.05 278.082 105.167 278.422C105.283 278.753 105.596 278.985 105.945 278.985L108.738 279.012L108.353 282.07C108.326 282.303 108.389 282.544 108.541 282.723C108.711 282.928 108.953 283.027 109.195 283.027C109.374 283.027 109.562 282.964 109.714 282.839C109.902 282.678 114.019 279.245 118.298 273.808L118.101 273.54L117.609 272.869V272.878Z" fill="white"/>
<path d="M96.6368 239.411C96.5294 239.411 96.4398 239.5 96.4398 239.607V250.721H91.2213V239.607C91.2213 239.5 91.1318 239.411 91.0244 239.411H84.6959C84.5885 239.411 84.499 239.5 84.499 239.607V270.124C84.499 270.232 84.5885 270.321 84.7049 270.321H91.0333C91.1408 270.321 91.2303 270.232 91.2303 270.124V257.633H96.4488V270.124C96.4488 270.232 96.5383 270.321 96.6457 270.321H102.965C103.073 270.321 103.162 270.232 103.162 270.124V239.607C103.162 239.5 103.073 239.411 102.956 239.411H96.6368Z" fill="white"/>
<path d="M163.895 263.4V258.241H169.857C169.964 258.241 170.054 258.152 170.054 258.045V251.714C170.054 251.607 169.964 251.517 169.857 251.517H163.895V246.287H170.797C170.904 246.287 170.994 246.197 170.994 246.09V239.599C170.994 239.491 170.904 239.402 170.797 239.402H156.761C156.654 239.402 156.564 239.491 156.564 239.599V270.115C156.564 270.223 156.654 270.312 156.761 270.312H170.842C170.949 270.312 171.038 270.223 171.038 270.115V263.597C171.038 263.49 170.949 263.4 170.842 263.4H163.895Z" fill="white"/>
<path d="M142.404 239.402H134.33C134.33 239.402 134.267 239.42 134.24 239.438V270.223C134.24 270.223 134.285 270.312 134.33 270.312H140.855C140.963 270.312 141.052 270.223 141.052 270.115V258.697H141.974C145.098 258.697 147.586 257.83 149.359 256.113C151.131 254.397 152.035 252 152.035 248.987C152.035 246.126 151.149 243.792 149.395 242.04C147.64 240.287 145.286 239.402 142.404 239.402ZM143.97 251.607C143.451 252.027 142.708 252.286 141.732 252.403L141.052 252.483V245.643L141.732 245.714C142.744 245.822 143.505 246.072 144.006 246.474C144.624 246.975 144.946 247.851 144.946 249.094C144.946 250.257 144.633 251.088 143.979 251.616L143.97 251.607Z" fill="white"/>
<path d="M123.06 266.78C121.198 264.473 118.719 260.316 118.719 260.316C117.125 257.463 116.123 254.835 115.747 252.501C115.308 249.765 115.899 247.565 117.331 246.609C117.752 246.331 118.19 246.179 118.656 246.179C118.674 246.179 118.692 246.179 118.71 246.179C118.835 246.179 118.951 246.215 119.077 246.242C119.318 246.296 119.56 246.376 119.766 246.51C121.064 247.369 121.565 249.792 121.073 252.832C120.795 254.54 120.016 257.115 119.345 258.912C120.661 261.21 122.702 264.187 123.722 265.555C125.566 261.898 127.213 257.481 127.777 253.949C129.129 245.482 125.208 241.879 123.463 240.725C122.129 239.84 120.616 239.393 119.068 239.321C118.924 239.321 118.79 239.312 118.647 239.312C116.91 239.312 115.156 239.804 113.607 240.833C109.857 243.327 108.147 248.12 109.033 253.645C109.687 257.687 111.629 262.193 114.825 267.04L118.602 272.154L119.166 272.896C123.319 277.984 127.356 281.668 128.162 282.392C128.314 282.535 128.511 282.607 128.708 282.607C128.833 282.607 128.968 282.58 129.084 282.517C129.388 282.365 129.567 282.034 129.54 281.686L129.29 278.708L132.145 278.798C132.145 278.798 132.181 278.798 132.199 278.798C132.423 278.798 132.647 278.681 132.799 278.502C132.942 278.333 133.031 278.091 133.014 277.868C132.996 277.644 132.906 277.421 132.745 277.269C132.691 277.224 127.67 272.744 123.069 266.789L123.06 266.78Z" fill="white"/>
<path d="M134.133 239.608V270.125C134.133 270.187 134.204 270.196 134.249 270.232V239.447C134.187 239.483 134.133 239.536 134.133 239.608Z" fill="#3EBAC2"/>
<path d="M124.546 266.655L124.824 266.11C126.901 262.006 128.458 257.526 129.004 254.128C130.472 244.928 126.095 240.931 124.144 239.643C122.685 238.678 120.948 238.114 119.131 238.034C118.97 238.034 118.809 238.025 118.648 238.025C116.607 238.025 114.629 238.624 112.937 239.751C108.757 242.531 106.85 247.789 107.817 253.824C108.461 257.83 110.305 262.229 113.295 266.932L113.259 266.986L113.286 267.022L113.035 267.361C109.016 272.816 104.809 276.357 104.639 276.509C103.968 277.072 103.717 278.011 104.004 278.842C104.29 279.674 105.069 280.237 105.937 280.246L107.342 280.264L107.136 281.918C107.065 282.499 107.235 283.098 107.611 283.545C108.014 284.028 108.596 284.296 109.213 284.296C109.688 284.296 110.144 284.127 110.511 283.831C110.69 283.688 114.826 280.228 119.14 274.783C123.025 279.379 126.614 282.66 127.348 283.313C127.724 283.653 128.207 283.84 128.718 283.84C129.04 283.84 129.362 283.76 129.649 283.617C130.418 283.223 130.857 282.41 130.785 281.551L130.66 279.996L132.083 280.04H132.101H132.218C132.79 280.04 133.363 279.772 133.748 279.316C134.115 278.887 134.303 278.324 134.267 277.769C134.232 277.197 133.972 276.661 133.569 276.303C133.524 276.267 128.941 272.163 124.573 266.655H124.546ZM109.714 282.848C109.562 282.973 109.383 283.036 109.195 283.036C108.954 283.036 108.712 282.928 108.542 282.732C108.39 282.553 108.318 282.311 108.354 282.079L108.739 279.021L105.946 278.994C105.597 278.994 105.284 278.762 105.167 278.431C105.051 278.091 105.149 277.725 105.427 277.492C105.624 277.322 109.92 273.701 114.029 268.13L117.609 272.887L118.102 273.558L118.299 273.826C114.029 279.262 109.911 282.696 109.714 282.857V282.848ZM132.79 278.485C132.638 278.663 132.415 278.78 132.191 278.78C132.173 278.78 132.155 278.78 132.137 278.78L129.282 278.69L129.532 281.668C129.559 282.016 129.38 282.338 129.076 282.499C128.959 282.562 128.825 282.589 128.7 282.589C128.503 282.589 128.306 282.517 128.154 282.374C127.348 281.65 123.32 277.957 119.158 272.878L118.594 272.136L114.817 267.022C111.63 262.175 109.679 257.678 109.025 253.628C108.13 248.102 109.84 243.318 113.599 240.815C115.139 239.786 116.893 239.295 118.639 239.295C118.782 239.295 118.925 239.295 119.059 239.304C120.608 239.375 122.121 239.831 123.454 240.707C125.2 241.861 129.12 245.473 127.769 253.932C127.205 257.463 125.558 261.88 123.714 265.537C122.694 264.169 120.644 261.201 119.337 258.894C120.017 257.106 120.796 254.531 121.064 252.814C121.548 249.774 121.047 247.351 119.758 246.492C119.552 246.358 119.31 246.278 119.068 246.224C118.952 246.197 118.827 246.17 118.701 246.162C118.683 246.162 118.666 246.162 118.648 246.162C118.173 246.162 117.735 246.314 117.323 246.591C115.891 247.547 115.3 249.747 115.739 252.483C116.114 254.826 117.117 257.446 118.71 260.298C118.71 260.298 121.19 264.456 123.052 266.762C127.661 272.717 132.683 277.197 132.728 277.242C132.898 277.394 132.987 277.617 132.996 277.841C133.014 278.064 132.925 278.306 132.781 278.476L132.79 278.485ZM118.585 257.32C117.761 255.514 117.215 253.833 116.965 252.286C116.607 250.096 117.01 248.316 118.003 247.655C118.227 247.503 118.433 247.431 118.657 247.431C118.683 247.431 118.719 247.44 118.746 247.449L118.818 247.467C118.97 247.503 119.042 247.53 119.086 247.556C119.767 248.012 120.304 249.783 119.847 252.608C119.632 253.941 119.104 255.791 118.585 257.311V257.32Z" fill="#7C7877"/>
<path d="M104.397 270.125V239.608C104.397 238.892 103.851 238.32 103.162 238.222C103.09 238.213 103.036 238.186 102.965 238.186H96.6453C95.8576 238.186 95.2221 238.83 95.2221 239.617V249.506H92.4651V239.617C92.4651 238.83 91.8206 238.186 91.0329 238.186H84.7045C83.9168 238.186 83.2812 238.83 83.2812 239.617V270.134C83.2812 270.92 83.9257 271.555 84.7134 271.555H91.0419C91.8296 271.555 92.4651 270.911 92.4651 270.125V258.867H95.2221V270.125C95.2221 270.911 95.8666 271.546 96.6543 271.546H102.974C103.045 271.546 103.108 271.519 103.171 271.502C103.86 271.403 104.397 270.831 104.397 270.116V270.125ZM103.162 270.125C103.162 270.232 103.072 270.321 102.965 270.321H96.6453C96.5379 270.321 96.4484 270.232 96.4484 270.125V257.633H91.2299V270.125C91.2299 270.232 91.1403 270.321 91.0329 270.321H84.7045C84.5971 270.321 84.5076 270.232 84.5076 270.125V239.608C84.5076 239.5 84.5881 239.411 84.7045 239.411H91.0329C91.1403 239.411 91.2299 239.5 91.2299 239.608V250.722H96.4484V239.608C96.4484 239.5 96.5379 239.411 96.6453 239.411H102.965C103.072 239.411 103.162 239.5 103.162 239.608V270.125Z" fill="#7C7877"/>
<path d="M141.732 245.705L141.052 245.634V252.474L141.741 252.393C142.708 252.286 143.46 252.018 143.979 251.598C144.632 251.07 144.945 250.239 144.945 249.076C144.945 247.833 144.632 246.948 144.006 246.456C143.504 246.054 142.744 245.804 141.732 245.696V245.705ZM143.2 250.659C142.985 250.829 142.672 250.972 142.287 251.061V247.038C142.708 247.127 143.039 247.261 143.236 247.431C143.549 247.681 143.71 248.254 143.71 249.094C143.71 249.863 143.54 250.382 143.2 250.659Z" fill="#7C7877"/>
<path d="M142.404 238.177H134.33C134.33 238.177 134.276 238.195 134.24 238.195C133.497 238.239 132.897 238.847 132.897 239.607V270.124C132.897 270.884 133.497 271.483 134.24 271.528C134.267 271.528 134.294 271.546 134.33 271.546H140.855C141.643 271.546 142.278 270.902 142.278 270.115V259.931C145.59 259.877 148.258 258.894 150.209 257.007C152.232 255.049 153.261 252.358 153.261 248.996C153.261 245.795 152.25 243.166 150.263 241.172C148.267 239.178 145.626 238.177 142.404 238.177ZM149.359 256.122C147.586 257.839 145.098 258.706 141.974 258.706H141.052V270.124C141.052 270.232 140.962 270.321 140.855 270.321H134.33C134.285 270.321 134.276 270.267 134.24 270.24C134.195 270.205 134.133 270.187 134.133 270.133V239.616C134.133 239.545 134.177 239.491 134.24 239.455C134.267 239.437 134.294 239.42 134.33 239.42H142.404C145.286 239.42 147.64 240.305 149.394 242.057C151.149 243.81 152.035 246.152 152.035 249.005C152.035 252.018 151.14 254.414 149.359 256.131V256.122Z" fill="#7C7877"/>
<path d="M170.85 262.176H165.13V259.475H169.866C170.653 259.475 171.289 258.832 171.289 258.045V251.714C171.289 250.927 170.644 250.284 169.866 250.284H165.13V247.512H170.805C171.593 247.512 172.229 246.868 172.229 246.081V239.59C172.229 238.803 171.584 238.159 170.797 238.159H156.761C155.973 238.159 155.338 238.803 155.338 239.59V270.107C155.338 270.893 155.982 271.528 156.77 271.528H170.85C171.638 271.528 172.282 270.885 172.282 270.098V263.579C172.282 262.793 171.638 262.158 170.85 262.158V262.176ZM171.047 270.116C171.047 270.223 170.958 270.312 170.85 270.312H156.77C156.663 270.312 156.573 270.223 156.573 270.116V239.599C156.573 239.491 156.654 239.402 156.77 239.402H170.805C170.913 239.402 171.002 239.491 171.002 239.599V246.09C171.002 246.197 170.913 246.287 170.805 246.287H163.904V251.518H169.866C169.973 251.518 170.063 251.607 170.063 251.714V258.045C170.063 258.152 169.973 258.241 169.866 258.241H163.904V263.401H170.85C170.958 263.401 171.047 263.49 171.047 263.597V270.116Z" fill="#7C7877"/>
</svg>
