<svg width="272" height="417" viewBox="0 0 272 417" fill="none" xmlns="http://www.w3.org/2000/svg">
<path d="M270.87 221.535C270.557 220.078 270.118 218.665 269.546 217.306C269.017 216.046 268.382 214.874 267.666 213.793C267.46 213.48 267.254 213.185 267.03 212.881C266.806 212.586 266.583 212.3 266.35 212.022C266.001 211.602 265.634 211.2 265.249 210.816C264.354 209.922 263.387 209.117 262.34 208.42C262.044 208.223 261.731 208.026 261.418 207.847C260.8 207.481 260.147 207.15 259.484 206.855C258.643 206.488 257.784 206.167 256.88 205.898C256.495 205.782 256.101 205.684 255.698 205.594C255.295 205.505 254.901 205.425 254.49 205.353C253.666 205.219 252.834 205.112 251.975 205.058C251.563 205.031 251.142 205.004 250.721 204.995C241.161 204.835 236.059 208.795 231.083 212.621C228.317 214.758 225.64 216.805 222.292 217.959C222.096 218.021 221.89 218.093 221.684 218.155C221.46 218.218 221.227 218.29 220.995 218.352C220.789 218.406 220.583 218.45 220.377 218.504C219.67 218.656 218.945 218.772 218.175 218.835C216.886 218.942 215.499 218.933 213.986 218.754C212.589 218.593 211.256 218.307 209.976 217.914C209.662 217.816 209.34 217.717 209.036 217.61C207.953 217.226 206.896 216.779 205.912 216.278C205.625 216.135 205.348 215.992 205.07 215.831C202.17 214.24 199.7 212.219 197.713 210.243C197.525 210.056 197.337 209.868 197.158 209.68C196.245 208.741 195.457 207.838 194.777 206.998C194.499 206.658 194.249 206.336 194.007 206.033C193.891 205.872 193.774 205.72 193.667 205.577C193.443 205.282 193.246 205.004 193.067 204.745C192.969 204.611 192.888 204.495 192.807 204.37H192.27V202.743H194.284C203.943 198.845 212.786 194.008 220.646 188.242C224.933 185.104 228.854 181.715 232.407 178.112C247.785 162.521 256.101 142.96 256.101 121.753C256.101 112.009 254.946 102.818 252.673 94.2624C252.136 92.242 251.536 90.2662 250.874 88.3261C250.542 87.3606 250.193 86.3951 249.835 85.4385C249.656 84.9647 249.468 84.4819 249.28 84.017C248.716 82.5955 248.108 81.2008 247.481 79.824C246.846 78.4472 246.174 77.0973 245.467 75.7652C244.993 74.8712 244.509 73.995 244.008 73.1189C243.99 73.0652 243.972 73.0027 243.945 72.9222C243.919 72.8418 243.892 72.7434 243.856 72.6361C243.838 72.5825 243.82 72.5199 243.802 72.4573C243.739 72.2696 243.677 72.0461 243.596 71.7868C243.444 71.2772 243.256 70.6425 243.032 69.8915C242.925 69.516 242.809 69.1137 242.692 68.6935C242.45 67.8442 242.182 66.8876 241.905 65.8505C240.553 60.8261 238.834 53.7902 237.644 46.5487C237.483 45.5474 237.331 44.5461 237.187 43.5448C236.972 42.0428 236.784 40.5409 236.641 39.0568C236.587 38.5562 236.543 38.0644 236.498 37.5817C236.292 35.1678 235.952 32.7182 235.469 30.2776C233.687 21.248 230.026 12.3972 224.477 6.68442C224.325 6.53244 224.181 6.38045 224.02 6.22847C221.577 3.82356 218.784 2.02657 215.642 1.06997C215.4 0.998445 215.149 0.944839 214.908 0.882258C214.084 0.658754 213.252 0.471023 212.428 0.33692C211.775 0.229638 211.121 0.140201 210.468 0.0776202C210.253 0.0597398 210.029 0.0418704 209.815 0.0329302C201.204 -0.423019 192.333 3.85036 182.344 13.1928C177.018 18.1725 172.945 21.3552 168.46 22.7588C167.61 23.0271 166.733 23.2327 165.847 23.3668C164.155 23.626 162.374 23.6707 160.413 23.4741C160.145 23.4562 159.867 23.4204 159.59 23.3847C159.581 23.3847 159.572 23.3847 159.563 23.3847H159.545C150.379 22.0079 140.694 21.2748 130.714 21.1586C129.818 21.1496 128.923 21.1407 128.028 21.1407C117.099 21.1407 106.492 21.9006 96.511 23.4026C96.1709 23.4383 95.8488 23.4651 95.5176 23.5009C94.1123 23.635 92.7875 23.6529 91.5344 23.5456C85.3133 23.0181 80.5333 19.594 73.7125 13.2197C67.1692 7.09567 61.1005 3.17093 55.2733 1.31137C53.134 0.622975 51.0393 0.22068 48.9537 0.095518C46.519 -0.0564651 44.12 0.167031 41.7211 0.757082C41.2825 0.864365 40.8529 0.971651 40.4143 1.09681C34.1217 3.01001 29.2344 8.28472 25.7614 15.0167C25.3318 15.8571 24.9109 16.7153 24.526 17.6004C24.1322 18.4855 23.7652 19.3884 23.4251 20.3003C23.255 20.7562 23.0849 21.2211 22.9237 21.686C22.4404 23.0807 22.0018 24.5022 21.6169 25.9505C21.3663 26.9071 21.1246 27.8816 20.9097 28.8561C20.2653 31.7795 19.8267 34.7297 19.576 37.6174C19.209 42.007 18.493 46.6202 17.6427 51.0098C17.2667 52.9677 16.8638 54.872 16.4521 56.6958C15.736 59.8964 14.9932 62.8466 14.3218 65.3409C14.2234 65.6985 14.1338 66.0472 14.0353 66.3869C13.8563 67.0664 13.6772 67.7011 13.5161 68.2912C13.4355 68.5862 13.346 68.8723 13.2744 69.1405C13.2386 69.2746 13.1939 69.4087 13.1581 69.5428C13.0865 69.8021 13.0149 70.0524 12.9433 70.2938C12.809 70.7676 12.6836 71.1878 12.5762 71.5633C12.5225 71.7421 12.4688 71.9209 12.4241 72.0729C12.4062 72.1534 12.3793 72.2249 12.3614 72.2964C12.2987 72.511 12.2361 72.6898 12.1913 72.8328C12.1376 72.9848 12.1109 73.0921 12.084 73.1636C11.8334 73.6016 11.5827 74.0397 11.35 74.4778C10.1326 76.6771 9.01374 78.9389 7.99331 81.2544C7.79638 81.7193 7.59058 82.1842 7.39365 82.6491C6.80288 84.0527 6.24781 85.4832 5.72864 86.9225C5.37955 87.8881 5.04826 88.8626 4.73497 89.846C4.42168 90.8294 4.11734 91.8128 3.83986 92.8141C3.55342 93.8154 3.28497 94.8167 3.03434 95.8359C1.02033 103.962 0 112.643 0 121.816C0 138.945 5.42435 155.002 15.6197 168.752C16.1031 169.405 16.6042 170.057 17.1055 170.701C17.6157 171.345 18.1349 171.979 18.654 172.614C20.2384 174.509 21.9213 176.36 23.6936 178.166C27.2472 181.76 31.1767 185.148 35.4643 188.286C42.6342 193.543 50.6008 198.031 59.2744 201.741C53.0176 205.737 27.5068 223.412 13.5609 254.354C12.7821 256.071 12.0482 257.832 11.35 259.629C10.8845 260.827 10.437 262.052 10.0073 263.294C9.79249 263.911 9.58665 264.537 9.38078 265.163C8.56622 267.675 7.83227 270.259 7.18779 272.914C6.96401 273.728 2.35407 290.66 6.85649 303.391C6.99076 303.767 7.13395 304.133 7.27717 304.509C7.57256 305.242 7.90385 305.966 8.27084 306.663C8.53938 307.191 8.83476 307.7 9.157 308.201C9.26441 308.371 9.3717 308.532 9.47912 308.693C9.62234 308.907 9.76554 309.104 9.91771 309.309C12.1376 312.331 15.0736 314.486 18.6899 315.782C20.3727 316.381 22.1988 316.792 24.1681 317.007C25.9315 317.204 27.5873 317.266 29.1627 317.204C31.6779 317.096 33.9606 316.64 36.0373 315.809C43.0997 312.984 47.8795 305.76 51.7553 292.627C51.8627 292.475 51.9166 292.287 51.9077 292.109C52.5969 289.713 53.2682 287.147 53.9127 284.357C54.772 280.656 55.7746 277.375 56.8577 274.487C57.1262 273.763 57.4036 273.066 57.6811 272.387C57.8154 272.047 57.9675 271.716 58.1018 271.385C58.5225 270.402 58.9521 269.481 59.3817 268.605C59.9546 267.443 60.5366 266.361 61.1095 265.368C61.5391 264.617 61.9687 263.92 62.3894 263.276C63.929 260.898 65.379 259.119 66.5516 257.868C66.4442 258.154 66.3279 258.467 66.2116 258.789C65.8804 259.656 65.5311 260.657 65.1552 261.784C65.0567 262.07 64.9673 262.356 64.8689 262.651C64.7257 263.098 64.5825 263.563 64.4392 264.036C64.1439 265.002 63.8485 266.048 63.5441 267.156C63.4636 267.443 63.392 267.729 63.3204 268.024C63.1682 268.614 63.016 269.222 62.8638 269.839C62.7922 270.151 62.7117 270.473 62.6401 270.795C60.2859 280.808 58.2539 295.22 59.1669 313.637C59.3101 316.524 59.4892 319.188 59.6951 321.665C59.7936 322.899 59.9098 324.088 60.0262 325.223C60.053 325.446 60.08 325.679 60.0979 325.902C60.1158 326.117 60.1427 326.34 60.1606 326.555C56.7412 326.591 53.4829 326.984 50.4395 327.673C38.5882 330.39 30.1295 337.793 29.0106 347.305C28.9748 347.591 28.9478 347.895 28.9299 348.199C28.7957 350.613 29.1986 353.51 30.416 356.433C30.6845 357.077 30.9889 357.721 31.3379 358.355C31.517 358.668 31.6959 358.99 31.8928 359.303C32.0897 359.616 32.2956 359.938 32.5104 360.251C32.7342 360.563 32.958 360.876 33.1996 361.18C33.9247 362.101 34.7482 363.004 35.6881 363.871C38.3018 366.267 42.1866 368.699 47.808 369.986C48.345 370.112 48.9001 370.228 49.4819 370.326C49.5893 370.344 49.6966 370.362 49.804 370.38C50.1442 370.442 50.5022 370.487 50.8602 370.541C51.9165 370.693 53.0176 370.791 54.1813 370.854C54.5662 370.872 54.9599 370.889 55.3627 370.907C55.7834 370.925 56.2219 370.925 56.6605 370.925C56.7769 370.925 56.9024 370.925 57.0187 370.916C57.3768 370.916 57.7527 370.898 58.1197 370.889C61.0288 370.8 64.2244 370.469 67.7511 369.799C67.7511 369.897 67.7422 369.986 67.7332 370.085C67.7332 370.183 67.7242 370.281 67.7153 370.371C67.6974 370.648 67.6794 370.925 67.6526 371.211C67.6436 371.354 67.6346 371.479 67.6167 371.622C67.6167 371.631 67.6169 371.757 67.5901 371.989C67.5722 372.159 67.5542 372.391 67.5184 372.66C67.4736 373.035 67.411 373.482 67.3305 374.01C67.1425 375.181 66.8381 376.701 66.3637 378.354C65.7281 380.563 64.7792 383.012 63.3829 385.22C63.1501 385.596 62.9086 385.998 62.6669 386.427C62.5506 386.642 62.4251 386.874 62.3088 387.107C62.2551 387.223 62.1924 387.339 62.1298 387.464C61.7717 388.189 61.4227 388.966 61.0915 389.789C59.9458 392.677 59.1044 396.154 59.2923 399.596C59.2923 399.614 59.2923 399.632 59.2923 399.65C59.355 400.911 59.5698 402.171 59.9458 403.396C60.2322 404.317 60.6171 405.229 61.1184 406.105C63.8306 410.87 69.3534 413.963 77.5705 415.376C78.4209 415.519 79.3159 415.653 80.22 415.76C80.6765 415.814 81.142 415.867 81.6075 415.912C82.0819 415.966 82.5564 416.002 83.0397 416.037C83.5321 416.073 84.0243 416.1 84.5166 416.136C85.0179 416.162 85.5191 416.189 86.0382 416.207C87.0676 416.243 88.1329 416.261 89.2159 416.261C89.9231 416.261 90.657 416.252 91.391 416.234C91.6058 416.234 91.8027 416.234 92.0086 416.225L93.9511 416.18C99.1786 416.055 105.606 415.903 111.173 414.643C111.442 414.58 111.71 414.517 111.979 414.446C112.775 414.249 113.545 414.026 114.288 413.775C116.875 412.908 119.149 411.71 120.849 410.038C120.984 409.904 121.1 409.779 121.234 409.636C121.727 409.1 122.165 408.519 122.541 407.884C122.908 407.249 123.221 406.57 123.463 405.837C123.758 404.916 123.946 403.914 124.009 402.815C124.107 401.018 124.009 398.962 123.767 396.735C123.66 395.752 123.526 394.724 123.382 393.669C122.98 390.862 122.443 387.849 121.888 384.765C119.748 372.865 117.322 359.374 120.939 349.218C121.001 349.049 120.983 348.888 120.939 348.727C122.228 348.977 123.705 349.201 125.28 349.361C125.558 349.388 125.826 349.415 126.113 349.442C127.214 349.531 128.359 349.585 129.523 349.585C130.391 349.585 131.268 349.549 132.146 349.487C133.166 349.406 134.186 349.272 135.198 349.084C135.207 349.12 135.198 349.165 135.216 349.209C135.261 349.335 135.296 349.46 135.332 349.585C135.422 349.853 135.502 350.13 135.592 350.399C138.635 360.403 136.335 373.303 134.276 384.756C133.05 391.595 131.895 398.059 132.155 402.806C132.674 412.104 142.269 414.956 152.008 415.823C155.902 416.171 159.813 416.207 163.188 416.207C164.146 416.234 165.077 416.243 165.99 416.243C166.903 416.243 167.834 416.234 168.729 416.207C172.238 416.1 175.415 415.778 178.262 415.251C184.17 414.16 188.636 412.157 191.608 409.27C192.226 408.662 192.781 408.027 193.273 407.347C193.568 406.945 193.837 406.525 194.087 406.087C194.607 405.166 195.009 404.218 195.296 403.244C195.376 402.976 195.448 402.716 195.511 402.448C195.726 401.527 195.851 400.58 195.913 399.632V399.578C196.2 393.982 193.801 388.332 191.823 385.203C191.008 383.915 190.346 382.547 189.818 381.189C189.737 380.992 189.666 380.804 189.594 380.616C189.451 380.232 189.316 379.847 189.191 379.463C188.636 377.755 188.26 376.137 188.019 374.823C187.938 374.385 187.866 373.974 187.822 373.607C187.634 372.391 187.58 371.622 187.58 371.587C186.989 365.212 187.437 360.984 188.395 356.871C188.466 356.576 188.538 356.272 188.609 355.977C188.762 355.378 188.914 354.779 189.084 354.18C189.129 354.028 189.164 353.876 189.209 353.724C189.46 352.812 189.737 351.883 190.024 350.908C191.268 346.688 192.682 341.887 193.864 334.852C194.025 333.877 194.186 332.849 194.338 331.785C194.49 330.712 194.633 329.595 194.786 328.432C194.839 327.959 194.893 327.485 194.956 327.002C195.018 326.519 195.063 326.028 195.117 325.527C195.171 325.026 195.215 324.517 195.269 323.998C195.323 323.48 195.367 322.952 195.412 322.416C195.466 321.87 195.511 321.334 195.547 320.771C195.591 320.208 195.627 319.644 195.672 319.072C195.797 317.338 195.905 315.514 195.994 313.601C195.994 313.592 195.994 313.583 195.994 313.574C195.994 313.574 195.994 313.556 195.994 313.547C196.997 295.962 195.466 282.569 193.389 273.003C193.371 272.923 193.354 272.834 193.336 272.753C191.698 265.315 189.737 260.219 188.413 257.278C188.762 257.519 189.12 257.751 189.469 257.984C191.93 259.593 194.383 260.943 196.8 262.087C197.149 262.248 197.498 262.409 197.838 262.561C198.017 262.642 198.187 262.722 198.366 262.794C198.527 262.874 198.688 262.946 198.849 263.008C200.908 263.884 202.94 264.617 204.918 265.208C210.003 266.727 214.809 267.398 219.133 267.541C219.75 267.559 220.359 267.568 220.959 267.568C222.382 267.568 223.734 267.514 225.032 267.416C225.909 267.353 226.768 267.273 227.583 267.174C228.576 267.049 229.561 266.906 230.545 266.727C236.471 265.699 242.227 263.723 247.508 260.952C248.43 260.46 249.352 259.951 250.247 259.414C251.142 258.878 252.028 258.315 252.897 257.734C253.469 257.34 254.033 256.938 254.597 256.536C254.884 256.33 255.161 256.124 255.439 255.91C255.985 255.49 256.522 255.06 257.059 254.622C258.124 253.737 259.153 252.825 260.138 251.869C260.245 251.833 260.344 251.762 260.424 251.681C260.505 251.592 260.577 251.493 260.621 251.377C260.8 251.198 260.979 251.019 261.167 250.841C261.346 250.662 261.525 250.474 261.695 250.295C269.501 242.035 272.92 230.985 270.915 221.562L270.87 221.535ZM227.377 265.529C224.96 265.815 222.257 265.976 219.312 265.887C217.414 265.833 215.418 265.672 213.35 265.377C211.256 265.082 209.09 264.653 206.852 264.045C204.014 263.285 201.069 262.248 198.071 260.872C197.713 260.711 197.364 260.541 197.006 260.371C196.639 260.192 196.272 260.013 195.905 259.826C192.852 258.27 189.746 256.357 186.64 254.006C186.587 253.97 186.515 253.943 186.461 253.925C186.425 253.907 186.39 253.889 186.354 253.871C186.327 253.871 186.291 253.871 186.264 253.871C186.193 253.862 186.112 253.854 186.04 253.862C186.022 253.862 186.005 253.88 185.987 253.88C185.906 253.898 185.817 253.925 185.745 253.97H185.736C185.736 253.97 185.673 254.032 185.647 254.059C185.602 254.095 185.548 254.122 185.512 254.175C185.512 254.175 185.512 254.175 185.512 254.184C185.477 254.238 185.459 254.292 185.432 254.345C185.414 254.39 185.378 254.426 185.369 254.47C185.369 254.506 185.369 254.551 185.369 254.587C185.369 254.649 185.351 254.712 185.369 254.783C185.369 254.81 185.387 254.837 185.396 254.873C185.414 254.944 185.432 255.016 185.477 255.078V255.087C185.503 255.132 188.305 259.763 190.785 269.231C192.897 277.277 195.162 290.446 194.58 308.666C138.206 326.081 76.9976 312.796 63.2218 309.381C62.9264 309.309 62.649 309.247 62.3984 309.175C62.0851 309.095 61.8164 309.023 61.5747 308.961C61.154 308.853 60.823 308.764 60.6261 308.71C60.1606 288.425 63.2845 273.54 65.9519 264.653C66.2473 263.661 66.5427 262.749 66.8202 261.909C67.1245 260.988 67.4199 260.165 67.6884 259.432C68.7446 256.589 69.5055 255.096 69.5324 255.043C69.7025 254.712 69.6309 254.309 69.3534 254.059C69.0759 253.809 68.6641 253.782 68.3597 253.997C67.9211 254.292 57.52 261.488 52.3283 283.955C51.7823 286.351 51.2093 288.568 50.6185 290.633C36.0998 278.332 14.6081 281.505 7.93955 282.882C7.62626 282.945 7.34882 283.007 7.09819 283.061C7.06239 283.061 7.01753 283.079 6.99067 283.079C7.62621 277.473 8.73614 273.37 8.77194 273.263C19.4328 228.866 56.9472 204.986 61.1184 202.447C61.19 202.474 61.2616 202.501 61.3332 202.537C61.6465 202.662 61.9507 202.778 62.264 202.903C75.7265 208.294 90.7914 211.853 107.127 213.462C108.345 215.169 114.207 222.214 128.055 222.214C141.464 222.214 146.441 215.607 147.649 213.587C163.233 212.148 177.68 208.965 190.713 204.119C192.512 207.043 200.505 218.799 213.798 220.346C217.262 220.748 220.091 220.39 222.561 219.586C223.197 219.38 223.805 219.13 224.396 218.862C224.987 218.602 225.569 218.316 226.124 218.003C226.258 217.923 226.41 217.851 226.553 217.771C226.553 217.825 226.571 217.896 226.58 217.95C226.616 218.173 226.652 218.441 226.706 218.754C226.741 218.996 226.795 219.273 226.858 219.559C228.2 226.452 234.126 246.353 258.061 251.511C249.835 259.092 238.843 264.153 227.386 265.503L227.377 265.529Z" fill="#695EA6"/>
<path d="M50.6365 170.371C50.726 170.576 50.8961 170.728 51.102 170.8C60.0442 179.078 71.6538 185.81 85.1074 190.406C85.179 190.441 85.2506 190.468 85.3311 190.486C98.1492 194.84 112.623 197.272 128.046 197.272C182.209 197.272 224.638 167.313 224.629 129.085C224.629 110.284 214.281 91.5093 196.254 77.5626C177.77 63.2672 153.539 55.3999 128.028 55.3999C101.721 55.3999 77.4989 62.561 59.8204 75.56C41.5153 89.015 31.4364 108.031 31.4453 129.112C31.4453 144.739 38.5435 158.981 50.6365 170.362V170.371ZM53.3039 170.63C58.603 170.228 74.4645 170.639 83.8274 188.251C71.8955 183.951 61.5121 177.934 53.3039 170.63ZM170.394 188.895C180.849 168.386 199.503 170.272 202.618 170.755C194.007 178.372 183.033 184.585 170.394 188.895ZM60.7782 76.8742C78.1792 64.0808 102.061 57.036 128.019 57.036C153.172 57.036 177.054 64.7781 195.251 78.8589C212.885 92.4927 222.991 110.802 223 129.094C223 144.462 215.919 158.462 203.88 169.611C203.764 169.423 203.585 169.28 203.352 169.235C203.11 169.191 197.417 168.109 190.221 170.04C183.579 171.819 174.395 176.611 168.344 189.351C168.308 189.431 168.29 189.52 168.281 189.601C156.126 193.49 142.511 195.653 128.046 195.662C112.883 195.662 98.6505 193.293 86.0562 189.038C75.3507 166.955 55.0944 168.717 51.7108 169.182C39.9669 158.114 33.0745 144.283 33.0745 129.13C33.0745 108.576 42.9118 90.0252 60.7872 76.8832L60.7782 76.8742Z" fill="#2F2F2F"/>
<path d="M128.046 175.502C130.74 175.502 132.924 174.206 132.924 172.606C132.924 171.005 130.74 169.709 128.046 169.709C125.352 169.709 123.167 171.005 123.167 172.606C123.167 174.206 125.352 175.502 128.046 175.502Z" fill="#2F2F2F"/>
<path d="M76.7647 155.02C77.1048 155.02 77.427 155.029 77.7582 155.029C90.0839 155.029 95.0966 149.129 95.3114 148.869C95.7411 148.351 95.6604 147.591 95.1502 147.162C94.631 146.733 93.8613 146.804 93.4316 147.314C93.3869 147.367 88.589 152.901 76.8272 152.58C64.9938 152.285 59.5964 146.473 59.5158 146.384C59.0683 145.883 58.2983 145.839 57.7971 146.286C57.2958 146.733 57.2512 147.502 57.6898 148.002C57.9315 148.279 63.7676 154.681 76.7557 155.011L76.7647 155.02Z" fill="#2F2F2F"/>
<path d="M178.325 155.021C178.647 155.021 178.978 155.021 179.318 155.012C192.306 154.681 198.142 148.271 198.384 147.994C198.832 147.493 198.787 146.715 198.277 146.277C197.775 145.83 196.997 145.875 196.558 146.384C196.504 146.447 191.196 152.276 179.256 152.58C167.467 152.866 162.696 147.377 162.651 147.323C162.222 146.805 161.452 146.733 160.932 147.162C160.413 147.591 160.342 148.36 160.771 148.879C160.986 149.138 165.999 155.038 178.325 155.038V155.021Z" fill="#2F2F2F"/>
<path d="M270.87 221.535C270.557 220.078 270.118 218.665 269.546 217.306C269.017 216.046 268.382 214.875 267.666 213.793C267.46 213.48 267.254 213.176 267.03 212.881C266.806 212.586 266.583 212.3 266.35 212.023C266.001 211.603 265.634 211.2 265.249 210.816C264.354 209.922 263.387 209.117 262.34 208.42C262.044 208.223 261.731 208.027 261.418 207.848C260.8 207.481 260.156 207.141 259.484 206.855C258.652 206.48 257.784 206.167 256.88 205.899C256.495 205.791 256.101 205.684 255.698 205.604C255.295 205.514 254.901 205.434 254.49 205.362C253.666 205.228 252.834 205.121 251.975 205.067C251.563 205.032 251.151 205.014 250.721 205.005C241.161 204.844 236.059 208.804 231.083 212.631C228.317 214.767 225.64 216.815 222.292 217.968C222.096 218.031 221.89 218.102 221.684 218.165C221.46 218.227 221.227 218.299 220.995 218.361C220.789 218.415 220.583 218.46 220.377 218.513C219.67 218.665 218.945 218.782 218.175 218.844C216.886 218.951 215.499 218.942 213.986 218.764C212.589 218.603 211.256 218.317 209.976 217.923C209.662 217.825 209.34 217.727 209.036 217.619C207.953 217.235 206.896 216.788 205.912 216.287C205.625 216.135 205.348 215.992 205.07 215.84C202.17 214.249 199.7 212.228 197.713 210.253C197.525 210.065 197.337 209.877 197.158 209.689C196.263 208.76 195.457 207.848 194.777 207.007C194.508 206.677 194.249 206.346 194.007 206.042C193.891 205.881 193.774 205.729 193.667 205.586C193.452 205.291 193.255 205.014 193.067 204.754C192.969 204.62 192.888 204.504 192.807 204.379H192.27V202.752H194.284C203.943 198.854 212.786 194.017 220.646 188.251C224.933 185.113 228.854 181.725 232.407 178.122C247.785 162.539 256.101 142.978 256.101 121.763C256.101 112.018 254.946 102.827 252.673 94.2717C252.136 92.2512 251.545 90.2754 250.874 88.3354C250.542 87.3699 250.193 86.4043 249.835 85.4477C249.656 84.9739 249.468 84.4911 249.28 84.0262C248.716 82.6048 248.117 81.2101 247.481 79.8333C246.846 78.4565 246.174 77.1065 245.467 75.7744C244.993 74.8804 244.509 74.0043 244.008 73.1282C243.99 73.0745 243.972 73.0119 243.945 72.9314C243.928 72.851 243.892 72.7526 243.856 72.6454C243.838 72.5917 243.82 72.5292 243.802 72.4666C243.739 72.2789 243.677 72.0554 243.596 71.7961C243.444 71.2865 243.256 70.6517 243.032 69.9008C242.925 69.5253 242.809 69.123 242.692 68.7028C242.45 67.8534 242.191 66.8969 241.905 65.8598C240.553 60.8354 238.834 53.7995 237.644 46.5579C237.483 45.5566 237.33 44.5553 237.187 43.554C236.972 42.0521 236.793 40.5501 236.641 39.0661C236.587 38.5654 236.543 38.0737 236.498 37.591C236.292 35.1771 235.952 32.7275 235.469 30.2868C233.696 21.2573 230.035 12.4065 224.477 6.6937C224.325 6.54172 224.181 6.38973 224.02 6.23774C221.577 3.83284 218.784 2.03584 215.642 1.07924C215.4 1.00772 215.149 0.954117 214.908 0.891535C214.084 0.668031 213.252 0.480246 212.428 0.346143C211.775 0.238861 211.121 0.140539 210.468 0.0868975C210.253 0.0690171 210.029 0.0511477 209.815 0.0422075C201.204 -0.413742 192.333 3.85964 182.344 13.2021C177.018 18.1818 172.945 21.3645 168.46 22.7681C167.61 23.0363 166.733 23.2419 165.847 23.3761C164.155 23.6353 162.374 23.68 160.413 23.4833C160.145 23.4565 159.867 23.4208 159.59 23.385H159.545C150.379 22.0082 140.694 21.2751 130.714 21.1589C129.818 21.15 128.923 21.141 128.028 21.141C117.099 21.141 106.492 21.9009 96.511 23.4029C96.1709 23.4387 95.8488 23.4655 95.5176 23.5012C94.1122 23.6353 92.7875 23.6532 91.5344 23.5459C85.3133 23.0184 80.5333 19.5944 73.7125 13.22C67.1692 7.096 61.1005 3.17125 55.2733 1.3117C53.134 0.623304 51.0393 0.221009 48.9537 0.0958464C46.519 -0.0561366 44.12 0.167359 41.7211 0.757411C41.2825 0.864693 40.8529 0.971979 40.4143 1.09714C34.1217 3.01034 29.2344 8.28505 25.7614 15.017C25.3318 15.8574 24.9109 16.7157 24.526 17.6007C24.1411 18.4858 23.7652 19.3887 23.4251 20.3006C23.255 20.7566 23.0849 21.2215 22.9237 21.6863C22.4404 23.081 22.0018 24.5025 21.6169 25.9508C21.3663 26.9074 21.1246 27.8819 20.9097 28.8564C20.2742 31.7798 19.8267 34.7301 19.585 37.6177C19.218 42.0074 18.502 46.6205 17.6427 51.0102C17.2667 52.9681 16.8638 54.8723 16.4521 56.6961C15.736 59.8967 14.9932 62.8469 14.3218 65.3412C14.2234 65.6989 14.1338 66.0475 14.0353 66.3872C13.8563 67.0667 13.6772 67.7014 13.5161 68.2915C13.4355 68.5865 13.346 68.8726 13.2744 69.1408C13.2386 69.2749 13.1939 69.409 13.1581 69.5431C13.0865 69.8024 13.0149 70.0528 12.9433 70.2941C12.809 70.768 12.6836 71.1881 12.5762 71.5636C12.5225 71.7424 12.4688 71.9212 12.4241 72.0732C12.4062 72.1537 12.3793 72.2252 12.3614 72.2967C12.2987 72.5113 12.2361 72.6901 12.1913 72.8331C12.1466 72.9851 12.1109 73.0924 12.093 73.1639C11.8424 73.602 11.5917 74.0401 11.35 74.4781C10.1326 76.6774 9.01374 78.9392 7.99331 81.2548C7.79638 81.7196 7.59058 82.1845 7.39365 82.6494C6.80287 84.053 6.24781 85.4835 5.72864 86.9229C5.3885 87.8884 5.04826 88.8629 4.73497 89.8463C4.42168 90.8297 4.11734 91.8132 3.83986 92.8145C3.55342 93.8158 3.29392 94.817 3.03434 95.8362C1.02033 103.963 0 112.644 0 121.816C0 138.946 5.42435 155.002 15.6197 168.752C16.1031 169.405 16.6042 170.058 17.1055 170.701C17.6157 171.345 18.1349 171.98 18.654 172.614C20.2384 174.51 21.9213 176.36 23.6936 178.166C27.2472 181.76 31.1767 185.149 35.4643 188.287C42.6342 193.543 50.6008 198.031 59.2744 201.742C53.0176 205.738 27.5068 223.413 13.5609 254.354C12.7911 256.071 12.0482 257.832 11.35 259.629C10.8845 260.827 10.437 262.052 10.0073 263.295C9.79249 263.912 9.58665 264.537 9.38078 265.163C8.56622 267.675 7.83206 270.259 7.19653 272.914C6.97275 273.728 2.36302 290.652 6.85649 303.391C6.99076 303.767 7.13395 304.133 7.27717 304.509C7.57256 305.242 7.90385 305.966 8.27084 306.663C8.53938 307.182 8.84371 307.701 9.157 308.201C9.26441 308.371 9.37171 308.532 9.48808 308.693C9.6313 308.907 9.7745 309.104 9.91771 309.31C12.1376 312.332 15.0736 314.486 18.6899 315.782C20.3727 316.381 22.1988 316.793 24.1681 317.007C25.9315 317.204 27.5873 317.267 29.1627 317.204C31.6779 317.097 33.9606 316.641 36.0373 315.809C43.0997 312.984 47.8795 305.761 51.7553 292.627C51.8627 292.475 51.9256 292.288 51.9076 292.109C52.5969 289.713 53.2682 287.147 53.9127 284.358C54.772 280.657 55.7746 277.375 56.8577 274.488C57.1262 273.764 57.4036 273.066 57.6811 272.387C57.8154 272.047 57.9675 271.716 58.1018 271.386C58.5225 270.402 58.9521 269.481 59.3817 268.605C59.9546 267.443 60.5366 266.361 61.1094 265.369C61.5391 264.618 61.9687 263.921 62.3894 263.277C63.9379 260.899 65.3879 259.12 66.5516 257.868C66.5516 257.868 66.5546 257.865 66.5605 257.859C66.4442 258.154 66.3279 258.467 66.2026 258.789C65.8714 259.656 65.5224 260.657 65.1464 261.784C65.048 262.07 64.9584 262.356 64.8599 262.651C64.7257 263.098 64.5735 263.563 64.4303 264.037C64.1349 265.002 63.8395 266.048 63.5352 267.157C63.4546 267.443 63.383 267.729 63.3024 268.024C63.1503 268.614 62.9981 269.222 62.8459 269.839C62.7743 270.152 62.6937 270.474 62.6221 270.795C60.268 280.808 58.236 295.22 59.149 313.637C59.2922 316.525 59.4713 319.189 59.6772 321.665C59.7846 322.899 59.8919 324.088 60.0083 325.223C60.0351 325.447 60.062 325.679 60.0799 325.903C60.0978 326.117 60.1248 326.341 60.1516 326.555C56.7323 326.591 53.474 326.984 50.4306 327.673C38.5793 330.391 30.1205 337.793 29.0016 347.306C28.9658 347.592 28.9389 347.896 28.921 348.2C28.7867 350.613 29.1896 353.51 30.407 356.433C30.6755 357.077 30.9799 357.712 31.329 358.356C31.508 358.668 31.6869 358.99 31.8838 359.303C32.0808 359.616 32.2866 359.938 32.5014 360.251C32.7252 360.564 32.949 360.877 33.1907 361.181C33.9157 362.102 34.7393 363.004 35.6791 363.872C38.2929 366.268 42.1777 368.699 47.799 369.987C48.3361 370.112 48.9001 370.228 49.473 370.327C49.5804 370.344 49.6877 370.362 49.7951 370.38C50.1352 370.443 50.4932 370.487 50.8513 370.541C51.9075 370.693 53.0087 370.791 54.1723 370.854C54.5572 370.872 54.9509 370.89 55.3537 370.908C55.7834 370.917 56.2219 370.925 56.6605 370.925C56.7769 370.925 56.8934 370.925 57.0187 370.925C57.3768 370.925 57.7527 370.908 58.1197 370.899C61.0288 370.809 64.2244 370.478 67.7511 369.808C67.7511 369.906 67.7332 369.996 67.7242 370.094C67.7242 370.192 67.7153 370.291 67.7063 370.38C67.6884 370.657 67.6705 370.934 67.6436 371.221C67.6257 371.364 67.6259 371.489 67.608 371.632C67.608 371.641 67.599 371.766 67.5721 371.998C67.5542 372.168 67.5363 372.401 67.5005 372.669C67.4557 373.044 67.3931 373.491 67.3125 374.019C67.1245 375.19 66.8201 376.71 66.3457 378.364C65.7102 380.572 64.7613 383.022 63.3649 385.23C63.1322 385.605 62.8907 386.008 62.649 386.437C62.5326 386.651 62.4072 386.884 62.2908 387.116C62.2371 387.232 62.1745 387.349 62.1119 387.474C61.7538 388.198 61.4048 388.967 61.0736 389.798C59.9368 392.686 59.0954 396.155 59.2744 399.606C59.2744 399.623 59.2744 399.641 59.2744 399.659C59.346 400.92 59.5519 402.18 59.9278 403.405C60.2143 404.326 60.5992 405.238 61.1005 406.114C63.8127 410.879 69.3354 413.972 77.5526 415.385C78.4029 415.528 79.298 415.662 80.2021 415.769C80.6586 415.823 81.1241 415.877 81.5895 415.921C82.064 415.975 82.5385 416.011 83.0218 416.047C83.5141 416.082 84.0064 416.109 84.4987 416.145C84.9999 416.172 85.5012 416.199 86.0203 416.216C87.0497 416.252 88.1149 416.27 89.198 416.27C89.9052 416.27 90.6391 416.261 91.3731 416.243C91.5879 416.243 91.785 416.243 91.9909 416.234L93.9332 416.19C99.1607 416.064 105.588 415.912 111.155 414.652C111.424 414.589 111.692 414.527 111.961 414.455C112.757 414.259 113.527 414.035 114.27 413.785C116.857 412.918 119.131 411.72 120.831 410.048C120.966 409.914 121.082 409.788 121.216 409.645C121.718 409.109 122.156 408.528 122.523 407.893C122.899 407.258 123.212 406.579 123.445 405.846C123.74 404.925 123.929 403.924 123.991 402.824C124.09 401.027 123.991 398.971 123.75 396.745C123.642 395.752 123.517 394.733 123.364 393.678C122.962 390.871 122.425 387.858 121.87 384.774C119.73 372.874 117.305 359.384 120.921 349.228C120.983 349.058 120.975 348.897 120.921 348.736C122.21 348.986 123.687 349.21 125.262 349.371C125.54 349.398 125.808 349.424 126.095 349.451C127.196 349.541 128.341 349.594 129.505 349.594C130.373 349.594 131.25 349.558 132.128 349.496C133.148 349.415 134.169 349.281 135.18 349.094C135.189 349.129 135.18 349.174 135.198 349.219C135.243 349.344 135.279 349.469 135.314 349.594C135.413 349.862 135.484 350.14 135.574 350.408C138.617 360.412 136.317 373.313 134.258 384.765C133.032 391.604 131.877 398.068 132.137 402.815C132.656 412.113 142.251 414.965 151.99 415.832C155.884 416.181 159.796 416.216 163.17 416.216C164.128 416.243 165.059 416.252 165.972 416.252C166.885 416.252 167.816 416.243 168.711 416.216C172.22 416.109 175.397 415.787 178.244 415.26C184.152 414.169 188.618 412.167 191.59 409.279C192.208 408.671 192.763 408.036 193.255 407.357C193.55 406.954 193.819 406.534 194.069 406.096C194.589 405.175 194.992 404.228 195.278 403.253C195.359 402.985 195.43 402.726 195.493 402.457C195.717 401.528 195.842 400.589 195.896 399.641V399.588C196.191 393.991 193.783 388.341 191.805 385.212C190.99 383.925 190.328 382.557 189.791 381.198C189.71 381.001 189.639 380.813 189.567 380.626C189.424 380.241 189.29 379.857 189.164 379.472C188.609 377.765 188.234 376.147 187.992 374.832C187.911 374.394 187.848 373.983 187.795 373.616C187.616 372.401 187.571 371.632 187.562 371.596C186.971 365.213 187.419 360.993 188.377 356.88C188.448 356.585 188.52 356.281 188.592 355.986C188.744 355.387 188.905 354.788 189.066 354.189C189.111 354.038 189.146 353.886 189.191 353.734C189.451 352.822 189.719 351.883 190.015 350.917C191.259 346.698 192.673 341.897 193.846 334.861C194.016 333.886 194.177 332.858 194.32 331.794C194.472 330.722 194.624 329.604 194.768 328.442C194.821 327.968 194.875 327.494 194.938 327.011C195.001 326.529 195.045 326.037 195.099 325.536C195.153 325.036 195.197 324.526 195.251 324.007C195.305 323.489 195.349 322.961 195.394 322.425C195.448 321.88 195.493 321.343 195.529 320.78C195.573 320.217 195.618 319.654 195.654 319.081C195.779 317.347 195.887 315.523 195.976 313.61C195.976 313.601 195.976 313.592 195.976 313.583V313.556C196.979 295.971 195.448 282.579 193.371 273.013C193.354 272.932 193.336 272.843 193.318 272.762C191.689 265.324 189.728 260.219 188.395 257.287C188.744 257.519 189.102 257.761 189.451 257.984C191.912 259.593 194.365 260.943 196.782 262.088C197.131 262.249 197.48 262.41 197.82 262.562C197.999 262.642 198.169 262.723 198.348 262.794C198.509 262.866 198.679 262.937 198.841 263.009C200.899 263.885 202.922 264.618 204.909 265.208C209.994 266.728 214.8 267.398 219.124 267.541C219.741 267.559 220.35 267.568 220.95 267.568C222.373 267.568 223.725 267.514 225.023 267.416C225.9 267.354 226.759 267.273 227.574 267.175C228.567 267.05 229.552 266.907 230.536 266.728C236.462 265.7 242.218 263.724 247.499 260.952C248.421 260.461 249.343 259.951 250.238 259.415C251.133 258.878 252.019 258.315 252.888 257.734C253.46 257.349 254.033 256.947 254.588 256.536C254.875 256.33 255.152 256.125 255.43 255.91C255.976 255.499 256.513 255.061 257.05 254.623C258.115 253.738 259.144 252.826 260.129 251.869C260.236 251.833 260.335 251.762 260.415 251.681C260.496 251.601 260.568 251.494 260.612 251.377C260.791 251.199 260.97 251.02 261.158 250.841C261.337 250.662 261.516 250.474 261.686 250.296C269.492 242.035 272.911 230.985 270.897 221.562L270.87 221.535ZM36.4132 186.919C34.4529 185.479 32.5731 183.986 30.7739 182.458C30.5233 182.243 30.2815 182.046 30.0399 181.832C29.8698 181.68 29.6999 181.537 29.5388 181.385C12.7912 166.633 3.10603 147.627 1.77231 126.76C1.77231 126.707 1.76335 126.653 1.76335 126.608C1.71859 125.929 1.69164 125.24 1.66479 124.552C1.66479 124.427 1.65582 124.311 1.64687 124.186C1.62897 123.381 1.61103 122.567 1.61103 121.763C1.61103 103.668 5.61223 87.5487 13.5161 73.8613C13.5429 73.8076 13.5699 73.754 13.5878 73.7003C13.8384 72.8957 19.8088 53.871 21.1783 37.7072C22.5389 21.6059 28.5629 10.8509 35.2136 5.66556C37.0844 4.20831 39 3.18915 40.8798 2.61698C41.3363 2.48288 41.7928 2.35769 42.2583 2.25041C43.9769 1.83916 45.7045 1.61569 47.459 1.61569C55.2733 1.61569 63.4187 5.78181 72.6026 14.3554C82.4846 23.5906 88.1059 26.0671 96.7348 24.9674C106.653 23.4834 117.179 22.7234 128.028 22.7234C138.877 22.7234 149.403 23.4744 159.339 24.9585C162.759 25.3876 165.703 25.2535 168.639 24.3506C169.418 24.1181 170.188 23.832 170.976 23.4923C171.71 23.1615 172.453 22.7771 173.205 22.348C176.248 20.6046 179.515 18.0119 183.454 14.3286C190.856 7.4089 197.587 3.36795 204.014 2.05375C205.062 1.83918 206.109 1.714 207.138 1.64248C208.087 1.5799 209.027 1.57989 209.958 1.63353C211.703 1.74081 213.449 2.04482 215.167 2.57229C223.716 5.16495 233.123 17.0286 234.878 37.6625C236.256 53.8889 242.227 72.851 242.477 73.6556C242.495 73.7092 242.522 73.7629 242.549 73.8166C250.462 87.504 254.463 103.623 254.472 121.718C254.472 147.287 242.119 170.433 219.679 186.892C211.202 193.105 201.589 198.246 190.99 202.269C190.874 202.278 190.749 202.305 190.641 202.367C190.606 202.385 190.588 202.421 190.561 202.439C177.591 207.311 163.17 210.521 147.595 211.969C147.586 211.969 147.577 211.951 147.568 211.951C147.291 211.826 146.978 211.871 146.745 212.05C140.676 212.586 134.446 212.863 128.046 212.863C121.1 212.863 114.333 212.541 107.781 211.915C107.727 211.898 107.673 211.898 107.62 211.898C91.7492 210.351 77.0872 206.972 63.9558 201.849C63.1592 201.536 62.3714 201.223 61.5837 200.901C61.4673 200.803 61.3241 200.749 61.1719 200.731C52.1134 196.967 43.8247 192.354 36.4042 186.919H36.4132ZM145.554 213.775C143.71 216.144 138.832 220.587 128.046 220.587C117.322 220.587 111.657 216.055 109.419 213.686C115.47 214.213 121.682 214.481 128.046 214.481C134.016 214.481 139.861 214.24 145.554 213.775ZM24.3381 315.353C22.4046 315.139 20.6503 314.71 19.0212 314.111C15.6018 312.841 12.8448 310.731 10.8307 307.763C10.6607 307.504 10.4995 307.236 10.3384 306.967C6.48045 300.611 6.17615 291.823 6.79378 284.805C6.82958 284.796 6.87444 284.787 6.90129 284.778C7.12507 284.724 7.39355 284.662 7.74265 284.59C13.5609 283.321 35.7329 279.593 50.0995 292.35C43.8695 313.02 35.7418 316.614 24.3381 315.353ZM48.0407 368.342C44.3707 367.483 41.5153 366.125 39.2865 364.614C38.3466 363.979 37.4962 363.308 36.7711 362.656C33.6024 359.75 31.8481 356.362 31.0515 353.215C30.5144 351.114 30.407 349.12 30.6039 347.449C30.6845 346.742 30.8187 346.045 30.9887 345.357C32.0271 341.289 34.6677 337.686 38.4361 334.834C41.6496 332.393 45.6955 330.498 50.2695 329.363C53.4024 328.585 56.777 328.147 60.3216 328.129C61.6285 339.045 63.5173 345.455 65.1195 350.891C66.7934 356.577 68.0645 360.895 67.8049 368.091C59.4714 369.728 53.0175 369.495 48.0317 368.333L48.0407 368.342ZM188.457 350.426C186.479 357.149 185.047 362.003 185.942 371.685C185.96 372.016 186.479 379.812 190.427 386.043C193.004 390.102 196.37 398.721 192.655 405.256C188.985 411.702 179.417 414.831 164.253 414.562C164.227 414.562 164.209 414.554 164.182 414.554C160.7 414.554 156.475 414.554 152.295 414.187C150.307 414.017 148.338 413.758 146.458 413.382C145.125 413.114 143.845 412.783 142.636 412.381C137.695 410.727 134.052 407.822 133.766 402.699C133.506 398.148 134.661 391.774 135.869 385.033C137.928 373.554 140.237 360.635 137.266 350.327C137.185 350.059 137.095 349.791 137.006 349.523C136.925 349.263 136.854 348.986 136.756 348.727C136.764 348.727 136.773 348.727 136.791 348.727C138.053 348.396 139.28 347.958 140.434 347.395C140.837 347.198 141.007 346.707 140.81 346.304C140.613 345.902 140.121 345.741 139.718 345.938C135.323 348.101 129.809 348.2 125.217 347.708C125.164 347.708 125.101 347.699 125.047 347.69C120.106 347.145 116.284 345.92 116.204 345.902C115.774 345.759 115.326 346 115.174 346.42C115.04 346.85 115.273 347.297 115.693 347.449C115.872 347.502 117.332 347.967 119.525 348.45C119.471 348.512 119.417 348.593 119.39 348.682C115.64 359.241 118.101 372.955 120.276 385.06C121.485 391.81 122.631 398.175 122.38 402.726C121.762 413.901 104.997 414.285 93.8974 414.545L91.9461 414.598C86.5217 414.75 81.8133 414.464 77.7853 413.776C75.0284 413.302 72.6027 412.64 70.5081 411.773C68.6015 410.995 66.9723 410.048 65.6296 408.939C64.3317 407.875 63.2754 406.668 62.4967 405.3C58.782 398.774 62.1476 390.156 64.7255 386.097C68.673 379.857 69.1921 372.061 69.2011 371.766C69.2279 371.498 69.2459 371.238 69.2638 370.979C69.2817 370.693 69.3086 370.416 69.3265 370.139C69.3444 369.853 69.3624 369.584 69.3713 369.307C69.8278 361.19 68.4852 356.603 66.677 350.479C65.0658 345.017 63.1681 338.58 61.8791 327.476C61.8791 327.458 61.8881 327.423 61.897 327.405C61.897 327.387 61.897 327.378 61.906 327.36C61.906 327.235 61.8701 327.119 61.8254 327.02C61.8075 326.886 61.7987 326.734 61.7808 326.6C61.7539 326.332 61.718 326.073 61.6912 325.795C61.3152 322.219 60.993 318.178 60.7602 313.556C60.7065 312.501 60.6708 311.464 60.635 310.436C60.8856 310.508 61.2167 310.588 61.6016 310.687C61.8433 310.749 62.1209 310.812 62.4163 310.892C62.6759 310.955 62.9443 311.026 63.2397 311.098C65.8355 311.733 69.8635 312.653 75.0552 313.646C75.1626 314.879 75.4043 317.132 75.7176 317.821C75.7802 317.973 75.9325 318.062 76.0936 318.062C76.1474 318.062 76.201 318.053 76.2547 318.026C76.4606 317.928 76.5501 317.696 76.4695 317.49C76.2547 317.007 76.0398 315.273 75.9055 313.798C88.9204 316.256 108.783 319.081 131.412 319.081C144.767 319.081 159.08 318.08 173.509 315.452C173.383 316.641 173.169 318.661 172.99 319.743C172.954 319.966 173.106 320.172 173.33 320.217C173.348 320.217 173.375 320.217 173.392 320.217C173.589 320.217 173.759 320.074 173.795 319.877C173.992 318.679 174.225 316.444 174.341 315.3C181.073 314.048 187.822 312.43 194.508 310.392C194.463 311.429 194.419 312.484 194.356 313.556C194.356 313.574 194.356 313.592 194.356 313.61C193.362 333.824 190.641 343.041 188.457 350.453V350.426ZM227.377 265.53C224.96 265.816 222.257 265.977 219.312 265.887C217.414 265.834 215.418 265.673 213.35 265.378C211.256 265.083 209.09 264.654 206.852 264.046C204.014 263.286 201.069 262.249 198.071 260.872C197.713 260.711 197.364 260.541 197.005 260.371C196.638 260.192 196.272 260.014 195.905 259.826C192.852 258.27 189.746 256.357 186.64 254.006C186.587 253.97 186.515 253.943 186.461 253.925C186.425 253.907 186.39 253.89 186.354 253.872C186.327 253.872 186.291 253.872 186.264 253.872C186.193 253.863 186.112 253.854 186.04 253.863C186.022 253.863 186.005 253.881 185.987 253.881C185.906 253.899 185.817 253.925 185.745 253.97H185.736C185.736 253.97 185.673 254.033 185.647 254.059C185.602 254.095 185.548 254.122 185.512 254.176C185.512 254.176 185.512 254.176 185.512 254.185C185.477 254.238 185.459 254.292 185.432 254.346C185.414 254.39 185.378 254.426 185.369 254.471C185.369 254.506 185.369 254.551 185.369 254.587C185.369 254.65 185.351 254.712 185.369 254.784C185.369 254.81 185.387 254.837 185.396 254.873C185.414 254.945 185.432 255.016 185.477 255.079V255.088C185.503 255.132 188.305 259.763 190.784 269.231C192.897 277.277 195.162 290.446 194.58 308.666C138.205 326.082 76.9976 312.796 63.2218 309.381C62.9264 309.31 62.649 309.247 62.3984 309.176C62.0851 309.095 61.8164 309.024 61.5747 308.961C61.154 308.854 60.823 308.764 60.626 308.711C60.1606 288.426 63.2845 273.54 65.9519 264.654C66.2473 263.661 66.5427 262.749 66.8202 261.909C67.1245 260.988 67.4199 260.166 67.6884 259.433C68.7446 256.59 69.5055 255.097 69.5324 255.043C69.7025 254.712 69.6309 254.31 69.3534 254.059C69.0759 253.809 68.6641 253.782 68.3597 253.997C67.9211 254.292 57.52 261.489 52.3283 283.955C51.7823 286.351 51.2093 288.569 50.6185 290.634C36.0998 278.332 14.6081 281.506 7.93955 282.883C7.62626 282.945 7.34882 283.008 7.09819 283.061C7.06239 283.061 7.01753 283.079 6.99067 283.079C7.6262 277.474 8.73614 273.37 8.77194 273.263C19.4327 228.866 56.9472 204.987 61.1184 202.448C61.19 202.475 61.2616 202.501 61.3332 202.537C61.6465 202.662 61.9507 202.779 62.264 202.904C75.7265 208.295 90.7913 211.853 107.127 213.462C108.345 215.17 114.207 222.215 128.055 222.215C141.464 222.215 146.441 215.608 147.649 213.587C163.233 212.148 177.68 208.965 190.713 204.12C192.512 207.043 200.505 218.799 213.798 220.346C217.262 220.748 220.091 220.391 222.561 219.586C223.197 219.381 223.805 219.13 224.396 218.862C224.987 218.603 225.569 218.317 226.124 218.004C226.258 217.923 226.41 217.852 226.553 217.771C226.553 217.825 226.571 217.896 226.58 217.95C226.616 218.174 226.652 218.442 226.706 218.755C226.741 218.996 226.795 219.273 226.858 219.559C228.2 226.452 234.126 246.353 258.061 251.512C249.835 259.093 238.843 264.153 227.386 265.503L227.377 265.53ZM260.478 249.151C260.147 249.491 259.816 249.831 259.476 250.17C235.648 245.593 229.785 226.05 228.469 219.336C228.415 219.041 228.361 218.773 228.317 218.531C228.263 218.218 228.218 217.941 228.191 217.727C228.138 217.324 228.111 217.092 228.111 217.065C228.111 216.994 228.075 216.922 228.048 216.85C229.427 215.939 230.742 214.928 232.076 213.9C236.176 210.735 240.401 207.481 247.239 206.757C248.009 206.677 248.815 206.632 249.656 206.614C249.826 206.614 249.987 206.605 250.157 206.605C250.328 206.605 250.515 206.605 250.694 206.605C251.187 206.605 251.679 206.641 252.163 206.677C259.52 207.267 265.267 211.308 268.06 217.932C272.106 227.525 269.062 240.068 260.487 249.151H260.478Z" fill="#2F2F2F"/>
<path d="M258.052 251.529C249.826 259.111 238.834 264.171 227.377 265.521C224.96 265.807 222.257 265.968 219.312 265.878C217.414 265.825 215.418 265.664 213.35 265.369C211.256 265.074 209.09 264.645 206.852 264.037C204.014 263.277 201.07 262.24 198.071 260.863C197.713 260.702 197.364 260.532 197.006 260.362C196.639 260.184 196.272 260.005 195.905 259.817C192.852 258.261 189.746 256.348 186.64 253.997C186.587 253.961 186.515 253.934 186.461 253.916C186.425 253.899 186.39 253.881 186.354 253.863C186.327 253.863 186.291 253.863 186.264 253.863C186.193 253.854 186.112 253.845 186.04 253.854C186.023 253.854 186.005 253.872 185.987 253.872C185.906 253.89 185.817 253.917 185.745 253.961H185.736C185.736 253.961 185.673 254.024 185.647 254.051C185.602 254.086 185.548 254.113 185.512 254.167C185.512 254.167 185.512 254.167 185.512 254.176C185.477 254.229 185.459 254.283 185.432 254.337C185.414 254.381 185.378 254.417 185.369 254.462C185.369 254.498 185.369 254.542 185.369 254.578C185.369 254.641 185.351 254.703 185.369 254.775C185.369 254.802 185.387 254.828 185.396 254.864C185.414 254.936 185.432 255.007 185.477 255.07V255.079C185.503 255.123 188.305 259.754 190.785 269.222C192.897 277.268 195.162 290.437 194.58 308.657C138.206 326.073 76.9977 312.788 63.2218 309.372C62.9265 309.301 62.649 309.238 62.3984 309.167C62.0851 309.086 61.8164 309.015 61.5748 308.952C61.1541 308.845 60.823 308.756 60.6261 308.702C60.1606 288.417 63.2845 273.531 65.952 264.645C66.2474 263.652 66.5427 262.74 66.8202 261.9C67.1246 260.979 67.4199 260.157 67.6885 259.424C68.7447 256.581 69.5056 255.088 69.5324 255.034C69.7025 254.703 69.631 254.301 69.3535 254.051C69.076 253.8 68.6641 253.773 68.3598 253.988C67.9212 254.283 57.52 261.48 52.3284 283.947C51.7824 286.343 51.2093 288.56 50.6186 290.625C36.0998 278.323 14.6082 281.497 7.9396 282.874C7.62631 282.936 7.34887 282.999 7.09824 283.053C7.06244 283.053 7.01758 283.07 6.99072 283.07C7.62625 277.465 8.73619 273.361 8.77199 273.254C19.4328 228.857 56.9472 204.978 61.1185 202.439C61.1901 202.466 61.2617 202.493 61.3333 202.528C61.6466 202.654 61.9507 202.77 62.264 202.895C75.7265 208.286 90.7914 211.844 107.127 213.453C108.345 215.161 114.207 222.206 128.055 222.206C141.464 222.206 146.441 215.599 147.649 213.578C163.233 212.139 177.68 208.956 190.713 204.111C192.512 207.034 200.505 218.791 213.798 220.337C217.262 220.739 220.091 220.382 222.561 219.577C223.197 219.372 223.805 219.121 224.396 218.853C224.987 218.594 225.569 218.308 226.124 217.995C226.258 217.914 226.41 217.843 226.553 217.762C226.553 217.816 226.571 217.888 226.58 217.941C226.616 218.165 226.652 218.433 226.706 218.746C226.741 218.987 226.795 219.264 226.858 219.55C228.2 226.443 234.126 246.344 258.061 251.503L258.052 251.529Z" fill="#695EA6"/>
<path d="M127.921 183.307C133.265 183.307 136.156 180.392 136.272 180.267C136.586 179.945 136.577 179.427 136.254 179.114C135.932 178.801 135.413 178.81 135.1 179.132C135.073 179.159 132.575 181.68 127.912 181.68C123.338 181.68 121.1 179.284 120.993 179.168C120.697 178.828 120.178 178.801 119.847 179.096C119.507 179.391 119.48 179.91 119.775 180.24C119.883 180.366 122.55 183.307 127.912 183.307H127.921Z" fill="#2F2F2F"/>
<path d="M47.4767 20.9801C47.4767 20.9801 47.5574 20.998 47.6022 20.998C47.7722 20.998 47.9333 20.8907 47.987 20.7119C48.6315 18.6915 48.6404 16.3581 48.6404 16.2597C48.6404 16.0362 48.4615 15.8574 48.2377 15.8574C48.0139 15.8574 47.8349 16.0362 47.8349 16.2597C47.8349 16.2866 47.835 18.5752 47.2263 20.4705C47.1547 20.6851 47.2798 20.9086 47.4947 20.9801H47.4767Z" fill="#2F2F2F"/>
<path d="M36.3505 31.0827C36.3505 31.0827 36.4312 31.1006 36.4759 31.1006C36.646 31.1006 36.807 30.9933 36.8607 30.8145C37.5052 28.794 37.5142 26.4606 37.5142 26.3623C37.5142 26.1388 37.3352 25.96 37.1114 25.96C36.8876 25.96 36.7086 26.1388 36.7086 26.3623C36.7086 26.3891 36.7085 28.6778 36.0998 30.5731C36.0282 30.7876 36.1536 31.0111 36.3684 31.0827H36.3505Z" fill="#2F2F2F"/>
<path d="M31.8033 53.576C31.8033 53.576 31.8838 53.5938 31.9286 53.5938C32.0986 53.5938 32.2597 53.4866 32.3134 53.3078C32.9579 51.2873 32.9668 48.9449 32.9668 48.8466C32.9668 48.6231 32.7878 48.4443 32.5641 48.4443C32.3403 48.4443 32.1613 48.6231 32.1613 48.8466C32.1613 48.8734 32.1614 51.1621 31.5437 53.0574C31.4721 53.272 31.5975 53.5045 31.8033 53.567V53.576Z" fill="#2F2F2F"/>
<path d="M23.3892 75.5421C23.1655 75.4884 22.9506 75.6314 22.9058 75.846C22.9058 75.8639 22.3867 78.0989 21.3752 79.8155C21.2589 80.0121 21.3304 80.2625 21.5184 80.3697C21.581 80.4055 21.6528 80.4234 21.7244 80.4234C21.8677 80.4234 22.0018 80.3519 22.0734 80.2267C23.1476 78.4029 23.6758 76.1232 23.7026 76.0248C23.7563 75.8103 23.613 75.5868 23.3982 75.5421H23.3892Z" fill="#2F2F2F"/>
<path d="M36.0192 69.2661C36.0908 69.3108 36.1624 69.3287 36.243 69.3287C36.3773 69.3287 36.5114 69.2661 36.583 69.141C37.7288 67.3619 38.3464 65.1 38.3733 65.0106C38.4359 64.796 38.3016 64.5725 38.0868 64.5099C37.8719 64.4563 37.6483 64.5815 37.5857 64.796C37.5857 64.8139 36.9769 67.0221 35.8938 68.7029C35.7685 68.8906 35.8312 69.141 36.0192 69.2661Z" fill="#2F2F2F"/>
<path d="M30.9168 89.2744C30.7109 89.176 30.4694 89.2565 30.3709 89.4532C30.3172 89.5515 29.1357 91.9475 28.6434 94.9872C28.6076 95.2107 28.7597 95.4163 28.9834 95.452C29.0013 95.452 29.0283 95.452 29.0462 95.452C29.2431 95.452 29.4131 95.309 29.4489 95.1123C29.9144 92.2067 31.0871 89.8376 31.096 89.8108C31.1945 89.6141 31.1137 89.3638 30.9168 89.2654V89.2744Z" fill="#2F2F2F"/>
<path d="M14.9482 98.9832C14.7334 98.9206 14.5095 99.0368 14.4379 99.2514C14.4111 99.3497 13.6951 101.647 13.4534 105.268C13.4355 105.492 13.6055 105.688 13.8293 105.697C13.8383 105.697 13.8472 105.697 13.8562 105.697C14.071 105.697 14.25 105.536 14.259 105.322C14.4917 101.808 15.1989 99.5196 15.2078 99.4928C15.2705 99.2782 15.1541 99.0547 14.9393 98.9832H14.9482Z" fill="#2F2F2F"/>
<path d="M13.4267 125.258C13.4088 125.035 13.2029 124.874 12.9881 124.891C12.7643 124.909 12.6031 125.106 12.621 125.33C12.6299 125.437 12.8716 128.012 13.4803 130.193C13.534 130.372 13.6953 130.488 13.8743 130.488C13.9101 130.488 13.9458 130.488 13.9816 130.47C14.1964 130.408 14.3218 130.184 14.2681 129.97C13.6862 127.869 13.4357 125.276 13.4357 125.249L13.4267 125.258Z" fill="#2F2F2F"/>
<path d="M25.2599 119.68C25.4836 119.68 25.6626 119.492 25.6626 119.269C25.6447 117.507 26.0027 114.378 26.0116 114.342C26.0385 114.119 25.8774 113.922 25.6537 113.895C25.4299 113.878 25.233 114.03 25.2061 114.253C25.1882 114.387 24.8392 117.463 24.8571 119.277C24.8571 119.501 25.045 119.68 25.2599 119.68Z" fill="#2F2F2F"/>
<path d="M25.4389 140.108C25.3762 139.893 25.1613 139.768 24.9376 139.822C24.7227 139.885 24.5974 140.108 24.6511 140.323C24.6958 140.475 25.6985 144.069 26.5667 145.427C26.6473 145.553 26.7725 145.615 26.9068 145.615C26.9784 145.615 27.0589 145.597 27.1216 145.553C27.3096 145.436 27.3634 145.177 27.247 144.989C26.4414 143.729 25.4389 140.144 25.4299 140.108H25.4389Z" fill="#2F2F2F"/>
<path d="M18.5107 150.89C18.448 150.676 18.2331 150.551 18.0093 150.604C17.7945 150.667 17.6691 150.89 17.7228 151.105C17.7587 151.221 18.5555 154.055 20.113 155.638C20.1935 155.718 20.3008 155.763 20.3992 155.763C20.4977 155.763 20.6052 155.727 20.6857 155.646C20.8469 155.486 20.8469 155.235 20.6857 155.074C19.2714 153.644 18.5017 150.926 18.4927 150.899L18.5107 150.89Z" fill="#2F2F2F"/>
<path d="M34.99 159.768C34.8557 159.589 34.5962 159.553 34.4172 159.687C34.2382 159.821 34.2023 160.08 34.3366 160.259C34.435 160.384 36.6729 163.317 37.7829 164.184C37.8545 164.238 37.944 164.273 38.0335 164.273C38.1499 164.273 38.2751 164.22 38.3556 164.113C38.4899 163.934 38.4632 163.683 38.2842 163.54C37.2548 162.736 35.0079 159.794 34.981 159.768H34.99Z" fill="#2F2F2F"/>
<path d="M32.5462 172.337C32.385 172.176 32.1345 172.176 31.9734 172.337C31.8123 172.498 31.8123 172.757 31.9734 172.909C32.0539 172.99 33.88 174.796 35.3301 175.842C35.4017 175.895 35.4822 175.922 35.5718 175.922C35.6971 175.922 35.8223 175.859 35.9028 175.752C36.0371 175.573 35.9925 175.314 35.8135 175.189C34.4081 174.179 32.573 172.355 32.5551 172.337H32.5462Z" fill="#2F2F2F"/>
<path d="M52.7757 186.087C50.8333 185.283 48.3538 182.762 48.3359 182.744C48.1838 182.583 47.9241 182.583 47.7629 182.744C47.6018 182.896 47.6018 183.155 47.7629 183.316C47.8703 183.423 50.3767 185.98 52.4802 186.847C52.5339 186.865 52.5875 186.874 52.6323 186.874C52.7934 186.874 52.9457 186.776 53.0084 186.624C53.0979 186.418 52.9905 186.177 52.7846 186.096L52.7757 186.087Z" fill="#2F2F2F"/>
<path d="M69.022 191.353C67.7599 191.005 64.6808 189.36 64.645 189.342C64.448 189.235 64.1973 189.306 64.0899 189.503C63.9825 189.699 64.0542 189.95 64.2512 190.057C64.3765 190.129 67.4376 191.765 68.7982 192.14C68.834 192.149 68.8699 192.158 68.9057 192.158C69.0847 192.158 69.2458 192.042 69.2995 191.863C69.3622 191.648 69.2279 191.425 69.013 191.362L69.022 191.353Z" fill="#2F2F2F"/>
<path d="M84.203 201.965C82.5829 201.733 79.1546 200.32 79.1188 200.311C78.9129 200.222 78.6712 200.329 78.5906 200.535C78.5011 200.74 78.5996 200.982 78.8144 201.062C78.9576 201.125 82.3771 202.528 84.0957 202.77C84.1136 202.77 84.1316 202.77 84.1495 202.77C84.3464 202.77 84.5254 202.627 84.5522 202.421C84.588 202.197 84.4268 201.992 84.203 201.965Z" fill="#2F2F2F"/>
<path d="M92.6085 197.245C89.6278 197.245 88.3119 196.315 88.294 196.297C88.115 196.163 87.8645 196.199 87.7302 196.377C87.5959 196.556 87.6316 196.815 87.8106 196.95C87.8733 196.994 89.3145 198.067 92.6175 198.067C92.8413 198.067 93.0203 197.888 93.0203 197.665C93.0203 197.441 92.8413 197.262 92.6175 197.262L92.6085 197.245Z" fill="#2F2F2F"/>
<path d="M107.548 201.107C105.677 201.205 103.207 200.302 103.18 200.293C102.965 200.213 102.732 200.329 102.66 200.535C102.58 200.749 102.696 200.982 102.902 201.053C103.001 201.089 105.319 201.929 107.306 201.92C107.405 201.92 107.494 201.92 107.584 201.92C107.807 201.911 107.986 201.724 107.968 201.5C107.96 201.277 107.789 201.116 107.548 201.116V201.107Z" fill="#2F2F2F"/>
<path d="M127.697 205.094C124.546 205.702 122.147 205.103 122.12 205.094C121.897 205.04 121.682 205.165 121.628 205.389C121.574 205.612 121.7 205.827 121.924 205.881C121.995 205.899 123.105 206.176 124.815 206.176C125.692 206.176 126.721 206.104 127.849 205.89C128.073 205.845 128.216 205.63 128.171 205.416C128.127 205.192 127.912 205.049 127.697 205.094Z" fill="#2F2F2F"/>
<path d="M148.043 199.775C145.778 200.383 142.233 200.266 142.198 200.266C141.992 200.266 141.786 200.436 141.777 200.66C141.777 200.883 141.947 201.071 142.171 201.08C142.215 201.08 142.511 201.089 142.976 201.089C144.194 201.089 146.53 201.017 148.257 200.553C148.472 200.499 148.607 200.275 148.544 200.052C148.49 199.837 148.257 199.712 148.043 199.766V199.775Z" fill="#2F2F2F"/>
<path d="M164.101 202.216C161.362 203.208 158.641 203.369 158.614 203.369C158.39 203.378 158.22 203.575 158.229 203.798C158.238 204.013 158.417 204.183 158.632 204.183H158.65C158.766 204.183 161.514 204.013 164.37 202.985C164.585 202.904 164.692 202.672 164.611 202.466C164.531 202.252 164.298 202.153 164.092 202.225L164.101 202.216Z" fill="#2F2F2F"/>
<path d="M178.316 193.141C175.469 194.554 172.819 194.965 172.793 194.965C172.569 195.001 172.417 195.206 172.452 195.43C172.479 195.635 172.658 195.779 172.855 195.779C172.873 195.779 172.9 195.779 172.918 195.779C173.034 195.761 175.72 195.349 178.682 193.874C178.879 193.776 178.969 193.535 178.861 193.329C178.763 193.123 178.512 193.043 178.316 193.15V193.141Z" fill="#2F2F2F"/>
<path d="M200.291 184.532C197.704 186.374 195.144 187.187 195.126 187.196C194.911 187.268 194.795 187.491 194.857 187.706C194.911 187.875 195.072 187.992 195.242 187.992C195.287 187.992 195.323 187.992 195.368 187.974C195.475 187.938 198.071 187.116 200.765 185.202C200.944 185.077 200.989 184.818 200.863 184.639C200.729 184.46 200.479 184.416 200.3 184.541L200.291 184.532Z" fill="#2F2F2F"/>
<path d="M194.114 193.633C192.387 194.661 189.299 195.662 189.272 195.671C189.057 195.743 188.941 195.966 189.012 196.181C189.066 196.351 189.227 196.458 189.397 196.458C189.442 196.458 189.478 196.458 189.523 196.44C189.648 196.395 192.727 195.394 194.535 194.321C194.732 194.205 194.795 193.955 194.678 193.767C194.562 193.57 194.311 193.507 194.123 193.624L194.114 193.633Z" fill="#2F2F2F"/>
<path d="M216.098 174.957C213.816 177.416 210.754 179.32 210.728 179.347C210.54 179.463 210.477 179.713 210.593 179.91C210.674 180.035 210.799 180.098 210.942 180.098C211.014 180.098 211.086 180.08 211.157 180.035C211.283 179.955 214.335 178.05 216.698 175.511C216.85 175.35 216.841 175.091 216.68 174.939C216.519 174.787 216.259 174.796 216.107 174.957H216.098Z" fill="#2F2F2F"/>
<path d="M223.546 160.715C223.34 160.634 223.098 160.733 223.017 160.947C222.221 163.004 220.627 164.738 220.619 164.747C220.466 164.908 220.475 165.167 220.636 165.319C220.717 165.391 220.815 165.426 220.914 165.426C221.021 165.426 221.129 165.382 221.209 165.292C221.281 165.221 222.919 163.433 223.778 161.233C223.859 161.028 223.751 160.786 223.546 160.706V160.715Z" fill="#2F2F2F"/>
<path d="M231.968 165.337C231.763 165.248 231.521 165.337 231.431 165.552C230.617 167.465 228.308 169.521 228.281 169.539C228.111 169.691 228.093 169.941 228.245 170.111C228.325 170.201 228.433 170.245 228.549 170.245C228.648 170.245 228.737 170.21 228.818 170.147C228.916 170.058 231.288 167.957 232.174 165.874C232.264 165.668 232.174 165.427 231.96 165.337H231.968Z" fill="#2F2F2F"/>
<path d="M237.303 145.07C237.079 145.025 236.865 145.159 236.82 145.383C236.122 148.521 234.251 151.355 234.224 151.381C234.099 151.569 234.152 151.819 234.34 151.945C234.412 151.989 234.493 152.016 234.564 152.016C234.698 152.016 234.824 151.954 234.904 151.837C234.985 151.721 236.883 148.851 237.617 145.561C237.661 145.347 237.527 145.123 237.303 145.079V145.07Z" fill="#2F2F2F"/>
<path d="M231.566 139.071C231.566 139.071 231.637 139.089 231.682 139.089C231.861 139.089 232.023 138.973 232.076 138.794C232.112 138.669 232.953 135.701 232.542 132.384C232.515 132.16 232.3 131.999 232.085 132.035C231.861 132.062 231.7 132.268 231.736 132.491C232.13 135.638 231.306 138.553 231.297 138.579C231.235 138.794 231.36 139.018 231.575 139.08L231.566 139.071Z" fill="#2F2F2F"/>
<path d="M244.885 128.057C244.885 128.057 244.912 128.057 244.93 128.057C245.136 128.057 245.315 127.905 245.332 127.69C245.691 124.078 245.341 121.217 245.332 121.101C245.306 120.878 245.091 120.717 244.876 120.753C244.652 120.779 244.491 120.985 244.527 121.208C244.527 121.235 244.876 124.096 244.527 127.619C244.509 127.842 244.67 128.039 244.894 128.066L244.885 128.057Z" fill="#2F2F2F"/>
<path d="M236.417 107.324C236.417 107.324 237.465 111.526 237.563 115.021C237.563 115.245 237.751 115.415 237.966 115.415H237.975C238.199 115.415 238.378 115.218 238.369 114.995C238.261 111.41 237.241 107.297 237.196 107.118C237.142 106.904 236.919 106.77 236.704 106.823C236.489 106.877 236.355 107.1 236.408 107.315L236.417 107.324Z" fill="#2F2F2F"/>
<path d="M228.559 95.7649C228.559 95.7649 228.621 95.7649 228.657 95.7559C228.872 95.7023 229.006 95.4788 228.953 95.2642C228.621 93.959 226.16 90.1862 226.061 90.0253C225.936 89.8375 225.685 89.7839 225.497 89.9091C225.309 90.0343 225.255 90.2845 225.381 90.4723C226.07 91.5272 227.923 94.4954 228.165 95.4699C228.209 95.6576 228.379 95.7738 228.559 95.7738V95.7649Z" fill="#2F2F2F"/>
<path d="M236.042 85.841C236.087 86.0287 236.248 86.1628 236.436 86.1628C236.462 86.1628 236.489 86.1628 236.525 86.1539C236.74 86.1092 236.883 85.8857 236.838 85.6711C236.525 84.2496 234.413 80.0924 234.323 79.9136C234.225 79.7169 233.974 79.6365 233.777 79.7349C233.58 79.8332 233.5 80.0835 233.598 80.2802C233.616 80.3249 235.746 84.5178 236.042 85.841Z" fill="#2F2F2F"/>
<path d="M228.201 67.7731C228.272 67.9073 228.415 67.9877 228.558 67.9877C228.621 67.9877 228.693 67.9698 228.755 67.9341C228.952 67.8268 229.024 67.5765 228.917 67.3798C228.03 65.7705 226.885 59.6197 226.876 59.5571C226.831 59.3336 226.625 59.1995 226.401 59.2352C226.178 59.2799 226.034 59.4856 226.079 59.7091C226.124 59.9684 227.261 66.0566 228.209 67.7731H228.201Z" fill="#2F2F2F"/>
<path d="M218.399 75.694C218.399 75.694 218.461 75.694 218.497 75.6851C218.712 75.6314 218.846 75.4079 218.793 75.1934C218.193 72.7885 216.984 68.2021 216.984 68.2021L216.197 68.4078C216.197 68.4078 217.405 72.9762 218.005 75.3811C218.049 75.5689 218.22 75.6851 218.399 75.6851V75.694Z" fill="#2F2F2F"/>
<path d="M206.941 70.3567C206.941 70.3567 207.022 70.3568 207.057 70.3389C207.272 70.2763 207.398 70.0438 207.326 69.8293C207.326 69.8025 206.431 66.8522 206.476 64.3936C206.476 64.1701 206.297 63.9824 206.073 63.9824C205.84 63.9824 205.661 64.1612 205.661 64.3847C205.625 66.9684 206.512 69.9455 206.547 70.0707C206.601 70.2495 206.762 70.3567 206.932 70.3567H206.941Z" fill="#2F2F2F"/>
<path d="M225.712 42.9462C225.712 42.9462 225.775 42.9462 225.811 42.9373C226.025 42.8836 226.159 42.6601 226.106 42.4456C225.721 40.9258 225.309 36.6523 225.309 36.6076C225.291 36.3841 225.094 36.2322 224.862 36.2411C224.638 36.259 224.477 36.4646 224.495 36.6881C224.512 36.8669 224.915 41.0688 225.318 42.6512C225.363 42.8389 225.533 42.9552 225.712 42.9552V42.9462Z" fill="#2F2F2F"/>
<path d="M217.486 30.7879C217.486 30.7879 217.504 30.7879 217.522 30.7879C217.745 30.77 217.915 30.5733 217.897 30.3498C217.718 28.1147 217.897 22.9831 217.897 22.9294C217.897 22.7059 217.727 22.5182 217.504 22.5093C217.28 22.5272 217.092 22.6791 217.083 22.9026C217.083 23.1172 216.904 28.1326 217.083 30.4124C217.101 30.6269 217.28 30.7879 217.486 30.7879Z" fill="#2F2F2F"/>
<path d="M213.216 52.3512C213.216 52.3512 213.27 52.3512 213.288 52.3512C213.512 52.3065 213.655 52.1009 213.61 51.8774C213.019 48.7036 212.652 44.6001 212.652 44.5554C212.634 44.3319 212.437 44.171 212.213 44.1889C211.99 44.2067 211.829 44.4034 211.847 44.6269C211.847 44.6716 212.214 48.8109 212.822 52.0205C212.858 52.2171 213.028 52.3512 213.225 52.3512H213.216Z" fill="#2F2F2F"/>
<path d="M208.15 20.6764C208.266 20.6764 208.383 20.6227 208.463 20.5333C209.698 19.0492 211.122 15.2765 211.184 15.1156C211.265 14.901 211.158 14.6685 210.943 14.597C210.737 14.5166 210.495 14.6239 210.423 14.8384C210.406 14.8742 208.991 18.6469 207.837 20.0148C207.693 20.1846 207.72 20.4439 207.89 20.587C207.971 20.6495 208.06 20.6853 208.15 20.6853V20.6764Z" fill="#2F2F2F"/>
<path d="M198.831 52.5748C198.831 52.5748 197.981 56.9376 197.623 58.958C197.587 59.1815 197.73 59.3872 197.954 59.4319C197.981 59.4319 197.999 59.4319 198.026 59.4319C198.223 59.4319 198.393 59.2889 198.429 59.0922C198.787 57.0717 199.619 52.7625 199.628 52.7178C199.673 52.4943 199.53 52.2798 199.306 52.244C199.091 52.1993 198.876 52.3423 198.831 52.5658V52.5748Z" fill="#2F2F2F"/>
<path d="M198.357 38.2705C198.438 38.342 198.536 38.3778 198.635 38.3778C198.742 38.3778 198.85 38.333 198.93 38.2436C200.416 36.6344 201.499 33.2997 201.544 33.1567C201.616 32.9421 201.499 32.7097 201.284 32.6471C201.07 32.5756 200.837 32.6918 200.774 32.9064C200.765 32.9421 199.7 36.2053 198.33 37.6893C198.178 37.8503 198.187 38.1095 198.357 38.2615V38.2705Z" fill="#2F2F2F"/>
<path d="M195.377 19.4336C195.511 19.4336 195.636 19.371 195.717 19.2548C196.755 17.7081 199.476 15.3032 199.503 15.2853C199.673 15.1333 199.691 14.883 199.539 14.7131C199.387 14.5433 199.136 14.5254 198.966 14.6774C198.85 14.7757 196.146 17.1717 195.045 18.8077C194.92 18.9955 194.965 19.2458 195.153 19.371C195.224 19.4157 195.305 19.4425 195.377 19.4425V19.4336Z" fill="#2F2F2F"/>
<path d="M188.385 35.9102C188.511 35.9102 188.627 35.8566 188.708 35.7493C189.316 34.9536 191.876 30.7786 191.984 30.5998C192.1 30.412 192.037 30.1617 191.849 30.0455C191.661 29.9293 191.411 29.9918 191.295 30.1795C191.268 30.2242 188.645 34.5066 188.063 35.2576C187.929 35.4364 187.956 35.6867 188.135 35.8297C188.206 35.8834 188.296 35.9102 188.385 35.9102Z" fill="#2F2F2F"/>
<path d="M175.066 34.1668C175.138 34.1668 175.219 34.149 175.281 34.1043C176.499 33.3443 178.853 30.0454 178.951 29.9024C179.086 29.7146 179.041 29.4643 178.853 29.3392C178.674 29.214 178.414 29.2498 178.289 29.4375C177.635 30.3583 175.738 32.8616 174.852 33.4248C174.664 33.541 174.601 33.7913 174.726 33.988C174.807 34.1132 174.932 34.1758 175.075 34.1758L175.066 34.1668Z" fill="#2F2F2F"/>
<path d="M180.437 52.342C180.437 52.342 180.518 52.3599 180.554 52.3599C180.733 52.3599 180.894 52.2437 180.947 52.0649C181.108 51.5195 182.469 49.5973 183.293 48.5156C183.427 48.3368 183.391 48.0776 183.212 47.9435C183.033 47.8093 182.782 47.8451 182.639 48.0239C182.415 48.3189 180.419 50.9652 180.16 51.8324C180.097 52.047 180.222 52.2705 180.437 52.3331V52.342Z" fill="#2F2F2F"/>
<path d="M49.1865 44.5551C49.1597 44.7787 49.3118 44.9843 49.5355 45.0111C49.5534 45.0111 49.5714 45.0111 49.5893 45.0111C49.7862 45.0111 49.9652 44.8591 49.9921 44.6535C50.2606 42.5615 50.001 38.145 49.9921 37.9573C49.9742 37.7338 49.7772 37.5461 49.5624 37.5729C49.3386 37.5908 49.1686 37.7785 49.1776 38.002C49.1776 38.0467 49.4461 42.5347 49.1776 44.5462L49.1865 44.5551Z" fill="#2F2F2F"/>
<path d="M54.3065 65.2697C54.3602 65.2965 54.4139 65.3055 54.4766 65.3055C54.6287 65.3055 54.781 65.2161 54.8437 65.0641C55.4166 63.7946 55.3358 60.451 55.3358 60.3079C55.3358 60.0844 55.1479 59.9146 54.9331 59.9146H54.9241C54.7003 59.9146 54.5214 60.1113 54.5303 60.3348C54.5572 61.2467 54.5304 63.8214 54.1186 64.7333C54.0291 64.9389 54.1186 65.1803 54.3245 65.2697H54.3065Z" fill="#2F2F2F"/>
<path d="M60.8587 45.1276C60.6439 45.1902 60.5275 45.4227 60.5901 45.6372C60.7155 46.0306 61.7985 49.5083 62.3625 50.3487C62.443 50.4649 62.5682 50.5275 62.7025 50.5275C62.7831 50.5275 62.8547 50.5096 62.9263 50.456C63.1142 50.3308 63.1681 50.0805 63.0427 49.8928C62.622 49.2669 61.7 46.4329 61.3777 45.3958C61.3151 45.1813 61.0825 45.0561 60.8677 45.1276H60.8587Z" fill="#2F2F2F"/>
<path d="M61.6732 23.7605C61.7269 23.7874 61.7895 23.7963 61.8522 23.7963C62.0133 23.7963 62.1656 23.7159 62.2372 23.5728C62.3268 23.3672 62.2639 23.1437 62.058 23.0543C61.8074 22.8218 60.9302 20.9891 60.2678 19.4156C60.1783 19.21 59.9368 19.1117 59.7309 19.2011C59.525 19.2905 59.4265 19.5229 59.5161 19.7375C61.1183 23.5281 61.53 23.7159 61.6732 23.7695V23.7605Z" fill="#2F2F2F"/>
<path d="M69.1656 35.9195C69.2462 36.0178 69.3624 36.0715 69.4878 36.0715C69.5773 36.0715 69.6668 36.0447 69.7384 35.9821C69.9174 35.839 69.9444 35.5887 69.8011 35.4099C69.1029 34.5427 67.0531 30.8951 67.0352 30.8593C66.9277 30.6626 66.6772 30.5911 66.4803 30.7073C66.2834 30.8146 66.2116 31.065 66.328 31.2616C66.4175 31.4136 68.4316 34.9986 69.1656 35.9195Z" fill="#2F2F2F"/>
<path d="M78.1341 52.3153C78.1967 52.3511 78.2685 52.3689 78.3401 52.3689C78.4834 52.3689 78.6175 52.2974 78.6891 52.1633C78.8055 51.9667 78.734 51.7163 78.537 51.6091C77.624 51.0816 75.234 48.4889 74.3926 47.5413C74.2404 47.3714 73.9898 47.3535 73.8198 47.5055C73.6497 47.6575 73.6318 47.9078 73.7839 48.0777C73.9093 48.2207 76.9167 51.609 78.1341 52.3153Z" fill="#2F2F2F"/>
<path d="M86.1994 35.8473C86.2711 35.9903 86.4144 36.0708 86.5666 36.0708C86.6292 36.0708 86.6919 36.0529 86.7456 36.0261C86.9425 35.9278 87.032 35.6775 86.9245 35.4808C86.7366 35.1053 84.6958 32.6288 84.0692 31.8868C83.926 31.717 83.6665 31.6901 83.4964 31.8332C83.3263 31.9762 83.2994 32.2355 83.4426 32.4054C84.4989 33.6838 86.0562 35.597 86.1905 35.8473H86.1994Z" fill="#2F2F2F"/>
<path d="M99.8947 48.0596C99.9752 48.1579 100.092 48.2116 100.217 48.2116C100.307 48.2116 100.396 48.1847 100.468 48.1222C100.647 47.9791 100.673 47.7288 100.53 47.55C99.2144 45.8872 96.8961 43.5091 96.7976 43.4107C96.6455 43.2498 96.386 43.2498 96.2248 43.4107C96.0637 43.5627 96.0637 43.8219 96.2248 43.9829C96.2517 44.0097 98.6147 46.4235 99.9036 48.0596H99.8947Z" fill="#2F2F2F"/>
<path d="M108.918 38.0738C108.962 38.2616 109.132 38.3957 109.311 38.3957C109.338 38.3957 109.374 38.3957 109.401 38.3868C109.616 38.3421 109.759 38.1185 109.714 37.904C109.464 36.7775 107.584 33.3266 107.503 33.1746C107.396 32.9779 107.145 32.9064 106.948 33.0137C106.752 33.121 106.68 33.3713 106.787 33.568C107.315 34.5335 108.73 37.2424 108.918 38.0828V38.0738Z" fill="#2F2F2F"/>
<path d="M119.766 47.8815C119.802 48.0782 119.972 48.2123 120.169 48.2123C120.196 48.2123 120.223 48.2123 120.25 48.2123C120.473 48.1676 120.617 47.953 120.572 47.7385C120.321 46.46 119.149 43.6707 119.104 43.5455C119.014 43.3399 118.782 43.2416 118.567 43.331C118.361 43.4204 118.262 43.6528 118.352 43.8674C118.361 43.8942 119.542 46.7014 119.775 47.8905L119.766 47.8815Z" fill="#2F2F2F"/>
<path d="M123.974 35.6692C123.974 35.8927 124.153 36.0715 124.376 36.0715C124.6 36.0715 124.779 35.8837 124.779 35.6602C124.779 34.7573 124.009 32.2898 123.92 32.0127C123.848 31.7981 123.624 31.6818 123.41 31.7444C123.195 31.8159 123.078 32.0395 123.141 32.254C123.365 32.9782 123.956 35.0076 123.965 35.6602L123.974 35.6692Z" fill="#2F2F2F"/>
<path d="M137.49 46.7818C137.543 46.7996 137.588 46.8086 137.642 46.8086C137.803 46.8086 137.955 46.7103 138.018 46.5494C138.322 45.7984 139.128 43.7958 139.271 43.5097C139.369 43.313 139.289 43.0627 139.092 42.9643C138.886 42.866 138.644 42.9464 138.546 43.1431C138.367 43.5097 137.382 45.9682 137.266 46.2454C137.185 46.451 137.284 46.6924 137.49 46.7729V46.7818Z" fill="#2F2F2F"/>
<path d="M140.658 35.2311C140.703 35.249 140.757 35.258 140.802 35.258C140.963 35.258 141.124 35.1596 141.187 34.9987C141.41 34.4086 142.046 32.7815 142.323 32.3703C142.449 32.1825 142.395 31.9322 142.207 31.807C142.019 31.6819 141.768 31.7355 141.643 31.9232C141.267 32.4865 140.515 34.4891 140.426 34.7126C140.345 34.9271 140.453 35.1596 140.667 35.2311H140.658Z" fill="#2F2F2F"/>
<path d="M156.815 36.5627C156.869 36.5895 156.931 36.5985 156.985 36.5985C157.137 36.5985 157.28 36.509 157.352 36.366C157.37 36.3392 158.793 33.3174 159.483 32.3697C159.617 32.1909 159.572 31.9316 159.393 31.8065C159.214 31.6724 158.954 31.7171 158.829 31.8959C158.095 32.9062 156.681 35.9011 156.618 36.0263C156.52 36.2319 156.618 36.4733 156.815 36.5627Z" fill="#2F2F2F"/>
<path d="M161.514 48.6235C161.577 48.6592 161.648 48.686 161.729 48.686C161.863 48.686 161.997 48.6145 162.078 48.4894C162.087 48.4715 163.224 46.6119 164.728 44.663C164.862 44.4842 164.835 44.2339 164.656 44.0908C164.477 43.9567 164.226 43.9835 164.083 44.1623C162.552 46.147 161.398 48.0423 161.389 48.0602C161.272 48.248 161.335 48.4983 161.523 48.6146L161.514 48.6235Z" fill="#2F2F2F"/>
<path d="M15.0466 288.461C15.0376 288.238 14.8765 288.032 14.6259 288.077C14.4021 288.086 14.2321 288.274 14.2411 288.497C14.259 288.926 14.447 292.69 15.0199 293.656C15.1005 293.781 15.2346 293.852 15.3689 293.852C15.4405 293.852 15.5121 293.834 15.5748 293.799C15.7627 293.682 15.8253 293.432 15.7179 293.244C15.3599 292.654 15.1182 289.999 15.0555 288.47L15.0466 288.461Z" fill="#2F2F2F"/>
<path d="M17.6518 302.078C17.5802 301.863 17.3474 301.756 17.1326 301.827C16.9178 301.899 16.8103 302.131 16.882 302.346C16.9983 302.677 18.0366 305.636 19.0839 306.503C19.1555 306.566 19.254 306.592 19.3435 306.592C19.4599 306.592 19.5763 306.539 19.6569 306.44C19.8001 306.27 19.7732 306.011 19.6031 305.868C18.8602 305.26 17.9472 302.927 17.6518 302.078Z" fill="#2F2F2F"/>
<path d="M25.2689 293.405C25.2421 293.629 25.412 293.825 25.6358 293.852C25.6537 293.852 25.6627 293.852 25.6806 293.852C25.8865 293.852 26.0655 293.7 26.0834 293.486C26.1729 292.565 26.0834 288.98 26.0834 288.828C26.0834 288.604 25.8955 288.435 25.6806 288.435H25.6717C25.4479 288.435 25.2689 288.622 25.2779 288.855C25.2779 288.89 25.3674 292.538 25.2779 293.405H25.2689Z" fill="#2F2F2F"/>
<path d="M29.4489 304.893C29.5295 304.893 29.6011 304.875 29.6727 304.831C30.3799 304.366 31.4897 302.622 31.615 302.426C31.7314 302.238 31.6778 301.988 31.4898 301.862C31.3018 301.746 31.0511 301.8 30.9258 301.988C30.4872 302.676 29.6459 303.874 29.2252 304.151C29.0372 304.276 28.9836 304.527 29.1089 304.714C29.1895 304.831 29.3147 304.902 29.4489 304.893Z" fill="#2F2F2F"/>
<path d="M36.2519 295.747C36.3683 295.747 36.4756 295.703 36.5561 295.613C37.317 294.755 37.9347 292.484 37.9974 292.234C38.0511 292.019 37.9257 291.796 37.7109 291.742C37.496 291.679 37.2722 291.814 37.2185 292.028C37.0484 292.672 36.4935 294.469 35.9475 295.077C35.7953 295.247 35.8133 295.497 35.9834 295.649C36.0639 295.72 36.1535 295.747 36.2519 295.747Z" fill="#2F2F2F"/>
<path d="M37.6305 305.322C37.7111 305.439 37.8365 305.492 37.9618 305.492C38.0424 305.492 38.123 305.465 38.1946 305.421C39.1345 304.768 40.8978 302.175 41.1037 301.88C41.229 301.693 41.1842 301.442 40.9962 301.317C40.8082 301.192 40.5577 301.237 40.4324 301.424C39.9132 302.184 38.4273 304.267 37.7381 304.75C37.5501 304.875 37.5052 305.135 37.6395 305.313L37.6305 305.322Z" fill="#2F2F2F"/>
<path d="M241.108 218.916C239.085 219.738 237.196 221.258 237.115 221.321C236.936 221.464 236.91 221.714 237.053 221.893C237.133 221.991 237.25 222.045 237.366 222.045C237.456 222.045 237.545 222.018 237.626 221.955C237.644 221.937 239.497 220.453 241.412 219.667C241.618 219.577 241.716 219.345 241.636 219.139C241.546 218.934 241.314 218.835 241.108 218.916Z" fill="#2F2F2F"/>
<path d="M248.161 225.174C247.973 225.057 247.723 225.12 247.606 225.317C246.478 227.23 244.679 228.911 244.661 228.928C244.5 229.08 244.491 229.34 244.643 229.501C244.724 229.59 244.831 229.626 244.939 229.626C245.037 229.626 245.136 229.59 245.216 229.518C245.297 229.447 247.114 227.739 248.305 225.728C248.421 225.531 248.358 225.29 248.161 225.174Z" fill="#2F2F2F"/>
<path d="M254.687 214.294C254.669 214.07 254.472 213.909 254.248 213.918C252.95 214.008 249.773 214.982 249.639 215.018C249.424 215.081 249.307 215.313 249.37 215.528C249.424 215.706 249.585 215.814 249.755 215.814C249.791 215.814 249.835 215.814 249.871 215.796C249.907 215.787 253.094 214.812 254.302 214.732C254.526 214.714 254.696 214.517 254.678 214.294H254.687Z" fill="#2F2F2F"/>
<path d="M256.45 223.94C256.567 223.94 256.674 223.895 256.755 223.797C257.426 223.028 258.035 220.82 258.106 220.57C258.169 220.355 258.035 220.132 257.82 220.069C257.605 220.015 257.381 220.141 257.319 220.355C257.149 220.981 256.611 222.724 256.137 223.261C255.985 223.431 256.003 223.69 256.173 223.833C256.253 223.904 256.343 223.931 256.441 223.931L256.45 223.94Z" fill="#2F2F2F"/>
<path d="M255.411 231.092C255.197 231.03 254.973 231.146 254.901 231.36C254.901 231.378 254.176 233.622 252.735 234.981C252.574 235.133 252.565 235.392 252.717 235.553C252.798 235.634 252.905 235.678 253.013 235.678C253.111 235.678 253.21 235.643 253.29 235.571C254.883 234.069 255.644 231.709 255.68 231.602C255.752 231.387 255.626 231.164 255.411 231.092Z" fill="#2F2F2F"/>
<path d="M264.318 226.56C264.095 226.56 263.916 226.738 263.916 226.962C263.916 226.989 263.907 229.581 262.976 231.28C262.868 231.477 262.94 231.727 263.137 231.834C263.2 231.87 263.262 231.888 263.334 231.888C263.477 231.888 263.62 231.807 263.692 231.673C264.721 229.796 264.739 227.078 264.739 226.962C264.739 226.738 264.56 226.56 264.336 226.56H264.318Z" fill="#2F2F2F"/>
<path d="M260.532 238.164C260.335 238.057 260.084 238.128 259.977 238.325C259.959 238.361 258.026 241.847 256.244 242.867C256.047 242.983 255.985 243.224 256.092 243.421C256.164 243.555 256.307 243.627 256.45 243.627C256.522 243.627 256.584 243.609 256.656 243.573C258.634 242.446 260.613 238.87 260.693 238.718C260.8 238.522 260.729 238.271 260.532 238.164Z" fill="#2F2F2F"/>
<path d="M49.8131 337.847C49.8131 337.847 49.8669 337.847 49.8938 337.847C49.9117 337.847 52.1941 337.364 54.6915 337.006C54.9152 336.971 55.0675 336.765 55.0407 336.55C55.0049 336.327 54.799 336.175 54.5842 336.202C52.0689 336.559 49.7594 337.042 49.7325 337.051C49.5177 337.096 49.3746 337.31 49.4193 337.534C49.4641 337.722 49.6252 337.856 49.8131 337.856V337.847Z" fill="#2F2F2F"/>
<path d="M44.6663 344.4C44.6215 344.176 44.3977 344.033 44.1918 344.078C41.7571 344.561 39.3045 345.75 39.197 345.794C38.9912 345.893 38.9106 346.134 39.0091 346.34C39.0807 346.483 39.2241 346.572 39.3762 346.572C39.4389 346.572 39.4926 346.563 39.5552 346.528C39.5821 346.519 42.0256 345.339 44.3529 344.874C44.5767 344.829 44.72 344.614 44.6752 344.4H44.6663Z" fill="#2F2F2F"/>
<path d="M52.6684 347.287C52.6864 347.493 52.8653 347.654 53.0712 347.654C53.0891 347.654 53.0981 347.654 53.116 347.654L57.5737 347.171C57.7974 347.144 57.9587 346.948 57.9318 346.724C57.905 346.501 57.6991 346.349 57.4843 346.367L53.0266 346.849C52.8028 346.876 52.6416 347.073 52.6684 347.296V347.287Z" fill="#2F2F2F"/>
<path d="M56.5176 356.398C56.5176 356.621 56.6966 356.8 56.9203 356.8H61.378C61.6018 356.8 61.781 356.621 61.781 356.389C61.781 356.156 61.6018 355.986 61.378 355.986H56.9203C56.6966 355.986 56.5176 356.165 56.5176 356.398Z" fill="#2F2F2F"/>
<path d="M46.2415 354.672C46.2415 354.672 43.3951 355.245 41.6228 354.681C41.408 354.619 41.1752 354.735 41.1125 354.95C41.0409 355.164 41.1663 355.388 41.3811 355.459C42.0614 355.674 42.858 355.745 43.6099 355.745C45.0421 355.745 46.331 355.486 46.4115 355.468C46.6353 355.423 46.7696 355.209 46.7249 354.985C46.6801 354.771 46.4653 354.619 46.2415 354.672Z" fill="#2F2F2F"/>
<path d="M49.0345 361.413C49.9117 361.619 50.7798 361.69 51.5496 361.69C53.0176 361.69 54.1187 361.431 54.1814 361.422C54.3962 361.369 54.5303 361.154 54.4856 360.93C54.4408 360.707 54.217 360.582 53.9932 360.627C53.9664 360.627 51.5945 361.181 49.2224 360.627C48.9986 360.573 48.7838 360.707 48.7301 360.93C48.6764 361.154 48.8107 361.369 49.0345 361.422V361.413Z" fill="#2F2F2F"/>
<path d="M74.0435 335.138C74.0973 335.138 74.1509 335.129 74.2046 335.102C74.4105 335.013 74.5089 334.772 74.4194 334.566C73.7212 332.948 73.0051 328.093 73.0051 328.049C72.9693 327.825 72.7544 327.673 72.5396 327.709C72.3158 327.745 72.1638 327.95 72.1996 328.174C72.2264 328.379 72.9424 333.18 73.6764 334.897C73.7391 335.049 73.8914 335.147 74.0525 335.147L74.0435 335.138Z" fill="#2F2F2F"/>
<path d="M77.5882 349.254C77.3645 349.29 77.2211 349.505 77.2569 349.728C77.2569 349.773 77.9731 353.903 77.9731 355.066C77.9731 355.289 78.152 355.468 78.3758 355.468C78.5996 355.468 78.7788 355.289 78.7788 355.066C78.7788 353.832 78.0806 349.764 78.0537 349.585C78.0179 349.362 77.812 349.219 77.5793 349.254H77.5882Z" fill="#2F2F2F"/>
<path d="M79.3068 369.674C79.083 369.701 78.922 369.897 78.9488 370.121C78.9488 370.157 79.2979 373.384 78.9488 375.351C78.913 375.574 79.0561 375.78 79.2799 375.825C79.3068 375.825 79.3247 375.825 79.3516 375.825C79.5485 375.825 79.7185 375.682 79.7544 375.485C80.1213 373.402 79.7723 370.166 79.7544 370.023C79.7275 369.799 79.5216 369.638 79.3068 369.665V369.674Z" fill="#2F2F2F"/>
<path d="M75.2165 392.722C75.0017 392.677 74.7778 392.811 74.7331 393.035C74.7331 393.071 74.0081 396.414 73.65 397.836C73.5963 398.05 73.7304 398.274 73.9453 398.327C73.9811 398.327 74.008 398.336 74.0438 398.336C74.2229 398.336 74.3929 398.211 74.4376 398.032C74.7957 396.602 75.5207 393.241 75.5207 393.205C75.5654 392.99 75.4313 392.767 75.2075 392.722H75.2165Z" fill="#2F2F2F"/>
<path d="M86.1369 334.682C86.11 334.458 85.9042 334.297 85.6804 334.333C85.4566 334.36 85.2954 334.566 85.3312 334.789C85.4028 335.37 86.0742 340.538 86.5665 341.646C86.6381 341.798 86.7813 341.888 86.9424 341.888C86.9961 341.888 87.0498 341.879 87.1035 341.852C87.3093 341.762 87.3988 341.521 87.3093 341.315C86.9334 340.475 86.3338 336.246 86.1369 334.691V334.682Z" fill="#2F2F2F"/>
<path d="M88.9024 360.877C88.6876 360.922 88.5445 361.136 88.5893 361.36C88.5982 361.404 89.5381 365.821 89.3054 367.421C89.2696 367.645 89.4306 367.85 89.6544 367.877C89.6723 367.877 89.6903 367.877 89.7171 367.877C89.914 367.877 90.093 367.734 90.1199 367.528C90.3705 365.794 89.4306 361.369 89.3948 361.181C89.35 360.957 89.1262 360.832 88.9114 360.868L88.9024 360.877Z" fill="#2F2F2F"/>
<path d="M88.115 392.114C87.8912 392.132 87.7212 392.328 87.7391 392.552C87.8734 394.242 88.0074 397.156 87.7657 397.791C87.6852 398.005 87.7926 398.238 88.0074 398.309C88.0522 398.327 88.106 398.336 88.1508 398.336C88.3119 398.336 88.473 398.238 88.5356 398.077C88.9205 397.058 88.5983 392.945 88.5625 392.48C88.5446 392.257 88.3477 392.096 88.1239 392.105L88.115 392.114Z" fill="#2F2F2F"/>
<path d="M91.6776 319.35C91.6597 319.126 91.4628 318.948 91.239 318.974C91.0152 318.992 90.8452 319.189 90.8631 319.412C90.8989 319.913 91.248 324.374 91.7403 325.492C91.8119 325.644 91.9551 325.733 92.1162 325.733C92.1699 325.733 92.2235 325.724 92.2772 325.697C92.4831 325.608 92.5726 325.367 92.4831 325.161C92.1072 324.321 91.7671 320.682 91.6686 319.35H91.6776Z" fill="#2F2F2F"/>
<path d="M99.4919 337.704L99.9125 343.667C99.9304 343.881 100.109 344.042 100.315 344.042C100.324 344.042 100.333 344.042 100.342 344.042C100.566 344.024 100.736 343.828 100.718 343.604L100.297 337.641L99.4829 337.695L99.4919 337.704Z" fill="#2F2F2F"/>
<path d="M103.43 366.241C103.412 366.464 103.582 366.661 103.806 366.679C103.815 366.679 103.824 366.679 103.833 366.679C104.048 366.679 104.227 366.518 104.236 366.303C104.361 364.587 103.752 361.091 103.726 360.939C103.69 360.716 103.475 360.564 103.251 360.608C103.027 360.644 102.884 360.859 102.92 361.082C102.92 361.118 103.529 364.631 103.421 366.25L103.43 366.241Z" fill="#2F2F2F"/>
<path d="M104.227 380.098C104.218 379.875 104.03 379.669 103.806 379.714C103.583 379.723 103.412 379.91 103.421 380.134C103.421 380.25 103.564 383.075 103.914 384.774C103.949 384.962 104.12 385.096 104.308 385.096C104.334 385.096 104.361 385.096 104.388 385.096C104.603 385.051 104.746 384.836 104.701 384.613C104.361 382.977 104.227 380.134 104.218 380.098H104.227Z" fill="#2F2F2F"/>
<path d="M107.995 393.553C107.772 393.571 107.611 393.776 107.629 394C107.629 394.036 107.978 397.594 107.629 400.043C107.593 400.267 107.754 400.473 107.978 400.499C107.995 400.499 108.013 400.499 108.04 400.499C108.237 400.499 108.416 400.356 108.443 400.151C108.81 397.603 108.461 394.062 108.443 393.91C108.425 393.687 108.219 393.526 107.995 393.544V393.553Z" fill="#2F2F2F"/>
<path d="M105.892 324.839C105.829 324.624 105.615 324.499 105.391 324.553C105.176 324.615 105.042 324.839 105.104 325.054C105.346 325.957 106.196 328.934 106.975 329.515C107.047 329.568 107.136 329.595 107.217 329.595C107.342 329.595 107.458 329.542 107.539 329.434C107.673 329.255 107.637 328.996 107.458 328.862C107.082 328.576 106.348 326.556 105.892 324.839Z" fill="#2F2F2F"/>
<path d="M122.076 336.193C120.456 335.674 118.039 333.591 118.012 333.573C117.842 333.43 117.582 333.448 117.439 333.618C117.296 333.788 117.314 334.047 117.484 334.19C117.591 334.279 120.053 336.398 121.834 336.97C121.879 336.979 121.915 336.988 121.959 336.988C122.129 336.988 122.291 336.881 122.344 336.702C122.416 336.488 122.291 336.264 122.085 336.193H122.076Z" fill="#2F2F2F"/>
<path d="M126.005 324.919C124.349 324.579 122.12 323.676 122.102 323.667C121.897 323.578 121.655 323.685 121.574 323.891C121.485 324.097 121.592 324.338 121.798 324.418C121.888 324.454 124.116 325.366 125.853 325.715C125.88 325.715 125.907 325.715 125.934 325.715C126.122 325.715 126.292 325.581 126.327 325.393C126.372 325.169 126.229 324.955 126.005 324.91V324.919Z" fill="#2F2F2F"/>
<path d="M138.071 335.576C136.532 336.175 132.521 336.157 132.521 336.175C132.298 336.175 132.119 336.354 132.119 336.577C132.119 336.801 132.298 336.989 132.521 336.989H132.539C132.853 336.989 136.72 336.971 138.367 336.336C138.572 336.256 138.68 336.023 138.599 335.809C138.519 335.603 138.277 335.496 138.071 335.576Z" fill="#2F2F2F"/>
<path d="M146.709 325.116C146.601 324.919 146.351 324.848 146.154 324.964C144.588 325.849 140.765 326.904 140.73 326.913C140.515 326.976 140.389 327.199 140.443 327.414C140.497 327.593 140.658 327.709 140.837 327.709C140.873 327.709 140.909 327.709 140.944 327.691C141.106 327.646 144.901 326.591 146.548 325.661C146.745 325.554 146.816 325.304 146.7 325.107L146.709 325.116Z" fill="#2F2F2F"/>
<path d="M145.715 358.177C145.715 358.177 145.742 358.177 145.76 358.177C145.966 358.177 146.145 358.025 146.163 357.81C146.288 356.586 145.939 352.491 145.921 352.312C145.903 352.089 145.707 351.928 145.483 351.946C145.259 351.964 145.098 352.16 145.116 352.384C145.116 352.428 145.474 356.577 145.357 357.73C145.339 357.953 145.5 358.15 145.724 358.177H145.715Z" fill="#2F2F2F"/>
<path d="M146.333 371.757C146.109 371.775 145.939 371.971 145.957 372.195C146.038 373.348 146.199 376.549 145.966 377.488C145.912 377.702 146.047 377.926 146.261 377.979C146.297 377.979 146.324 377.988 146.36 377.988C146.539 377.988 146.709 377.863 146.754 377.684C147.067 376.433 146.772 372.311 146.763 372.141C146.745 371.918 146.53 371.757 146.324 371.766L146.333 371.757Z" fill="#2F2F2F"/>
<path d="M145.626 392.292C145.608 392.069 145.402 391.908 145.187 391.917C144.963 391.935 144.793 392.131 144.811 392.355C144.82 392.525 145.133 396.432 146.011 397.996C146.082 398.13 146.226 398.202 146.369 398.202C146.44 398.202 146.503 398.184 146.566 398.148C146.763 398.041 146.834 397.791 146.718 397.594C145.93 396.181 145.626 392.319 145.626 392.283V392.292Z" fill="#2F2F2F"/>
<path d="M161.067 320.387C161.192 320.199 161.147 319.949 160.959 319.824C160.78 319.698 160.521 319.743 160.395 319.931C160.386 319.949 159.205 321.638 157.665 321.951C157.441 321.996 157.298 322.211 157.343 322.425C157.379 322.622 157.549 322.756 157.737 322.756C157.764 322.756 157.791 322.756 157.817 322.756C159.679 322.389 161.004 320.485 161.058 320.405L161.067 320.387Z" fill="#2F2F2F"/>
<path d="M189.209 314.137C188.994 314.191 188.851 314.405 188.904 314.62C188.904 314.638 189.334 316.56 188.904 318.527C188.86 318.741 188.994 318.965 189.218 319.01C189.245 319.01 189.272 319.019 189.307 319.019C189.495 319.019 189.665 318.885 189.701 318.697C190.167 316.56 189.719 314.531 189.701 314.441C189.656 314.227 189.442 314.084 189.218 314.137H189.209Z" fill="#2F2F2F"/>
<path d="M183.319 325.903C183.104 325.858 182.881 326.001 182.836 326.225C182.639 327.208 182.03 329.935 181.609 330.704C181.502 330.9 181.574 331.151 181.771 331.258C181.833 331.294 181.896 331.312 181.967 331.312C182.111 331.312 182.254 331.231 182.326 331.097C182.89 330.06 183.606 326.546 183.632 326.394C183.677 326.171 183.534 325.956 183.31 325.912L183.319 325.903Z" fill="#2F2F2F"/>
<path d="M163.806 330.489C163.582 330.489 163.403 330.677 163.403 330.901C163.403 330.927 163.403 333.913 162.803 335.442C162.723 335.648 162.821 335.889 163.036 335.97C163.081 335.987 163.134 335.996 163.188 335.996C163.349 335.996 163.502 335.898 163.564 335.737C164.227 334.056 164.218 331.017 164.218 330.892C164.218 330.668 164.039 330.489 163.815 330.489H163.806Z" fill="#2F2F2F"/>
<path d="M156.171 349.004C155.947 348.986 155.75 349.138 155.723 349.362C155.705 349.523 155.267 353.367 155.267 354.467C155.267 354.69 155.446 354.869 155.669 354.869C155.893 354.869 156.072 354.69 156.072 354.467C156.072 353.421 156.52 349.496 156.52 349.46C156.547 349.237 156.385 349.04 156.162 349.013L156.171 349.004Z" fill="#2F2F2F"/>
<path d="M156.86 367.421C156.627 367.403 156.448 367.591 156.439 367.814C156.439 367.975 156.35 371.82 156.439 372.83C156.457 373.044 156.636 373.196 156.842 373.196C156.851 373.196 156.869 373.196 156.878 373.196C157.102 373.179 157.263 372.982 157.245 372.758C157.155 371.802 157.245 367.877 157.245 367.841C157.245 367.618 157.075 367.43 156.851 367.421H156.86Z" fill="#2F2F2F"/>
<path d="M160.235 389.253C160.199 389.029 159.993 388.877 159.778 388.904C159.554 388.94 159.402 389.145 159.429 389.36C159.554 390.218 160.181 394.554 160.557 395.243C160.628 395.377 160.772 395.457 160.915 395.457C160.978 395.457 161.049 395.439 161.112 395.403C161.309 395.296 161.38 395.046 161.273 394.849C161.049 394.438 160.53 391.318 160.235 389.235V389.253Z" fill="#2F2F2F"/>
<path d="M175.863 389.476C175.657 389.557 175.55 389.798 175.639 390.004C176.06 391.05 177.152 393.991 177.152 395.055C177.152 395.278 177.331 395.457 177.555 395.457C177.778 395.457 177.957 395.278 177.957 395.055C177.957 393.607 176.454 389.861 176.391 389.7C176.31 389.494 176.069 389.396 175.863 389.476Z" fill="#2F2F2F"/>
<path d="M169.785 375.36C169.562 375.36 169.383 375.539 169.383 375.753C169.383 375.932 169.293 380.125 169.383 381.126C169.4 381.341 169.579 381.493 169.785 381.493C169.794 381.493 169.812 381.493 169.821 381.493C170.045 381.475 170.206 381.278 170.188 381.055C170.099 380.098 170.188 375.816 170.188 375.771C170.188 375.548 170.018 375.36 169.794 375.36H169.785Z" fill="#2F2F2F"/>
<path d="M175.97 363.603C175.881 362.262 176.409 358.624 176.418 358.588C176.454 358.364 176.293 358.159 176.078 358.123C175.863 358.096 175.648 358.239 175.612 358.463C175.594 358.615 175.066 362.226 175.156 363.648C175.174 363.862 175.353 364.032 175.558 364.032C175.558 364.032 175.576 364.032 175.585 364.032C175.809 364.014 175.979 363.827 175.961 363.603H175.97Z" fill="#2F2F2F"/>
<path d="M171.441 340.243C171.226 340.234 171.02 340.386 170.994 340.61C170.994 340.645 170.626 344.382 170.197 345.956C170.134 346.17 170.259 346.394 170.483 346.456C170.519 346.465 170.555 346.474 170.591 346.474C170.77 346.474 170.931 346.358 170.985 346.179C171.441 344.534 171.799 340.851 171.808 340.69C171.826 340.467 171.665 340.27 171.441 340.243Z" fill="#2F2F2F"/>
<path d="M117.591 272.843L114.011 268.086C109.902 273.656 105.606 277.286 105.409 277.447C105.14 277.67 105.033 278.046 105.149 278.385C105.265 278.716 105.579 278.949 105.928 278.949L108.721 278.976L108.336 282.033C108.309 282.266 108.372 282.507 108.524 282.686C108.694 282.891 108.935 282.99 109.177 282.99C109.356 282.99 109.544 282.927 109.696 282.802C109.884 282.641 114.002 279.208 118.28 273.772L118.083 273.504L117.591 272.834V272.843Z" fill="#695EA6"/>
<path d="M96.6183 239.379C96.5109 239.379 96.4214 239.469 96.4214 239.576V250.689H91.2028V239.576C91.2028 239.469 91.1133 239.379 91.0059 239.379H84.6774C84.57 239.379 84.4805 239.469 84.4805 239.576V270.089C84.4805 270.196 84.57 270.286 84.6863 270.286H91.0148C91.1223 270.286 91.2117 270.196 91.2117 270.089V257.599H96.4303V270.089C96.4303 270.196 96.5198 270.286 96.6272 270.286H102.947C103.054 270.286 103.144 270.196 103.144 270.089V239.576C103.144 239.469 103.054 239.379 102.938 239.379H96.6183Z" fill="#695EA6"/>
<path d="M163.877 263.366V258.208H169.839C169.946 258.208 170.036 258.118 170.036 258.011V251.681C170.036 251.574 169.946 251.485 169.839 251.485H163.877V246.254H170.779C170.886 246.254 170.976 246.165 170.976 246.058V239.567C170.976 239.46 170.886 239.371 170.779 239.371H156.743C156.636 239.371 156.546 239.46 156.546 239.567V270.08C156.546 270.187 156.636 270.277 156.743 270.277H170.823C170.931 270.277 171.02 270.187 171.02 270.08V263.563C171.02 263.455 170.931 263.366 170.823 263.366H163.877Z" fill="#695EA6"/>
<path d="M142.385 239.371H134.312C134.312 239.371 134.249 239.388 134.222 239.406V270.187C134.222 270.187 134.267 270.277 134.312 270.277H140.837C140.944 270.277 141.034 270.187 141.034 270.08V258.663H141.956C145.08 258.663 147.568 257.796 149.341 256.08C151.113 254.363 152.017 251.967 152.017 248.954C152.017 246.094 151.131 243.76 149.376 242.008C147.622 240.256 145.268 239.371 142.385 239.371ZM143.952 251.574C143.433 251.994 142.69 252.253 141.714 252.37L141.034 252.45V245.611L141.714 245.682C142.726 245.79 143.487 246.04 143.988 246.442C144.605 246.943 144.928 247.819 144.928 249.062C144.928 250.224 144.614 251.055 143.961 251.583L143.952 251.574Z" fill="#695EA6"/>
<path d="M123.033 266.736C121.172 264.43 118.692 260.272 118.692 260.272C117.099 257.421 116.096 254.792 115.72 252.459C115.282 249.723 115.872 247.524 117.305 246.567C117.725 246.29 118.164 246.138 118.63 246.138C118.647 246.138 118.665 246.138 118.683 246.138C118.808 246.138 118.925 246.174 119.05 246.201C119.292 246.254 119.534 246.335 119.739 246.469C121.037 247.327 121.539 249.75 121.046 252.79C120.769 254.497 119.99 257.072 119.319 258.869C120.634 261.167 122.675 264.144 123.696 265.511C125.54 261.855 127.187 257.438 127.751 253.907C129.102 245.441 125.182 241.838 123.436 240.685C122.102 239.799 120.59 239.352 119.041 239.281C118.898 239.281 118.764 239.272 118.621 239.272C116.884 239.272 115.13 239.764 113.581 240.792C109.83 243.286 108.121 248.078 109.007 253.603C109.661 257.644 111.603 262.15 114.798 266.995L118.576 272.109L119.14 272.851C123.293 277.938 127.33 281.622 128.136 282.346C128.288 282.489 128.485 282.56 128.682 282.56C128.807 282.56 128.941 282.533 129.058 282.471C129.362 282.319 129.541 281.988 129.514 281.639L129.263 278.662L132.119 278.752C132.119 278.752 132.155 278.752 132.173 278.752C132.396 278.752 132.62 278.636 132.772 278.457C132.915 278.287 133.005 278.046 132.987 277.822C132.969 277.599 132.88 277.375 132.719 277.223C132.665 277.178 127.643 272.699 123.042 266.745L123.033 266.736Z" fill="#695EA6"/>
<path d="M134.115 239.567V270.08C134.115 270.143 134.186 270.152 134.231 270.187V239.406C134.169 239.442 134.115 239.496 134.115 239.567Z" fill="#3EBAC2"/>
<path d="M124.528 266.62L124.805 266.075C126.882 261.971 128.44 257.492 128.986 254.095C130.454 244.895 126.076 240.899 124.125 239.612C122.666 238.646 120.929 238.083 119.112 238.003C118.951 238.003 118.79 237.994 118.629 237.994C116.588 237.994 114.61 238.593 112.918 239.719C108.738 242.499 106.832 247.756 107.798 253.791C108.443 257.796 110.287 262.195 113.276 266.897L113.241 266.951L113.267 266.987L113.017 267.326C108.998 272.78 104.791 276.32 104.621 276.472C103.949 277.035 103.699 277.974 103.985 278.806C104.271 279.637 105.05 280.2 105.918 280.209L107.324 280.227L107.118 281.881C107.046 282.462 107.216 283.061 107.592 283.508C107.995 283.991 108.577 284.259 109.195 284.259C109.669 284.259 110.126 284.089 110.493 283.794C110.672 283.651 114.807 280.191 119.121 274.747C123.006 279.342 126.596 282.623 127.33 283.276C127.706 283.615 128.189 283.803 128.699 283.803C129.021 283.803 129.344 283.723 129.63 283.58C130.4 283.186 130.838 282.373 130.767 281.514L130.642 279.959L132.065 280.004H132.083H132.199C132.772 280.004 133.345 279.735 133.73 279.279C134.097 278.85 134.285 278.287 134.249 277.733C134.213 277.161 133.953 276.624 133.551 276.267C133.506 276.231 128.923 272.127 124.555 266.62H124.528ZM109.696 282.811C109.544 282.936 109.365 282.999 109.177 282.999C108.935 282.999 108.693 282.891 108.523 282.695C108.371 282.516 108.3 282.274 108.335 282.042L108.72 278.984L105.927 278.958C105.578 278.958 105.265 278.725 105.149 278.394C105.032 278.055 105.131 277.688 105.408 277.456C105.605 277.286 109.902 273.665 114.01 268.095L117.591 272.851L118.083 273.522L118.28 273.79C114.01 279.226 109.893 282.659 109.696 282.82V282.811ZM132.763 278.448C132.611 278.627 132.387 278.743 132.163 278.743C132.145 278.743 132.127 278.743 132.109 278.743L129.254 278.654L129.505 281.631C129.532 281.979 129.353 282.301 129.048 282.462C128.932 282.525 128.798 282.552 128.672 282.552C128.475 282.552 128.278 282.48 128.126 282.337C127.321 281.613 123.293 277.921 119.13 272.843L118.566 272.1L114.789 266.987C111.603 262.141 109.651 257.644 108.998 253.594C108.103 248.069 109.812 243.286 113.572 240.783C115.111 239.755 116.866 239.263 118.611 239.263C118.755 239.263 118.898 239.263 119.032 239.272C120.581 239.344 122.093 239.8 123.427 240.676C125.172 241.829 129.093 245.441 127.741 253.898C127.177 257.43 125.53 261.846 123.687 265.503C122.666 264.135 120.616 261.167 119.309 258.86C119.99 257.072 120.768 254.497 121.037 252.781C121.52 249.741 121.019 247.318 119.73 246.46C119.524 246.326 119.283 246.245 119.041 246.192C118.925 246.165 118.799 246.138 118.674 246.129C118.656 246.129 118.638 246.129 118.62 246.129C118.146 246.129 117.707 246.281 117.295 246.558C115.863 247.515 115.273 249.714 115.711 252.45C116.087 254.792 117.089 257.412 118.683 260.264C118.683 260.264 121.162 264.421 123.024 266.727C127.634 272.682 132.656 277.161 132.7 277.205C132.87 277.357 132.96 277.581 132.969 277.804C132.987 278.028 132.897 278.269 132.754 278.439L132.763 278.448ZM118.566 257.278C117.743 255.472 117.197 253.791 116.946 252.244C116.588 250.054 116.991 248.275 117.985 247.613C118.208 247.461 118.414 247.39 118.638 247.39C118.665 247.39 118.701 247.399 118.728 247.408L118.799 247.426C118.951 247.461 119.023 247.488 119.068 247.515C119.748 247.971 120.285 249.741 119.829 252.566C119.614 253.898 119.086 255.749 118.566 257.269V257.278Z" fill="#2F2F2F"/>
<path d="M104.37 270.08V239.567C104.37 238.852 103.824 238.28 103.135 238.181C103.063 238.172 103.01 238.146 102.938 238.146H96.6184C95.8307 238.146 95.1951 238.789 95.1951 239.576V249.464H92.4383V239.576C92.4383 238.789 91.7937 238.146 91.006 238.146H84.6775C83.8898 238.146 83.2544 238.789 83.2544 239.576V270.089C83.2544 270.875 83.8987 271.51 84.6864 271.51H91.015C91.8027 271.51 92.4383 270.867 92.4383 270.08V258.824H95.1951V270.08C95.1951 270.867 95.8396 271.501 96.6273 271.501H102.947C103.019 271.501 103.081 271.474 103.144 271.457C103.833 271.358 104.37 270.786 104.37 270.071V270.08ZM103.144 270.08C103.144 270.187 103.054 270.277 102.947 270.277H96.6273C96.5199 270.277 96.4304 270.187 96.4304 270.08V257.59H91.2119V270.08C91.2119 270.187 91.1224 270.277 91.015 270.277H84.6864C84.579 270.277 84.4895 270.187 84.4895 270.08V239.567C84.4895 239.46 84.5701 239.37 84.6864 239.37H91.015C91.1224 239.37 91.2119 239.46 91.2119 239.567V250.68H96.4304V239.567C96.4304 239.46 96.5199 239.37 96.6273 239.37H102.947C103.054 239.37 103.144 239.46 103.144 239.567V270.08Z" fill="#2F2F2F"/>
<path d="M141.705 245.664L141.025 245.593V252.432L141.714 252.352C142.681 252.244 143.433 251.976 143.952 251.556C144.605 251.028 144.919 250.197 144.919 249.035C144.919 247.792 144.605 246.907 143.979 246.415C143.478 246.013 142.717 245.763 141.705 245.655V245.664ZM143.173 250.617C142.958 250.787 142.645 250.93 142.26 251.019V246.996C142.681 247.086 143.012 247.22 143.209 247.39C143.522 247.64 143.684 248.212 143.684 249.053C143.684 249.821 143.513 250.34 143.173 250.617Z" fill="#2F2F2F"/>
<path d="M142.385 238.146H134.311C134.311 238.146 134.258 238.163 134.222 238.163C133.479 238.208 132.879 238.816 132.879 239.576V270.089C132.879 270.849 133.479 271.448 134.222 271.492C134.249 271.492 134.276 271.51 134.311 271.51H140.837C141.625 271.51 142.26 270.867 142.26 270.08V259.897C145.572 259.843 148.239 258.86 150.191 256.974C152.214 255.016 153.243 252.325 153.243 248.963C153.243 245.602 152.232 243.134 150.245 241.14C148.248 239.147 145.608 238.146 142.385 238.146ZM149.34 256.08C147.568 257.796 145.08 258.663 141.956 258.663H141.034V270.08C141.034 270.187 140.944 270.277 140.837 270.277H134.311C134.267 270.277 134.258 270.223 134.222 270.196C134.177 270.16 134.115 270.142 134.115 270.089V239.576C134.115 239.504 134.159 239.451 134.222 239.415C134.249 239.397 134.276 239.379 134.311 239.379H142.385C145.268 239.379 147.622 240.264 149.376 242.017C151.131 243.769 152.017 246.111 152.017 248.963C152.017 251.976 151.122 254.372 149.34 256.088V256.08Z" fill="#2F2F2F"/>
<path d="M170.823 262.132H165.104V259.432H169.839C170.626 259.432 171.262 258.788 171.262 258.002V251.672C171.262 250.885 170.617 250.242 169.839 250.242H165.104V247.47H170.778C171.566 247.47 172.202 246.826 172.202 246.04V239.549C172.202 238.762 171.557 238.119 170.77 238.119H156.734C155.946 238.119 155.311 238.762 155.311 239.549V270.062C155.311 270.849 155.955 271.483 156.743 271.483H170.823C171.611 271.483 172.255 270.84 172.255 270.053V263.536C172.255 262.749 171.611 262.114 170.823 262.114V262.132ZM171.02 270.071C171.02 270.178 170.931 270.268 170.823 270.268H156.743C156.636 270.268 156.546 270.178 156.546 270.071V239.558C156.546 239.451 156.627 239.361 156.743 239.361H170.778C170.886 239.361 170.976 239.451 170.976 239.558V246.049C170.976 246.156 170.886 246.245 170.778 246.245H163.877V251.475H169.839C169.946 251.475 170.036 251.565 170.036 251.672V258.002C170.036 258.109 169.946 258.198 169.839 258.198H163.877V263.357H170.823C170.931 263.357 171.02 263.446 171.02 263.553V270.071Z" fill="#2F2F2F"/>
</svg>
