<svg width="272" height="417" viewBox="0 0 272 417" fill="none" xmlns="http://www.w3.org/2000/svg">
<path d="M270.897 221.564C270.584 220.106 270.145 218.693 269.572 217.334C269.044 216.074 268.409 214.902 267.693 213.82C267.487 213.507 267.281 213.212 267.057 212.908C266.833 212.613 266.61 212.327 266.377 212.05C266.028 211.63 265.661 211.227 265.276 210.843C264.381 209.949 263.414 209.144 262.367 208.447C262.071 208.25 261.758 208.053 261.445 207.874C260.827 207.508 260.174 207.177 259.511 206.882C258.67 206.515 257.811 206.193 256.907 205.925C256.522 205.809 256.128 205.711 255.725 205.621C255.322 205.532 254.928 205.451 254.517 205.38C253.693 205.246 252.861 205.138 252.001 205.085C251.59 205.058 251.169 205.031 250.748 205.022C241.188 204.861 236.086 208.822 231.109 212.649C228.344 214.786 225.667 216.834 222.319 217.987C222.122 218.05 221.917 218.121 221.711 218.184C221.487 218.246 221.254 218.318 221.021 218.381C220.816 218.434 220.61 218.479 220.404 218.533C219.697 218.685 218.972 218.801 218.202 218.863C216.913 218.971 215.525 218.962 214.013 218.783C212.616 218.622 211.283 218.336 210.003 217.942C209.689 217.844 209.367 217.746 209.063 217.638C207.98 217.254 206.923 216.807 205.939 216.306C205.652 216.163 205.375 216.02 205.097 215.859C202.197 214.267 199.727 212.247 197.74 210.271C197.552 210.083 197.364 209.895 197.185 209.707C196.272 208.768 195.484 207.865 194.804 207.025C194.526 206.685 194.275 206.363 194.034 206.059C193.917 205.898 193.801 205.746 193.694 205.603C193.47 205.308 193.273 205.031 193.094 204.772C192.995 204.638 192.915 204.521 192.834 204.396H192.297V202.769H194.311C203.97 198.871 212.813 194.033 220.672 188.266C224.96 185.128 228.881 181.739 232.434 178.136C247.812 162.542 256.128 142.978 256.128 121.769C256.128 112.023 254.973 102.832 252.7 94.2747C252.162 92.2539 251.563 90.2779 250.9 88.3376C250.569 87.3719 250.22 86.4063 249.862 85.4496C249.683 84.9757 249.495 84.4929 249.307 84.0279C248.743 82.6063 248.134 81.2114 247.508 79.8344C246.872 78.4574 246.201 77.1074 245.494 75.7751C245.02 74.881 244.536 74.0046 244.035 73.1284C244.017 73.0747 243.999 73.0122 243.972 72.9317C243.945 72.8512 243.918 72.7529 243.883 72.6456C243.865 72.592 243.847 72.5293 243.829 72.4667C243.766 72.279 243.704 72.0554 243.623 71.7961C243.471 71.2865 243.283 70.6516 243.059 69.9006C242.952 69.525 242.835 69.1227 242.719 68.7025C242.477 67.853 242.209 66.8964 241.931 65.8592C240.58 60.8341 238.861 53.7972 237.671 46.5547C237.509 45.5533 237.357 44.5519 237.214 43.5505C236.999 42.0483 236.811 40.5462 236.668 39.0619C236.614 38.5612 236.57 38.0694 236.525 37.5866C236.319 35.1724 235.979 32.7225 235.495 30.2816C233.714 21.2508 230.053 12.3989 224.503 6.68535C224.351 6.53334 224.208 6.38133 224.047 6.22933C221.603 3.82411 218.811 2.02688 215.669 1.07016C215.427 0.998629 215.176 0.945016 214.935 0.882426C214.111 0.658893 213.279 0.471138 212.455 0.337018C211.802 0.229722 211.148 0.140273 210.495 0.0776841C210.28 0.0598014 210.056 0.0418751 209.842 0.0329337C201.231 -0.423075 192.36 3.85097 182.37 13.1947C177.045 18.175 172.972 21.3581 168.487 22.7619C167.637 23.0301 166.76 23.2358 165.874 23.3699C164.182 23.6292 162.4 23.6739 160.44 23.4772C160.172 23.4593 159.894 23.4236 159.617 23.3878C159.608 23.3878 159.599 23.3878 159.59 23.3878H159.572C150.406 22.0109 140.721 21.2776 130.74 21.1613C129.845 21.1524 128.95 21.1435 128.055 21.1435C117.126 21.1435 106.519 21.9035 96.538 23.4056C96.1979 23.4414 95.8756 23.4682 95.5444 23.5039C94.1391 23.6381 92.8143 23.656 91.5612 23.5487C85.3401 23.0212 80.5602 19.5966 73.7395 13.2214C67.1962 7.09659 61.1273 3.17139 55.3001 1.31159C53.1608 0.62311 51.0662 0.220763 48.9806 0.0955842C46.5459 -0.0564185 44.147 0.167106 41.7481 0.757235C41.3095 0.864531 40.8798 0.971831 40.4412 1.09701C34.1486 3.01046 29.2613 8.2858 25.7882 15.0186C25.3586 15.8591 24.9379 16.7175 24.553 17.6027C24.1591 18.4879 23.7921 19.391 23.452 20.303C23.2819 20.759 23.1118 21.224 22.9507 21.6889C22.4674 23.0838 22.0287 24.5055 21.6439 25.954C21.3932 26.9107 21.1515 27.8853 20.9367 28.8599C20.2922 31.7837 19.8536 34.7343 19.603 37.6224C19.236 42.0126 18.5199 46.6263 17.6695 51.0165C17.2936 52.9746 16.8908 54.8791 16.479 56.7031C15.763 59.9041 15.02 62.8548 14.3487 65.3495C14.2502 65.7071 14.1607 66.0559 14.0622 66.3956C13.8832 67.0752 13.7042 67.71 13.5431 68.3001C13.4625 68.5952 13.373 68.8813 13.3014 69.1495C13.2656 69.2837 13.2208 69.4177 13.185 69.5518C13.1134 69.8111 13.0418 70.0616 12.9702 70.303C12.8359 70.7769 12.7106 71.1971 12.6032 71.5726C12.5495 71.7514 12.4958 71.9303 12.451 72.0823C12.4331 72.1628 12.4063 72.2343 12.3884 72.3058C12.3257 72.5204 12.2631 72.6992 12.2183 72.8423C12.1646 72.9943 12.1377 73.1016 12.1109 73.1731C11.8603 73.6113 11.6096 74.0494 11.3769 74.4875C10.1595 76.6871 9.04065 78.9493 8.02022 81.2651C7.82329 81.73 7.61742 82.1949 7.42049 82.6599C6.82972 84.0637 6.27475 85.4943 5.75558 86.9339C5.40649 87.8995 5.07529 88.8742 4.76201 89.8577C4.44872 90.8412 4.14438 91.8248 3.86689 92.8262C3.58046 93.8276 3.31192 94.829 3.06129 95.8484C1.01148 103.922 0 112.604 0 121.778C0 138.91 5.42439 154.968 15.6197 168.72C16.1031 169.373 16.6044 170.026 17.1056 170.67C17.6158 171.313 18.135 171.948 18.6542 172.583C20.2385 174.479 21.9213 176.329 23.6937 178.136C27.2473 181.73 31.1768 185.119 35.4644 188.257C42.6343 193.515 50.6008 198.003 59.2744 201.714C53.0176 205.711 27.5068 223.388 13.561 254.334C12.7822 256.05 12.0482 257.812 11.35 259.609C10.8846 260.807 10.437 262.032 10.0074 263.275C9.79255 263.892 9.58667 264.518 9.38079 265.144C8.56624 267.656 7.83225 270.24 7.18776 272.896C6.96398 273.709 2.35415 290.644 6.85657 303.377C6.99084 303.752 7.13406 304.119 7.27728 304.494C7.57266 305.228 7.90385 305.952 8.27085 306.649C8.53938 307.177 8.83477 307.687 9.15701 308.187C9.26443 308.357 9.37184 308.518 9.47925 308.679C9.62247 308.894 9.76569 309.09 9.91786 309.296C12.1377 312.318 15.0737 314.473 18.69 315.77C20.3728 316.369 22.1988 316.78 24.1681 316.995C25.9314 317.191 27.5874 317.254 29.1628 317.191C31.6781 317.084 33.9606 316.628 36.0373 315.796C43.0997 312.971 47.8796 305.746 51.7555 292.612C51.8629 292.46 51.9166 292.272 51.9076 292.093C52.5969 289.697 53.2682 287.13 53.9127 284.341C54.772 280.639 55.7745 277.358 56.8576 274.47C57.1262 273.745 57.4036 273.048 57.6811 272.368C57.8154 272.029 57.9676 271.698 58.1018 271.367C58.5225 270.383 58.9522 269.462 59.3818 268.586C59.9547 267.424 60.5365 266.342 61.1094 265.349C61.5391 264.598 61.9687 263.901 62.3894 263.257C63.929 260.879 65.3791 259.099 66.5517 257.848C66.4443 258.134 66.3279 258.447 66.2116 258.769C65.8804 259.636 65.5313 260.637 65.1553 261.764C65.0569 262.05 64.9674 262.336 64.8689 262.631C64.7257 263.078 64.5825 263.543 64.4392 264.017C64.1439 264.983 63.8485 266.029 63.5441 267.138C63.4636 267.424 63.392 267.71 63.3203 268.005C63.1682 268.595 63.016 269.203 62.8638 269.82C62.7922 270.133 62.7117 270.455 62.6401 270.777C60.2859 280.791 58.254 295.204 59.167 313.624C59.3102 316.512 59.4893 319.176 59.6951 321.653C59.7936 322.887 59.91 324.076 60.0263 325.212C60.0532 325.435 60.08 325.668 60.0979 325.891C60.1158 326.106 60.1427 326.329 60.1606 326.544C56.7413 326.58 53.483 326.973 50.4397 327.662C38.5884 330.38 30.1295 337.783 29.0106 347.297C28.9748 347.583 28.948 347.887 28.9301 348.191C28.7958 350.605 29.1986 353.502 30.416 356.426C30.6845 357.07 30.9888 357.713 31.3379 358.348C31.517 358.661 31.696 358.983 31.8929 359.296C32.0898 359.609 32.2957 359.931 32.5105 360.244C32.7343 360.557 32.9581 360.87 33.1998 361.174C33.9248 362.095 34.7483 362.998 35.6882 363.865C38.3019 366.261 42.1867 368.693 47.808 369.981C48.3451 370.106 48.9001 370.222 49.4819 370.321C49.5893 370.339 49.6967 370.356 49.8041 370.374C50.1443 370.437 50.5023 370.482 50.8604 370.535C51.9166 370.687 53.0176 370.786 54.1812 370.848C54.5661 370.866 54.96 370.884 55.3628 370.902C55.7835 370.92 56.2221 370.92 56.6607 370.92C56.7771 370.92 56.9024 370.92 57.0187 370.911C57.3768 370.911 57.7527 370.893 58.1197 370.884C61.0289 370.795 64.2244 370.464 67.7512 369.793C67.7512 369.891 67.7422 369.981 67.7333 370.079C67.7333 370.178 67.7243 370.276 67.7154 370.365C67.6975 370.643 67.6796 370.92 67.6527 371.206C67.6437 371.349 67.6348 371.474 67.6169 371.617C67.6169 371.626 67.6169 371.751 67.59 371.984C67.5721 372.154 67.5542 372.386 67.5184 372.654C67.4737 373.03 67.411 373.477 67.3305 374.004C67.1425 375.176 66.8381 376.696 66.3637 378.35C65.7282 380.559 64.7794 383.008 63.383 385.217C63.1503 385.592 62.9086 385.995 62.6669 386.424C62.5506 386.639 62.4252 386.871 62.3089 387.104C62.2552 387.22 62.1925 387.336 62.1298 387.461C61.7718 388.185 61.4227 388.963 61.0915 389.786C59.9458 392.674 59.1044 396.152 59.2923 399.595C59.2923 399.613 59.2923 399.63 59.2923 399.648C59.355 400.909 59.5698 402.17 59.9458 403.395C60.2322 404.316 60.6171 405.228 61.1184 406.104C63.8306 410.87 69.3534 413.963 77.5706 415.376C78.4209 415.519 79.316 415.653 80.2201 415.761C80.6766 415.814 81.1421 415.868 81.6075 415.913C82.0819 415.966 82.5563 416.002 83.0397 416.038C83.532 416.073 84.0243 416.1 84.5166 416.136C85.0179 416.163 85.5192 416.19 86.0383 416.208C87.0677 416.243 88.1329 416.261 89.216 416.261C89.9231 416.261 90.6571 416.252 91.3911 416.234C91.6059 416.234 91.8029 416.234 92.0087 416.226L93.9511 416.181C99.1786 416.056 105.606 415.904 111.173 414.643C111.442 414.58 111.71 414.518 111.979 414.446C112.775 414.25 113.545 414.026 114.288 413.776C116.875 412.908 119.149 411.71 120.849 410.038C120.984 409.904 121.1 409.779 121.234 409.636C121.727 409.099 122.165 408.518 122.541 407.883C122.908 407.248 123.221 406.569 123.463 405.836C123.758 404.915 123.946 403.913 124.009 402.814C124.108 401.016 124.009 398.96 123.767 396.733C123.66 395.75 123.526 394.722 123.382 393.667C122.98 390.859 122.443 387.846 121.888 384.761C119.748 372.86 117.323 359.367 120.939 349.21C121.001 349.04 120.984 348.879 120.939 348.718C122.228 348.969 123.705 349.192 125.28 349.353C125.558 349.38 125.826 349.407 126.113 349.434C127.214 349.523 128.359 349.577 129.523 349.577C130.391 349.577 131.268 349.541 132.146 349.478C133.166 349.398 134.186 349.264 135.198 349.076C135.207 349.112 135.198 349.156 135.216 349.201C135.261 349.326 135.296 349.452 135.332 349.577C135.422 349.845 135.502 350.122 135.592 350.39C138.635 360.396 136.335 373.298 134.276 384.752C133.05 391.592 131.895 398.057 132.155 402.805C132.674 412.104 142.269 414.956 152.008 415.823C155.902 416.172 159.814 416.208 163.188 416.208C164.146 416.234 165.077 416.243 165.99 416.243C166.903 416.243 167.834 416.234 168.729 416.208C172.238 416.1 175.415 415.778 178.262 415.251C184.17 414.16 188.636 412.157 191.608 409.269C192.226 408.661 192.781 408.026 193.273 407.347C193.568 406.944 193.837 406.524 194.088 406.086C194.607 405.165 195.009 404.217 195.296 403.243C195.376 402.974 195.448 402.715 195.511 402.447C195.726 401.526 195.851 400.578 195.914 399.63V399.577C196.2 393.979 193.801 388.328 191.823 385.199C191.008 383.911 190.346 382.543 189.818 381.184C189.737 380.988 189.666 380.8 189.594 380.612C189.451 380.228 189.317 379.843 189.191 379.459C188.636 377.751 188.26 376.133 188.019 374.818C187.938 374.38 187.866 373.969 187.822 373.602C187.634 372.386 187.58 371.617 187.58 371.581C186.989 365.206 187.437 360.977 188.395 356.864C188.466 356.569 188.538 356.265 188.609 355.97C188.762 355.371 188.914 354.772 189.084 354.173C189.129 354.021 189.164 353.869 189.209 353.717C189.46 352.805 189.737 351.875 190.024 350.9C191.268 346.68 192.682 341.878 193.864 334.841C194.025 333.867 194.186 332.839 194.338 331.775C194.49 330.702 194.634 329.584 194.786 328.422C194.839 327.948 194.893 327.474 194.956 326.991C195.018 326.508 195.063 326.016 195.117 325.516C195.171 325.015 195.215 324.505 195.269 323.987C195.323 323.468 195.368 322.94 195.412 322.404C195.466 321.859 195.511 321.322 195.547 320.759C195.591 320.196 195.627 319.632 195.672 319.06C195.797 317.325 195.905 315.501 195.994 313.588C195.994 313.579 195.994 313.57 195.994 313.561C195.994 313.561 195.994 313.543 195.994 313.534C196.997 295.947 195.466 282.552 193.389 272.985C193.371 272.905 193.354 272.815 193.336 272.735C191.698 265.296 189.737 260.199 188.413 257.257C188.762 257.499 189.12 257.731 189.469 257.964C191.93 259.573 194.383 260.923 196.8 262.068C197.149 262.229 197.498 262.39 197.838 262.542C198.017 262.622 198.187 262.703 198.366 262.774C198.527 262.855 198.688 262.926 198.85 262.989C200.908 263.865 202.94 264.598 204.918 265.188C210.003 266.708 214.809 267.379 219.133 267.522C219.75 267.54 220.359 267.549 220.959 267.549C222.382 267.549 223.734 267.495 225.032 267.397C225.909 267.334 226.768 267.254 227.583 267.155C228.576 267.03 229.561 266.887 230.546 266.708C236.471 265.68 242.227 263.704 247.508 260.932C248.43 260.441 249.352 259.931 250.247 259.394C251.142 258.858 252.028 258.295 252.896 257.713C253.469 257.32 254.033 256.918 254.597 256.515C254.884 256.31 255.161 256.104 255.439 255.889C255.985 255.469 256.522 255.04 257.059 254.602C258.124 253.717 259.153 252.805 260.138 251.848C260.245 251.812 260.344 251.741 260.424 251.66C260.505 251.571 260.577 251.472 260.621 251.356C260.8 251.177 260.979 250.999 261.167 250.82C261.346 250.641 261.525 250.453 261.695 250.274C269.501 242.012 272.92 230.961 270.915 221.537L270.897 221.564ZM227.395 265.573C224.978 265.859 222.275 266.02 219.33 265.93C217.432 265.877 215.436 265.716 213.368 265.421C211.274 265.126 209.108 264.697 206.87 264.089C204.032 263.329 201.087 262.291 198.089 260.914C197.731 260.753 197.382 260.584 197.023 260.414C196.656 260.235 196.29 260.056 195.923 259.868C192.87 258.313 189.764 256.399 186.658 254.048C186.604 254.012 186.533 253.985 186.479 253.967C186.443 253.949 186.407 253.931 186.372 253.913C186.345 253.913 186.309 253.913 186.282 253.913C186.211 253.904 186.13 253.895 186.058 253.904C186.04 253.904 186.023 253.922 186.005 253.922C185.924 253.94 185.835 253.967 185.763 254.012H185.754C185.754 254.012 185.691 254.074 185.664 254.101C185.62 254.137 185.566 254.164 185.53 254.217C185.53 254.217 185.53 254.217 185.53 254.226C185.494 254.28 185.477 254.334 185.45 254.387C185.432 254.432 185.396 254.468 185.387 254.512C185.387 254.548 185.387 254.593 185.387 254.629C185.387 254.691 185.369 254.754 185.387 254.825C185.387 254.852 185.405 254.879 185.414 254.915C185.432 254.986 185.45 255.058 185.494 255.12V255.129C185.521 255.174 188.323 259.806 190.802 269.275C192.915 277.322 195.18 290.492 194.598 308.715C138.223 326.133 77.0156 312.846 63.2398 309.43C62.9444 309.359 62.6669 309.296 62.4163 309.224C62.103 309.144 61.8345 309.073 61.5928 309.01C61.1721 308.903 60.8409 308.813 60.644 308.76C60.1785 288.472 63.3024 273.584 65.9699 264.697C66.2653 263.704 66.5607 262.792 66.8381 261.952C67.1425 261.031 67.4379 260.208 67.7064 259.475C68.7626 256.632 69.5235 255.138 69.5503 255.085C69.7204 254.754 69.6488 254.351 69.3713 254.101C69.0938 253.851 68.6821 253.824 68.3777 254.039C67.9391 254.334 57.5379 261.531 52.3463 284.001C51.8002 286.397 51.2274 288.615 50.6366 290.68C36.1178 278.377 14.6262 281.551 7.95756 282.928C7.64427 282.991 7.36679 283.053 7.11615 283.107C7.08035 283.107 7.03559 283.125 7.00874 283.125C7.64427 277.519 8.75421 273.414 8.79002 273.307C19.4508 228.904 56.965 205.022 61.1363 202.483C61.2079 202.51 61.2795 202.536 61.3511 202.572C61.6644 202.697 61.9687 202.814 62.282 202.939C75.7445 208.33 90.8093 211.889 107.145 213.499C108.362 215.206 114.225 222.252 128.073 222.252C141.482 222.252 146.459 215.644 147.667 213.624C163.251 212.184 177.698 209.001 190.731 204.155C192.53 207.079 200.523 218.837 213.816 220.383C217.28 220.786 220.108 220.428 222.579 219.623C223.215 219.418 223.823 219.167 224.414 218.899C225.005 218.64 225.587 218.354 226.142 218.041C226.276 217.96 226.428 217.889 226.571 217.808C226.571 217.862 226.589 217.933 226.598 217.987C226.634 218.211 226.67 218.479 226.723 218.792C226.759 219.033 226.813 219.31 226.876 219.597C228.218 226.49 234.144 246.394 258.079 251.553C249.853 259.135 238.861 264.196 227.404 265.546L227.395 265.573Z" fill="#413D3C"/>
<path d="M50.6546 170.401C50.7441 170.607 50.9142 170.759 51.1201 170.83C60.0623 179.11 71.6719 185.843 85.1255 190.439C85.1971 190.474 85.2687 190.501 85.3492 190.519C98.1673 194.874 112.641 197.306 128.064 197.306C182.227 197.306 224.656 167.343 224.647 129.11C224.647 110.306 214.299 91.5296 196.272 77.5811C177.788 63.2839 153.557 55.4155 128.046 55.4155C101.739 55.4155 77.517 62.5776 59.8385 75.5783C41.5334 89.035 31.4544 108.053 31.4634 129.137C31.4634 144.766 38.5616 159.01 50.6546 170.392V170.401ZM53.331 170.66C58.6301 170.258 74.4915 170.669 83.8544 188.284C71.9225 183.983 61.5392 177.966 53.331 170.66ZM170.421 188.919C180.876 168.407 199.53 170.294 202.645 170.777C194.034 178.395 183.06 184.609 170.421 188.919ZM60.8052 76.8926C78.2062 64.0976 102.088 57.0518 128.046 57.0518C153.199 57.0518 177.08 64.795 195.278 78.8776C212.912 92.5131 223.018 110.825 223.027 129.119C223.027 144.489 215.946 158.491 203.907 169.641C203.791 169.453 203.612 169.31 203.379 169.266C203.137 169.221 197.444 168.139 190.248 170.07C183.606 171.85 174.422 176.642 168.371 189.384C168.335 189.464 168.317 189.553 168.308 189.634C156.153 193.523 142.538 195.687 128.073 195.696C112.91 195.696 98.6775 193.327 86.0832 189.071C75.3777 166.986 55.1212 168.747 51.7377 169.212C39.9938 158.143 33.1014 144.31 33.1014 129.155C33.1014 108.599 42.9387 90.0454 60.8142 76.9016L60.8052 76.8926Z" fill="#8C8C8C"/>
<path d="M128.064 175.534C130.758 175.534 132.942 174.237 132.942 172.637C132.942 171.036 130.758 169.74 128.064 169.74C125.37 169.74 123.186 171.036 123.186 172.637C123.186 174.237 125.37 175.534 128.064 175.534Z" fill="#8C8C8C"/>
<path d="M76.7832 155.049C77.1233 155.049 77.4455 155.058 77.7767 155.058C90.1024 155.058 95.1151 149.157 95.3299 148.897C95.7596 148.379 95.679 147.619 95.1688 147.189C94.6496 146.76 93.8798 146.832 93.4502 147.341C93.4054 147.395 88.6076 152.93 76.8458 152.608C65.0124 152.313 59.6149 146.501 59.5343 146.411C59.0868 145.911 58.317 145.866 57.8157 146.313C57.3144 146.76 57.2697 147.529 57.7083 148.03C57.95 148.307 63.7861 154.709 76.7742 155.04L76.7832 155.049Z" fill="#8C8C8C"/>
<path d="M178.352 155.049C178.674 155.049 179.005 155.049 179.345 155.04C192.334 154.709 198.17 148.298 198.411 148.021C198.859 147.52 198.814 146.743 198.304 146.304C197.803 145.857 197.024 145.902 196.585 146.412C196.532 146.474 191.224 152.304 179.283 152.608C167.494 152.894 162.723 147.404 162.678 147.351C162.249 146.832 161.479 146.76 160.96 147.19C160.441 147.619 160.369 148.388 160.799 148.906C161.013 149.166 166.026 155.067 178.352 155.067V155.049Z" fill="#8C8C8C"/>
<path d="M270.897 221.563C270.584 220.106 270.145 218.693 269.572 217.334C269.044 216.073 268.409 214.902 267.693 213.82C267.487 213.507 267.281 213.203 267.057 212.908C266.833 212.613 266.61 212.327 266.377 212.05C266.028 211.63 265.661 211.227 265.276 210.843C264.381 209.949 263.414 209.144 262.367 208.447C262.071 208.25 261.758 208.053 261.445 207.874C260.827 207.508 260.183 207.168 259.511 206.882C258.679 206.506 257.811 206.193 256.907 205.925C256.522 205.818 256.128 205.71 255.725 205.63C255.322 205.541 254.928 205.46 254.517 205.389C253.693 205.254 252.861 205.147 252.001 205.094C251.59 205.058 251.178 205.04 250.748 205.031C241.188 204.87 236.086 208.831 231.109 212.658C228.344 214.795 225.667 216.842 222.319 217.996C222.122 218.058 221.917 218.13 221.711 218.193C221.487 218.255 221.254 218.327 221.021 218.389C220.816 218.443 220.61 218.488 220.404 218.541C219.697 218.693 218.972 218.809 218.202 218.872C216.913 218.979 215.525 218.97 214.013 218.792C212.616 218.631 211.283 218.345 210.003 217.951C209.689 217.853 209.367 217.754 209.063 217.647C207.98 217.263 206.923 216.816 205.939 216.315C205.652 216.163 205.375 216.02 205.097 215.868C202.197 214.276 199.727 212.255 197.74 210.279C197.552 210.092 197.364 209.904 197.185 209.716C196.289 208.786 195.484 207.874 194.804 207.034C194.535 206.703 194.275 206.372 194.034 206.068C193.917 205.907 193.801 205.755 193.694 205.612C193.479 205.317 193.282 205.04 193.094 204.781C192.995 204.646 192.915 204.53 192.834 204.405H192.297V202.778H194.311C203.97 198.879 212.813 194.042 220.672 188.275C224.96 185.136 228.881 181.748 232.434 178.144C247.812 162.56 256.128 142.996 256.128 121.778C256.128 112.032 254.973 102.84 252.7 94.2835C252.162 92.2627 251.572 90.2867 250.9 88.3464C250.569 87.3807 250.22 86.4151 249.862 85.4584C249.683 84.9845 249.495 84.5017 249.307 84.0367C248.743 82.6151 248.143 81.2201 247.508 79.8432C246.872 78.4662 246.201 77.1161 245.494 75.7839C245.019 74.8897 244.536 74.0134 244.035 73.1372C244.017 73.0835 243.999 73.021 243.972 72.9405C243.954 72.86 243.918 72.7617 243.883 72.6544C243.865 72.6008 243.847 72.5381 243.829 72.4755C243.766 72.2878 243.704 72.0642 243.623 71.8049C243.471 71.2953 243.283 70.6604 243.059 69.9094C242.952 69.5338 242.835 69.1315 242.719 68.7113C242.477 67.8618 242.218 66.9051 241.931 65.8679C240.58 60.8428 238.861 53.806 237.671 46.5635C237.509 45.5621 237.357 44.5607 237.214 43.5593C236.999 42.0571 236.82 40.555 236.668 39.0707C236.614 38.57 236.57 38.0782 236.525 37.5953C236.319 35.1812 235.979 32.7313 235.495 30.2903C233.723 21.2596 230.062 12.4077 224.503 6.69414C224.351 6.54213 224.208 6.39012 224.047 6.23812C221.603 3.8329 218.811 2.03567 215.669 1.07895C215.427 1.00742 215.176 0.953805 214.935 0.891216C214.111 0.667682 213.279 0.479927 212.455 0.345807C211.802 0.238511 211.148 0.140121 210.495 0.0864731C210.28 0.0685905 210.056 0.0506641 209.842 0.0417228C201.23 -0.414286 192.36 3.85976 182.37 13.2035C177.045 18.1838 172.972 21.3669 168.487 22.7706C167.637 23.0389 166.76 23.2446 165.874 23.3787C164.182 23.638 162.4 23.6827 160.44 23.486C160.172 23.4592 159.894 23.4234 159.617 23.3877H159.572C150.406 22.0107 140.721 21.2774 130.74 21.1612C129.845 21.1522 128.95 21.1434 128.055 21.1434C117.126 21.1434 106.519 21.9033 96.538 23.4054C96.1979 23.4412 95.8756 23.468 95.5444 23.5038C94.1391 23.6379 92.8143 23.6558 91.5612 23.5485C85.3401 23.021 80.5602 19.5964 73.7395 13.2212C67.1962 7.09643 61.1273 3.17123 55.3001 1.31143C53.1608 0.622949 51.0662 0.220602 48.9806 0.0954232C46.5459 -0.0565796 44.147 0.166945 41.7481 0.757074C41.3095 0.86437 40.8798 0.97167 40.4412 1.09685C34.1486 3.0103 29.2613 8.28564 25.7882 15.0185C25.3586 15.859 24.9379 16.7173 24.553 17.6025C24.1681 18.4877 23.7921 19.3908 23.452 20.3028C23.2819 20.7588 23.1118 21.2238 22.9507 21.6888C22.4674 23.0836 22.0287 24.5053 21.6439 25.9538C21.3932 26.9105 21.1515 27.8851 20.9367 28.8598C20.3012 31.7836 19.8536 34.7341 19.6119 37.6222C19.2449 42.0124 18.5289 46.6261 17.6695 51.0163C17.2936 52.9745 16.8908 54.879 16.479 56.703C15.763 59.904 15.02 62.8547 14.3487 65.3493C14.2502 65.707 14.1607 66.0557 14.0622 66.3955C13.8832 67.075 13.7042 67.7099 13.5431 68.3C13.4625 68.5951 13.373 68.8811 13.3014 69.1494C13.2656 69.2835 13.2208 69.4176 13.185 69.5517C13.1134 69.811 13.0418 70.0614 12.9702 70.3028C12.8359 70.7767 12.7106 71.1969 12.6032 71.5724C12.5495 71.7513 12.4958 71.9302 12.451 72.0822C12.4331 72.1626 12.4063 72.2342 12.3884 72.3057C12.3257 72.5203 12.2631 72.6991 12.2183 72.8421C12.1735 72.9941 12.1377 73.1014 12.1198 73.173C11.8692 73.6111 11.6186 74.0492 11.3769 74.4873C10.1595 76.6869 9.04065 78.9491 8.02022 81.2649C7.82329 81.7299 7.61742 82.1948 7.42049 82.6597C6.82972 84.0635 6.27475 85.4941 5.75558 86.9337C5.41544 87.8994 5.07529 88.874 4.762 89.8575C4.44872 90.8411 4.14438 91.8246 3.86689 92.826C3.58046 93.8274 3.32087 94.8289 3.06129 95.8482C1.01148 103.922 0 112.604 0 121.778C0 138.91 5.42439 154.968 15.6197 168.72C16.1031 169.373 16.6044 170.026 17.1056 170.669C17.6158 171.313 18.135 171.948 18.6542 172.583C20.2385 174.478 21.9213 176.329 23.6937 178.135C27.2473 181.73 31.1768 185.118 35.4644 188.257C42.6343 193.514 50.6008 198.003 59.2744 201.714C53.0176 205.71 27.5068 223.387 13.561 254.333C12.7912 256.05 12.0482 257.812 11.35 259.609C10.8846 260.807 10.437 262.032 10.0074 263.275C9.79254 263.892 9.58667 264.518 9.38079 265.143C8.56624 267.656 7.83224 270.24 7.19671 272.896C6.97294 273.709 2.3631 290.635 6.85657 303.377C6.99084 303.752 7.13406 304.119 7.27727 304.494C7.57266 305.228 7.90385 305.952 8.27085 306.649C8.53938 307.168 8.84372 307.686 9.15701 308.187C9.26443 308.357 9.37184 308.518 9.48821 308.679C9.63142 308.894 9.77464 309.09 9.91786 309.296C12.1377 312.318 15.0737 314.473 18.69 315.769C20.3728 316.369 22.1988 316.78 24.1681 316.994C25.9314 317.191 27.5874 317.254 29.1628 317.191C31.6781 317.084 33.9606 316.628 36.0373 315.796C43.0997 312.971 47.8796 305.746 51.7555 292.611C51.8629 292.459 51.9255 292.272 51.9076 292.093C52.5969 289.696 53.2682 287.13 53.9127 284.341C54.772 280.639 55.7745 277.357 56.8576 274.469C57.1262 273.745 57.4036 273.048 57.6811 272.368C57.8154 272.028 57.9676 271.698 58.1018 271.367C58.5225 270.383 58.9522 269.462 59.3818 268.586C59.9547 267.424 60.5365 266.342 61.1094 265.349C61.5391 264.598 61.9687 263.901 62.3894 263.257C63.938 260.878 65.3881 259.099 66.5517 257.847C66.5517 257.847 66.5547 257.844 66.5607 257.838C66.4443 258.134 66.3279 258.447 66.2026 258.768C65.8714 259.636 65.5223 260.637 65.1464 261.764C65.0479 262.05 64.9584 262.336 64.8599 262.631C64.7257 263.078 64.5735 263.543 64.4303 264.017C64.1349 264.983 63.8395 266.029 63.5352 267.137C63.4546 267.424 63.383 267.71 63.3024 268.005C63.1503 268.595 62.9981 269.203 62.8459 269.82C62.7743 270.133 62.6938 270.455 62.6222 270.777C60.268 280.791 58.2361 295.204 59.1491 313.624C59.2923 316.512 59.4714 319.176 59.6772 321.653C59.7846 322.887 59.8921 324.076 60.0084 325.211C60.0353 325.435 60.0621 325.667 60.08 325.891C60.0979 326.106 60.1248 326.329 60.1516 326.544C56.7323 326.579 53.4741 326.973 50.4307 327.661C38.5794 330.38 30.1206 337.783 29.0017 347.297C28.9659 347.583 28.939 347.887 28.9211 348.191C28.7869 350.605 29.1897 353.502 30.407 356.426C30.6755 357.069 30.9799 357.704 31.329 358.348C31.508 358.661 31.687 358.983 31.8839 359.296C32.0809 359.609 32.2868 359.931 32.5016 360.244C32.7254 360.557 32.9491 360.869 33.1908 361.173C33.9159 362.094 34.7394 362.998 35.6792 363.865C38.293 366.261 42.1778 368.693 47.7991 369.981C48.3361 370.106 48.9001 370.222 49.4729 370.32C49.5803 370.338 49.6878 370.356 49.7952 370.374C50.1353 370.437 50.4934 370.482 50.8514 370.535C51.9076 370.687 53.0086 370.785 54.1723 370.848C54.5572 370.866 54.951 370.884 55.3538 370.902C55.7835 370.911 56.2221 370.92 56.6607 370.92C56.7771 370.92 56.8934 370.92 57.0187 370.92C57.3768 370.92 57.7527 370.902 58.1197 370.893C61.0289 370.803 64.2244 370.473 67.7512 369.802C67.7512 369.9 67.7333 369.99 67.7243 370.088C67.7243 370.186 67.7154 370.285 67.7064 370.374C67.6885 370.651 67.6706 370.928 67.6437 371.215C67.6258 371.358 67.6258 371.483 67.6079 371.626C67.6079 371.635 67.599 371.76 67.5721 371.992C67.5542 372.162 67.5363 372.395 67.5005 372.663C67.4558 373.039 67.3931 373.486 67.3125 374.013C67.1246 375.185 66.8202 376.705 66.3458 378.359C65.7103 380.567 64.7615 383.017 63.3651 385.226C63.1324 385.601 62.8907 386.004 62.649 386.433C62.5326 386.647 62.4073 386.88 62.291 387.112C62.2373 387.229 62.1746 387.345 62.1119 387.47C61.7539 388.194 61.4048 388.963 61.0736 389.795C59.9368 392.683 59.0954 396.152 59.2744 399.603C59.2744 399.621 59.2744 399.639 59.2744 399.657C59.346 400.918 59.5519 402.178 59.9279 403.403C60.2143 404.324 60.5992 405.236 61.1005 406.113C63.8127 410.878 69.3355 413.972 77.5527 415.385C78.403 415.528 79.2981 415.662 80.2022 415.769C80.6587 415.823 81.1242 415.877 81.5896 415.921C82.064 415.975 82.5384 416.011 83.0218 416.046C83.5141 416.082 84.0064 416.109 84.4987 416.145C85 416.172 85.5013 416.199 86.0204 416.216C87.0498 416.252 88.115 416.27 89.1981 416.27C89.9052 416.27 90.6392 416.261 91.3732 416.243C91.588 416.243 91.785 416.243 91.9908 416.234L93.9332 416.19C99.1607 416.064 105.588 415.912 111.155 414.652C111.424 414.589 111.692 414.527 111.961 414.455C112.757 414.258 113.527 414.035 114.27 413.784C116.857 412.917 119.131 411.719 120.831 410.047C120.966 409.913 121.082 409.788 121.216 409.645C121.718 409.108 122.156 408.527 122.523 407.892C122.899 407.257 123.212 406.578 123.445 405.844C123.741 404.924 123.928 403.922 123.991 402.822C124.09 401.025 123.991 398.969 123.749 396.742C123.642 395.75 123.517 394.73 123.365 393.675C122.962 390.868 122.425 387.854 121.87 384.77C119.73 372.869 117.305 359.376 120.921 349.219C120.984 349.049 120.975 348.888 120.921 348.727C122.21 348.978 123.687 349.201 125.262 349.362C125.54 349.389 125.808 349.416 126.095 349.442C127.196 349.532 128.341 349.586 129.505 349.586C130.373 349.586 131.251 349.55 132.128 349.487C133.148 349.407 134.169 349.273 135.18 349.085C135.189 349.121 135.18 349.165 135.198 349.21C135.243 349.335 135.279 349.46 135.314 349.586C135.413 349.854 135.484 350.131 135.574 350.399C138.617 360.405 136.317 373.307 134.258 384.761C133.032 391.601 131.877 398.066 132.137 402.813C132.656 412.112 142.251 414.965 151.99 415.832C155.884 416.181 159.796 416.216 163.17 416.216C164.128 416.243 165.059 416.252 165.972 416.252C166.885 416.252 167.816 416.243 168.711 416.216C172.22 416.109 175.398 415.787 178.244 415.26C184.152 414.169 188.618 412.166 191.59 409.278C192.208 408.67 192.763 408.035 193.255 407.356C193.55 406.953 193.819 406.533 194.07 406.095C194.589 405.174 194.992 404.226 195.278 403.251C195.359 402.983 195.43 402.724 195.493 402.456C195.717 401.526 195.842 400.587 195.896 399.639V399.586C196.191 393.988 193.783 388.337 191.805 385.208C190.99 383.92 190.328 382.552 189.791 381.193C189.71 380.996 189.639 380.809 189.567 380.621C189.424 380.236 189.29 379.852 189.164 379.468C188.609 377.76 188.233 376.141 187.992 374.827C187.911 374.389 187.849 373.978 187.795 373.611C187.616 372.395 187.571 371.626 187.562 371.59C186.971 365.206 187.419 360.986 188.377 356.873C188.448 356.578 188.52 356.274 188.592 355.979C188.744 355.38 188.905 354.78 189.066 354.181C189.111 354.029 189.146 353.877 189.191 353.725C189.451 352.813 189.719 351.875 190.015 350.909C191.259 346.689 192.673 341.887 193.846 334.85C194.016 333.876 194.177 332.847 194.32 331.783C194.472 330.71 194.625 329.593 194.768 328.43C194.821 327.956 194.875 327.483 194.938 327C195.001 326.517 195.045 326.025 195.099 325.524C195.153 325.024 195.197 324.514 195.251 323.995C195.305 323.477 195.35 322.949 195.394 322.413C195.448 321.867 195.493 321.331 195.529 320.768C195.573 320.204 195.618 319.641 195.654 319.069C195.779 317.334 195.887 315.51 195.976 313.597C195.976 313.588 195.976 313.579 195.976 313.57V313.543C196.979 295.955 195.448 282.561 193.371 272.994C193.354 272.914 193.336 272.824 193.318 272.744C191.689 265.304 189.728 260.199 188.395 257.266C188.744 257.499 189.102 257.74 189.451 257.964C191.912 259.573 194.365 260.923 196.782 262.068C197.131 262.229 197.48 262.39 197.82 262.542C197.999 262.622 198.169 262.703 198.348 262.774C198.509 262.846 198.679 262.917 198.841 262.989C200.899 263.865 202.922 264.598 204.909 265.188C209.994 266.708 214.8 267.379 219.124 267.522C219.741 267.54 220.35 267.549 220.95 267.549C222.373 267.549 223.725 267.495 225.023 267.397C225.9 267.334 226.759 267.254 227.574 267.155C228.567 267.03 229.552 266.887 230.537 266.708C236.462 265.68 242.218 263.704 247.499 260.932C248.421 260.44 249.343 259.931 250.238 259.394C251.133 258.858 252.019 258.294 252.888 257.713C253.46 257.329 254.033 256.926 254.588 256.515C254.875 256.31 255.152 256.104 255.43 255.889C255.976 255.478 256.513 255.04 257.05 254.602C258.115 253.717 259.144 252.804 260.129 251.848C260.236 251.812 260.335 251.74 260.415 251.66C260.496 251.58 260.568 251.472 260.612 251.356C260.791 251.177 260.97 250.998 261.158 250.82C261.337 250.641 261.516 250.453 261.686 250.274C269.492 242.012 272.911 230.961 270.897 221.537V221.563ZM36.4401 186.952C34.4798 185.512 32.6 184.019 30.8009 182.49C30.5502 182.275 30.3085 182.079 30.0669 181.864C29.8968 181.712 29.7267 181.569 29.5656 181.417C12.818 166.664 3.1329 147.654 1.79918 126.785C1.79918 126.732 1.79023 126.678 1.79023 126.633C1.74547 125.954 1.71862 125.265 1.69176 124.577C1.69176 124.452 1.68281 124.335 1.67386 124.21C1.65596 123.405 1.63806 122.592 1.63806 121.787C1.63806 103.69 5.63922 87.5686 13.5431 73.8794C13.5699 73.8257 13.5968 73.772 13.6147 73.7184C13.8653 72.9137 19.8357 53.8865 21.2052 37.7205C22.5658 21.6172 28.5899 10.8608 35.2406 5.67481C37.1114 4.21737 39.027 3.19803 40.9067 2.62578C41.3632 2.49166 41.8197 2.36656 42.2852 2.25927C44.0038 1.84797 45.7314 1.62436 47.4858 1.62436C55.3001 1.62436 63.4457 5.79102 72.6295 14.3658C82.5116 23.6022 88.1329 26.0789 96.7618 24.9791C106.68 23.4949 117.206 22.7348 128.055 22.7348C138.904 22.7348 149.43 23.4859 159.366 24.9702C162.785 25.3994 165.73 25.2653 168.666 24.3622C169.445 24.1298 170.215 23.8436 171.003 23.5038C171.737 23.173 172.479 22.7886 173.231 22.3594C176.275 20.6158 179.542 18.0227 183.48 14.3389C190.883 7.41832 197.614 3.37685 204.041 2.06247C205.088 1.84788 206.136 1.72274 207.165 1.65121C208.114 1.58862 209.054 1.58861 209.985 1.64226C211.73 1.74955 213.476 2.0536 215.194 2.58114C223.743 5.17413 233.15 17.0393 234.905 37.6759C236.283 53.9044 242.254 72.869 242.504 73.6737C242.522 73.7274 242.549 73.781 242.576 73.8346C250.489 87.5238 254.49 103.645 254.499 121.742C254.499 147.315 242.146 170.464 219.706 186.925C211.229 193.139 201.615 198.28 191.017 202.304C190.901 202.313 190.776 202.34 190.668 202.402C190.632 202.42 190.614 202.456 190.588 202.474C177.617 207.347 163.197 210.557 147.622 212.005C147.613 212.005 147.604 211.987 147.595 211.987C147.318 211.862 147.005 211.907 146.772 212.086C140.703 212.622 134.473 212.899 128.073 212.899C121.127 212.899 114.36 212.577 107.807 211.951C107.754 211.934 107.7 211.934 107.646 211.934C91.776 210.387 77.1141 207.007 63.9827 201.884C63.1861 201.571 62.3984 201.258 61.6107 200.936C61.4943 200.837 61.3511 200.784 61.1989 200.766C52.1404 197.002 43.8516 192.388 36.4311 186.952H36.4401ZM145.581 213.811C143.737 216.181 138.859 220.625 128.073 220.625C117.349 220.625 111.683 216.091 109.446 213.722C115.497 214.249 121.709 214.518 128.073 214.518C134.043 214.518 139.888 214.276 145.581 213.811ZM24.365 315.403C22.4315 315.188 20.6771 314.759 19.048 314.16C15.6287 312.89 12.8717 310.78 10.8577 307.812C10.6877 307.552 10.5265 307.284 10.3654 307.016C6.50748 300.659 6.20314 291.869 6.82077 284.85C6.85657 284.841 6.90133 284.832 6.92818 284.823C7.15196 284.77 7.42049 284.707 7.76959 284.636C13.5878 283.366 35.7598 279.637 50.1264 292.397C43.8964 313.069 35.7687 316.664 24.365 315.403ZM48.0587 368.398C44.3887 367.54 41.5333 366.181 39.3044 364.67C38.3646 364.035 37.5142 363.364 36.7892 362.711C33.6205 359.806 31.866 356.417 31.0694 353.269C30.5323 351.168 30.4249 349.174 30.6218 347.502C30.7024 346.796 30.8367 346.098 31.0067 345.41C32.0451 341.342 34.6857 337.738 38.4541 334.886C41.6675 332.445 45.7135 330.549 50.2875 329.414C53.4204 328.636 56.795 328.198 60.3396 328.18C61.6465 339.097 63.5352 345.508 65.1374 350.945C66.8113 356.631 68.0823 360.95 67.8228 368.148C59.4893 369.784 53.0355 369.552 48.0497 368.389L48.0587 368.398ZM188.475 350.48C186.497 357.204 185.065 362.059 185.96 371.742C185.978 372.073 186.497 379.87 190.444 386.102C193.022 390.161 196.388 398.781 192.673 405.317C189.003 411.764 179.434 414.893 164.271 414.625C164.244 414.625 164.227 414.616 164.2 414.616C160.718 414.616 156.493 414.616 152.313 414.249C150.325 414.079 148.356 413.82 146.476 413.445C145.143 413.176 143.863 412.846 142.654 412.443C137.713 410.789 134.07 407.883 133.784 402.76C133.524 398.209 134.679 391.833 135.887 385.092C137.946 373.611 140.255 360.691 137.284 350.381C137.203 350.113 137.114 349.845 137.024 349.577C136.943 349.317 136.872 349.04 136.773 348.781C136.782 348.781 136.791 348.781 136.809 348.781C138.071 348.45 139.298 348.012 140.452 347.449C140.855 347.252 141.025 346.76 140.828 346.358C140.631 345.955 140.139 345.794 139.736 345.991C135.341 348.155 129.827 348.253 125.235 347.761C125.182 347.761 125.119 347.753 125.065 347.744C120.124 347.198 116.302 345.973 116.222 345.955C115.792 345.812 115.344 346.054 115.192 346.474C115.058 346.903 115.291 347.35 115.711 347.502C115.89 347.556 117.349 348.021 119.542 348.504C119.489 348.566 119.435 348.647 119.408 348.736C115.658 359.296 118.119 373.012 120.294 385.118C121.503 391.869 122.648 398.235 122.398 402.787C121.78 413.963 105.015 414.348 93.9153 414.607L91.964 414.661C86.5396 414.813 81.8313 414.526 77.8033 413.838C75.0463 413.364 72.6206 412.702 70.526 411.835C68.6194 411.057 66.9903 410.109 65.6476 409.001C64.3497 407.937 63.2935 406.73 62.5147 405.362C58.8 398.834 62.1656 390.215 64.7436 386.156C68.691 379.915 69.2102 372.118 69.2191 371.823C69.246 371.554 69.2639 371.295 69.2818 371.036C69.2997 370.75 69.3266 370.473 69.3445 370.195C69.3624 369.909 69.3803 369.641 69.3892 369.364C69.8457 361.245 68.5031 356.658 66.6949 350.533C65.0837 345.07 63.1861 338.632 61.8971 327.527C61.8971 327.509 61.9061 327.474 61.915 327.456C61.915 327.438 61.915 327.429 61.924 327.411C61.924 327.286 61.8882 327.17 61.8434 327.071C61.8255 326.937 61.8166 326.785 61.7987 326.651C61.7718 326.383 61.736 326.123 61.7091 325.846C61.3332 322.27 61.011 318.228 60.7782 313.606C60.7245 312.551 60.6887 311.513 60.6529 310.485C60.9035 310.557 61.2347 310.637 61.6196 310.735C61.8613 310.798 62.1388 310.861 62.4342 310.941C62.6938 311.004 62.9623 311.075 63.2577 311.147C65.8535 311.782 69.8815 312.703 75.0732 313.695C75.1806 314.929 75.4223 317.182 75.7356 317.871C75.7982 318.023 75.9504 318.112 76.1115 318.112C76.1652 318.112 76.2189 318.103 76.2726 318.076C76.4785 317.978 76.568 317.745 76.4875 317.54C76.2726 317.057 76.0578 315.322 75.9235 313.847C88.9385 316.306 108.801 319.131 131.43 319.131C144.785 319.131 159.098 318.13 173.527 315.501C173.401 316.69 173.187 318.711 173.008 319.793C172.972 320.017 173.124 320.222 173.348 320.267C173.366 320.267 173.392 320.267 173.41 320.267C173.607 320.267 173.777 320.124 173.813 319.927C174.01 318.729 174.243 316.494 174.359 315.349C181.09 314.097 187.84 312.479 194.526 310.44C194.481 311.478 194.437 312.533 194.374 313.606C194.374 313.624 194.374 313.641 194.374 313.659C193.38 333.876 190.659 343.094 188.475 350.507V350.48ZM227.395 265.573C224.978 265.859 222.275 266.02 219.33 265.93C217.432 265.877 215.436 265.716 213.368 265.421C211.274 265.126 209.108 264.696 206.87 264.088C204.032 263.328 201.087 262.291 198.089 260.914C197.731 260.753 197.382 260.583 197.023 260.414C196.656 260.235 196.289 260.056 195.922 259.868C192.87 258.312 189.764 256.399 186.658 254.047C186.604 254.012 186.533 253.985 186.479 253.967C186.443 253.949 186.407 253.931 186.372 253.913C186.345 253.913 186.309 253.913 186.282 253.913C186.211 253.904 186.13 253.895 186.058 253.904C186.04 253.904 186.023 253.922 186.005 253.922C185.924 253.94 185.835 253.967 185.763 254.012H185.754C185.754 254.012 185.691 254.074 185.664 254.101C185.62 254.137 185.566 254.164 185.53 254.217C185.53 254.217 185.53 254.217 185.53 254.226C185.494 254.28 185.477 254.333 185.45 254.387C185.432 254.432 185.396 254.468 185.387 254.512C185.387 254.548 185.387 254.593 185.387 254.629C185.387 254.691 185.369 254.754 185.387 254.825C185.387 254.852 185.405 254.879 185.414 254.915C185.432 254.986 185.45 255.058 185.494 255.12V255.129C185.521 255.174 188.323 259.806 190.802 269.274C192.915 277.322 195.18 290.492 194.598 308.715C138.223 326.132 77.0156 312.846 63.2398 309.43C62.9444 309.358 62.6669 309.296 62.4163 309.224C62.103 309.144 61.8345 309.072 61.5928 309.01C61.1721 308.902 60.8409 308.813 60.644 308.759C60.1785 288.471 63.3024 273.584 65.9699 264.696C66.2653 263.704 66.5607 262.792 66.8381 261.951C67.1425 261.031 67.4379 260.208 67.7064 259.475C68.7626 256.631 69.5235 255.138 69.5503 255.084C69.7204 254.754 69.6488 254.351 69.3713 254.101C69.0938 253.851 68.6821 253.824 68.3777 254.038C67.9391 254.333 57.5379 261.531 52.3462 284.001C51.8002 286.397 51.2274 288.615 50.6366 290.68C36.1178 278.377 14.6262 281.551 7.95756 282.928C7.64427 282.99 7.36679 283.053 7.11615 283.107C7.08035 283.107 7.03559 283.125 7.00874 283.125C7.64427 277.518 8.75421 273.414 8.79002 273.307C19.4508 228.904 56.965 205.022 61.1363 202.483C61.2079 202.509 61.2795 202.536 61.3511 202.572C61.6644 202.697 61.9687 202.813 62.282 202.939C75.7445 208.33 90.8093 211.889 107.145 213.498C108.362 215.206 114.225 222.252 128.073 222.252C141.482 222.252 146.459 215.644 147.667 213.623C163.251 212.184 177.698 209.001 190.731 204.155C192.53 207.078 200.523 218.836 213.816 220.383C217.28 220.786 220.108 220.428 222.579 219.623C223.215 219.418 223.823 219.167 224.414 218.899C225.005 218.64 225.587 218.354 226.142 218.041C226.276 217.96 226.428 217.889 226.571 217.808C226.571 217.862 226.589 217.933 226.598 217.987C226.634 218.21 226.67 218.479 226.723 218.792C226.759 219.033 226.813 219.31 226.876 219.596C228.218 226.49 234.144 246.394 258.079 251.553C249.853 259.135 238.861 264.196 227.404 265.546L227.395 265.573ZM260.496 249.192C260.165 249.532 259.834 249.872 259.493 250.211C235.666 245.634 229.803 226.088 228.487 219.373C228.433 219.078 228.379 218.809 228.335 218.568C228.281 218.255 228.236 217.978 228.209 217.763C228.156 217.361 228.129 217.129 228.129 217.102C228.129 217.03 228.093 216.959 228.066 216.887C229.444 215.975 230.76 214.965 232.094 213.937C236.194 210.771 240.419 207.517 247.257 206.792C248.027 206.712 248.833 206.667 249.674 206.649C249.844 206.649 250.005 206.64 250.175 206.64C250.345 206.64 250.533 206.64 250.712 206.64C251.205 206.64 251.697 206.676 252.18 206.712C259.538 207.302 265.285 211.344 268.078 217.969C272.124 227.563 269.08 240.108 260.505 249.192H260.496Z" fill="#8C8C8C"/>
<path d="M258.07 251.571C249.844 259.153 238.852 264.214 227.395 265.564C224.978 265.85 222.275 266.011 219.33 265.921C217.432 265.868 215.436 265.707 213.368 265.412C211.274 265.117 209.108 264.687 206.87 264.079C204.032 263.319 201.087 262.282 198.089 260.905C197.731 260.744 197.382 260.574 197.024 260.405C196.657 260.226 196.29 260.047 195.923 259.859C192.87 258.303 189.764 256.39 186.658 254.038C186.604 254.003 186.533 253.976 186.479 253.958C186.443 253.94 186.408 253.922 186.372 253.904C186.345 253.904 186.309 253.904 186.282 253.904C186.211 253.895 186.13 253.886 186.058 253.895C186.04 253.895 186.023 253.913 186.005 253.913C185.924 253.931 185.835 253.958 185.763 254.003H185.754C185.754 254.003 185.691 254.065 185.665 254.092C185.62 254.128 185.566 254.155 185.53 254.208C185.53 254.208 185.53 254.208 185.53 254.217C185.494 254.271 185.477 254.325 185.45 254.378C185.432 254.423 185.396 254.459 185.387 254.503C185.387 254.539 185.387 254.584 185.387 254.62C185.387 254.682 185.369 254.745 185.387 254.816C185.387 254.843 185.405 254.87 185.414 254.906C185.432 254.977 185.45 255.049 185.494 255.111V255.12C185.521 255.165 188.323 259.797 190.803 269.266C192.915 277.313 195.18 290.483 194.598 308.706C138.224 326.123 77.0156 312.837 63.2398 309.421C62.9444 309.349 62.667 309.287 62.4163 309.215C62.103 309.135 61.8345 309.063 61.5928 309.001C61.1721 308.893 60.8409 308.804 60.644 308.75C60.1785 288.462 63.3025 273.575 65.9699 264.688C66.2653 263.695 66.5607 262.783 66.8382 261.942C67.1425 261.022 67.4379 260.199 67.7065 259.466C68.7627 256.622 69.5235 255.129 69.5504 255.076C69.7205 254.745 69.6488 254.342 69.3714 254.092C69.0939 253.842 68.6821 253.815 68.3778 254.029C67.9392 254.324 57.538 261.522 52.3463 283.992C51.8003 286.388 51.2274 288.606 50.6366 290.671C36.1179 278.368 14.6262 281.542 7.95761 282.919C7.64432 282.981 7.36683 283.044 7.1162 283.098C7.0804 283.098 7.03564 283.116 7.00879 283.116C7.64432 277.509 8.75426 273.405 8.79007 273.298C19.4509 228.895 56.9651 205.013 61.1363 202.474C61.2079 202.5 61.2795 202.527 61.3511 202.563C61.6644 202.688 61.9688 202.804 62.2821 202.93C75.7446 208.321 90.8093 211.88 107.145 213.489C108.363 215.197 114.226 222.243 128.073 222.243C141.482 222.243 146.459 215.635 147.667 213.615C163.251 212.175 177.698 208.992 190.731 204.146C192.53 207.069 200.523 218.827 213.816 220.374C217.28 220.777 220.109 220.419 222.579 219.614C223.215 219.409 223.823 219.158 224.414 218.89C225.005 218.631 225.587 218.345 226.142 218.032C226.276 217.951 226.428 217.88 226.571 217.799C226.571 217.853 226.589 217.924 226.598 217.978C226.634 218.201 226.67 218.47 226.723 218.783C226.759 219.024 226.813 219.301 226.876 219.587C228.218 226.481 234.144 246.385 258.079 251.544L258.07 251.571Z" fill="#413D3C"/>
<path d="M127.939 183.33C133.283 183.33 136.174 180.416 136.29 180.29C136.604 179.969 136.595 179.45 136.272 179.137C135.95 178.824 135.431 178.833 135.118 179.155C135.091 179.182 132.593 181.703 127.93 181.703C123.356 181.703 121.118 179.307 121.011 179.191C120.715 178.851 120.196 178.824 119.865 179.119C119.525 179.414 119.498 179.933 119.793 180.264C119.901 180.389 122.568 183.33 127.93 183.33H127.939Z" fill="#8C8C8C"/>
<path d="M47.5038 20.991C47.5038 20.991 47.5843 21.0089 47.6291 21.0089C47.7992 21.0089 47.9603 20.9016 48.014 20.7228C48.6585 18.702 48.6674 16.3683 48.6674 16.27C48.6674 16.0465 48.4884 15.8677 48.2646 15.8677C48.0408 15.8677 47.8618 16.0465 47.8618 16.27C47.8618 16.2968 47.8618 18.5859 47.2531 20.4814C47.1815 20.696 47.3068 20.9195 47.5217 20.991H47.5038Z" fill="#8C8C8C"/>
<path d="M36.369 31.0952C36.369 31.0952 36.4496 31.1129 36.4943 31.1129C36.6644 31.1129 36.8255 31.0057 36.8792 30.8269C37.5237 28.8061 37.5327 26.4725 37.5327 26.3741C37.5327 26.1506 37.3536 25.9717 37.1299 25.9717C36.9061 25.9717 36.7271 26.1506 36.7271 26.3741C36.7271 26.4009 36.7271 28.6899 36.1184 30.5854C36.0468 30.8 36.1721 31.0236 36.3869 31.0952H36.369Z" fill="#8C8C8C"/>
<path d="M31.8214 53.5913C31.8214 53.5913 31.9019 53.6092 31.9467 53.6092C32.1168 53.6092 32.2779 53.502 32.3316 53.3231C32.9761 51.3024 32.985 48.9598 32.985 48.8614C32.985 48.6379 32.806 48.459 32.5822 48.459C32.3585 48.459 32.1794 48.6379 32.1794 48.8614C32.1794 48.8882 32.1794 51.1772 31.5618 53.0727C31.4902 53.2873 31.6155 53.5198 31.8214 53.5824V53.5913Z" fill="#8C8C8C"/>
<path d="M23.4073 75.5601C23.1835 75.5065 22.9687 75.6495 22.9239 75.8641C22.9239 75.882 22.4048 78.1173 21.3933 79.834C21.2769 80.0307 21.3485 80.2812 21.5365 80.3885C21.5992 80.4243 21.6708 80.4421 21.7424 80.4421C21.8856 80.4421 22.0199 80.3706 22.0915 80.2454C23.1656 78.4214 23.6937 76.1413 23.7206 76.0429C23.7743 75.8283 23.6311 75.6049 23.4162 75.5601H23.4073Z" fill="#8C8C8C"/>
<path d="M36.0377 69.2834C36.1093 69.3281 36.1809 69.3459 36.2615 69.3459C36.3957 69.3459 36.53 69.2834 36.6016 69.1582C37.7473 67.3789 38.365 65.1167 38.3918 65.0273C38.4545 64.8127 38.3202 64.5891 38.1054 64.5265C37.8906 64.4729 37.6668 64.5981 37.6041 64.8127C37.6041 64.8306 36.9955 67.0391 35.9124 68.7201C35.787 68.9079 35.8497 69.1582 36.0377 69.2834Z" fill="#8C8C8C"/>
<path d="M30.9351 89.2944C30.7292 89.1961 30.4875 89.2765 30.389 89.4732C30.3353 89.5716 29.1538 91.9679 28.6615 95.008C28.6257 95.2315 28.7778 95.4372 29.0016 95.4729C29.0195 95.4729 29.0464 95.4729 29.0643 95.4729C29.2612 95.4729 29.4313 95.3299 29.4671 95.1331C29.9325 92.2272 31.1051 89.8577 31.1141 89.8309C31.2125 89.6342 31.132 89.3838 30.9351 89.2855V89.2944Z" fill="#8C8C8C"/>
<path d="M14.9663 99.0047C14.7515 98.9421 14.5277 99.0584 14.4561 99.273C14.4293 99.3713 13.7132 101.669 13.4715 105.29C13.4536 105.514 13.6237 105.711 13.8475 105.72C13.8564 105.72 13.8654 105.72 13.8743 105.72C14.0891 105.72 14.2682 105.559 14.2771 105.344C14.5098 101.83 15.217 99.5411 15.2259 99.5143C15.2886 99.2997 15.1722 99.0762 14.9574 99.0047H14.9663Z" fill="#8C8C8C"/>
<path d="M13.4534 125.283C13.4355 125.059 13.2297 124.899 13.0148 124.916C12.7911 124.934 12.6299 125.131 12.6478 125.355C12.6568 125.462 12.8985 128.037 13.5072 130.219C13.5609 130.397 13.722 130.514 13.901 130.514C13.9368 130.514 13.9726 130.514 14.0084 130.496C14.2232 130.433 14.3486 130.21 14.2949 129.995C13.713 127.894 13.4624 125.301 13.4624 125.274L13.4534 125.283Z" fill="#8C8C8C"/>
<path d="M25.2873 119.704C25.511 119.704 25.6901 119.516 25.6901 119.293C25.6722 117.531 26.0302 114.402 26.0392 114.366C26.066 114.142 25.9049 113.946 25.6811 113.919C25.4573 113.901 25.2604 114.053 25.2336 114.276C25.2156 114.411 24.8666 117.486 24.8845 119.302C24.8845 119.525 25.0724 119.704 25.2873 119.704Z" fill="#8C8C8C"/>
<path d="M25.4661 140.134C25.4035 139.92 25.1886 139.795 24.9649 139.848C24.75 139.911 24.6247 140.134 24.6784 140.349C24.7232 140.501 25.7257 144.095 26.594 145.454C26.6745 145.58 26.7998 145.642 26.9341 145.642C27.0057 145.642 27.0863 145.624 27.1489 145.58C27.3369 145.463 27.3906 145.204 27.2743 145.016C26.4686 143.756 25.4661 140.17 25.4572 140.134H25.4661Z" fill="#8C8C8C"/>
<path d="M18.5291 150.918C18.4665 150.703 18.2516 150.578 18.0278 150.632C17.813 150.694 17.6877 150.918 17.7414 151.132C17.7772 151.249 18.5739 154.083 20.1314 155.666C20.2119 155.746 20.3193 155.791 20.4178 155.791C20.5163 155.791 20.6237 155.755 20.7042 155.674C20.8654 155.514 20.8654 155.263 20.7042 155.102C19.29 153.672 18.5202 150.953 18.5112 150.927L18.5291 150.918Z" fill="#8C8C8C"/>
<path d="M35.0076 159.797C34.8733 159.618 34.6138 159.582 34.4347 159.716C34.2557 159.851 34.2199 160.11 34.3542 160.289C34.4526 160.414 36.6904 163.347 37.8004 164.214C37.872 164.268 37.9615 164.303 38.051 164.303C38.1674 164.303 38.2927 164.25 38.3732 164.142C38.5075 163.964 38.4807 163.713 38.3016 163.57C37.2723 162.765 35.0255 159.824 34.9987 159.797H35.0076Z" fill="#8C8C8C"/>
<path d="M32.5736 172.368C32.4125 172.207 32.1618 172.207 32.0007 172.368C31.8396 172.529 31.8396 172.788 32.0007 172.94C32.0813 173.021 33.9073 174.827 35.3574 175.873C35.429 175.927 35.5096 175.954 35.5991 175.954C35.7244 175.954 35.8497 175.891 35.9303 175.784C36.0645 175.605 36.0198 175.346 35.8408 175.221C34.4354 174.21 32.6005 172.386 32.5825 172.368H32.5736Z" fill="#8C8C8C"/>
<path d="M52.8029 186.12C50.8605 185.315 48.381 182.794 48.3631 182.776C48.211 182.615 47.9514 182.615 47.7903 182.776C47.6292 182.928 47.6292 183.187 47.7903 183.348C47.8977 183.456 50.404 186.013 52.5075 186.88C52.5612 186.898 52.6149 186.907 52.6597 186.907C52.8208 186.907 52.973 186.809 53.0356 186.657C53.1252 186.451 53.0177 186.209 52.8119 186.129L52.8029 186.12Z" fill="#8C8C8C"/>
<path d="M69.0406 191.386C67.7784 191.038 64.6993 189.392 64.6635 189.375C64.4665 189.267 64.2159 189.339 64.1085 189.536C64.0011 189.732 64.0727 189.983 64.2696 190.09C64.3949 190.161 67.4562 191.798 68.8168 192.173C68.8526 192.182 68.8884 192.191 68.9242 192.191C69.1032 192.191 69.2643 192.075 69.318 191.896C69.3807 191.681 69.2464 191.458 69.0316 191.395L69.0406 191.386Z" fill="#8C8C8C"/>
<path d="M84.2215 201.991C82.6014 201.758 79.1731 200.345 79.1373 200.336C78.9314 200.247 78.6897 200.354 78.6092 200.56C78.5197 200.766 78.6181 201.007 78.833 201.088C78.9762 201.15 82.3955 202.554 84.1141 202.795C84.132 202.795 84.1499 202.795 84.1678 202.795C84.3648 202.795 84.5438 202.652 84.5706 202.447C84.6064 202.223 84.4453 202.017 84.2215 201.991Z" fill="#8C8C8C"/>
<path d="M92.6266 197.27C89.6459 197.27 88.3301 196.34 88.3122 196.322C88.1331 196.188 87.8825 196.224 87.7482 196.403C87.614 196.582 87.6498 196.841 87.8288 196.975C87.8914 197.02 89.3326 198.093 92.6355 198.093C92.8593 198.093 93.0384 197.914 93.0384 197.69C93.0384 197.467 92.8593 197.288 92.6355 197.288L92.6266 197.27Z" fill="#8C8C8C"/>
<path d="M107.575 201.142C105.704 201.24 103.234 200.337 103.207 200.328C102.992 200.247 102.759 200.364 102.688 200.569C102.607 200.784 102.724 201.017 102.93 201.088C103.028 201.124 105.346 201.964 107.333 201.955C107.432 201.955 107.521 201.955 107.611 201.955C107.835 201.946 108.014 201.759 107.996 201.535C107.987 201.312 107.817 201.151 107.575 201.151V201.142Z" fill="#8C8C8C"/>
<path d="M127.724 205.129C124.573 205.737 122.174 205.138 122.147 205.129C121.923 205.075 121.709 205.201 121.655 205.424C121.601 205.648 121.727 205.862 121.95 205.916C122.022 205.934 123.132 206.211 124.842 206.211C125.719 206.211 126.748 206.139 127.876 205.925C128.1 205.88 128.243 205.666 128.198 205.451C128.153 205.228 127.939 205.084 127.724 205.129Z" fill="#8C8C8C"/>
<path d="M148.061 199.809C145.797 200.417 142.252 200.301 142.216 200.301C142.01 200.301 141.804 200.471 141.795 200.695C141.795 200.918 141.965 201.106 142.189 201.115C142.234 201.115 142.529 201.124 142.995 201.124C144.212 201.124 146.548 201.052 148.276 200.587C148.491 200.534 148.625 200.31 148.562 200.087C148.509 199.872 148.276 199.747 148.061 199.8V199.809Z" fill="#8C8C8C"/>
<path d="M164.119 202.25C161.38 203.242 158.659 203.403 158.632 203.403C158.409 203.412 158.238 203.609 158.247 203.833C158.256 204.047 158.435 204.217 158.65 204.217H158.668C158.784 204.217 161.532 204.047 164.388 203.019C164.603 202.938 164.71 202.706 164.63 202.5C164.549 202.286 164.316 202.187 164.11 202.259L164.119 202.25Z" fill="#8C8C8C"/>
<path d="M178.334 193.174C175.487 194.587 172.838 194.998 172.811 194.998C172.587 195.034 172.435 195.24 172.471 195.463C172.497 195.669 172.676 195.812 172.873 195.812C172.891 195.812 172.918 195.812 172.936 195.812C173.052 195.794 175.738 195.383 178.701 193.908C178.897 193.809 178.987 193.568 178.88 193.362C178.781 193.157 178.53 193.076 178.334 193.183V193.174Z" fill="#8C8C8C"/>
<path d="M200.317 184.555C197.731 186.397 195.171 187.21 195.153 187.219C194.938 187.291 194.821 187.514 194.884 187.729C194.938 187.899 195.099 188.015 195.269 188.015C195.314 188.015 195.35 188.015 195.394 187.997C195.502 187.962 198.098 187.139 200.792 185.225C200.971 185.1 201.016 184.841 200.89 184.662C200.756 184.483 200.505 184.439 200.326 184.564L200.317 184.555Z" fill="#8C8C8C"/>
<path d="M194.132 193.666C192.405 194.695 189.316 195.696 189.29 195.705C189.075 195.777 188.958 196 189.03 196.215C189.084 196.385 189.245 196.492 189.415 196.492C189.46 196.492 189.495 196.492 189.54 196.474C189.665 196.429 192.745 195.428 194.553 194.355C194.75 194.239 194.812 193.988 194.696 193.801C194.58 193.604 194.329 193.541 194.141 193.657L194.132 193.666Z" fill="#8C8C8C"/>
<path d="M216.116 174.988C213.834 177.447 210.773 179.352 210.746 179.379C210.558 179.495 210.495 179.745 210.611 179.942C210.692 180.067 210.817 180.13 210.961 180.13C211.032 180.13 211.104 180.112 211.175 180.067C211.301 179.987 214.353 178.082 216.716 175.543C216.868 175.382 216.859 175.122 216.698 174.97C216.537 174.818 216.278 174.827 216.125 174.988H216.116Z" fill="#8C8C8C"/>
<path d="M223.572 160.745C223.367 160.664 223.125 160.763 223.044 160.977C222.248 163.034 220.654 164.768 220.645 164.777C220.493 164.938 220.502 165.197 220.663 165.349C220.744 165.421 220.842 165.457 220.941 165.457C221.048 165.457 221.156 165.412 221.236 165.323C221.308 165.251 222.946 163.463 223.805 161.263C223.886 161.058 223.778 160.816 223.572 160.736V160.745Z" fill="#8C8C8C"/>
<path d="M231.996 165.367C231.79 165.278 231.548 165.367 231.459 165.582C230.644 167.495 228.335 169.552 228.308 169.569C228.138 169.721 228.12 169.972 228.272 170.142C228.353 170.231 228.46 170.276 228.577 170.276C228.675 170.276 228.765 170.24 228.845 170.177C228.944 170.088 231.316 167.987 232.202 165.903C232.291 165.698 232.202 165.456 231.987 165.367H231.996Z" fill="#8C8C8C"/>
<path d="M237.322 145.097C237.098 145.052 236.883 145.186 236.838 145.41C236.14 148.548 234.27 151.383 234.243 151.409C234.117 151.597 234.171 151.848 234.359 151.973C234.431 152.017 234.511 152.044 234.583 152.044C234.717 152.044 234.842 151.982 234.923 151.865C235.004 151.749 236.901 148.879 237.635 145.589C237.68 145.374 237.546 145.15 237.322 145.106V145.097Z" fill="#8C8C8C"/>
<path d="M231.593 139.097C231.593 139.097 231.664 139.115 231.709 139.115C231.888 139.115 232.049 138.999 232.103 138.82C232.139 138.695 232.98 135.727 232.568 132.409C232.542 132.186 232.327 132.025 232.112 132.061C231.888 132.087 231.727 132.293 231.763 132.517C232.157 135.664 231.333 138.579 231.324 138.606C231.262 138.82 231.387 139.044 231.602 139.106L231.593 139.097Z" fill="#8C8C8C"/>
<path d="M244.903 128.073C244.903 128.073 244.93 128.073 244.948 128.073C245.154 128.073 245.333 127.921 245.351 127.706C245.709 124.094 245.36 121.233 245.351 121.116C245.324 120.893 245.109 120.732 244.894 120.768C244.67 120.795 244.509 121 244.545 121.224C244.545 121.251 244.894 124.112 244.545 127.635C244.527 127.858 244.688 128.055 244.912 128.082L244.903 128.073Z" fill="#8C8C8C"/>
<path d="M236.435 107.338C236.435 107.338 237.483 111.54 237.581 115.036C237.581 115.26 237.769 115.43 237.984 115.43H237.993C238.217 115.43 238.396 115.233 238.387 115.009C238.279 111.424 237.259 107.311 237.214 107.132C237.16 106.917 236.937 106.783 236.722 106.837C236.507 106.891 236.373 107.114 236.426 107.329L236.435 107.338Z" fill="#8C8C8C"/>
<path d="M228.585 95.7857C228.585 95.7857 228.648 95.7857 228.684 95.7768C228.899 95.7231 229.033 95.4995 228.979 95.285C228.648 93.9795 226.186 90.2063 226.088 90.0453C225.963 89.8576 225.712 89.8039 225.524 89.9291C225.336 90.0543 225.282 90.3046 225.408 90.4924C226.097 91.5475 227.95 94.516 228.191 95.4906C228.236 95.6784 228.406 95.7947 228.585 95.7947V95.7857Z" fill="#8C8C8C"/>
<path d="M236.059 85.8609C236.104 86.0487 236.265 86.1828 236.453 86.1828C236.48 86.1828 236.507 86.1827 236.543 86.1738C236.758 86.1291 236.901 85.9055 236.856 85.6909C236.543 84.2693 234.43 80.1116 234.341 79.9328C234.242 79.7361 233.992 79.6555 233.795 79.7539C233.598 79.8522 233.517 80.1026 233.616 80.2993C233.634 80.344 235.764 84.5376 236.059 85.8609Z" fill="#8C8C8C"/>
<path d="M228.227 67.7903C228.299 67.9244 228.442 68.0048 228.585 68.0048C228.648 68.0048 228.72 67.987 228.782 67.9513C228.979 67.844 229.051 67.5936 228.943 67.3969C228.057 65.7875 226.911 59.6358 226.902 59.5732C226.858 59.3497 226.652 59.2156 226.428 59.2514C226.204 59.2961 226.061 59.5016 226.106 59.7252C226.151 59.9845 227.287 66.0735 228.236 67.7903H228.227Z" fill="#8C8C8C"/>
<path d="M218.426 75.7126C218.426 75.7126 218.488 75.7126 218.524 75.7036C218.739 75.65 218.873 75.4265 218.819 75.2119C218.22 72.8067 217.011 68.2197 217.011 68.2197L216.224 68.4255C216.224 68.4255 217.432 72.9944 218.032 75.3996C218.077 75.5874 218.247 75.7036 218.426 75.7036V75.7126Z" fill="#8C8C8C"/>
<path d="M206.969 70.3742C206.969 70.3742 207.049 70.3742 207.085 70.3563C207.3 70.2937 207.425 70.0613 207.353 69.8467C207.353 69.8199 206.458 66.8692 206.503 64.4103C206.503 64.1868 206.324 63.999 206.1 63.999C205.868 63.999 205.689 64.1779 205.689 64.4014C205.653 66.9855 206.539 69.9629 206.575 70.0881C206.628 70.267 206.79 70.3742 206.96 70.3742H206.969Z" fill="#8C8C8C"/>
<path d="M225.739 42.9603C225.739 42.9603 225.801 42.9603 225.837 42.9513C226.052 42.8977 226.186 42.6742 226.133 42.4596C225.748 40.9396 225.336 36.6656 225.336 36.6209C225.318 36.3974 225.121 36.2453 224.888 36.2543C224.665 36.2722 224.503 36.4778 224.521 36.7013C224.539 36.8802 224.942 41.0826 225.345 42.6653C225.39 42.853 225.56 42.9692 225.739 42.9692V42.9603Z" fill="#8C8C8C"/>
<path d="M217.513 30.7997C217.513 30.7997 217.531 30.7997 217.548 30.7997C217.772 30.7818 217.942 30.5851 217.924 30.3616C217.745 28.1263 217.924 22.994 217.924 22.9403C217.924 22.7168 217.754 22.529 217.531 22.52C217.307 22.5379 217.119 22.69 217.11 22.9135C217.11 23.1281 216.931 28.1442 217.11 30.4242C217.128 30.6388 217.307 30.7997 217.513 30.7997Z" fill="#8C8C8C"/>
<path d="M213.234 52.3665C213.234 52.3665 213.288 52.3665 213.306 52.3665C213.53 52.3218 213.673 52.1161 213.628 51.8925C213.037 48.7184 212.67 44.6143 212.67 44.5696C212.652 44.3461 212.455 44.1851 212.232 44.203C212.008 44.2209 211.847 44.4176 211.865 44.6411C211.865 44.6858 212.232 48.8257 212.84 52.0356C212.876 52.2323 213.046 52.3665 213.243 52.3665H213.234Z" fill="#8C8C8C"/>
<path d="M208.168 20.6869C208.284 20.6869 208.4 20.6333 208.481 20.5439C209.716 19.0596 211.139 15.2863 211.202 15.1254C211.283 14.9108 211.175 14.6783 210.96 14.6068C210.754 14.5263 210.513 14.6336 210.441 14.8482C210.423 14.884 209.009 18.6573 207.854 20.0253C207.711 20.1952 207.738 20.4544 207.908 20.5974C207.989 20.66 208.078 20.6959 208.168 20.6959V20.6869Z" fill="#8C8C8C"/>
<path d="M198.858 52.59C198.858 52.59 198.008 56.9534 197.65 58.9741C197.614 59.1976 197.757 59.4033 197.981 59.448C198.008 59.448 198.026 59.448 198.053 59.448C198.25 59.448 198.42 59.305 198.456 59.1082C198.814 57.0875 199.646 52.7778 199.655 52.7331C199.7 52.5095 199.557 52.2949 199.333 52.2592C199.118 52.2144 198.903 52.3575 198.858 52.581V52.59Z" fill="#8C8C8C"/>
<path d="M198.375 38.2838C198.456 38.3553 198.554 38.3911 198.653 38.3911C198.76 38.3911 198.868 38.3464 198.948 38.257C200.434 36.6475 201.517 33.3125 201.562 33.1694C201.634 32.9548 201.517 32.7224 201.302 32.6598C201.088 32.5883 200.855 32.7044 200.792 32.919C200.783 32.9548 199.718 36.2183 198.349 37.7026C198.196 37.8635 198.205 38.1229 198.375 38.2749V38.2838Z" fill="#8C8C8C"/>
<path d="M195.394 19.4445C195.528 19.4445 195.654 19.3818 195.734 19.2656C196.773 17.7187 199.494 15.3136 199.521 15.2957C199.691 15.1437 199.708 14.8933 199.556 14.7234C199.404 14.5535 199.154 14.5356 198.983 14.6876C198.867 14.786 196.164 17.1823 195.063 18.8185C194.938 19.0063 194.982 19.2567 195.17 19.3818C195.242 19.4265 195.322 19.4534 195.394 19.4534V19.4445Z" fill="#8C8C8C"/>
<path d="M188.403 35.9236C188.529 35.9236 188.645 35.87 188.726 35.7627C189.334 34.967 191.894 30.7913 192.002 30.6125C192.118 30.4248 192.055 30.1744 191.867 30.0582C191.68 29.9419 191.429 30.0045 191.313 30.1923C191.286 30.237 188.663 34.5199 188.081 35.2709C187.947 35.4498 187.974 35.7001 188.153 35.8432C188.224 35.8968 188.314 35.9236 188.403 35.9236Z" fill="#8C8C8C"/>
<path d="M175.084 34.1797C175.156 34.1797 175.236 34.1619 175.299 34.1172C176.516 33.3572 178.87 30.0578 178.969 29.9147C179.103 29.7269 179.058 29.4766 178.87 29.3514C178.691 29.2262 178.432 29.262 178.306 29.4497C177.653 30.3707 175.755 32.8743 174.869 33.4376C174.681 33.5539 174.619 33.8042 174.744 34.001C174.824 34.1261 174.95 34.1887 175.093 34.1887L175.084 34.1797Z" fill="#8C8C8C"/>
<path d="M180.464 52.3577C180.464 52.3577 180.544 52.3756 180.58 52.3756C180.759 52.3756 180.92 52.2594 180.974 52.0805C181.135 51.5351 182.495 49.6128 183.319 48.5309C183.453 48.352 183.417 48.0927 183.238 47.9586C183.059 47.8245 182.809 47.8602 182.666 48.039C182.442 48.3341 180.446 50.9807 180.186 51.8481C180.123 52.0627 180.249 52.2861 180.464 52.3487V52.3577Z" fill="#8C8C8C"/>
<path d="M49.2134 44.5698C49.1865 44.7933 49.3387 44.999 49.5625 45.0258C49.5804 45.0258 49.5983 45.0258 49.6162 45.0258C49.8131 45.0258 49.9921 44.8738 50.019 44.6681C50.2875 42.5759 50.0279 38.1588 50.019 37.9711C50.0011 37.7475 49.8042 37.5597 49.5893 37.5865C49.3656 37.6044 49.1955 37.7923 49.2044 38.0158C49.2044 38.0605 49.473 42.549 49.2044 44.5608L49.2134 44.5698Z" fill="#8C8C8C"/>
<path d="M54.3334 65.287C54.3871 65.3138 54.4408 65.3227 54.5035 65.3227C54.6557 65.3227 54.8078 65.2333 54.8705 65.0813C55.4434 63.8116 55.3628 60.4676 55.3628 60.3245C55.3628 60.101 55.1748 59.9312 54.96 59.9312H54.9511C54.7273 59.9312 54.5483 60.1278 54.5572 60.3514C54.5841 61.2634 54.5572 63.8384 54.1455 64.7504C54.0559 64.9561 54.1455 65.1976 54.3513 65.287H54.3334Z" fill="#8C8C8C"/>
<path d="M60.886 45.133C60.6712 45.1956 60.5548 45.428 60.6175 45.6426C60.7428 46.036 61.8259 49.5142 62.3898 50.3547C62.4704 50.4709 62.5957 50.5336 62.73 50.5336C62.8105 50.5336 62.8821 50.5156 62.9537 50.462C63.1417 50.3368 63.1954 50.0865 63.0701 49.8987C62.6494 49.2728 61.7274 46.4385 61.4052 45.4013C61.3425 45.1867 61.1098 45.0615 60.895 45.133H60.886Z" fill="#8C8C8C"/>
<path d="M61.7001 23.7719C61.7538 23.7987 61.8165 23.8077 61.8792 23.8077C62.0403 23.8077 62.1925 23.7272 62.2641 23.5842C62.3536 23.3785 62.2909 23.1549 62.085 23.0655C61.8344 22.833 60.9572 21.0001 60.2948 19.4264C60.2053 19.2208 59.9636 19.1224 59.7577 19.2118C59.5519 19.3012 59.4534 19.5337 59.5429 19.7483C61.1452 23.5394 61.5569 23.7272 61.7001 23.7808V23.7719Z" fill="#8C8C8C"/>
<path d="M69.1836 35.9323C69.2642 36.0307 69.3805 36.0844 69.5058 36.0844C69.5953 36.0844 69.6849 36.0575 69.7565 35.995C69.9355 35.8519 69.9623 35.6015 69.8191 35.4227C69.1209 34.5554 67.0711 30.9074 67.0532 30.8716C66.9458 30.6749 66.6952 30.6033 66.4983 30.7195C66.3013 30.8268 66.2297 31.0772 66.3461 31.2739C66.4356 31.4259 68.4496 35.0114 69.1836 35.9323Z" fill="#8C8C8C"/>
<path d="M78.1615 52.3306C78.2242 52.3664 78.2958 52.3842 78.3674 52.3842C78.5106 52.3842 78.6449 52.3127 78.7165 52.1786C78.8329 51.9819 78.7613 51.7315 78.5643 51.6242C77.6513 51.0967 75.2614 48.5037 74.42 47.5559C74.2678 47.386 74.0172 47.3682 73.8471 47.5202C73.677 47.6722 73.6591 47.9225 73.8113 48.0923C73.9366 48.2354 76.9442 51.6243 78.1615 52.3306Z" fill="#8C8C8C"/>
<path d="M86.2265 35.8606C86.2981 36.0036 86.4413 36.0841 86.5935 36.0841C86.6561 36.0841 86.7188 36.0662 86.7725 36.0393C86.9694 35.941 87.0589 35.6906 86.9515 35.4939C86.7635 35.1184 84.7227 32.6416 84.0961 31.8995C83.9529 31.7296 83.6933 31.7028 83.5232 31.8459C83.3532 31.989 83.3263 32.2483 83.4695 32.4182C84.5258 33.6968 86.0833 35.6102 86.2175 35.8606H86.2265Z" fill="#8C8C8C"/>
<path d="M99.9217 48.0745C100.002 48.1728 100.119 48.2264 100.244 48.2264C100.333 48.2264 100.423 48.1996 100.495 48.137C100.674 47.9939 100.7 47.7436 100.557 47.5648C99.2414 45.9017 96.923 43.5233 96.8246 43.4249C96.6724 43.264 96.4128 43.264 96.2517 43.4249C96.0906 43.5769 96.0906 43.8362 96.2517 43.9972C96.2786 44.024 98.6417 46.4382 99.9306 48.0745H99.9217Z" fill="#8C8C8C"/>
<path d="M108.944 38.0784C108.989 38.2662 109.159 38.4003 109.338 38.4003C109.365 38.4003 109.401 38.4003 109.428 38.3914C109.643 38.3466 109.786 38.1232 109.741 37.9086C109.49 36.782 107.611 33.3306 107.53 33.1786C107.423 32.9819 107.172 32.9103 106.975 33.0176C106.778 33.1249 106.707 33.3753 106.814 33.572C107.342 34.5376 108.756 37.2469 108.944 38.0874V38.0784Z" fill="#8C8C8C"/>
<path d="M119.784 47.8957C119.82 48.0925 119.99 48.2266 120.187 48.2266C120.214 48.2266 120.241 48.2266 120.268 48.2266C120.491 48.1819 120.635 47.9674 120.59 47.7528C120.339 46.4742 119.167 43.6844 119.122 43.5592C119.032 43.3536 118.8 43.2552 118.585 43.3446C118.379 43.4341 118.281 43.6665 118.37 43.8811C118.379 43.9079 119.561 46.7155 119.793 47.9047L119.784 47.8957Z" fill="#8C8C8C"/>
<path d="M123.991 35.6824C123.991 35.9059 124.17 36.0847 124.394 36.0847C124.618 36.0847 124.797 35.897 124.797 35.6734C124.797 34.7704 124.027 32.3025 123.938 32.0253C123.866 31.8107 123.642 31.6945 123.428 31.7571C123.213 31.8287 123.096 32.0521 123.159 32.2667C123.383 32.991 123.974 35.0207 123.982 35.6734L123.991 35.6824Z" fill="#8C8C8C"/>
<path d="M137.516 46.796C137.57 46.8139 137.615 46.8228 137.669 46.8228C137.83 46.8228 137.982 46.7244 138.045 46.5635C138.349 45.8124 139.155 43.8095 139.298 43.5234C139.396 43.3267 139.316 43.0764 139.119 42.978C138.913 42.8796 138.671 42.9602 138.573 43.1569C138.394 43.5235 137.409 45.9823 137.293 46.2595C137.212 46.4652 137.311 46.7065 137.516 46.787V46.796Z" fill="#8C8C8C"/>
<path d="M140.685 35.2437C140.73 35.2616 140.783 35.2706 140.828 35.2706C140.989 35.2706 141.15 35.1723 141.213 35.0114C141.437 34.4212 142.072 32.7938 142.35 32.3825C142.475 32.1948 142.421 31.9444 142.233 31.8192C142.045 31.6941 141.795 31.7477 141.669 31.9355C141.293 32.4988 140.542 34.5016 140.452 34.7252C140.371 34.9398 140.479 35.1722 140.694 35.2437H140.685Z" fill="#8C8C8C"/>
<path d="M156.833 36.5761C156.886 36.6029 156.949 36.6117 157.003 36.6117C157.155 36.6117 157.298 36.5223 157.37 36.3793C157.388 36.3524 158.811 33.3303 159.5 32.3825C159.634 32.2037 159.59 31.9444 159.411 31.8192C159.232 31.6851 158.972 31.7298 158.847 31.9086C158.113 32.919 156.698 35.9143 156.636 36.0395C156.537 36.2451 156.636 36.4866 156.833 36.5761Z" fill="#8C8C8C"/>
<path d="M161.541 48.6383C161.604 48.674 161.676 48.7008 161.756 48.7008C161.891 48.7008 162.025 48.6293 162.105 48.5041C162.114 48.4863 163.251 46.6264 164.755 44.6772C164.889 44.4984 164.862 44.248 164.683 44.105C164.504 43.9708 164.254 43.9977 164.11 44.1766C162.58 46.1615 161.425 48.0571 161.416 48.075C161.3 48.2627 161.362 48.5131 161.55 48.6293L161.541 48.6383Z" fill="#8C8C8C"/>
<path d="M15.0735 288.507C15.0646 288.284 14.9034 288.078 14.6528 288.123C14.429 288.132 14.259 288.32 14.2679 288.543C14.2858 288.972 14.4738 292.737 15.0467 293.702C15.1272 293.827 15.2615 293.899 15.3958 293.899C15.4674 293.899 15.539 293.881 15.6016 293.845C15.7896 293.729 15.8523 293.479 15.7449 293.291C15.3868 292.701 15.1451 290.045 15.0825 288.516L15.0735 288.507Z" fill="#8C8C8C"/>
<path d="M17.6698 302.125C17.5982 301.91 17.3655 301.803 17.1507 301.874C16.9358 301.946 16.8284 302.178 16.9 302.393C17.0164 302.724 18.0547 305.683 19.102 306.55C19.1736 306.613 19.2721 306.64 19.3616 306.64C19.478 306.64 19.5943 306.586 19.6749 306.488C19.8181 306.318 19.7912 306.059 19.6212 305.916C18.8782 305.308 17.9652 302.974 17.6698 302.125Z" fill="#8C8C8C"/>
<path d="M25.2875 293.452C25.2606 293.675 25.4307 293.872 25.6545 293.899C25.6724 293.899 25.6813 293.899 25.6992 293.899C25.9051 293.899 26.0841 293.747 26.102 293.532C26.1915 292.611 26.102 289.026 26.102 288.874C26.102 288.65 25.914 288.48 25.6992 288.48H25.6903C25.4665 288.48 25.2875 288.668 25.2964 288.901C25.2964 288.936 25.3859 292.584 25.2964 293.452H25.2875Z" fill="#8C8C8C"/>
<path d="M29.4676 304.941C29.5481 304.941 29.6197 304.923 29.6913 304.879C30.3985 304.414 31.5084 302.67 31.6337 302.474C31.7501 302.286 31.6964 302.035 31.5084 301.91C31.3204 301.794 31.0698 301.848 30.9445 302.035C30.5059 302.724 29.6645 303.922 29.2438 304.199C29.0558 304.324 29.0021 304.575 29.1274 304.763C29.208 304.879 29.3333 304.95 29.4676 304.941Z" fill="#8C8C8C"/>
<path d="M36.2699 295.794C36.3863 295.794 36.4937 295.749 36.5743 295.66C37.3351 294.802 37.9527 292.531 38.0154 292.28C38.0691 292.066 37.9438 291.842 37.729 291.788C37.5141 291.726 37.2904 291.86 37.2367 292.075C37.0666 292.718 36.5116 294.515 35.9656 295.123C35.8134 295.293 35.8313 295.544 36.0014 295.696C36.082 295.767 36.1715 295.794 36.2699 295.794Z" fill="#8C8C8C"/>
<path d="M37.6574 305.371C37.738 305.487 37.8633 305.541 37.9886 305.541C38.0692 305.541 38.1498 305.514 38.2214 305.469C39.1612 304.816 40.9246 302.223 41.1305 301.928C41.2558 301.741 41.211 301.49 41.0231 301.365C40.8351 301.24 40.5845 301.285 40.4592 301.472C39.94 302.232 38.4541 304.316 37.7649 304.799C37.5769 304.924 37.5321 305.183 37.6664 305.362L37.6574 305.371Z" fill="#8C8C8C"/>
<path d="M241.126 218.952C239.103 219.775 237.215 221.295 237.134 221.358C236.955 221.501 236.928 221.751 237.071 221.93C237.152 222.028 237.268 222.082 237.385 222.082C237.474 222.082 237.564 222.055 237.644 221.992C237.662 221.975 239.515 220.49 241.431 219.703C241.636 219.614 241.735 219.382 241.654 219.176C241.565 218.97 241.332 218.872 241.126 218.952Z" fill="#8C8C8C"/>
<path d="M248.179 225.203C247.991 225.087 247.741 225.149 247.624 225.346C246.496 227.259 244.697 228.94 244.679 228.958C244.518 229.11 244.509 229.369 244.661 229.53C244.742 229.62 244.849 229.656 244.957 229.656C245.055 229.656 245.154 229.62 245.234 229.548C245.315 229.477 247.132 227.769 248.323 225.757C248.439 225.56 248.376 225.319 248.179 225.203Z" fill="#8C8C8C"/>
<path d="M254.705 214.33C254.687 214.106 254.49 213.945 254.266 213.954C252.968 214.043 249.791 215.018 249.657 215.054C249.442 215.116 249.325 215.349 249.388 215.563C249.442 215.742 249.603 215.85 249.773 215.85C249.809 215.85 249.853 215.85 249.889 215.832C249.925 215.823 253.112 214.848 254.32 214.768C254.544 214.75 254.714 214.553 254.696 214.33H254.705Z" fill="#8C8C8C"/>
<path d="M256.468 223.978C256.585 223.978 256.692 223.933 256.773 223.835C257.444 223.066 258.053 220.857 258.124 220.607C258.187 220.392 258.053 220.169 257.838 220.106C257.623 220.052 257.399 220.178 257.337 220.392C257.167 221.018 256.629 222.762 256.155 223.298C256.003 223.468 256.021 223.727 256.191 223.871C256.271 223.942 256.361 223.969 256.459 223.969L256.468 223.978Z" fill="#8C8C8C"/>
<path d="M255.438 231.13C255.223 231.068 255 231.184 254.928 231.398C254.928 231.416 254.203 233.661 252.762 235.02C252.601 235.172 252.592 235.431 252.744 235.592C252.825 235.672 252.932 235.717 253.039 235.717C253.138 235.717 253.236 235.681 253.317 235.61C254.91 234.108 255.671 231.747 255.707 231.64C255.778 231.425 255.653 231.202 255.438 231.13Z" fill="#8C8C8C"/>
<path d="M264.336 226.598C264.113 226.598 263.934 226.777 263.934 227C263.934 227.027 263.925 229.62 262.994 231.319C262.886 231.515 262.958 231.766 263.155 231.873C263.218 231.909 263.28 231.927 263.352 231.927C263.495 231.927 263.638 231.846 263.71 231.712C264.739 229.835 264.757 227.116 264.757 227C264.757 226.777 264.578 226.598 264.354 226.598H264.336Z" fill="#8C8C8C"/>
<path d="M260.559 238.203C260.362 238.096 260.111 238.167 260.004 238.364C259.986 238.4 258.052 241.887 256.271 242.906C256.074 243.022 256.012 243.264 256.119 243.461C256.191 243.595 256.334 243.666 256.477 243.666C256.549 243.666 256.611 243.648 256.683 243.613C258.661 242.486 260.639 238.91 260.72 238.758C260.827 238.561 260.756 238.31 260.559 238.203Z" fill="#8C8C8C"/>
<path d="M49.84 337.899C49.84 337.899 49.8937 337.899 49.9206 337.899C49.9385 337.899 52.221 337.416 54.7184 337.059C54.9422 337.023 55.0944 336.817 55.0675 336.603C55.0317 336.379 54.8258 336.227 54.611 336.254C52.0957 336.612 49.7863 337.095 49.7595 337.104C49.5446 337.148 49.4014 337.363 49.4462 337.586C49.4909 337.774 49.6521 337.908 49.84 337.908V337.899Z" fill="#8C8C8C"/>
<path d="M44.6931 344.453C44.6483 344.23 44.4245 344.087 44.2187 344.131C41.7839 344.614 39.3313 345.803 39.2239 345.848C39.018 345.946 38.9375 346.188 39.0359 346.393C39.1076 346.536 39.2508 346.626 39.4029 346.626C39.4656 346.626 39.5193 346.617 39.582 346.581C39.6088 346.572 42.0525 345.392 44.3798 344.927C44.6036 344.882 44.7468 344.668 44.702 344.453H44.6931Z" fill="#8C8C8C"/>
<path d="M52.6865 347.341C52.7044 347.547 52.8834 347.708 53.0893 347.708C53.1072 347.708 53.1162 347.708 53.1341 347.708L57.5917 347.225C57.8155 347.198 57.9766 347.002 57.9498 346.778C57.9229 346.555 57.7171 346.402 57.5022 346.42L53.0446 346.903C52.8208 346.93 52.6597 347.127 52.6865 347.35V347.341Z" fill="#8C8C8C"/>
<path d="M56.5444 356.452C56.5444 356.676 56.7235 356.855 56.9472 356.855H61.4049C61.6287 356.855 61.8077 356.676 61.8077 356.443C61.8077 356.211 61.6287 356.041 61.4049 356.041H56.9472C56.7235 356.041 56.5444 356.22 56.5444 356.452Z" fill="#8C8C8C"/>
<path d="M46.2596 354.727C46.2596 354.727 43.4131 355.299 41.6408 354.736C41.426 354.674 41.1932 354.79 41.1306 355.004C41.059 355.219 41.1843 355.442 41.3991 355.514C42.0794 355.729 42.8761 355.8 43.6279 355.8C45.0601 355.8 46.3491 355.541 46.4297 355.523C46.6534 355.478 46.7877 355.264 46.7429 355.04C46.6982 354.825 46.4834 354.673 46.2596 354.727Z" fill="#8C8C8C"/>
<path d="M49.0525 361.459C49.9297 361.665 50.798 361.736 51.5678 361.736C53.0357 361.736 54.1367 361.477 54.1994 361.468C54.4142 361.415 54.5485 361.2 54.5037 360.976C54.459 360.753 54.2352 360.628 54.0114 360.672C53.9846 360.672 51.6125 361.227 49.2405 360.672C49.0167 360.619 48.8018 360.753 48.7481 360.976C48.6944 361.2 48.8287 361.415 49.0525 361.468V361.459Z" fill="#8C8C8C"/>
<path d="M74.062 335.19C74.1157 335.19 74.1695 335.181 74.2232 335.154C74.429 335.065 74.5275 334.823 74.438 334.618C73.7398 332.999 73.0237 328.144 73.0237 328.099C72.9879 327.876 72.7731 327.724 72.5583 327.76C72.3345 327.795 72.1823 328.001 72.2181 328.225C72.245 328.43 72.9611 333.232 73.6951 334.948C73.7577 335.1 73.9099 335.199 74.071 335.199L74.062 335.19Z" fill="#8C8C8C"/>
<path d="M77.6155 349.308C77.3917 349.344 77.2485 349.559 77.2843 349.782C77.2843 349.827 78.0004 353.958 78.0004 355.12C78.0004 355.344 78.1794 355.522 78.4032 355.522C78.627 355.522 78.806 355.344 78.806 355.12C78.806 353.886 78.1078 349.818 78.0809 349.639C78.0451 349.415 77.8393 349.272 77.6065 349.308H77.6155Z" fill="#8C8C8C"/>
<path d="M79.3249 369.73C79.1012 369.757 78.94 369.954 78.9669 370.177C78.9669 370.213 79.316 373.441 78.9669 375.408C78.9311 375.631 79.0743 375.837 79.2981 375.882C79.3249 375.882 79.3428 375.882 79.3697 375.882C79.5666 375.882 79.7367 375.739 79.7725 375.542C80.1395 373.459 79.7904 370.222 79.7725 370.079C79.7456 369.855 79.5398 369.694 79.3249 369.721V369.73Z" fill="#8C8C8C"/>
<path d="M75.2433 392.782C75.0285 392.737 74.8047 392.871 74.76 393.095C74.76 393.13 74.0349 396.474 73.6769 397.896C73.6232 398.111 73.7574 398.334 73.9723 398.388C74.0081 398.388 74.0349 398.397 74.0707 398.397C74.2498 398.397 74.4198 398.272 74.4646 398.093C74.8226 396.662 75.5477 393.3 75.5477 393.264C75.5924 393.05 75.4582 392.826 75.2344 392.782H75.2433Z" fill="#8C8C8C"/>
<path d="M86.1548 334.734C86.128 334.511 85.9221 334.35 85.6983 334.385C85.4745 334.412 85.3134 334.618 85.3492 334.841C85.4208 335.423 86.0922 340.591 86.5845 341.699C86.6561 341.851 86.7993 341.941 86.9604 341.941C87.0141 341.941 87.0678 341.932 87.1216 341.905C87.3274 341.816 87.4169 341.574 87.3274 341.368C86.9515 340.528 86.3518 336.299 86.1548 334.743V334.734Z" fill="#8C8C8C"/>
<path d="M88.9294 360.932C88.7146 360.977 88.5714 361.191 88.6161 361.415C88.6251 361.459 89.5649 365.877 89.3322 367.477C89.2964 367.701 89.4575 367.906 89.6813 367.933C89.6992 367.933 89.7171 367.933 89.744 367.933C89.9409 367.933 90.1199 367.79 90.1468 367.584C90.3974 365.85 89.4575 361.424 89.4217 361.236C89.377 361.012 89.1532 360.887 88.9384 360.923L88.9294 360.932Z" fill="#8C8C8C"/>
<path d="M88.1419 392.164C87.9181 392.182 87.748 392.379 87.7659 392.602C87.9002 394.292 88.0345 397.207 87.7928 397.842C87.7122 398.056 87.8196 398.289 88.0345 398.36C88.0792 398.378 88.1329 398.387 88.1777 398.387C88.3388 398.387 88.4999 398.289 88.5626 398.128C88.9475 397.109 88.6252 392.996 88.5894 392.531C88.5715 392.307 88.3746 392.146 88.1508 392.155L88.1419 392.164Z" fill="#8C8C8C"/>
<path d="M91.7045 319.4C91.6866 319.176 91.4897 318.997 91.2659 319.024C91.0421 319.042 90.8721 319.239 90.89 319.462C90.9258 319.963 91.2749 324.425 91.7672 325.542C91.8388 325.694 91.982 325.784 92.1431 325.784C92.1968 325.784 92.2505 325.775 92.3042 325.748C92.5101 325.659 92.5996 325.417 92.5101 325.212C92.1342 324.371 91.794 320.732 91.6956 319.4H91.7045Z" fill="#8C8C8C"/>
<path d="M99.5099 337.756L99.9306 343.72C99.9485 343.934 100.128 344.095 100.333 344.095C100.342 344.095 100.351 344.095 100.36 344.095C100.584 344.078 100.754 343.881 100.736 343.657L100.316 337.693L99.501 337.747L99.5099 337.756Z" fill="#8C8C8C"/>
<path d="M103.458 366.297C103.44 366.52 103.61 366.717 103.834 366.735C103.842 366.735 103.851 366.735 103.86 366.735C104.075 366.735 104.254 366.574 104.263 366.359C104.389 364.642 103.78 361.146 103.753 360.994C103.717 360.771 103.502 360.619 103.279 360.664C103.055 360.699 102.912 360.914 102.947 361.137C102.947 361.173 103.556 364.687 103.449 366.306L103.458 366.297Z" fill="#8C8C8C"/>
<path d="M104.254 380.147C104.245 379.924 104.057 379.718 103.833 379.763C103.61 379.771 103.44 379.959 103.449 380.183C103.449 380.299 103.592 383.124 103.941 384.823C103.977 385.011 104.147 385.145 104.335 385.145C104.362 385.145 104.388 385.145 104.415 385.145C104.63 385.101 104.773 384.886 104.729 384.662C104.388 383.026 104.254 380.183 104.245 380.147H104.254Z" fill="#8C8C8C"/>
<path d="M108.023 393.612C107.799 393.63 107.638 393.836 107.656 394.059C107.656 394.095 108.005 397.654 107.656 400.104C107.62 400.327 107.781 400.533 108.005 400.56C108.023 400.56 108.041 400.56 108.068 400.56C108.265 400.56 108.444 400.417 108.47 400.211C108.837 397.663 108.488 394.122 108.47 393.97C108.453 393.746 108.247 393.586 108.023 393.603V393.612Z" fill="#8C8C8C"/>
<path d="M105.91 324.89C105.847 324.675 105.633 324.55 105.409 324.604C105.194 324.666 105.06 324.89 105.122 325.104C105.364 326.008 106.214 328.985 106.993 329.566C107.065 329.62 107.154 329.647 107.235 329.647C107.36 329.647 107.477 329.593 107.557 329.486C107.691 329.307 107.656 329.048 107.477 328.913C107.101 328.627 106.367 326.607 105.91 324.89Z" fill="#8C8C8C"/>
<path d="M122.093 336.245C120.473 335.726 118.056 333.643 118.03 333.625C117.859 333.482 117.6 333.5 117.457 333.67C117.313 333.84 117.331 334.099 117.501 334.242C117.609 334.331 120.07 336.45 121.852 337.023C121.896 337.032 121.932 337.041 121.977 337.041C122.147 337.041 122.308 336.933 122.362 336.754C122.433 336.54 122.308 336.316 122.102 336.245H122.093Z" fill="#8C8C8C"/>
<path d="M126.032 324.97C124.376 324.63 122.147 323.727 122.129 323.718C121.923 323.629 121.682 323.736 121.601 323.942C121.512 324.147 121.619 324.389 121.825 324.469C121.914 324.505 124.143 325.417 125.88 325.766C125.907 325.766 125.933 325.766 125.96 325.766C126.148 325.766 126.318 325.632 126.354 325.444C126.399 325.22 126.256 325.006 126.032 324.961V324.97Z" fill="#8C8C8C"/>
<path d="M138.098 335.628C136.558 336.227 132.548 336.209 132.548 336.227C132.325 336.227 132.146 336.406 132.146 336.63C132.146 336.853 132.325 337.041 132.548 337.041H132.566C132.88 337.041 136.746 337.023 138.393 336.388C138.599 336.308 138.707 336.075 138.626 335.861C138.546 335.655 138.304 335.548 138.098 335.628Z" fill="#8C8C8C"/>
<path d="M146.736 325.166C146.629 324.97 146.378 324.898 146.181 325.014C144.615 325.9 140.793 326.955 140.757 326.964C140.542 327.026 140.417 327.25 140.47 327.464C140.524 327.643 140.685 327.759 140.864 327.759C140.9 327.759 140.936 327.759 140.972 327.742C141.133 327.697 144.928 326.642 146.575 325.712C146.772 325.605 146.844 325.354 146.727 325.158L146.736 325.166Z" fill="#8C8C8C"/>
<path d="M145.743 358.232C145.743 358.232 145.77 358.232 145.787 358.232C145.993 358.232 146.172 358.08 146.19 357.865C146.316 356.64 145.966 352.545 145.949 352.367C145.931 352.143 145.734 351.982 145.51 352C145.286 352.018 145.125 352.214 145.143 352.438C145.143 352.483 145.501 356.632 145.385 357.785C145.367 358.009 145.528 358.205 145.752 358.232H145.743Z" fill="#8C8C8C"/>
<path d="M146.36 371.814C146.136 371.832 145.966 372.029 145.984 372.252C146.065 373.406 146.226 376.607 145.993 377.545C145.94 377.76 146.074 377.983 146.289 378.037C146.324 378.037 146.351 378.046 146.387 378.046C146.566 378.046 146.736 377.921 146.781 377.742C147.094 376.49 146.799 372.368 146.79 372.198C146.772 371.975 146.557 371.814 146.351 371.823L146.36 371.814Z" fill="#8C8C8C"/>
<path d="M145.653 392.352C145.635 392.128 145.429 391.967 145.215 391.976C144.991 391.994 144.821 392.191 144.839 392.415C144.848 392.584 145.161 396.492 146.038 398.056C146.11 398.191 146.253 398.262 146.396 398.262C146.468 398.262 146.53 398.244 146.593 398.209C146.79 398.101 146.862 397.851 146.745 397.654C145.958 396.241 145.653 392.379 145.653 392.343V392.352Z" fill="#8C8C8C"/>
<path d="M161.085 320.437C161.21 320.249 161.165 319.999 160.977 319.874C160.798 319.749 160.539 319.793 160.414 319.981C160.405 319.999 159.223 321.689 157.683 322.002C157.46 322.047 157.316 322.261 157.361 322.476C157.397 322.672 157.567 322.807 157.755 322.807C157.782 322.807 157.809 322.807 157.836 322.807C159.697 322.44 161.022 320.535 161.076 320.455L161.085 320.437Z" fill="#8C8C8C"/>
<path d="M189.227 314.187C189.012 314.24 188.869 314.455 188.923 314.669C188.923 314.687 189.353 316.61 188.923 318.577C188.878 318.791 189.012 319.015 189.236 319.06C189.263 319.06 189.29 319.069 189.326 319.069C189.514 319.069 189.684 318.934 189.72 318.747C190.185 316.61 189.738 314.58 189.72 314.491C189.675 314.276 189.46 314.133 189.236 314.187H189.227Z" fill="#8C8C8C"/>
<path d="M183.346 325.953C183.132 325.909 182.908 326.052 182.863 326.275C182.666 327.259 182.058 329.986 181.637 330.755C181.529 330.952 181.601 331.202 181.798 331.309C181.861 331.345 181.923 331.363 181.995 331.363C182.138 331.363 182.281 331.283 182.353 331.148C182.917 330.111 183.633 326.597 183.66 326.445C183.705 326.222 183.561 326.007 183.338 325.962L183.346 325.953Z" fill="#8C8C8C"/>
<path d="M163.824 330.541C163.6 330.541 163.421 330.728 163.421 330.952C163.421 330.979 163.421 333.965 162.821 335.494C162.741 335.7 162.839 335.941 163.054 336.022C163.099 336.039 163.153 336.048 163.206 336.048C163.367 336.048 163.52 335.95 163.582 335.789C164.245 334.108 164.236 331.068 164.236 330.943C164.236 330.719 164.057 330.541 163.833 330.541H163.824Z" fill="#8C8C8C"/>
<path d="M156.188 349.058C155.964 349.04 155.768 349.192 155.741 349.416C155.723 349.577 155.284 353.421 155.284 354.521C155.284 354.745 155.463 354.924 155.687 354.924C155.911 354.924 156.09 354.745 156.09 354.521C156.09 353.475 156.537 349.55 156.537 349.514C156.564 349.291 156.403 349.094 156.179 349.067L156.188 349.058Z" fill="#8C8C8C"/>
<path d="M156.878 367.477C156.645 367.459 156.466 367.647 156.457 367.871C156.457 368.032 156.368 371.876 156.457 372.887C156.475 373.101 156.654 373.253 156.86 373.253C156.869 373.253 156.887 373.253 156.896 373.253C157.12 373.235 157.281 373.039 157.263 372.815C157.173 371.858 157.263 367.933 157.263 367.897C157.263 367.674 157.093 367.486 156.869 367.477H156.878Z" fill="#8C8C8C"/>
<path d="M160.261 389.312C160.225 389.088 160.02 388.936 159.805 388.963C159.581 388.999 159.429 389.204 159.456 389.419C159.581 390.277 160.208 394.614 160.584 395.302C160.655 395.437 160.798 395.517 160.942 395.517C161.004 395.517 161.076 395.499 161.139 395.463C161.335 395.356 161.407 395.106 161.3 394.909C161.076 394.498 160.557 391.377 160.261 389.294V389.312Z" fill="#8C8C8C"/>
<path d="M175.89 389.535C175.684 389.616 175.577 389.857 175.666 390.063C176.087 391.109 177.179 394.051 177.179 395.115C177.179 395.338 177.358 395.517 177.582 395.517C177.805 395.517 177.984 395.338 177.984 395.115C177.984 393.666 176.481 389.92 176.418 389.759C176.337 389.553 176.096 389.455 175.89 389.535Z" fill="#8C8C8C"/>
<path d="M169.812 375.417C169.588 375.417 169.409 375.596 169.409 375.81C169.409 375.989 169.319 380.183 169.409 381.184C169.427 381.399 169.606 381.551 169.812 381.551C169.821 381.551 169.839 381.551 169.848 381.551C170.071 381.533 170.232 381.336 170.215 381.113C170.125 380.156 170.215 375.873 170.215 375.828C170.215 375.605 170.044 375.417 169.821 375.417H169.812Z" fill="#8C8C8C"/>
<path d="M175.988 363.659C175.899 362.318 176.427 358.679 176.436 358.643C176.472 358.419 176.311 358.214 176.096 358.178C175.881 358.151 175.666 358.294 175.63 358.518C175.612 358.67 175.084 362.282 175.174 363.704C175.192 363.918 175.371 364.088 175.577 364.088C175.577 364.088 175.594 364.088 175.603 364.088C175.827 364.07 175.997 363.883 175.979 363.659H175.988Z" fill="#8C8C8C"/>
<path d="M171.459 340.296C171.244 340.287 171.038 340.439 171.011 340.662C171.011 340.698 170.644 344.436 170.215 346.009C170.152 346.224 170.277 346.447 170.501 346.51C170.537 346.519 170.573 346.528 170.609 346.528C170.788 346.528 170.949 346.412 171.003 346.233C171.459 344.588 171.817 340.904 171.826 340.743C171.844 340.519 171.683 340.323 171.459 340.296Z" fill="#8C8C8C"/>
<path d="M117.609 272.887L114.029 268.13C109.92 273.701 105.624 277.331 105.427 277.492C105.158 277.715 105.051 278.091 105.167 278.431C105.284 278.762 105.597 278.994 105.946 278.994L108.739 279.021L108.354 282.079C108.327 282.311 108.39 282.553 108.542 282.732C108.712 282.937 108.953 283.036 109.195 283.036C109.374 283.036 109.562 282.973 109.714 282.848C109.902 282.687 114.02 279.253 118.298 273.817L118.102 273.549L117.609 272.878V272.887Z" fill="#413D3C"/>
<path d="M96.6368 239.42C96.5294 239.42 96.4398 239.509 96.4398 239.617V250.731H91.2213V239.617C91.2213 239.509 91.1318 239.42 91.0244 239.42H84.6959C84.5885 239.42 84.499 239.509 84.499 239.617V270.133C84.499 270.241 84.5885 270.33 84.7049 270.33H91.0333C91.1408 270.33 91.2303 270.241 91.2303 270.133V257.642H96.4488V270.133C96.4488 270.241 96.5383 270.33 96.6457 270.33H102.965C103.073 270.33 103.162 270.241 103.162 270.133V239.617C103.162 239.509 103.073 239.42 102.956 239.42H96.6368Z" fill="#413D3C"/>
<path d="M163.896 263.409V258.25H169.857C169.965 258.25 170.054 258.161 170.054 258.053V251.723C170.054 251.616 169.965 251.526 169.857 251.526H163.896V246.295H170.797C170.905 246.295 170.994 246.206 170.994 246.099V239.607C170.994 239.5 170.905 239.411 170.797 239.411H156.762C156.654 239.411 156.565 239.5 156.565 239.607V270.124C156.565 270.231 156.654 270.321 156.762 270.321H170.842C170.949 270.321 171.039 270.231 171.039 270.124V263.606C171.039 263.499 170.949 263.409 170.842 263.409H163.896Z" fill="#413D3C"/>
<path d="M142.404 239.411H134.33C134.33 239.411 134.268 239.428 134.241 239.446V270.231C134.241 270.231 134.285 270.321 134.33 270.321H140.856C140.963 270.321 141.053 270.231 141.053 270.124V258.706H141.975C145.098 258.706 147.587 257.839 149.359 256.122C151.132 254.405 152.036 252.009 152.036 248.996C152.036 245.983 151.149 243.801 149.395 242.048C147.641 240.296 145.286 239.411 142.404 239.411ZM143.971 251.616C143.451 252.036 142.708 252.295 141.733 252.411L141.053 252.492V245.652L141.733 245.723C142.744 245.83 143.505 246.081 144.006 246.483C144.624 246.984 144.946 247.86 144.946 249.103C144.946 250.265 144.633 251.097 143.98 251.624L143.971 251.616Z" fill="#413D3C"/>
<path d="M123.06 266.78C121.199 264.473 118.719 260.316 118.719 260.316C117.126 257.463 116.123 254.835 115.747 252.501C115.309 249.765 115.899 247.565 117.332 246.609C117.752 246.331 118.191 246.179 118.656 246.179C118.674 246.179 118.692 246.179 118.71 246.179C118.835 246.179 118.952 246.215 119.077 246.242C119.319 246.296 119.56 246.376 119.766 246.51C121.064 247.369 121.566 249.792 121.073 252.832C120.796 254.54 120.017 257.115 119.346 258.912C120.661 261.21 122.702 264.187 123.723 265.555C125.567 261.898 127.214 257.481 127.778 253.949C129.129 245.482 125.209 241.879 123.463 240.725C122.129 239.84 120.617 239.393 119.068 239.321C118.925 239.321 118.791 239.312 118.647 239.312C116.911 239.312 115.157 239.804 113.608 240.832C109.857 243.327 108.148 248.12 109.034 253.645C109.687 257.687 111.63 262.193 114.825 267.04L118.603 272.154L119.167 272.896C123.32 277.984 127.357 281.668 128.163 282.392C128.315 282.535 128.512 282.606 128.709 282.606C128.834 282.606 128.968 282.58 129.084 282.517C129.389 282.365 129.568 282.034 129.541 281.685L129.29 278.708L132.146 278.797C132.146 278.797 132.182 278.797 132.199 278.797C132.423 278.797 132.647 278.681 132.799 278.502C132.942 278.332 133.032 278.091 133.014 277.868C132.996 277.644 132.907 277.42 132.745 277.268C132.692 277.224 127.67 272.744 123.069 266.789L123.06 266.78Z" fill="#413D3C"/>
<path d="M134.133 239.607V270.124C134.133 270.187 134.205 270.196 134.25 270.231V239.446C134.187 239.482 134.133 239.536 134.133 239.607Z" fill="#3EBAC2"/>
<path d="M124.546 266.655L124.824 266.11C126.901 262.006 128.458 257.526 129.004 254.128C130.472 244.928 126.095 240.931 124.144 239.643C122.685 238.678 120.948 238.114 119.131 238.034C118.97 238.034 118.809 238.025 118.648 238.025C116.607 238.025 114.629 238.624 112.937 239.751C108.757 242.531 106.85 247.789 107.817 253.824C108.461 257.83 110.305 262.229 113.295 266.932L113.259 266.986L113.286 267.022L113.035 267.361C109.016 272.816 104.809 276.356 104.639 276.508C103.968 277.072 103.717 278.011 104.004 278.842C104.29 279.674 105.069 280.237 105.937 280.246L107.342 280.264L107.136 281.918C107.065 282.499 107.235 283.098 107.611 283.545C108.014 284.028 108.596 284.296 109.213 284.296C109.688 284.296 110.144 284.126 110.511 283.831C110.69 283.688 114.826 280.228 119.14 274.783C123.025 279.379 126.614 282.66 127.348 283.313C127.724 283.653 128.207 283.84 128.718 283.84C129.04 283.84 129.362 283.76 129.649 283.617C130.418 283.223 130.857 282.41 130.785 281.551L130.66 279.996L132.083 280.04H132.101H132.218C132.79 280.04 133.363 279.772 133.748 279.316C134.115 278.887 134.303 278.324 134.267 277.769C134.232 277.197 133.972 276.66 133.569 276.303C133.524 276.267 128.941 272.163 124.573 266.655H124.546ZM109.714 282.857C109.562 282.982 109.383 283.045 109.195 283.045C108.954 283.045 108.712 282.937 108.542 282.741C108.39 282.562 108.318 282.32 108.354 282.088L108.739 279.03L105.946 279.003C105.597 279.003 105.284 278.771 105.167 278.44C105.051 278.1 105.149 277.733 105.427 277.501C105.624 277.331 109.92 273.71 114.029 268.139L117.609 272.896L118.102 273.567L118.299 273.835C114.029 279.271 109.911 282.705 109.714 282.866V282.857ZM132.79 278.493C132.638 278.672 132.415 278.788 132.191 278.788C132.173 278.788 132.155 278.788 132.137 278.788L129.282 278.699L129.532 281.677C129.559 282.025 129.38 282.347 129.076 282.508C128.959 282.571 128.825 282.597 128.7 282.597C128.503 282.597 128.306 282.526 128.154 282.383C127.348 281.659 123.32 277.966 119.158 272.887L118.594 272.145L114.817 267.031C111.63 262.184 109.679 257.687 109.025 253.636C108.13 248.111 109.84 243.327 113.599 240.824C115.139 239.795 116.893 239.304 118.639 239.304C118.782 239.304 118.925 239.304 119.059 239.313C120.608 239.384 122.121 239.84 123.454 240.716C125.2 241.87 129.12 245.482 127.769 253.941C127.205 257.472 125.558 261.889 123.714 265.546C122.694 264.178 120.644 261.21 119.337 258.903C120.017 257.115 120.796 254.54 121.064 252.823C121.548 249.783 121.047 247.36 119.758 246.501C119.552 246.367 119.31 246.287 119.068 246.233C118.952 246.206 118.827 246.179 118.701 246.17C118.683 246.17 118.666 246.17 118.648 246.17C118.173 246.17 117.735 246.322 117.323 246.6C115.891 247.556 115.3 249.756 115.739 252.492C116.114 254.835 117.117 257.454 118.71 260.307C118.71 260.307 121.19 264.464 123.052 266.771C127.661 272.726 132.683 277.206 132.728 277.251C132.898 277.403 132.987 277.626 132.996 277.85C133.014 278.073 132.925 278.315 132.782 278.484L132.79 278.493ZM118.585 257.32C117.761 255.514 117.215 253.833 116.965 252.286C116.607 250.096 117.01 248.316 118.003 247.655C118.227 247.503 118.433 247.431 118.657 247.431C118.683 247.431 118.719 247.44 118.746 247.449L118.818 247.467C118.97 247.503 119.042 247.53 119.086 247.556C119.767 248.012 120.304 249.783 119.847 252.608C119.632 253.941 119.104 255.791 118.585 257.311V257.32Z" fill="#8C8C8C"/>
<path d="M104.397 270.124V239.608C104.397 238.892 103.851 238.32 103.162 238.222C103.091 238.213 103.037 238.186 102.965 238.186H96.6458C95.8581 238.186 95.2226 238.83 95.2226 239.617V249.506H92.4656V239.617C92.4656 238.83 91.8211 238.186 91.0334 238.186H84.705C83.9173 238.186 83.2817 238.83 83.2817 239.617V270.133C83.2817 270.92 83.9262 271.555 84.7139 271.555H91.0424C91.8301 271.555 92.4656 270.911 92.4656 270.124V258.867H95.2226V270.124C95.2226 270.911 95.867 271.546 96.6547 271.546H102.974C103.046 271.546 103.109 271.519 103.171 271.501C103.86 271.403 104.397 270.831 104.397 270.116V270.124ZM103.162 270.124C103.162 270.232 103.073 270.321 102.965 270.321H96.6458C96.5384 270.321 96.4489 270.232 96.4489 270.124V257.633H91.2303V270.124C91.2303 270.232 91.1408 270.321 91.0334 270.321H84.705C84.5976 270.321 84.508 270.232 84.508 270.124V239.608C84.508 239.5 84.5886 239.411 84.705 239.411H91.0334C91.1408 239.411 91.2303 239.5 91.2303 239.608V250.722H96.4489V239.608C96.4489 239.5 96.5384 239.411 96.6458 239.411H102.965C103.073 239.411 103.162 239.5 103.162 239.608V270.124Z" fill="#8C8C8C"/>
<path d="M141.733 245.705L141.052 245.634V252.474L141.741 252.393C142.708 252.286 143.46 252.018 143.979 251.598C144.633 251.07 144.946 250.239 144.946 249.076C144.946 247.833 144.633 246.948 144.006 246.456C143.505 246.054 142.744 245.804 141.733 245.696V245.705ZM143.201 250.659C142.986 250.829 142.672 250.972 142.288 251.061V247.038C142.708 247.127 143.039 247.261 143.236 247.431C143.55 247.681 143.711 248.254 143.711 249.094C143.711 249.863 143.541 250.382 143.201 250.659Z" fill="#8C8C8C"/>
<path d="M142.404 238.177H134.33C134.33 238.177 134.276 238.195 134.241 238.195C133.498 238.239 132.898 238.847 132.898 239.607V270.124C132.898 270.884 133.498 271.483 134.241 271.528C134.267 271.528 134.294 271.546 134.33 271.546H140.856C141.643 271.546 142.279 270.902 142.279 270.115V259.931C145.591 259.877 148.258 258.894 150.209 257.007C152.232 255.049 153.262 252.358 153.262 248.996C153.262 245.795 152.25 243.166 150.263 241.172C148.267 239.178 145.626 238.177 142.404 238.177ZM149.359 256.122C147.587 257.839 145.098 258.706 141.974 258.706H141.052V270.124C141.052 270.231 140.963 270.321 140.856 270.321H134.33C134.285 270.321 134.276 270.267 134.241 270.24C134.196 270.205 134.133 270.187 134.133 270.133V239.616C134.133 239.545 134.178 239.491 134.241 239.455C134.267 239.437 134.294 239.42 134.33 239.42H142.404C145.286 239.42 147.64 240.305 149.395 242.057C151.149 243.81 152.035 246.152 152.035 249.005C152.035 252.018 151.14 254.414 149.359 256.131V256.122Z" fill="#8C8C8C"/>
<path d="M170.851 262.175H165.131V259.475H169.866C170.654 259.475 171.289 258.831 171.289 258.044V251.714C171.289 250.927 170.645 250.283 169.866 250.283H165.131V247.511H170.806C171.594 247.511 172.229 246.868 172.229 246.081V239.589C172.229 238.802 171.585 238.159 170.797 238.159H156.762C155.974 238.159 155.338 238.802 155.338 239.589V270.106C155.338 270.893 155.983 271.528 156.771 271.528H170.851C171.638 271.528 172.283 270.884 172.283 270.097V263.579C172.283 262.792 171.638 262.157 170.851 262.157V262.175ZM171.048 270.115C171.048 270.222 170.958 270.312 170.851 270.312H156.771C156.663 270.312 156.574 270.222 156.574 270.115V239.598C156.574 239.491 156.654 239.402 156.771 239.402H170.806C170.913 239.402 171.003 239.491 171.003 239.598V246.09C171.003 246.197 170.913 246.286 170.806 246.286H163.905V251.517H169.866C169.973 251.517 170.063 251.606 170.063 251.714V258.044C170.063 258.152 169.973 258.241 169.866 258.241H163.905V263.4H170.851C170.958 263.4 171.048 263.489 171.048 263.597V270.115Z" fill="#8C8C8C"/>
</svg>
