<svg width="272" height="417" viewBox="0 0 272 417" fill="none" xmlns="http://www.w3.org/2000/svg">
<path d="M270.87 221.535C270.557 220.078 270.118 218.665 269.546 217.306C269.017 216.046 268.382 214.875 267.666 213.793C267.46 213.48 267.254 213.185 267.03 212.881C266.807 212.586 266.583 212.3 266.35 212.023C266.001 211.603 265.634 211.2 265.249 210.816C264.354 209.922 263.387 209.117 262.34 208.42C262.045 208.223 261.731 208.026 261.418 207.848C260.8 207.481 260.147 207.15 259.484 206.855C258.643 206.489 257.784 206.167 256.88 205.899C256.495 205.782 256.101 205.684 255.698 205.595C255.295 205.505 254.902 205.425 254.49 205.353C253.666 205.219 252.834 205.112 251.974 205.058C251.563 205.031 251.142 205.005 250.721 204.996C241.162 204.835 236.059 208.795 231.083 212.622C228.317 214.758 225.64 216.806 222.293 217.959C222.096 218.021 221.89 218.093 221.684 218.156C221.46 218.218 221.227 218.29 220.995 218.352C220.789 218.406 220.583 218.451 220.377 218.504C219.67 218.656 218.945 218.773 218.175 218.835C216.886 218.942 215.499 218.933 213.986 218.755C212.59 218.594 211.256 218.308 209.976 217.914C209.662 217.816 209.34 217.718 209.036 217.61C207.953 217.226 206.897 216.779 205.912 216.278C205.626 216.135 205.348 215.992 205.071 215.831C202.17 214.24 199.7 212.219 197.713 210.244C197.525 210.056 197.337 209.868 197.158 209.68C196.245 208.742 195.457 207.839 194.777 206.998C194.499 206.659 194.249 206.337 194.007 206.033C193.891 205.872 193.774 205.72 193.667 205.577C193.443 205.282 193.246 205.005 193.067 204.745C192.969 204.611 192.888 204.495 192.807 204.37H192.27V202.743H194.284C203.943 198.845 212.786 194.008 220.646 188.242C224.933 185.104 228.854 181.715 232.407 178.113C247.785 162.521 256.101 142.96 256.101 121.754C256.101 112.009 254.946 102.818 252.673 94.2625C252.136 92.242 251.536 90.2662 250.874 88.3262C250.542 87.3607 250.193 86.3951 249.835 85.4386C249.656 84.9647 249.468 84.482 249.28 84.0171C248.716 82.5956 248.108 81.2009 247.481 79.8241C246.846 78.4473 246.174 77.0974 245.467 75.7653C244.993 74.8713 244.509 73.9951 244.008 73.1189C243.99 73.0653 243.972 73.0028 243.945 72.9223C243.918 72.8418 243.892 72.7435 243.856 72.6363C243.838 72.5826 243.82 72.52 243.802 72.4574C243.74 72.2696 243.677 72.0461 243.596 71.7869C243.444 71.2773 243.256 70.6425 243.032 69.8916C242.925 69.5161 242.809 69.1138 242.692 68.6936C242.45 67.8443 242.182 66.8877 241.904 65.8507C240.553 60.8263 238.834 53.7903 237.644 46.5487C237.483 45.5474 237.33 44.5462 237.187 43.5449C236.972 42.0429 236.784 40.5409 236.641 39.0569C236.588 38.5562 236.543 38.0645 236.498 37.5817C236.292 35.1679 235.952 32.7183 235.469 30.2776C233.687 21.2481 230.026 12.3973 224.477 6.68448C224.324 6.5325 224.181 6.38051 224.02 6.22853C221.576 3.82362 218.784 2.02662 215.642 1.07002C215.4 0.9985 215.15 0.944894 214.908 0.882313C214.084 0.658808 213.252 0.471077 212.428 0.336974C211.775 0.229692 211.122 0.140255 210.468 0.0776741C210.253 0.0597937 210.029 0.0418697 209.815 0.0329295C201.204 -0.42302 192.333 3.85047 182.344 13.193C177.018 18.1726 172.945 21.3553 168.46 22.7589C167.61 23.0271 166.733 23.2328 165.847 23.3669C164.155 23.6262 162.374 23.6709 160.413 23.4742C160.145 23.4563 159.867 23.4206 159.59 23.3848C159.581 23.3848 159.572 23.3848 159.563 23.3848H159.545C150.379 22.008 140.694 21.2748 130.713 21.1586C129.818 21.1497 128.923 21.1408 128.028 21.1408C117.099 21.1408 106.492 21.9006 96.5112 23.4026C96.171 23.4383 95.8488 23.4652 95.5176 23.5009C94.1123 23.635 92.7875 23.6529 91.5343 23.5457C85.3133 23.0182 80.5334 19.5941 73.7126 13.2197C67.1694 7.09568 61.1005 3.17098 55.2733 1.31142C53.1339 0.62303 51.0394 0.220734 48.9538 0.0955719C46.5191 -0.0564113 44.1202 0.167085 41.7213 0.757137C41.2827 0.864419 40.853 0.971706 40.4144 1.09687C34.1218 3.01007 29.2344 8.28473 25.7614 15.0167C25.3317 15.8571 24.911 16.7153 24.5261 17.6004C24.1323 18.4855 23.7653 19.3885 23.4252 20.3004C23.2551 20.7563 23.085 21.2213 22.9239 21.6861C22.4405 23.0808 22.0019 24.5023 21.617 25.9506C21.3664 26.9072 21.1247 27.8817 20.9099 28.8562C20.2654 31.7796 19.8268 34.7298 19.5762 37.6175C19.2092 42.0071 18.4931 46.6203 17.6427 51.0099C17.2668 52.9678 16.8639 54.872 16.4522 56.6958C15.7361 59.8964 14.9932 62.8467 14.3218 65.341C14.2234 65.6986 14.1339 66.0473 14.0354 66.3871C13.8564 67.0665 13.6774 67.7013 13.5162 68.2913C13.4357 68.5864 13.3462 68.8724 13.2746 69.1406C13.2387 69.2747 13.194 69.4088 13.1582 69.5429C13.0866 69.8021 13.015 70.0525 12.9434 70.2939C12.8091 70.7678 12.6838 71.1879 12.5764 71.5634C12.5227 71.7422 12.4689 71.921 12.4242 72.073C12.4063 72.1535 12.3795 72.225 12.3616 72.2965C12.2989 72.5111 12.2363 72.6899 12.1915 72.8329C12.1378 72.9849 12.1109 73.0922 12.084 73.1637C11.8334 73.6018 11.5828 74.0398 11.3501 74.4779C10.1327 76.6772 9.01384 78.9391 7.99341 81.2546C7.79649 81.7195 7.59057 82.1843 7.39365 82.6492C6.80287 84.0528 6.24792 85.4833 5.72875 86.9227C5.37965 87.8882 5.04848 88.8627 4.73519 89.8461C4.4219 90.8295 4.11756 91.8129 3.84007 92.8142C3.55364 93.8155 3.28508 94.8168 3.03445 95.836C1.02044 103.963 0 112.644 0 121.816C0 138.946 5.4244 155.002 15.6197 168.752C16.1031 169.405 16.6044 170.057 17.1057 170.701C17.6159 171.345 18.135 171.98 18.6542 172.614C20.2385 174.51 21.9214 176.36 23.6937 178.166C27.2473 181.76 31.1769 185.148 35.4645 188.286C42.6343 193.543 50.6008 198.031 59.2745 201.742C53.0176 205.738 27.5069 223.412 13.561 254.354C12.7822 256.071 12.0483 257.832 11.3501 259.629C10.8846 260.827 10.4371 262.052 10.0074 263.295C9.79259 263.912 9.5867 264.537 9.38083 265.163C8.56627 267.675 7.83227 270.259 7.18779 272.914C6.96401 273.728 2.35418 290.661 6.8566 303.391C6.99087 303.767 7.13406 304.133 7.27728 304.509C7.57267 305.242 7.9039 305.966 8.2709 306.664C8.53943 307.191 8.83481 307.701 9.15705 308.201C9.26446 308.371 9.37186 308.532 9.47928 308.693C9.6225 308.907 9.76571 309.104 9.91787 309.31C12.1378 312.332 15.0737 314.486 18.69 315.782C20.3728 316.381 22.1988 316.793 24.1681 317.007C25.9314 317.204 27.5874 317.267 29.1628 317.204C31.6781 317.097 33.9606 316.641 36.0373 315.809C43.0997 312.984 47.8796 305.76 51.7555 292.627C51.8629 292.475 51.9166 292.288 51.9077 292.109C52.5969 289.713 53.2682 287.147 53.9127 284.358C54.772 280.656 55.7745 277.375 56.8576 274.488C57.1262 273.764 57.4036 273.066 57.6811 272.387C57.8154 272.047 57.9676 271.716 58.1019 271.385C58.5226 270.402 58.9522 269.481 59.3819 268.605C59.9547 267.443 60.5366 266.361 61.1094 265.369C61.5391 264.618 61.9687 263.92 62.3894 263.277C63.929 260.899 65.3791 259.12 66.5517 257.868C66.4443 258.154 66.3279 258.467 66.2116 258.789C65.8804 259.656 65.5313 260.657 65.1554 261.784C65.0569 262.07 64.9674 262.356 64.8689 262.651C64.7257 263.098 64.5825 263.563 64.4393 264.037C64.1439 265.002 63.8485 266.048 63.5442 267.157C63.4636 267.443 63.392 267.729 63.3204 268.024C63.1682 268.614 63.016 269.222 62.8639 269.839C62.7923 270.152 62.7117 270.474 62.6401 270.796C60.2859 280.809 58.254 295.22 59.167 313.637C59.3103 316.524 59.4893 319.189 59.6951 321.665C59.7936 322.899 59.91 324.088 60.0264 325.223C60.0532 325.447 60.08 325.679 60.0979 325.903C60.1158 326.117 60.1427 326.341 60.1606 326.555C56.7413 326.591 53.4831 326.985 50.4397 327.673C38.5884 330.391 30.1296 337.793 29.0107 347.306C28.9749 347.592 28.948 347.896 28.9301 348.2C28.7958 350.613 29.1986 353.51 30.416 356.433C30.6845 357.077 30.9888 357.721 31.3379 358.356C31.517 358.669 31.696 358.99 31.8929 359.303C32.0898 359.616 32.2957 359.938 32.5105 360.251C32.7343 360.564 32.9581 360.877 33.1998 361.181C33.9248 362.102 34.7484 363.005 35.6882 363.872C38.302 366.268 42.1867 368.699 47.8081 369.987C48.3451 370.112 48.9001 370.228 49.4819 370.327C49.5893 370.344 49.6967 370.362 49.8041 370.38C50.1443 370.443 50.5023 370.487 50.8604 370.541C51.9166 370.693 53.0176 370.791 54.1813 370.854C54.5662 370.872 54.96 370.89 55.3628 370.908C55.7835 370.926 56.2221 370.926 56.6607 370.926C56.7771 370.926 56.9024 370.926 57.0187 370.917C57.3768 370.917 57.7528 370.899 58.1198 370.89C61.0289 370.8 64.2244 370.47 67.7512 369.799C67.7512 369.897 67.7422 369.987 67.7333 370.085C67.7333 370.184 67.7243 370.282 67.7154 370.371C67.6975 370.648 67.6796 370.926 67.6527 371.212C67.6438 371.355 67.6348 371.48 67.6169 371.623C67.6169 371.632 67.6169 371.757 67.59 371.989C67.5721 372.159 67.5543 372.392 67.5185 372.66C67.4737 373.035 67.411 373.482 67.3305 374.01C67.1425 375.181 66.8382 376.701 66.3637 378.355C65.7282 380.563 64.7794 383.013 63.383 385.221C63.1503 385.596 62.9086 385.999 62.6669 386.428C62.5505 386.642 62.4253 386.875 62.3089 387.107C62.2552 387.224 62.1925 387.34 62.1299 387.465C61.7718 388.189 61.4227 388.967 61.0915 389.789C59.9458 392.677 59.1044 396.155 59.2924 399.597C59.2924 399.615 59.2924 399.633 59.2924 399.65C59.355 400.911 59.5698 402.171 59.9458 403.396C60.2322 404.317 60.6171 405.229 61.1184 406.105C63.8306 410.87 69.3534 413.964 77.5706 415.376C78.4209 415.519 79.3161 415.653 80.2201 415.761C80.6766 415.814 81.1421 415.868 81.6076 415.913C82.082 415.966 82.5564 416.002 83.0397 416.038C83.532 416.073 84.0244 416.1 84.5167 416.136C85.0179 416.163 85.5192 416.19 86.0384 416.208C87.0678 416.243 88.1329 416.261 89.216 416.261C89.9232 416.261 90.6571 416.252 91.3911 416.234C91.606 416.234 91.8029 416.234 92.0088 416.225L93.9511 416.181C99.1786 416.056 105.606 415.904 111.173 414.643C111.442 414.58 111.71 414.518 111.979 414.446C112.775 414.25 113.545 414.026 114.288 413.776C116.875 412.909 119.149 411.711 120.849 410.039C120.984 409.905 121.1 409.78 121.234 409.637C121.727 409.1 122.165 408.519 122.541 407.884C122.908 407.25 123.221 406.57 123.463 405.837C123.758 404.916 123.946 403.915 124.009 402.815C124.108 401.018 124.009 398.962 123.767 396.736C123.66 395.752 123.526 394.724 123.382 393.669C122.98 390.862 122.443 387.849 121.888 384.765C119.748 372.866 117.323 359.375 120.939 349.219C121.002 349.049 120.984 348.888 120.939 348.727C122.228 348.977 123.705 349.201 125.28 349.362C125.558 349.389 125.826 349.415 126.113 349.442C127.214 349.532 128.359 349.585 129.523 349.585C130.391 349.585 131.268 349.549 132.146 349.487C133.166 349.406 134.187 349.272 135.198 349.085C135.207 349.12 135.198 349.165 135.216 349.21C135.261 349.335 135.296 349.46 135.332 349.585C135.422 349.854 135.502 350.131 135.592 350.399C138.635 360.403 136.335 373.304 134.276 384.756C133.05 391.595 131.895 398.059 132.155 402.806C132.674 412.104 142.269 414.956 152.008 415.823C155.902 416.172 159.814 416.208 163.188 416.208C164.146 416.234 165.077 416.243 165.99 416.243C166.903 416.243 167.834 416.234 168.729 416.208C172.238 416.1 175.415 415.778 178.262 415.251C184.17 414.16 188.636 412.158 191.608 409.27C192.226 408.662 192.781 408.027 193.273 407.348C193.568 406.946 193.837 406.525 194.088 406.087C194.607 405.166 195.01 404.219 195.296 403.244C195.377 402.976 195.448 402.717 195.511 402.449C195.726 401.528 195.851 400.58 195.914 399.633V399.579C196.2 393.982 193.801 388.332 191.823 385.203C191.008 383.916 190.346 382.548 189.818 381.189C189.737 380.992 189.666 380.804 189.594 380.617C189.451 380.232 189.317 379.848 189.191 379.463C188.636 377.756 188.26 376.138 188.019 374.823C187.938 374.385 187.866 373.974 187.822 373.608C187.634 372.392 187.58 371.623 187.58 371.587C186.989 365.213 187.437 360.984 188.395 356.872C188.466 356.577 188.538 356.273 188.609 355.978C188.762 355.379 188.914 354.78 189.084 354.181C189.129 354.029 189.164 353.877 189.209 353.725C189.46 352.813 189.737 351.883 190.024 350.908C191.268 346.689 192.682 341.888 193.864 334.852C194.025 333.877 194.186 332.849 194.338 331.785C194.49 330.713 194.634 329.595 194.786 328.433C194.839 327.959 194.893 327.485 194.956 327.002C195.018 326.52 195.063 326.028 195.117 325.527C195.171 325.027 195.215 324.517 195.269 323.999C195.323 323.48 195.368 322.953 195.412 322.416C195.466 321.871 195.511 321.334 195.547 320.771C195.591 320.208 195.627 319.645 195.672 319.073C195.797 317.338 195.905 315.514 195.994 313.601C195.994 313.592 195.994 313.583 195.994 313.574C195.994 313.574 195.994 313.556 195.994 313.547C196.997 295.962 195.466 282.57 193.389 273.004C193.371 272.923 193.354 272.834 193.336 272.753C191.698 265.315 189.737 260.219 188.413 257.278C188.762 257.519 189.12 257.752 189.469 257.984C191.93 259.593 194.383 260.943 196.8 262.088C197.149 262.249 197.498 262.41 197.838 262.562C198.017 262.642 198.187 262.722 198.366 262.794C198.527 262.874 198.688 262.946 198.85 263.009C200.908 263.885 202.94 264.618 204.918 265.208C210.003 266.728 214.809 267.398 219.133 267.541C219.75 267.559 220.359 267.568 220.959 267.568C222.382 267.568 223.734 267.514 225.032 267.416C225.909 267.353 226.768 267.273 227.583 267.175C228.576 267.05 229.561 266.906 230.546 266.728C236.471 265.7 242.227 263.724 247.508 260.952C248.43 260.461 249.352 259.951 250.247 259.415C251.142 258.878 252.028 258.315 252.896 257.734C253.469 257.34 254.033 256.938 254.597 256.536C254.884 256.33 255.161 256.125 255.439 255.91C255.985 255.49 256.522 255.061 257.059 254.623C258.124 253.738 259.153 252.826 260.138 251.869C260.245 251.833 260.344 251.762 260.424 251.681C260.505 251.592 260.577 251.494 260.621 251.377C260.8 251.199 260.979 251.02 261.167 250.841C261.346 250.662 261.525 250.474 261.695 250.296C269.501 242.035 272.92 230.985 270.915 221.562L270.87 221.535ZM227.368 265.539C224.951 265.825 222.248 265.986 219.303 265.896C217.405 265.843 215.409 265.682 213.341 265.387C211.247 265.092 209.081 264.663 206.843 264.055C204.005 263.295 201.06 262.258 198.062 260.881C197.704 260.72 197.355 260.55 196.997 260.38C196.63 260.201 196.263 260.023 195.896 259.835C192.843 258.279 189.737 256.366 186.631 254.015C186.577 253.979 186.506 253.952 186.452 253.934C186.416 253.916 186.381 253.899 186.345 253.881C186.318 253.881 186.282 253.881 186.255 253.881C186.184 253.872 186.103 253.863 186.031 253.872C186.014 253.872 185.996 253.89 185.978 253.89C185.897 253.907 185.808 253.934 185.736 253.979H185.727C185.727 253.979 185.664 254.042 185.638 254.068C185.593 254.104 185.539 254.131 185.503 254.185C185.503 254.185 185.503 254.185 185.503 254.194C185.468 254.247 185.45 254.301 185.423 254.354C185.405 254.399 185.369 254.435 185.36 254.48C185.36 254.515 185.36 254.56 185.36 254.596C185.36 254.658 185.342 254.721 185.36 254.793C185.36 254.819 185.378 254.846 185.387 254.882C185.405 254.953 185.423 255.025 185.468 255.088V255.096C185.494 255.141 188.296 259.772 190.776 269.24C192.888 277.286 195.153 290.455 194.571 308.675C138.197 326.091 76.9888 312.805 63.213 309.39C62.9176 309.319 62.6401 309.256 62.3894 309.185C62.0761 309.104 61.8076 309.033 61.5659 308.97C61.1452 308.863 60.814 308.773 60.6171 308.72C60.1517 288.434 63.2756 273.549 65.9431 264.662C66.2384 263.67 66.5338 262.758 66.8113 261.918C67.1156 260.997 67.411 260.174 67.6796 259.441C68.7358 256.598 69.4967 255.105 69.5235 255.052C69.6936 254.721 69.622 254.319 69.3445 254.068C69.067 253.818 68.6553 253.791 68.3509 254.006C67.9123 254.301 57.5111 261.498 52.3194 283.964C51.7734 286.36 51.2005 288.577 50.6098 290.643C36.091 278.341 14.5993 281.515 7.93075 282.891C7.61746 282.954 7.33997 283.017 7.08934 283.07C7.05353 283.07 7.00878 283.088 6.98193 283.088C7.61746 277.483 8.72739 273.379 8.7632 273.272C19.424 228.875 56.9382 204.996 61.1094 202.457C61.181 202.483 61.2526 202.51 61.3242 202.546C61.6375 202.671 61.9419 202.787 62.2552 202.913C75.7177 208.304 90.7825 211.862 107.118 213.471C108.336 215.179 114.199 222.223 128.046 222.223C141.455 222.223 146.432 215.617 147.64 213.596C163.224 212.157 177.671 208.974 190.704 204.128C192.503 207.052 200.497 218.808 213.789 220.355C217.253 220.757 220.082 220.4 222.552 219.595C223.188 219.389 223.796 219.139 224.387 218.871C224.978 218.612 225.56 218.326 226.115 218.013C226.249 217.932 226.401 217.861 226.544 217.78C226.544 217.834 226.562 217.905 226.571 217.959C226.607 218.182 226.643 218.451 226.696 218.764C226.732 219.005 226.786 219.282 226.849 219.568C228.191 226.461 234.117 246.362 258.052 251.52C249.826 259.102 238.834 264.162 227.377 265.512L227.368 265.539Z" fill="#EA5E00"/>
<path d="M50.6278 170.379C50.7173 170.585 50.8873 170.737 51.0932 170.808C60.0354 179.087 71.645 185.819 85.0985 190.414C85.1702 190.45 85.2418 190.477 85.3223 190.494C98.1404 194.848 112.614 197.28 128.037 197.28C182.201 197.28 224.629 167.321 224.62 129.093C224.62 110.292 214.272 91.5176 196.245 77.571C177.761 63.2756 153.53 55.4082 128.019 55.4082C101.712 55.4082 77.4901 62.5693 59.8116 75.5684C41.5065 89.0233 31.4276 108.039 31.4365 129.12C31.4365 144.747 38.5348 158.989 50.6278 170.37V170.379ZM53.3041 170.638C58.6032 170.236 74.4646 170.647 83.8275 188.259C71.8956 183.959 61.5123 177.942 53.3041 170.638ZM170.394 188.894C180.849 168.385 199.503 170.272 202.618 170.754C194.007 178.372 183.033 184.585 170.394 188.894ZM60.7783 76.8825C78.1793 64.0891 102.061 57.0442 128.019 57.0442C153.172 57.0442 177.054 64.7864 195.251 78.8672C212.885 92.501 222.991 110.811 223 129.102C223 144.47 215.919 158.471 203.88 169.619C203.764 169.431 203.585 169.288 203.352 169.244C203.11 169.199 197.417 168.117 190.221 170.048C183.579 171.827 174.395 176.619 168.344 189.359C168.308 189.439 168.29 189.529 168.281 189.609C156.126 193.498 142.511 195.662 128.046 195.671C112.883 195.671 98.6506 193.302 86.0563 189.046C75.3508 166.964 55.0943 168.725 51.7108 169.19C39.9669 158.122 33.0745 144.291 33.0745 129.138C33.0745 108.584 42.9119 90.0336 60.7873 76.8915L60.7783 76.8825Z" fill="#2F2F2F"/>
<path d="M128.037 175.511C130.731 175.511 132.915 174.215 132.915 172.614C132.915 171.014 130.731 169.718 128.037 169.718C125.342 169.718 123.158 171.014 123.158 172.614C123.158 174.215 125.342 175.511 128.037 175.511Z" fill="#2F2F2F"/>
<path d="M76.7558 155.029C77.0959 155.029 77.4182 155.037 77.7494 155.037C90.0751 155.037 95.0877 149.137 95.3026 148.878C95.7322 148.359 95.6517 147.599 95.1415 147.17C94.6223 146.741 93.8525 146.813 93.4228 147.322C93.3781 147.376 88.5802 152.91 76.8184 152.588C64.985 152.293 59.5875 146.482 59.507 146.392C59.0594 145.892 58.2896 145.847 57.7884 146.294C57.2871 146.741 57.2423 147.51 57.6809 148.011C57.9226 148.288 63.7588 154.689 76.7469 155.02L76.7558 155.029Z" fill="#2F2F2F"/>
<path d="M178.324 155.029C178.646 155.029 178.977 155.029 179.318 155.02C192.306 154.689 198.142 148.279 198.383 148.002C198.831 147.501 198.786 146.723 198.276 146.285C197.775 145.838 196.996 145.883 196.557 146.393C196.504 146.455 191.196 152.284 179.255 152.588C167.466 152.874 162.695 147.385 162.651 147.331C162.221 146.813 161.451 146.741 160.932 147.17C160.413 147.6 160.341 148.368 160.771 148.887C160.986 149.146 165.998 155.047 178.324 155.047V155.029Z" fill="#2F2F2F"/>
<path d="M270.87 221.535C270.557 220.078 270.118 218.665 269.546 217.306C269.017 216.046 268.382 214.874 267.666 213.793C267.46 213.48 267.254 213.176 267.03 212.881C266.807 212.586 266.583 212.3 266.35 212.023C266.001 211.602 265.634 211.2 265.249 210.816C264.354 209.922 263.387 209.117 262.34 208.42C262.045 208.223 261.731 208.026 261.418 207.847C260.8 207.481 260.156 207.141 259.484 206.855C258.652 206.48 257.784 206.167 256.88 205.898C256.495 205.791 256.101 205.684 255.698 205.603C255.295 205.514 254.902 205.434 254.49 205.362C253.666 205.228 252.834 205.121 251.974 205.067C251.563 205.031 251.151 205.013 250.721 205.004C241.162 204.844 236.059 208.804 231.083 212.63C228.317 214.767 225.64 216.814 222.293 217.968C222.096 218.03 221.89 218.102 221.684 218.164C221.46 218.227 221.227 218.299 220.995 218.361C220.789 218.415 220.583 218.459 220.377 218.513C219.67 218.665 218.945 218.781 218.175 218.844C216.886 218.951 215.499 218.942 213.986 218.763C212.59 218.602 211.256 218.316 209.976 217.923C209.662 217.825 209.34 217.726 209.036 217.619C207.953 217.235 206.897 216.788 205.912 216.287C205.626 216.135 205.348 215.992 205.071 215.84C202.17 214.249 199.7 212.228 197.713 210.252C197.525 210.065 197.337 209.877 197.158 209.689C196.263 208.759 195.457 207.847 194.777 207.007C194.508 206.676 194.249 206.345 194.007 206.042C193.891 205.881 193.774 205.729 193.667 205.586C193.452 205.291 193.255 205.013 193.067 204.754C192.969 204.62 192.888 204.504 192.807 204.379H192.27V202.751H194.284C203.943 198.854 212.786 194.017 220.645 188.251C224.933 185.113 228.854 181.724 232.407 178.121C247.785 162.539 256.101 142.977 256.101 121.762C256.101 112.018 254.946 102.827 252.673 94.2713C252.136 92.2508 251.545 90.275 250.874 88.335C250.542 87.3695 250.193 86.4039 249.835 85.4473C249.656 84.9735 249.468 84.4908 249.28 84.0259C248.716 82.6044 248.117 81.2097 247.481 79.8329C246.846 78.4561 246.174 77.1062 245.467 75.7741C244.993 74.8801 244.509 74.0039 244.008 73.1277C243.99 73.0741 243.972 73.0115 243.945 72.9311C243.927 72.8506 243.892 72.7523 243.856 72.645C243.838 72.5914 243.82 72.5288 243.802 72.4662C243.739 72.2784 243.677 72.0549 243.596 71.7957C243.444 71.2861 243.256 70.6513 243.032 69.9003C242.925 69.5249 242.809 69.1226 242.692 68.7024C242.45 67.8531 242.191 66.8964 241.904 65.8594C240.553 60.835 238.834 53.7991 237.644 46.5575C237.483 45.5562 237.33 44.5549 237.187 43.5536C236.972 42.0517 236.793 40.5497 236.641 39.0657C236.588 38.565 236.543 38.0733 236.498 37.5905C236.292 35.1767 235.952 32.7271 235.469 30.2864C233.696 21.2569 230.035 12.4061 224.477 6.69327C224.324 6.54129 224.181 6.3893 224.02 6.23732C221.576 3.83241 218.784 2.03541 215.642 1.07881C215.4 1.00729 215.15 0.953683 214.908 0.891102C214.084 0.667597 213.252 0.479866 212.428 0.345763C211.775 0.238481 211.121 0.140104 210.468 0.0864631C210.253 0.0685828 210.029 0.0506587 209.815 0.0417185C201.204 -0.414231 192.333 3.85926 182.344 13.2018C177.018 18.1814 172.945 21.3641 168.46 22.7677C167.61 23.0359 166.733 23.2416 165.847 23.3757C164.155 23.635 162.374 23.6797 160.413 23.483C160.145 23.4561 159.867 23.4204 159.59 23.3846H159.545C150.379 22.0079 140.694 21.2747 130.713 21.1584C129.818 21.1495 128.923 21.1406 128.028 21.1406C117.099 21.1406 106.492 21.9005 96.5112 23.4024C96.171 23.4382 95.8488 23.465 95.5176 23.5008C94.1123 23.6349 92.7875 23.6528 91.5343 23.5455C85.3133 23.018 80.5334 19.5939 73.7126 13.2195C67.1694 7.09552 61.1005 3.17082 55.2733 1.31126C53.1339 0.62287 51.0394 0.220575 48.9538 0.095412C46.5191 -0.0565711 44.1202 0.166925 41.7213 0.756977C41.2827 0.864259 40.853 0.971546 40.4144 1.09671C34.1217 3.00991 29.2344 8.28457 25.7614 15.0165C25.3317 15.8569 24.911 16.7152 24.5261 17.6003C24.1412 18.4853 23.7653 19.3883 23.4252 20.3002C23.2551 20.7562 23.085 21.2211 22.9239 21.686C22.4405 23.0807 22.0019 24.5022 21.617 25.9505C21.3664 26.9071 21.1247 27.8815 20.9099 28.856C20.2744 31.7795 19.8268 34.7297 19.5851 37.6173C19.2181 42.007 18.502 46.6201 17.6427 51.0097C17.2668 52.9676 16.8639 54.8719 16.4522 56.6957C15.7361 59.8963 14.9932 62.8466 14.3218 65.3409C14.2234 65.6985 14.1339 66.0472 14.0354 66.3869C13.8564 67.0664 13.6774 67.7011 13.5162 68.2912C13.4357 68.5862 13.3462 68.8722 13.2745 69.1404C13.2387 69.2746 13.194 69.4086 13.1582 69.5427C13.0866 69.802 13.015 70.0524 12.9434 70.2938C12.8091 70.7676 12.6838 71.1877 12.5764 71.5632C12.5227 71.742 12.4689 71.9209 12.4242 72.0729C12.4063 72.1533 12.3795 72.2248 12.3616 72.2964C12.2989 72.5109 12.2363 72.6897 12.1915 72.8328C12.1467 72.9847 12.1109 73.092 12.093 73.1635C11.8424 73.6016 11.5918 74.0396 11.3501 74.4777C10.1327 76.677 9.01384 78.9389 7.99341 81.2544C7.79649 81.7193 7.59057 82.1842 7.39365 82.6491C6.80287 84.0527 6.24791 85.4831 5.72875 86.9225C5.38861 87.888 5.04848 88.8625 4.73519 89.846C4.4219 90.8294 4.11756 91.8127 3.84007 92.814C3.55364 93.8153 3.29403 94.8167 3.03445 95.8358C1.02044 103.962 0 112.643 0 121.816C0 138.945 5.4244 155.002 15.6197 168.752C16.1031 169.405 16.6044 170.057 17.1057 170.701C17.6159 171.345 18.135 171.979 18.6542 172.614C20.2385 174.509 21.9214 176.36 23.6937 178.166C27.2473 181.76 31.1769 185.148 35.4645 188.286C42.6343 193.543 50.6008 198.031 59.2744 201.741C53.0176 205.738 27.5069 223.412 13.561 254.354C12.7912 256.071 12.0483 257.832 11.3501 259.629C10.8846 260.827 10.4371 262.052 10.0074 263.294C9.79259 263.911 9.5867 264.537 9.38083 265.163C8.56627 267.675 7.83228 270.259 7.19675 272.914C6.97297 273.728 2.36313 290.651 6.8566 303.391C6.99087 303.767 7.13406 304.133 7.27728 304.509C7.57267 305.242 7.9039 305.966 8.2709 306.663C8.53943 307.182 8.84376 307.7 9.15705 308.201C9.26446 308.371 9.37187 308.532 9.48824 308.693C9.63146 308.907 9.77466 309.104 9.91787 309.31C12.1378 312.331 15.0737 314.486 18.69 315.782C20.3728 316.381 22.1988 316.793 24.1681 317.007C25.9314 317.204 27.5874 317.266 29.1628 317.204C31.6781 317.096 33.9606 316.641 36.0373 315.809C43.0997 312.984 47.8796 305.76 51.7555 292.627C51.8629 292.475 51.9256 292.288 51.9077 292.109C52.5969 289.713 53.2682 287.147 53.9127 284.358C54.772 280.656 55.7745 277.375 56.8576 274.488C57.1262 273.763 57.4036 273.066 57.6811 272.387C57.8154 272.047 57.9676 271.716 58.1019 271.385C58.5226 270.402 58.9522 269.481 59.3819 268.605C59.9547 267.443 60.5365 266.361 61.1094 265.369C61.5391 264.618 61.9687 263.92 62.3894 263.277C63.938 260.899 65.3881 259.119 66.5517 257.868C66.5517 257.868 66.5547 257.865 66.5607 257.859C66.4443 258.154 66.3279 258.467 66.2026 258.789C65.8714 259.656 65.5223 260.657 65.1464 261.784C65.0479 262.07 64.9584 262.356 64.8599 262.651C64.7257 263.098 64.5735 263.563 64.4303 264.036C64.1349 265.002 63.8395 266.048 63.5352 267.157C63.4546 267.443 63.383 267.729 63.3025 268.024C63.1503 268.614 62.9981 269.222 62.8459 269.839C62.7743 270.152 62.6938 270.473 62.6222 270.795C60.268 280.808 58.2361 295.22 59.1491 313.637C59.2923 316.524 59.4714 319.188 59.6773 321.665C59.7847 322.899 59.8921 324.088 60.0084 325.223C60.0353 325.447 60.0622 325.679 60.0801 325.903C60.098 326.117 60.1248 326.341 60.1516 326.555C56.7323 326.591 53.4741 326.984 50.4307 327.673C38.5794 330.391 30.1206 337.793 29.0017 347.305C28.9659 347.591 28.9391 347.895 28.9212 348.199C28.7869 350.613 29.1897 353.51 30.407 356.433C30.6756 357.077 30.9799 357.712 31.329 358.355C31.508 358.668 31.6871 358.99 31.884 359.303C32.0809 359.616 32.2868 359.938 32.5016 360.251C32.7254 360.564 32.9491 360.877 33.1908 361.181C33.9159 362.101 34.7394 363.004 35.6793 363.872C38.293 366.268 42.1778 368.699 47.7991 369.987C48.3362 370.112 48.9001 370.228 49.4729 370.326C49.5804 370.344 49.6878 370.362 49.7952 370.38C50.1353 370.443 50.4934 370.487 50.8515 370.541C51.9077 370.693 53.0086 370.791 54.1723 370.854C54.5572 370.872 54.951 370.89 55.3538 370.908C55.7835 370.916 56.2221 370.925 56.6607 370.925C56.7771 370.925 56.8934 370.925 57.0187 370.925C57.3768 370.925 57.7528 370.908 58.1198 370.899C61.0289 370.809 64.2244 370.478 67.7512 369.808C67.7512 369.906 67.7333 369.996 67.7243 370.094C67.7243 370.192 67.7154 370.291 67.7064 370.38C67.6885 370.657 67.6706 370.934 67.6437 371.22C67.6258 371.363 67.6259 371.489 67.608 371.632C67.608 371.641 67.599 371.766 67.5722 371.998C67.5543 372.168 67.5364 372.401 67.5005 372.669C67.4558 373.044 67.3931 373.491 67.3126 374.019C67.1246 375.19 66.8203 376.71 66.3459 378.364C65.7103 380.572 64.7615 383.021 63.3651 385.23C63.1324 385.605 62.8907 386.007 62.649 386.437C62.5327 386.651 62.4073 386.884 62.291 387.116C62.2373 387.232 62.1746 387.349 62.1119 387.474C61.7539 388.198 61.4048 388.967 61.0736 389.798C59.9368 392.686 59.0954 396.155 59.2744 399.605C59.2744 399.623 59.2744 399.641 59.2744 399.659C59.3461 400.92 59.5519 402.18 59.9279 403.405C60.2143 404.326 60.5992 405.238 61.1005 406.114C63.8127 410.879 69.3355 413.972 77.5527 415.385C78.403 415.528 79.2981 415.662 80.2022 415.769C80.6587 415.823 81.1242 415.877 81.5896 415.921C82.064 415.975 82.5384 416.011 83.0218 416.047C83.5141 416.082 84.0064 416.109 84.4987 416.145C85 416.172 85.5013 416.198 86.0204 416.216C87.0498 416.252 88.115 416.27 89.1981 416.27C89.9052 416.27 90.6392 416.261 91.3732 416.243C91.588 416.243 91.785 416.243 91.9908 416.234L93.9332 416.19C99.1607 416.064 105.588 415.912 111.155 414.652C111.424 414.589 111.692 414.527 111.961 414.455C112.757 414.258 113.527 414.035 114.27 413.785C116.857 412.917 119.131 411.719 120.831 410.048C120.966 409.914 121.082 409.788 121.216 409.645C121.718 409.109 122.156 408.528 122.523 407.893C122.899 407.258 123.212 406.579 123.445 405.846C123.741 404.925 123.928 403.924 123.991 402.824C124.09 401.027 123.991 398.971 123.749 396.745C123.642 395.752 123.517 394.733 123.365 393.678C122.962 390.871 122.425 387.858 121.87 384.774C119.73 372.874 117.305 359.384 120.921 349.228C120.984 349.058 120.975 348.897 120.921 348.736C122.21 348.986 123.687 349.21 125.262 349.371C125.54 349.397 125.808 349.424 126.095 349.451C127.196 349.54 128.341 349.594 129.505 349.594C130.373 349.594 131.251 349.558 132.128 349.496C133.148 349.415 134.169 349.281 135.18 349.093C135.189 349.129 135.18 349.174 135.198 349.219C135.243 349.344 135.279 349.469 135.314 349.594C135.413 349.862 135.484 350.139 135.574 350.408C138.617 360.412 136.317 373.312 134.258 384.765C133.032 391.604 131.877 398.068 132.137 402.815C132.656 412.113 142.251 414.965 151.99 415.832C155.884 416.181 159.796 416.216 163.17 416.216C164.128 416.243 165.059 416.252 165.972 416.252C166.885 416.252 167.816 416.243 168.711 416.216C172.22 416.109 175.398 415.787 178.244 415.26C184.152 414.169 188.618 412.166 191.59 409.279C192.208 408.671 192.763 408.036 193.255 407.357C193.55 406.954 193.819 406.534 194.07 406.096C194.589 405.175 194.992 404.228 195.278 403.253C195.359 402.985 195.43 402.726 195.493 402.457C195.717 401.528 195.842 400.589 195.896 399.641V399.588C196.191 393.991 193.783 388.341 191.805 385.212C190.99 383.924 190.328 382.557 189.791 381.198C189.71 381.001 189.639 380.813 189.567 380.625C189.424 380.241 189.29 379.857 189.164 379.472C188.609 377.765 188.233 376.146 187.992 374.832C187.911 374.394 187.849 373.983 187.795 373.616C187.616 372.401 187.571 371.632 187.562 371.596C186.971 365.213 187.419 360.993 188.377 356.88C188.448 356.585 188.52 356.281 188.591 355.986C188.744 355.387 188.905 354.788 189.066 354.189C189.111 354.037 189.146 353.885 189.191 353.733C189.451 352.821 189.719 351.883 190.015 350.917C191.259 346.698 192.673 341.897 193.846 334.861C194.016 333.886 194.177 332.858 194.32 331.794C194.472 330.721 194.625 329.604 194.768 328.442C194.822 327.968 194.875 327.494 194.938 327.011C195.001 326.528 195.045 326.037 195.099 325.536C195.153 325.035 195.197 324.526 195.251 324.007C195.305 323.489 195.35 322.961 195.394 322.425C195.448 321.88 195.493 321.343 195.529 320.78C195.573 320.217 195.618 319.653 195.654 319.081C195.779 317.347 195.887 315.523 195.976 313.61C195.976 313.601 195.976 313.592 195.976 313.583V313.556C196.979 295.971 195.448 282.578 193.371 273.012C193.354 272.932 193.336 272.843 193.318 272.762C191.689 265.324 189.728 260.219 188.395 257.287C188.744 257.519 189.102 257.76 189.451 257.984C191.912 259.593 194.365 260.943 196.782 262.088C197.131 262.249 197.48 262.409 197.82 262.561C197.999 262.642 198.169 262.722 198.348 262.794C198.509 262.865 198.679 262.937 198.841 263.008C200.899 263.884 202.922 264.618 204.909 265.208C209.994 266.728 214.8 267.398 219.124 267.541C219.741 267.559 220.35 267.568 220.95 267.568C222.373 267.568 223.725 267.514 225.023 267.416C225.9 267.353 226.759 267.273 227.574 267.175C228.567 267.049 229.552 266.906 230.537 266.728C236.462 265.699 242.218 263.724 247.499 260.952C248.421 260.46 249.343 259.951 250.238 259.414C251.133 258.878 252.019 258.315 252.888 257.734C253.46 257.349 254.033 256.947 254.588 256.536C254.875 256.33 255.152 256.124 255.43 255.91C255.976 255.499 256.513 255.061 257.05 254.622C258.115 253.737 259.144 252.826 260.129 251.869C260.236 251.833 260.335 251.762 260.415 251.681C260.496 251.601 260.568 251.493 260.612 251.377C260.791 251.198 260.97 251.02 261.158 250.841C261.337 250.662 261.516 250.474 261.686 250.295C269.492 242.035 272.911 230.985 270.897 221.562L270.87 221.535ZM36.4133 186.927C34.453 185.488 32.5732 183.995 30.774 182.466C30.5234 182.252 30.2817 182.055 30.0401 181.84C29.87 181.689 29.6999 181.545 29.5387 181.393C12.7912 166.642 3.10608 147.635 1.77236 126.769C1.77236 126.715 1.7634 126.662 1.7634 126.617C1.71865 125.937 1.69181 125.249 1.66495 124.561C1.66495 124.435 1.65598 124.319 1.64703 124.194C1.62913 123.389 1.61125 122.576 1.61125 121.771C1.61125 103.676 5.61239 87.5573 13.5162 73.8698C13.5431 73.8162 13.57 73.7625 13.5879 73.7089C13.8385 72.9043 19.8089 53.8795 21.1784 37.7157C22.539 21.6144 28.5631 10.8594 35.2138 5.67408C37.0846 4.21683 39.0001 3.19762 40.8799 2.62545C41.3364 2.49134 41.7929 2.36626 42.2583 2.25898C43.977 1.84773 45.7045 1.62415 47.4589 1.62415C55.2733 1.62415 63.4188 5.79028 72.6027 14.3639C82.4848 23.5991 88.106 26.0756 96.7349 24.9759C106.653 23.4918 117.179 22.7319 128.028 22.7319C138.877 22.7319 149.403 23.4829 159.339 24.967C162.759 25.3961 165.703 25.262 168.639 24.3591C169.418 24.1266 170.188 23.8405 170.976 23.5008C171.71 23.17 172.453 22.7856 173.204 22.3565C176.248 20.6132 179.515 18.0204 183.454 14.3371C190.856 7.41736 197.587 3.37642 204.014 2.06221C205.062 1.84764 206.109 1.72252 207.138 1.651C208.087 1.58841 209.027 1.58841 209.958 1.64205C211.703 1.74933 213.449 2.05334 215.167 2.58081C223.716 5.17346 233.123 17.0371 234.878 37.671C236.256 53.8975 242.227 72.8596 242.477 73.6642C242.495 73.7179 242.522 73.7715 242.549 73.8251C250.462 87.5125 254.463 103.632 254.472 121.727C254.472 147.296 242.119 170.442 219.679 186.901C211.202 193.114 201.589 198.255 190.99 202.278C190.874 202.287 190.749 202.313 190.641 202.376C190.606 202.394 190.588 202.43 190.561 202.448C177.591 207.32 163.17 210.53 147.595 211.978C147.586 211.978 147.577 211.96 147.568 211.96C147.291 211.835 146.978 211.879 146.745 212.058C140.676 212.595 134.446 212.872 128.046 212.872C121.1 212.872 114.333 212.55 107.781 211.924C107.727 211.906 107.673 211.906 107.62 211.906C91.7492 210.36 77.0872 206.98 63.9559 201.857C63.1592 201.545 62.3716 201.232 61.5839 200.91C61.4675 200.812 61.3243 200.758 61.1721 200.74C52.1135 196.976 43.8248 192.363 36.4043 186.927H36.4133ZM145.546 213.784C143.702 216.153 138.823 220.596 128.037 220.596C117.314 220.596 111.648 216.064 109.41 213.694C115.461 214.222 121.673 214.49 128.037 214.49C134.007 214.49 139.853 214.249 145.546 213.784ZM24.3292 315.362C22.3958 315.148 20.6414 314.718 19.0123 314.119C15.5929 312.85 12.836 310.74 10.8219 307.772C10.6519 307.513 10.4908 307.244 10.3296 306.976C6.47171 300.62 6.16735 291.832 6.78498 284.813C6.82078 284.805 6.86553 284.796 6.89239 284.787C7.11616 284.733 7.3847 284.67 7.73379 284.599C13.552 283.329 35.724 279.601 50.0906 292.359C43.8606 313.029 35.733 316.623 24.3292 315.362ZM48.0318 368.351C44.3619 367.492 41.5064 366.133 39.2776 364.623C38.3377 363.988 37.4874 363.317 36.7623 362.665C33.5936 359.759 31.8392 356.371 31.0426 353.224C30.5055 351.123 30.3981 349.129 30.595 347.457C30.6756 346.751 30.8099 346.054 30.9799 345.365C32.0183 341.298 34.6588 337.695 38.4273 334.843C41.6407 332.402 45.6866 330.507 50.2607 329.371C53.3935 328.594 56.7681 328.155 60.3128 328.138C61.6196 339.054 63.5084 345.464 65.1106 350.899C66.7845 356.585 68.0555 360.903 67.796 368.1C59.4624 369.736 53.0086 369.504 48.0229 368.342L48.0318 368.351ZM188.448 350.434C186.47 357.158 185.038 362.012 185.933 371.694C185.951 372.025 186.47 379.821 190.418 386.052C192.995 390.111 196.361 398.729 192.646 405.265C188.976 411.71 179.408 414.84 164.244 414.571C164.218 414.571 164.2 414.562 164.173 414.562C160.691 414.562 156.466 414.562 152.286 414.196C150.299 414.026 148.329 413.767 146.45 413.391C145.116 413.123 143.836 412.792 142.627 412.39C137.686 410.736 134.043 407.83 133.757 402.708C133.497 398.157 134.652 391.783 135.86 385.042C137.919 373.563 140.229 360.644 137.257 350.336C137.176 350.068 137.087 349.8 136.997 349.531C136.917 349.272 136.845 348.995 136.747 348.736C136.755 348.736 136.764 348.736 136.782 348.736C138.044 348.405 139.271 347.967 140.425 347.404C140.828 347.207 140.998 346.715 140.801 346.313C140.604 345.911 140.112 345.75 139.709 345.946C135.314 348.11 129.8 348.208 125.208 347.717C125.155 347.717 125.092 347.708 125.038 347.699C120.097 347.153 116.275 345.929 116.195 345.911C115.765 345.768 115.318 346.009 115.165 346.429C115.031 346.858 115.264 347.305 115.685 347.457C115.864 347.511 117.323 347.976 119.516 348.459C119.462 348.521 119.408 348.602 119.381 348.691C115.631 359.25 118.092 372.964 120.268 385.069C121.476 391.819 122.622 398.184 122.371 402.735C121.753 413.91 104.988 414.294 93.8885 414.553L91.9371 414.607C86.5127 414.759 81.8044 414.473 77.7764 413.785C75.0195 413.311 72.5937 412.649 70.4992 411.782C68.5926 411.004 66.9635 410.057 65.6208 408.948C64.3229 407.884 63.2667 406.677 62.4879 405.309C58.7732 398.783 62.1388 390.165 64.7168 386.106C68.6642 379.866 69.1834 372.07 69.1923 371.775C69.2192 371.507 69.2371 371.247 69.255 370.988C69.2729 370.702 69.2997 370.425 69.3176 370.148C69.3355 369.862 69.3534 369.593 69.3624 369.316C69.8189 361.198 68.4762 356.612 66.6681 350.488C65.0569 345.026 63.1593 338.589 61.8703 327.485C61.8703 327.467 61.8792 327.431 61.8882 327.413C61.8882 327.396 61.8882 327.387 61.8971 327.369C61.8971 327.244 61.8614 327.127 61.8166 327.029C61.7987 326.895 61.7897 326.743 61.7718 326.609C61.7449 326.341 61.7092 326.081 61.6823 325.804C61.3064 322.228 60.9841 318.187 60.7514 313.565C60.6977 312.51 60.6619 311.473 60.6261 310.445C60.8767 310.517 61.2079 310.597 61.5928 310.695C61.8345 310.758 62.112 310.821 62.4073 310.901C62.6669 310.964 62.9354 311.035 63.2308 311.107C65.8267 311.741 69.8547 312.662 75.0463 313.655C75.1538 314.888 75.3954 317.141 75.7087 317.83C75.7714 317.982 75.9235 318.071 76.0847 318.071C76.1384 318.071 76.1921 318.062 76.2458 318.035C76.4517 317.937 76.5412 317.704 76.4606 317.499C76.2458 317.016 76.031 315.282 75.8967 313.807C88.9117 316.265 108.774 319.09 131.403 319.09C144.758 319.09 159.071 318.089 173.5 315.46C173.375 316.65 173.16 318.67 172.981 319.752C172.945 319.975 173.097 320.181 173.321 320.226C173.339 320.226 173.366 320.226 173.384 320.226C173.58 320.226 173.751 320.082 173.786 319.886C173.983 318.688 174.216 316.453 174.332 315.308C181.064 314.057 187.813 312.439 194.499 310.4C194.455 311.437 194.41 312.492 194.347 313.565C194.347 313.583 194.347 313.601 194.347 313.619C193.354 333.832 190.632 343.05 188.448 350.461V350.434ZM227.368 265.539C224.951 265.825 222.248 265.985 219.303 265.896C217.405 265.842 215.409 265.682 213.341 265.386C211.247 265.091 209.081 264.662 206.843 264.054C204.005 263.294 201.06 262.257 198.062 260.881C197.704 260.72 197.355 260.55 196.997 260.38C196.63 260.201 196.263 260.022 195.896 259.835C192.843 258.279 189.737 256.366 186.631 254.015C186.577 253.979 186.506 253.952 186.452 253.934C186.416 253.916 186.381 253.898 186.345 253.88C186.318 253.88 186.282 253.88 186.255 253.88C186.184 253.872 186.103 253.863 186.031 253.872C186.014 253.872 185.996 253.889 185.978 253.889C185.897 253.907 185.808 253.934 185.736 253.979H185.727C185.727 253.979 185.664 254.041 185.638 254.068C185.593 254.104 185.539 254.131 185.503 254.184C185.503 254.184 185.503 254.184 185.503 254.193C185.468 254.247 185.45 254.301 185.423 254.354C185.405 254.399 185.369 254.435 185.36 254.479C185.36 254.515 185.36 254.56 185.36 254.596C185.36 254.658 185.342 254.721 185.36 254.792C185.36 254.819 185.378 254.846 185.387 254.882C185.405 254.953 185.423 255.025 185.468 255.087V255.096C185.494 255.141 188.296 259.772 190.776 269.24C192.888 277.286 195.153 290.455 194.571 308.675C138.197 326.09 76.9888 312.805 63.213 309.39C62.9176 309.319 62.6401 309.256 62.3894 309.184C62.0761 309.104 61.8076 309.032 61.5659 308.97C61.1452 308.863 60.814 308.773 60.6171 308.72C60.1517 288.434 63.2756 273.549 65.9431 264.662C66.2384 263.67 66.5338 262.758 66.8113 261.918C67.1156 260.997 67.411 260.174 67.6796 259.441C68.7358 256.598 69.4967 255.105 69.5235 255.052C69.6936 254.721 69.622 254.318 69.3445 254.068C69.067 253.818 68.6553 253.791 68.3509 254.006C67.9123 254.301 57.5111 261.498 52.3194 283.964C51.7734 286.36 51.2005 288.577 50.6098 290.643C36.091 278.341 14.5993 281.515 7.93075 282.891C7.61746 282.954 7.33997 283.017 7.08934 283.07C7.05353 283.07 7.00878 283.088 6.98193 283.088C7.61746 277.483 8.72739 273.379 8.7632 273.272C19.424 228.875 56.9382 204.996 61.1094 202.456C61.181 202.483 61.2526 202.51 61.3242 202.546C61.6375 202.671 61.9419 202.787 62.2552 202.912C75.7177 208.303 90.7825 211.862 107.118 213.471C108.336 215.178 114.199 222.223 128.046 222.223C141.455 222.223 146.432 215.616 147.64 213.596C163.224 212.157 177.671 208.974 190.704 204.128C192.503 207.052 200.497 218.808 213.789 220.355C217.253 220.757 220.082 220.399 222.552 219.595C223.188 219.389 223.796 219.139 224.387 218.871C224.978 218.611 225.56 218.325 226.115 218.012C226.249 217.932 226.401 217.86 226.544 217.78C226.544 217.834 226.562 217.905 226.571 217.959C226.607 218.182 226.643 218.45 226.696 218.763C226.732 219.005 226.786 219.282 226.849 219.568C228.191 226.461 234.117 246.362 258.052 251.52C249.826 259.102 238.834 264.162 227.377 265.512L227.368 265.539ZM260.469 249.16C260.138 249.5 259.807 249.839 259.467 250.179C235.639 245.602 229.776 226.059 228.46 219.345C228.406 219.049 228.352 218.781 228.308 218.54C228.254 218.227 228.209 217.95 228.182 217.735C228.129 217.333 228.102 217.101 228.102 217.074C228.102 217.002 228.066 216.931 228.039 216.859C229.418 215.947 230.733 214.937 232.067 213.909C236.167 210.744 240.392 207.49 247.23 206.766C248 206.685 248.806 206.641 249.647 206.623C249.817 206.623 249.978 206.614 250.148 206.614C250.319 206.614 250.507 206.614 250.686 206.614C251.178 206.614 251.67 206.649 252.154 206.685C259.511 207.275 265.258 211.316 268.051 217.941C272.097 227.534 269.053 240.077 260.478 249.16H260.469Z" fill="#2F2F2F"/>
<path d="M258.043 251.538C249.817 259.12 238.825 264.18 227.367 265.53C224.951 265.816 222.247 265.977 219.302 265.887C217.405 265.834 215.409 265.673 213.341 265.378C211.246 265.083 209.08 264.654 206.842 264.046C204.005 263.286 201.06 262.249 198.061 260.872C197.703 260.711 197.354 260.541 196.996 260.371C196.629 260.192 196.262 260.014 195.895 259.826C192.843 258.27 189.737 256.357 186.631 254.006C186.577 253.97 186.505 253.943 186.452 253.925C186.416 253.908 186.38 253.89 186.344 253.872C186.317 253.872 186.282 253.872 186.255 253.872C186.183 253.863 186.103 253.854 186.031 253.863C186.013 253.863 185.995 253.881 185.977 253.881C185.897 253.899 185.807 253.925 185.736 253.97H185.727C185.727 253.97 185.664 254.033 185.637 254.059C185.592 254.095 185.539 254.122 185.503 254.176C185.503 254.176 185.503 254.176 185.503 254.185C185.467 254.238 185.449 254.292 185.422 254.346C185.404 254.39 185.369 254.426 185.36 254.471C185.36 254.507 185.36 254.551 185.36 254.587C185.36 254.65 185.342 254.712 185.36 254.784C185.36 254.81 185.378 254.837 185.387 254.873C185.404 254.945 185.422 255.016 185.467 255.079V255.088C185.494 255.132 188.296 259.763 190.775 269.231C192.888 277.277 195.152 290.446 194.57 308.666C138.196 326.082 76.9883 312.796 63.2125 309.381C62.9171 309.31 62.6396 309.247 62.3889 309.176C62.0757 309.095 61.8071 309.024 61.5655 308.961C61.1448 308.854 60.8136 308.764 60.6166 308.711C60.1512 288.426 63.2751 273.54 65.9426 264.654C66.238 263.661 66.5333 262.749 66.8108 261.909C67.1152 260.988 67.4106 260.166 67.6791 259.432C68.7353 256.59 69.4962 255.097 69.523 255.043C69.6931 254.712 69.6215 254.31 69.344 254.059C69.0665 253.809 68.6548 253.782 68.3504 253.997C67.9118 254.292 57.5106 261.489 52.3189 283.955C51.7729 286.351 51.2001 288.569 50.6093 290.634C36.0905 278.332 14.5989 281.506 7.93026 282.883C7.61697 282.945 7.33949 283.008 7.08885 283.061C7.05305 283.061 7.0083 283.079 6.98145 283.079C7.61698 277.474 8.72691 273.37 8.76271 273.263C19.4235 228.866 56.9377 204.987 61.1089 202.448C61.1805 202.475 61.2522 202.501 61.3238 202.537C61.6371 202.662 61.9414 202.779 62.2547 202.904C75.7172 208.295 90.782 211.853 107.118 213.462C108.335 215.17 114.198 222.214 128.046 222.214C141.454 222.214 146.431 215.608 147.64 213.587C163.223 212.148 177.671 208.965 190.704 204.12C192.503 207.043 200.496 218.799 213.788 220.346C217.253 220.748 220.081 220.391 222.552 219.586C223.187 219.381 223.796 219.13 224.387 218.862C224.977 218.603 225.559 218.317 226.114 218.004C226.248 217.923 226.401 217.852 226.544 217.771C226.544 217.825 226.562 217.896 226.571 217.95C226.607 218.174 226.642 218.442 226.696 218.755C226.732 218.996 226.786 219.273 226.848 219.559C228.191 226.452 234.117 246.353 258.052 251.511L258.043 251.538Z" fill="#EA5E00"/>
<path d="M127.911 183.306C133.255 183.306 136.147 180.392 136.263 180.267C136.576 179.945 136.567 179.426 136.245 179.113C135.923 178.801 135.404 178.81 135.09 179.131C135.063 179.158 132.566 181.679 127.903 181.679C123.328 181.679 121.091 179.283 120.983 179.167C120.688 178.827 120.169 178.801 119.838 179.096C119.497 179.391 119.471 179.909 119.766 180.24C119.873 180.365 122.541 183.306 127.903 183.306H127.911Z" fill="#2F2F2F"/>
<path d="M47.4677 20.9884C47.4677 20.9884 47.5482 21.0063 47.593 21.0063C47.7631 21.0063 47.9242 20.899 47.9779 20.7202C48.6224 18.6997 48.6313 16.3663 48.6313 16.268C48.6313 16.0445 48.4523 15.8657 48.2285 15.8657C48.0047 15.8657 47.8257 16.0445 47.8257 16.268C47.8257 16.2948 47.8257 18.5836 47.217 20.4789C47.1454 20.6935 47.2708 20.9169 47.4856 20.9884H47.4677Z" fill="#2F2F2F"/>
<path d="M36.3412 31.0911C36.3412 31.0911 36.4218 31.1089 36.4665 31.1089C36.6366 31.1089 36.7977 31.0016 36.8514 30.8228C37.4959 28.8023 37.5048 26.469 37.5048 26.3706C37.5048 26.1471 37.3258 25.9683 37.102 25.9683C36.8782 25.9683 36.6992 26.1471 36.6992 26.3706C36.6992 26.3975 36.6992 28.6861 36.0905 30.5814C36.0189 30.796 36.1443 31.0196 36.3591 31.0911H36.3412Z" fill="#2F2F2F"/>
<path d="M31.7945 53.5848C31.7945 53.5848 31.8751 53.6027 31.9198 53.6027C32.0899 53.6027 32.251 53.4954 32.3047 53.3166C32.9492 51.2962 32.9581 48.9538 32.9581 48.8555C32.9581 48.632 32.7792 48.4531 32.5554 48.4531C32.3316 48.4531 32.1526 48.632 32.1526 48.8555C32.1526 48.8823 32.1526 51.171 31.5349 53.0663C31.4633 53.2809 31.5886 53.5133 31.7945 53.5758V53.5848Z" fill="#2F2F2F"/>
<path d="M23.3804 75.5509C23.1567 75.4972 22.9418 75.6402 22.897 75.8548C22.897 75.8727 22.3779 78.1077 21.3664 79.8242C21.2501 80.0209 21.3216 80.2713 21.5096 80.3786C21.5723 80.4143 21.6439 80.4322 21.7155 80.4322C21.8587 80.4322 21.993 80.3607 22.0646 80.2355C23.1387 78.4117 23.6668 76.1319 23.6937 76.0336C23.7474 75.819 23.6042 75.5956 23.3893 75.5509H23.3804Z" fill="#2F2F2F"/>
<path d="M36.0103 69.2745C36.082 69.3192 36.1536 69.337 36.2341 69.337C36.3684 69.337 36.5027 69.2745 36.5743 69.1493C37.72 67.3702 38.3376 65.1083 38.3645 65.0189C38.4272 64.8044 38.2929 64.5808 38.0781 64.5182C37.8632 64.4646 37.6395 64.5898 37.5768 64.8044C37.5768 64.8223 36.9681 67.0305 35.885 68.7112C35.7597 68.899 35.8224 69.1493 36.0103 69.2745Z" fill="#2F2F2F"/>
<path d="M30.9082 89.2827C30.7023 89.1844 30.4606 89.2648 30.3622 89.4615C30.3085 89.5598 29.1269 91.9558 28.6346 94.9955C28.5988 95.219 28.751 95.4246 28.9748 95.4604C28.9927 95.4604 29.0195 95.4604 29.0374 95.4604C29.2343 95.4604 29.4044 95.3174 29.4402 95.1207C29.9056 92.2151 31.0783 89.8459 31.0872 89.8191C31.1857 89.6224 31.1051 89.3721 30.9082 89.2738V89.2827Z" fill="#2F2F2F"/>
<path d="M14.9395 98.992C14.7247 98.9294 14.5009 99.0457 14.4293 99.2602C14.4025 99.3586 13.6863 101.656 13.4447 105.277C13.4268 105.5 13.5968 105.697 13.8206 105.706C13.8295 105.706 13.8385 105.706 13.8475 105.706C14.0623 105.706 14.2413 105.545 14.2503 105.331C14.483 101.817 15.1901 99.5283 15.1991 99.5015C15.2618 99.287 15.1454 99.0635 14.9306 98.992H14.9395Z" fill="#2F2F2F"/>
<path d="M13.4173 125.267C13.3994 125.043 13.1935 124.882 12.9787 124.9C12.7549 124.918 12.5938 125.115 12.6117 125.338C12.6207 125.446 12.8624 128.02 13.471 130.202C13.5247 130.381 13.6859 130.497 13.8649 130.497C13.9007 130.497 13.9365 130.497 13.9723 130.479C14.1871 130.416 14.3124 130.193 14.2587 129.978C13.6769 127.877 13.4262 125.285 13.4262 125.258L13.4173 125.267Z" fill="#2F2F2F"/>
<path d="M25.2511 119.689C25.4749 119.689 25.6539 119.501 25.6539 119.277C25.636 117.516 25.9941 114.387 26.0031 114.351C26.0299 114.128 25.8688 113.931 25.645 113.904C25.4212 113.886 25.2243 114.038 25.1974 114.262C25.1795 114.396 24.8304 117.471 24.8483 119.286C24.8483 119.51 25.0363 119.689 25.2511 119.689Z" fill="#2F2F2F"/>
<path d="M25.4393 140.116C25.3766 139.902 25.1618 139.777 24.938 139.83C24.7232 139.893 24.5979 140.116 24.6516 140.331C24.6963 140.483 25.6989 144.077 26.5671 145.436C26.6477 145.561 26.773 145.623 26.9073 145.623C26.9789 145.623 27.0594 145.606 27.1221 145.561C27.3101 145.445 27.3637 145.185 27.2474 144.998C26.4418 143.737 25.4393 140.152 25.4303 140.116H25.4393Z" fill="#2F2F2F"/>
<path d="M18.5023 150.898C18.4396 150.683 18.2248 150.558 18.001 150.612C17.7862 150.675 17.6608 150.898 17.7146 151.113C17.7504 151.229 18.547 154.063 20.1045 155.645C20.1851 155.726 20.2925 155.771 20.3909 155.771C20.4894 155.771 20.5968 155.735 20.6774 155.654C20.8385 155.493 20.8385 155.243 20.6774 155.082C19.2631 153.652 18.4933 150.934 18.4843 150.907L18.5023 150.898Z" fill="#2F2F2F"/>
<path d="M34.9808 159.776C34.8465 159.598 34.5869 159.562 34.4079 159.696C34.2288 159.83 34.1931 160.089 34.3273 160.268C34.4258 160.393 36.6636 163.326 37.7735 164.193C37.8451 164.246 37.9347 164.282 38.0242 164.282C38.1405 164.282 38.2658 164.229 38.3464 164.121C38.4807 163.942 38.4538 163.692 38.2748 163.549C37.2454 162.744 34.9986 159.803 34.9718 159.776H34.9808Z" fill="#2F2F2F"/>
<path d="M32.5375 172.346C32.3764 172.185 32.1257 172.185 31.9646 172.346C31.8035 172.507 31.8035 172.766 31.9646 172.918C32.0452 172.998 33.8712 174.804 35.3213 175.85C35.3929 175.904 35.4735 175.931 35.563 175.931C35.6883 175.931 35.8136 175.868 35.8942 175.761C36.0284 175.582 35.9836 175.323 35.8046 175.198C34.3993 174.187 32.5643 172.364 32.5464 172.346H32.5375Z" fill="#2F2F2F"/>
<path d="M52.776 186.096C50.8336 185.292 48.3542 182.77 48.3362 182.753C48.1841 182.592 47.9245 182.592 47.7634 182.753C47.6023 182.905 47.6023 183.164 47.7634 183.325C47.8708 183.432 50.3771 185.989 52.4806 186.856C52.5343 186.874 52.5881 186.883 52.6328 186.883C52.794 186.883 52.9461 186.785 53.0088 186.633C53.0983 186.427 52.9909 186.186 52.785 186.105L52.776 186.096Z" fill="#2F2F2F"/>
<path d="M69.0132 191.362C67.7511 191.013 64.6719 189.368 64.6361 189.35C64.4392 189.243 64.1886 189.314 64.0811 189.511C63.9737 189.708 64.0453 189.958 64.2423 190.065C64.3676 190.137 67.4289 191.773 68.7895 192.148C68.8253 192.157 68.8611 192.166 68.8969 192.166C69.0759 192.166 69.237 192.05 69.2907 191.871C69.3534 191.657 69.2191 191.433 69.0043 191.371L69.0132 191.362Z" fill="#2F2F2F"/>
<path d="M84.1942 201.965C82.5741 201.732 79.1457 200.319 79.1099 200.311C78.904 200.221 78.6624 200.328 78.5818 200.534C78.4923 200.74 78.5908 200.981 78.8056 201.062C78.9488 201.124 82.3681 202.528 84.0868 202.769C84.1047 202.769 84.1226 202.769 84.1405 202.769C84.3374 202.769 84.5164 202.626 84.5433 202.42C84.5791 202.197 84.418 201.991 84.1942 201.965Z" fill="#2F2F2F"/>
<path d="M92.5993 197.245C89.6185 197.245 88.3027 196.315 88.2848 196.297C88.1058 196.163 87.8551 196.199 87.7209 196.377C87.5866 196.556 87.6224 196.815 87.8015 196.95C87.8641 196.994 89.3052 198.067 92.6082 198.067C92.832 198.067 93.011 197.888 93.011 197.665C93.011 197.441 92.832 197.263 92.6082 197.263L92.5993 197.245Z" fill="#2F2F2F"/>
<path d="M107.539 201.116C105.668 201.214 103.198 200.311 103.171 200.302C102.956 200.222 102.723 200.338 102.652 200.543C102.571 200.758 102.687 200.991 102.893 201.062C102.992 201.098 105.31 201.938 107.297 201.929C107.396 201.929 107.485 201.929 107.575 201.929C107.799 201.92 107.978 201.733 107.96 201.509C107.951 201.286 107.781 201.125 107.539 201.125V201.116Z" fill="#2F2F2F"/>
<path d="M127.697 205.103C124.546 205.711 122.147 205.112 122.12 205.103C121.897 205.049 121.682 205.174 121.628 205.398C121.574 205.621 121.7 205.836 121.923 205.889C121.995 205.907 123.105 206.185 124.815 206.185C125.692 206.185 126.721 206.113 127.849 205.898C128.073 205.854 128.216 205.639 128.171 205.425C128.127 205.201 127.912 205.058 127.697 205.103Z" fill="#2F2F2F"/>
<path d="M148.033 199.784C145.769 200.391 142.224 200.275 142.188 200.275C141.982 200.275 141.777 200.445 141.768 200.669C141.768 200.892 141.938 201.08 142.161 201.089C142.206 201.089 142.502 201.098 142.967 201.098C144.184 201.098 146.521 201.026 148.248 200.561C148.463 200.508 148.597 200.284 148.535 200.061C148.481 199.846 148.248 199.721 148.033 199.775V199.784Z" fill="#2F2F2F"/>
<path d="M164.092 202.224C161.353 203.216 158.632 203.377 158.605 203.377C158.381 203.386 158.211 203.583 158.22 203.807C158.229 204.021 158.408 204.191 158.623 204.191H158.641C158.757 204.191 161.505 204.021 164.361 202.993C164.575 202.913 164.683 202.68 164.602 202.474C164.522 202.26 164.289 202.162 164.083 202.233L164.092 202.224Z" fill="#2F2F2F"/>
<path d="M178.306 193.149C175.46 194.562 172.81 194.973 172.783 194.973C172.56 195.009 172.407 195.215 172.443 195.438C172.47 195.644 172.649 195.787 172.846 195.787C172.864 195.787 172.891 195.787 172.909 195.787C173.025 195.769 175.71 195.358 178.673 193.883C178.87 193.784 178.96 193.543 178.852 193.337C178.754 193.132 178.503 193.051 178.306 193.158V193.149Z" fill="#2F2F2F"/>
<path d="M200.29 184.531C197.703 186.373 195.143 187.187 195.125 187.196C194.91 187.267 194.794 187.491 194.857 187.705C194.91 187.875 195.072 187.991 195.242 187.991C195.286 187.991 195.322 187.991 195.367 187.973C195.474 187.938 198.07 187.115 200.765 185.202C200.944 185.077 200.988 184.818 200.863 184.639C200.729 184.46 200.478 184.415 200.299 184.54L200.29 184.531Z" fill="#2F2F2F"/>
<path d="M194.105 193.641C192.378 194.67 189.289 195.671 189.263 195.68C189.048 195.751 188.931 195.975 189.003 196.189C189.057 196.359 189.218 196.467 189.388 196.467C189.433 196.467 189.469 196.467 189.513 196.449C189.639 196.404 192.718 195.403 194.526 194.33C194.723 194.214 194.786 193.963 194.669 193.776C194.553 193.579 194.302 193.516 194.114 193.633L194.105 193.641Z" fill="#2F2F2F"/>
<path d="M216.089 174.966C213.807 177.424 210.745 179.329 210.718 179.356C210.53 179.472 210.468 179.722 210.584 179.919C210.665 180.044 210.79 180.106 210.933 180.106C211.005 180.106 211.076 180.089 211.148 180.044C211.273 179.963 214.326 178.059 216.689 175.52C216.841 175.359 216.832 175.1 216.671 174.948C216.51 174.796 216.25 174.805 216.098 174.966H216.089Z" fill="#2F2F2F"/>
<path d="M223.536 160.724C223.33 160.643 223.089 160.742 223.008 160.956C222.211 163.012 220.618 164.747 220.609 164.756C220.457 164.917 220.466 165.176 220.627 165.328C220.708 165.399 220.806 165.435 220.905 165.435C221.012 165.435 221.119 165.391 221.2 165.301C221.272 165.23 222.91 163.442 223.769 161.242C223.85 161.037 223.742 160.795 223.536 160.715V160.724Z" fill="#2F2F2F"/>
<path d="M231.969 165.346C231.763 165.257 231.521 165.346 231.432 165.56C230.617 167.474 228.308 169.53 228.281 169.548C228.111 169.7 228.093 169.95 228.245 170.12C228.325 170.209 228.433 170.254 228.549 170.254C228.648 170.254 228.737 170.218 228.818 170.156C228.916 170.066 231.288 167.965 232.174 165.882C232.264 165.677 232.174 165.435 231.96 165.346H231.969Z" fill="#2F2F2F"/>
<path d="M237.295 145.078C237.071 145.034 236.856 145.168 236.811 145.391C236.113 148.529 234.242 151.363 234.215 151.39C234.09 151.578 234.144 151.828 234.332 151.953C234.403 151.998 234.484 152.025 234.555 152.025C234.69 152.025 234.815 151.962 234.896 151.846C234.976 151.73 236.874 148.86 237.608 145.57C237.653 145.355 237.518 145.132 237.295 145.087V145.078Z" fill="#2F2F2F"/>
<path d="M231.565 139.079C231.565 139.079 231.637 139.097 231.682 139.097C231.861 139.097 232.022 138.981 232.076 138.802C232.111 138.677 232.953 135.709 232.541 132.392C232.514 132.169 232.299 132.008 232.085 132.044C231.861 132.07 231.7 132.276 231.736 132.5C232.129 135.646 231.306 138.561 231.297 138.588C231.234 138.802 231.36 139.026 231.574 139.088L231.565 139.079Z" fill="#2F2F2F"/>
<path d="M244.876 128.056C244.876 128.056 244.903 128.056 244.921 128.056C245.127 128.056 245.306 127.904 245.324 127.69C245.682 124.078 245.333 121.217 245.324 121.101C245.297 120.877 245.082 120.716 244.867 120.752C244.644 120.779 244.482 120.985 244.518 121.208C244.518 121.235 244.867 124.096 244.518 127.618C244.5 127.842 244.661 128.038 244.885 128.065L244.876 128.056Z" fill="#2F2F2F"/>
<path d="M236.408 107.324C236.408 107.324 237.456 111.526 237.554 115.022C237.554 115.245 237.742 115.415 237.957 115.415H237.966C238.19 115.415 238.369 115.218 238.36 114.995C238.252 111.41 237.232 107.297 237.187 107.118C237.134 106.904 236.91 106.77 236.695 106.823C236.48 106.877 236.346 107.1 236.4 107.315L236.408 107.324Z" fill="#2F2F2F"/>
<path d="M228.558 95.7732C228.558 95.7732 228.621 95.7732 228.657 95.7643C228.872 95.7106 229.006 95.4871 228.952 95.2725C228.621 93.9673 226.16 90.1945 226.061 90.0336C225.936 89.8459 225.685 89.7922 225.497 89.9174C225.309 90.0425 225.256 90.2929 225.381 90.4806C226.07 91.5356 227.923 94.5037 228.165 95.4781C228.209 95.6659 228.379 95.7822 228.558 95.7822V95.7732Z" fill="#2F2F2F"/>
<path d="M236.033 85.8498C236.077 86.0376 236.238 86.1717 236.426 86.1717C236.453 86.1717 236.48 86.1717 236.516 86.1627C236.731 86.118 236.874 85.8945 236.829 85.6799C236.516 84.2584 234.403 80.1013 234.314 79.9225C234.215 79.7258 233.965 79.6453 233.768 79.7436C233.571 79.842 233.49 80.0923 233.589 80.289C233.607 80.3337 235.737 84.5267 236.033 85.8498Z" fill="#2F2F2F"/>
<path d="M228.2 67.7813C228.272 67.9155 228.415 67.9959 228.558 67.9959C228.621 67.9959 228.693 67.9781 228.755 67.9423C228.952 67.835 229.024 67.5847 228.917 67.388C228.03 65.7788 226.885 59.628 226.876 59.5654C226.831 59.3419 226.625 59.2078 226.401 59.2435C226.177 59.2882 226.034 59.4938 226.079 59.7173C226.124 59.9765 227.261 66.0648 228.209 67.7813H228.2Z" fill="#2F2F2F"/>
<path d="M218.399 75.7028C218.399 75.7028 218.461 75.7028 218.497 75.6939C218.712 75.6402 218.846 75.4168 218.793 75.2022C218.193 72.7973 216.984 68.2109 216.984 68.2109L216.197 68.4167C216.197 68.4167 217.405 72.985 218.005 75.3899C218.05 75.5777 218.22 75.6939 218.399 75.6939V75.7028Z" fill="#2F2F2F"/>
<path d="M206.932 70.3651C206.932 70.3651 207.013 70.3651 207.049 70.3472C207.264 70.2846 207.389 70.0522 207.317 69.8376C207.317 69.8108 206.422 66.8605 206.467 64.4019C206.467 64.1784 206.288 63.9907 206.064 63.9907C205.831 63.9907 205.652 64.1696 205.652 64.3931C205.617 66.9768 206.503 69.9539 206.539 70.079C206.592 70.2578 206.753 70.3651 206.924 70.3651H206.932Z" fill="#2F2F2F"/>
<path d="M225.711 42.9545C225.711 42.9545 225.774 42.9545 225.81 42.9456C226.025 42.8919 226.159 42.6685 226.105 42.4539C225.72 40.9341 225.309 36.6607 225.309 36.616C225.291 36.3925 225.094 36.2405 224.861 36.2494C224.637 36.2673 224.476 36.4729 224.494 36.6964C224.512 36.8752 224.915 41.0771 225.318 42.6596C225.362 42.8473 225.532 42.9635 225.711 42.9635V42.9545Z" fill="#2F2F2F"/>
<path d="M217.486 30.7957C217.486 30.7957 217.504 30.7957 217.522 30.7957C217.745 30.7778 217.915 30.5812 217.898 30.3577C217.719 28.1226 217.898 22.991 217.898 22.9374C217.898 22.7139 217.727 22.526 217.504 22.5171C217.28 22.535 217.092 22.687 217.083 22.9105C217.083 23.1251 216.904 28.1405 217.083 30.4203C217.101 30.6349 217.28 30.7957 217.486 30.7957Z" fill="#2F2F2F"/>
<path d="M213.207 52.3596C213.207 52.3596 213.261 52.3596 213.279 52.3596C213.503 52.3148 213.646 52.1092 213.601 51.8857C213.01 48.7119 212.643 44.6084 212.643 44.5637C212.626 44.3402 212.429 44.1793 212.205 44.1972C211.981 44.215 211.82 44.4117 211.838 44.6352C211.838 44.6799 212.205 48.8192 212.813 52.0288C212.849 52.2255 213.019 52.3596 213.216 52.3596H213.207Z" fill="#2F2F2F"/>
<path d="M208.141 20.6847C208.257 20.6847 208.373 20.631 208.454 20.5416C209.689 19.0576 211.112 15.2847 211.175 15.1238C211.256 14.9093 211.148 14.6768 210.933 14.6053C210.728 14.5249 210.486 14.6322 210.414 14.8467C210.396 14.8825 208.982 18.6553 207.827 20.0231C207.684 20.193 207.711 20.4522 207.881 20.5952C207.962 20.6578 208.051 20.6936 208.141 20.6936V20.6847Z" fill="#2F2F2F"/>
<path d="M198.832 52.5831C198.832 52.5831 197.981 56.9459 197.623 58.9664C197.587 59.1899 197.731 59.3956 197.954 59.4403C197.981 59.4403 197.999 59.4403 198.026 59.4403C198.223 59.4403 198.393 59.2972 198.429 59.1005C198.787 57.08 199.619 52.7709 199.628 52.7262C199.673 52.5027 199.53 52.2881 199.306 52.2523C199.091 52.2076 198.876 52.3506 198.832 52.5741V52.5831Z" fill="#2F2F2F"/>
<path d="M198.348 38.2787C198.429 38.3502 198.527 38.386 198.625 38.386C198.733 38.386 198.84 38.3412 198.921 38.2518C200.407 36.6426 201.49 33.308 201.535 33.1649C201.606 32.9504 201.49 32.718 201.275 32.6554C201.06 32.5839 200.827 32.7 200.765 32.9146C200.756 32.9503 199.691 36.2135 198.321 37.6976C198.169 37.8585 198.178 38.1178 198.348 38.2697V38.2787Z" fill="#2F2F2F"/>
<path d="M195.367 19.4419C195.501 19.4419 195.627 19.3793 195.707 19.263C196.746 17.7164 199.467 15.3115 199.494 15.2936C199.664 15.1417 199.682 14.8913 199.529 14.7215C199.377 14.5516 199.127 14.5337 198.957 14.6857C198.84 14.784 196.137 17.18 195.036 18.816C194.911 19.0038 194.955 19.2541 195.143 19.3793C195.215 19.424 195.296 19.4509 195.367 19.4509V19.4419Z" fill="#2F2F2F"/>
<path d="M188.377 35.919C188.502 35.919 188.618 35.8654 188.699 35.7581C189.307 34.9624 191.867 30.7873 191.975 30.6085C192.091 30.4208 192.029 30.1705 191.841 30.0542C191.653 29.938 191.402 30.0006 191.286 30.1884C191.259 30.2331 188.636 34.5154 188.054 35.2663C187.92 35.4451 187.947 35.6955 188.126 35.8385C188.198 35.8922 188.287 35.919 188.377 35.919Z" fill="#2F2F2F"/>
<path d="M175.057 34.1752C175.129 34.1752 175.209 34.1574 175.272 34.1127C176.489 33.3527 178.844 30.0538 178.942 29.9107C179.076 29.723 179.032 29.4726 178.844 29.3475C178.665 29.2223 178.405 29.2581 178.28 29.4458C177.626 30.3666 175.729 32.87 174.842 33.4332C174.654 33.5494 174.592 33.7998 174.717 33.9964C174.798 34.1216 174.923 34.1841 175.066 34.1841L175.057 34.1752Z" fill="#2F2F2F"/>
<path d="M180.428 52.3507C180.428 52.3507 180.508 52.3686 180.544 52.3686C180.723 52.3686 180.884 52.2525 180.938 52.0737C181.099 51.5283 182.46 49.6062 183.283 48.5244C183.418 48.3456 183.382 48.0863 183.203 47.9522C183.024 47.8181 182.773 47.8539 182.63 48.0327C182.406 48.3277 180.41 50.974 180.15 51.8412C180.088 52.0558 180.213 52.2792 180.428 52.3418V52.3507Z" fill="#2F2F2F"/>
<path d="M49.1861 44.564C49.1592 44.7875 49.3114 44.9931 49.5352 45.02C49.5531 45.02 49.571 45.02 49.5889 45.02C49.7858 45.02 49.9648 44.868 49.9917 44.6623C50.2602 42.5703 50.0006 38.1539 49.9917 37.9661C49.9738 37.7426 49.7769 37.5548 49.562 37.5817C49.3383 37.5995 49.1681 37.7874 49.1771 38.0109C49.1771 38.0556 49.4456 42.5435 49.1771 44.555L49.1861 44.564Z" fill="#2F2F2F"/>
<path d="M54.3066 65.2785C54.3603 65.3053 54.414 65.3142 54.4767 65.3142C54.6288 65.3142 54.781 65.2248 54.8436 65.0728C55.4165 63.8033 55.3359 60.4597 55.3359 60.3167C55.3359 60.0932 55.148 59.9233 54.9332 59.9233H54.9242C54.7004 59.9233 54.5214 60.12 54.5304 60.3435C54.5572 61.2554 54.5304 63.8301 54.1186 64.742C54.0291 64.9476 54.1186 65.1891 54.3245 65.2785H54.3066Z" fill="#2F2F2F"/>
<path d="M60.8582 45.1271C60.6434 45.1897 60.527 45.4221 60.5897 45.6367C60.715 46.03 61.7981 49.5078 62.362 50.3482C62.4426 50.4644 62.5679 50.527 62.7022 50.527C62.7827 50.527 62.8543 50.5091 62.9259 50.4554C63.1139 50.3303 63.1676 50.08 63.0423 49.8922C62.6216 49.2664 61.6996 46.4324 61.3774 45.3954C61.3147 45.1808 61.082 45.0556 60.8671 45.1271H60.8582Z" fill="#2F2F2F"/>
<path d="M61.664 23.7689C61.7177 23.7957 61.7804 23.8046 61.843 23.8046C62.0041 23.8046 62.1563 23.7242 62.2279 23.5811C62.3174 23.3755 62.2548 23.1519 62.0489 23.0625C61.7982 22.8301 60.921 20.9974 60.2586 19.4239C60.1691 19.2183 59.9275 19.12 59.7216 19.2094C59.5157 19.2988 59.4173 19.5312 59.5068 19.7458C61.109 23.5364 61.5208 23.7242 61.664 23.7778V23.7689Z" fill="#2F2F2F"/>
<path d="M69.1562 35.9272C69.2368 36.0256 69.3532 36.0793 69.4785 36.0793C69.568 36.0793 69.6575 36.0525 69.7291 35.9899C69.9081 35.8468 69.935 35.5965 69.7918 35.4177C69.0936 34.5505 67.0438 30.9029 67.0259 30.8672C66.9185 30.6705 66.6678 30.5989 66.4709 30.7151C66.274 30.8224 66.2024 31.0727 66.3187 31.2694C66.4083 31.4214 68.4222 35.0064 69.1562 35.9272Z" fill="#2F2F2F"/>
<path d="M78.1342 52.3242C78.1969 52.3599 78.2684 52.3777 78.3401 52.3777C78.4833 52.3777 78.6176 52.3062 78.6892 52.1721C78.8055 51.9754 78.7339 51.7251 78.537 51.6178C77.624 51.0904 75.234 48.4977 74.3926 47.55C74.2405 47.3801 73.9898 47.3623 73.8197 47.5143C73.6497 47.6663 73.6318 47.9165 73.784 48.0864C73.9093 48.2294 76.9168 51.6179 78.1342 52.3242Z" fill="#2F2F2F"/>
<path d="M86.1904 35.8561C86.262 35.9992 86.4052 36.0796 86.5573 36.0796C86.62 36.0796 86.6827 36.0617 86.7364 36.0349C86.9333 35.9365 87.0228 35.6862 86.9154 35.4895C86.7274 35.1141 84.6866 32.6376 84.06 31.8956C83.9168 31.7257 83.6572 31.6989 83.4871 31.842C83.317 31.985 83.2902 32.2443 83.4334 32.4142C84.4896 33.6926 86.0471 35.6058 86.1814 35.8561H86.1904Z" fill="#2F2F2F"/>
<path d="M99.8948 48.0685C99.9754 48.1668 100.092 48.2204 100.217 48.2204C100.307 48.2204 100.396 48.1936 100.468 48.131C100.647 47.988 100.674 47.7376 100.53 47.5588C99.2146 45.896 96.8962 43.5179 96.7977 43.4195C96.6456 43.2586 96.386 43.2586 96.2248 43.4195C96.0637 43.5715 96.0637 43.8308 96.2248 43.9917C96.2517 44.0185 98.6148 46.4324 99.9038 48.0685H99.8948Z" fill="#2F2F2F"/>
<path d="M108.908 38.0734C108.953 38.2611 109.123 38.3952 109.302 38.3952C109.329 38.3952 109.365 38.3952 109.392 38.3863C109.606 38.3416 109.75 38.1181 109.705 37.9036C109.454 36.7771 107.575 33.3262 107.494 33.1742C107.387 32.9775 107.136 32.9059 106.939 33.0132C106.742 33.1205 106.671 33.3708 106.778 33.5675C107.306 34.533 108.72 37.2419 108.908 38.0823V38.0734Z" fill="#2F2F2F"/>
<path d="M119.757 47.8893C119.793 48.086 119.963 48.2201 120.16 48.2201C120.187 48.2201 120.214 48.2201 120.24 48.2201C120.464 48.1754 120.607 47.9609 120.563 47.7463C120.312 46.4679 119.139 43.6785 119.095 43.5533C119.005 43.3477 118.772 43.2494 118.558 43.3388C118.352 43.4282 118.253 43.6606 118.343 43.8752C118.352 43.902 119.533 46.7092 119.766 47.8982L119.757 47.8893Z" fill="#2F2F2F"/>
<path d="M123.964 35.6775C123.964 35.901 124.143 36.0798 124.367 36.0798C124.591 36.0798 124.77 35.892 124.77 35.6685C124.77 34.7656 124 32.298 123.91 32.0209C123.839 31.8063 123.615 31.6902 123.4 31.7527C123.185 31.8243 123.069 32.0477 123.132 32.2623C123.355 32.9864 123.946 35.0159 123.955 35.6685L123.964 35.6775Z" fill="#2F2F2F"/>
<path d="M137.48 46.7896C137.534 46.8075 137.579 46.8165 137.633 46.8165C137.794 46.8165 137.946 46.7181 138.009 46.5572C138.313 45.8062 139.118 43.8036 139.262 43.5175C139.36 43.3208 139.28 43.0705 139.083 42.9721C138.877 42.8738 138.635 42.9543 138.537 43.151C138.358 43.5176 137.373 45.9761 137.257 46.2532C137.176 46.4588 137.274 46.7002 137.48 46.7807V46.7896Z" fill="#2F2F2F"/>
<path d="M140.658 35.2389C140.703 35.2568 140.756 35.2657 140.801 35.2657C140.962 35.2657 141.123 35.1675 141.186 35.0065C141.41 34.4165 142.045 32.7893 142.323 32.3781C142.448 32.1903 142.394 31.94 142.207 31.8148C142.019 31.6897 141.768 31.7433 141.643 31.9311C141.267 32.4943 140.515 34.4969 140.425 34.7204C140.345 34.935 140.452 35.1674 140.667 35.2389H140.658Z" fill="#2F2F2F"/>
<path d="M156.806 36.5715C156.86 36.5983 156.922 36.6072 156.976 36.6072C157.128 36.6072 157.271 36.5178 157.343 36.3748C157.361 36.3479 158.784 33.3262 159.473 32.3785C159.608 32.1997 159.563 31.9404 159.384 31.8153C159.205 31.6812 158.945 31.7259 158.82 31.9047C158.086 32.9149 156.672 35.9099 156.609 36.035C156.51 36.2407 156.609 36.4821 156.806 36.5715Z" fill="#2F2F2F"/>
<path d="M161.514 48.6318C161.577 48.6676 161.648 48.6944 161.729 48.6944C161.863 48.6944 161.997 48.6229 162.078 48.4977C162.087 48.4798 163.224 46.6202 164.728 44.6713C164.862 44.4925 164.835 44.2421 164.656 44.0991C164.477 43.965 164.226 43.9919 164.083 44.1707C162.552 46.1554 161.398 48.0507 161.389 48.0686C161.272 48.2563 161.335 48.5067 161.523 48.6229L161.514 48.6318Z" fill="#2F2F2F"/>
<path d="M15.0374 288.47C15.0285 288.247 14.8673 288.041 14.6167 288.086C14.3929 288.095 14.2228 288.282 14.2318 288.506C14.2497 288.935 14.4377 292.699 15.0105 293.664C15.0911 293.79 15.2254 293.861 15.3596 293.861C15.4312 293.861 15.5028 293.843 15.5655 293.807C15.7535 293.691 15.8162 293.441 15.7087 293.253C15.3507 292.663 15.109 290.008 15.0464 288.479L15.0374 288.47Z" fill="#2F2F2F"/>
<path d="M17.6425 302.086C17.5709 301.871 17.3381 301.764 17.1233 301.836C16.9085 301.907 16.8011 302.139 16.8727 302.354C16.989 302.685 18.0274 305.644 19.0747 306.511C19.1463 306.574 19.2447 306.601 19.3342 306.601C19.4506 306.601 19.567 306.547 19.6475 306.449C19.7907 306.279 19.7639 306.02 19.5938 305.877C18.8509 305.269 17.9379 302.935 17.6425 302.086Z" fill="#2F2F2F"/>
<path d="M25.2596 293.414C25.2328 293.638 25.4028 293.834 25.6266 293.861C25.6445 293.861 25.6535 293.861 25.6714 293.861C25.8773 293.861 26.0563 293.709 26.0742 293.494C26.1637 292.574 26.0742 288.989 26.0742 288.837C26.0742 288.613 25.8862 288.443 25.6714 288.443H25.6624C25.4387 288.443 25.2596 288.631 25.2686 288.864C25.2686 288.899 25.3581 292.547 25.2686 293.414H25.2596Z" fill="#2F2F2F"/>
<path d="M29.4402 304.902C29.5208 304.902 29.5924 304.884 29.664 304.839C30.3711 304.374 31.4811 302.631 31.6064 302.434C31.7228 302.247 31.6691 301.996 31.4811 301.871C31.2931 301.755 31.0425 301.809 30.9172 301.996C30.4786 302.685 29.6371 303.883 29.2164 304.16C29.0285 304.285 28.9748 304.535 29.1001 304.723C29.1806 304.839 29.306 304.911 29.4402 304.902Z" fill="#2F2F2F"/>
<path d="M36.2431 295.756C36.3595 295.756 36.4669 295.711 36.5474 295.622C37.3083 294.764 37.9259 292.493 37.9885 292.243C38.0422 292.028 37.917 291.804 37.7021 291.751C37.4873 291.688 37.2635 291.822 37.2098 292.037C37.0397 292.681 36.4848 294.478 35.9387 295.085C35.7866 295.255 35.8045 295.506 35.9745 295.658C36.0551 295.729 36.1446 295.756 36.2431 295.756Z" fill="#2F2F2F"/>
<path d="M37.6306 305.331C37.7111 305.447 37.8365 305.501 37.9618 305.501C38.0423 305.501 38.1229 305.474 38.1945 305.43C39.1344 304.777 40.8978 302.184 41.1036 301.889C41.2289 301.701 41.1842 301.451 40.9962 301.326C40.8082 301.201 40.5576 301.245 40.4323 301.433C39.9131 302.193 38.4272 304.276 37.738 304.759C37.55 304.884 37.5053 305.143 37.6395 305.322L37.6306 305.331Z" fill="#2F2F2F"/>
<path d="M241.098 218.924C239.075 219.747 237.187 221.266 237.106 221.329C236.927 221.472 236.9 221.722 237.043 221.901C237.124 221.999 237.24 222.053 237.357 222.053C237.446 222.053 237.536 222.026 237.616 221.964C237.634 221.946 239.487 220.462 241.403 219.675C241.609 219.586 241.707 219.353 241.626 219.148C241.537 218.942 241.304 218.844 241.098 218.924Z" fill="#2F2F2F"/>
<path d="M248.152 225.174C247.964 225.057 247.714 225.12 247.597 225.317C246.47 227.23 244.67 228.91 244.653 228.928C244.491 229.08 244.482 229.34 244.635 229.501C244.715 229.59 244.823 229.626 244.93 229.626C245.028 229.626 245.127 229.59 245.207 229.518C245.288 229.447 247.105 227.739 248.296 225.728C248.412 225.531 248.349 225.29 248.152 225.174Z" fill="#2F2F2F"/>
<path d="M254.678 214.302C254.66 214.079 254.463 213.918 254.239 213.927C252.941 214.016 249.763 214.991 249.629 215.026C249.414 215.089 249.298 215.321 249.361 215.536C249.414 215.715 249.575 215.822 249.746 215.822C249.781 215.822 249.826 215.822 249.862 215.804C249.898 215.795 253.084 214.821 254.293 214.74C254.517 214.722 254.687 214.526 254.669 214.302H254.678Z" fill="#2F2F2F"/>
<path d="M256.441 223.949C256.557 223.949 256.665 223.904 256.745 223.806C257.417 223.037 258.025 220.829 258.097 220.579C258.16 220.364 258.025 220.14 257.811 220.078C257.596 220.024 257.372 220.149 257.309 220.364C257.139 220.99 256.602 222.733 256.128 223.27C255.976 223.439 255.993 223.699 256.164 223.842C256.244 223.913 256.334 223.94 256.432 223.94L256.441 223.949Z" fill="#2F2F2F"/>
<path d="M255.411 231.1C255.197 231.038 254.973 231.154 254.901 231.369C254.901 231.386 254.176 233.63 252.735 234.989C252.574 235.141 252.565 235.401 252.717 235.562C252.798 235.642 252.905 235.687 253.013 235.687C253.111 235.687 253.209 235.651 253.29 235.579C254.883 234.077 255.644 231.717 255.68 231.61C255.752 231.395 255.626 231.172 255.411 231.1Z" fill="#2F2F2F"/>
<path d="M264.309 226.568C264.085 226.568 263.906 226.747 263.906 226.971C263.906 226.998 263.897 229.59 262.966 231.289C262.859 231.485 262.931 231.736 263.128 231.843C263.19 231.879 263.253 231.897 263.324 231.897C263.468 231.897 263.611 231.816 263.682 231.682C264.712 229.805 264.73 227.087 264.73 226.971C264.73 226.747 264.551 226.568 264.327 226.568H264.309Z" fill="#2F2F2F"/>
<path d="M260.532 238.173C260.335 238.066 260.084 238.137 259.977 238.334C259.959 238.37 258.026 241.856 256.244 242.875C256.047 242.992 255.985 243.233 256.092 243.43C256.164 243.564 256.307 243.635 256.45 243.635C256.522 243.635 256.584 243.617 256.656 243.582C258.634 242.455 260.612 238.879 260.693 238.727C260.8 238.53 260.729 238.28 260.532 238.173Z" fill="#2F2F2F"/>
<path d="M49.8039 337.856C49.8039 337.856 49.8576 337.856 49.8845 337.856C49.9024 337.856 52.1849 337.373 54.6823 337.015C54.9061 336.979 55.0582 336.774 55.0314 336.559C54.9956 336.336 54.7897 336.184 54.5749 336.211C52.0596 336.568 49.7502 337.051 49.7234 337.06C49.5085 337.105 49.3653 337.319 49.4101 337.543C49.4548 337.73 49.6159 337.864 49.8039 337.864V337.856Z" fill="#2F2F2F"/>
<path d="M44.6657 344.409C44.621 344.186 44.3972 344.043 44.1913 344.087C41.7566 344.57 39.304 345.759 39.1966 345.804C38.9907 345.902 38.9101 346.144 39.0086 346.349C39.0802 346.492 39.2235 346.582 39.3756 346.582C39.4383 346.582 39.4919 346.573 39.5546 346.537C39.5815 346.528 42.0252 345.348 44.3525 344.883C44.5762 344.838 44.7194 344.624 44.6747 344.409H44.6657Z" fill="#2F2F2F"/>
<path d="M52.6592 347.296C52.6771 347.502 52.8561 347.663 53.062 347.663C53.0799 347.663 53.0888 347.663 53.1067 347.663L57.5644 347.18C57.7882 347.153 57.9493 346.957 57.9224 346.733C57.8956 346.51 57.6897 346.358 57.4749 346.375L53.0172 346.858C52.7935 346.885 52.6323 347.082 52.6592 347.305V347.296Z" fill="#2F2F2F"/>
<path d="M56.5176 356.406C56.5176 356.63 56.6966 356.809 56.9204 356.809H61.378C61.6018 356.809 61.7809 356.63 61.7809 356.397C61.7809 356.165 61.6018 355.995 61.378 355.995H56.9204C56.6966 355.995 56.5176 356.174 56.5176 356.406Z" fill="#2F2F2F"/>
<path d="M46.2327 354.681C46.2327 354.681 43.3863 355.253 41.6139 354.69C41.3991 354.628 41.1664 354.744 41.1037 354.958C41.0321 355.173 41.1574 355.396 41.3722 355.468C42.0525 355.683 42.8492 355.754 43.6011 355.754C45.0333 355.754 46.3222 355.495 46.4028 355.477C46.6266 355.432 46.7608 355.218 46.7161 354.994C46.6713 354.78 46.4565 354.628 46.2327 354.681Z" fill="#2F2F2F"/>
<path d="M49.0251 361.413C49.9023 361.618 50.7706 361.69 51.5404 361.69C53.0084 361.69 54.1094 361.431 54.172 361.422C54.3868 361.368 54.5211 361.153 54.4764 360.93C54.4316 360.706 54.2079 360.581 53.9841 360.626C53.9572 360.626 51.5852 361.18 49.2131 360.626C48.9893 360.572 48.7745 360.706 48.7208 360.93C48.6671 361.153 48.8013 361.368 49.0251 361.422V361.413Z" fill="#2F2F2F"/>
<path d="M74.0347 335.146C74.0884 335.146 74.1421 335.137 74.1958 335.111C74.4017 335.021 74.5001 334.78 74.4106 334.574C73.7124 332.956 72.9964 328.102 72.9964 328.057C72.9606 327.833 72.7457 327.681 72.5309 327.717C72.3071 327.753 72.155 327.959 72.1908 328.182C72.2176 328.388 72.9337 333.189 73.6677 334.905C73.7304 335.057 73.8825 335.155 74.0437 335.155L74.0347 335.146Z" fill="#2F2F2F"/>
<path d="M77.5793 349.263C77.3556 349.299 77.2123 349.514 77.2481 349.737C77.2481 349.782 77.9642 353.912 77.9642 355.074C77.9642 355.298 78.1433 355.477 78.367 355.477C78.5908 355.477 78.7698 355.298 78.7698 355.074C78.7698 353.841 78.0716 349.773 78.0448 349.594C78.009 349.371 77.8031 349.228 77.5704 349.263H77.5793Z" fill="#2F2F2F"/>
<path d="M79.2981 369.682C79.0743 369.709 78.9132 369.906 78.94 370.129C78.94 370.165 79.2891 373.392 78.94 375.359C78.9042 375.583 79.0475 375.788 79.2713 375.833C79.2981 375.833 79.316 375.833 79.3429 375.833C79.5398 375.833 79.7099 375.69 79.7457 375.493C80.1127 373.41 79.7636 370.174 79.7457 370.031C79.7188 369.807 79.5129 369.647 79.2981 369.673V369.682Z" fill="#2F2F2F"/>
<path d="M75.2072 392.731C74.9924 392.686 74.7686 392.82 74.7239 393.044C74.7239 393.079 73.9988 396.423 73.6407 397.845C73.587 398.059 73.7213 398.283 73.9362 398.336C73.972 398.336 73.9988 398.345 74.0346 398.345C74.2136 398.345 74.3837 398.22 74.4285 398.041C74.7865 396.611 75.5116 393.249 75.5116 393.214C75.5563 392.999 75.422 392.775 75.1982 392.731H75.2072Z" fill="#2F2F2F"/>
<path d="M86.1275 334.691C86.1007 334.468 85.8948 334.307 85.671 334.342C85.4472 334.369 85.2861 334.575 85.3219 334.798C85.3935 335.379 86.0648 340.547 86.5571 341.656C86.6288 341.807 86.772 341.897 86.9331 341.897C86.9868 341.897 87.0405 341.888 87.0942 341.861C87.3001 341.772 87.3896 341.53 87.3001 341.325C86.9242 340.484 86.3244 336.256 86.1275 334.7V334.691Z" fill="#2F2F2F"/>
<path d="M88.9025 360.885C88.6877 360.93 88.5445 361.145 88.5893 361.368C88.5982 361.413 89.5381 365.829 89.3053 367.43C89.2695 367.653 89.4307 367.859 89.6544 367.886C89.6723 367.886 89.6903 367.886 89.7171 367.886C89.914 367.886 90.0931 367.743 90.1199 367.537C90.3706 365.803 89.4307 361.377 89.3949 361.19C89.3501 360.966 89.1263 360.841 88.9115 360.877L88.9025 360.885Z" fill="#2F2F2F"/>
<path d="M88.115 392.114C87.8912 392.132 87.7212 392.328 87.7391 392.552C87.8734 394.242 88.0076 397.156 87.766 397.791C87.6854 398.005 87.7928 398.238 88.0076 398.309C88.0524 398.327 88.1061 398.336 88.1509 398.336C88.312 398.336 88.4731 398.238 88.5358 398.077C88.9206 397.058 88.5984 392.945 88.5626 392.48C88.5447 392.257 88.3478 392.096 88.124 392.105L88.115 392.114Z" fill="#2F2F2F"/>
<path d="M91.6777 319.359C91.6598 319.135 91.4629 318.956 91.2391 318.983C91.0153 319.001 90.8452 319.198 90.8631 319.421C90.8989 319.922 91.248 324.383 91.7404 325.501C91.812 325.653 91.9552 325.742 92.1163 325.742C92.17 325.742 92.2237 325.733 92.2774 325.706C92.4833 325.617 92.5728 325.375 92.4833 325.17C92.1073 324.329 91.7672 320.691 91.6687 319.359H91.6777Z" fill="#2F2F2F"/>
<path d="M99.4826 337.713L99.9033 343.676C99.9212 343.89 100.1 344.051 100.306 344.051C100.315 344.051 100.324 344.051 100.333 344.051C100.557 344.033 100.727 343.837 100.709 343.613L100.288 337.65L99.4736 337.704L99.4826 337.713Z" fill="#2F2F2F"/>
<path d="M103.421 366.249C103.404 366.473 103.574 366.67 103.797 366.688C103.806 366.688 103.815 366.688 103.824 366.688C104.039 366.688 104.218 366.527 104.227 366.312C104.352 364.596 103.744 361.1 103.717 360.948C103.681 360.724 103.466 360.572 103.242 360.617C103.019 360.653 102.875 360.868 102.911 361.091C102.911 361.127 103.52 364.64 103.412 366.258L103.421 366.249Z" fill="#2F2F2F"/>
<path d="M104.227 380.098C104.218 379.875 104.03 379.669 103.806 379.714C103.582 379.723 103.412 379.91 103.421 380.134C103.421 380.25 103.564 383.075 103.914 384.774C103.949 384.962 104.119 385.096 104.307 385.096C104.334 385.096 104.361 385.096 104.388 385.096C104.603 385.051 104.746 384.836 104.701 384.613C104.361 382.977 104.227 380.134 104.218 380.098H104.227Z" fill="#2F2F2F"/>
<path d="M107.995 393.562C107.771 393.58 107.61 393.786 107.628 394.009C107.628 394.045 107.977 397.603 107.628 400.053C107.592 400.276 107.753 400.482 107.977 400.509C107.995 400.509 108.013 400.509 108.04 400.509C108.237 400.509 108.416 400.366 108.443 400.16C108.81 397.612 108.46 394.072 108.443 393.92C108.425 393.696 108.219 393.535 107.995 393.553V393.562Z" fill="#2F2F2F"/>
<path d="M105.883 324.848C105.82 324.633 105.605 324.508 105.381 324.562C105.167 324.624 105.032 324.848 105.095 325.062C105.337 325.965 106.187 328.942 106.966 329.524C107.037 329.577 107.127 329.604 107.208 329.604C107.333 329.604 107.449 329.55 107.53 329.443C107.664 329.264 107.628 329.005 107.449 328.871C107.073 328.585 106.339 326.564 105.883 324.848Z" fill="#2F2F2F"/>
<path d="M122.066 336.201C120.446 335.683 118.029 333.6 118.003 333.582C117.833 333.439 117.573 333.457 117.43 333.627C117.287 333.797 117.304 334.056 117.475 334.199C117.582 334.288 120.044 336.407 121.825 336.979C121.87 336.988 121.905 336.997 121.95 336.997C122.12 336.997 122.281 336.89 122.335 336.711C122.407 336.497 122.281 336.273 122.075 336.201H122.066Z" fill="#2F2F2F"/>
<path d="M126.005 324.928C124.349 324.588 122.12 323.685 122.102 323.676C121.897 323.587 121.655 323.694 121.574 323.9C121.485 324.105 121.592 324.347 121.798 324.427C121.888 324.463 124.116 325.375 125.853 325.724C125.88 325.724 125.907 325.724 125.933 325.724C126.121 325.724 126.292 325.59 126.327 325.402C126.372 325.178 126.229 324.964 126.005 324.919V324.928Z" fill="#2F2F2F"/>
<path d="M138.071 335.585C136.532 336.184 132.521 336.166 132.521 336.184C132.298 336.184 132.119 336.363 132.119 336.586C132.119 336.81 132.298 336.997 132.521 336.997H132.539C132.853 336.997 136.72 336.98 138.367 336.345C138.572 336.264 138.68 336.032 138.599 335.817C138.519 335.612 138.277 335.504 138.071 335.585Z" fill="#2F2F2F"/>
<path d="M146.709 325.125C146.601 324.928 146.351 324.857 146.154 324.973C144.587 325.858 140.765 326.913 140.73 326.922C140.515 326.984 140.389 327.208 140.443 327.423C140.497 327.601 140.658 327.718 140.837 327.718C140.873 327.718 140.909 327.718 140.944 327.7C141.105 327.655 144.901 326.6 146.548 325.67C146.745 325.563 146.816 325.313 146.7 325.116L146.709 325.125Z" fill="#2F2F2F"/>
<path d="M145.715 358.186C145.715 358.186 145.742 358.186 145.76 358.186C145.966 358.186 146.145 358.034 146.163 357.819C146.288 356.594 145.939 352.5 145.921 352.321C145.903 352.098 145.706 351.937 145.483 351.954C145.259 351.972 145.098 352.169 145.116 352.393C145.116 352.437 145.474 356.586 145.357 357.739C145.339 357.962 145.501 358.159 145.724 358.186H145.715Z" fill="#2F2F2F"/>
<path d="M146.333 371.766C146.109 371.784 145.939 371.981 145.957 372.204C146.038 373.357 146.199 376.558 145.966 377.497C145.912 377.711 146.047 377.935 146.261 377.988C146.297 377.988 146.324 377.997 146.36 377.997C146.539 377.997 146.709 377.872 146.754 377.693C147.067 376.442 146.772 372.32 146.763 372.151C146.745 371.927 146.53 371.766 146.324 371.775L146.333 371.766Z" fill="#2F2F2F"/>
<path d="M145.625 392.301C145.607 392.078 145.402 391.917 145.187 391.926C144.963 391.944 144.793 392.14 144.811 392.364C144.82 392.534 145.133 396.44 146.01 398.005C146.082 398.139 146.225 398.211 146.368 398.211C146.44 398.211 146.503 398.193 146.565 398.157C146.762 398.05 146.834 397.799 146.717 397.603C145.93 396.19 145.625 392.328 145.625 392.292V392.301Z" fill="#2F2F2F"/>
<path d="M161.058 320.396C161.183 320.208 161.138 319.957 160.95 319.832C160.771 319.707 160.512 319.752 160.386 319.94C160.377 319.957 159.196 321.647 157.656 321.96C157.432 322.005 157.289 322.219 157.334 322.434C157.37 322.631 157.54 322.765 157.728 322.765C157.755 322.765 157.781 322.765 157.808 322.765C159.67 322.398 160.995 320.494 161.049 320.413L161.058 320.396Z" fill="#2F2F2F"/>
<path d="M189.2 314.146C188.986 314.2 188.842 314.414 188.896 314.629C188.896 314.647 189.326 316.569 188.896 318.536C188.851 318.75 188.986 318.974 189.209 319.018C189.236 319.018 189.263 319.027 189.299 319.027C189.487 319.027 189.657 318.893 189.693 318.706C190.158 316.569 189.711 314.539 189.693 314.45C189.648 314.235 189.433 314.092 189.209 314.146H189.2Z" fill="#2F2F2F"/>
<path d="M183.319 325.911C183.104 325.867 182.881 326.01 182.836 326.233C182.639 327.217 182.03 329.944 181.609 330.712C181.502 330.909 181.574 331.159 181.771 331.267C181.833 331.302 181.896 331.32 181.968 331.32C182.111 331.32 182.254 331.24 182.326 331.106C182.889 330.069 183.606 326.555 183.632 326.403C183.677 326.18 183.534 325.965 183.31 325.92L183.319 325.911Z" fill="#2F2F2F"/>
<path d="M163.797 330.498C163.573 330.498 163.394 330.686 163.394 330.909C163.394 330.936 163.394 333.922 162.794 335.451C162.714 335.657 162.812 335.898 163.027 335.978C163.072 335.996 163.125 336.005 163.179 336.005C163.34 336.005 163.492 335.907 163.555 335.746C164.217 334.065 164.208 331.026 164.208 330.9C164.208 330.677 164.029 330.498 163.805 330.498H163.797Z" fill="#2F2F2F"/>
<path d="M156.161 349.013C155.938 348.995 155.741 349.147 155.714 349.371C155.696 349.532 155.257 353.376 155.257 354.476C155.257 354.699 155.436 354.878 155.66 354.878C155.884 354.878 156.063 354.699 156.063 354.476C156.063 353.43 156.511 349.505 156.511 349.469C156.537 349.246 156.376 349.049 156.152 349.022L156.161 349.013Z" fill="#2F2F2F"/>
<path d="M156.851 367.43C156.618 367.412 156.439 367.6 156.43 367.823C156.43 367.984 156.34 371.828 156.43 372.839C156.448 373.053 156.627 373.205 156.833 373.205C156.842 373.205 156.86 373.205 156.869 373.205C157.092 373.187 157.253 372.991 157.236 372.767C157.146 371.811 157.236 367.886 157.236 367.85C157.236 367.627 157.065 367.439 156.842 367.43H156.851Z" fill="#2F2F2F"/>
<path d="M160.234 389.261C160.198 389.038 159.992 388.886 159.777 388.913C159.554 388.948 159.402 389.154 159.428 389.369C159.554 390.227 160.18 394.563 160.556 395.251C160.628 395.385 160.771 395.466 160.914 395.466C160.977 395.466 161.049 395.448 161.111 395.412C161.308 395.305 161.38 395.055 161.272 394.858C161.049 394.447 160.529 391.327 160.234 389.244V389.261Z" fill="#2F2F2F"/>
<path d="M175.863 389.485C175.657 389.566 175.55 389.807 175.639 390.013C176.06 391.059 177.152 394 177.152 395.064C177.152 395.287 177.331 395.466 177.555 395.466C177.779 395.466 177.958 395.287 177.958 395.064C177.958 393.615 176.454 389.869 176.391 389.709C176.311 389.503 176.069 389.405 175.863 389.485Z" fill="#2F2F2F"/>
<path d="M169.785 375.369C169.561 375.369 169.382 375.547 169.382 375.762C169.382 375.941 169.293 380.134 169.382 381.135C169.4 381.35 169.579 381.502 169.785 381.502C169.794 381.502 169.812 381.502 169.821 381.502C170.044 381.484 170.206 381.287 170.188 381.064C170.098 380.107 170.188 375.825 170.188 375.78C170.188 375.556 170.018 375.369 169.794 375.369H169.785Z" fill="#2F2F2F"/>
<path d="M175.961 363.612C175.872 362.271 176.4 358.633 176.409 358.597C176.445 358.374 176.284 358.168 176.069 358.132C175.854 358.105 175.639 358.248 175.603 358.472C175.586 358.624 175.057 362.236 175.147 363.657C175.165 363.872 175.344 364.042 175.55 364.042C175.55 364.042 175.568 364.042 175.577 364.042C175.8 364.024 175.97 363.836 175.952 363.612H175.961Z" fill="#2F2F2F"/>
<path d="M171.432 340.252C171.217 340.243 171.011 340.395 170.984 340.618C170.984 340.654 170.617 344.391 170.187 345.965C170.125 346.179 170.25 346.403 170.474 346.465C170.51 346.474 170.546 346.483 170.581 346.483C170.76 346.483 170.921 346.367 170.975 346.188C171.432 344.543 171.79 340.86 171.799 340.699C171.817 340.475 171.655 340.279 171.432 340.252Z" fill="#2F2F2F"/>
<path d="M117.581 272.852L114.001 268.096C109.892 273.665 105.596 277.295 105.399 277.456C105.13 277.68 105.023 278.055 105.139 278.395C105.256 278.726 105.569 278.958 105.918 278.958L108.711 278.985L108.326 282.042C108.299 282.275 108.362 282.516 108.514 282.695C108.684 282.901 108.926 282.999 109.167 282.999C109.346 282.999 109.534 282.936 109.687 282.811C109.874 282.65 113.992 279.217 118.271 273.782L118.074 273.513L117.581 272.843V272.852Z" fill="#EA5E00"/>
<path d="M96.6089 239.389C96.5015 239.389 96.412 239.478 96.412 239.585V250.698H91.1934V239.585C91.1934 239.478 91.104 239.389 90.9966 239.389H84.6681C84.5607 239.389 84.4712 239.478 84.4712 239.585V270.098C84.4712 270.205 84.5607 270.295 84.6771 270.295H91.0055C91.1129 270.295 91.2024 270.205 91.2024 270.098V257.609H96.4209V270.098C96.4209 270.205 96.5104 270.295 96.6178 270.295H102.937C103.045 270.295 103.134 270.205 103.134 270.098V239.585C103.134 239.478 103.045 239.389 102.928 239.389H96.6089Z" fill="#EA5E00"/>
<path d="M163.868 263.375V258.216H169.83C169.937 258.216 170.026 258.127 170.026 258.02V251.69C170.026 251.583 169.937 251.493 169.83 251.493H163.868V246.263H170.769C170.877 246.263 170.966 246.174 170.966 246.067V239.576C170.966 239.469 170.877 239.379 170.769 239.379H156.734C156.627 239.379 156.537 239.469 156.537 239.576V270.089C156.537 270.196 156.627 270.286 156.734 270.286H170.814C170.922 270.286 171.011 270.196 171.011 270.089V263.571C171.011 263.464 170.922 263.375 170.814 263.375H163.868Z" fill="#EA5E00"/>
<path d="M142.376 239.379H134.302C134.302 239.379 134.24 239.397 134.213 239.415V270.196C134.213 270.196 134.258 270.286 134.302 270.286H140.828C140.935 270.286 141.025 270.196 141.025 270.089V258.672H141.947C145.071 258.672 147.559 257.805 149.331 256.089C151.104 254.372 152.008 251.976 152.008 248.963C152.008 246.102 151.122 243.769 149.367 242.017C147.613 240.264 145.259 239.379 142.376 239.379ZM143.943 251.583C143.424 252.003 142.681 252.262 141.705 252.378L141.025 252.459V245.62L141.705 245.691C142.717 245.798 143.477 246.049 143.979 246.451C144.596 246.952 144.918 247.828 144.918 249.071C144.918 250.233 144.605 251.064 143.952 251.592L143.943 251.583Z" fill="#EA5E00"/>
<path d="M123.033 266.745C121.171 264.439 118.691 260.282 118.691 260.282C117.098 257.43 116.095 254.801 115.719 252.468C115.281 249.732 115.872 247.533 117.304 246.576C117.725 246.299 118.163 246.147 118.629 246.147C118.646 246.147 118.664 246.147 118.682 246.147C118.808 246.147 118.924 246.183 119.049 246.21C119.291 246.264 119.533 246.344 119.738 246.478C121.036 247.336 121.538 249.759 121.045 252.799C120.768 254.506 119.989 257.081 119.318 258.878C120.634 261.176 122.674 264.153 123.695 265.521C125.539 261.864 127.186 257.448 127.75 253.916C129.101 245.45 125.181 241.847 123.435 240.694C122.102 239.809 120.589 239.362 119.04 239.29C118.897 239.29 118.763 239.281 118.62 239.281C116.883 239.281 115.129 239.773 113.58 240.801C109.83 243.295 108.12 248.087 109.006 253.612C109.66 257.653 111.602 262.159 114.797 267.005L118.575 272.119L119.139 272.861C123.292 277.947 127.329 281.631 128.135 282.355C128.287 282.498 128.484 282.57 128.681 282.57C128.806 282.57 128.94 282.543 129.057 282.48C129.361 282.328 129.54 281.997 129.513 281.649L129.263 278.672L132.118 278.761C132.118 278.761 132.154 278.761 132.172 278.761C132.395 278.761 132.619 278.645 132.771 278.466C132.915 278.296 133.004 278.055 132.986 277.831C132.968 277.608 132.879 277.384 132.718 277.232C132.664 277.188 127.642 272.709 123.041 266.754L123.033 266.745Z" fill="#EA5E00"/>
<path d="M134.105 239.576V270.089C134.105 270.152 134.177 270.161 134.222 270.197V239.416C134.159 239.451 134.105 239.505 134.105 239.576Z" fill="#3EBAC2"/>
<path d="M124.519 266.621L124.796 266.075C126.873 261.972 128.43 257.493 128.976 254.095C130.444 244.896 126.067 240.9 124.116 239.612C122.657 238.647 120.92 238.084 119.103 238.003C118.942 238.003 118.781 237.994 118.62 237.994C116.579 237.994 114.601 238.593 112.909 239.72C108.729 242.5 106.822 247.757 107.789 253.791C108.433 257.797 110.277 262.195 113.267 266.898L113.231 266.951L113.258 266.987L113.007 267.327C108.988 272.78 104.781 276.321 104.611 276.473C103.94 277.036 103.689 277.975 103.976 278.806C104.262 279.638 105.041 280.201 105.909 280.21L107.315 280.228L107.109 281.881C107.037 282.463 107.207 283.062 107.583 283.509C107.986 283.991 108.568 284.26 109.185 284.26C109.66 284.26 110.116 284.09 110.483 283.795C110.662 283.652 114.798 280.192 119.112 274.747C122.997 279.342 126.586 282.624 127.32 283.276C127.696 283.616 128.18 283.804 128.69 283.804C129.012 283.804 129.334 283.723 129.621 283.58C130.391 283.187 130.829 282.373 130.758 281.515L130.632 279.959L132.055 280.004H132.073H132.19C132.763 280.004 133.335 279.736 133.72 279.28C134.087 278.851 134.275 278.288 134.24 277.733C134.204 277.161 133.944 276.625 133.541 276.267C133.497 276.231 128.914 272.128 124.545 266.621H124.519ZM109.687 282.82C109.534 282.945 109.355 283.008 109.167 283.008C108.926 283.008 108.684 282.901 108.514 282.704C108.362 282.525 108.29 282.284 108.326 282.051L108.711 278.994L105.918 278.967C105.569 278.967 105.256 278.735 105.139 278.404C105.023 278.064 105.121 277.698 105.399 277.465C105.596 277.295 109.892 273.674 114.001 268.105L117.582 272.861L118.074 273.531L118.271 273.8C114.001 279.235 109.884 282.668 109.687 282.829V282.82ZM132.763 278.457C132.61 278.636 132.387 278.752 132.163 278.752C132.145 278.752 132.127 278.752 132.109 278.752L129.254 278.663L129.504 281.64C129.531 281.989 129.352 282.311 129.048 282.472C128.932 282.534 128.797 282.561 128.672 282.561C128.475 282.561 128.278 282.489 128.126 282.346C127.32 281.622 123.292 277.93 119.13 272.852L118.566 272.11L114.789 266.996C111.602 262.151 109.651 257.654 108.997 253.604C108.102 248.079 109.812 243.296 113.571 240.792C115.111 239.764 116.865 239.273 118.611 239.273C118.754 239.273 118.897 239.273 119.032 239.282C120.58 239.353 122.093 239.809 123.427 240.685C125.172 241.838 129.093 245.45 127.741 253.908C127.177 257.439 125.53 261.856 123.686 265.512C122.666 264.144 120.616 261.176 119.309 258.869C119.989 257.081 120.768 254.507 121.037 252.79C121.52 249.751 121.019 247.328 119.73 246.469C119.524 246.335 119.282 246.255 119.041 246.201C118.924 246.174 118.799 246.148 118.674 246.139C118.656 246.139 118.638 246.139 118.62 246.139C118.145 246.139 117.707 246.291 117.295 246.568C115.863 247.524 115.272 249.724 115.711 252.459C116.087 254.802 117.089 257.421 118.682 260.273C118.682 260.273 121.162 264.43 123.024 266.737C127.634 272.691 132.655 277.17 132.7 277.215C132.87 277.367 132.96 277.59 132.969 277.814C132.986 278.037 132.897 278.279 132.754 278.448L132.763 278.457ZM118.557 257.287C117.734 255.481 117.188 253.8 116.937 252.254C116.579 250.063 116.982 248.284 117.975 247.623C118.199 247.471 118.405 247.399 118.629 247.399C118.656 247.399 118.691 247.408 118.718 247.417L118.79 247.435C118.942 247.471 119.014 247.498 119.058 247.524C119.739 247.98 120.276 249.751 119.819 252.576C119.604 253.908 119.076 255.758 118.557 257.278V257.287Z" fill="#2F2F2F"/>
<path d="M104.37 270.09V239.577C104.37 238.862 103.824 238.289 103.134 238.191C103.063 238.182 103.009 238.155 102.937 238.155H96.6179C95.8302 238.155 95.1947 238.799 95.1947 239.586V249.473H92.4378V239.586C92.4378 238.799 91.7933 238.155 91.0056 238.155H84.6772C83.8895 238.155 83.2539 238.799 83.2539 239.586V270.099C83.2539 270.885 83.8984 271.52 84.6861 271.52H91.0146C91.8023 271.52 92.4378 270.876 92.4378 270.09V258.834H95.1947V270.09C95.1947 270.876 95.8392 271.511 96.6269 271.511H102.946C103.018 271.511 103.081 271.484 103.143 271.466C103.833 271.368 104.37 270.796 104.37 270.081V270.09ZM103.134 270.09C103.134 270.197 103.045 270.286 102.937 270.286H96.6179C96.5105 270.286 96.421 270.197 96.421 270.09V257.6H91.2025V270.09C91.2025 270.197 91.113 270.286 91.0056 270.286H84.6772C84.5697 270.286 84.4802 270.197 84.4802 270.09V239.577C84.4802 239.469 84.5608 239.38 84.6772 239.38H91.0056C91.113 239.38 91.2025 239.469 91.2025 239.577V250.689H96.421V239.577C96.421 239.469 96.5105 239.38 96.6179 239.38H102.937C103.045 239.38 103.134 239.469 103.134 239.577V270.09Z" fill="#2F2F2F"/>
<path d="M141.705 245.674L141.024 245.602V252.441L141.714 252.361C142.68 252.254 143.432 251.985 143.951 251.565C144.605 251.038 144.918 250.206 144.918 249.044C144.918 247.801 144.605 246.916 143.978 246.425C143.477 246.022 142.716 245.772 141.705 245.665V245.674ZM143.173 250.626C142.958 250.796 142.645 250.939 142.26 251.029V247.006C142.68 247.095 143.012 247.229 143.208 247.399C143.522 247.649 143.683 248.222 143.683 249.062C143.683 249.831 143.513 250.349 143.173 250.626Z" fill="#2F2F2F"/>
<path d="M142.376 238.146H134.302C134.302 238.146 134.249 238.164 134.213 238.164C133.47 238.209 132.87 238.816 132.87 239.576V270.089C132.87 270.849 133.47 271.448 134.213 271.493C134.24 271.493 134.267 271.511 134.302 271.511H140.828C141.615 271.511 142.251 270.867 142.251 270.08V259.897C145.563 259.844 148.23 258.86 150.182 256.974C152.205 255.016 153.234 252.325 153.234 248.964C153.234 245.763 152.222 243.135 150.235 241.141C148.239 239.147 145.599 238.146 142.376 238.146ZM149.331 256.089C147.559 257.805 145.071 258.673 141.947 258.673H141.025V270.089C141.025 270.197 140.935 270.286 140.828 270.286H134.302C134.258 270.286 134.249 270.232 134.213 270.205C134.168 270.17 134.105 270.152 134.105 270.098V239.585C134.105 239.514 134.15 239.46 134.213 239.424C134.24 239.407 134.267 239.389 134.302 239.389H142.376C145.259 239.389 147.613 240.274 149.367 242.026C151.122 243.778 152.008 246.121 152.008 248.973C152.008 251.985 151.113 254.381 149.331 256.098V256.089Z" fill="#2F2F2F"/>
<path d="M170.814 262.141H165.094V259.441H169.829C170.617 259.441 171.253 258.798 171.253 258.011V251.681C171.253 250.895 170.608 250.251 169.829 250.251H165.094V247.479H170.769C171.557 247.479 172.193 246.836 172.193 246.049V239.558C172.193 238.772 171.548 238.128 170.76 238.128H156.725C155.937 238.128 155.302 238.772 155.302 239.558V270.071C155.302 270.858 155.946 271.493 156.734 271.493H170.814C171.602 271.493 172.246 270.849 172.246 270.062V263.545C172.246 262.758 171.602 262.123 170.814 262.123V262.141ZM171.02 270.08C171.02 270.187 170.93 270.277 170.823 270.277H156.743C156.636 270.277 156.546 270.187 156.546 270.08V239.567C156.546 239.46 156.627 239.371 156.743 239.371H170.778C170.886 239.371 170.975 239.46 170.975 239.567V246.058C170.975 246.165 170.886 246.255 170.778 246.255H163.877V251.485H169.838C169.946 251.485 170.035 251.574 170.035 251.681V258.011C170.035 258.118 169.946 258.208 169.838 258.208H163.877V263.366H170.823C170.93 263.366 171.02 263.455 171.02 263.563V270.08Z" fill="#2F2F2F"/>
</svg>
