<svg width="272" height="417" viewBox="0 0 272 417" fill="none" xmlns="http://www.w3.org/2000/svg">
<path d="M270.87 221.535C270.557 220.078 270.118 218.665 269.546 217.306C269.017 216.046 268.382 214.875 267.666 213.793C267.46 213.48 267.254 213.185 267.03 212.881C266.806 212.586 266.583 212.3 266.35 212.023C266.001 211.603 265.634 211.2 265.249 210.816C264.354 209.922 263.387 209.117 262.34 208.42C262.044 208.223 261.731 208.026 261.418 207.848C260.8 207.481 260.147 207.15 259.484 206.855C258.643 206.489 257.784 206.167 256.88 205.899C256.495 205.782 256.101 205.684 255.698 205.595C255.295 205.505 254.901 205.425 254.49 205.353C253.666 205.219 252.834 205.112 251.975 205.058C251.563 205.031 251.142 205.005 250.721 204.996C241.161 204.835 236.059 208.795 231.083 212.622C228.317 214.758 225.64 216.806 222.292 217.959C222.096 218.021 221.89 218.093 221.684 218.156C221.46 218.218 221.227 218.29 220.995 218.352C220.789 218.406 220.583 218.451 220.377 218.504C219.67 218.656 218.945 218.773 218.175 218.835C216.886 218.942 215.499 218.933 213.986 218.755C212.589 218.594 211.256 218.308 209.976 217.914C209.662 217.816 209.34 217.718 209.036 217.61C207.953 217.226 206.896 216.779 205.912 216.278C205.625 216.135 205.348 215.992 205.07 215.831C202.17 214.24 199.7 212.219 197.713 210.244C197.525 210.056 197.337 209.868 197.158 209.68C196.245 208.742 195.457 207.839 194.777 206.998C194.499 206.659 194.249 206.337 194.007 206.033C193.891 205.872 193.774 205.72 193.667 205.577C193.443 205.282 193.246 205.005 193.067 204.745C192.969 204.611 192.888 204.495 192.807 204.37H192.27V202.743H194.284C203.943 198.845 212.786 194.008 220.646 188.242C224.933 185.104 228.854 181.715 232.407 178.113C247.785 162.521 256.101 142.96 256.101 121.754C256.101 112.009 254.946 102.818 252.673 94.2625C252.136 92.242 251.536 90.2662 250.874 88.3262C250.542 87.3607 250.193 86.3951 249.835 85.4386C249.656 84.9647 249.468 84.482 249.28 84.0171C248.716 82.5956 248.108 81.2009 247.481 79.8241C246.846 78.4473 246.174 77.0974 245.467 75.7653C244.993 74.8713 244.509 73.9951 244.008 73.1189C243.99 73.0653 243.972 73.0028 243.945 72.9223C243.919 72.8418 243.892 72.7435 243.856 72.6363C243.838 72.5826 243.82 72.52 243.802 72.4574C243.739 72.2696 243.677 72.0461 243.596 71.7869C243.444 71.2773 243.256 70.6425 243.032 69.8916C242.925 69.5161 242.809 69.1138 242.692 68.6936C242.45 67.8443 242.182 66.8877 241.905 65.8507C240.553 60.8263 238.834 53.7903 237.644 46.5487C237.483 45.5474 237.331 44.5462 237.187 43.5449C236.972 42.0429 236.784 40.5409 236.641 39.0569C236.587 38.5562 236.543 38.0645 236.498 37.5817C236.292 35.1679 235.952 32.7183 235.469 30.2776C233.687 21.2481 230.026 12.3973 224.477 6.68448C224.325 6.5325 224.181 6.38051 224.02 6.22853C221.577 3.82362 218.784 2.02662 215.642 1.07002C215.4 0.9985 215.149 0.944894 214.908 0.882313C214.084 0.658808 213.252 0.471077 212.428 0.336974C211.775 0.229692 211.121 0.140255 210.468 0.0776741C210.253 0.0597937 210.029 0.0418697 209.815 0.0329295C201.204 -0.42302 192.333 3.85047 182.344 13.193C177.018 18.1726 172.945 21.3553 168.46 22.7589C167.61 23.0271 166.733 23.2328 165.847 23.3669C164.155 23.6262 162.374 23.6709 160.413 23.4742C160.145 23.4563 159.867 23.4206 159.59 23.3848C159.581 23.3848 159.572 23.3848 159.563 23.3848H159.545C150.379 22.008 140.694 21.2748 130.714 21.1586C129.818 21.1497 128.923 21.1408 128.028 21.1408C117.099 21.1408 106.492 21.9006 96.511 23.4026C96.1709 23.4383 95.8488 23.4652 95.5176 23.5009C94.1123 23.635 92.7875 23.6529 91.5344 23.5457C85.3133 23.0182 80.5333 19.5941 73.7125 13.2197C67.1692 7.09568 61.1005 3.17098 55.2733 1.31142C53.134 0.62303 51.0393 0.220734 48.9537 0.0955719C46.519 -0.0564113 44.12 0.167085 41.7211 0.757137C41.2825 0.864419 40.8529 0.971706 40.4143 1.09687C34.1217 3.01007 29.2344 8.28473 25.7614 15.0167C25.3318 15.8571 24.9109 16.7153 24.526 17.6004C24.1322 18.4855 23.7652 19.3885 23.4251 20.3004C23.255 20.7563 23.0849 21.2213 22.9237 21.6861C22.4404 23.0808 22.0018 24.5023 21.6169 25.9506C21.3663 26.9072 21.1246 27.8817 20.9097 28.8562C20.2653 31.7796 19.8267 34.7298 19.576 37.6175C19.209 42.0071 18.493 46.6203 17.6427 51.0099C17.2667 52.9678 16.8638 54.872 16.4521 56.6958C15.736 59.8964 14.9932 62.8467 14.3218 65.341C14.2234 65.6986 14.1338 66.0473 14.0353 66.3871C13.8563 67.0665 13.6772 67.7013 13.5161 68.2913C13.4355 68.5864 13.346 68.8724 13.2744 69.1406C13.2386 69.2747 13.1939 69.4088 13.1581 69.5429C13.0865 69.8021 13.0149 70.0525 12.9433 70.2939C12.809 70.7678 12.6836 71.1879 12.5762 71.5634C12.5225 71.7422 12.4688 71.921 12.4241 72.073C12.4062 72.1535 12.3793 72.225 12.3614 72.2965C12.2987 72.5111 12.2361 72.6899 12.1913 72.8329C12.1376 72.9849 12.1109 73.0922 12.084 73.1637C11.8334 73.6018 11.5827 74.0398 11.35 74.4779C10.1326 76.6772 9.01374 78.9391 7.99331 81.2546C7.79638 81.7195 7.59058 82.1843 7.39365 82.6492C6.80288 84.0528 6.24781 85.4833 5.72864 86.9227C5.37955 87.8882 5.04826 88.8627 4.73497 89.8461C4.42168 90.8295 4.11734 91.8129 3.83986 92.8142C3.55342 93.8155 3.28497 94.8168 3.03434 95.836C1.02033 103.963 0 112.644 0 121.816C0 138.946 5.42435 155.002 15.6197 168.752C16.1031 169.405 16.6042 170.057 17.1055 170.701C17.6157 171.345 18.1349 171.98 18.654 172.614C20.2384 174.51 21.9213 176.36 23.6936 178.166C27.2472 181.76 31.1767 185.148 35.4643 188.286C42.6342 193.543 50.6008 198.031 59.2744 201.742C53.0176 205.738 27.5068 223.412 13.5609 254.354C12.7821 256.071 12.0482 257.832 11.35 259.629C10.8845 260.827 10.437 262.052 10.0073 263.295C9.79249 263.912 9.58665 264.537 9.38078 265.163C8.56622 267.675 7.83227 270.259 7.18779 272.914C6.96401 273.728 2.35407 290.661 6.85649 303.391C6.99076 303.767 7.13395 304.133 7.27717 304.509C7.57256 305.242 7.90385 305.966 8.27084 306.664C8.53938 307.191 8.83476 307.701 9.157 308.201C9.26441 308.371 9.3717 308.532 9.47912 308.693C9.62234 308.907 9.76554 309.104 9.91771 309.31C12.1376 312.332 15.0736 314.486 18.6899 315.782C20.3727 316.381 22.1988 316.793 24.1681 317.007C25.9315 317.204 27.5873 317.267 29.1627 317.204C31.6779 317.097 33.9606 316.641 36.0373 315.809C43.0997 312.984 47.8795 305.76 51.7553 292.627C51.8627 292.475 51.9166 292.288 51.9077 292.109C52.5969 289.713 53.2682 287.147 53.9127 284.358C54.772 280.656 55.7746 277.375 56.8577 274.488C57.1262 273.764 57.4036 273.066 57.6811 272.387C57.8154 272.047 57.9675 271.716 58.1018 271.385C58.5225 270.402 58.9521 269.481 59.3817 268.605C59.9546 267.443 60.5366 266.361 61.1095 265.369C61.5391 264.618 61.9687 263.92 62.3894 263.277C63.929 260.899 65.379 259.12 66.5516 257.868C66.4442 258.154 66.3279 258.467 66.2116 258.789C65.8804 259.656 65.5311 260.657 65.1552 261.784C65.0567 262.07 64.9673 262.356 64.8689 262.651C64.7257 263.098 64.5825 263.563 64.4392 264.037C64.1439 265.002 63.8485 266.048 63.5441 267.157C63.4636 267.443 63.392 267.729 63.3204 268.024C63.1682 268.614 63.016 269.222 62.8638 269.839C62.7922 270.152 62.7117 270.474 62.6401 270.796C60.2859 280.809 58.2539 295.22 59.1669 313.637C59.3101 316.524 59.4892 319.189 59.6951 321.665C59.7936 322.899 59.9098 324.088 60.0262 325.223C60.053 325.447 60.08 325.679 60.0979 325.903C60.1158 326.117 60.1427 326.341 60.1606 326.555C56.7412 326.591 53.4829 326.985 50.4395 327.673C38.5882 330.391 30.1295 337.793 29.0106 347.306C28.9748 347.592 28.9478 347.896 28.9299 348.2C28.7957 350.613 29.1986 353.51 30.416 356.433C30.6845 357.077 30.9889 357.721 31.3379 358.356C31.517 358.669 31.6959 358.99 31.8928 359.303C32.0897 359.616 32.2956 359.938 32.5104 360.251C32.7342 360.564 32.958 360.877 33.1996 361.181C33.9247 362.102 34.7482 363.005 35.6881 363.872C38.3018 366.268 42.1866 368.699 47.808 369.987C48.345 370.112 48.9001 370.228 49.4819 370.327C49.5893 370.344 49.6966 370.362 49.804 370.38C50.1442 370.443 50.5022 370.487 50.8602 370.541C51.9165 370.693 53.0176 370.791 54.1813 370.854C54.5662 370.872 54.9599 370.89 55.3627 370.908C55.7834 370.926 56.2219 370.926 56.6605 370.926C56.7769 370.926 56.9024 370.926 57.0187 370.917C57.3768 370.917 57.7527 370.899 58.1197 370.89C61.0288 370.8 64.2244 370.47 67.7511 369.799C67.7511 369.897 67.7422 369.987 67.7332 370.085C67.7332 370.184 67.7242 370.282 67.7153 370.371C67.6974 370.648 67.6794 370.926 67.6526 371.212C67.6436 371.355 67.6346 371.48 67.6167 371.623C67.6167 371.632 67.6169 371.757 67.5901 371.989C67.5722 372.159 67.5542 372.392 67.5184 372.66C67.4736 373.035 67.411 373.482 67.3305 374.01C67.1425 375.181 66.8381 376.701 66.3637 378.355C65.7281 380.563 64.7792 383.013 63.3829 385.221C63.1501 385.596 62.9086 385.999 62.6669 386.428C62.5506 386.642 62.4251 386.875 62.3088 387.107C62.2551 387.224 62.1924 387.34 62.1298 387.465C61.7717 388.189 61.4227 388.967 61.0915 389.789C59.9458 392.677 59.1044 396.155 59.2923 399.597C59.2923 399.615 59.2923 399.633 59.2923 399.65C59.355 400.911 59.5698 402.171 59.9458 403.396C60.2322 404.317 60.6171 405.229 61.1184 406.105C63.8306 410.87 69.3534 413.964 77.5705 415.376C78.4209 415.519 79.3159 415.653 80.22 415.761C80.6765 415.814 81.142 415.868 81.6075 415.913C82.0819 415.966 82.5564 416.002 83.0397 416.038C83.5321 416.073 84.0243 416.1 84.5166 416.136C85.0179 416.163 85.5191 416.19 86.0382 416.208C87.0676 416.243 88.1329 416.261 89.2159 416.261C89.9231 416.261 90.657 416.252 91.391 416.234C91.6058 416.234 91.8027 416.234 92.0086 416.225L93.9511 416.181C99.1786 416.056 105.606 415.904 111.173 414.643C111.442 414.58 111.71 414.518 111.979 414.446C112.775 414.25 113.545 414.026 114.288 413.776C116.875 412.909 119.149 411.711 120.849 410.039C120.984 409.905 121.1 409.78 121.234 409.637C121.727 409.1 122.165 408.519 122.541 407.884C122.908 407.25 123.221 406.57 123.463 405.837C123.758 404.916 123.946 403.915 124.009 402.815C124.107 401.018 124.009 398.962 123.767 396.736C123.66 395.752 123.526 394.724 123.382 393.669C122.98 390.862 122.443 387.849 121.888 384.765C119.748 372.866 117.322 359.375 120.939 349.219C121.001 349.049 120.983 348.888 120.939 348.727C122.228 348.977 123.705 349.201 125.28 349.362C125.558 349.389 125.826 349.415 126.113 349.442C127.214 349.532 128.359 349.585 129.523 349.585C130.391 349.585 131.268 349.549 132.146 349.487C133.166 349.406 134.186 349.272 135.198 349.085C135.207 349.12 135.198 349.165 135.216 349.21C135.261 349.335 135.296 349.46 135.332 349.585C135.422 349.854 135.502 350.131 135.592 350.399C138.635 360.403 136.335 373.304 134.276 384.756C133.05 391.595 131.895 398.059 132.155 402.806C132.674 412.104 142.269 414.956 152.008 415.823C155.902 416.172 159.813 416.208 163.188 416.208C164.146 416.234 165.077 416.243 165.99 416.243C166.903 416.243 167.834 416.234 168.729 416.208C172.238 416.1 175.415 415.778 178.262 415.251C184.17 414.16 188.636 412.158 191.608 409.27C192.226 408.662 192.781 408.027 193.273 407.348C193.568 406.946 193.837 406.525 194.087 406.087C194.607 405.166 195.009 404.219 195.296 403.244C195.376 402.976 195.448 402.717 195.511 402.449C195.726 401.528 195.851 400.58 195.913 399.633V399.579C196.2 393.982 193.801 388.332 191.823 385.203C191.008 383.916 190.346 382.548 189.818 381.189C189.737 380.992 189.666 380.804 189.594 380.617C189.451 380.232 189.316 379.848 189.191 379.463C188.636 377.756 188.26 376.138 188.019 374.823C187.938 374.385 187.866 373.974 187.822 373.608C187.634 372.392 187.58 371.623 187.58 371.587C186.989 365.213 187.437 360.984 188.395 356.872C188.466 356.577 188.538 356.273 188.609 355.978C188.762 355.379 188.914 354.78 189.084 354.181C189.129 354.029 189.164 353.877 189.209 353.725C189.46 352.813 189.737 351.883 190.024 350.908C191.268 346.689 192.682 341.888 193.864 334.852C194.025 333.877 194.186 332.849 194.338 331.785C194.49 330.713 194.633 329.595 194.786 328.433C194.839 327.959 194.893 327.485 194.956 327.002C195.018 326.52 195.063 326.028 195.117 325.527C195.171 325.027 195.215 324.517 195.269 323.999C195.323 323.48 195.367 322.953 195.412 322.416C195.466 321.871 195.511 321.334 195.547 320.771C195.591 320.208 195.627 319.645 195.672 319.073C195.797 317.338 195.905 315.514 195.994 313.601C195.994 313.592 195.994 313.583 195.994 313.574C195.994 313.574 195.994 313.556 195.994 313.547C196.997 295.962 195.466 282.57 193.389 273.004C193.371 272.923 193.354 272.834 193.336 272.753C191.698 265.315 189.737 260.219 188.413 257.278C188.762 257.519 189.12 257.752 189.469 257.984C191.93 259.593 194.383 260.943 196.8 262.088C197.149 262.249 197.498 262.41 197.838 262.562C198.017 262.642 198.187 262.722 198.366 262.794C198.527 262.874 198.688 262.946 198.849 263.009C200.908 263.885 202.94 264.618 204.918 265.208C210.003 266.728 214.809 267.398 219.133 267.541C219.75 267.559 220.359 267.568 220.959 267.568C222.382 267.568 223.734 267.514 225.032 267.416C225.909 267.353 226.768 267.273 227.583 267.175C228.576 267.05 229.561 266.906 230.545 266.728C236.471 265.7 242.227 263.724 247.508 260.952C248.43 260.461 249.352 259.951 250.247 259.415C251.142 258.878 252.028 258.315 252.897 257.734C253.469 257.34 254.033 256.938 254.597 256.536C254.884 256.33 255.161 256.125 255.439 255.91C255.985 255.49 256.522 255.061 257.059 254.623C258.124 253.738 259.153 252.826 260.138 251.869C260.245 251.833 260.344 251.762 260.424 251.681C260.505 251.592 260.577 251.494 260.621 251.377C260.8 251.199 260.979 251.02 261.167 250.841C261.346 250.662 261.525 250.474 261.695 250.296C269.501 242.035 272.92 230.985 270.915 221.562L270.87 221.535ZM227.377 265.539C224.96 265.825 222.257 265.986 219.312 265.896C217.414 265.843 215.418 265.682 213.35 265.387C211.256 265.092 209.09 264.663 206.852 264.055C204.014 263.295 201.069 262.258 198.071 260.881C197.713 260.72 197.364 260.55 197.006 260.38C196.639 260.201 196.272 260.023 195.905 259.835C192.852 258.279 189.746 256.366 186.64 254.015C186.587 253.979 186.515 253.952 186.461 253.934C186.425 253.916 186.39 253.899 186.354 253.881C186.327 253.881 186.291 253.881 186.264 253.881C186.193 253.872 186.112 253.863 186.04 253.872C186.022 253.872 186.005 253.89 185.987 253.89C185.906 253.907 185.817 253.934 185.745 253.979H185.736C185.736 253.979 185.673 254.042 185.647 254.068C185.602 254.104 185.548 254.131 185.512 254.185C185.512 254.185 185.512 254.185 185.512 254.194C185.477 254.247 185.459 254.301 185.432 254.354C185.414 254.399 185.378 254.435 185.369 254.48C185.369 254.515 185.369 254.56 185.369 254.596C185.369 254.658 185.351 254.721 185.369 254.793C185.369 254.819 185.387 254.846 185.396 254.882C185.414 254.953 185.432 255.025 185.477 255.088V255.096C185.503 255.141 188.305 259.772 190.785 269.24C192.897 277.286 195.162 290.455 194.58 308.675C138.206 326.091 76.9976 312.805 63.2218 309.39C62.9264 309.319 62.649 309.256 62.3984 309.185C62.0851 309.104 61.8164 309.033 61.5747 308.97C61.154 308.863 60.823 308.773 60.6261 308.72C60.1606 288.434 63.2845 273.549 65.9519 264.662C66.2473 263.67 66.5427 262.758 66.8202 261.918C67.1245 260.997 67.4199 260.174 67.6884 259.441C68.7446 256.598 69.5055 255.105 69.5324 255.052C69.7025 254.721 69.6309 254.319 69.3534 254.068C69.0759 253.818 68.6641 253.791 68.3597 254.006C67.9211 254.301 57.52 261.498 52.3283 283.964C51.7823 286.36 51.2093 288.577 50.6185 290.643C36.0998 278.341 14.6081 281.515 7.93955 282.891C7.62626 282.954 7.34882 283.017 7.09819 283.07C7.06239 283.07 7.01753 283.088 6.99067 283.088C7.62621 277.483 8.73614 273.379 8.77194 273.272C19.4328 228.875 56.9472 204.996 61.1184 202.457C61.19 202.483 61.2616 202.51 61.3332 202.546C61.6465 202.671 61.9507 202.787 62.264 202.913C75.7265 208.304 90.7914 211.862 107.127 213.471C108.345 215.179 114.207 222.223 128.055 222.223C141.464 222.223 146.441 215.617 147.649 213.596C163.233 212.157 177.68 208.974 190.713 204.128C192.512 207.052 200.505 218.808 213.798 220.355C217.262 220.757 220.091 220.4 222.561 219.595C223.197 219.389 223.805 219.139 224.396 218.871C224.987 218.612 225.569 218.326 226.124 218.013C226.258 217.932 226.41 217.861 226.553 217.78C226.553 217.834 226.571 217.905 226.58 217.959C226.616 218.182 226.652 218.451 226.706 218.764C226.741 219.005 226.795 219.282 226.858 219.568C228.2 226.461 234.126 246.362 258.061 251.52C249.835 259.102 238.843 264.162 227.386 265.512L227.377 265.539Z" fill="#F4B0A9"/>
<path d="M50.6365 170.379C50.726 170.585 50.8961 170.737 51.102 170.808C60.0442 179.087 71.6538 185.819 85.1074 190.414C85.179 190.45 85.2506 190.477 85.3311 190.494C98.1492 194.848 112.623 197.28 128.046 197.28C182.209 197.28 224.638 167.321 224.629 129.093C224.629 110.292 214.281 91.5176 196.254 77.571C177.77 63.2756 153.539 55.4082 128.028 55.4082C101.721 55.4082 77.4989 62.5693 59.8204 75.5684C41.5153 89.0233 31.4364 108.039 31.4453 129.12C31.4453 144.747 38.5435 158.989 50.6365 170.37V170.379ZM53.3039 170.638C58.603 170.236 74.4645 170.647 83.8274 188.259C71.8955 183.959 61.5121 177.942 53.3039 170.638ZM170.394 188.894C180.849 168.385 199.503 170.272 202.618 170.754C194.007 178.372 183.033 184.585 170.394 188.894ZM60.7782 76.8825C78.1792 64.0891 102.061 57.0442 128.019 57.0442C153.172 57.0442 177.054 64.7864 195.251 78.8672C212.885 92.501 222.991 110.811 223 129.102C223 144.47 215.919 158.471 203.88 169.619C203.764 169.431 203.585 169.288 203.352 169.244C203.11 169.199 197.417 168.117 190.221 170.048C183.579 171.827 174.395 176.619 168.344 189.359C168.308 189.439 168.29 189.529 168.282 189.609C156.126 193.498 142.511 195.662 128.046 195.671C112.883 195.671 98.6505 193.302 86.0562 189.046C75.3507 166.964 55.0944 168.725 51.7108 169.19C39.9669 158.122 33.0745 144.291 33.0745 129.138C33.0745 108.584 42.9118 90.0336 60.7872 76.8915L60.7782 76.8825Z" fill="#8A605B"/>
<path d="M128.046 175.511C130.74 175.511 132.924 174.215 132.924 172.614C132.924 171.014 130.74 169.718 128.046 169.718C125.352 169.718 123.167 171.014 123.167 172.614C123.167 174.215 125.352 175.511 128.046 175.511Z" fill="#8A605B"/>
<path d="M76.765 155.029C77.1051 155.029 77.4272 155.037 77.7584 155.037C90.0841 155.037 95.0969 149.137 95.3117 148.878C95.7413 148.359 95.6606 147.599 95.1504 147.17C94.6312 146.741 93.8615 146.813 93.4319 147.322C93.3871 147.376 88.5893 152.91 76.8275 152.588C64.994 152.293 59.5966 146.482 59.5161 146.392C59.0685 145.892 58.2986 145.847 57.7973 146.294C57.2961 146.741 57.2514 147.51 57.69 148.011C57.9317 148.288 63.7679 154.689 76.756 155.02L76.765 155.029Z" fill="#8A605B"/>
<path d="M178.325 155.029C178.647 155.029 178.978 155.029 179.318 155.02C192.306 154.689 198.142 148.279 198.384 148.002C198.832 147.501 198.787 146.723 198.277 146.285C197.775 145.838 196.997 145.883 196.558 146.393C196.504 146.455 191.196 152.284 179.256 152.588C167.467 152.874 162.696 147.385 162.651 147.331C162.222 146.813 161.452 146.741 160.932 147.17C160.413 147.6 160.342 148.368 160.771 148.887C160.986 149.146 165.999 155.047 178.325 155.047V155.029Z" fill="#8A605B"/>
<path d="M270.87 221.535C270.557 220.078 270.118 218.665 269.546 217.306C269.017 216.046 268.382 214.874 267.666 213.793C267.46 213.48 267.254 213.176 267.03 212.881C266.806 212.586 266.583 212.3 266.35 212.023C266.001 211.602 265.634 211.2 265.249 210.816C264.354 209.922 263.387 209.117 262.34 208.42C262.044 208.223 261.731 208.026 261.418 207.847C260.8 207.481 260.156 207.141 259.485 206.855C258.652 206.48 257.784 206.167 256.88 205.898C256.495 205.791 256.101 205.684 255.698 205.603C255.295 205.514 254.901 205.434 254.49 205.362C253.666 205.228 252.834 205.121 251.975 205.067C251.563 205.031 251.151 205.013 250.721 205.004C241.161 204.844 236.059 208.804 231.083 212.63C228.317 214.767 225.64 216.814 222.292 217.968C222.096 218.03 221.89 218.102 221.684 218.164C221.46 218.227 221.227 218.299 220.995 218.361C220.789 218.415 220.583 218.459 220.377 218.513C219.67 218.665 218.945 218.781 218.175 218.844C216.886 218.951 215.499 218.942 213.986 218.763C212.589 218.602 211.256 218.316 209.976 217.923C209.662 217.825 209.34 217.726 209.036 217.619C207.953 217.235 206.896 216.788 205.912 216.287C205.625 216.135 205.348 215.992 205.07 215.84C202.17 214.249 199.7 212.228 197.713 210.252C197.525 210.065 197.337 209.877 197.158 209.689C196.263 208.759 195.457 207.847 194.777 207.007C194.508 206.676 194.249 206.345 194.007 206.042C193.891 205.881 193.774 205.729 193.667 205.586C193.452 205.291 193.255 205.013 193.067 204.754C192.969 204.62 192.888 204.504 192.807 204.379H192.27V202.751H194.284C203.943 198.854 212.787 194.017 220.646 188.251C224.933 185.113 228.854 181.724 232.407 178.121C247.785 162.539 256.101 142.977 256.101 121.762C256.101 112.018 254.946 102.827 252.673 94.2713C252.136 92.2508 251.545 90.275 250.874 88.335C250.542 87.3695 250.193 86.4039 249.835 85.4473C249.656 84.9735 249.468 84.4908 249.28 84.0259C248.716 82.6044 248.117 81.2097 247.481 79.8329C246.846 78.4561 246.174 77.1062 245.467 75.7741C244.993 74.8801 244.509 74.0039 244.008 73.1277C243.99 73.0741 243.972 73.0115 243.945 72.9311C243.928 72.8506 243.892 72.7523 243.856 72.645C243.838 72.5914 243.82 72.5288 243.802 72.4662C243.739 72.2784 243.677 72.0549 243.596 71.7957C243.444 71.2861 243.256 70.6513 243.032 69.9003C242.925 69.5249 242.809 69.1226 242.692 68.7024C242.45 67.8531 242.191 66.8964 241.905 65.8594C240.553 60.835 238.834 53.7991 237.644 46.5575C237.483 45.5562 237.331 44.5549 237.187 43.5536C236.972 42.0517 236.793 40.5497 236.641 39.0657C236.587 38.565 236.543 38.0733 236.498 37.5905C236.292 35.1767 235.952 32.7271 235.469 30.2864C233.696 21.2569 230.035 12.4061 224.477 6.69327C224.325 6.54129 224.181 6.3893 224.02 6.23732C221.577 3.83241 218.784 2.03541 215.642 1.07881C215.4 1.00729 215.149 0.953683 214.908 0.891102C214.084 0.667597 213.252 0.479866 212.428 0.345763C211.775 0.238481 211.122 0.140104 210.468 0.0864631C210.253 0.0685828 210.029 0.0506587 209.815 0.0417185C201.204 -0.414231 192.333 3.85926 182.344 13.2018C177.018 18.1814 172.945 21.3641 168.46 22.7677C167.61 23.0359 166.733 23.2416 165.847 23.3757C164.155 23.635 162.374 23.6797 160.413 23.483C160.145 23.4561 159.867 23.4204 159.59 23.3846H159.545C150.379 22.0079 140.694 21.2747 130.714 21.1584C129.818 21.1495 128.923 21.1406 128.028 21.1406C117.099 21.1406 106.492 21.9005 96.511 23.4024C96.1709 23.4382 95.8488 23.465 95.5176 23.5008C94.1123 23.6349 92.7875 23.6528 91.5344 23.5455C85.3133 23.018 80.5333 19.5939 73.7125 13.2195C67.1692 7.09552 61.1005 3.17082 55.2733 1.31126C53.134 0.62287 51.0394 0.220575 48.9537 0.095412C46.519 -0.0565711 44.12 0.166925 41.7211 0.756977C41.2825 0.864259 40.8529 0.971546 40.4143 1.09671C34.1217 3.00991 29.2345 8.28457 25.7614 15.0165C25.3318 15.8569 24.9109 16.7152 24.526 17.6003C24.1411 18.4853 23.7652 19.3883 23.4251 20.3002C23.255 20.7562 23.0849 21.2211 22.9237 21.686C22.4404 23.0807 22.0018 24.5022 21.6169 25.9505C21.3663 26.9071 21.1246 27.8815 20.9097 28.856C20.2742 31.7795 19.8267 34.7297 19.585 37.6173C19.218 42.007 18.502 46.6201 17.6427 51.0097C17.2667 52.9676 16.8638 54.8719 16.4521 56.6957C15.736 59.8963 14.9932 62.8466 14.3218 65.3409C14.2234 65.6985 14.1338 66.0472 14.0353 66.3869C13.8563 67.0664 13.6772 67.7011 13.5161 68.2912C13.4355 68.5862 13.346 68.8722 13.2744 69.1404C13.2386 69.2746 13.1939 69.4086 13.1581 69.5427C13.0865 69.802 13.0149 70.0524 12.9433 70.2938C12.809 70.7676 12.6836 71.1877 12.5762 71.5632C12.5225 71.742 12.4688 71.9209 12.4241 72.0729C12.4062 72.1533 12.3793 72.2248 12.3614 72.2964C12.2987 72.5109 12.2361 72.6897 12.1913 72.8328C12.1466 72.9847 12.1109 73.092 12.093 73.1635C11.8424 73.6016 11.5917 74.0396 11.35 74.4777C10.1326 76.677 9.01374 78.9389 7.99331 81.2544C7.79638 81.7193 7.59058 82.1842 7.39365 82.6491C6.80288 84.0527 6.24781 85.4831 5.72864 86.9225C5.3885 87.888 5.04826 88.8625 4.73497 89.846C4.42168 90.8294 4.11734 91.8127 3.83986 92.814C3.55342 93.8153 3.29392 94.8167 3.03434 95.8358C1.02033 103.962 0 112.643 0 121.816C0 138.945 5.42435 155.002 15.6197 168.752C16.1031 169.405 16.6042 170.057 17.1055 170.701C17.6157 171.345 18.1349 171.979 18.654 172.614C20.2384 174.509 21.9213 176.36 23.6936 178.166C27.2472 181.76 31.1767 185.148 35.4643 188.286C42.6342 193.543 50.6008 198.031 59.2744 201.741C53.0176 205.738 27.5068 223.412 13.5609 254.354C12.7911 256.071 12.0482 257.832 11.35 259.629C10.8845 260.827 10.437 262.052 10.0073 263.294C9.79249 263.911 9.58665 264.537 9.38078 265.163C8.56622 267.675 7.83206 270.259 7.19653 272.914C6.97275 273.728 2.36302 290.651 6.85649 303.391C6.99076 303.767 7.13395 304.133 7.27717 304.509C7.57256 305.242 7.90385 305.966 8.27085 306.663C8.53938 307.182 8.84371 307.7 9.157 308.201C9.26441 308.371 9.37171 308.532 9.48808 308.693C9.6313 308.907 9.7745 309.104 9.91772 309.31C12.1376 312.331 15.0736 314.486 18.6899 315.782C20.3727 316.381 22.1988 316.793 24.1681 317.007C25.9315 317.204 27.5873 317.266 29.1627 317.204C31.6779 317.096 33.9606 316.641 36.0373 315.809C43.0998 312.984 47.8795 305.76 51.7553 292.627C51.8628 292.475 51.9256 292.288 51.9077 292.109C52.5969 289.713 53.2682 287.147 53.9127 284.358C54.772 280.656 55.7746 277.375 56.8577 274.488C57.1262 273.763 57.4036 273.066 57.6811 272.387C57.8154 272.047 57.9675 271.716 58.1018 271.385C58.5225 270.402 58.9521 269.481 59.3817 268.605C59.9546 267.443 60.5366 266.361 61.1095 265.369C61.5391 264.618 61.9687 263.92 62.3894 263.277C63.938 260.899 65.388 259.119 66.5516 257.868C66.5516 257.868 66.5546 257.865 66.5606 257.859C66.4442 258.154 66.3279 258.467 66.2026 258.789C65.8714 259.656 65.5224 260.657 65.1464 261.784C65.048 262.07 64.9584 262.356 64.8599 262.651C64.7257 263.098 64.5735 263.563 64.4303 264.036C64.1349 265.002 63.8395 266.048 63.5352 267.157C63.4546 267.443 63.383 267.729 63.3024 268.024C63.1503 268.614 62.9981 269.222 62.8459 269.839C62.7743 270.152 62.6938 270.473 62.6221 270.795C60.268 280.808 58.236 295.22 59.149 313.637C59.2922 316.524 59.4713 319.188 59.6772 321.665C59.7846 322.899 59.8919 324.088 60.0083 325.223C60.0351 325.447 60.062 325.679 60.0799 325.903C60.0978 326.117 60.1248 326.341 60.1516 326.555C56.7323 326.591 53.474 326.984 50.4306 327.673C38.5793 330.391 30.1205 337.793 29.0016 347.305C28.9658 347.591 28.9389 347.895 28.921 348.199C28.7867 350.613 29.1896 353.51 30.407 356.433C30.6755 357.077 30.9799 357.712 31.329 358.355C31.508 358.668 31.6869 358.99 31.8839 359.303C32.0808 359.616 32.2866 359.938 32.5014 360.251C32.7252 360.564 32.949 360.877 33.1907 361.181C33.9157 362.101 34.7393 363.004 35.6791 363.872C38.2929 366.268 42.1777 368.699 47.799 369.987C48.3361 370.112 48.9001 370.228 49.473 370.326C49.5804 370.344 49.6877 370.362 49.7951 370.38C50.1352 370.443 50.4932 370.487 50.8513 370.541C51.9075 370.693 53.0087 370.791 54.1723 370.854C54.5572 370.872 54.9509 370.89 55.3537 370.908C55.7834 370.916 56.2219 370.925 56.6605 370.925C56.7769 370.925 56.8934 370.925 57.0187 370.925C57.3768 370.925 57.7527 370.908 58.1197 370.899C61.0288 370.809 64.2244 370.478 67.7511 369.808C67.7511 369.906 67.7332 369.996 67.7243 370.094C67.7243 370.192 67.7153 370.291 67.7063 370.38C67.6884 370.657 67.6705 370.934 67.6436 371.22C67.6257 371.363 67.6259 371.489 67.608 371.632C67.608 371.641 67.599 371.766 67.5722 371.998C67.5543 372.168 67.5363 372.401 67.5005 372.669C67.4557 373.044 67.3931 373.491 67.3125 374.019C67.1246 375.19 66.8202 376.71 66.3457 378.364C65.7102 380.572 64.7613 383.021 63.3649 385.23C63.1322 385.605 62.8907 386.007 62.649 386.437C62.5327 386.651 62.4072 386.884 62.2908 387.116C62.2371 387.232 62.1745 387.349 62.1119 387.474C61.7538 388.198 61.4048 388.967 61.0736 389.798C59.9368 392.686 59.0954 396.155 59.2744 399.605C59.2744 399.623 59.2744 399.641 59.2744 399.659C59.346 400.92 59.5519 402.18 59.9278 403.405C60.2143 404.326 60.5992 405.238 61.1005 406.114C63.8127 410.879 69.3354 413.972 77.5526 415.385C78.4029 415.528 79.298 415.662 80.2021 415.769C80.6586 415.823 81.1241 415.877 81.5896 415.921C82.064 415.975 82.5385 416.011 83.0218 416.047C83.5141 416.082 84.0064 416.109 84.4987 416.145C84.9999 416.172 85.5012 416.198 86.0203 416.216C87.0497 416.252 88.1149 416.27 89.198 416.27C89.9052 416.27 90.6391 416.261 91.3731 416.243C91.5879 416.243 91.785 416.243 91.9909 416.234L93.9332 416.19C99.1607 416.064 105.588 415.912 111.155 414.652C111.424 414.589 111.692 414.527 111.961 414.455C112.757 414.258 113.527 414.035 114.27 413.785C116.857 412.917 119.131 411.719 120.831 410.048C120.966 409.914 121.082 409.788 121.216 409.645C121.718 409.109 122.156 408.528 122.523 407.893C122.899 407.258 123.212 406.579 123.445 405.846C123.74 404.925 123.929 403.924 123.991 402.824C124.09 401.027 123.991 398.971 123.75 396.745C123.642 395.752 123.517 394.733 123.364 393.678C122.962 390.871 122.425 387.858 121.87 384.774C119.73 372.874 117.305 359.384 120.921 349.228C120.983 349.058 120.975 348.897 120.921 348.736C122.21 348.986 123.687 349.21 125.262 349.371C125.54 349.397 125.808 349.424 126.095 349.451C127.196 349.54 128.341 349.594 129.505 349.594C130.373 349.594 131.25 349.558 132.128 349.496C133.148 349.415 134.169 349.281 135.18 349.093C135.189 349.129 135.18 349.174 135.198 349.219C135.243 349.344 135.279 349.469 135.314 349.594C135.413 349.862 135.484 350.139 135.574 350.408C138.617 360.412 136.317 373.312 134.258 384.765C133.032 391.604 131.877 398.068 132.137 402.815C132.656 412.113 142.251 414.965 151.99 415.832C155.884 416.181 159.796 416.216 163.17 416.216C164.128 416.243 165.059 416.252 165.972 416.252C166.885 416.252 167.816 416.243 168.711 416.216C172.22 416.109 175.397 415.787 178.244 415.26C184.152 414.169 188.618 412.166 191.59 409.279C192.208 408.671 192.763 408.036 193.255 407.357C193.55 406.954 193.819 406.534 194.07 406.096C194.589 405.175 194.992 404.228 195.278 403.253C195.359 402.985 195.43 402.726 195.493 402.457C195.717 401.528 195.842 400.589 195.896 399.641V399.588C196.191 393.991 193.783 388.341 191.805 385.212C190.991 383.924 190.328 382.557 189.791 381.198C189.71 381.001 189.639 380.813 189.567 380.625C189.424 380.241 189.29 379.857 189.164 379.472C188.609 377.765 188.234 376.146 187.992 374.832C187.911 374.394 187.848 373.983 187.795 373.616C187.616 372.401 187.571 371.632 187.562 371.596C186.971 365.213 187.419 360.993 188.377 356.88C188.448 356.585 188.52 356.281 188.592 355.986C188.744 355.387 188.905 354.788 189.066 354.189C189.111 354.037 189.146 353.885 189.191 353.733C189.451 352.821 189.719 351.883 190.015 350.917C191.259 346.698 192.673 341.897 193.846 334.861C194.016 333.886 194.177 332.858 194.32 331.794C194.472 330.721 194.625 329.604 194.768 328.442C194.821 327.968 194.875 327.494 194.938 327.011C195.001 326.528 195.045 326.037 195.099 325.536C195.153 325.035 195.197 324.526 195.251 324.007C195.305 323.489 195.35 322.961 195.394 322.425C195.448 321.88 195.493 321.343 195.529 320.78C195.573 320.217 195.618 319.653 195.654 319.081C195.779 317.347 195.887 315.523 195.976 313.61C195.976 313.601 195.976 313.592 195.976 313.583V313.556C196.979 295.971 195.448 282.578 193.372 273.012C193.354 272.932 193.336 272.843 193.318 272.762C191.689 265.324 189.728 260.219 188.395 257.287C188.744 257.519 189.102 257.76 189.451 257.984C191.912 259.593 194.365 260.943 196.782 262.088C197.131 262.249 197.48 262.409 197.82 262.561C197.999 262.642 198.169 262.722 198.348 262.794C198.509 262.865 198.679 262.937 198.841 263.008C200.899 263.884 202.922 264.618 204.909 265.208C209.994 266.728 214.8 267.398 219.124 267.541C219.741 267.559 220.35 267.568 220.95 267.568C222.373 267.568 223.725 267.514 225.023 267.416C225.9 267.353 226.759 267.273 227.574 267.175C228.567 267.049 229.552 266.906 230.536 266.728C236.462 265.699 242.218 263.724 247.499 260.952C248.421 260.46 249.343 259.951 250.238 259.414C251.133 258.878 252.019 258.315 252.888 257.734C253.461 257.349 254.033 256.947 254.588 256.536C254.875 256.33 255.152 256.124 255.43 255.91C255.976 255.499 256.513 255.061 257.05 254.622C258.115 253.737 259.144 252.826 260.129 251.869C260.236 251.833 260.335 251.762 260.415 251.681C260.496 251.601 260.568 251.493 260.612 251.377C260.791 251.198 260.971 251.02 261.158 250.841C261.338 250.662 261.516 250.474 261.686 250.295C269.492 242.035 272.911 230.985 270.897 221.562L270.87 221.535ZM36.4132 186.927C34.4529 185.488 32.5731 183.995 30.7739 182.466C30.5233 182.252 30.2815 182.055 30.0399 181.84C29.8698 181.689 29.6999 181.545 29.5388 181.393C12.7912 166.642 3.10603 147.635 1.77231 126.769C1.77231 126.715 1.76335 126.662 1.76335 126.617C1.71859 125.937 1.69164 125.249 1.66479 124.561C1.66479 124.435 1.65582 124.319 1.64687 124.194C1.62897 123.389 1.61103 122.576 1.61103 121.771C1.61103 103.676 5.61223 87.5573 13.5161 73.8698C13.5429 73.8162 13.5699 73.7625 13.5878 73.7089C13.8384 72.9043 19.8088 53.8795 21.1783 37.7157C22.5389 21.6144 28.563 10.8594 35.2136 5.67408C37.0844 4.21683 39 3.19762 40.8798 2.62545C41.3363 2.49134 41.7928 2.36626 42.2583 2.25898C43.9769 1.84773 45.7045 1.62415 47.459 1.62415C55.2733 1.62415 63.4187 5.79028 72.6026 14.3639C82.4846 23.5991 88.1059 26.0756 96.7348 24.9759C106.653 23.4918 117.179 22.7319 128.028 22.7319C138.877 22.7319 149.404 23.4829 159.339 24.967C162.759 25.3961 165.703 25.262 168.639 24.3591C169.418 24.1266 170.188 23.8405 170.976 23.5008C171.71 23.17 172.453 22.7856 173.205 22.3565C176.248 20.6132 179.515 18.0204 183.454 14.3371C190.856 7.41736 197.587 3.37642 204.014 2.06221C205.062 1.84764 206.109 1.72252 207.138 1.651C208.087 1.58841 209.027 1.58841 209.958 1.64205C211.703 1.74933 213.449 2.05334 215.167 2.58081C223.716 5.17346 233.123 17.0371 234.878 37.671C236.256 53.8975 242.227 72.8596 242.477 73.6642C242.495 73.7179 242.522 73.7715 242.549 73.8251C250.462 87.5125 254.463 103.632 254.472 121.727C254.472 147.296 242.119 170.442 219.679 186.901C211.202 193.114 201.589 198.255 190.99 202.278C190.874 202.287 190.749 202.313 190.641 202.376C190.606 202.394 190.588 202.43 190.561 202.448C177.591 207.32 163.17 210.53 147.595 211.978C147.586 211.978 147.577 211.96 147.568 211.96C147.291 211.835 146.978 211.879 146.745 212.058C140.676 212.595 134.446 212.872 128.046 212.872C121.1 212.872 114.333 212.55 107.781 211.924C107.727 211.906 107.673 211.906 107.62 211.906C91.7492 210.36 77.0872 206.98 63.9559 201.857C63.1592 201.545 62.3714 201.232 61.5837 200.91C61.4673 200.812 61.3241 200.758 61.172 200.74C52.1134 196.976 43.8247 192.363 36.4042 186.927H36.4132ZM145.554 213.784C143.71 216.153 138.832 220.596 128.046 220.596C117.322 220.596 111.657 216.064 109.419 213.694C115.47 214.222 121.682 214.49 128.046 214.49C134.016 214.49 139.861 214.249 145.554 213.784ZM24.3381 315.362C22.4047 315.148 20.6503 314.718 19.0212 314.119C15.6018 312.85 12.8448 310.74 10.8307 307.772C10.6607 307.513 10.4995 307.244 10.3384 306.976C6.48045 300.62 6.17615 291.832 6.79378 284.813C6.82958 284.805 6.87444 284.796 6.90129 284.787C7.12507 284.733 7.39355 284.67 7.74265 284.599C13.5609 283.329 35.7329 279.601 50.0995 292.359C43.8695 313.029 35.7419 316.623 24.3381 315.362ZM48.0407 368.351C44.3707 367.492 41.5153 366.133 39.2865 364.623C38.3466 363.988 37.4962 363.317 36.7711 362.665C33.6024 359.759 31.8481 356.371 31.0515 353.224C30.5144 351.123 30.407 349.129 30.6039 347.457C30.6845 346.751 30.8187 346.054 30.9887 345.365C32.0271 341.298 34.6677 337.695 38.4361 334.843C41.6496 332.402 45.6955 330.507 50.2695 329.371C53.4024 328.594 56.777 328.155 60.3216 328.138C61.6285 339.054 63.5173 345.464 65.1195 350.899C66.7934 356.585 68.0645 360.903 67.8049 368.1C59.4714 369.736 53.0175 369.504 48.0317 368.342L48.0407 368.351ZM188.457 350.434C186.479 357.158 185.047 362.012 185.942 371.694C185.96 372.025 186.479 379.821 190.427 386.052C193.004 390.111 196.37 398.729 192.655 405.265C188.985 411.71 179.417 414.84 164.253 414.571C164.227 414.571 164.209 414.562 164.182 414.562C160.7 414.562 156.475 414.562 152.295 414.196C150.307 414.026 148.338 413.767 146.458 413.391C145.125 413.123 143.845 412.792 142.636 412.39C137.695 410.736 134.052 407.83 133.766 402.708C133.506 398.157 134.661 391.783 135.869 385.042C137.928 373.563 140.237 360.644 137.266 350.336C137.185 350.068 137.096 349.8 137.006 349.531C136.925 349.272 136.854 348.995 136.756 348.736C136.765 348.736 136.773 348.736 136.791 348.736C138.053 348.405 139.28 347.967 140.434 347.404C140.837 347.207 141.007 346.715 140.81 346.313C140.613 345.911 140.121 345.75 139.718 345.946C135.323 348.11 129.809 348.208 125.217 347.717C125.164 347.717 125.101 347.708 125.047 347.699C120.106 347.153 116.284 345.929 116.204 345.911C115.774 345.768 115.326 346.009 115.174 346.429C115.04 346.858 115.273 347.305 115.693 347.457C115.873 347.511 117.332 347.976 119.525 348.459C119.471 348.521 119.417 348.602 119.39 348.691C115.64 359.25 118.101 372.964 120.276 385.069C121.485 391.819 122.631 398.184 122.38 402.735C121.762 413.91 104.997 414.294 93.8974 414.553L91.9461 414.607C86.5217 414.759 81.8133 414.473 77.7853 413.785C75.0284 413.311 72.6027 412.649 70.5082 411.782C68.6016 411.004 66.9723 410.057 65.6296 408.948C64.3317 407.884 63.2755 406.677 62.4967 405.309C58.782 398.783 62.1476 390.165 64.7255 386.106C68.673 379.866 69.1922 372.07 69.2011 371.775C69.228 371.507 69.2459 371.247 69.2638 370.988C69.2817 370.702 69.3086 370.425 69.3265 370.148C69.3444 369.862 69.3624 369.593 69.3713 369.316C69.8279 361.198 68.4852 356.612 66.677 350.488C65.0658 345.026 63.1681 338.589 61.8791 327.485C61.8791 327.467 61.8881 327.431 61.897 327.413C61.897 327.396 61.8971 327.387 61.906 327.369C61.906 327.244 61.8701 327.127 61.8254 327.029C61.8075 326.895 61.7987 326.743 61.7808 326.609C61.7539 326.341 61.718 326.081 61.6912 325.804C61.3152 322.228 60.993 318.187 60.7602 313.565C60.7065 312.51 60.6708 311.473 60.635 310.445C60.8857 310.517 61.2167 310.597 61.6016 310.695C61.8433 310.758 62.1209 310.821 62.4163 310.901C62.6759 310.964 62.9443 311.035 63.2397 311.107C65.8355 311.741 69.8635 312.662 75.0552 313.655C75.1626 314.888 75.4043 317.141 75.7176 317.83C75.7802 317.982 75.9325 318.071 76.0937 318.071C76.1474 318.071 76.201 318.062 76.2547 318.035C76.4606 317.937 76.5501 317.704 76.4695 317.499C76.2547 317.016 76.0398 315.282 75.9055 313.807C88.9205 316.265 108.783 319.09 131.412 319.09C144.767 319.09 159.08 318.089 173.509 315.46C173.383 316.65 173.169 318.67 172.99 319.752C172.954 319.975 173.106 320.181 173.33 320.226C173.348 320.226 173.375 320.226 173.393 320.226C173.589 320.226 173.759 320.082 173.795 319.886C173.992 318.688 174.225 316.453 174.341 315.308C181.073 314.057 187.822 312.439 194.508 310.4C194.463 311.437 194.419 312.492 194.356 313.565C194.356 313.583 194.356 313.601 194.356 313.619C193.362 333.832 190.641 343.05 188.457 350.461V350.434ZM227.377 265.539C224.96 265.825 222.257 265.985 219.312 265.896C217.414 265.842 215.418 265.682 213.35 265.386C211.256 265.091 209.09 264.662 206.852 264.054C204.014 263.294 201.07 262.257 198.071 260.881C197.713 260.72 197.364 260.55 197.006 260.38C196.639 260.201 196.272 260.022 195.905 259.835C192.852 258.279 189.746 256.366 186.64 254.015C186.587 253.979 186.515 253.952 186.461 253.934C186.425 253.916 186.39 253.898 186.354 253.88C186.327 253.88 186.291 253.88 186.264 253.88C186.193 253.872 186.112 253.863 186.04 253.872C186.022 253.872 186.005 253.889 185.987 253.889C185.906 253.907 185.817 253.934 185.745 253.979H185.736C185.736 253.979 185.673 254.041 185.647 254.068C185.602 254.104 185.548 254.131 185.512 254.184C185.512 254.184 185.512 254.184 185.512 254.193C185.477 254.247 185.459 254.301 185.432 254.354C185.414 254.399 185.378 254.435 185.369 254.479C185.369 254.515 185.369 254.56 185.369 254.596C185.369 254.658 185.351 254.721 185.369 254.792C185.369 254.819 185.387 254.846 185.396 254.882C185.414 254.953 185.432 255.025 185.477 255.087V255.096C185.503 255.141 188.305 259.772 190.785 269.24C192.897 277.286 195.162 290.455 194.58 308.675C138.206 326.09 76.9976 312.805 63.2218 309.39C62.9264 309.319 62.649 309.256 62.3984 309.184C62.0851 309.104 61.8164 309.032 61.5747 308.97C61.154 308.863 60.823 308.773 60.6261 308.72C60.1606 288.434 63.2845 273.549 65.9519 264.662C66.2473 263.67 66.5427 262.758 66.8202 261.918C67.1245 260.997 67.4199 260.174 67.6884 259.441C68.7446 256.598 69.5055 255.105 69.5324 255.052C69.7025 254.721 69.6309 254.318 69.3534 254.068C69.0759 253.818 68.6641 253.791 68.3597 254.006C67.9211 254.301 57.52 261.498 52.3283 283.964C51.7823 286.36 51.2093 288.577 50.6185 290.643C36.0998 278.341 14.6081 281.515 7.93955 282.891C7.62626 282.954 7.34883 283.017 7.09819 283.07C7.06239 283.07 7.01753 283.088 6.99067 283.088C7.62621 277.483 8.73614 273.379 8.77194 273.272C19.4328 228.875 56.9472 204.996 61.1184 202.456C61.19 202.483 61.2616 202.51 61.3332 202.546C61.6465 202.671 61.9507 202.787 62.264 202.912C75.7265 208.303 90.7914 211.862 107.127 213.471C108.345 215.178 114.207 222.223 128.055 222.223C141.464 222.223 146.441 215.616 147.649 213.596C163.233 212.157 177.68 208.974 190.713 204.128C192.512 207.052 200.505 218.808 213.798 220.355C217.262 220.757 220.091 220.399 222.561 219.595C223.197 219.389 223.805 219.139 224.396 218.871C224.987 218.611 225.569 218.325 226.124 218.012C226.258 217.932 226.41 217.86 226.553 217.78C226.553 217.834 226.571 217.905 226.58 217.959C226.616 218.182 226.652 218.45 226.706 218.763C226.741 219.005 226.795 219.282 226.858 219.568C228.2 226.461 234.126 246.362 258.061 251.52C249.835 259.102 238.843 264.162 227.386 265.512L227.377 265.539ZM260.478 249.16C260.147 249.5 259.816 249.839 259.476 250.179C235.648 245.602 229.785 226.059 228.469 219.345C228.415 219.049 228.361 218.781 228.317 218.54C228.263 218.227 228.218 217.95 228.191 217.735C228.138 217.333 228.111 217.101 228.111 217.074C228.111 217.002 228.075 216.931 228.048 216.859C229.427 215.947 230.743 214.937 232.076 213.909C236.176 210.744 240.401 207.49 247.239 206.766C248.009 206.685 248.815 206.641 249.656 206.623C249.826 206.623 249.987 206.614 250.158 206.614C250.328 206.614 250.515 206.614 250.694 206.614C251.187 206.614 251.679 206.649 252.163 206.685C259.52 207.275 265.267 211.316 268.06 217.941C272.106 227.534 269.062 240.077 260.487 249.16H260.478Z" fill="#8A605B"/>
<path d="M258.052 251.538C249.826 259.12 238.834 264.18 227.377 265.53C224.96 265.816 222.257 265.977 219.312 265.887C217.414 265.834 215.418 265.673 213.35 265.378C211.256 265.083 209.09 264.654 206.852 264.046C204.014 263.286 201.07 262.249 198.071 260.872C197.713 260.711 197.364 260.541 197.006 260.371C196.639 260.192 196.272 260.014 195.905 259.826C192.852 258.27 189.746 256.357 186.64 254.006C186.587 253.97 186.515 253.943 186.461 253.925C186.425 253.908 186.39 253.89 186.354 253.872C186.327 253.872 186.291 253.872 186.264 253.872C186.193 253.863 186.112 253.854 186.04 253.863C186.023 253.863 186.005 253.881 185.987 253.881C185.906 253.899 185.817 253.925 185.745 253.97H185.736C185.736 253.97 185.673 254.033 185.647 254.059C185.602 254.095 185.548 254.122 185.512 254.176C185.512 254.176 185.512 254.176 185.512 254.185C185.477 254.238 185.459 254.292 185.432 254.346C185.414 254.39 185.378 254.426 185.369 254.471C185.369 254.507 185.369 254.551 185.369 254.587C185.369 254.65 185.351 254.712 185.369 254.784C185.369 254.81 185.387 254.837 185.396 254.873C185.414 254.945 185.432 255.016 185.477 255.079V255.088C185.503 255.132 188.305 259.763 190.785 269.231C192.897 277.277 195.162 290.446 194.58 308.666C138.206 326.082 76.9977 312.796 63.2218 309.381C62.9265 309.31 62.649 309.247 62.3984 309.176C62.0851 309.095 61.8164 309.024 61.5748 308.961C61.1541 308.854 60.823 308.764 60.6261 308.711C60.1606 288.426 63.2845 273.54 65.952 264.654C66.2474 263.661 66.5427 262.749 66.8202 261.909C67.1246 260.988 67.4199 260.166 67.6885 259.432C68.7447 256.59 69.5056 255.097 69.5324 255.043C69.7025 254.712 69.631 254.31 69.3535 254.059C69.076 253.809 68.6641 253.782 68.3598 253.997C67.9212 254.292 57.52 261.489 52.3284 283.955C51.7824 286.351 51.2093 288.569 50.6186 290.634C36.0998 278.332 14.6082 281.506 7.9396 282.883C7.62631 282.945 7.34887 283.008 7.09824 283.061C7.06244 283.061 7.01758 283.079 6.99072 283.079C7.62625 277.474 8.73619 273.37 8.77199 273.263C19.4328 228.866 56.9472 204.987 61.1185 202.448C61.1901 202.475 61.2617 202.501 61.3333 202.537C61.6466 202.662 61.9507 202.779 62.264 202.904C75.7265 208.295 90.7914 211.853 107.127 213.462C108.345 215.17 114.207 222.214 128.055 222.214C141.464 222.214 146.441 215.608 147.649 213.587C163.233 212.148 177.68 208.965 190.713 204.12C192.512 207.043 200.505 218.799 213.798 220.346C217.262 220.748 220.091 220.391 222.561 219.586C223.197 219.381 223.805 219.13 224.396 218.862C224.987 218.603 225.569 218.317 226.124 218.004C226.258 217.923 226.41 217.852 226.553 217.771C226.553 217.825 226.571 217.896 226.58 217.95C226.616 218.174 226.652 218.442 226.706 218.755C226.741 218.996 226.795 219.273 226.858 219.559C228.2 226.452 234.126 246.353 258.061 251.511L258.052 251.538Z" fill="#F4B0A9"/>
<path d="M127.921 183.306C133.264 183.306 136.156 180.392 136.272 180.267C136.585 179.945 136.576 179.426 136.254 179.113C135.932 178.801 135.413 178.81 135.099 179.131C135.073 179.158 132.575 181.679 127.912 181.679C123.338 181.679 121.1 179.283 120.992 179.167C120.697 178.827 120.178 178.801 119.847 179.096C119.506 179.391 119.48 179.909 119.775 180.24C119.882 180.365 122.55 183.306 127.912 183.306H127.921Z" fill="#8A605B"/>
<path d="M47.4765 20.9884C47.4765 20.9884 47.5572 21.0063 47.6019 21.0063C47.772 21.0063 47.9331 20.899 47.9868 20.7202C48.6313 18.6997 48.6402 16.3663 48.6402 16.268C48.6402 16.0445 48.4612 15.8657 48.2374 15.8657C48.0137 15.8657 47.8347 16.0445 47.8347 16.268C47.8347 16.2948 47.8347 18.5836 47.2261 20.4789C47.1544 20.6935 47.2796 20.9169 47.4944 20.9884H47.4765Z" fill="#8A605B"/>
<path d="M36.3502 31.0911C36.3502 31.0911 36.4309 31.1089 36.4757 31.1089C36.6457 31.1089 36.8068 31.0016 36.8605 30.8228C37.505 28.8023 37.5139 26.469 37.5139 26.3706C37.5139 26.1471 37.3349 25.9683 37.1112 25.9683C36.8874 25.9683 36.7084 26.1471 36.7084 26.3706C36.7084 26.3975 36.7082 28.6861 36.0996 30.5814C36.028 30.796 36.1533 31.0196 36.3681 31.0911H36.3502Z" fill="#8A605B"/>
<path d="M31.8033 53.5848C31.8033 53.5848 31.8838 53.6027 31.9286 53.6027C32.0986 53.6027 32.2597 53.4954 32.3134 53.3166C32.9579 51.2962 32.9668 48.9538 32.9668 48.8555C32.9668 48.632 32.7878 48.4531 32.5641 48.4531C32.3403 48.4531 32.1613 48.632 32.1613 48.8555C32.1613 48.8823 32.1614 51.171 31.5437 53.0663C31.4721 53.2809 31.5975 53.5133 31.8033 53.5758V53.5848Z" fill="#8A605B"/>
<path d="M23.3892 75.5509C23.1655 75.4972 22.9506 75.6402 22.9058 75.8548C22.9058 75.8727 22.3867 78.1077 21.3752 79.8242C21.2589 80.0209 21.3304 80.2713 21.5184 80.3786C21.581 80.4143 21.6528 80.4322 21.7244 80.4322C21.8677 80.4322 22.0018 80.3607 22.0734 80.2355C23.1476 78.4117 23.6758 76.1319 23.7026 76.0336C23.7563 75.819 23.613 75.5956 23.3982 75.5509H23.3892Z" fill="#8A605B"/>
<path d="M36.0195 69.2745C36.0911 69.3192 36.1627 69.337 36.2432 69.337C36.3775 69.337 36.5117 69.2745 36.5833 69.1493C37.729 67.3702 38.3466 65.1083 38.3735 65.0189C38.4362 64.8044 38.3018 64.5808 38.087 64.5182C37.8722 64.4646 37.6486 64.5898 37.5859 64.8044C37.5859 64.8223 36.9771 67.0305 35.894 68.7112C35.7687 68.899 35.8315 69.1493 36.0195 69.2745Z" fill="#8A605B"/>
<path d="M30.9171 89.2827C30.7112 89.1844 30.4696 89.2648 30.3712 89.4615C30.3175 89.5598 29.136 91.9558 28.6437 94.9955C28.6078 95.219 28.7599 95.4246 28.9837 95.4604C29.0016 95.4604 29.0285 95.4604 29.0464 95.4604C29.2433 95.4604 29.4134 95.3174 29.4492 95.1207C29.9146 92.2151 31.0873 89.8459 31.0963 89.8191C31.1947 89.6224 31.114 89.3721 30.9171 89.2738V89.2827Z" fill="#8A605B"/>
<path d="M14.9482 98.992C14.7334 98.9294 14.5095 99.0457 14.4379 99.2602C14.4111 99.3586 13.6951 101.656 13.4534 105.277C13.4355 105.5 13.6055 105.697 13.8293 105.706C13.8383 105.706 13.8472 105.706 13.8562 105.706C14.071 105.706 14.25 105.545 14.259 105.331C14.4917 101.817 15.1989 99.5283 15.2078 99.5015C15.2705 99.287 15.1541 99.0635 14.9393 98.992H14.9482Z" fill="#8A605B"/>
<path d="M13.4267 125.267C13.4088 125.043 13.2029 124.882 12.9881 124.9C12.7643 124.918 12.6031 125.115 12.621 125.338C12.6299 125.446 12.8716 128.02 13.4803 130.202C13.534 130.381 13.6953 130.497 13.8743 130.497C13.9101 130.497 13.9458 130.497 13.9816 130.479C14.1964 130.416 14.3218 130.193 14.2681 129.978C13.6862 127.877 13.4357 125.285 13.4357 125.258L13.4267 125.267Z" fill="#8A605B"/>
<path d="M25.2601 119.689C25.4839 119.689 25.6629 119.501 25.6629 119.277C25.645 117.516 26.0029 114.387 26.0119 114.351C26.0387 114.128 25.8777 113.931 25.6539 113.904C25.4301 113.886 25.2332 114.038 25.2064 114.262C25.1885 114.396 24.8395 117.471 24.8574 119.286C24.8574 119.51 25.0453 119.689 25.2601 119.689Z" fill="#8A605B"/>
<path d="M25.4389 140.116C25.3762 139.902 25.1613 139.777 24.9376 139.83C24.7227 139.893 24.5974 140.116 24.6511 140.331C24.6958 140.483 25.6985 144.077 26.5667 145.436C26.6473 145.561 26.7725 145.623 26.9068 145.623C26.9784 145.623 27.0589 145.606 27.1216 145.561C27.3096 145.445 27.3634 145.185 27.247 144.998C26.4414 143.737 25.4389 140.152 25.4299 140.116H25.4389Z" fill="#8A605B"/>
<path d="M18.5109 150.898C18.4482 150.683 18.2334 150.558 18.0096 150.612C17.7948 150.675 17.6694 150.898 17.7231 151.113C17.7589 151.229 18.5557 154.063 20.1132 155.645C20.1938 155.726 20.301 155.771 20.3995 155.771C20.4979 155.771 20.6054 155.735 20.686 155.654C20.8471 155.493 20.8471 155.243 20.686 155.082C19.2717 153.652 18.5019 150.934 18.493 150.907L18.5109 150.898Z" fill="#8A605B"/>
<path d="M34.9897 159.776C34.8555 159.598 34.596 159.562 34.417 159.696C34.2379 159.83 34.2021 160.089 34.3363 160.268C34.4348 160.393 36.6727 163.326 37.7826 164.193C37.8542 164.246 37.9438 164.282 38.0333 164.282C38.1496 164.282 38.2748 164.229 38.3554 164.121C38.4897 163.942 38.4629 163.692 38.2839 163.549C37.2545 162.744 35.0076 159.803 34.9808 159.776H34.9897Z" fill="#8A605B"/>
<path d="M32.5462 172.346C32.385 172.185 32.1345 172.185 31.9734 172.346C31.8123 172.507 31.8123 172.766 31.9734 172.918C32.0539 172.998 33.88 174.804 35.3301 175.85C35.4017 175.904 35.4822 175.931 35.5718 175.931C35.6971 175.931 35.8223 175.868 35.9028 175.761C36.0371 175.582 35.9925 175.323 35.8135 175.198C34.4081 174.187 32.573 172.364 32.5551 172.346H32.5462Z" fill="#8A605B"/>
<path d="M52.7759 186.096C50.8335 185.292 48.3541 182.77 48.3362 182.753C48.184 182.592 47.9243 182.592 47.7632 182.753C47.6021 182.905 47.6021 183.164 47.7632 183.325C47.8706 183.432 50.3769 185.989 52.4804 186.856C52.5341 186.874 52.5878 186.883 52.6325 186.883C52.7937 186.883 52.946 186.785 53.0086 186.633C53.0982 186.427 52.9907 186.186 52.7849 186.105L52.7759 186.096Z" fill="#8A605B"/>
<path d="M69.0222 191.362C67.7601 191.013 64.681 189.368 64.6452 189.35C64.4483 189.243 64.1976 189.314 64.0901 189.511C63.9827 189.708 64.0545 189.958 64.2514 190.065C64.3767 190.137 67.4379 191.773 68.7984 192.148C68.8343 192.157 68.8702 192.166 68.906 192.166C69.085 192.166 69.2461 192.05 69.2998 191.871C69.3624 191.657 69.2281 191.433 69.0133 191.371L69.0222 191.362Z" fill="#8A605B"/>
<path d="M84.2033 201.965C82.5831 201.732 79.1549 200.319 79.1191 200.311C78.9132 200.221 78.6714 200.328 78.5909 200.534C78.5014 200.74 78.5998 200.981 78.8146 201.062C78.9579 201.124 82.3773 202.528 84.096 202.769C84.1139 202.769 84.1318 202.769 84.1497 202.769C84.3466 202.769 84.5256 202.626 84.5525 202.42C84.5883 202.197 84.427 201.991 84.2033 201.965Z" fill="#8A605B"/>
<path d="M92.6085 197.245C89.6278 197.245 88.3119 196.315 88.294 196.297C88.115 196.163 87.8645 196.199 87.7302 196.377C87.5959 196.556 87.6316 196.815 87.8106 196.95C87.8733 196.994 89.3145 198.067 92.6175 198.067C92.8413 198.067 93.0203 197.888 93.0203 197.665C93.0203 197.441 92.8413 197.263 92.6175 197.263L92.6085 197.245Z" fill="#8A605B"/>
<path d="M107.548 201.116C105.677 201.214 103.207 200.311 103.18 200.302C102.965 200.222 102.732 200.338 102.66 200.543C102.58 200.758 102.696 200.991 102.902 201.062C103.001 201.098 105.319 201.938 107.306 201.929C107.405 201.929 107.494 201.929 107.584 201.929C107.807 201.92 107.986 201.733 107.968 201.509C107.96 201.286 107.789 201.125 107.548 201.125V201.116Z" fill="#8A605B"/>
<path d="M127.697 205.103C124.546 205.711 122.147 205.112 122.12 205.103C121.896 205.049 121.682 205.174 121.628 205.398C121.574 205.621 121.7 205.836 121.923 205.889C121.995 205.907 123.105 206.185 124.815 206.185C125.692 206.185 126.721 206.113 127.849 205.898C128.073 205.854 128.216 205.639 128.171 205.425C128.126 205.201 127.912 205.058 127.697 205.103Z" fill="#8A605B"/>
<path d="M148.043 199.784C145.778 200.391 142.234 200.275 142.198 200.275C141.992 200.275 141.786 200.445 141.777 200.669C141.777 200.892 141.947 201.08 142.171 201.089C142.216 201.089 142.511 201.098 142.977 201.098C144.194 201.098 146.53 201.026 148.258 200.561C148.473 200.508 148.607 200.284 148.544 200.061C148.491 199.846 148.258 199.721 148.043 199.775V199.784Z" fill="#8A605B"/>
<path d="M164.101 202.224C161.362 203.216 158.641 203.377 158.614 203.377C158.39 203.386 158.22 203.583 158.229 203.807C158.238 204.021 158.417 204.191 158.632 204.191H158.65C158.766 204.191 161.514 204.021 164.37 202.993C164.585 202.913 164.692 202.68 164.611 202.474C164.531 202.26 164.298 202.162 164.092 202.233L164.101 202.224Z" fill="#8A605B"/>
<path d="M178.316 193.149C175.469 194.562 172.819 194.973 172.793 194.973C172.569 195.009 172.417 195.215 172.452 195.438C172.479 195.644 172.658 195.787 172.855 195.787C172.873 195.787 172.9 195.787 172.918 195.787C173.034 195.769 175.72 195.358 178.682 193.883C178.879 193.784 178.969 193.543 178.861 193.337C178.763 193.132 178.512 193.051 178.316 193.158V193.149Z" fill="#8A605B"/>
<path d="M200.291 184.531C197.704 186.373 195.144 187.187 195.126 187.196C194.911 187.267 194.795 187.491 194.857 187.705C194.911 187.875 195.072 187.991 195.242 187.991C195.287 187.991 195.323 187.991 195.368 187.973C195.475 187.938 198.071 187.115 200.765 185.202C200.944 185.077 200.989 184.818 200.864 184.639C200.729 184.46 200.479 184.415 200.3 184.54L200.291 184.531Z" fill="#8A605B"/>
<path d="M194.114 193.641C192.387 194.67 189.299 195.671 189.272 195.68C189.057 195.751 188.94 195.975 189.012 196.189C189.066 196.359 189.227 196.467 189.397 196.467C189.442 196.467 189.478 196.467 189.522 196.449C189.648 196.404 192.727 195.403 194.535 194.33C194.732 194.214 194.795 193.963 194.678 193.776C194.562 193.579 194.311 193.516 194.123 193.633L194.114 193.641Z" fill="#8A605B"/>
<path d="M216.098 174.966C213.816 177.424 210.754 179.329 210.728 179.356C210.54 179.472 210.477 179.722 210.593 179.919C210.674 180.044 210.799 180.106 210.942 180.106C211.014 180.106 211.086 180.089 211.157 180.044C211.283 179.963 214.335 178.059 216.698 175.52C216.85 175.359 216.841 175.1 216.68 174.948C216.519 174.796 216.259 174.805 216.107 174.966H216.098Z" fill="#8A605B"/>
<path d="M223.546 160.724C223.34 160.643 223.098 160.742 223.017 160.956C222.221 163.012 220.627 164.747 220.619 164.756C220.466 164.917 220.475 165.176 220.636 165.328C220.717 165.399 220.815 165.435 220.914 165.435C221.021 165.435 221.129 165.391 221.209 165.301C221.281 165.23 222.919 163.442 223.778 161.242C223.859 161.037 223.751 160.795 223.546 160.715V160.724Z" fill="#8A605B"/>
<path d="M231.969 165.346C231.763 165.257 231.521 165.346 231.432 165.56C230.617 167.474 228.308 169.53 228.281 169.548C228.111 169.7 228.093 169.95 228.245 170.12C228.326 170.209 228.433 170.254 228.549 170.254C228.648 170.254 228.737 170.218 228.818 170.156C228.916 170.066 231.288 167.965 232.175 165.882C232.264 165.677 232.175 165.435 231.96 165.346H231.969Z" fill="#8A605B"/>
<path d="M237.304 145.078C237.08 145.034 236.865 145.168 236.82 145.391C236.122 148.529 234.251 151.363 234.224 151.39C234.099 151.578 234.153 151.828 234.341 151.953C234.412 151.998 234.493 152.025 234.564 152.025C234.699 152.025 234.824 151.962 234.905 151.846C234.985 151.73 236.883 148.86 237.617 145.57C237.662 145.355 237.527 145.132 237.304 145.087V145.078Z" fill="#8A605B"/>
<path d="M231.566 139.079C231.566 139.079 231.637 139.097 231.682 139.097C231.861 139.097 232.023 138.981 232.076 138.802C232.112 138.677 232.953 135.709 232.542 132.392C232.515 132.169 232.3 132.008 232.085 132.044C231.861 132.07 231.7 132.276 231.736 132.5C232.13 135.646 231.306 138.561 231.297 138.588C231.235 138.802 231.36 139.026 231.575 139.088L231.566 139.079Z" fill="#8A605B"/>
<path d="M244.885 128.056C244.885 128.056 244.912 128.056 244.93 128.056C245.136 128.056 245.315 127.904 245.333 127.69C245.691 124.078 245.342 121.217 245.333 121.101C245.306 120.877 245.091 120.716 244.876 120.752C244.652 120.779 244.491 120.985 244.527 121.208C244.527 121.235 244.876 124.096 244.527 127.618C244.509 127.842 244.67 128.038 244.894 128.065L244.885 128.056Z" fill="#8A605B"/>
<path d="M236.418 107.324C236.418 107.324 237.465 111.526 237.563 115.022C237.563 115.245 237.751 115.415 237.966 115.415H237.975C238.199 115.415 238.378 115.218 238.369 114.995C238.261 111.41 237.241 107.297 237.196 107.118C237.143 106.904 236.919 106.77 236.704 106.823C236.489 106.877 236.355 107.1 236.409 107.315L236.418 107.324Z" fill="#8A605B"/>
<path d="M228.558 95.7732C228.558 95.7732 228.621 95.7732 228.657 95.7643C228.872 95.7106 229.006 95.4871 228.952 95.2725C228.621 93.9673 226.159 90.1945 226.061 90.0336C225.936 89.8459 225.685 89.7922 225.497 89.9174C225.309 90.0425 225.255 90.2929 225.381 90.4806C226.07 91.5356 227.923 94.5037 228.164 95.4781C228.209 95.6659 228.379 95.7822 228.558 95.7822V95.7732Z" fill="#8A605B"/>
<path d="M236.042 85.8498C236.086 86.0376 236.247 86.1717 236.435 86.1717C236.462 86.1717 236.489 86.1717 236.525 86.1627C236.74 86.118 236.883 85.8945 236.838 85.6799C236.525 84.2584 234.413 80.1013 234.323 79.9225C234.225 79.7258 233.974 79.6453 233.777 79.7436C233.58 79.842 233.499 80.0923 233.598 80.289C233.616 80.3337 235.746 84.5267 236.042 85.8498Z" fill="#8A605B"/>
<path d="M228.201 67.7813C228.272 67.9155 228.415 67.9959 228.558 67.9959C228.621 67.9959 228.693 67.9781 228.755 67.9423C228.952 67.835 229.024 67.5847 228.917 67.388C228.03 65.7788 226.885 59.628 226.876 59.5654C226.831 59.3419 226.625 59.2078 226.401 59.2435C226.178 59.2882 226.034 59.4938 226.079 59.7173C226.124 59.9765 227.261 66.0648 228.209 67.7813H228.201Z" fill="#8A605B"/>
<path d="M218.399 75.7028C218.399 75.7028 218.462 75.7028 218.497 75.6939C218.712 75.6402 218.846 75.4168 218.793 75.2022C218.193 72.7973 216.985 68.2109 216.985 68.2109L216.197 68.4167C216.197 68.4167 217.405 72.985 218.005 75.3899C218.05 75.5777 218.22 75.6939 218.399 75.6939V75.7028Z" fill="#8A605B"/>
<path d="M206.941 70.3651C206.941 70.3651 207.022 70.3651 207.058 70.3472C207.272 70.2846 207.398 70.0522 207.326 69.8376C207.326 69.8108 206.431 66.8605 206.476 64.4019C206.476 64.1784 206.297 63.9907 206.073 63.9907C205.84 63.9907 205.661 64.1696 205.661 64.3931C205.626 66.9768 206.512 69.9539 206.548 70.079C206.601 70.2578 206.762 70.3651 206.932 70.3651H206.941Z" fill="#8A605B"/>
<path d="M225.712 42.9545C225.712 42.9545 225.775 42.9545 225.811 42.9456C226.025 42.8919 226.159 42.6685 226.106 42.4539C225.721 40.9341 225.309 36.6607 225.309 36.616C225.291 36.3925 225.094 36.2405 224.862 36.2494C224.638 36.2673 224.477 36.4729 224.495 36.6964C224.512 36.8752 224.915 41.0771 225.318 42.6596C225.363 42.8473 225.533 42.9635 225.712 42.9635V42.9545Z" fill="#8A605B"/>
<path d="M217.486 30.7957C217.486 30.7957 217.504 30.7957 217.522 30.7957C217.745 30.7778 217.915 30.5812 217.897 30.3577C217.718 28.1226 217.897 22.991 217.897 22.9374C217.897 22.7139 217.727 22.526 217.504 22.5171C217.28 22.535 217.092 22.687 217.083 22.9105C217.083 23.1251 216.904 28.1405 217.083 30.4203C217.101 30.6349 217.28 30.7957 217.486 30.7957Z" fill="#8A605B"/>
<path d="M213.216 52.3596C213.216 52.3596 213.27 52.3596 213.288 52.3596C213.512 52.3148 213.655 52.1092 213.61 51.8857C213.019 48.7119 212.652 44.6084 212.652 44.5637C212.634 44.3402 212.437 44.1793 212.213 44.1972C211.99 44.215 211.829 44.4117 211.847 44.6352C211.847 44.6799 212.214 48.8192 212.822 52.0288C212.858 52.2255 213.028 52.3596 213.225 52.3596H213.216Z" fill="#8A605B"/>
<path d="M208.15 20.6847C208.266 20.6847 208.383 20.631 208.463 20.5416C209.698 19.0576 211.122 15.2847 211.184 15.1238C211.265 14.9093 211.158 14.6768 210.943 14.6053C210.737 14.5249 210.495 14.6322 210.423 14.8467C210.406 14.8825 208.991 18.6553 207.837 20.0231C207.693 20.193 207.72 20.4522 207.89 20.5952C207.971 20.6578 208.06 20.6936 208.15 20.6936V20.6847Z" fill="#8A605B"/>
<path d="M198.832 52.5831C198.832 52.5831 197.981 56.9459 197.623 58.9664C197.588 59.1899 197.731 59.3956 197.954 59.4403C197.981 59.4403 197.999 59.4403 198.026 59.4403C198.223 59.4403 198.393 59.2972 198.429 59.1005C198.787 57.08 199.619 52.7709 199.628 52.7262C199.673 52.5027 199.53 52.2881 199.306 52.2523C199.091 52.2076 198.876 52.3506 198.832 52.5741V52.5831Z" fill="#8A605B"/>
<path d="M198.357 38.2787C198.438 38.3502 198.536 38.386 198.635 38.386C198.742 38.386 198.85 38.3412 198.93 38.2518C200.416 36.6426 201.499 33.308 201.544 33.1649C201.615 32.9504 201.499 32.718 201.284 32.6554C201.069 32.5839 200.836 32.7 200.774 32.9146C200.765 32.9503 199.7 36.2135 198.33 37.6976C198.178 37.8585 198.187 38.1178 198.357 38.2697V38.2787Z" fill="#8A605B"/>
<path d="M195.377 19.4419C195.511 19.4419 195.636 19.3793 195.717 19.263C196.755 17.7164 199.476 15.3115 199.503 15.2936C199.673 15.1417 199.691 14.8913 199.539 14.7215C199.387 14.5516 199.136 14.5337 198.966 14.6857C198.85 14.784 196.146 17.18 195.045 18.816C194.92 19.0038 194.965 19.2541 195.153 19.3793C195.224 19.424 195.305 19.4509 195.377 19.4509V19.4419Z" fill="#8A605B"/>
<path d="M188.386 35.919C188.511 35.919 188.627 35.8654 188.708 35.7581C189.316 34.9624 191.877 30.7873 191.984 30.6085C192.1 30.4208 192.038 30.1705 191.85 30.0542C191.662 29.938 191.411 30.0006 191.295 30.1884C191.268 30.2331 188.645 34.5154 188.063 35.2663C187.929 35.4451 187.956 35.6955 188.135 35.8385C188.207 35.8922 188.296 35.919 188.386 35.919Z" fill="#8A605B"/>
<path d="M175.066 34.1752C175.138 34.1752 175.219 34.1574 175.281 34.1127C176.499 33.3527 178.853 30.0538 178.951 29.9107C179.086 29.723 179.041 29.4726 178.853 29.3475C178.674 29.2223 178.414 29.2581 178.289 29.4458C177.635 30.3666 175.738 32.87 174.852 33.4332C174.664 33.5494 174.601 33.7998 174.726 33.9964C174.807 34.1216 174.932 34.1841 175.075 34.1841L175.066 34.1752Z" fill="#8A605B"/>
<path d="M180.437 52.3507C180.437 52.3507 180.518 52.3686 180.554 52.3686C180.733 52.3686 180.894 52.2525 180.947 52.0737C181.108 51.5283 182.469 49.6062 183.293 48.5244C183.427 48.3456 183.391 48.0863 183.212 47.9522C183.033 47.8181 182.782 47.8539 182.639 48.0327C182.415 48.3277 180.419 50.974 180.16 51.8412C180.097 52.0558 180.222 52.2792 180.437 52.3418V52.3507Z" fill="#8A605B"/>
<path d="M49.1863 44.564C49.1594 44.7875 49.3115 44.9931 49.5353 45.02C49.5532 45.02 49.5712 45.02 49.5891 45.02C49.786 45.02 49.965 44.868 49.9918 44.6623C50.2603 42.5703 50.0008 38.1539 49.9918 37.9661C49.9739 37.7426 49.777 37.5548 49.5622 37.5817C49.3384 37.5995 49.1684 37.7874 49.1773 38.0109C49.1773 38.0556 49.4459 42.5435 49.1773 44.555L49.1863 44.564Z" fill="#8A605B"/>
<path d="M54.3065 65.2785C54.3602 65.3053 54.4139 65.3142 54.4766 65.3142C54.6287 65.3142 54.781 65.2248 54.8437 65.0728C55.4166 63.8033 55.3358 60.4597 55.3358 60.3167C55.3358 60.0932 55.1479 59.9233 54.9331 59.9233H54.9241C54.7003 59.9233 54.5214 60.12 54.5303 60.3435C54.5572 61.2554 54.5304 63.8301 54.1186 64.742C54.0291 64.9476 54.1186 65.1891 54.3245 65.2785H54.3065Z" fill="#8A605B"/>
<path d="M60.859 45.1271C60.6441 45.1897 60.5277 45.4221 60.5904 45.6367C60.7157 46.03 61.7988 49.5078 62.3627 50.3482C62.4433 50.4644 62.5685 50.527 62.7027 50.527C62.7833 50.527 62.8549 50.5091 62.9265 50.4554C63.1145 50.3303 63.1683 50.08 63.043 49.8922C62.6223 49.2664 61.7002 46.4324 61.378 45.3954C61.3153 45.1808 61.0828 45.0556 60.8679 45.1271H60.859Z" fill="#8A605B"/>
<path d="M61.6732 23.7689C61.7269 23.7957 61.7895 23.8046 61.8522 23.8046C62.0133 23.8046 62.1656 23.7242 62.2372 23.5811C62.3268 23.3755 62.2639 23.1519 62.058 23.0625C61.8074 22.8301 60.9302 20.9974 60.2678 19.4239C60.1783 19.2183 59.9368 19.12 59.7309 19.2094C59.525 19.2988 59.4265 19.5312 59.5161 19.7458C61.1183 23.5364 61.53 23.7242 61.6732 23.7778V23.7689Z" fill="#8A605B"/>
<path d="M69.1656 35.9272C69.2462 36.0256 69.3624 36.0793 69.4878 36.0793C69.5773 36.0793 69.6668 36.0525 69.7384 35.9899C69.9174 35.8468 69.9444 35.5965 69.8011 35.4177C69.1029 34.5505 67.0531 30.9029 67.0352 30.8672C66.9277 30.6705 66.6772 30.5989 66.4803 30.7151C66.2834 30.8224 66.2116 31.0727 66.328 31.2694C66.4175 31.4214 68.4316 35.0064 69.1656 35.9272Z" fill="#8A605B"/>
<path d="M78.1343 52.3242C78.197 52.3599 78.2688 52.3777 78.3404 52.3777C78.4836 52.3777 78.6178 52.3062 78.6894 52.1721C78.8058 51.9754 78.7342 51.7251 78.5373 51.6178C77.6243 51.0904 75.2342 48.4977 74.3928 47.55C74.2406 47.3801 73.9901 47.3623 73.82 47.5143C73.6499 47.6663 73.632 47.9165 73.7842 48.0864C73.9095 48.2294 76.917 51.6179 78.1343 52.3242Z" fill="#8A605B"/>
<path d="M86.1994 35.8561C86.2711 35.9992 86.4144 36.0796 86.5666 36.0796C86.6292 36.0796 86.6919 36.0617 86.7456 36.0349C86.9425 35.9365 87.032 35.6862 86.9245 35.4895C86.7366 35.1141 84.6958 32.6376 84.0692 31.8956C83.926 31.7257 83.6665 31.6989 83.4964 31.842C83.3263 31.985 83.2994 32.2443 83.4426 32.4142C84.4989 33.6926 86.0562 35.6058 86.1905 35.8561H86.1994Z" fill="#8A605B"/>
<path d="M99.8947 48.0685C99.9752 48.1668 100.092 48.2204 100.217 48.2204C100.307 48.2204 100.396 48.1936 100.468 48.131C100.647 47.988 100.673 47.7376 100.53 47.5588C99.2144 45.896 96.8961 43.5179 96.7976 43.4195C96.6455 43.2586 96.386 43.2586 96.2248 43.4195C96.0637 43.5715 96.0637 43.8308 96.2248 43.9917C96.2517 44.0185 98.6147 46.4324 99.9036 48.0685H99.8947Z" fill="#8A605B"/>
<path d="M108.917 38.0734C108.962 38.2611 109.132 38.3952 109.311 38.3952C109.338 38.3952 109.374 38.3952 109.401 38.3863C109.616 38.3416 109.759 38.1181 109.714 37.9036C109.463 36.7771 107.584 33.3262 107.503 33.1742C107.396 32.9775 107.145 32.9059 106.948 33.0132C106.751 33.1205 106.68 33.3708 106.787 33.5675C107.315 34.533 108.729 37.2419 108.917 38.0823V38.0734Z" fill="#8A605B"/>
<path d="M119.766 47.8893C119.802 48.086 119.972 48.2201 120.169 48.2201C120.196 48.2201 120.222 48.2201 120.249 48.2201C120.473 48.1754 120.616 47.9609 120.572 47.7463C120.321 46.4679 119.148 43.6785 119.104 43.5533C119.014 43.3477 118.781 43.2494 118.567 43.3388C118.361 43.4282 118.262 43.6606 118.352 43.8752C118.361 43.902 119.542 46.7092 119.775 47.8982L119.766 47.8893Z" fill="#8A605B"/>
<path d="M123.973 35.6775C123.973 35.901 124.152 36.0798 124.376 36.0798C124.6 36.0798 124.779 35.892 124.779 35.6685C124.779 34.7656 124.009 32.298 123.92 32.0209C123.848 31.8063 123.624 31.6902 123.409 31.7527C123.194 31.8243 123.078 32.0477 123.141 32.2623C123.364 32.9864 123.955 35.0159 123.964 35.6685L123.973 35.6775Z" fill="#8A605B"/>
<path d="M137.489 46.7896C137.543 46.8075 137.588 46.8165 137.642 46.8165C137.803 46.8165 137.955 46.7181 138.018 46.5572C138.322 45.8062 139.127 43.8036 139.271 43.5175C139.369 43.3208 139.289 43.0705 139.092 42.9721C138.886 42.8738 138.644 42.9543 138.546 43.151C138.367 43.5176 137.382 45.9761 137.266 46.2532C137.185 46.4588 137.284 46.7002 137.489 46.7807V46.7896Z" fill="#8A605B"/>
<path d="M140.658 35.2389C140.703 35.2568 140.757 35.2657 140.801 35.2657C140.962 35.2657 141.124 35.1675 141.186 35.0065C141.41 34.4165 142.046 32.7893 142.323 32.3781C142.448 32.1903 142.395 31.94 142.207 31.8148C142.019 31.6897 141.768 31.7433 141.643 31.9311C141.267 32.4943 140.515 34.4969 140.425 34.7204C140.345 34.935 140.452 35.1674 140.667 35.2389H140.658Z" fill="#8A605B"/>
<path d="M156.815 36.5715C156.869 36.5983 156.931 36.6072 156.985 36.6072C157.137 36.6072 157.28 36.5178 157.352 36.3748C157.37 36.3479 158.793 33.3262 159.482 32.3785C159.617 32.1997 159.572 31.9404 159.393 31.8153C159.214 31.6812 158.954 31.7259 158.829 31.9047C158.095 32.9149 156.681 35.9099 156.618 36.035C156.52 36.2407 156.618 36.4821 156.815 36.5715Z" fill="#8A605B"/>
<path d="M161.514 48.6318C161.577 48.6676 161.648 48.6944 161.729 48.6944C161.863 48.6944 161.997 48.6229 162.078 48.4977C162.087 48.4798 163.224 46.6202 164.728 44.6713C164.862 44.4925 164.835 44.2421 164.656 44.0991C164.477 43.965 164.226 43.9919 164.083 44.1707C162.552 46.1554 161.398 48.0507 161.389 48.0686C161.272 48.2563 161.335 48.5067 161.523 48.6229L161.514 48.6318Z" fill="#8A605B"/>
<path d="M15.0466 288.47C15.0376 288.247 14.8765 288.041 14.6259 288.086C14.4021 288.095 14.2321 288.282 14.2411 288.506C14.259 288.935 14.447 292.699 15.0199 293.664C15.1005 293.79 15.2346 293.861 15.3689 293.861C15.4405 293.861 15.5121 293.843 15.5748 293.807C15.7627 293.691 15.8253 293.441 15.7179 293.253C15.3599 292.663 15.1182 290.008 15.0555 288.479L15.0466 288.47Z" fill="#8A605B"/>
<path d="M17.6516 302.086C17.58 301.871 17.3472 301.764 17.1324 301.836C16.9175 301.907 16.8101 302.139 16.8817 302.354C16.9981 302.685 18.0364 305.644 19.0837 306.511C19.1553 306.574 19.2538 306.601 19.3433 306.601C19.4596 306.601 19.5761 306.547 19.6567 306.449C19.7999 306.279 19.773 306.02 19.6029 305.877C18.8599 305.269 17.947 302.935 17.6516 302.086Z" fill="#8A605B"/>
<path d="M25.2689 293.414C25.2421 293.638 25.412 293.834 25.6358 293.861C25.6537 293.861 25.6627 293.861 25.6806 293.861C25.8865 293.861 26.0655 293.709 26.0834 293.494C26.1729 292.574 26.0834 288.989 26.0834 288.837C26.0834 288.613 25.8955 288.443 25.6806 288.443H25.6717C25.4479 288.443 25.2689 288.631 25.2779 288.864C25.2779 288.899 25.3674 292.547 25.2779 293.414H25.2689Z" fill="#8A605B"/>
<path d="M29.4492 304.902C29.5297 304.902 29.6013 304.884 29.673 304.839C30.3801 304.374 31.49 302.631 31.6153 302.434C31.7316 302.247 31.678 301.996 31.4901 301.871C31.3021 301.755 31.0513 301.809 30.926 301.996C30.4874 302.685 29.6461 303.883 29.2254 304.16C29.0374 304.285 28.9838 304.535 29.1091 304.723C29.1897 304.839 29.3149 304.911 29.4492 304.902Z" fill="#8A605B"/>
<path d="M36.2519 295.756C36.3683 295.756 36.4756 295.711 36.5561 295.622C37.317 294.764 37.9347 292.493 37.9974 292.243C38.0511 292.028 37.9257 291.804 37.7109 291.751C37.496 291.688 37.2722 291.822 37.2185 292.037C37.0484 292.681 36.4935 294.478 35.9475 295.085C35.7953 295.255 35.8133 295.506 35.9834 295.658C36.0639 295.729 36.1535 295.756 36.2519 295.756Z" fill="#8A605B"/>
<path d="M37.6303 305.331C37.7109 305.447 37.8363 305.501 37.9616 305.501C38.0422 305.501 38.1227 305.474 38.1943 305.43C39.1342 304.777 40.8976 302.184 41.1035 301.889C41.2288 301.701 41.1839 301.451 40.9959 301.326C40.808 301.201 40.5574 301.245 40.4321 301.433C39.913 302.193 38.4271 304.276 37.7378 304.759C37.5498 304.884 37.505 305.143 37.6393 305.322L37.6303 305.331Z" fill="#8A605B"/>
<path d="M241.108 218.924C239.085 219.747 237.196 221.266 237.116 221.329C236.937 221.472 236.91 221.722 237.053 221.901C237.134 221.999 237.25 222.053 237.366 222.053C237.456 222.053 237.545 222.026 237.626 221.964C237.644 221.946 239.497 220.462 241.412 219.675C241.618 219.586 241.717 219.353 241.636 219.148C241.547 218.942 241.314 218.844 241.108 218.924Z" fill="#8A605B"/>
<path d="M248.161 225.174C247.973 225.057 247.723 225.12 247.606 225.317C246.478 227.23 244.679 228.91 244.661 228.928C244.5 229.08 244.491 229.34 244.643 229.501C244.724 229.59 244.831 229.626 244.939 229.626C245.037 229.626 245.136 229.59 245.216 229.518C245.297 229.447 247.114 227.739 248.305 225.728C248.421 225.531 248.358 225.29 248.161 225.174Z" fill="#8A605B"/>
<path d="M254.687 214.302C254.669 214.079 254.472 213.918 254.248 213.927C252.95 214.016 249.773 214.991 249.638 215.026C249.423 215.089 249.307 215.321 249.37 215.536C249.423 215.715 249.585 215.822 249.755 215.822C249.791 215.822 249.835 215.822 249.871 215.804C249.907 215.795 253.093 214.821 254.302 214.74C254.526 214.722 254.696 214.526 254.678 214.302H254.687Z" fill="#8A605B"/>
<path d="M256.45 223.949C256.566 223.949 256.674 223.904 256.754 223.806C257.426 223.037 258.034 220.829 258.106 220.579C258.169 220.364 258.034 220.14 257.82 220.078C257.605 220.024 257.381 220.149 257.318 220.364C257.148 220.99 256.611 222.733 256.137 223.27C255.985 223.439 256.002 223.699 256.173 223.842C256.253 223.913 256.343 223.94 256.441 223.94L256.45 223.949Z" fill="#8A605B"/>
<path d="M255.412 231.1C255.197 231.038 254.973 231.154 254.902 231.369C254.902 231.386 254.176 233.63 252.735 234.989C252.574 235.141 252.565 235.401 252.717 235.562C252.798 235.642 252.905 235.687 253.013 235.687C253.111 235.687 253.21 235.651 253.29 235.579C254.884 234.077 255.644 231.717 255.68 231.61C255.752 231.395 255.627 231.172 255.412 231.1Z" fill="#8A605B"/>
<path d="M264.318 226.568C264.094 226.568 263.915 226.747 263.915 226.971C263.915 226.998 263.906 229.59 262.975 231.289C262.868 231.485 262.94 231.736 263.137 231.843C263.199 231.879 263.262 231.897 263.334 231.897C263.477 231.897 263.62 231.816 263.692 231.682C264.721 229.805 264.739 227.087 264.739 226.971C264.739 226.747 264.56 226.568 264.336 226.568H264.318Z" fill="#8A605B"/>
<path d="M260.532 238.173C260.335 238.066 260.084 238.137 259.977 238.334C259.959 238.37 258.026 241.856 256.244 242.875C256.047 242.992 255.985 243.233 256.092 243.43C256.164 243.564 256.307 243.635 256.45 243.635C256.522 243.635 256.584 243.617 256.656 243.582C258.634 242.455 260.613 238.879 260.693 238.727C260.8 238.53 260.729 238.28 260.532 238.173Z" fill="#8A605B"/>
<path d="M49.8129 337.856C49.8129 337.856 49.8667 337.856 49.8935 337.856C49.9114 337.856 52.1939 337.373 54.6912 337.015C54.915 336.979 55.0673 336.774 55.0404 336.559C55.0046 336.336 54.7987 336.184 54.5839 336.211C52.0686 336.568 49.7591 337.051 49.7323 337.06C49.5174 337.105 49.3743 337.319 49.4191 337.543C49.4639 337.73 49.6249 337.864 49.8129 337.864V337.856Z" fill="#8A605B"/>
<path d="M44.666 344.409C44.6213 344.186 44.3975 344.043 44.1916 344.087C41.7569 344.57 39.3042 345.759 39.1968 345.804C38.9909 345.902 38.9104 346.144 39.0089 346.349C39.0805 346.492 39.2238 346.582 39.376 346.582C39.4387 346.582 39.4923 346.573 39.555 346.537C39.5818 346.528 42.0254 345.348 44.3527 344.883C44.5764 344.838 44.7198 344.624 44.675 344.409H44.666Z" fill="#8A605B"/>
<path d="M52.6684 347.296C52.6864 347.502 52.8653 347.663 53.0712 347.663C53.0891 347.663 53.0981 347.663 53.116 347.663L57.5737 347.18C57.7974 347.153 57.9587 346.957 57.9318 346.733C57.905 346.51 57.6991 346.358 57.4843 346.375L53.0266 346.858C52.8028 346.885 52.6416 347.082 52.6684 347.305V347.296Z" fill="#8A605B"/>
<path d="M56.5173 356.406C56.5173 356.63 56.6963 356.809 56.9201 356.809H61.3777C61.6015 356.809 61.7807 356.63 61.7807 356.397C61.7807 356.165 61.6015 355.995 61.3777 355.995H56.9201C56.6963 355.995 56.5173 356.174 56.5173 356.406Z" fill="#8A605B"/>
<path d="M46.2415 354.681C46.2415 354.681 43.3951 355.253 41.6228 354.69C41.408 354.628 41.1752 354.744 41.1125 354.958C41.0409 355.173 41.1663 355.396 41.3811 355.468C42.0614 355.683 42.858 355.754 43.6099 355.754C45.0421 355.754 46.331 355.495 46.4115 355.477C46.6353 355.432 46.7696 355.218 46.7249 354.994C46.6801 354.78 46.4653 354.628 46.2415 354.681Z" fill="#8A605B"/>
<path d="M49.0342 361.413C49.9115 361.618 50.7795 361.69 51.5493 361.69C53.0173 361.69 54.1185 361.431 54.1811 361.422C54.396 361.368 54.5301 361.153 54.4853 360.93C54.4406 360.706 54.2168 360.581 53.993 360.626C53.9661 360.626 51.5942 361.18 49.2222 360.626C48.9984 360.572 48.7835 360.706 48.7298 360.93C48.6761 361.153 48.8105 361.368 49.0342 361.422V361.413Z" fill="#8A605B"/>
<path d="M74.0438 335.146C74.0975 335.146 74.1511 335.137 74.2048 335.111C74.4107 335.021 74.5092 334.78 74.4197 334.574C73.7215 332.956 73.0053 328.102 73.0053 328.057C72.9695 327.833 72.7547 327.681 72.5398 327.717C72.3161 327.753 72.164 327.959 72.1998 328.182C72.2267 328.388 72.9427 333.189 73.6767 334.905C73.7393 335.057 73.8916 335.155 74.0528 335.155L74.0438 335.146Z" fill="#8A605B"/>
<path d="M77.5885 349.263C77.3647 349.299 77.2214 349.514 77.2572 349.737C77.2572 349.782 77.9733 353.912 77.9733 355.074C77.9733 355.298 78.1523 355.477 78.3761 355.477C78.5999 355.477 78.779 355.298 78.779 355.074C78.779 353.841 78.0808 349.773 78.054 349.594C78.0181 349.371 77.8122 349.228 77.5795 349.263H77.5885Z" fill="#8A605B"/>
<path d="M79.307 369.682C79.0833 369.709 78.9222 369.906 78.9491 370.129C78.9491 370.165 79.2982 373.392 78.9491 375.359C78.9133 375.583 79.0564 375.788 79.2802 375.833C79.307 375.833 79.325 375.833 79.3518 375.833C79.5488 375.833 79.7188 375.69 79.7546 375.493C80.1216 373.41 79.7725 370.174 79.7546 370.031C79.7277 369.807 79.5219 369.647 79.307 369.673V369.682Z" fill="#8A605B"/>
<path d="M75.2165 392.731C75.0017 392.686 74.7778 392.82 74.7331 393.044C74.7331 393.079 74.0081 396.423 73.65 397.845C73.5963 398.059 73.7304 398.283 73.9453 398.336C73.9811 398.336 74.008 398.345 74.0438 398.345C74.2229 398.345 74.3929 398.22 74.4376 398.041C74.7957 396.611 75.5207 393.249 75.5207 393.214C75.5654 392.999 75.4313 392.775 75.2075 392.731H75.2165Z" fill="#8A605B"/>
<path d="M86.1366 334.691C86.1098 334.468 85.9039 334.307 85.6801 334.342C85.4564 334.369 85.2951 334.575 85.3309 334.798C85.4025 335.379 86.074 340.547 86.5663 341.656C86.6379 341.807 86.781 341.897 86.9422 341.897C86.9959 341.897 87.0495 341.888 87.1032 341.861C87.3091 341.772 87.3986 341.53 87.3091 341.325C86.9331 340.484 86.3336 336.256 86.1366 334.7V334.691Z" fill="#8A605B"/>
<path d="M88.9024 360.885C88.6876 360.93 88.5445 361.145 88.5893 361.368C88.5982 361.413 89.5381 365.829 89.3054 367.43C89.2696 367.653 89.4306 367.859 89.6544 367.886C89.6723 367.886 89.6903 367.886 89.7171 367.886C89.914 367.886 90.093 367.743 90.1199 367.537C90.3705 365.803 89.4306 361.377 89.3948 361.19C89.35 360.966 89.1262 360.841 88.9114 360.877L88.9024 360.885Z" fill="#8A605B"/>
<path d="M88.115 392.114C87.8912 392.132 87.7212 392.328 87.7391 392.552C87.8734 394.242 88.0074 397.156 87.7657 397.791C87.6852 398.005 87.7926 398.238 88.0074 398.309C88.0522 398.327 88.106 398.336 88.1508 398.336C88.3119 398.336 88.473 398.238 88.5356 398.077C88.9205 397.058 88.5983 392.945 88.5625 392.48C88.5446 392.257 88.3477 392.096 88.1239 392.105L88.115 392.114Z" fill="#8A605B"/>
<path d="M91.6776 319.359C91.6597 319.135 91.4628 318.956 91.239 318.983C91.0152 319.001 90.8452 319.198 90.8631 319.421C90.8989 319.922 91.248 324.383 91.7403 325.501C91.8119 325.653 91.9551 325.742 92.1162 325.742C92.1699 325.742 92.2235 325.733 92.2772 325.706C92.4831 325.617 92.5726 325.375 92.4831 325.17C92.1072 324.329 91.7671 320.691 91.6686 319.359H91.6776Z" fill="#8A605B"/>
<path d="M99.4919 337.713L99.9125 343.676C99.9304 343.89 100.109 344.051 100.315 344.051C100.324 344.051 100.333 344.051 100.342 344.051C100.566 344.033 100.736 343.837 100.718 343.613L100.297 337.65L99.4829 337.704L99.4919 337.713Z" fill="#8A605B"/>
<path d="M103.43 366.249C103.412 366.473 103.583 366.67 103.806 366.688C103.815 366.688 103.824 366.688 103.833 366.688C104.048 366.688 104.227 366.527 104.236 366.312C104.361 364.596 103.753 361.1 103.726 360.948C103.69 360.724 103.475 360.572 103.251 360.617C103.028 360.653 102.884 360.868 102.92 361.091C102.92 361.127 103.529 364.64 103.421 366.258L103.43 366.249Z" fill="#8A605B"/>
<path d="M104.227 380.098C104.218 379.875 104.03 379.669 103.806 379.714C103.583 379.723 103.412 379.91 103.421 380.134C103.421 380.25 103.564 383.075 103.914 384.774C103.949 384.962 104.12 385.096 104.308 385.096C104.334 385.096 104.361 385.096 104.388 385.096C104.603 385.051 104.746 384.836 104.701 384.613C104.361 382.977 104.227 380.134 104.218 380.098H104.227Z" fill="#8A605B"/>
<path d="M107.995 393.562C107.772 393.58 107.611 393.786 107.629 394.009C107.629 394.045 107.978 397.603 107.629 400.053C107.593 400.276 107.754 400.482 107.978 400.509C107.995 400.509 108.013 400.509 108.04 400.509C108.237 400.509 108.416 400.366 108.443 400.16C108.81 397.612 108.461 394.072 108.443 393.92C108.425 393.696 108.219 393.535 107.995 393.553V393.562Z" fill="#8A605B"/>
<path d="M105.892 324.848C105.829 324.633 105.614 324.508 105.391 324.562C105.176 324.624 105.041 324.848 105.104 325.062C105.346 325.965 106.196 328.942 106.975 329.524C107.047 329.577 107.136 329.604 107.217 329.604C107.342 329.604 107.458 329.55 107.539 329.443C107.673 329.264 107.637 329.005 107.458 328.871C107.082 328.585 106.348 326.564 105.892 324.848Z" fill="#8A605B"/>
<path d="M122.076 336.201C120.456 335.683 118.039 333.6 118.012 333.582C117.842 333.439 117.582 333.457 117.439 333.627C117.296 333.797 117.314 334.056 117.484 334.199C117.591 334.288 120.053 336.407 121.834 336.979C121.879 336.988 121.915 336.997 121.959 336.997C122.129 336.997 122.291 336.89 122.344 336.711C122.416 336.497 122.291 336.273 122.085 336.201H122.076Z" fill="#8A605B"/>
<path d="M126.005 324.928C124.349 324.588 122.12 323.685 122.102 323.676C121.897 323.587 121.655 323.694 121.574 323.9C121.485 324.105 121.592 324.347 121.798 324.427C121.888 324.463 124.116 325.375 125.853 325.724C125.88 325.724 125.907 325.724 125.934 325.724C126.122 325.724 126.292 325.59 126.327 325.402C126.372 325.178 126.229 324.964 126.005 324.919V324.928Z" fill="#8A605B"/>
<path d="M138.071 335.585C136.532 336.184 132.521 336.166 132.521 336.184C132.298 336.184 132.119 336.363 132.119 336.586C132.119 336.81 132.298 336.997 132.521 336.997H132.539C132.853 336.997 136.72 336.98 138.367 336.345C138.572 336.264 138.68 336.032 138.599 335.817C138.519 335.612 138.277 335.504 138.071 335.585Z" fill="#8A605B"/>
<path d="M146.709 325.125C146.602 324.928 146.351 324.857 146.154 324.973C144.588 325.858 140.766 326.913 140.73 326.922C140.515 326.984 140.39 327.208 140.443 327.423C140.497 327.601 140.658 327.718 140.837 327.718C140.873 327.718 140.909 327.718 140.945 327.7C141.106 327.655 144.901 326.6 146.548 325.67C146.745 325.563 146.817 325.313 146.7 325.116L146.709 325.125Z" fill="#8A605B"/>
<path d="M145.716 358.186C145.716 358.186 145.742 358.186 145.76 358.186C145.966 358.186 146.145 358.034 146.163 357.819C146.288 356.594 145.939 352.5 145.922 352.321C145.904 352.098 145.707 351.937 145.483 351.954C145.259 351.972 145.098 352.169 145.116 352.393C145.116 352.437 145.474 356.586 145.358 357.739C145.34 357.962 145.501 358.159 145.724 358.186H145.716Z" fill="#8A605B"/>
<path d="M146.333 371.766C146.11 371.784 145.939 371.981 145.957 372.204C146.038 373.357 146.199 376.558 145.966 377.497C145.912 377.711 146.047 377.935 146.262 377.988C146.297 377.988 146.324 377.997 146.36 377.997C146.539 377.997 146.709 377.872 146.754 377.693C147.067 376.442 146.772 372.32 146.763 372.151C146.745 371.927 146.53 371.766 146.324 371.775L146.333 371.766Z" fill="#8A605B"/>
<path d="M145.626 392.301C145.608 392.078 145.402 391.917 145.187 391.926C144.964 391.944 144.794 392.14 144.812 392.364C144.821 392.534 145.134 396.44 146.011 398.005C146.083 398.139 146.226 398.211 146.369 398.211C146.441 398.211 146.503 398.193 146.566 398.157C146.763 398.05 146.834 397.799 146.718 397.603C145.93 396.19 145.626 392.328 145.626 392.292V392.301Z" fill="#8A605B"/>
<path d="M161.067 320.396C161.192 320.208 161.147 319.957 160.959 319.832C160.78 319.707 160.521 319.752 160.395 319.94C160.386 319.957 159.205 321.647 157.665 321.96C157.441 322.005 157.298 322.219 157.343 322.434C157.379 322.631 157.549 322.765 157.737 322.765C157.764 322.765 157.791 322.765 157.817 322.765C159.679 322.398 161.004 320.494 161.058 320.413L161.067 320.396Z" fill="#8A605B"/>
<path d="M189.209 314.146C188.994 314.2 188.851 314.414 188.905 314.629C188.905 314.647 189.334 316.569 188.905 318.536C188.86 318.75 188.994 318.974 189.218 319.018C189.245 319.018 189.272 319.027 189.308 319.027C189.496 319.027 189.666 318.893 189.701 318.706C190.167 316.569 189.719 314.539 189.701 314.45C189.657 314.235 189.442 314.092 189.218 314.146H189.209Z" fill="#8A605B"/>
<path d="M183.319 325.911C183.104 325.867 182.881 326.01 182.836 326.233C182.639 327.217 182.03 329.944 181.61 330.712C181.502 330.909 181.574 331.159 181.771 331.267C181.833 331.302 181.896 331.32 181.968 331.32C182.111 331.32 182.254 331.24 182.326 331.106C182.89 330.069 183.606 326.555 183.633 326.403C183.677 326.18 183.534 325.965 183.31 325.92L183.319 325.911Z" fill="#8A605B"/>
<path d="M163.806 330.498C163.582 330.498 163.403 330.686 163.403 330.909C163.403 330.936 163.403 333.922 162.803 335.451C162.723 335.657 162.821 335.898 163.036 335.978C163.081 335.996 163.134 336.005 163.188 336.005C163.349 336.005 163.501 335.907 163.564 335.746C164.226 334.065 164.217 331.026 164.217 330.9C164.217 330.677 164.038 330.498 163.815 330.498H163.806Z" fill="#8A605B"/>
<path d="M156.17 349.013C155.947 348.995 155.75 349.147 155.723 349.371C155.705 349.532 155.266 353.376 155.266 354.476C155.266 354.699 155.445 354.878 155.669 354.878C155.893 354.878 156.072 354.699 156.072 354.476C156.072 353.43 156.519 349.505 156.519 349.469C156.546 349.246 156.385 349.049 156.161 349.022L156.17 349.013Z" fill="#8A605B"/>
<path d="M156.86 367.43C156.627 367.412 156.448 367.6 156.439 367.823C156.439 367.984 156.35 371.828 156.439 372.839C156.457 373.053 156.636 373.205 156.842 373.205C156.851 373.205 156.869 373.205 156.878 373.205C157.102 373.187 157.263 372.991 157.245 372.767C157.155 371.811 157.245 367.886 157.245 367.85C157.245 367.627 157.075 367.439 156.851 367.43H156.86Z" fill="#8A605B"/>
<path d="M160.234 389.261C160.199 389.038 159.993 388.886 159.778 388.913C159.554 388.948 159.402 389.154 159.429 389.369C159.554 390.227 160.181 394.563 160.556 395.251C160.628 395.385 160.771 395.466 160.915 395.466C160.977 395.466 161.049 395.448 161.112 395.412C161.308 395.305 161.38 395.055 161.273 394.858C161.049 394.447 160.53 391.327 160.234 389.244V389.261Z" fill="#8A605B"/>
<path d="M175.863 389.485C175.657 389.566 175.55 389.807 175.639 390.013C176.06 391.059 177.152 394 177.152 395.064C177.152 395.287 177.331 395.466 177.555 395.466C177.778 395.466 177.957 395.287 177.957 395.064C177.957 393.615 176.454 389.869 176.391 389.709C176.31 389.503 176.069 389.405 175.863 389.485Z" fill="#8A605B"/>
<path d="M169.785 375.369C169.561 375.369 169.382 375.547 169.382 375.762C169.382 375.941 169.293 380.134 169.382 381.135C169.4 381.35 169.579 381.502 169.785 381.502C169.794 381.502 169.812 381.502 169.821 381.502C170.045 381.484 170.206 381.287 170.188 381.064C170.098 380.107 170.188 375.825 170.188 375.78C170.188 375.556 170.018 375.369 169.794 375.369H169.785Z" fill="#8A605B"/>
<path d="M175.97 363.612C175.881 362.271 176.409 358.633 176.418 358.597C176.454 358.374 176.293 358.168 176.078 358.132C175.863 358.105 175.648 358.248 175.612 358.472C175.594 358.624 175.066 362.236 175.156 363.657C175.174 363.872 175.353 364.042 175.558 364.042C175.558 364.042 175.576 364.042 175.585 364.042C175.809 364.024 175.979 363.836 175.961 363.612H175.97Z" fill="#8A605B"/>
<path d="M171.441 340.252C171.226 340.243 171.02 340.395 170.994 340.618C170.994 340.654 170.626 344.391 170.197 345.965C170.134 346.179 170.259 346.403 170.483 346.465C170.519 346.474 170.555 346.483 170.591 346.483C170.77 346.483 170.931 346.367 170.985 346.188C171.441 344.543 171.799 340.86 171.808 340.699C171.826 340.475 171.665 340.279 171.441 340.252Z" fill="#8A605B"/>
<path d="M117.591 272.852L114.011 268.096C109.902 273.665 105.606 277.295 105.409 277.456C105.14 277.68 105.033 278.055 105.149 278.395C105.265 278.726 105.579 278.958 105.928 278.958L108.721 278.985L108.336 282.042C108.309 282.275 108.372 282.516 108.524 282.695C108.694 282.901 108.935 282.999 109.177 282.999C109.356 282.999 109.544 282.936 109.696 282.811C109.884 282.65 114.002 279.217 118.28 273.782L118.083 273.513L117.591 272.843V272.852Z" fill="#F4B0A9"/>
<path d="M96.6188 239.389C96.5113 239.389 96.4219 239.478 96.4219 239.585V250.698H91.2033V239.585C91.2033 239.478 91.1138 239.389 91.0064 239.389H84.6779C84.5704 239.389 84.481 239.478 84.481 239.585V270.098C84.481 270.205 84.5705 270.295 84.6868 270.295H91.0153C91.1227 270.295 91.2122 270.205 91.2122 270.098V257.609H96.4308V270.098C96.4308 270.205 96.5203 270.295 96.6277 270.295H102.947C103.055 270.295 103.144 270.205 103.144 270.098V239.585C103.144 239.478 103.055 239.389 102.938 239.389H96.6188Z" fill="#F4B0A9"/>
<path d="M163.878 263.375V258.216H169.839C169.947 258.216 170.036 258.127 170.036 258.02V251.69C170.036 251.583 169.947 251.493 169.839 251.493H163.878V246.263H170.779C170.886 246.263 170.976 246.174 170.976 246.067V239.576C170.976 239.469 170.886 239.379 170.779 239.379H156.744C156.636 239.379 156.547 239.469 156.547 239.576V270.089C156.547 270.196 156.636 270.286 156.744 270.286H170.824C170.931 270.286 171.021 270.196 171.021 270.089V263.571C171.021 263.464 170.931 263.375 170.824 263.375H163.878Z" fill="#F4B0A9"/>
<path d="M142.386 239.379H134.312C134.312 239.379 134.249 239.397 134.222 239.415V270.196C134.222 270.196 134.267 270.286 134.312 270.286H140.837C140.945 270.286 141.034 270.196 141.034 270.089V258.672H141.956C145.08 258.672 147.568 257.805 149.341 256.089C151.113 254.372 152.017 251.976 152.017 248.963C152.017 246.102 151.131 243.769 149.377 242.017C147.622 240.264 145.268 239.379 142.386 239.379ZM143.952 251.583C143.433 252.003 142.69 252.262 141.714 252.378L141.034 252.459V245.62L141.714 245.691C142.726 245.798 143.487 246.049 143.988 246.451C144.606 246.952 144.928 247.828 144.928 249.071C144.928 250.233 144.615 251.064 143.961 251.592L143.952 251.583Z" fill="#F4B0A9"/>
<path d="M123.034 266.745C121.172 264.439 118.692 260.282 118.692 260.282C117.099 257.43 116.097 254.801 115.721 252.468C115.282 249.732 115.873 247.533 117.305 246.576C117.726 246.299 118.164 246.147 118.63 246.147C118.648 246.147 118.665 246.147 118.683 246.147C118.809 246.147 118.925 246.183 119.05 246.21C119.292 246.264 119.534 246.344 119.74 246.478C121.038 247.336 121.539 249.759 121.047 252.799C120.769 254.506 119.99 257.081 119.319 258.878C120.635 261.176 122.676 264.153 123.696 265.521C125.54 261.864 127.187 257.448 127.751 253.916C129.103 245.45 125.182 241.847 123.436 240.694C122.103 239.809 120.59 239.362 119.042 239.29C118.898 239.29 118.764 239.281 118.621 239.281C116.884 239.281 115.13 239.773 113.581 240.801C109.831 243.295 108.121 248.087 109.007 253.612C109.661 257.653 111.603 262.159 114.799 267.005L118.576 272.119L119.14 272.861C123.293 277.947 127.33 281.631 128.136 282.355C128.288 282.498 128.485 282.57 128.682 282.57C128.807 282.57 128.941 282.543 129.058 282.48C129.362 282.328 129.541 281.997 129.514 281.649L129.264 278.672L132.119 278.761C132.119 278.761 132.155 278.761 132.173 278.761C132.397 278.761 132.62 278.645 132.772 278.466C132.916 278.296 133.005 278.055 132.987 277.831C132.969 277.608 132.88 277.384 132.719 277.232C132.665 277.188 127.644 272.709 123.043 266.754L123.034 266.745Z" fill="#F4B0A9"/>
<path d="M134.115 239.576V270.089C134.115 270.152 134.187 270.161 134.231 270.197V239.416C134.169 239.451 134.115 239.505 134.115 239.576Z" fill="#3EBAC2"/>
<path d="M124.528 266.621L124.806 266.075C126.883 261.972 128.44 257.493 128.986 254.095C130.454 244.896 126.077 240.9 124.126 239.612C122.667 238.647 120.93 238.084 119.113 238.003C118.952 238.003 118.791 237.994 118.63 237.994C116.589 237.994 114.611 238.593 112.919 239.72C108.739 242.5 106.832 247.757 107.799 253.791C108.443 257.797 110.287 262.195 113.277 266.898L113.241 266.951L113.268 266.987L113.017 267.327C108.998 272.78 104.791 276.321 104.621 276.473C103.95 277.036 103.699 277.975 103.986 278.806C104.272 279.638 105.051 280.201 105.919 280.21L107.324 280.228L107.118 281.881C107.047 282.463 107.217 283.062 107.593 283.509C107.996 283.991 108.578 284.26 109.195 284.26C109.67 284.26 110.126 284.09 110.493 283.795C110.672 283.652 114.807 280.192 119.122 274.747C123.007 279.342 126.596 282.624 127.33 283.276C127.706 283.616 128.19 283.804 128.7 283.804C129.022 283.804 129.344 283.723 129.63 283.58C130.4 283.187 130.839 282.373 130.767 281.515L130.642 279.959L132.065 280.004H132.083H132.2C132.772 280.004 133.345 279.736 133.73 279.28C134.097 278.851 134.285 278.288 134.249 277.733C134.214 277.161 133.954 276.625 133.551 276.267C133.506 276.231 128.923 272.128 124.555 266.621H124.528ZM109.696 282.82C109.544 282.945 109.365 283.008 109.177 283.008C108.936 283.008 108.694 282.901 108.524 282.704C108.372 282.525 108.3 282.284 108.336 282.051L108.721 278.994L105.928 278.967C105.579 278.967 105.266 278.735 105.149 278.404C105.033 278.064 105.131 277.698 105.409 277.465C105.606 277.295 109.902 273.674 114.011 268.105L117.591 272.861L118.084 273.531L118.28 273.8C114.011 279.235 109.893 282.668 109.696 282.829V282.82ZM132.763 278.457C132.611 278.636 132.387 278.752 132.164 278.752C132.146 278.752 132.128 278.752 132.11 278.752L129.255 278.663L129.505 281.64C129.532 281.989 129.353 282.311 129.049 282.472C128.932 282.534 128.798 282.561 128.673 282.561C128.476 282.561 128.279 282.489 128.127 282.346C127.321 281.622 123.293 277.93 119.131 272.852L118.567 272.11L114.79 266.996C111.603 262.151 109.652 257.654 108.998 253.604C108.103 248.079 109.813 243.296 113.572 240.792C115.112 239.764 116.866 239.273 118.612 239.273C118.755 239.273 118.898 239.273 119.032 239.282C120.581 239.353 122.094 239.809 123.427 240.685C125.173 241.838 129.094 245.45 127.742 253.908C127.178 257.439 125.531 261.856 123.687 265.512C122.667 264.144 120.617 261.176 119.31 258.869C119.99 257.081 120.769 254.507 121.038 252.79C121.521 249.751 121.02 247.328 119.731 246.469C119.525 246.335 119.283 246.255 119.041 246.201C118.925 246.174 118.8 246.148 118.674 246.139C118.656 246.139 118.639 246.139 118.621 246.139C118.146 246.139 117.708 246.291 117.296 246.568C115.864 247.524 115.273 249.724 115.712 252.459C116.088 254.802 117.09 257.421 118.683 260.273C118.683 260.273 121.163 264.43 123.025 266.737C127.634 272.691 132.656 277.17 132.701 277.215C132.871 277.367 132.96 277.59 132.969 277.814C132.987 278.037 132.898 278.279 132.754 278.448L132.763 278.457ZM118.567 257.287C117.743 255.481 117.197 253.8 116.947 252.254C116.589 250.063 116.991 248.284 117.985 247.623C118.209 247.471 118.415 247.399 118.638 247.399C118.665 247.399 118.701 247.408 118.728 247.417L118.8 247.435C118.952 247.471 119.024 247.498 119.068 247.524C119.749 247.98 120.286 249.751 119.829 252.576C119.614 253.908 119.086 255.758 118.567 257.278V257.287Z" fill="#8A605B"/>
<path d="M104.37 270.09V239.577C104.37 238.862 103.824 238.289 103.135 238.191C103.063 238.182 103.01 238.155 102.938 238.155H96.6186C95.8309 238.155 95.1953 238.799 95.1953 239.586V249.473H92.4385V239.586C92.4385 238.799 91.7939 238.155 91.0062 238.155H84.6777C83.89 238.155 83.2546 238.799 83.2546 239.586V270.099C83.2546 270.885 83.899 271.52 84.6867 271.52H91.0152C91.8029 271.52 92.4385 270.876 92.4385 270.09V258.834H95.1953V270.09C95.1953 270.876 95.8399 271.511 96.6276 271.511H102.947C103.019 271.511 103.081 271.484 103.144 271.466C103.833 271.368 104.37 270.796 104.37 270.081V270.09ZM103.144 270.09C103.144 270.197 103.055 270.286 102.947 270.286H96.6276C96.5202 270.286 96.4307 270.197 96.4307 270.09V257.6H91.2121V270.09C91.2121 270.197 91.1226 270.286 91.0152 270.286H84.6867C84.5793 270.286 84.4898 270.197 84.4898 270.09V239.577C84.4898 239.469 84.5703 239.38 84.6867 239.38H91.0152C91.1226 239.38 91.2121 239.469 91.2121 239.577V250.689H96.4307V239.577C96.4307 239.469 96.5202 239.38 96.6276 239.38H102.947C103.055 239.38 103.144 239.469 103.144 239.577V270.09Z" fill="#8A605B"/>
<path d="M141.705 245.674L141.025 245.602V252.441L141.714 252.361C142.681 252.254 143.433 251.985 143.952 251.565C144.606 251.038 144.919 250.206 144.919 249.044C144.919 247.801 144.606 246.916 143.979 246.425C143.478 246.022 142.717 245.772 141.705 245.665V245.674ZM143.174 250.626C142.959 250.796 142.645 250.939 142.261 251.029V247.006C142.681 247.095 143.012 247.229 143.209 247.399C143.523 247.649 143.684 248.222 143.684 249.062C143.684 249.831 143.514 250.349 143.174 250.626Z" fill="#8A605B"/>
<path d="M142.386 238.146H134.312C134.312 238.146 134.258 238.164 134.223 238.164C133.48 238.209 132.88 238.816 132.88 239.576V270.089C132.88 270.849 133.48 271.448 134.223 271.493C134.249 271.493 134.276 271.511 134.312 271.511H140.837C141.625 271.511 142.261 270.867 142.261 270.08V259.897C145.573 259.844 148.24 258.86 150.191 256.974C152.214 255.016 153.244 252.325 153.244 248.964C153.244 245.602 152.232 243.135 150.245 241.141C148.249 239.147 145.608 238.146 142.386 238.146ZM149.341 256.089C147.569 257.805 145.08 258.673 141.956 258.673H141.034V270.089C141.034 270.197 140.945 270.286 140.837 270.286H134.312C134.267 270.286 134.258 270.232 134.223 270.205C134.178 270.17 134.115 270.152 134.115 270.098V239.585C134.115 239.514 134.16 239.46 134.223 239.424C134.249 239.407 134.276 239.389 134.312 239.389H142.386C145.268 239.389 147.622 240.274 149.377 242.026C151.131 243.778 152.017 246.121 152.017 248.973C152.017 251.985 151.122 254.381 149.341 256.098V256.089Z" fill="#8A605B"/>
<path d="M170.823 262.141H165.104V259.441H169.839C170.627 259.441 171.262 258.798 171.262 258.011V251.681C171.262 250.895 170.618 250.251 169.839 250.251H165.104V247.479H170.779C171.566 247.479 172.202 246.836 172.202 246.049V239.558C172.202 238.772 171.558 238.128 170.77 238.128H156.734C155.947 238.128 155.311 238.772 155.311 239.558V270.071C155.311 270.858 155.956 271.493 156.743 271.493H170.823C171.611 271.493 172.256 270.849 172.256 270.062V263.545C172.256 262.758 171.611 262.123 170.823 262.123V262.141ZM171.02 270.08C171.02 270.187 170.931 270.277 170.823 270.277H156.743C156.636 270.277 156.546 270.187 156.546 270.08V239.567C156.546 239.46 156.627 239.371 156.743 239.371H170.779C170.886 239.371 170.976 239.46 170.976 239.567V246.058C170.976 246.165 170.886 246.255 170.779 246.255H163.877V251.485H169.839C169.946 251.485 170.036 251.574 170.036 251.681V258.011C170.036 258.118 169.946 258.208 169.839 258.208H163.877V263.366H170.823C170.931 263.366 171.02 263.455 171.02 263.563V270.08Z" fill="#8A605B"/>
</svg>
