<svg width="272" height="417" viewBox="0 0 272 417" fill="none" xmlns="http://www.w3.org/2000/svg">
<path d="M270.87 221.535C270.557 220.078 270.119 218.665 269.546 217.306C269.018 216.046 268.382 214.874 267.666 213.793C267.46 213.48 267.254 213.185 267.03 212.881C266.807 212.586 266.583 212.3 266.35 212.023C266.001 211.602 265.634 211.2 265.249 210.816C264.354 209.922 263.387 209.117 262.34 208.42C262.045 208.223 261.731 208.026 261.418 207.847C260.8 207.481 260.147 207.15 259.485 206.855C258.643 206.489 257.784 206.167 256.88 205.899C256.495 205.782 256.101 205.684 255.698 205.595C255.295 205.505 254.902 205.425 254.49 205.353C253.666 205.219 252.834 205.112 251.975 205.058C251.563 205.031 251.142 205.004 250.721 204.996C241.162 204.835 236.059 208.795 231.083 212.622C228.317 214.758 225.64 216.806 222.293 217.959C222.096 218.021 221.89 218.093 221.684 218.156C221.46 218.218 221.227 218.29 220.995 218.352C220.789 218.406 220.583 218.451 220.377 218.504C219.67 218.656 218.945 218.772 218.175 218.835C216.886 218.942 215.499 218.933 213.986 218.754C212.59 218.594 211.256 218.307 209.976 217.914C209.663 217.816 209.34 217.717 209.036 217.61C207.953 217.226 206.897 216.779 205.912 216.278C205.626 216.135 205.348 215.992 205.071 215.831C202.17 214.24 199.7 212.219 197.713 210.243C197.525 210.056 197.337 209.868 197.158 209.68C196.245 208.741 195.457 207.839 194.777 206.998C194.499 206.658 194.249 206.337 194.007 206.033C193.891 205.872 193.774 205.72 193.667 205.577C193.443 205.282 193.246 205.004 193.067 204.745C192.969 204.611 192.888 204.495 192.808 204.37H192.27V202.743H194.284C203.943 198.845 212.786 194.008 220.646 188.242C224.933 185.104 228.854 181.715 232.407 178.112C247.785 162.521 256.101 142.96 256.101 121.754C256.101 112.009 254.946 102.818 252.673 94.2625C252.136 92.242 251.536 90.2662 250.874 88.3262C250.542 87.3606 250.193 86.3951 249.835 85.4385C249.656 84.9647 249.468 84.4819 249.28 84.017C248.716 82.5955 248.108 81.2008 247.481 79.8241C246.846 78.4473 246.174 77.0973 245.467 75.7652C244.993 74.8712 244.509 73.9951 244.008 73.1189C243.99 73.0653 243.972 73.0027 243.945 72.9222C243.918 72.8418 243.892 72.7434 243.856 72.6362C243.838 72.5825 243.82 72.5199 243.802 72.4573C243.74 72.2696 243.677 72.0461 243.596 71.7868C243.444 71.2772 243.256 70.6425 243.032 69.8915C242.925 69.516 242.809 69.1137 242.692 68.6935C242.451 67.8442 242.182 66.8876 241.905 65.8505C240.553 60.8262 238.834 53.7902 237.644 46.5487C237.483 45.5474 237.331 44.5461 237.187 43.5448C236.972 42.0428 236.785 40.5409 236.641 39.0568C236.588 38.5562 236.543 38.0645 236.498 37.5817C236.292 35.1678 235.952 32.7182 235.469 30.2776C233.687 21.248 230.026 12.3972 224.477 6.68443C224.324 6.53244 224.181 6.38046 224.02 6.22848C221.577 3.82357 218.784 2.02659 215.642 1.06999C215.4 0.99847 215.15 0.944829 214.908 0.882247C214.084 0.658743 213.252 0.470999 212.428 0.336896C211.775 0.229614 211.122 0.140212 210.468 0.0776309C210.253 0.0597506 210.03 0.0418702 209.815 0.03293C201.204 -0.423019 192.333 3.85039 182.344 13.1929C177.018 18.1726 172.945 21.3553 168.46 22.7589C167.61 23.0271 166.733 23.2327 165.847 23.3668C164.155 23.6261 162.374 23.6708 160.413 23.4741C160.145 23.4562 159.867 23.4204 159.59 23.3847C159.581 23.3847 159.572 23.3847 159.563 23.3847H159.545C150.379 22.0079 140.694 21.2748 130.713 21.1586C129.818 21.1496 128.923 21.1407 128.028 21.1407C117.099 21.1407 106.492 21.9006 96.5111 23.4026C96.171 23.4383 95.8488 23.4651 95.5176 23.5009C94.1123 23.635 92.7875 23.6529 91.5344 23.5456C85.3133 23.0181 80.5334 19.594 73.7126 13.2197C67.1693 7.09567 61.1005 3.17093 55.2733 1.31138C53.134 0.622982 51.0393 0.220674 48.9537 0.0955113C46.519 -0.0564718 44.1202 0.167033 41.7213 0.757085C41.2826 0.864367 40.853 0.971649 40.4144 1.09681C34.1218 3.01001 29.2343 8.28472 25.7613 15.0167C25.3316 15.8571 24.911 16.7153 24.5261 17.6004C24.1323 18.4855 23.7652 19.3884 23.4251 20.3003C23.255 20.7563 23.085 21.2212 22.9239 21.6861C22.4405 23.0807 22.0019 24.5022 21.617 25.9505C21.3664 26.9071 21.1247 27.8816 20.9098 28.8561C20.2654 31.7795 19.8268 34.7298 19.5761 37.6175C19.2091 42.0071 18.493 46.6202 17.6427 51.0098C17.2667 52.9677 16.864 54.872 16.4522 56.6958C15.7361 59.8964 14.9932 62.8466 14.3218 65.341C14.2234 65.6986 14.1338 66.0472 14.0353 66.387C13.8563 67.0664 13.6773 67.7012 13.5162 68.2912C13.4356 68.5863 13.3461 68.8723 13.2745 69.1405C13.2387 69.2746 13.1939 69.4087 13.1581 69.5428C13.0865 69.8021 13.0149 70.0524 12.9433 70.2938C12.809 70.7676 12.6837 71.1878 12.5763 71.5633C12.5226 71.7421 12.4689 71.9209 12.4242 72.0729C12.4063 72.1534 12.3794 72.2249 12.3615 72.2964C12.2988 72.511 12.2362 72.6898 12.1914 72.8328C12.1377 72.9848 12.1109 73.0921 12.084 73.1636C11.8334 73.6017 11.5827 74.0398 11.35 74.4778C10.1326 76.6771 9.01374 78.939 7.99331 81.2545C7.79638 81.7194 7.59058 82.1843 7.39365 82.6492C6.80288 84.0528 6.24792 85.4832 5.72875 86.9226C5.37966 87.8881 5.04837 88.8626 4.73508 89.846C4.42179 90.8294 4.11745 91.8128 3.83996 92.8141C3.55353 93.8154 3.28508 94.8167 3.03445 95.8359C1.02044 103.963 0 112.643 0 121.816C0 138.945 5.42435 155.002 15.6197 168.752C16.1031 169.405 16.6044 170.057 17.1056 170.701C17.6158 171.345 18.135 171.979 18.6541 172.614C20.2385 174.51 21.9213 176.36 23.6936 178.166C27.2472 181.76 31.1768 185.148 35.4644 188.286C42.6343 193.543 50.6008 198.031 59.2744 201.741C53.0176 205.738 27.5069 223.412 13.561 254.354C12.7822 256.071 12.0482 257.832 11.35 259.629C10.8845 260.827 10.437 262.052 10.0073 263.294C9.79249 263.911 9.58665 264.537 9.38078 265.163C8.56622 267.675 7.83216 270.259 7.18768 272.914C6.9639 273.728 2.35407 290.66 6.85649 303.391C6.99076 303.767 7.13406 304.133 7.27728 304.509C7.57267 305.242 7.90385 305.966 8.27084 306.663C8.53938 307.191 8.83476 307.7 9.157 308.201C9.26441 308.371 9.37181 308.532 9.47923 308.693C9.62245 308.907 9.76565 309.104 9.91782 309.31C12.1377 312.331 15.0737 314.486 18.69 315.782C20.3728 316.381 22.1988 316.793 24.1681 317.007C25.9315 317.204 27.5874 317.266 29.1628 317.204C31.678 317.097 33.9606 316.641 36.0373 315.809C43.0997 312.984 47.8796 305.76 51.7554 292.627C51.8629 292.475 51.9166 292.288 51.9077 292.109C52.5969 289.713 53.2682 287.147 53.9127 284.358C54.772 280.656 55.7746 277.375 56.8577 274.488C57.1262 273.763 57.4036 273.066 57.6811 272.387C57.8154 272.047 57.9675 271.716 58.1018 271.385C58.5225 270.402 58.9522 269.481 59.3818 268.605C59.9547 267.443 60.5366 266.361 61.1095 265.369C61.5391 264.618 61.9687 263.92 62.3894 263.277C63.929 260.899 65.3791 259.119 66.5517 257.868C66.4443 258.154 66.3279 258.467 66.2116 258.789C65.8804 259.656 65.5312 260.657 65.1553 261.784C65.0568 262.07 64.9673 262.356 64.8689 262.651C64.7257 263.098 64.5825 263.563 64.4392 264.037C64.1439 265.002 63.8485 266.048 63.5441 267.157C63.4636 267.443 63.392 267.729 63.3204 268.024C63.1682 268.614 63.016 269.222 62.8638 269.839C62.7922 270.152 62.7117 270.473 62.6401 270.795C60.2859 280.808 58.254 295.22 59.167 313.637C59.3102 316.524 59.4892 319.189 59.6951 321.665C59.7936 322.899 59.9099 324.088 60.0263 325.223C60.0531 325.447 60.0801 325.679 60.098 325.903C60.1159 326.117 60.1427 326.341 60.1606 326.555C56.7412 326.591 53.483 326.984 50.4397 327.673C38.5883 330.391 30.1295 337.793 29.0106 347.305C28.9748 347.591 28.9479 347.895 28.93 348.199C28.7958 350.613 29.1986 353.51 30.416 356.433C30.6845 357.077 30.9889 357.721 31.3379 358.355C31.517 358.668 31.696 358.99 31.8929 359.303C32.0898 359.616 32.2957 359.938 32.5105 360.251C32.7343 360.564 32.9581 360.877 33.1997 361.181C33.9248 362.101 34.7483 363.004 35.6882 363.872C38.3019 366.267 42.1866 368.699 47.808 369.987C48.345 370.112 48.9 370.228 49.4818 370.326C49.5892 370.344 49.6967 370.362 49.8042 370.38C50.1443 370.443 50.5023 370.487 50.8603 370.541C51.9166 370.693 53.0175 370.791 54.1812 370.854C54.5661 370.872 54.96 370.89 55.3628 370.907C55.7835 370.925 56.222 370.925 56.6607 370.925C56.777 370.925 56.9024 370.925 57.0187 370.916C57.3768 370.916 57.7527 370.899 58.1197 370.89C61.0288 370.8 64.2244 370.469 67.7511 369.799C67.7511 369.897 67.7422 369.987 67.7332 370.085C67.7332 370.183 67.7243 370.282 67.7154 370.371C67.6975 370.648 67.6795 370.925 67.6527 371.211C67.6437 371.354 67.6347 371.48 67.6168 371.623C67.6168 371.632 67.6169 371.757 67.5901 371.989C67.5722 372.159 67.5542 372.392 67.5184 372.66C67.4736 373.035 67.411 373.482 67.3305 374.01C67.1425 375.181 66.8382 376.701 66.3638 378.355C65.7282 380.563 64.7793 383.012 63.383 385.221C63.1502 385.596 62.9086 385.999 62.6669 386.428C62.5506 386.642 62.4252 386.875 62.3089 387.107C62.2552 387.223 62.1924 387.34 62.1298 387.465C61.7717 388.189 61.4227 388.967 61.0915 389.789C59.9458 392.677 59.1044 396.155 59.2923 399.597C59.2923 399.614 59.2923 399.632 59.2923 399.65C59.355 400.911 59.5698 402.171 59.9458 403.396C60.2322 404.317 60.617 405.229 61.1183 406.105C63.8305 410.87 69.3534 413.963 77.5705 415.376C78.4209 415.519 79.316 415.653 80.2201 415.76C80.6766 415.814 81.142 415.868 81.6075 415.912C82.0819 415.966 82.5564 416.002 83.0397 416.038C83.5321 416.073 84.0243 416.1 84.5166 416.136C85.0179 416.163 85.5192 416.189 86.0384 416.207C87.0677 416.243 88.1329 416.261 89.2159 416.261C89.9231 416.261 90.6571 416.252 91.3911 416.234C91.6059 416.234 91.8028 416.234 92.0087 416.225L93.9511 416.181C99.1786 416.055 105.606 415.903 111.173 414.643C111.442 414.58 111.71 414.518 111.979 414.446C112.775 414.249 113.545 414.026 114.288 413.776C116.875 412.908 119.149 411.71 120.849 410.039C120.984 409.905 121.1 409.779 121.234 409.636C121.727 409.1 122.165 408.519 122.541 407.884C122.908 407.249 123.221 406.57 123.463 405.837C123.758 404.916 123.946 403.915 124.009 402.815C124.107 401.018 124.009 398.962 123.767 396.736C123.66 395.752 123.526 394.724 123.382 393.669C122.98 390.862 122.443 387.849 121.888 384.765C119.748 372.865 117.323 359.375 120.939 349.219C121.001 349.049 120.984 348.888 120.939 348.727C122.228 348.977 123.705 349.201 125.28 349.362C125.558 349.388 125.826 349.415 126.113 349.442C127.214 349.531 128.359 349.585 129.523 349.585C130.391 349.585 131.268 349.549 132.146 349.487C133.166 349.406 134.186 349.272 135.198 349.085C135.207 349.12 135.198 349.165 135.216 349.21C135.261 349.335 135.296 349.46 135.332 349.585C135.422 349.853 135.502 350.13 135.592 350.399C138.635 360.403 136.335 373.303 134.276 384.756C133.05 391.595 131.895 398.059 132.155 402.806C132.674 412.104 142.269 414.956 152.008 415.823C155.902 416.172 159.814 416.207 163.188 416.207C164.146 416.234 165.077 416.243 165.99 416.243C166.903 416.243 167.834 416.234 168.729 416.207C172.238 416.1 175.416 415.778 178.262 415.251C184.17 414.16 188.636 412.157 191.608 409.27C192.226 408.662 192.781 408.027 193.273 407.348C193.568 406.945 193.837 406.525 194.088 406.087C194.607 405.166 195.009 404.219 195.296 403.244C195.376 402.976 195.448 402.717 195.511 402.448C195.726 401.528 195.851 400.58 195.914 399.632V399.579C196.2 393.982 193.801 388.332 191.823 385.203C191.008 383.915 190.346 382.548 189.818 381.189C189.737 380.992 189.666 380.804 189.594 380.617C189.451 380.232 189.317 379.848 189.191 379.463C188.636 377.756 188.26 376.137 188.019 374.823C187.938 374.385 187.866 373.974 187.822 373.607C187.634 372.392 187.58 371.623 187.58 371.587C186.989 365.213 187.437 360.984 188.395 356.871C188.466 356.576 188.538 356.272 188.609 355.977C188.762 355.378 188.914 354.779 189.084 354.18C189.129 354.028 189.164 353.876 189.209 353.724C189.46 352.813 189.737 351.883 190.024 350.908C191.268 346.689 192.682 341.888 193.864 334.852C194.025 333.877 194.186 332.849 194.338 331.785C194.49 330.712 194.634 329.595 194.786 328.433C194.839 327.959 194.893 327.485 194.956 327.002C195.018 326.519 195.063 326.028 195.117 325.527C195.171 325.026 195.215 324.517 195.269 323.998C195.323 323.48 195.368 322.952 195.412 322.416C195.466 321.871 195.511 321.334 195.547 320.771C195.591 320.208 195.627 319.644 195.672 319.072C195.797 317.338 195.905 315.514 195.994 313.601C195.994 313.592 195.994 313.583 195.994 313.574C195.994 313.574 195.994 313.556 195.994 313.547C196.997 295.962 195.466 282.57 193.389 273.004C193.371 272.923 193.354 272.834 193.336 272.753C191.698 265.315 189.737 260.219 188.413 257.278C188.762 257.519 189.12 257.752 189.469 257.984C191.93 259.593 194.383 260.943 196.8 262.088C197.149 262.249 197.498 262.409 197.838 262.561C198.017 262.642 198.187 262.722 198.366 262.794C198.527 262.874 198.688 262.946 198.85 263.008C200.908 263.885 202.94 264.618 204.918 265.208C210.003 266.728 214.809 267.398 219.133 267.541C219.75 267.559 220.359 267.568 220.959 267.568C222.382 267.568 223.734 267.514 225.032 267.416C225.909 267.353 226.768 267.273 227.583 267.175C228.576 267.049 229.561 266.906 230.546 266.728C236.471 265.699 242.227 263.724 247.508 260.952C248.43 260.46 249.352 259.951 250.247 259.414C251.142 258.878 252.028 258.315 252.896 257.734C253.469 257.34 254.033 256.938 254.597 256.536C254.884 256.33 255.161 256.124 255.439 255.91C255.985 255.49 256.522 255.061 257.059 254.623C258.124 253.737 259.153 252.826 260.138 251.869C260.245 251.833 260.344 251.762 260.424 251.681C260.505 251.592 260.577 251.493 260.621 251.377C260.8 251.198 260.979 251.02 261.167 250.841C261.346 250.662 261.525 250.474 261.696 250.295C269.501 242.035 272.92 230.985 270.915 221.562L270.87 221.535ZM227.368 265.53C224.951 265.816 222.248 265.977 219.303 265.887C217.405 265.834 215.409 265.673 213.341 265.378C211.247 265.083 209.081 264.653 206.843 264.045C204.005 263.286 201.061 262.248 198.062 260.872C197.704 260.711 197.355 260.541 196.997 260.371C196.63 260.192 196.263 260.013 195.896 259.826C192.843 258.27 189.737 256.357 186.631 254.006C186.578 253.97 186.506 253.943 186.452 253.925C186.416 253.907 186.381 253.889 186.345 253.872C186.318 253.872 186.282 253.872 186.255 253.872C186.184 253.863 186.103 253.854 186.032 253.863C186.014 253.863 185.996 253.88 185.978 253.88C185.897 253.898 185.808 253.925 185.736 253.97H185.727C185.727 253.97 185.665 254.032 185.638 254.059C185.593 254.095 185.539 254.122 185.503 254.176C185.503 254.176 185.503 254.175 185.503 254.184C185.468 254.238 185.45 254.292 185.423 254.345C185.405 254.39 185.369 254.426 185.36 254.471C185.36 254.506 185.36 254.551 185.36 254.587C185.36 254.649 185.342 254.712 185.36 254.783C185.36 254.81 185.378 254.837 185.387 254.873C185.405 254.944 185.423 255.016 185.468 255.078V255.087C185.494 255.132 188.296 259.763 190.776 269.231C192.888 277.277 195.153 290.446 194.571 308.666C138.197 326.081 76.9888 312.796 63.2129 309.381C62.9176 309.31 62.64 309.247 62.3894 309.176C62.0761 309.095 61.8075 309.024 61.5659 308.961C61.1452 308.854 60.814 308.764 60.6171 308.711C60.1516 288.425 63.2755 273.54 65.943 264.653C66.2384 263.661 66.5338 262.749 66.8113 261.909C67.1157 260.988 67.411 260.165 67.6796 259.432C68.7358 256.589 69.4966 255.096 69.5234 255.043C69.6935 254.712 69.6219 254.31 69.3445 254.059C69.067 253.809 68.6552 253.782 68.3509 253.997C67.9123 254.292 57.511 261.489 52.3194 283.955C51.7733 286.351 51.2004 288.568 50.6097 290.634C36.0909 278.332 14.5993 281.506 7.9307 282.882C7.61741 282.945 7.33986 283.008 7.08923 283.061C7.05343 283.061 7.00868 283.079 6.98182 283.079C7.61735 277.474 8.72729 273.37 8.76309 273.263C19.4239 228.866 56.9382 204.987 61.1095 202.448C61.1811 202.474 61.2527 202.501 61.3243 202.537C61.6376 202.662 61.9418 202.778 62.2551 202.904C75.7176 208.294 90.7824 211.853 107.118 213.462C108.336 215.169 114.199 222.214 128.046 222.214C141.455 222.214 146.432 215.608 147.64 213.587C163.224 212.148 177.671 208.965 190.704 204.119C192.503 207.043 200.497 218.799 213.789 220.346C217.253 220.748 220.082 220.391 222.552 219.586C223.188 219.38 223.796 219.13 224.387 218.862C224.978 218.603 225.56 218.316 226.115 218.004C226.249 217.923 226.401 217.852 226.544 217.771C226.544 217.825 226.562 217.896 226.571 217.95C226.607 218.173 226.643 218.442 226.697 218.754C226.732 218.996 226.786 219.273 226.849 219.559C228.191 226.452 234.117 246.353 258.052 251.511C249.826 259.093 238.834 264.153 227.377 265.503L227.368 265.53Z" fill="#E63031"/>
<path d="M50.6277 170.37C50.7172 170.576 50.8873 170.728 51.0932 170.799C60.0354 179.078 71.645 185.81 85.0986 190.405C85.1702 190.441 85.2418 190.468 85.3223 190.486C98.1404 194.839 112.614 197.271 128.037 197.271C182.201 197.271 224.629 167.313 224.62 129.084C224.62 110.283 214.273 91.5088 196.245 77.5621C177.761 63.2668 153.53 55.3994 128.019 55.3994C101.712 55.3994 77.4901 62.5605 59.8116 75.5595C41.5065 89.0145 31.4276 108.03 31.4365 129.111C31.4365 144.739 38.5347 158.98 50.6277 170.361V170.37ZM53.3041 170.638C58.6032 170.236 74.4647 170.647 83.8276 188.259C71.8957 183.959 61.5123 177.942 53.3041 170.638ZM170.385 188.894C180.84 168.385 199.494 170.272 202.609 170.755C193.998 178.372 183.024 184.585 170.385 188.894ZM60.7784 76.8737C78.1794 64.0803 102.061 57.0355 128.019 57.0355C153.172 57.0355 177.054 64.7777 195.251 78.8585C212.885 92.4922 222.991 110.802 223 129.093C223 144.462 215.92 158.462 203.88 169.61C203.764 169.422 203.585 169.279 203.352 169.235C203.11 169.19 197.418 168.108 190.221 170.039C183.579 171.818 174.395 176.61 168.344 189.35C168.308 189.431 168.291 189.52 168.282 189.6C156.126 193.489 142.511 195.653 128.046 195.662C112.883 195.662 98.6507 193.293 86.0564 189.037C75.3508 166.955 55.0944 168.716 51.7109 169.181C39.967 158.113 33.0745 144.283 33.0745 129.129C33.0745 108.576 42.9118 90.0247 60.7872 76.8827L60.7784 76.8737Z" fill="#831A1A"/>
<path d="M128.037 175.502C130.731 175.502 132.915 174.205 132.915 172.605C132.915 171.005 130.731 169.708 128.037 169.708C125.342 169.708 123.158 171.005 123.158 172.605C123.158 174.205 125.342 175.502 128.037 175.502Z" fill="#831A1A"/>
<path d="M76.7559 155.029C77.096 155.029 77.4182 155.038 77.7494 155.038C90.0752 155.038 95.0878 149.138 95.3026 148.878C95.7323 148.36 95.6517 147.6 95.1414 147.171C94.6223 146.742 93.8525 146.813 93.4229 147.323C93.3781 147.376 88.5803 152.91 76.8185 152.588C64.9851 152.293 59.5876 146.482 59.507 146.393C59.0594 145.892 58.2896 145.848 57.7883 146.295C57.2871 146.742 57.2423 147.51 57.6809 148.011C57.9226 148.288 63.7588 154.689 76.7469 155.02L76.7559 155.029Z" fill="#831A1A"/>
<path d="M178.315 155.028C178.637 155.028 178.969 155.028 179.309 155.019C192.297 154.689 198.133 148.279 198.375 148.001C198.822 147.501 198.778 146.723 198.267 146.285C197.766 145.838 196.987 145.883 196.549 146.392C196.495 146.455 191.187 152.284 179.246 152.588C167.458 152.874 162.687 147.385 162.642 147.331C162.212 146.812 161.442 146.741 160.923 147.17C160.404 147.599 160.332 148.368 160.762 148.886C160.977 149.146 165.99 155.046 178.315 155.046V155.028Z" fill="#831A1A"/>
<path d="M270.87 221.535C270.557 220.077 270.119 218.665 269.546 217.306C269.018 216.045 268.382 214.874 267.666 213.793C267.46 213.48 267.254 213.176 267.03 212.881C266.807 212.586 266.583 212.3 266.35 212.022C266.001 211.602 265.634 211.2 265.249 210.815C264.354 209.921 263.387 209.117 262.34 208.419C262.045 208.223 261.731 208.026 261.418 207.847C260.8 207.481 260.156 207.141 259.485 206.855C258.652 206.479 257.784 206.167 256.88 205.898C256.495 205.791 256.101 205.684 255.698 205.603C255.295 205.514 254.902 205.433 254.49 205.362C253.666 205.228 252.834 205.121 251.975 205.067C251.563 205.031 251.151 205.013 250.721 205.004C241.162 204.843 236.059 208.804 231.083 212.63C228.317 214.767 225.64 216.814 222.293 217.968C222.096 218.03 221.89 218.102 221.684 218.164C221.46 218.227 221.227 218.298 220.995 218.361C220.789 218.415 220.583 218.459 220.377 218.513C219.67 218.665 218.945 218.781 218.175 218.844C216.886 218.951 215.499 218.942 213.986 218.763C212.59 218.602 211.256 218.316 209.976 217.923C209.663 217.825 209.34 217.726 209.036 217.619C207.953 217.235 206.897 216.788 205.912 216.287C205.626 216.135 205.348 215.992 205.071 215.84C202.17 214.248 199.7 212.228 197.713 210.252C197.525 210.064 197.337 209.877 197.158 209.689C196.263 208.759 195.457 207.847 194.777 207.007C194.508 206.676 194.249 206.345 194.007 206.041C193.891 205.88 193.774 205.729 193.667 205.585C193.452 205.29 193.255 205.013 193.067 204.754C192.969 204.62 192.888 204.504 192.808 204.379H192.27V202.751H194.284C203.943 198.854 212.786 194.017 220.646 188.25C224.933 185.112 228.854 181.724 232.407 178.121C247.785 162.538 256.101 142.977 256.101 121.762C256.101 112.018 254.946 102.827 252.673 94.2712C252.136 92.2508 251.545 90.275 250.874 88.335C250.542 87.3694 250.193 86.4039 249.835 85.4473C249.656 84.9734 249.468 84.4907 249.28 84.0258C248.716 82.6043 248.117 81.2096 247.481 79.8328C246.846 78.4561 246.174 77.1061 245.467 75.774C244.993 74.88 244.509 74.0038 244.008 73.1277C243.99 73.0741 243.972 73.0115 243.945 72.931C243.927 72.8506 243.892 72.7522 243.856 72.6449C243.838 72.5913 243.82 72.5287 243.802 72.4661C243.74 72.2784 243.677 72.0549 243.596 71.7956C243.444 71.286 243.256 70.6513 243.032 69.9003C242.925 69.5248 242.809 69.1225 242.692 68.7023C242.451 67.853 242.191 66.8964 241.905 65.8593C240.553 60.835 238.834 53.799 237.644 46.5575C237.483 45.5562 237.331 44.5549 237.187 43.5536C236.972 42.0516 236.793 40.5497 236.641 39.0656C236.588 38.565 236.543 38.0733 236.498 37.5905C236.292 35.1766 235.952 32.727 235.469 30.2864C233.696 21.2568 230.035 12.406 224.477 6.69321C224.324 6.54123 224.181 6.38925 224.02 6.23727C221.577 3.83236 218.784 2.03538 215.642 1.07878C215.4 1.00726 215.15 0.953618 214.908 0.891036C214.084 0.667532 213.252 0.479788 212.428 0.345685C211.775 0.238403 211.122 0.140061 210.468 0.08642C210.253 0.0685396 210.03 0.0506593 209.815 0.0417191C201.204 -0.41423 192.333 3.85918 182.344 13.2017C177.018 18.1813 172.945 21.3641 168.46 22.7677C167.61 23.0359 166.733 23.2415 165.847 23.3756C164.155 23.6349 162.374 23.6796 160.413 23.4829C160.145 23.4561 159.867 23.4203 159.59 23.3845H159.545C150.379 22.0077 140.694 21.2747 130.713 21.1584C129.818 21.1495 128.923 21.1406 128.028 21.1406C117.099 21.1406 106.492 21.9005 96.5111 23.4024C96.171 23.4382 95.8488 23.465 95.5176 23.5008C94.1123 23.6349 92.7875 23.6527 91.5344 23.5455C85.3133 23.018 80.5334 19.5939 73.7126 13.2195C67.1693 7.09552 61.1005 3.17078 55.2733 1.31122C53.134 0.622831 51.0393 0.220523 48.9537 0.0953602C46.519 -0.0566229 44.1202 0.166882 41.7213 0.756934C41.2826 0.864216 40.853 0.971498 40.4144 1.09666C34.1218 3.00986 29.2343 8.28457 25.7613 15.0165C25.3316 15.8569 24.911 16.7152 24.5261 17.6002C24.1412 18.4853 23.7652 19.3883 23.4251 20.3002C23.255 20.7561 23.085 21.221 22.9239 21.6859C22.4405 23.0806 22.0019 24.5021 21.617 25.9504C21.3664 26.907 21.1247 27.8814 20.9098 28.8559C20.2743 31.7794 19.8268 34.7296 19.5851 37.6173C19.2181 42.0069 18.502 46.6201 17.6427 51.0097C17.2667 52.9676 16.864 54.8719 16.4522 56.6957C15.7361 59.8962 14.9932 62.8465 14.3218 65.3408C14.2234 65.6984 14.1338 66.0471 14.0353 66.3868C13.8563 67.0663 13.6773 67.701 13.5162 68.2911C13.4356 68.5861 13.3461 68.8722 13.2745 69.1404C13.2387 69.2745 13.1939 69.4086 13.1581 69.5427C13.0865 69.802 13.0149 70.0523 12.9433 70.2937C12.809 70.7675 12.6837 71.1877 12.5763 71.5632C12.5226 71.742 12.4689 71.9208 12.4242 72.0728C12.4063 72.1532 12.3794 72.2248 12.3615 72.2963C12.2988 72.5108 12.2362 72.6896 12.1914 72.8327C12.1467 72.9847 12.1109 73.0919 12.093 73.1635C11.8424 73.6015 11.5917 74.0396 11.35 74.4777C10.1326 76.677 9.01374 78.9388 7.99331 81.2543C7.79638 81.7192 7.59058 82.1841 7.39365 82.649C6.80288 84.0526 6.24792 85.483 5.72875 86.9224C5.38861 87.8879 5.04837 88.8624 4.73508 89.8458C4.42179 90.8293 4.11745 91.8127 3.83996 92.814C3.55353 93.8153 3.29403 94.8166 3.03445 95.8358C1.02044 103.962 0 112.643 0 121.816C0 138.945 5.42435 155.002 15.6197 168.752C16.1031 169.405 16.6044 170.057 17.1056 170.701C17.6158 171.345 18.135 171.979 18.6541 172.614C20.2385 174.509 21.9213 176.36 23.6936 178.166C27.2472 181.76 31.1768 185.148 35.4644 188.286C42.6343 193.543 50.6008 198.031 59.2744 201.741C53.0176 205.737 27.5069 223.412 13.561 254.354C12.7912 256.071 12.0482 257.832 11.35 259.629C10.8845 260.827 10.437 262.052 10.0073 263.294C9.79249 263.911 9.58665 264.537 9.38078 265.163C8.56622 267.675 7.83217 270.259 7.19664 272.914C6.97286 273.728 2.36302 290.651 6.85649 303.391C6.99076 303.767 7.13406 304.133 7.27728 304.509C7.57267 305.242 7.90385 305.966 8.27084 306.663C8.53938 307.182 8.84371 307.7 9.157 308.201C9.26441 308.371 9.37182 308.532 9.48819 308.693C9.6314 308.907 9.77461 309.104 9.91782 309.309C12.1377 312.331 15.0737 314.486 18.69 315.782C20.3728 316.381 22.1988 316.792 24.1681 317.007C25.9315 317.204 27.5874 317.266 29.1628 317.204C31.678 317.096 33.9606 316.64 36.0373 315.809C43.0997 312.984 47.8796 305.76 51.7554 292.627C51.8629 292.475 51.9256 292.287 51.9077 292.109C52.5969 289.713 53.2682 287.147 53.9127 284.357C54.772 280.656 55.7746 277.375 56.8577 274.487C57.1262 273.763 57.4036 273.066 57.6811 272.387C57.8154 272.047 57.9675 271.716 58.1018 271.385C58.5225 270.402 58.9522 269.481 59.3818 268.605C59.9547 267.443 60.5366 266.361 61.1095 265.368C61.5391 264.617 61.9687 263.92 62.3894 263.276C63.938 260.898 65.3881 259.119 66.5517 257.868C66.5517 257.868 66.5547 257.865 66.5607 257.859C66.4443 258.154 66.3279 258.467 66.2026 258.788C65.8714 259.656 65.5223 260.657 65.1463 261.783C65.0479 262.07 64.9584 262.356 64.8599 262.651C64.7257 263.098 64.5735 263.563 64.4303 264.036C64.1349 265.002 63.8395 266.048 63.5352 267.156C63.4546 267.443 63.383 267.729 63.3024 268.024C63.1503 268.614 62.9981 269.222 62.8459 269.839C62.7743 270.151 62.6937 270.473 62.6221 270.795C60.268 280.808 58.2361 295.22 59.1491 313.636C59.2923 316.524 59.4713 319.188 59.6772 321.665C59.7846 322.899 59.892 324.088 60.0084 325.223C60.0352 325.446 60.0621 325.679 60.08 325.902C60.0979 326.117 60.1248 326.34 60.1516 326.555C56.7323 326.591 53.4741 326.984 50.4307 327.673C38.5794 330.39 30.1206 337.793 29.0017 347.305C28.9659 347.591 28.939 347.895 28.9211 348.199C28.7868 350.613 29.1896 353.51 30.407 356.433C30.6755 357.077 30.9799 357.712 31.329 358.355C31.508 358.668 31.687 358.99 31.884 359.303C32.0809 359.616 32.2867 359.938 32.5015 360.251C32.7253 360.564 32.9491 360.876 33.1908 361.18C33.9158 362.101 34.7394 363.004 35.6792 363.871C38.293 366.267 42.1778 368.699 47.7991 369.986C48.3362 370.112 48.9001 370.228 49.473 370.326C49.5804 370.344 49.6878 370.362 49.7952 370.38C50.1353 370.442 50.4933 370.487 50.8514 370.541C51.9076 370.693 53.0087 370.791 54.1723 370.854C54.5572 370.872 54.951 370.889 55.3538 370.907C55.7835 370.916 56.222 370.925 56.6607 370.925C56.777 370.925 56.8934 370.925 57.0187 370.925C57.3768 370.925 57.7527 370.907 58.1197 370.898C61.0288 370.809 64.2244 370.478 67.7511 369.808C67.7511 369.906 67.7332 369.995 67.7242 370.094C67.7242 370.192 67.7154 370.29 67.7064 370.38C67.6885 370.657 67.6706 370.934 67.6437 371.22C67.6258 371.363 67.6258 371.488 67.6079 371.631C67.6079 371.64 67.599 371.766 67.5722 371.998C67.5542 372.168 67.5363 372.4 67.5005 372.669C67.4557 373.044 67.3931 373.491 67.3125 374.018C67.1246 375.19 66.8203 376.71 66.3458 378.363C65.7103 380.572 64.7614 383.021 63.365 385.229C63.1323 385.605 62.8907 386.007 62.649 386.436C62.5327 386.651 62.4073 386.883 62.291 387.116C62.2372 387.232 62.1746 387.348 62.112 387.473C61.7539 388.198 61.4048 388.966 61.0736 389.798C59.9368 392.686 59.0954 396.154 59.2744 399.605C59.2744 399.623 59.2744 399.641 59.2744 399.659C59.346 400.919 59.5519 402.18 59.9278 403.405C60.2143 404.326 60.5992 405.238 61.1005 406.114C63.8127 410.879 69.3355 413.972 77.5527 415.385C78.403 415.528 79.2981 415.662 80.2022 415.769C80.6587 415.823 81.1242 415.876 81.5897 415.921C82.0641 415.975 82.5385 416.011 83.0218 416.046C83.5141 416.082 84.0065 416.109 84.4988 416.145C85 416.171 85.5013 416.198 86.0204 416.216C87.0498 416.252 88.115 416.27 89.1981 416.27C89.9053 416.27 90.6392 416.261 91.3732 416.243C91.588 416.243 91.785 416.243 91.9909 416.234L93.9332 416.189C99.1607 416.064 105.588 415.912 111.155 414.652C111.424 414.589 111.692 414.526 111.961 414.455C112.757 414.258 113.527 414.035 114.27 413.784C116.857 412.917 119.131 411.719 120.831 410.047C120.966 409.913 121.082 409.788 121.216 409.645C121.718 409.109 122.156 408.528 122.523 407.893C122.899 407.258 123.212 406.579 123.445 405.846C123.74 404.925 123.929 403.923 123.991 402.824C124.09 401.027 123.991 398.971 123.75 396.744C123.642 395.752 123.517 394.733 123.365 393.678C122.962 390.871 122.425 387.858 121.87 384.774C119.73 372.874 117.305 359.383 120.921 349.227C120.984 349.058 120.975 348.897 120.921 348.736C122.21 348.986 123.687 349.209 125.262 349.37C125.54 349.397 125.808 349.424 126.095 349.451C127.196 349.54 128.341 349.594 129.505 349.594C130.373 349.594 131.251 349.558 132.128 349.496C133.148 349.415 134.169 349.281 135.18 349.093C135.189 349.129 135.18 349.174 135.198 349.218C135.243 349.344 135.279 349.469 135.314 349.594C135.413 349.862 135.484 350.139 135.574 350.407C138.617 360.412 136.317 373.312 134.258 384.765C133.032 391.604 131.877 398.068 132.137 402.815C132.656 412.113 142.251 414.965 151.99 415.832C155.884 416.18 159.796 416.216 163.17 416.216C164.128 416.243 165.059 416.252 165.972 416.252C166.885 416.252 167.816 416.243 168.711 416.216C172.22 416.109 175.398 415.787 178.244 415.26C184.152 414.169 188.618 412.166 191.59 409.279C192.208 408.671 192.763 408.036 193.255 407.356C193.551 406.954 193.819 406.534 194.07 406.096C194.589 405.175 194.992 404.227 195.278 403.253C195.359 402.985 195.43 402.725 195.493 402.457C195.717 401.527 195.842 400.589 195.896 399.641V399.587C196.191 393.991 193.783 388.341 191.805 385.212C190.99 383.924 190.328 382.556 189.791 381.197C189.71 381.001 189.639 380.813 189.567 380.625C189.424 380.241 189.29 379.856 189.164 379.472C188.609 377.764 188.234 376.146 187.992 374.832C187.911 374.394 187.849 373.983 187.795 373.616C187.616 372.4 187.571 371.631 187.562 371.596C186.971 365.212 187.419 360.993 188.377 356.88C188.448 356.585 188.52 356.281 188.592 355.986C188.744 355.387 188.905 354.788 189.066 354.189C189.111 354.037 189.147 353.885 189.191 353.733C189.451 352.821 189.719 351.883 190.015 350.917C191.259 346.697 192.673 341.896 193.846 334.861C194.016 333.886 194.177 332.858 194.32 331.794C194.472 330.721 194.625 329.604 194.768 328.441C194.822 327.968 194.875 327.494 194.938 327.011C195.001 326.528 195.045 326.037 195.099 325.536C195.153 325.035 195.198 324.526 195.251 324.007C195.305 323.489 195.35 322.961 195.394 322.425C195.448 321.879 195.493 321.343 195.529 320.78C195.573 320.216 195.618 319.653 195.654 319.081C195.779 317.347 195.887 315.523 195.976 313.61C195.976 313.601 195.976 313.592 195.976 313.583V313.556C196.979 295.971 195.448 282.578 193.371 273.012C193.354 272.932 193.336 272.842 193.318 272.762C191.689 265.324 189.728 260.219 188.395 257.287C188.744 257.519 189.102 257.76 189.451 257.984C191.912 259.593 194.365 260.943 196.782 262.087C197.131 262.248 197.48 262.409 197.82 262.561C197.999 262.642 198.169 262.722 198.348 262.794C198.509 262.865 198.68 262.937 198.841 263.008C200.899 263.884 202.922 264.617 204.909 265.208C209.994 266.727 214.8 267.398 219.124 267.541C219.741 267.559 220.35 267.568 220.95 267.568C222.373 267.568 223.725 267.514 225.023 267.416C225.9 267.353 226.759 267.273 227.574 267.174C228.567 267.049 229.552 266.906 230.537 266.727C236.462 265.699 242.218 263.723 247.499 260.952C248.421 260.46 249.343 259.951 250.238 259.414C251.133 258.878 252.019 258.315 252.888 257.734C253.46 257.349 254.033 256.947 254.588 256.536C254.875 256.33 255.152 256.124 255.43 255.91C255.976 255.499 256.513 255.06 257.05 254.622C258.115 253.737 259.144 252.825 260.129 251.869C260.236 251.833 260.335 251.761 260.415 251.681C260.496 251.601 260.568 251.493 260.612 251.377C260.791 251.198 260.97 251.019 261.158 250.841C261.337 250.662 261.516 250.474 261.687 250.295C269.492 242.035 272.911 230.985 270.897 221.562L270.87 221.535ZM36.4132 186.927C34.4529 185.488 32.5732 183.995 30.774 182.466C30.5234 182.252 30.2817 182.055 30.04 181.84C29.8699 181.688 29.6999 181.545 29.5388 181.393C12.7912 166.642 3.10603 147.635 1.77231 126.769C1.77231 126.715 1.76335 126.662 1.76335 126.617C1.71859 125.937 1.69175 125.249 1.6649 124.561C1.6649 124.435 1.65593 124.319 1.64698 124.194C1.62908 123.389 1.61114 122.576 1.61114 121.771C1.61114 103.676 5.61234 87.5572 13.5162 73.8697C13.5431 73.8161 13.5699 73.7625 13.5878 73.7088C13.8384 72.9042 19.8088 53.8795 21.1783 37.7156C22.5389 21.6144 28.5631 10.8593 35.2138 5.67403C37.0845 4.21678 39 3.1976 40.8798 2.62543C41.3363 2.49133 41.7928 2.36617 42.2583 2.25888C43.9769 1.84764 45.7045 1.62413 47.459 1.62413C55.2733 1.62413 63.4188 5.79026 72.6027 14.3639C82.4847 23.5991 88.106 26.0755 96.7349 24.9759C106.653 23.4918 117.179 22.7319 128.028 22.7319C138.877 22.7319 149.403 23.4829 159.339 24.9669C162.759 25.3961 165.704 25.262 168.639 24.359C169.418 24.1266 170.188 23.8405 170.976 23.5008C171.71 23.17 172.453 22.7855 173.205 22.3564C176.248 20.6131 179.515 18.0204 183.454 14.3371C190.856 7.41737 197.587 3.37641 204.014 2.0622C205.062 1.84764 206.109 1.72247 207.138 1.65095C208.087 1.58837 209.027 1.58837 209.958 1.64201C211.703 1.74929 213.449 2.05326 215.168 2.58073C223.716 5.17338 233.124 17.037 234.878 37.6709C236.256 53.8974 242.227 72.8595 242.477 73.6641C242.495 73.7178 242.522 73.7714 242.549 73.825C250.462 87.5125 254.463 103.632 254.472 121.727C254.472 147.295 242.119 170.442 219.679 186.9C211.202 193.114 201.589 198.255 190.99 202.278C190.874 202.287 190.749 202.313 190.641 202.376C190.606 202.394 190.588 202.43 190.561 202.447C177.591 207.32 163.17 210.529 147.595 211.978C147.586 211.978 147.577 211.96 147.568 211.96C147.291 211.835 146.978 211.879 146.745 212.058C140.676 212.595 134.446 212.872 128.046 212.872C121.1 212.872 114.333 212.55 107.781 211.924C107.727 211.906 107.673 211.906 107.62 211.906C91.7492 210.36 77.0872 206.98 63.9559 201.857C63.1592 201.544 62.3715 201.232 61.5838 200.91C61.4674 200.811 61.3242 200.758 61.1721 200.74C52.1135 196.976 43.8247 192.363 36.4042 186.927H36.4132ZM145.546 213.784C143.702 216.153 138.823 220.596 128.037 220.596C117.314 220.596 111.648 216.063 109.41 213.694C115.461 214.222 121.673 214.49 128.037 214.49C134.007 214.49 139.853 214.248 145.546 213.784ZM24.3291 315.353C22.3957 315.138 20.6413 314.709 19.0122 314.11C15.5929 312.841 12.8359 310.731 10.8219 307.763C10.6518 307.504 10.4907 307.235 10.3295 306.967C6.4716 300.611 6.1673 291.822 6.78492 284.804C6.82073 284.795 6.86548 284.787 6.89233 284.778C7.11611 284.724 7.3847 284.661 7.7338 284.59C13.552 283.32 35.724 279.592 50.0905 292.35C43.8605 313.02 35.7329 316.614 24.3291 315.353ZM48.0317 368.35C44.3618 367.492 41.5064 366.133 39.2776 364.622C38.3377 363.988 37.4873 363.317 36.7623 362.664C33.5936 359.759 31.8391 356.371 31.0425 353.224C30.5054 351.123 30.398 349.129 30.5949 347.457C30.6755 346.751 30.8098 346.054 30.9799 345.365C32.0182 341.297 34.6588 337.695 38.4272 334.843C41.6406 332.402 45.6866 330.507 50.2607 329.371C53.3936 328.593 56.7681 328.155 60.3128 328.137C61.6197 339.053 63.5083 345.464 65.1106 350.899C66.7844 356.585 68.0555 360.903 67.7959 368.1C59.4624 369.736 53.0087 369.504 48.0229 368.341L48.0317 368.35ZM188.448 350.434C186.47 357.157 185.038 362.012 185.933 371.694C185.951 372.025 186.47 379.821 190.418 386.052C192.996 390.111 196.361 398.729 192.646 405.264C188.976 411.71 179.408 414.839 164.244 414.571C164.218 414.571 164.2 414.562 164.173 414.562C160.691 414.562 156.466 414.562 152.286 414.196C150.299 414.026 148.329 413.767 146.45 413.391C145.116 413.123 143.836 412.792 142.627 412.39C137.686 410.736 134.043 407.83 133.757 402.708C133.497 398.157 134.652 391.783 135.86 385.042C137.919 373.563 140.229 360.644 137.257 350.336C137.176 350.068 137.087 349.8 136.997 349.531C136.917 349.272 136.845 348.995 136.747 348.736C136.756 348.736 136.764 348.736 136.782 348.736C138.044 348.405 139.271 347.967 140.425 347.404C140.828 347.207 140.998 346.715 140.801 346.313C140.604 345.911 140.112 345.75 139.709 345.946C135.314 348.11 129.8 348.208 125.209 347.716C125.155 347.716 125.092 347.708 125.038 347.699C120.097 347.153 116.275 345.928 116.195 345.911C115.765 345.768 115.317 346.009 115.165 346.429C115.031 346.858 115.264 347.305 115.685 347.457C115.864 347.511 117.323 347.976 119.516 348.458C119.462 348.521 119.408 348.602 119.381 348.691C115.631 359.249 118.092 372.964 120.268 385.069C121.476 391.818 122.622 398.184 122.371 402.734C121.753 413.91 104.988 414.294 93.8885 414.553L91.9371 414.607C86.5127 414.759 81.8045 414.473 77.7765 413.784C75.0195 413.311 72.5938 412.649 70.4992 411.782C68.5926 411.004 66.9634 410.056 65.6208 408.948C64.3228 407.884 63.2666 406.677 62.4879 405.309C58.7731 398.783 62.1387 390.164 64.7167 386.106C68.6641 379.865 69.1833 372.07 69.1922 371.775C69.2191 371.506 69.2371 371.247 69.255 370.988C69.2729 370.702 69.2997 370.425 69.3176 370.147C69.3355 369.861 69.3534 369.593 69.3624 369.316C69.8189 361.198 68.4762 356.612 66.6681 350.488C65.0569 345.025 63.1592 338.589 61.8703 327.485C61.8703 327.467 61.8792 327.431 61.8882 327.413C61.8882 327.395 61.8882 327.387 61.8972 327.369C61.8972 327.243 61.8613 327.127 61.8165 327.029C61.7986 326.895 61.7897 326.743 61.7718 326.609C61.745 326.34 61.7091 326.081 61.6822 325.804C61.3063 322.228 60.9841 318.187 60.7514 313.565C60.6977 312.51 60.6619 311.473 60.6261 310.445C60.8767 310.516 61.2078 310.597 61.5927 310.695C61.8344 310.758 62.1119 310.82 62.4073 310.901C62.6669 310.963 62.9355 311.035 63.2309 311.106C65.8267 311.741 69.8547 312.662 75.0463 313.654C75.1537 314.888 75.3954 317.141 75.7087 317.829C75.7714 317.981 75.9236 318.071 76.0847 318.071C76.1384 318.071 76.192 318.062 76.2458 318.035C76.4516 317.937 76.5411 317.704 76.4606 317.499C76.2457 317.016 76.0309 315.281 75.8966 313.806C88.9116 316.265 108.774 319.09 131.403 319.09C144.758 319.09 159.071 318.089 173.5 315.46C173.375 316.649 173.16 318.67 172.981 319.752C172.945 319.975 173.097 320.181 173.321 320.225C173.339 320.225 173.366 320.225 173.384 320.225C173.58 320.225 173.751 320.082 173.786 319.886C173.983 318.688 174.216 316.453 174.332 315.308C181.064 314.057 187.813 312.439 194.499 310.4C194.454 311.437 194.41 312.492 194.347 313.565C194.347 313.583 194.347 313.601 194.347 313.619C193.354 333.832 190.632 343.05 188.448 350.461V350.434ZM227.368 265.529C224.951 265.815 222.248 265.976 219.303 265.887C217.405 265.833 215.409 265.672 213.341 265.377C211.247 265.082 209.081 264.653 206.843 264.045C204.005 263.285 201.061 262.248 198.062 260.872C197.704 260.711 197.355 260.541 196.997 260.371C196.63 260.192 196.263 260.013 195.896 259.826C192.843 258.27 189.737 256.357 186.631 254.005C186.578 253.97 186.506 253.943 186.452 253.925C186.416 253.907 186.381 253.889 186.345 253.871C186.318 253.871 186.282 253.871 186.255 253.871C186.184 253.862 186.103 253.854 186.032 253.862C186.014 253.862 185.996 253.88 185.978 253.88C185.897 253.898 185.808 253.925 185.736 253.97H185.727C185.727 253.97 185.665 254.032 185.638 254.059C185.593 254.095 185.539 254.122 185.503 254.175C185.503 254.175 185.503 254.175 185.503 254.184C185.468 254.238 185.45 254.292 185.423 254.345C185.405 254.39 185.369 254.426 185.36 254.47C185.36 254.506 185.36 254.551 185.36 254.587C185.36 254.649 185.342 254.712 185.36 254.783C185.36 254.81 185.378 254.837 185.387 254.873C185.405 254.944 185.423 255.016 185.468 255.078V255.087C185.494 255.132 188.296 259.763 190.776 269.231C192.888 277.277 195.153 290.446 194.571 308.666C138.197 326.081 76.9888 312.796 63.2129 309.381C62.9176 309.309 62.64 309.247 62.3894 309.175C62.0761 309.095 61.8075 309.023 61.5659 308.961C61.1452 308.854 60.814 308.764 60.6171 308.71C60.1516 288.425 63.2755 273.54 65.943 264.653C66.2384 263.661 66.5338 262.749 66.8113 261.909C67.1157 260.988 67.411 260.165 67.6796 259.432C68.7358 256.589 69.4966 255.096 69.5234 255.043C69.6935 254.712 69.6219 254.309 69.3445 254.059C69.067 253.809 68.6552 253.782 68.3509 253.997C67.9123 254.292 57.511 261.488 52.3194 283.955C51.7733 286.351 51.2004 288.568 50.6097 290.633C36.0909 278.332 14.5993 281.505 7.9307 282.882C7.61741 282.945 7.33986 283.007 7.08923 283.061C7.05343 283.061 7.00868 283.079 6.98182 283.079C7.61735 277.473 8.72729 273.37 8.76309 273.263C19.4239 228.866 56.9382 204.986 61.1095 202.447C61.1811 202.474 61.2527 202.501 61.3243 202.537C61.6376 202.662 61.9418 202.778 62.2551 202.903C75.7176 208.294 90.7824 211.853 107.118 213.462C108.336 215.169 114.199 222.214 128.046 222.214C141.455 222.214 146.432 215.607 147.64 213.587C163.224 212.148 177.671 208.965 190.704 204.119C192.503 207.043 200.497 218.799 213.789 220.346C217.253 220.748 220.082 220.39 222.552 219.586C223.188 219.38 223.796 219.13 224.387 218.862C224.978 218.602 225.56 218.316 226.115 218.003C226.249 217.923 226.401 217.851 226.544 217.771C226.544 217.825 226.562 217.896 226.571 217.95C226.607 218.173 226.643 218.441 226.697 218.754C226.732 218.996 226.786 219.273 226.849 219.559C228.191 226.452 234.117 246.353 258.052 251.511C249.826 259.092 238.834 264.153 227.377 265.503L227.368 265.529ZM260.469 249.151C260.138 249.491 259.807 249.83 259.467 250.17C235.639 245.593 229.776 226.05 228.46 219.335C228.406 219.04 228.352 218.772 228.308 218.531C228.254 218.218 228.209 217.941 228.182 217.726C228.129 217.324 228.102 217.091 228.102 217.065C228.102 216.993 228.066 216.922 228.039 216.85C229.418 215.938 230.734 214.928 232.067 213.9C236.167 210.735 240.392 207.481 247.23 206.757C248 206.676 248.806 206.631 249.647 206.614C249.817 206.614 249.978 206.605 250.149 206.605C250.319 206.605 250.507 206.605 250.686 206.605C251.178 206.605 251.67 206.64 252.154 206.676C259.511 207.266 265.258 211.307 268.051 217.932C272.097 227.525 269.053 240.068 260.478 249.151H260.469Z" fill="#831A1A"/>
<path d="M258.043 251.538C249.817 259.12 238.825 264.18 227.368 265.53C224.951 265.816 222.247 265.977 219.303 265.887C217.405 265.834 215.409 265.673 213.341 265.378C211.246 265.083 209.08 264.654 206.843 264.046C204.005 263.286 201.06 262.249 198.062 260.872C197.703 260.711 197.354 260.541 196.996 260.371C196.629 260.192 196.262 260.014 195.895 259.826C192.843 258.27 189.737 256.357 186.631 254.006C186.577 253.97 186.506 253.943 186.452 253.925C186.416 253.907 186.38 253.89 186.344 253.872C186.318 253.872 186.282 253.872 186.255 253.872C186.183 253.863 186.103 253.854 186.031 253.863C186.013 253.863 185.995 253.881 185.977 253.881C185.897 253.898 185.807 253.925 185.736 253.97H185.727C185.727 253.97 185.664 254.033 185.637 254.059C185.593 254.095 185.539 254.122 185.503 254.176C185.503 254.176 185.503 254.176 185.503 254.185C185.467 254.238 185.449 254.292 185.423 254.346C185.405 254.39 185.369 254.426 185.36 254.471C185.36 254.506 185.36 254.551 185.36 254.587C185.36 254.649 185.342 254.712 185.36 254.784C185.36 254.81 185.378 254.837 185.387 254.873C185.405 254.945 185.422 255.016 185.467 255.079V255.088C185.494 255.132 188.296 259.763 190.775 269.231C192.888 277.277 195.152 290.446 194.571 308.666C138.196 326.082 76.9884 312.796 63.2126 309.381C62.9172 309.31 62.6397 309.247 62.389 309.176C62.0757 309.095 61.8072 309.024 61.5655 308.961C61.1448 308.854 60.8136 308.764 60.6167 308.711C60.1513 288.425 63.2752 273.54 65.9426 264.654C66.238 263.661 66.5335 262.749 66.8109 261.909C67.1153 260.988 67.4106 260.166 67.6792 259.432C68.7354 256.59 69.4962 255.096 69.5231 255.043C69.6931 254.712 69.6216 254.31 69.3441 254.059C69.0666 253.809 68.6549 253.782 68.3505 253.997C67.9119 254.292 57.5107 261.489 52.319 283.955C51.773 286.351 51.2001 288.569 50.6093 290.634C36.0905 278.332 14.5989 281.506 7.93032 282.883C7.61703 282.945 7.33949 283.008 7.08885 283.061C7.05305 283.061 7.0083 283.079 6.98145 283.079C7.61698 277.474 8.72691 273.37 8.76271 273.263C19.4235 228.866 56.9378 204.987 61.1091 202.448C61.1807 202.475 61.2523 202.501 61.3239 202.537C61.6372 202.662 61.9414 202.779 62.2547 202.904C75.7172 208.295 90.782 211.853 107.118 213.462C108.335 215.17 114.198 222.214 128.046 222.214C141.454 222.214 146.431 215.608 147.64 213.587C163.224 212.148 177.671 208.965 190.704 204.12C192.503 207.043 200.496 218.799 213.789 220.346C217.253 220.748 220.081 220.391 222.552 219.586C223.187 219.38 223.796 219.13 224.387 218.862C224.978 218.603 225.559 218.317 226.114 218.004C226.249 217.923 226.401 217.852 226.544 217.771C226.544 217.825 226.562 217.896 226.571 217.95C226.607 218.174 226.643 218.442 226.696 218.755C226.732 218.996 226.786 219.273 226.848 219.559C228.191 226.452 234.117 246.353 258.052 251.511L258.043 251.538Z" fill="white"/>
<path d="M127.912 183.306C133.256 183.306 136.147 180.392 136.263 180.267C136.577 179.945 136.568 179.426 136.245 179.113C135.923 178.801 135.404 178.81 135.091 179.131C135.064 179.158 132.567 181.679 127.903 181.679C123.329 181.679 121.091 179.283 120.984 179.167C120.688 178.827 120.169 178.801 119.838 179.096C119.498 179.391 119.471 179.909 119.766 180.24C119.874 180.365 122.541 183.306 127.903 183.306H127.912Z" fill="#831A1A"/>
<path d="M47.468 20.9797C47.468 20.9797 47.5486 20.9975 47.5934 20.9975C47.7635 20.9975 47.9246 20.8903 47.9783 20.7115C48.6228 18.691 48.6317 16.3576 48.6317 16.2592C48.6317 16.0357 48.4528 15.8569 48.229 15.8569C48.0052 15.8569 47.8261 16.0357 47.8261 16.2592C47.8261 16.2861 47.8262 18.5747 47.2175 20.4701C47.1459 20.6846 47.2711 20.9081 47.486 20.9797H47.468Z" fill="#831A1A"/>
<path d="M36.3412 31.0822C36.3412 31.0822 36.4218 31.1001 36.4665 31.1001C36.6366 31.1001 36.7977 30.9928 36.8514 30.814C37.4958 28.7935 37.5049 26.4601 37.5049 26.3618C37.5049 26.1383 37.3258 25.9595 37.102 25.9595C36.8782 25.9595 36.6993 26.1383 36.6993 26.3618C36.6993 26.3886 36.6992 28.6773 36.0905 30.5726C36.0189 30.7872 36.1443 31.0107 36.3591 31.0822H36.3412Z" fill="#831A1A"/>
<path d="M31.7946 53.5848C31.7946 53.5848 31.875 53.6027 31.9198 53.6027C32.0898 53.6027 32.251 53.4954 32.3047 53.3166C32.9492 51.2961 32.9581 48.9538 32.9581 48.8554C32.9581 48.6319 32.7792 48.4531 32.5554 48.4531C32.3316 48.4531 32.1525 48.6319 32.1525 48.8554C32.1525 48.8823 32.1526 51.1709 31.5349 53.0663C31.4633 53.2808 31.5887 53.5133 31.7946 53.5758V53.5848Z" fill="#831A1A"/>
<path d="M23.38 75.5416C23.1562 75.4879 22.9413 75.631 22.8966 75.8455C22.8966 75.8634 22.3774 78.0985 21.366 79.815C21.2496 80.0117 21.3211 80.262 21.5091 80.3693C21.5718 80.405 21.6435 80.4229 21.7151 80.4229C21.8583 80.4229 21.9926 80.3514 22.0642 80.2262C23.1383 78.4024 23.6664 76.1227 23.6932 76.0244C23.7469 75.8098 23.6037 75.5863 23.3889 75.5416H23.38Z" fill="#831A1A"/>
<path d="M36.0099 69.2656C36.0815 69.3103 36.1531 69.3282 36.2336 69.3282C36.3679 69.3282 36.5022 69.2656 36.5738 69.1405C37.7195 67.3614 38.3372 65.0995 38.364 65.0101C38.4267 64.7956 38.2923 64.572 38.0775 64.5095C37.8627 64.4558 37.639 64.581 37.5763 64.7955C37.5763 64.8134 36.9676 67.0217 35.8845 68.7024C35.7592 68.8902 35.8219 69.1405 36.0099 69.2656Z" fill="#831A1A"/>
<path d="M30.9076 89.2734C30.7018 89.1751 30.4601 89.2555 30.3616 89.4522C30.3079 89.5506 29.1264 91.9465 28.6341 94.9862C28.5983 95.2097 28.7505 95.4153 28.9743 95.4511C28.9922 95.4511 29.019 95.4511 29.0369 95.4511C29.2338 95.4511 29.4039 95.308 29.4398 95.1114C29.9052 92.2058 31.0778 89.8366 31.0867 89.8098C31.1852 89.6131 31.1046 89.3628 30.9076 89.2645V89.2734Z" fill="#831A1A"/>
<path d="M14.9394 98.9827C14.7246 98.9201 14.5009 99.0363 14.4293 99.2509C14.4024 99.3493 13.6863 101.647 13.4447 105.268C13.4268 105.491 13.5968 105.688 13.8205 105.697C13.8295 105.697 13.8385 105.697 13.8474 105.697C14.0622 105.697 14.2412 105.536 14.2502 105.321C14.4829 101.808 15.1901 99.5191 15.199 99.4923C15.2617 99.2777 15.1453 99.0542 14.9305 98.9827H14.9394Z" fill="#831A1A"/>
<path d="M13.4173 125.267C13.3994 125.043 13.1936 124.882 12.9787 124.9C12.755 124.918 12.5938 125.115 12.6117 125.338C12.6207 125.446 12.8623 128.02 13.471 130.202C13.5247 130.381 13.6859 130.497 13.8649 130.497C13.9007 130.497 13.9365 130.497 13.9723 130.479C14.1871 130.416 14.3124 130.193 14.2587 129.978C13.6769 127.877 13.4263 125.285 13.4263 125.258L13.4173 125.267Z" fill="#831A1A"/>
<path d="M25.2511 119.679C25.4749 119.679 25.6538 119.492 25.6538 119.268C25.6359 117.507 25.994 114.378 26.0029 114.342C26.0298 114.118 25.8688 113.922 25.645 113.895C25.4212 113.877 25.2243 114.029 25.1974 114.253C25.1795 114.387 24.8304 117.462 24.8483 119.277C24.8483 119.5 25.0363 119.679 25.2511 119.679Z" fill="#831A1A"/>
<path d="M25.43 140.116C25.3673 139.902 25.1526 139.777 24.9288 139.83C24.714 139.893 24.5886 140.116 24.6423 140.331C24.687 140.483 25.6896 144.077 26.5578 145.436C26.6384 145.561 26.7637 145.623 26.898 145.623C26.9696 145.623 27.0501 145.606 27.1128 145.561C27.3008 145.445 27.3545 145.185 27.2381 144.998C26.4325 143.737 25.4301 140.152 25.4211 140.116H25.43Z" fill="#831A1A"/>
<path d="M18.5023 150.889C18.4396 150.675 18.2248 150.55 18.001 150.603C17.7862 150.666 17.6608 150.889 17.7145 151.104C17.7504 151.22 18.547 154.054 20.1045 155.637C20.1851 155.717 20.2925 155.762 20.3909 155.762C20.4894 155.762 20.5969 155.726 20.6774 155.645C20.8385 155.485 20.8385 155.234 20.6774 155.073C19.2631 153.643 18.4934 150.925 18.4844 150.898L18.5023 150.889Z" fill="#831A1A"/>
<path d="M34.9808 159.767C34.8465 159.588 34.5869 159.553 34.4079 159.687C34.2288 159.821 34.1931 160.08 34.3273 160.259C34.4258 160.384 36.6636 163.316 37.7735 164.184C37.8451 164.237 37.9347 164.273 38.0242 164.273C38.1405 164.273 38.2658 164.219 38.3464 164.112C38.4807 163.933 38.4538 163.683 38.2748 163.54C37.2454 162.735 34.9986 159.794 34.9718 159.767H34.9808Z" fill="#831A1A"/>
<path d="M32.5375 172.337C32.3764 172.176 32.1257 172.176 31.9646 172.337C31.8035 172.498 31.8035 172.757 31.9646 172.909C32.0452 172.99 33.8712 174.796 35.3213 175.842C35.3929 175.895 35.4735 175.922 35.563 175.922C35.6883 175.922 35.8136 175.859 35.8942 175.752C36.0284 175.573 35.9837 175.314 35.8047 175.189C34.3993 174.179 32.5643 172.355 32.5464 172.337H32.5375Z" fill="#831A1A"/>
<path d="M52.776 186.096C50.8336 185.292 48.3542 182.77 48.3363 182.753C48.1841 182.592 47.9245 182.592 47.7634 182.753C47.6023 182.905 47.6023 183.164 47.7634 183.325C47.8708 183.432 50.3772 185.989 52.4807 186.856C52.5344 186.874 52.588 186.883 52.6328 186.883C52.7939 186.883 52.9461 186.785 53.0088 186.633C53.0983 186.427 52.9909 186.186 52.785 186.105L52.776 186.096Z" fill="#831A1A"/>
<path d="M69.0132 191.353C67.7511 191.004 64.6719 189.359 64.6361 189.341C64.4392 189.234 64.1885 189.306 64.0811 189.502C63.9737 189.699 64.0454 189.949 64.2423 190.057C64.3676 190.128 67.4289 191.764 68.7894 192.14C68.8252 192.149 68.861 192.157 68.8969 192.157C69.0759 192.157 69.2369 192.041 69.2906 191.862C69.3533 191.648 69.2191 191.424 69.0043 191.362L69.0132 191.353Z" fill="#831A1A"/>
<path d="M84.1942 201.964C82.5741 201.732 79.1458 200.319 79.11 200.311C78.9042 200.221 78.6624 200.328 78.5818 200.534C78.4923 200.74 78.5908 200.981 78.8056 201.062C78.9488 201.124 82.3682 202.528 84.0868 202.769C84.1047 202.769 84.1227 202.769 84.1406 202.769C84.3375 202.769 84.5165 202.626 84.5433 202.42C84.5791 202.197 84.418 201.991 84.1942 201.964Z" fill="#831A1A"/>
<path d="M92.5992 197.245C89.6185 197.245 88.3027 196.315 88.2848 196.297C88.1058 196.163 87.8552 196.199 87.7209 196.377C87.5866 196.556 87.6224 196.815 87.8014 196.95C87.8641 196.994 89.3052 198.067 92.6082 198.067C92.832 198.067 93.0109 197.888 93.0109 197.665C93.0109 197.441 92.832 197.262 92.6082 197.262L92.5992 197.245Z" fill="#831A1A"/>
<path d="M107.539 201.116C105.668 201.214 103.198 200.311 103.171 200.302C102.956 200.222 102.723 200.338 102.652 200.543C102.571 200.758 102.688 200.99 102.893 201.062C102.992 201.098 105.31 201.938 107.297 201.929C107.396 201.929 107.485 201.929 107.575 201.929C107.799 201.92 107.978 201.732 107.96 201.509C107.951 201.285 107.781 201.125 107.539 201.125V201.116Z" fill="#831A1A"/>
<path d="M127.688 205.093C124.537 205.701 122.138 205.102 122.111 205.093C121.887 205.04 121.673 205.165 121.619 205.388C121.565 205.612 121.69 205.827 121.914 205.88C121.986 205.898 123.096 206.175 124.805 206.175C125.683 206.175 126.712 206.104 127.84 205.889C128.064 205.844 128.207 205.63 128.162 205.415C128.117 205.192 127.903 205.049 127.688 205.093Z" fill="#831A1A"/>
<path d="M148.033 199.774C145.769 200.382 142.224 200.266 142.188 200.266C141.982 200.266 141.777 200.436 141.768 200.659C141.768 200.883 141.938 201.071 142.161 201.08C142.206 201.08 142.502 201.088 142.967 201.088C144.184 201.088 146.521 201.017 148.248 200.552C148.463 200.498 148.597 200.275 148.535 200.051C148.481 199.837 148.248 199.712 148.033 199.765V199.774Z" fill="#831A1A"/>
<path d="M164.092 202.215C161.353 203.208 158.632 203.369 158.605 203.369C158.381 203.378 158.211 203.574 158.22 203.798C158.229 204.012 158.408 204.182 158.623 204.182H158.641C158.757 204.182 161.505 204.012 164.361 202.984C164.575 202.904 164.683 202.671 164.602 202.466C164.522 202.251 164.289 202.153 164.083 202.224L164.092 202.215Z" fill="#831A1A"/>
<path d="M178.307 193.141C175.46 194.554 172.811 194.965 172.784 194.965C172.56 195.001 172.408 195.206 172.444 195.43C172.471 195.635 172.65 195.779 172.846 195.779C172.864 195.779 172.891 195.779 172.909 195.779C173.025 195.761 175.711 195.349 178.674 193.874C178.871 193.776 178.96 193.535 178.853 193.329C178.754 193.123 178.504 193.043 178.307 193.15V193.141Z" fill="#831A1A"/>
<path d="M200.29 184.531C197.703 186.373 195.143 187.187 195.125 187.196C194.91 187.267 194.794 187.491 194.857 187.705C194.91 187.875 195.072 187.991 195.242 187.991C195.286 187.991 195.322 187.991 195.367 187.973C195.474 187.938 198.07 187.115 200.764 185.202C200.944 185.077 200.988 184.817 200.863 184.639C200.729 184.46 200.478 184.415 200.299 184.54L200.29 184.531Z" fill="#831A1A"/>
<path d="M194.106 193.632C192.378 194.66 189.29 195.662 189.263 195.671C189.048 195.742 188.932 195.966 189.004 196.18C189.057 196.35 189.218 196.457 189.388 196.457C189.433 196.457 189.469 196.457 189.514 196.439C189.639 196.395 192.718 195.393 194.526 194.321C194.723 194.204 194.786 193.954 194.67 193.766C194.553 193.57 194.303 193.507 194.115 193.623L194.106 193.632Z" fill="#831A1A"/>
<path d="M216.089 174.965C213.806 177.424 210.745 179.328 210.718 179.355C210.53 179.471 210.468 179.722 210.584 179.918C210.665 180.043 210.79 180.106 210.933 180.106C211.005 180.106 211.076 180.088 211.148 180.043C211.273 179.963 214.326 178.059 216.689 175.52C216.841 175.359 216.832 175.099 216.671 174.947C216.51 174.795 216.25 174.804 216.098 174.965H216.089Z" fill="#831A1A"/>
<path d="M223.537 160.724C223.331 160.643 223.089 160.742 223.009 160.956C222.212 163.012 220.619 164.747 220.61 164.756C220.458 164.917 220.467 165.176 220.628 165.328C220.708 165.399 220.807 165.435 220.905 165.435C221.012 165.435 221.12 165.39 221.201 165.301C221.272 165.23 222.91 163.442 223.769 161.242C223.85 161.037 223.743 160.795 223.537 160.715V160.724Z" fill="#831A1A"/>
<path d="M231.959 165.337C231.753 165.247 231.512 165.337 231.422 165.551C230.608 167.464 228.298 169.521 228.271 169.539C228.101 169.691 228.083 169.941 228.236 170.111C228.316 170.2 228.424 170.245 228.54 170.245C228.638 170.245 228.728 170.209 228.808 170.146C228.907 170.057 231.279 167.956 232.165 165.873C232.255 165.667 232.165 165.426 231.95 165.337H231.959Z" fill="#831A1A"/>
<path d="M237.295 145.069C237.071 145.024 236.856 145.159 236.811 145.382C236.113 148.52 234.242 151.354 234.215 151.381C234.09 151.569 234.144 151.819 234.332 151.944C234.403 151.989 234.484 152.016 234.555 152.016C234.69 152.016 234.815 151.953 234.896 151.837C234.976 151.721 236.874 148.851 237.608 145.561C237.653 145.346 237.518 145.123 237.295 145.078V145.069Z" fill="#831A1A"/>
<path d="M231.566 139.071C231.566 139.071 231.637 139.089 231.682 139.089C231.861 139.089 232.022 138.972 232.076 138.794C232.112 138.668 232.953 135.7 232.542 132.383C232.515 132.16 232.3 131.999 232.085 132.035C231.861 132.062 231.7 132.267 231.736 132.491C232.13 135.638 231.306 138.552 231.297 138.579C231.235 138.794 231.36 139.017 231.575 139.08L231.566 139.071Z" fill="#831A1A"/>
<path d="M244.876 128.056C244.876 128.056 244.903 128.056 244.921 128.056C245.126 128.056 245.305 127.904 245.323 127.69C245.681 124.078 245.332 121.217 245.323 121.101C245.296 120.877 245.082 120.716 244.867 120.752C244.643 120.779 244.482 120.984 244.518 121.208C244.518 121.235 244.867 124.096 244.518 127.618C244.5 127.842 244.661 128.038 244.885 128.065L244.876 128.056Z" fill="#831A1A"/>
<path d="M236.409 107.324C236.409 107.324 237.456 111.525 237.554 115.021C237.554 115.245 237.742 115.414 237.957 115.414H237.966C238.19 115.414 238.369 115.218 238.36 114.994C238.252 111.409 237.232 107.297 237.187 107.118C237.134 106.903 236.91 106.769 236.695 106.823C236.48 106.877 236.346 107.1 236.4 107.315L236.409 107.324Z" fill="#831A1A"/>
<path d="M228.558 95.7644C228.558 95.7644 228.621 95.7644 228.656 95.7555C228.871 95.7018 229.006 95.4783 228.952 95.2638C228.621 93.9585 226.159 90.1857 226.061 90.0248C225.935 89.8371 225.685 89.7834 225.497 89.9086C225.309 90.0337 225.255 90.2841 225.38 90.4718C226.07 91.5268 227.923 94.4949 228.164 95.4694C228.209 95.6571 228.379 95.7733 228.558 95.7733V95.7644Z" fill="#831A1A"/>
<path d="M236.033 85.8493C236.077 86.037 236.238 86.1711 236.426 86.1711C236.453 86.1711 236.48 86.1711 236.516 86.1622C236.731 86.1175 236.874 85.894 236.829 85.6794C236.516 84.2579 234.404 80.1008 234.314 79.922C234.216 79.7253 233.965 79.6448 233.768 79.7431C233.571 79.8415 233.49 80.0918 233.589 80.2885C233.607 80.3332 235.737 84.5261 236.033 85.8493Z" fill="#831A1A"/>
<path d="M228.191 67.7814C228.263 67.9155 228.406 67.996 228.549 67.996C228.612 67.996 228.683 67.9781 228.746 67.9423C228.943 67.8351 229.015 67.5847 228.907 67.388C228.021 65.7788 226.875 59.628 226.866 59.5654C226.822 59.3419 226.616 59.2078 226.392 59.2435C226.168 59.2882 226.025 59.4939 226.07 59.7174C226.114 59.9766 227.251 66.0649 228.2 67.7814H228.191Z" fill="#831A1A"/>
<path d="M218.389 75.6935C218.389 75.6935 218.452 75.6935 218.488 75.6846C218.703 75.6309 218.837 75.4074 218.783 75.1929C218.184 72.788 216.975 68.2017 216.975 68.2017L216.188 68.4073C216.188 68.4073 217.396 72.9757 217.996 75.3806C218.04 75.5684 218.21 75.6846 218.389 75.6846V75.6935Z" fill="#831A1A"/>
<path d="M206.932 70.3563C206.932 70.3563 207.013 70.3563 207.049 70.3384C207.264 70.2758 207.389 70.0434 207.317 69.8288C207.317 69.802 206.422 66.8517 206.467 64.3932C206.467 64.1697 206.288 63.9819 206.064 63.9819C205.831 63.9819 205.652 64.1607 205.652 64.3842C205.617 66.968 206.503 69.945 206.539 70.0702C206.592 70.249 206.753 70.3563 206.923 70.3563H206.932Z" fill="#831A1A"/>
<path d="M225.712 42.9457C225.712 42.9457 225.775 42.9457 225.81 42.9368C226.025 42.8832 226.159 42.6597 226.106 42.4451C225.721 40.9253 225.309 36.6519 225.309 36.6072C225.291 36.3837 225.094 36.2317 224.862 36.2406C224.638 36.2585 224.477 36.4641 224.495 36.6876C224.512 36.8664 224.915 41.0683 225.318 42.6507C225.363 42.8385 225.533 42.9547 225.712 42.9547V42.9457Z" fill="#831A1A"/>
<path d="M217.486 30.7869C217.486 30.7869 217.504 30.7869 217.522 30.7869C217.746 30.769 217.916 30.5723 217.898 30.3488C217.719 28.1138 217.898 22.9821 217.898 22.9285C217.898 22.705 217.728 22.5172 217.504 22.5083C217.28 22.5262 217.092 22.6782 217.083 22.9017C217.083 23.1162 216.904 28.1317 217.083 30.4114C217.101 30.626 217.28 30.7869 217.486 30.7869Z" fill="#831A1A"/>
<path d="M213.207 52.3595C213.207 52.3595 213.261 52.3595 213.279 52.3595C213.502 52.3148 213.646 52.1092 213.601 51.8857C213.01 48.712 212.643 44.6084 212.643 44.5637C212.625 44.3402 212.428 44.1793 212.204 44.1972C211.981 44.215 211.819 44.4117 211.837 44.6352C211.837 44.6799 212.204 48.8192 212.813 52.0288C212.849 52.2254 213.019 52.3595 213.216 52.3595H213.207Z" fill="#831A1A"/>
<path d="M208.141 20.6847C208.258 20.6847 208.374 20.631 208.455 20.5416C209.69 19.0575 211.113 15.2848 211.176 15.1239C211.256 14.9093 211.149 14.6768 210.934 14.6053C210.728 14.5249 210.486 14.6321 210.415 14.8467C210.397 14.8825 208.983 18.6552 207.828 20.0231C207.685 20.1929 207.712 20.4522 207.882 20.5953C207.962 20.6578 208.052 20.6936 208.141 20.6936V20.6847Z" fill="#831A1A"/>
<path d="M198.822 52.5831C198.822 52.5831 197.972 56.9459 197.614 58.9664C197.578 59.1899 197.721 59.3955 197.945 59.4402C197.972 59.4402 197.99 59.4402 198.017 59.4402C198.214 59.4402 198.384 59.2972 198.419 59.1005C198.777 57.08 199.61 52.7708 199.619 52.7261C199.664 52.5026 199.52 52.2881 199.297 52.2523C199.082 52.2076 198.867 52.3507 198.822 52.5742V52.5831Z" fill="#831A1A"/>
<path d="M198.349 38.27C198.429 38.3415 198.528 38.3772 198.626 38.3772C198.733 38.3772 198.841 38.3325 198.921 38.2431C200.407 36.6339 201.49 33.2992 201.535 33.1562C201.607 32.9416 201.49 32.7092 201.276 32.6466C201.061 32.5751 200.828 32.6913 200.765 32.9059C200.756 32.9416 199.691 36.2048 198.322 37.6888C198.169 37.8498 198.178 38.109 198.349 38.261V38.27Z" fill="#831A1A"/>
<path d="M195.368 19.4331C195.502 19.4331 195.627 19.3705 195.708 19.2543C196.746 17.7076 199.467 15.3027 199.494 15.2848C199.664 15.1328 199.682 14.8825 199.53 14.7127C199.378 14.5428 199.127 14.5249 198.957 14.6769C198.841 14.7752 196.137 17.1712 195.036 18.8073C194.911 18.995 194.956 19.2453 195.144 19.3705C195.215 19.4152 195.296 19.442 195.368 19.442V19.4331Z" fill="#831A1A"/>
<path d="M188.377 35.9097C188.502 35.9097 188.618 35.8561 188.699 35.7488C189.307 34.9531 191.868 30.7781 191.975 30.5993C192.091 30.4115 192.029 30.1612 191.841 30.045C191.653 29.9288 191.402 29.9913 191.286 30.1791C191.259 30.2238 188.636 34.5061 188.054 35.2571C187.92 35.4359 187.947 35.6862 188.126 35.8293C188.197 35.8829 188.287 35.9097 188.377 35.9097Z" fill="#831A1A"/>
<path d="M175.058 34.1664C175.129 34.1664 175.21 34.1485 175.273 34.1038C176.49 33.3439 178.844 30.045 178.942 29.9019C179.077 29.7142 179.032 29.4638 178.844 29.3387C178.665 29.2135 178.405 29.2493 178.28 29.437C177.627 30.3579 175.729 32.8611 174.843 33.4243C174.655 33.5406 174.592 33.7909 174.718 33.9876C174.798 34.1127 174.923 34.1753 175.067 34.1753L175.058 34.1664Z" fill="#831A1A"/>
<path d="M180.428 52.3415C180.428 52.3415 180.509 52.3594 180.545 52.3594C180.724 52.3594 180.885 52.2432 180.939 52.0644C181.1 51.519 182.46 49.5969 183.284 48.5151C183.418 48.3363 183.382 48.0771 183.203 47.943C183.024 47.8088 182.774 47.8446 182.63 48.0234C182.407 48.3184 180.411 50.9647 180.151 51.8319C180.088 52.0465 180.214 52.27 180.428 52.3326V52.3415Z" fill="#831A1A"/>
<path d="M49.1773 44.5639C49.1504 44.7874 49.3026 44.9931 49.5264 45.0199C49.5443 45.0199 49.5622 45.0199 49.5801 45.0199C49.7771 45.0199 49.956 44.8679 49.9829 44.6623C50.2514 42.5703 49.9918 38.1538 49.9829 37.9661C49.965 37.7426 49.7681 37.5548 49.5533 37.5817C49.3295 37.5995 49.1594 37.7873 49.1683 38.0108C49.1683 38.0555 49.4368 42.5435 49.1683 44.555L49.1773 44.5639Z" fill="#831A1A"/>
<path d="M54.2978 65.2692C54.3515 65.2961 54.4052 65.305 54.4679 65.305C54.6201 65.305 54.7723 65.2156 54.8349 65.0636C55.4078 63.7941 55.3272 60.4505 55.3272 60.3074C55.3272 60.0839 55.1392 59.9141 54.9244 59.9141H54.9154C54.6917 59.9141 54.5126 60.1107 54.5215 60.3343C54.5484 61.2462 54.5216 63.8209 54.1098 64.7328C54.0203 64.9384 54.1098 65.1798 54.3157 65.2692H54.2978Z" fill="#831A1A"/>
<path d="M60.8587 45.1271C60.6439 45.1897 60.5275 45.4222 60.5901 45.6367C60.7155 46.0301 61.7985 49.5078 62.3625 50.3482C62.443 50.4644 62.5683 50.527 62.7026 50.527C62.7832 50.527 62.8548 50.5091 62.9264 50.4555C63.1144 50.3303 63.1681 50.08 63.0427 49.8923C62.622 49.2664 61.7001 46.4324 61.3779 45.3953C61.3152 45.1808 61.0825 45.0556 60.8677 45.1271H60.8587Z" fill="#831A1A"/>
<path d="M61.664 23.7689C61.7177 23.7957 61.7804 23.8046 61.843 23.8046C62.0041 23.8046 62.1564 23.7242 62.228 23.5811C62.3175 23.3755 62.2548 23.152 62.0489 23.0626C61.7982 22.8302 60.921 20.9974 60.2586 19.4239C60.1691 19.2183 59.9275 19.12 59.7216 19.2094C59.5157 19.2988 59.4173 19.5312 59.5068 19.7458C61.109 23.5364 61.5208 23.7242 61.664 23.7778V23.7689Z" fill="#831A1A"/>
<path d="M69.1563 35.9278C69.2368 36.0261 69.3532 36.0798 69.4785 36.0798C69.568 36.0798 69.6576 36.0529 69.7292 35.9904C69.9082 35.8473 69.935 35.597 69.7918 35.4182C69.0936 34.551 67.0438 30.9034 67.0259 30.8676C66.9185 30.6709 66.6679 30.5994 66.4709 30.7156C66.274 30.8229 66.2024 31.0733 66.3187 31.2699C66.4082 31.4219 68.4223 35.0069 69.1563 35.9278Z" fill="#831A1A"/>
<path d="M78.1249 52.3241C78.1876 52.3599 78.2593 52.3778 78.3309 52.3778C78.4741 52.3778 78.6084 52.3062 78.68 52.1721C78.7963 51.9754 78.7247 51.7251 78.5278 51.6178C77.6148 51.0904 75.2248 48.4977 74.3834 47.5501C74.2312 47.3802 73.9806 47.3623 73.8105 47.5143C73.6404 47.6663 73.6225 47.9166 73.7747 48.0865C73.9 48.2295 76.9075 51.6178 78.1249 52.3241Z" fill="#831A1A"/>
<path d="M86.1903 35.8473C86.2619 35.9904 86.4051 36.0708 86.5573 36.0708C86.62 36.0708 86.6827 36.0529 86.7364 36.0261C86.9333 35.9278 87.0228 35.6775 86.9154 35.4808C86.7274 35.1053 84.6865 32.6288 84.0599 31.8868C83.9167 31.717 83.6572 31.6901 83.4871 31.8332C83.3171 31.9762 83.2901 32.2355 83.4334 32.4053C84.4896 33.6838 86.047 35.597 86.1813 35.8473H86.1903Z" fill="#831A1A"/>
<path d="M99.8855 48.0684C99.9661 48.1668 100.082 48.2204 100.208 48.2204C100.297 48.2204 100.387 48.1936 100.458 48.131C100.637 47.988 100.664 47.7376 100.521 47.5588C99.2052 45.896 96.8869 43.5179 96.7885 43.4195C96.6363 43.2586 96.3767 43.2586 96.2156 43.4195C96.0544 43.5715 96.0544 43.8308 96.2156 43.9917C96.2424 44.0185 98.6055 46.4324 99.8945 48.0684H99.8855Z" fill="#831A1A"/>
<path d="M108.909 38.0734C108.954 38.2611 109.124 38.3952 109.303 38.3952C109.33 38.3952 109.365 38.3952 109.392 38.3863C109.607 38.3416 109.75 38.1181 109.705 37.9035C109.455 36.777 107.575 33.3261 107.495 33.1741C107.387 32.9775 107.136 32.9059 106.94 33.0132C106.743 33.1205 106.671 33.3708 106.778 33.5675C107.307 34.533 108.721 37.2419 108.909 38.0823V38.0734Z" fill="#831A1A"/>
<path d="M119.757 47.8893C119.793 48.086 119.963 48.2201 120.16 48.2201C120.187 48.2201 120.214 48.2201 120.24 48.2201C120.464 48.1754 120.607 47.9608 120.563 47.7463C120.312 46.4678 119.139 43.6785 119.095 43.5533C119.005 43.3477 118.772 43.2494 118.558 43.3388C118.352 43.4282 118.253 43.6606 118.343 43.8752C118.352 43.902 119.533 46.7092 119.766 47.8983L119.757 47.8893Z" fill="#831A1A"/>
<path d="M123.965 35.677C123.965 35.9005 124.144 36.0793 124.367 36.0793C124.591 36.0793 124.77 35.8915 124.77 35.668C124.77 34.7651 124 32.2976 123.911 32.0204C123.839 31.8059 123.616 31.6897 123.401 31.7522C123.186 31.8238 123.069 32.0473 123.132 32.2618C123.356 32.986 123.947 35.0154 123.956 35.668L123.965 35.677Z" fill="#831A1A"/>
<path d="M137.48 46.7813C137.534 46.7992 137.579 46.8081 137.633 46.8081C137.794 46.8081 137.946 46.7098 138.008 46.5489C138.313 45.7979 139.118 43.7953 139.262 43.5092C139.36 43.3125 139.28 43.0622 139.083 42.9638C138.877 42.8655 138.635 42.946 138.537 43.1427C138.358 43.5092 137.373 45.9677 137.257 46.2449C137.176 46.4505 137.274 46.6919 137.48 46.7724V46.7813Z" fill="#831A1A"/>
<path d="M140.649 35.2306C140.694 35.2485 140.748 35.2574 140.792 35.2574C140.953 35.2574 141.115 35.1591 141.177 34.9982C141.401 34.4081 142.037 32.781 142.314 32.3698C142.439 32.182 142.386 31.9317 142.198 31.8065C142.01 31.6814 141.759 31.735 141.634 31.9228C141.258 32.486 140.506 34.4886 140.416 34.7121C140.336 34.9267 140.443 35.1591 140.658 35.2306H140.649Z" fill="#831A1A"/>
<path d="M156.806 36.5715C156.86 36.5983 156.922 36.6072 156.976 36.6072C157.128 36.6072 157.271 36.5178 157.343 36.3748C157.361 36.3479 158.784 33.3262 159.473 32.3785C159.608 32.1997 159.563 31.9404 159.384 31.8153C159.205 31.6812 158.945 31.7259 158.82 31.9047C158.086 32.9149 156.672 35.9099 156.609 36.035C156.51 36.2407 156.609 36.4821 156.806 36.5715Z" fill="#831A1A"/>
<path d="M161.505 48.6225C161.568 48.6583 161.64 48.6851 161.72 48.6851C161.854 48.6851 161.989 48.6136 162.069 48.4884C162.078 48.4705 163.215 46.611 164.719 44.662C164.853 44.4832 164.826 44.2329 164.647 44.0898C164.468 43.9557 164.218 43.9826 164.074 44.1614C162.544 46.1461 161.389 48.0414 161.38 48.0593C161.264 48.247 161.326 48.4974 161.514 48.6136L161.505 48.6225Z" fill="#831A1A"/>
<path d="M15.0373 288.47C15.0283 288.246 14.8673 288.041 14.6166 288.085C14.3928 288.094 14.2228 288.282 14.2318 288.505C14.2497 288.935 14.4377 292.698 15.0105 293.664C15.0911 293.789 15.2253 293.861 15.3595 293.861C15.4311 293.861 15.5028 293.843 15.5655 293.807C15.7535 293.691 15.816 293.44 15.7086 293.253C15.3506 292.663 15.1089 290.007 15.0463 288.479L15.0373 288.47Z" fill="#831A1A"/>
<path d="M17.6425 302.077C17.5709 301.863 17.3382 301.755 17.1233 301.827C16.9085 301.898 16.8011 302.131 16.8727 302.345C16.989 302.676 18.0273 305.635 19.0746 306.502C19.1462 306.565 19.2447 306.592 19.3342 306.592C19.4506 306.592 19.5669 306.538 19.6475 306.44C19.7907 306.27 19.7639 306.011 19.5939 305.868C18.8509 305.26 17.9378 302.926 17.6425 302.077Z" fill="#831A1A"/>
<path d="M25.2596 293.414C25.2328 293.638 25.4029 293.834 25.6267 293.861C25.6446 293.861 25.6534 293.861 25.6713 293.861C25.8772 293.861 26.0563 293.709 26.0742 293.495C26.1637 292.574 26.0742 288.989 26.0742 288.837C26.0742 288.613 25.8862 288.443 25.6713 288.443H25.6624C25.4386 288.443 25.2596 288.631 25.2686 288.864C25.2686 288.899 25.3581 292.547 25.2686 293.414H25.2596Z" fill="#831A1A"/>
<path d="M29.4402 304.893C29.5208 304.893 29.5924 304.875 29.664 304.831C30.3711 304.366 31.481 302.622 31.6063 302.426C31.7227 302.238 31.669 301.988 31.481 301.862C31.293 301.746 31.0424 301.8 30.9171 301.988C30.4785 302.676 29.6371 303.874 29.2164 304.151C29.0285 304.276 28.9748 304.527 29.1001 304.714C29.1806 304.831 29.306 304.902 29.4402 304.893Z" fill="#831A1A"/>
<path d="M36.2431 295.747C36.3594 295.747 36.4668 295.703 36.5474 295.613C37.3082 294.755 37.9258 292.484 37.9885 292.234C38.0422 292.019 37.9169 291.796 37.7021 291.742C37.4873 291.679 37.2635 291.814 37.2098 292.028C37.0397 292.672 36.4848 294.469 35.9388 295.077C35.7866 295.247 35.8044 295.497 35.9745 295.649C36.0551 295.72 36.1446 295.747 36.2431 295.747Z" fill="#831A1A"/>
<path d="M37.6301 305.331C37.7107 305.447 37.836 305.501 37.9613 305.501C38.0418 305.501 38.1224 305.474 38.194 305.429C39.1339 304.777 40.8973 302.184 41.1031 301.889C41.2285 301.701 41.1837 301.451 40.9957 301.326C40.8078 301.201 40.5571 301.245 40.4318 301.433C39.9126 302.193 38.4267 304.276 37.7375 304.759C37.5495 304.884 37.5048 305.143 37.6391 305.322L37.6301 305.331Z" fill="#831A1A"/>
<path d="M241.099 218.915C239.076 219.738 237.187 221.258 237.107 221.32C236.928 221.463 236.901 221.714 237.044 221.892C237.125 221.991 237.241 222.044 237.357 222.044C237.447 222.044 237.536 222.017 237.617 221.955C237.635 221.937 239.488 220.453 241.403 219.666C241.609 219.577 241.708 219.344 241.627 219.139C241.537 218.933 241.305 218.835 241.099 218.915Z" fill="#831A1A"/>
<path d="M248.152 225.174C247.964 225.057 247.713 225.12 247.597 225.317C246.469 227.23 244.67 228.911 244.652 228.928C244.491 229.08 244.482 229.34 244.634 229.501C244.715 229.59 244.822 229.626 244.93 229.626C245.028 229.626 245.126 229.59 245.207 229.518C245.288 229.447 247.105 227.739 248.295 225.728C248.412 225.531 248.349 225.29 248.152 225.174Z" fill="#831A1A"/>
<path d="M254.678 214.293C254.66 214.07 254.463 213.909 254.239 213.918C252.941 214.007 249.763 214.982 249.629 215.017C249.414 215.08 249.298 215.312 249.361 215.527C249.414 215.706 249.576 215.813 249.746 215.813C249.781 215.813 249.826 215.813 249.862 215.795C249.898 215.786 253.084 214.812 254.293 214.731C254.517 214.714 254.687 214.517 254.669 214.293H254.678Z" fill="#831A1A"/>
<path d="M256.441 223.94C256.557 223.94 256.664 223.895 256.745 223.797C257.416 223.028 258.025 220.82 258.096 220.569C258.159 220.355 258.025 220.131 257.81 220.069C257.595 220.015 257.371 220.14 257.309 220.355C257.139 220.98 256.602 222.724 256.127 223.26C255.975 223.43 255.993 223.689 256.163 223.832C256.244 223.904 256.333 223.931 256.432 223.931L256.441 223.94Z" fill="#831A1A"/>
<path d="M255.411 231.092C255.197 231.03 254.973 231.146 254.901 231.36C254.901 231.378 254.176 233.622 252.735 234.981C252.574 235.133 252.565 235.392 252.717 235.553C252.798 235.634 252.905 235.678 253.012 235.678C253.111 235.678 253.209 235.643 253.29 235.571C254.883 234.069 255.644 231.709 255.68 231.602C255.752 231.387 255.626 231.164 255.411 231.092Z" fill="#831A1A"/>
<path d="M264.309 226.559C264.085 226.559 263.906 226.738 263.906 226.961C263.906 226.988 263.897 229.581 262.966 231.279C262.858 231.476 262.93 231.726 263.127 231.834C263.19 231.87 263.252 231.887 263.324 231.887C263.467 231.887 263.61 231.807 263.682 231.673C264.711 229.795 264.729 227.078 264.729 226.961C264.729 226.738 264.55 226.559 264.326 226.559H264.309Z" fill="#831A1A"/>
<path d="M260.523 238.164C260.326 238.056 260.075 238.128 259.968 238.325C259.95 238.36 258.017 241.847 256.236 242.866C256.039 242.982 255.976 243.224 256.083 243.42C256.155 243.555 256.298 243.626 256.441 243.626C256.513 243.626 256.576 243.608 256.647 243.572C258.625 242.446 260.604 238.87 260.684 238.718C260.792 238.521 260.72 238.271 260.523 238.164Z" fill="#831A1A"/>
<path d="M49.8045 337.847C49.8045 337.847 49.8581 337.847 49.885 337.847C49.9029 337.847 52.1854 337.364 54.6828 337.006C54.9066 336.971 55.0587 336.765 55.0319 336.55C54.9961 336.327 54.7902 336.175 54.5754 336.202C52.0601 336.559 49.7507 337.042 49.7238 337.051C49.509 337.096 49.3658 337.31 49.4105 337.534C49.4553 337.722 49.6165 337.856 49.8045 337.856V337.847Z" fill="#831A1A"/>
<path d="M44.6658 344.4C44.621 344.176 44.3972 344.033 44.1914 344.078C41.7566 344.561 39.304 345.75 39.1966 345.794C38.9907 345.893 38.9101 346.134 39.0086 346.34C39.0802 346.483 39.2235 346.572 39.3756 346.572C39.4383 346.572 39.492 346.563 39.5546 346.528C39.5815 346.519 42.0251 345.339 44.3524 344.874C44.5762 344.829 44.7194 344.614 44.6746 344.4H44.6658Z" fill="#831A1A"/>
<path d="M52.6592 347.296C52.6771 347.502 52.8561 347.663 53.0619 347.663C53.0798 347.663 53.0888 347.663 53.1067 347.663L57.5644 347.18C57.7882 347.153 57.9493 346.957 57.9224 346.733C57.8956 346.51 57.6897 346.358 57.4749 346.375L53.0172 346.858C52.7935 346.885 52.6323 347.082 52.6592 347.305V347.296Z" fill="#831A1A"/>
<path d="M56.5176 356.398C56.5176 356.621 56.6966 356.8 56.9203 356.8H61.378C61.6018 356.8 61.7809 356.621 61.7809 356.389C61.7809 356.156 61.6018 355.986 61.378 355.986H56.9203C56.6966 355.986 56.5176 356.165 56.5176 356.398Z" fill="#831A1A"/>
<path d="M46.2323 354.681C46.2323 354.681 43.3858 355.253 41.6135 354.69C41.3987 354.627 41.1659 354.743 41.1032 354.958C41.0316 355.172 41.157 355.396 41.3718 355.467C42.0521 355.682 42.8487 355.754 43.6006 355.754C45.0328 355.754 46.3218 355.494 46.4023 355.476C46.6261 355.432 46.7604 355.217 46.7156 354.994C46.6709 354.779 46.4561 354.627 46.2323 354.681Z" fill="#831A1A"/>
<path d="M49.0252 361.413C49.9024 361.618 50.7706 361.69 51.5404 361.69C53.0084 361.69 54.1095 361.431 54.1721 361.422C54.3869 361.368 54.5212 361.154 54.4764 360.93C54.4317 360.707 54.2078 360.581 53.9841 360.626C53.9572 360.626 51.5852 361.18 49.2131 360.626C48.9894 360.572 48.7745 360.707 48.7208 360.93C48.6671 361.154 48.8014 361.368 49.0252 361.422V361.413Z" fill="#831A1A"/>
<path d="M74.0346 335.138C74.0884 335.138 74.1421 335.129 74.1958 335.102C74.4017 335.012 74.5001 334.771 74.4106 334.565C73.7124 332.947 72.9963 328.093 72.9963 328.048C72.9605 327.825 72.7456 327.673 72.5308 327.708C72.307 327.744 72.155 327.95 72.1908 328.173C72.2176 328.379 72.9336 333.18 73.6676 334.896C73.7303 335.048 73.8825 335.147 74.0436 335.147L74.0346 335.138Z" fill="#831A1A"/>
<path d="M77.5798 349.263C77.356 349.299 77.2128 349.514 77.2486 349.737C77.2486 349.782 77.9648 353.912 77.9648 355.074C77.9648 355.298 78.1438 355.477 78.3675 355.477C78.5913 355.477 78.7704 355.298 78.7704 355.074C78.7704 353.841 78.0722 349.773 78.0453 349.594C78.0095 349.371 77.8036 349.228 77.5709 349.263H77.5798Z" fill="#831A1A"/>
<path d="M79.2981 369.673C79.0743 369.7 78.9132 369.897 78.94 370.121C78.94 370.156 79.2891 373.384 78.94 375.351C78.9042 375.574 79.0475 375.78 79.2712 375.824C79.2981 375.824 79.3161 375.824 79.3429 375.824C79.5398 375.824 79.7099 375.681 79.7457 375.485C80.1127 373.402 79.7636 370.165 79.7457 370.022C79.7188 369.799 79.5129 369.638 79.2981 369.665V369.673Z" fill="#831A1A"/>
<path d="M75.2072 392.721C74.9924 392.677 74.7686 392.811 74.7238 393.034C74.7238 393.07 73.9988 396.414 73.6408 397.835C73.587 398.05 73.7213 398.273 73.9361 398.327C73.9719 398.327 73.9987 398.336 74.0345 398.336C74.2136 398.336 74.3837 398.211 74.4285 398.032C74.7865 396.601 75.5115 393.24 75.5115 393.204C75.5563 392.99 75.422 392.766 75.1982 392.721H75.2072Z" fill="#831A1A"/>
<path d="M86.128 334.682C86.1011 334.458 85.8953 334.297 85.6715 334.333C85.4477 334.36 85.2866 334.566 85.3224 334.789C85.394 335.37 86.0653 340.538 86.5576 341.646C86.6292 341.798 86.7725 341.888 86.9336 341.888C86.9873 341.888 87.041 341.879 87.0947 341.852C87.3006 341.762 87.39 341.521 87.3005 341.315C86.9246 340.475 86.3249 336.246 86.128 334.691V334.682Z" fill="#831A1A"/>
<path d="M88.8937 360.876C88.6789 360.921 88.5357 361.136 88.5805 361.359C88.5894 361.404 89.5293 365.82 89.2966 367.421C89.2608 367.644 89.4219 367.85 89.6457 367.876C89.6636 367.876 89.6815 367.876 89.7083 367.876C89.9052 367.876 90.0842 367.733 90.1111 367.528C90.3617 365.793 89.4219 361.368 89.3861 361.18C89.3413 360.957 89.1175 360.832 88.9027 360.867L88.8937 360.876Z" fill="#831A1A"/>
<path d="M88.1057 392.114C87.8819 392.132 87.7119 392.328 87.7298 392.552C87.8641 394.242 87.9983 397.156 87.7566 397.791C87.676 398.005 87.7835 398.238 87.9983 398.309C88.043 398.327 88.0968 398.336 88.1415 398.336C88.3026 398.336 88.4638 398.238 88.5265 398.077C88.9114 397.058 88.589 392.945 88.5532 392.48C88.5353 392.257 88.3384 392.096 88.1146 392.105L88.1057 392.114Z" fill="#831A1A"/>
<path d="M91.6683 319.349C91.6504 319.126 91.4535 318.947 91.2297 318.974C91.0059 318.992 90.8359 319.188 90.8538 319.412C90.8896 319.913 91.2387 324.374 91.731 325.491C91.8026 325.643 91.9459 325.733 92.107 325.733C92.1607 325.733 92.2144 325.724 92.2681 325.697C92.474 325.607 92.5634 325.366 92.4739 325.16C92.098 324.32 91.7579 320.681 91.6595 319.349H91.6683Z" fill="#831A1A"/>
<path d="M99.4826 337.712L99.9033 343.676C99.9212 343.89 100.1 344.051 100.306 344.051C100.315 344.051 100.324 344.051 100.333 344.051C100.557 344.033 100.727 343.837 100.709 343.613L100.288 337.65L99.4736 337.704L99.4826 337.712Z" fill="#831A1A"/>
<path d="M103.421 366.24C103.403 366.464 103.573 366.66 103.797 366.678C103.806 366.678 103.815 366.678 103.824 366.678C104.039 366.678 104.218 366.517 104.227 366.303C104.352 364.586 103.743 361.091 103.716 360.939C103.681 360.715 103.466 360.563 103.242 360.608C103.018 360.644 102.875 360.858 102.911 361.082C102.911 361.118 103.519 364.631 103.412 366.249L103.421 366.24Z" fill="#831A1A"/>
<path d="M104.218 380.098C104.209 379.874 104.021 379.668 103.797 379.713C103.574 379.722 103.403 379.91 103.412 380.133C103.412 380.25 103.556 383.075 103.905 384.773C103.941 384.961 104.111 385.095 104.299 385.095C104.326 385.095 104.352 385.095 104.379 385.095C104.594 385.051 104.737 384.836 104.693 384.612C104.352 382.976 104.218 380.133 104.209 380.098H104.218Z" fill="#831A1A"/>
<path d="M107.986 393.553C107.762 393.571 107.601 393.776 107.619 394C107.619 394.036 107.968 397.594 107.619 400.043C107.583 400.267 107.745 400.472 107.968 400.499C107.986 400.499 108.004 400.499 108.031 400.499C108.228 400.499 108.407 400.356 108.434 400.151C108.801 397.603 108.452 394.062 108.434 393.91C108.416 393.687 108.21 393.526 107.986 393.544V393.553Z" fill="#831A1A"/>
<path d="M105.883 324.848C105.821 324.633 105.606 324.508 105.382 324.562C105.167 324.624 105.033 324.848 105.096 325.062C105.337 325.965 106.188 328.942 106.966 329.524C107.038 329.577 107.128 329.604 107.208 329.604C107.333 329.604 107.45 329.55 107.53 329.443C107.665 329.264 107.629 329.005 107.45 328.871C107.074 328.585 106.34 326.564 105.883 324.848Z" fill="#831A1A"/>
<path d="M122.067 336.201C120.447 335.683 118.03 333.6 118.003 333.582C117.833 333.439 117.573 333.457 117.43 333.627C117.287 333.797 117.305 334.056 117.475 334.199C117.582 334.288 120.044 336.407 121.825 336.979C121.87 336.988 121.906 336.997 121.951 336.997C122.121 336.997 122.282 336.89 122.335 336.711C122.407 336.497 122.282 336.273 122.076 336.201H122.067Z" fill="#831A1A"/>
<path d="M126.005 324.919C124.349 324.579 122.12 323.676 122.102 323.667C121.896 323.578 121.654 323.685 121.574 323.891C121.484 324.097 121.592 324.338 121.798 324.418C121.887 324.454 124.116 325.366 125.852 325.715C125.879 325.715 125.906 325.715 125.933 325.715C126.121 325.715 126.291 325.581 126.327 325.393C126.372 325.169 126.228 324.955 126.005 324.91V324.919Z" fill="#831A1A"/>
<path d="M138.072 335.584C136.532 336.183 132.522 336.166 132.522 336.183C132.298 336.183 132.119 336.362 132.119 336.586C132.119 336.809 132.298 336.997 132.522 336.997H132.54C132.853 336.997 136.72 336.979 138.367 336.344C138.573 336.264 138.68 336.031 138.6 335.817C138.519 335.611 138.278 335.504 138.072 335.584Z" fill="#831A1A"/>
<path d="M146.7 325.116C146.593 324.919 146.342 324.847 146.145 324.964C144.579 325.849 140.756 326.904 140.721 326.913C140.506 326.975 140.381 327.199 140.434 327.413C140.488 327.592 140.649 327.708 140.828 327.708C140.864 327.708 140.9 327.708 140.935 327.69C141.097 327.646 144.892 326.591 146.539 325.661C146.736 325.554 146.807 325.303 146.691 325.107L146.7 325.116Z" fill="#831A1A"/>
<path d="M145.715 358.186C145.715 358.186 145.742 358.186 145.76 358.186C145.966 358.186 146.145 358.034 146.163 357.819C146.288 356.594 145.939 352.5 145.921 352.321C145.903 352.098 145.706 351.937 145.483 351.954C145.259 351.972 145.098 352.169 145.116 352.393C145.116 352.437 145.474 356.585 145.357 357.739C145.339 357.962 145.5 358.159 145.724 358.186H145.715Z" fill="#831A1A"/>
<path d="M146.324 371.757C146.1 371.775 145.93 371.971 145.948 372.195C146.029 373.348 146.19 376.549 145.957 377.487C145.903 377.702 146.038 377.926 146.253 377.979C146.288 377.979 146.315 377.988 146.351 377.988C146.53 377.988 146.7 377.863 146.745 377.684C147.058 376.433 146.763 372.311 146.754 372.141C146.736 371.918 146.521 371.757 146.315 371.766L146.324 371.757Z" fill="#831A1A"/>
<path d="M145.617 392.301C145.599 392.078 145.393 391.917 145.178 391.926C144.954 391.944 144.784 392.14 144.802 392.364C144.811 392.534 145.124 396.44 146.001 398.005C146.073 398.139 146.216 398.211 146.36 398.211C146.431 398.211 146.494 398.193 146.556 398.157C146.753 398.05 146.825 397.799 146.709 397.603C145.921 396.19 145.617 392.328 145.617 392.292V392.301Z" fill="#831A1A"/>
<path d="M161.058 320.386C161.183 320.199 161.139 319.948 160.951 319.823C160.772 319.698 160.512 319.743 160.387 319.93C160.378 319.948 159.196 321.638 157.657 321.951C157.433 321.995 157.29 322.21 157.334 322.425C157.37 322.621 157.54 322.755 157.728 322.755C157.755 322.755 157.782 322.755 157.809 322.755C159.671 322.389 160.995 320.485 161.049 320.404L161.058 320.386Z" fill="#831A1A"/>
<path d="M189.2 314.137C188.985 314.19 188.841 314.405 188.895 314.62C188.895 314.637 189.325 316.56 188.895 318.526C188.85 318.741 188.985 318.964 189.208 319.009C189.235 319.009 189.262 319.018 189.298 319.018C189.486 319.018 189.656 318.884 189.692 318.696C190.157 316.56 189.71 314.53 189.692 314.441C189.647 314.226 189.432 314.083 189.208 314.137H189.2Z" fill="#831A1A"/>
<path d="M183.31 325.911C183.095 325.867 182.872 326.01 182.827 326.233C182.63 327.217 182.021 329.944 181.601 330.712C181.493 330.909 181.565 331.159 181.762 331.267C181.824 331.302 181.887 331.32 181.959 331.32C182.102 331.32 182.245 331.24 182.317 331.106C182.881 330.069 183.597 326.555 183.624 326.403C183.668 326.18 183.525 325.965 183.301 325.92L183.31 325.911Z" fill="#831A1A"/>
<path d="M163.797 330.498C163.573 330.498 163.394 330.686 163.394 330.909C163.394 330.936 163.394 333.922 162.795 335.451C162.714 335.657 162.812 335.898 163.027 335.978C163.072 335.996 163.126 336.005 163.179 336.005C163.341 336.005 163.493 335.907 163.555 335.746C164.218 334.065 164.209 331.026 164.209 330.9C164.209 330.677 164.03 330.498 163.806 330.498H163.797Z" fill="#831A1A"/>
<path d="M156.162 349.004C155.938 348.986 155.741 349.138 155.714 349.361C155.696 349.522 155.258 353.367 155.258 354.466C155.258 354.69 155.437 354.869 155.661 354.869C155.884 354.869 156.063 354.69 156.063 354.466C156.063 353.42 156.511 349.496 156.511 349.46C156.538 349.236 156.377 349.04 156.153 349.013L156.162 349.004Z" fill="#831A1A"/>
<path d="M156.851 367.421C156.618 367.403 156.439 367.59 156.43 367.814C156.43 367.975 156.341 371.819 156.43 372.829C156.448 373.044 156.627 373.196 156.833 373.196C156.842 373.196 156.86 373.196 156.869 373.196C157.093 373.178 157.254 372.981 157.236 372.758C157.146 371.801 157.236 367.877 157.236 367.841C157.236 367.617 157.066 367.43 156.842 367.421H156.851Z" fill="#831A1A"/>
<path d="M160.234 389.261C160.199 389.038 159.993 388.886 159.778 388.913C159.554 388.948 159.402 389.154 159.429 389.369C159.554 390.227 160.181 394.563 160.557 395.251C160.628 395.385 160.772 395.466 160.915 395.466C160.977 395.466 161.049 395.448 161.112 395.412C161.309 395.305 161.38 395.055 161.273 394.858C161.049 394.447 160.53 391.327 160.234 389.244V389.261Z" fill="#831A1A"/>
<path d="M175.854 389.476C175.648 389.557 175.541 389.798 175.63 390.004C176.051 391.05 177.143 393.991 177.143 395.055C177.143 395.278 177.322 395.457 177.546 395.457C177.77 395.457 177.949 395.278 177.949 395.055C177.949 393.607 176.445 389.861 176.382 389.7C176.302 389.494 176.06 389.396 175.854 389.476Z" fill="#831A1A"/>
<path d="M169.777 375.369C169.553 375.369 169.374 375.547 169.374 375.762C169.374 375.941 169.284 380.134 169.374 381.135C169.392 381.35 169.571 381.502 169.777 381.502C169.785 381.502 169.803 381.502 169.812 381.502C170.036 381.484 170.197 381.287 170.179 381.064C170.09 380.107 170.179 375.825 170.179 375.78C170.179 375.556 170.009 375.369 169.785 375.369H169.777Z" fill="#831A1A"/>
<path d="M175.962 363.603C175.872 362.262 176.4 358.624 176.409 358.588C176.445 358.364 176.284 358.159 176.069 358.123C175.854 358.096 175.639 358.239 175.603 358.463C175.586 358.615 175.057 362.226 175.147 363.648C175.165 363.862 175.344 364.032 175.55 364.032C175.55 364.032 175.568 364.032 175.577 364.032C175.8 364.014 175.97 363.827 175.953 363.603H175.962Z" fill="#831A1A"/>
<path d="M171.432 340.243C171.217 340.234 171.012 340.386 170.985 340.609C170.985 340.645 170.618 344.382 170.188 345.955C170.125 346.17 170.251 346.393 170.474 346.456C170.51 346.465 170.546 346.474 170.582 346.474C170.761 346.474 170.922 346.358 170.976 346.179C171.432 344.534 171.79 340.85 171.799 340.69C171.817 340.466 171.656 340.269 171.432 340.243Z" fill="#831A1A"/>
<path d="M117.582 272.843L114.002 268.086C109.893 273.656 105.597 277.286 105.4 277.447C105.131 277.67 105.024 278.046 105.14 278.386C105.257 278.716 105.57 278.949 105.919 278.949L108.712 278.976L108.327 282.033C108.3 282.266 108.363 282.507 108.515 282.686C108.685 282.891 108.927 282.99 109.168 282.99C109.347 282.99 109.535 282.927 109.687 282.802C109.875 282.641 113.993 279.208 118.272 273.772L118.075 273.504L117.582 272.834V272.843Z" fill="white"/>
<path d="M96.6103 239.379C96.5029 239.379 96.4134 239.468 96.4134 239.576V250.688H91.195V239.576C91.195 239.468 91.1054 239.379 90.998 239.379H84.6696C84.5621 239.379 84.4727 239.468 84.4727 239.576V270.088C84.4727 270.196 84.5622 270.285 84.6785 270.285H91.0069C91.1143 270.285 91.2039 270.196 91.2039 270.088V257.599H96.4224V270.088C96.4224 270.196 96.5119 270.285 96.6193 270.285H102.939C103.046 270.285 103.136 270.196 103.136 270.088V239.576C103.136 239.468 103.046 239.379 102.93 239.379H96.6103Z" fill="#E63031"/>
<path d="M163.869 263.366V258.208H169.831C169.938 258.208 170.027 258.118 170.027 258.011V251.681C170.027 251.574 169.938 251.485 169.831 251.485H163.869V246.255H170.77C170.878 246.255 170.967 246.165 170.967 246.058V239.567C170.967 239.46 170.878 239.371 170.77 239.371H156.735C156.628 239.371 156.538 239.46 156.538 239.567V270.08C156.538 270.187 156.628 270.277 156.735 270.277H170.815C170.923 270.277 171.012 270.187 171.012 270.08V263.563C171.012 263.455 170.923 263.366 170.815 263.366H163.869Z" fill="#E63031"/>
<path d="M142.377 239.371H134.303C134.303 239.371 134.241 239.388 134.214 239.406V270.187C134.214 270.187 134.259 270.277 134.303 270.277H140.829C140.936 270.277 141.026 270.187 141.026 270.08V258.664H141.948C145.072 258.664 147.56 257.796 149.332 256.08C151.105 254.363 152.009 251.967 152.009 248.954C152.009 245.942 151.123 243.76 149.368 242.008C147.614 240.256 145.26 239.371 142.377 239.371ZM143.944 251.574C143.425 251.994 142.682 252.253 141.706 252.37L141.026 252.45V245.611L141.706 245.682C142.717 245.79 143.478 246.04 143.98 246.442C144.597 246.943 144.92 247.819 144.92 249.062C144.92 250.224 144.606 251.055 143.953 251.583L143.944 251.574Z" fill="#E63031"/>
<path d="M123.025 266.745C121.163 264.438 118.683 260.281 118.683 260.281C117.09 257.429 116.088 254.801 115.712 252.468C115.273 249.732 115.864 247.533 117.296 246.576C117.717 246.299 118.155 246.147 118.621 246.147C118.639 246.147 118.657 246.147 118.674 246.147C118.8 246.147 118.916 246.183 119.041 246.209C119.283 246.263 119.525 246.343 119.731 246.478C121.029 247.336 121.53 249.759 121.038 252.798C120.76 254.506 119.981 257.081 119.31 258.878C120.626 261.175 122.667 264.152 123.687 265.52C125.531 261.864 127.178 257.447 127.742 253.916C129.094 245.449 125.173 241.847 123.428 240.693C122.094 239.808 120.581 239.361 119.032 239.29C118.889 239.29 118.755 239.281 118.612 239.281C116.875 239.281 115.121 239.772 113.572 240.801C109.822 243.295 108.112 248.087 108.998 253.612C109.652 257.653 111.594 262.159 114.79 267.004L118.567 272.118L119.131 272.86C123.284 277.947 127.321 281.63 128.127 282.355C128.279 282.498 128.476 282.569 128.673 282.569C128.798 282.569 128.932 282.542 129.049 282.48C129.353 282.328 129.532 281.997 129.505 281.648L129.255 278.671L132.11 278.761C132.11 278.761 132.146 278.761 132.164 278.761C132.388 278.761 132.611 278.644 132.763 278.466C132.907 278.296 132.996 278.054 132.978 277.831C132.96 277.607 132.871 277.384 132.71 277.232C132.656 277.187 127.634 272.708 123.034 266.754L123.025 266.745Z" fill="#E63031"/>
<path d="M134.106 239.576V270.089C134.106 270.151 134.178 270.16 134.223 270.196V239.415C134.16 239.451 134.106 239.504 134.106 239.576Z" fill="#3EBAC2"/>
<path d="M124.519 266.62L124.797 266.075C126.873 261.971 128.431 257.492 128.977 254.095C130.445 244.895 126.068 240.899 124.116 239.612C122.657 238.646 120.921 238.083 119.104 238.003C118.943 238.003 118.782 237.994 118.62 237.994C116.58 237.994 114.601 238.593 112.91 239.719C108.729 242.499 106.823 247.756 107.789 253.791C108.434 257.796 110.278 262.195 113.268 266.897L113.232 266.951L113.259 266.987L113.008 267.326C108.989 272.78 104.782 276.32 104.612 276.472C103.941 277.035 103.69 277.974 103.976 278.806C104.263 279.637 105.041 280.2 105.91 280.209L107.315 280.227L107.109 281.881C107.038 282.462 107.208 283.061 107.584 283.508C107.986 283.991 108.568 284.259 109.186 284.259C109.66 284.259 110.117 284.089 110.484 283.794C110.663 283.651 114.798 280.191 119.113 274.747C122.997 279.342 126.587 282.623 127.321 283.276C127.697 283.615 128.18 283.803 128.69 283.803C129.013 283.803 129.335 283.723 129.621 283.58C130.391 283.186 130.83 282.373 130.758 281.514L130.633 279.959L132.056 280.004H132.074H132.19C132.763 280.004 133.336 279.735 133.721 279.279C134.088 278.85 134.276 278.287 134.24 277.733C134.204 277.161 133.945 276.624 133.542 276.267C133.497 276.231 128.914 272.127 124.546 266.62H124.519ZM109.687 282.811C109.535 282.936 109.356 282.999 109.168 282.999C108.926 282.999 108.685 282.891 108.515 282.695C108.362 282.516 108.291 282.274 108.327 282.042L108.711 278.984L105.919 278.958C105.57 278.958 105.256 278.725 105.14 278.394C105.024 278.055 105.122 277.688 105.4 277.456C105.596 277.286 109.893 273.665 114.002 268.095L117.582 272.851L118.074 273.522L118.271 273.79C114.002 279.226 109.884 282.659 109.687 282.82V282.811ZM132.763 278.448C132.611 278.627 132.387 278.743 132.163 278.743C132.146 278.743 132.128 278.743 132.11 278.743L129.254 278.654L129.505 281.631C129.532 281.979 129.353 282.301 129.048 282.462C128.932 282.525 128.798 282.552 128.673 282.552C128.476 282.552 128.279 282.48 128.127 282.337C127.321 281.613 123.293 277.921 119.131 272.842L118.567 272.1L114.789 266.987C111.603 262.141 109.651 257.644 108.998 253.594C108.103 248.069 109.812 243.286 113.572 240.783C115.112 239.755 116.866 239.263 118.611 239.263C118.755 239.263 118.898 239.263 119.032 239.272C120.581 239.344 122.093 239.8 123.427 240.676C125.173 241.829 129.093 245.441 127.742 253.898C127.178 257.43 125.531 261.846 123.687 265.503C122.666 264.135 120.616 261.167 119.31 258.86C119.99 257.072 120.769 254.497 121.037 252.781C121.521 249.741 121.019 247.318 119.73 246.46C119.524 246.326 119.283 246.245 119.041 246.192C118.925 246.165 118.799 246.138 118.674 246.129C118.656 246.129 118.638 246.129 118.62 246.129C118.146 246.129 117.707 246.281 117.296 246.558C115.863 247.515 115.273 249.714 115.711 252.45C116.087 254.792 117.09 257.412 118.683 260.264C118.683 260.264 121.162 264.421 123.024 266.727C127.634 272.682 132.656 277.161 132.701 277.205C132.871 277.357 132.96 277.581 132.969 277.804C132.987 278.028 132.897 278.269 132.754 278.439L132.763 278.448ZM118.558 257.287C117.734 255.481 117.188 253.8 116.938 252.253C116.58 250.063 116.982 248.284 117.976 247.622C118.2 247.47 118.405 247.399 118.629 247.399C118.656 247.399 118.692 247.408 118.719 247.417L118.79 247.434C118.943 247.47 119.014 247.497 119.059 247.524C119.739 247.98 120.276 249.75 119.82 252.575C119.605 253.907 119.077 255.758 118.558 257.278V257.287Z" fill="#831A1A"/>
<path d="M104.371 270.089V239.576C104.371 238.861 103.825 238.289 103.135 238.191C103.064 238.182 103.01 238.155 102.938 238.155H96.6189C95.8312 238.155 95.1957 238.798 95.1957 239.585V249.473H92.4388V239.585C92.4388 238.798 91.7942 238.155 91.0065 238.155H84.6781C83.8904 238.155 83.2549 238.798 83.2549 239.585V270.098C83.2549 270.885 83.8993 271.52 84.687 271.52H91.0155C91.8032 271.52 92.4388 270.876 92.4388 270.089V258.833H95.1957V270.089C95.1957 270.876 95.8401 271.511 96.6278 271.511H102.947C103.019 271.511 103.082 271.484 103.144 271.466C103.834 271.368 104.371 270.795 104.371 270.08V270.089ZM103.135 270.089C103.135 270.196 103.046 270.286 102.938 270.286H96.6189C96.5115 270.286 96.422 270.196 96.422 270.089V257.6H91.2035V270.089C91.2035 270.196 91.1139 270.286 91.0065 270.286H84.6781C84.5707 270.286 84.4812 270.196 84.4812 270.089V239.576C84.4812 239.469 84.5617 239.38 84.6781 239.38H91.0065C91.1139 239.38 91.2035 239.469 91.2035 239.576V250.689H96.422V239.576C96.422 239.469 96.5115 239.38 96.6189 239.38H102.938C103.046 239.38 103.135 239.469 103.135 239.576V270.089Z" fill="#831A1A"/>
<path d="M141.706 245.673L141.025 245.602V252.441L141.715 252.36C142.681 252.253 143.433 251.985 143.952 251.565C144.606 251.037 144.919 250.206 144.919 249.044C144.919 247.801 144.606 246.916 143.979 246.424C143.478 246.022 142.717 245.771 141.706 245.664V245.673ZM143.165 250.626C142.95 250.796 142.637 250.939 142.252 251.028V247.005C142.672 247.095 143.004 247.229 143.201 247.399C143.514 247.649 143.675 248.221 143.675 249.061C143.675 249.83 143.505 250.349 143.165 250.626Z" fill="#831A1A"/>
<path d="M142.377 238.146H134.303C134.303 238.146 134.25 238.163 134.214 238.163C133.471 238.208 132.871 238.816 132.871 239.576V270.089C132.871 270.849 133.471 271.448 134.214 271.492C134.241 271.492 134.267 271.51 134.303 271.51H140.829C141.616 271.51 142.252 270.867 142.252 270.08V259.897C145.564 259.843 148.231 258.86 150.183 256.974C152.206 255.016 153.235 252.325 153.235 248.963C153.235 245.763 152.223 243.134 150.236 241.14C148.24 239.147 145.6 238.146 142.377 238.146ZM149.332 256.088C147.56 257.805 145.072 258.672 141.948 258.672H141.026V270.089C141.026 270.196 140.936 270.285 140.829 270.285H134.303C134.258 270.285 134.25 270.232 134.214 270.205C134.169 270.169 134.106 270.151 134.106 270.098V239.585C134.106 239.513 134.151 239.46 134.214 239.424C134.241 239.406 134.267 239.388 134.303 239.388H142.377C145.259 239.388 147.614 240.273 149.368 242.026C151.123 243.778 152.009 246.12 152.009 248.972C152.009 251.985 151.114 254.381 149.332 256.097V256.088Z" fill="#831A1A"/>
<path d="M170.815 262.141H165.095V259.441H169.83C170.618 259.441 171.254 258.797 171.254 258.01V251.681C171.254 250.894 170.609 250.25 169.83 250.25H165.095V247.479H170.77C171.558 247.479 172.194 246.835 172.194 246.048V239.558C172.194 238.771 171.549 238.127 170.761 238.127H156.726C155.938 238.127 155.303 238.771 155.303 239.558V270.071C155.303 270.857 155.947 271.492 156.735 271.492H170.815C171.603 271.492 172.247 270.849 172.247 270.062V263.544C172.247 262.758 171.603 262.123 170.815 262.123V262.141ZM171.012 270.08C171.012 270.187 170.922 270.276 170.815 270.276H156.735C156.627 270.276 156.538 270.187 156.538 270.08V239.567C156.538 239.46 156.619 239.37 156.735 239.37H170.77C170.878 239.37 170.967 239.46 170.967 239.567V246.057C170.967 246.165 170.878 246.254 170.77 246.254H163.869V251.484H169.83C169.938 251.484 170.027 251.573 170.027 251.681V258.01C170.027 258.118 169.938 258.207 169.83 258.207H163.869V263.366H170.815C170.922 263.366 171.012 263.455 171.012 263.562V270.08Z" fill="#831A1A"/>
</svg>
