<svg width="272" height="417" viewBox="0 0 272 417" fill="none" xmlns="http://www.w3.org/2000/svg">
<path d="M270.87 221.535C270.557 220.078 270.118 218.665 269.546 217.306C269.017 216.046 268.382 214.874 267.666 213.793C267.46 213.48 267.254 213.185 267.03 212.881C266.806 212.586 266.583 212.3 266.35 212.023C266.001 211.602 265.634 211.2 265.249 210.816C264.354 209.922 263.387 209.117 262.34 208.42C262.044 208.223 261.731 208.026 261.418 207.847C260.8 207.481 260.147 207.15 259.484 206.855C258.643 206.489 257.784 206.167 256.88 205.899C256.495 205.782 256.101 205.684 255.698 205.595C255.295 205.505 254.901 205.425 254.49 205.353C253.666 205.219 252.834 205.112 251.975 205.058C251.563 205.031 251.142 205.004 250.721 204.996C241.161 204.835 236.059 208.795 231.083 212.622C228.317 214.758 225.64 216.806 222.292 217.959C222.096 218.021 221.89 218.093 221.684 218.156C221.46 218.218 221.227 218.29 220.995 218.352C220.789 218.406 220.583 218.451 220.377 218.504C219.67 218.656 218.945 218.772 218.175 218.835C216.886 218.942 215.499 218.933 213.986 218.754C212.589 218.594 211.256 218.307 209.976 217.914C209.662 217.816 209.34 217.717 209.036 217.61C207.953 217.226 206.896 216.779 205.912 216.278C205.625 216.135 205.348 215.992 205.07 215.831C202.17 214.24 199.7 212.219 197.713 210.243C197.525 210.056 197.337 209.868 197.158 209.68C196.245 208.741 195.457 207.839 194.777 206.998C194.499 206.658 194.249 206.337 194.007 206.033C193.891 205.872 193.774 205.72 193.667 205.577C193.443 205.282 193.246 205.004 193.067 204.745C192.969 204.611 192.888 204.495 192.807 204.37H192.27V202.743H194.284C203.943 198.845 212.786 194.008 220.646 188.242C224.933 185.104 228.854 181.715 232.407 178.112C247.785 162.521 256.101 142.96 256.101 121.754C256.101 112.009 254.946 102.818 252.673 94.2625C252.136 92.242 251.536 90.2662 250.874 88.3262C250.542 87.3606 250.193 86.3951 249.835 85.4385C249.656 84.9647 249.468 84.4819 249.28 84.017C248.716 82.5955 248.108 81.2008 247.481 79.8241C246.846 78.4473 246.174 77.0973 245.467 75.7652C244.993 74.8712 244.509 73.9951 244.008 73.1189C243.99 73.0653 243.972 73.0027 243.945 72.9222C243.919 72.8418 243.892 72.7434 243.856 72.6362C243.838 72.5825 243.82 72.5199 243.802 72.4573C243.739 72.2696 243.677 72.0461 243.596 71.7868C243.444 71.2772 243.256 70.6425 243.032 69.8915C242.925 69.516 242.809 69.1137 242.692 68.6935C242.45 67.8442 242.182 66.8876 241.905 65.8505C240.553 60.8262 238.834 53.7902 237.644 46.5487C237.483 45.5474 237.331 44.5461 237.187 43.5448C236.972 42.0428 236.784 40.5409 236.641 39.0568C236.587 38.5562 236.543 38.0645 236.498 37.5817C236.292 35.1678 235.952 32.7182 235.469 30.2776C233.687 21.248 230.026 12.3972 224.477 6.68443C224.325 6.53244 224.181 6.38046 224.02 6.22848C221.577 3.82357 218.784 2.02659 215.642 1.06999C215.4 0.99847 215.149 0.944829 214.908 0.882247C214.084 0.658743 213.252 0.470999 212.428 0.336896C211.775 0.229614 211.121 0.140212 210.468 0.0776309C210.253 0.0597506 210.029 0.0418702 209.815 0.03293C201.204 -0.423019 192.333 3.85039 182.344 13.1929C177.018 18.1726 172.945 21.3553 168.46 22.7589C167.61 23.0271 166.733 23.2327 165.847 23.3668C164.155 23.6261 162.374 23.6708 160.413 23.4741C160.145 23.4562 159.867 23.4204 159.59 23.3847C159.581 23.3847 159.572 23.3847 159.563 23.3847H159.545C150.379 22.0079 140.694 21.2748 130.714 21.1586C129.818 21.1496 128.923 21.1407 128.028 21.1407C117.099 21.1407 106.492 21.9006 96.511 23.4026C96.1709 23.4383 95.8488 23.4651 95.5176 23.5009C94.1123 23.635 92.7875 23.6529 91.5344 23.5456C85.3133 23.0181 80.5333 19.594 73.7125 13.2197C67.1692 7.09567 61.1005 3.17093 55.2733 1.31138C53.134 0.622982 51.0393 0.220674 48.9537 0.0955113C46.519 -0.0564718 44.12 0.167033 41.7211 0.757085C41.2825 0.864367 40.8529 0.971649 40.4143 1.09681C34.1217 3.01001 29.2344 8.28472 25.7614 15.0167C25.3318 15.8571 24.9109 16.7153 24.526 17.6004C24.1322 18.4855 23.7652 19.3884 23.4251 20.3003C23.255 20.7563 23.0849 21.2212 22.9237 21.6861C22.4404 23.0807 22.0018 24.5022 21.6169 25.9505C21.3663 26.9071 21.1246 27.8816 20.9097 28.8561C20.2653 31.7795 19.8267 34.7298 19.576 37.6175C19.209 42.0071 18.493 46.6202 17.6427 51.0098C17.2667 52.9677 16.8638 54.872 16.4521 56.6958C15.736 59.8964 14.9932 62.8466 14.3218 65.341C14.2234 65.6986 14.1338 66.0472 14.0353 66.387C13.8563 67.0664 13.6772 67.7012 13.5161 68.2912C13.4355 68.5863 13.346 68.8723 13.2744 69.1405C13.2386 69.2746 13.1939 69.4087 13.1581 69.5428C13.0865 69.8021 13.0149 70.0524 12.9433 70.2938C12.809 70.7676 12.6836 71.1878 12.5762 71.5633C12.5225 71.7421 12.4688 71.9209 12.4241 72.0729C12.4062 72.1534 12.3793 72.2249 12.3614 72.2964C12.2987 72.511 12.2361 72.6898 12.1913 72.8328C12.1376 72.9848 12.1109 73.0921 12.084 73.1636C11.8334 73.6017 11.5827 74.0398 11.35 74.4778C10.1326 76.6771 9.01374 78.939 7.99331 81.2545C7.79638 81.7194 7.59058 82.1843 7.39365 82.6492C6.80288 84.0528 6.24781 85.4832 5.72864 86.9226C5.37955 87.8881 5.04826 88.8626 4.73497 89.846C4.42168 90.8294 4.11734 91.8128 3.83986 92.8141C3.55342 93.8154 3.28497 94.8167 3.03434 95.8359C1.02033 103.963 0 112.643 0 121.816C0 138.945 5.42435 155.002 15.6197 168.752C16.1031 169.405 16.6042 170.057 17.1055 170.701C17.6157 171.345 18.1349 171.979 18.654 172.614C20.2384 174.51 21.9213 176.36 23.6936 178.166C27.2472 181.76 31.1767 185.148 35.4643 188.286C42.6342 193.543 50.6008 198.031 59.2744 201.741C53.0176 205.738 27.5068 223.412 13.5609 254.354C12.7821 256.071 12.0482 257.832 11.35 259.629C10.8845 260.827 10.437 262.052 10.0073 263.294C9.79249 263.911 9.58665 264.537 9.38078 265.163C8.56622 267.675 7.83227 270.259 7.18779 272.914C6.96401 273.728 2.35407 290.66 6.85649 303.391C6.99076 303.767 7.13395 304.133 7.27717 304.509C7.57256 305.242 7.90385 305.966 8.27084 306.663C8.53938 307.191 8.83476 307.7 9.157 308.201C9.26441 308.371 9.3717 308.532 9.47912 308.693C9.62234 308.907 9.76554 309.104 9.91771 309.31C12.1376 312.331 15.0736 314.486 18.6899 315.782C20.3727 316.381 22.1988 316.793 24.1681 317.007C25.9315 317.204 27.5873 317.266 29.1627 317.204C31.6779 317.097 33.9606 316.641 36.0373 315.809C43.0997 312.984 47.8795 305.76 51.7553 292.627C51.8627 292.475 51.9166 292.288 51.9077 292.109C52.5969 289.713 53.2682 287.147 53.9127 284.358C54.772 280.656 55.7746 277.375 56.8577 274.488C57.1262 273.763 57.4036 273.066 57.6811 272.387C57.8154 272.047 57.9675 271.716 58.1018 271.385C58.5225 270.402 58.9521 269.481 59.3817 268.605C59.9546 267.443 60.5366 266.361 61.1095 265.369C61.5391 264.618 61.9687 263.92 62.3894 263.277C63.929 260.899 65.379 259.119 66.5516 257.868C66.4442 258.154 66.3279 258.467 66.2116 258.789C65.8804 259.656 65.5311 260.657 65.1552 261.784C65.0567 262.07 64.9673 262.356 64.8689 262.651C64.7257 263.098 64.5825 263.563 64.4392 264.037C64.1439 265.002 63.8485 266.048 63.5441 267.157C63.4636 267.443 63.392 267.729 63.3204 268.024C63.1682 268.614 63.016 269.222 62.8638 269.839C62.7922 270.152 62.7117 270.473 62.6401 270.795C60.2859 280.808 58.2539 295.22 59.1669 313.637C59.3101 316.524 59.4892 319.189 59.6951 321.665C59.7936 322.899 59.9098 324.088 60.0262 325.223C60.053 325.447 60.08 325.679 60.0979 325.903C60.1158 326.117 60.1427 326.341 60.1606 326.555C56.7412 326.591 53.4829 326.984 50.4395 327.673C38.5882 330.391 30.1295 337.793 29.0106 347.305C28.9748 347.591 28.9478 347.895 28.9299 348.199C28.7957 350.613 29.1986 353.51 30.416 356.433C30.6845 357.077 30.9889 357.721 31.3379 358.355C31.517 358.668 31.6959 358.99 31.8928 359.303C32.0897 359.616 32.2956 359.938 32.5104 360.251C32.7342 360.564 32.958 360.877 33.1996 361.181C33.9247 362.101 34.7482 363.004 35.6881 363.872C38.3018 366.267 42.1866 368.699 47.808 369.987C48.345 370.112 48.9001 370.228 49.4819 370.326C49.5893 370.344 49.6966 370.362 49.804 370.38C50.1442 370.443 50.5022 370.487 50.8602 370.541C51.9165 370.693 53.0176 370.791 54.1813 370.854C54.5662 370.872 54.9599 370.89 55.3627 370.907C55.7834 370.925 56.2219 370.925 56.6605 370.925C56.7769 370.925 56.9024 370.925 57.0187 370.916C57.3768 370.916 57.7527 370.899 58.1197 370.89C61.0288 370.8 64.2244 370.469 67.7511 369.799C67.7511 369.897 67.7422 369.987 67.7332 370.085C67.7332 370.183 67.7242 370.282 67.7153 370.371C67.6974 370.648 67.6794 370.925 67.6526 371.211C67.6436 371.354 67.6346 371.48 67.6167 371.623C67.6167 371.632 67.6169 371.757 67.5901 371.989C67.5722 372.159 67.5542 372.392 67.5184 372.66C67.4736 373.035 67.411 373.482 67.3305 374.01C67.1425 375.181 66.8381 376.701 66.3637 378.355C65.7281 380.563 64.7792 383.012 63.3829 385.221C63.1501 385.596 62.9086 385.999 62.6669 386.428C62.5506 386.642 62.4251 386.875 62.3088 387.107C62.2551 387.223 62.1924 387.34 62.1298 387.465C61.7717 388.189 61.4227 388.967 61.0915 389.789C59.9458 392.677 59.1044 396.155 59.2923 399.597C59.2923 399.614 59.2923 399.632 59.2923 399.65C59.355 400.911 59.5698 402.171 59.9458 403.396C60.2322 404.317 60.6171 405.229 61.1184 406.105C63.8306 410.87 69.3534 413.963 77.5705 415.376C78.4209 415.519 79.3159 415.653 80.22 415.76C80.6765 415.814 81.142 415.868 81.6075 415.912C82.0819 415.966 82.5564 416.002 83.0397 416.038C83.5321 416.073 84.0243 416.1 84.5166 416.136C85.0179 416.163 85.5191 416.189 86.0382 416.207C87.0676 416.243 88.1329 416.261 89.2159 416.261C89.9231 416.261 90.657 416.252 91.391 416.234C91.6058 416.234 91.8027 416.234 92.0086 416.225L93.9511 416.181C99.1786 416.055 105.606 415.903 111.173 414.643C111.442 414.58 111.71 414.518 111.979 414.446C112.775 414.249 113.545 414.026 114.288 413.776C116.875 412.908 119.149 411.71 120.849 410.039C120.984 409.905 121.1 409.779 121.234 409.636C121.727 409.1 122.165 408.519 122.541 407.884C122.908 407.249 123.221 406.57 123.463 405.837C123.758 404.916 123.946 403.915 124.009 402.815C124.107 401.018 124.009 398.962 123.767 396.736C123.66 395.752 123.526 394.724 123.382 393.669C122.98 390.862 122.443 387.849 121.888 384.765C119.748 372.865 117.322 359.375 120.939 349.219C121.001 349.049 120.983 348.888 120.939 348.727C122.228 348.977 123.705 349.201 125.28 349.362C125.558 349.388 125.826 349.415 126.113 349.442C127.214 349.531 128.359 349.585 129.523 349.585C130.391 349.585 131.268 349.549 132.146 349.487C133.166 349.406 134.186 349.272 135.198 349.085C135.207 349.12 135.198 349.165 135.216 349.21C135.261 349.335 135.296 349.46 135.332 349.585C135.422 349.853 135.502 350.13 135.592 350.399C138.635 360.403 136.335 373.303 134.276 384.756C133.05 391.595 131.895 398.059 132.155 402.806C132.674 412.104 142.269 414.956 152.008 415.823C155.902 416.172 159.813 416.207 163.188 416.207C164.146 416.234 165.077 416.243 165.99 416.243C166.903 416.243 167.834 416.234 168.729 416.207C172.238 416.1 175.415 415.778 178.262 415.251C184.17 414.16 188.636 412.157 191.608 409.27C192.226 408.662 192.781 408.027 193.273 407.348C193.568 406.945 193.837 406.525 194.087 406.087C194.607 405.166 195.009 404.219 195.296 403.244C195.376 402.976 195.448 402.717 195.511 402.448C195.726 401.528 195.851 400.58 195.913 399.632V399.579C196.2 393.982 193.801 388.332 191.823 385.203C191.008 383.915 190.346 382.548 189.818 381.189C189.737 380.992 189.666 380.804 189.594 380.617C189.451 380.232 189.316 379.848 189.191 379.463C188.636 377.756 188.26 376.137 188.019 374.823C187.938 374.385 187.866 373.974 187.822 373.607C187.634 372.392 187.58 371.623 187.58 371.587C186.989 365.213 187.437 360.984 188.395 356.871C188.466 356.576 188.538 356.272 188.609 355.977C188.762 355.378 188.914 354.779 189.084 354.18C189.129 354.028 189.164 353.876 189.209 353.724C189.46 352.813 189.737 351.883 190.024 350.908C191.268 346.689 192.682 341.888 193.864 334.852C194.025 333.877 194.186 332.849 194.338 331.785C194.49 330.712 194.633 329.595 194.786 328.433C194.839 327.959 194.893 327.485 194.956 327.002C195.018 326.519 195.063 326.028 195.117 325.527C195.171 325.026 195.215 324.517 195.269 323.998C195.323 323.48 195.367 322.952 195.412 322.416C195.466 321.871 195.511 321.334 195.547 320.771C195.591 320.208 195.627 319.644 195.672 319.072C195.797 317.338 195.905 315.514 195.994 313.601C195.994 313.592 195.994 313.583 195.994 313.574C195.994 313.574 195.994 313.556 195.994 313.547C196.997 295.962 195.466 282.57 193.389 273.004C193.371 272.923 193.354 272.834 193.336 272.753C191.698 265.315 189.737 260.219 188.413 257.278C188.762 257.519 189.12 257.752 189.469 257.984C191.93 259.593 194.383 260.943 196.8 262.088C197.149 262.249 197.498 262.409 197.838 262.561C198.017 262.642 198.187 262.722 198.366 262.794C198.527 262.874 198.688 262.946 198.849 263.008C200.908 263.885 202.94 264.618 204.918 265.208C210.003 266.728 214.809 267.398 219.133 267.541C219.75 267.559 220.359 267.568 220.959 267.568C222.382 267.568 223.734 267.514 225.032 267.416C225.909 267.353 226.768 267.273 227.583 267.175C228.576 267.049 229.561 266.906 230.545 266.728C236.471 265.699 242.227 263.724 247.508 260.952C248.43 260.46 249.352 259.951 250.247 259.414C251.142 258.878 252.028 258.315 252.897 257.734C253.469 257.34 254.033 256.938 254.597 256.536C254.884 256.33 255.161 256.124 255.439 255.91C255.985 255.49 256.522 255.061 257.059 254.623C258.124 253.737 259.153 252.826 260.138 251.869C260.245 251.833 260.344 251.762 260.424 251.681C260.505 251.592 260.577 251.493 260.621 251.377C260.8 251.198 260.979 251.02 261.167 250.841C261.346 250.662 261.525 250.474 261.695 250.295C269.501 242.035 272.92 230.985 270.915 221.562L270.87 221.535ZM227.377 265.53C224.96 265.816 222.257 265.977 219.312 265.887C217.414 265.834 215.418 265.673 213.35 265.378C211.256 265.083 209.09 264.653 206.852 264.045C204.014 263.286 201.069 262.248 198.071 260.872C197.713 260.711 197.364 260.541 197.006 260.371C196.639 260.192 196.272 260.013 195.905 259.826C192.852 258.27 189.746 256.357 186.64 254.006C186.587 253.97 186.515 253.943 186.461 253.925C186.425 253.907 186.39 253.889 186.354 253.872C186.327 253.872 186.291 253.872 186.264 253.872C186.193 253.863 186.112 253.854 186.04 253.863C186.022 253.863 186.005 253.88 185.987 253.88C185.906 253.898 185.817 253.925 185.745 253.97H185.736C185.736 253.97 185.673 254.032 185.647 254.059C185.602 254.095 185.548 254.122 185.512 254.176C185.512 254.176 185.512 254.175 185.512 254.184C185.477 254.238 185.459 254.292 185.432 254.345C185.414 254.39 185.378 254.426 185.369 254.471C185.369 254.506 185.369 254.551 185.369 254.587C185.369 254.649 185.351 254.712 185.369 254.783C185.369 254.81 185.387 254.837 185.396 254.873C185.414 254.944 185.432 255.016 185.477 255.078V255.087C185.503 255.132 188.305 259.763 190.785 269.231C192.897 277.277 195.162 290.446 194.58 308.666C138.206 326.081 76.9976 312.796 63.2218 309.381C62.9264 309.31 62.649 309.247 62.3984 309.176C62.0851 309.095 61.8164 309.024 61.5747 308.961C61.154 308.854 60.823 308.764 60.6261 308.711C60.1606 288.425 63.2845 273.54 65.9519 264.653C66.2473 263.661 66.5427 262.749 66.8202 261.909C67.1245 260.988 67.4199 260.165 67.6884 259.432C68.7446 256.589 69.5055 255.096 69.5324 255.043C69.7025 254.712 69.6309 254.31 69.3534 254.059C69.0759 253.809 68.6641 253.782 68.3597 253.997C67.9211 254.292 57.52 261.489 52.3283 283.955C51.7823 286.351 51.2093 288.568 50.6185 290.634C36.0998 278.332 14.6081 281.506 7.93955 282.882C7.62626 282.945 7.34882 283.008 7.09819 283.061C7.06239 283.061 7.01753 283.079 6.99067 283.079C7.62621 277.474 8.73614 273.37 8.77194 273.263C19.4328 228.866 56.9472 204.987 61.1184 202.448C61.19 202.474 61.2616 202.501 61.3332 202.537C61.6465 202.662 61.9507 202.778 62.264 202.904C75.7265 208.294 90.7914 211.853 107.127 213.462C108.345 215.169 114.207 222.214 128.055 222.214C141.464 222.214 146.441 215.608 147.649 213.587C163.233 212.148 177.68 208.965 190.713 204.119C192.512 207.043 200.505 218.799 213.798 220.346C217.262 220.748 220.091 220.391 222.561 219.586C223.197 219.38 223.805 219.13 224.396 218.862C224.987 218.603 225.569 218.316 226.124 218.004C226.258 217.923 226.41 217.852 226.553 217.771C226.553 217.825 226.571 217.896 226.58 217.95C226.616 218.173 226.652 218.442 226.706 218.754C226.741 218.996 226.795 219.273 226.858 219.559C228.2 226.452 234.126 246.353 258.061 251.511C249.835 259.093 238.843 264.153 227.386 265.503L227.377 265.53Z" fill="#EF96BD"/>
<path d="M50.6365 170.37C50.726 170.576 50.8961 170.728 51.102 170.799C60.0442 179.078 71.6538 185.81 85.1074 190.405C85.179 190.441 85.2506 190.468 85.3311 190.486C98.1492 194.839 112.623 197.271 128.046 197.271C182.209 197.271 224.638 167.313 224.629 129.084C224.629 110.283 214.281 91.5088 196.254 77.5621C177.77 63.2668 153.539 55.3994 128.028 55.3994C101.721 55.3994 77.4989 62.5605 59.8204 75.5595C41.5153 89.0145 31.4364 108.03 31.4453 129.111C31.4453 144.739 38.5435 158.98 50.6365 170.361V170.37ZM53.3039 170.638C58.603 170.236 74.4645 170.647 83.8274 188.259C71.8955 183.959 61.5121 177.942 53.3039 170.638ZM170.394 188.894C180.849 168.385 199.503 170.272 202.618 170.755C194.007 178.372 183.033 184.585 170.394 188.894ZM60.7782 76.8737C78.1792 64.0803 102.061 57.0355 128.019 57.0355C153.172 57.0355 177.054 64.7777 195.251 78.8585C212.885 92.4922 222.991 110.802 223 129.093C223 144.462 215.919 158.462 203.88 169.61C203.764 169.422 203.585 169.279 203.352 169.235C203.11 169.19 197.417 168.108 190.221 170.039C183.579 171.818 174.395 176.61 168.344 189.35C168.308 189.431 168.29 189.52 168.281 189.6C156.126 193.489 142.511 195.653 128.046 195.662C112.883 195.662 98.6505 193.293 86.0562 189.037C75.3507 166.955 55.0944 168.716 51.7108 169.181C39.9669 158.113 33.0745 144.283 33.0745 129.129C33.0745 108.576 42.9118 90.0247 60.7872 76.8827L60.7782 76.8737Z" fill="#885266"/>
<path d="M128.046 175.502C130.741 175.502 132.925 174.205 132.925 172.605C132.925 171.005 130.741 169.708 128.046 169.708C125.352 169.708 123.168 171.005 123.168 172.605C123.168 174.205 125.352 175.502 128.046 175.502Z" fill="#885266"/>
<path d="M76.7647 155.029C77.1049 155.029 77.427 155.038 77.7582 155.038C90.0839 155.038 95.0966 149.138 95.3114 148.878C95.7411 148.36 95.6604 147.6 95.1502 147.171C94.631 146.742 93.8613 146.813 93.4316 147.323C93.3869 147.376 88.589 152.91 76.8272 152.588C64.9938 152.293 59.5964 146.482 59.5158 146.393C59.0683 145.892 58.2983 145.848 57.7971 146.295C57.2958 146.742 57.2512 147.51 57.6898 148.011C57.9315 148.288 63.7676 154.689 76.7557 155.02L76.7647 155.029Z" fill="#885266"/>
<path d="M178.324 155.028C178.646 155.028 178.977 155.028 179.318 155.019C192.306 154.689 198.142 148.279 198.384 148.001C198.831 147.501 198.786 146.723 198.276 146.285C197.775 145.838 196.996 145.883 196.557 146.392C196.504 146.455 191.196 152.284 179.255 152.588C167.466 152.874 162.695 147.385 162.651 147.331C162.221 146.812 161.451 146.741 160.932 147.17C160.413 147.599 160.341 148.368 160.771 148.886C160.986 149.146 165.998 155.046 178.324 155.046V155.028Z" fill="#885266"/>
<path d="M270.87 221.535C270.557 220.077 270.118 218.665 269.546 217.306C269.017 216.045 268.382 214.874 267.666 213.793C267.46 213.48 267.254 213.176 267.03 212.881C266.806 212.586 266.583 212.3 266.35 212.022C266.001 211.602 265.634 211.2 265.249 210.815C264.354 209.921 263.387 209.117 262.34 208.419C262.044 208.223 261.731 208.026 261.418 207.847C260.8 207.481 260.156 207.141 259.484 206.855C258.652 206.479 257.784 206.167 256.88 205.898C256.495 205.791 256.101 205.684 255.698 205.603C255.295 205.514 254.901 205.433 254.49 205.362C253.666 205.228 252.834 205.121 251.975 205.067C251.563 205.031 251.151 205.013 250.721 205.004C241.161 204.843 236.059 208.804 231.083 212.63C228.317 214.767 225.64 216.814 222.292 217.968C222.096 218.03 221.89 218.102 221.684 218.164C221.46 218.227 221.227 218.298 220.995 218.361C220.789 218.415 220.583 218.459 220.377 218.513C219.67 218.665 218.945 218.781 218.175 218.844C216.886 218.951 215.499 218.942 213.986 218.763C212.589 218.602 211.256 218.316 209.976 217.923C209.662 217.825 209.34 217.726 209.036 217.619C207.953 217.235 206.896 216.788 205.912 216.287C205.625 216.135 205.348 215.992 205.07 215.84C202.17 214.248 199.7 212.228 197.713 210.252C197.525 210.064 197.337 209.877 197.158 209.689C196.263 208.759 195.457 207.847 194.777 207.007C194.508 206.676 194.249 206.345 194.007 206.041C193.891 205.88 193.774 205.729 193.667 205.585C193.452 205.29 193.255 205.013 193.067 204.754C192.969 204.62 192.888 204.504 192.807 204.379H192.27V202.751H194.284C203.943 198.854 212.786 194.017 220.646 188.25C224.933 185.112 228.854 181.724 232.407 178.121C247.785 162.538 256.101 142.977 256.101 121.762C256.101 112.018 254.946 102.827 252.673 94.2712C252.136 92.2508 251.545 90.275 250.874 88.335C250.542 87.3694 250.193 86.4039 249.835 85.4473C249.656 84.9734 249.468 84.4907 249.28 84.0258C248.716 82.6043 248.117 81.2096 247.481 79.8328C246.846 78.4561 246.174 77.1061 245.467 75.774C244.993 74.88 244.509 74.0038 244.008 73.1277C243.99 73.0741 243.972 73.0115 243.945 72.931C243.928 72.8506 243.892 72.7522 243.856 72.6449C243.838 72.5913 243.82 72.5287 243.802 72.4661C243.739 72.2784 243.677 72.0549 243.596 71.7956C243.444 71.286 243.256 70.6513 243.032 69.9003C242.925 69.5248 242.809 69.1225 242.692 68.7023C242.45 67.853 242.191 66.8964 241.905 65.8593C240.553 60.835 238.834 53.799 237.644 46.5575C237.483 45.5562 237.33 44.5549 237.187 43.5536C236.972 42.0516 236.793 40.5497 236.641 39.0656C236.587 38.565 236.543 38.0733 236.498 37.5905C236.292 35.1766 235.952 32.727 235.469 30.2864C233.696 21.2568 230.035 12.406 224.477 6.69321C224.325 6.54123 224.181 6.38925 224.02 6.23727C221.577 3.83236 218.784 2.03538 215.642 1.07878C215.4 1.00726 215.149 0.953618 214.908 0.891036C214.084 0.667532 213.252 0.479788 212.428 0.345685C211.775 0.238403 211.121 0.140061 210.468 0.08642C210.253 0.0685396 210.029 0.0506593 209.815 0.0417191C201.204 -0.41423 192.333 3.85918 182.344 13.2017C177.018 18.1813 172.945 21.3641 168.46 22.7677C167.61 23.0359 166.733 23.2415 165.847 23.3756C164.155 23.6349 162.374 23.6796 160.413 23.4829C160.145 23.4561 159.867 23.4203 159.59 23.3845H159.545C150.379 22.0077 140.694 21.2747 130.714 21.1584C129.818 21.1495 128.923 21.1406 128.028 21.1406C117.099 21.1406 106.492 21.9005 96.511 23.4024C96.1709 23.4382 95.8488 23.465 95.5176 23.5008C94.1122 23.6349 92.7875 23.6527 91.5344 23.5455C85.3133 23.018 80.5333 19.5939 73.7125 13.2195C67.1692 7.09552 61.1005 3.17078 55.2733 1.31122C53.134 0.622831 51.0393 0.220523 48.9537 0.0953602C46.519 -0.0566229 44.12 0.166882 41.7211 0.756934C41.2825 0.864216 40.8529 0.971498 40.4143 1.09666C34.1217 3.00986 29.2344 8.28457 25.7614 15.0165C25.3318 15.8569 24.9109 16.7152 24.526 17.6002C24.1411 18.4853 23.7652 19.3883 23.4251 20.3002C23.255 20.7561 23.0849 21.221 22.9237 21.6859C22.4404 23.0806 22.0018 24.5021 21.6169 25.9504C21.3663 26.907 21.1246 27.8814 20.9097 28.8559C20.2742 31.7794 19.8267 34.7296 19.585 37.6173C19.218 42.0069 18.502 46.6201 17.6427 51.0097C17.2667 52.9676 16.8638 54.8719 16.4521 56.6957C15.736 59.8962 14.9932 62.8465 14.3218 65.3408C14.2234 65.6984 14.1338 66.0471 14.0353 66.3868C13.8563 67.0663 13.6772 67.701 13.5161 68.2911C13.4355 68.5861 13.346 68.8722 13.2744 69.1404C13.2386 69.2745 13.1939 69.4086 13.1581 69.5427C13.0865 69.802 13.0149 70.0523 12.9433 70.2937C12.809 70.7675 12.6836 71.1877 12.5762 71.5632C12.5225 71.742 12.4688 71.9208 12.4241 72.0728C12.4062 72.1532 12.3793 72.2248 12.3614 72.2963C12.2987 72.5108 12.2361 72.6896 12.1913 72.8327C12.1466 72.9847 12.1109 73.0919 12.093 73.1635C11.8424 73.6015 11.5917 74.0396 11.35 74.4777C10.1326 76.677 9.01374 78.9388 7.99331 81.2543C7.79638 81.7192 7.59058 82.1841 7.39365 82.649C6.80287 84.0526 6.24781 85.483 5.72864 86.9224C5.3885 87.8879 5.04826 88.8624 4.73497 89.8458C4.42168 90.8293 4.11734 91.8127 3.83986 92.814C3.55342 93.8153 3.29392 94.8166 3.03434 95.8358C1.02033 103.962 0 112.643 0 121.816C0 138.945 5.42435 155.002 15.6197 168.752C16.1031 169.405 16.6042 170.057 17.1055 170.701C17.6157 171.345 18.1349 171.979 18.654 172.614C20.2384 174.509 21.9213 176.36 23.6936 178.166C27.2472 181.76 31.1767 185.148 35.4643 188.286C42.6342 193.543 50.6008 198.031 59.2744 201.741C53.0176 205.737 27.5068 223.412 13.5609 254.354C12.7911 256.071 12.0482 257.832 11.35 259.629C10.8845 260.827 10.437 262.052 10.0073 263.294C9.79249 263.911 9.58665 264.537 9.38078 265.163C8.56622 267.675 7.83206 270.259 7.19653 272.914C6.97275 273.728 2.36302 290.651 6.85649 303.391C6.99076 303.767 7.13395 304.133 7.27717 304.509C7.57256 305.242 7.90385 305.966 8.27084 306.663C8.53938 307.182 8.84371 307.7 9.157 308.201C9.26441 308.371 9.37171 308.532 9.48808 308.693C9.6313 308.907 9.7745 309.104 9.91771 309.309C12.1376 312.331 15.0736 314.486 18.6899 315.782C20.3727 316.381 22.1988 316.792 24.1681 317.007C25.9315 317.204 27.5873 317.266 29.1627 317.204C31.6779 317.096 33.9606 316.64 36.0373 315.809C43.0997 312.984 47.8795 305.76 51.7553 292.627C51.8627 292.475 51.9256 292.287 51.9076 292.109C52.5969 289.713 53.2682 287.147 53.9127 284.357C54.772 280.656 55.7746 277.375 56.8577 274.487C57.1262 273.763 57.4036 273.066 57.6811 272.387C57.8154 272.047 57.9675 271.716 58.1018 271.385C58.5225 270.402 58.9521 269.481 59.3817 268.605C59.9546 267.443 60.5366 266.361 61.1094 265.368C61.5391 264.617 61.9687 263.92 62.3894 263.276C63.9379 260.898 65.3879 259.119 66.5516 257.868C66.5516 257.868 66.5546 257.865 66.5605 257.859C66.4442 258.154 66.3279 258.467 66.2026 258.788C65.8714 259.656 65.5224 260.657 65.1464 261.783C65.048 262.07 64.9584 262.356 64.8599 262.651C64.7257 263.098 64.5735 263.563 64.4303 264.036C64.1349 265.002 63.8395 266.048 63.5352 267.156C63.4546 267.443 63.383 267.729 63.3024 268.024C63.1503 268.614 62.9981 269.222 62.8459 269.839C62.7743 270.151 62.6937 270.473 62.6221 270.795C60.268 280.808 58.236 295.22 59.149 313.636C59.2922 316.524 59.4713 319.188 59.6772 321.665C59.7846 322.899 59.8919 324.088 60.0083 325.223C60.0351 325.446 60.062 325.679 60.0799 325.902C60.0978 326.117 60.1248 326.34 60.1516 326.555C56.7323 326.591 53.474 326.984 50.4306 327.673C38.5793 330.39 30.1205 337.793 29.0016 347.305C28.9658 347.591 28.9389 347.895 28.921 348.199C28.7867 350.613 29.1896 353.51 30.407 356.433C30.6755 357.077 30.9799 357.712 31.329 358.355C31.508 358.668 31.6869 358.99 31.8838 359.303C32.0808 359.616 32.2866 359.938 32.5014 360.251C32.7252 360.564 32.949 360.876 33.1907 361.18C33.9157 362.101 34.7393 363.004 35.6791 363.871C38.2929 366.267 42.1777 368.699 47.799 369.986C48.3361 370.112 48.9001 370.228 49.473 370.326C49.5804 370.344 49.6877 370.362 49.7951 370.38C50.1352 370.442 50.4932 370.487 50.8513 370.541C51.9075 370.693 53.0087 370.791 54.1723 370.854C54.5572 370.872 54.9509 370.889 55.3537 370.907C55.7834 370.916 56.2219 370.925 56.6605 370.925C56.7769 370.925 56.8934 370.925 57.0187 370.925C57.3768 370.925 57.7527 370.907 58.1197 370.898C61.0288 370.809 64.2244 370.478 67.7511 369.808C67.7511 369.906 67.7332 369.995 67.7242 370.094C67.7242 370.192 67.7153 370.29 67.7063 370.38C67.6884 370.657 67.6705 370.934 67.6436 371.22C67.6257 371.363 67.6259 371.488 67.608 371.631C67.608 371.64 67.599 371.766 67.5721 371.998C67.5542 372.168 67.5363 372.4 67.5005 372.669C67.4557 373.044 67.3931 373.491 67.3125 374.018C67.1245 375.19 66.8201 376.71 66.3457 378.363C65.7102 380.572 64.7613 383.021 63.3649 385.229C63.1322 385.605 62.8907 386.007 62.649 386.436C62.5326 386.651 62.4072 386.883 62.2908 387.116C62.2371 387.232 62.1745 387.348 62.1119 387.473C61.7538 388.198 61.4048 388.966 61.0736 389.798C59.9368 392.686 59.0954 396.154 59.2744 399.605C59.2744 399.623 59.2744 399.641 59.2744 399.659C59.346 400.919 59.5519 402.18 59.9278 403.405C60.2143 404.326 60.5992 405.238 61.1005 406.114C63.8127 410.879 69.3354 413.972 77.5526 415.385C78.4029 415.528 79.298 415.662 80.2021 415.769C80.6586 415.823 81.1241 415.876 81.5895 415.921C82.064 415.975 82.5385 416.011 83.0218 416.046C83.5141 416.082 84.0064 416.109 84.4987 416.145C84.9999 416.171 85.5012 416.198 86.0203 416.216C87.0497 416.252 88.1149 416.27 89.198 416.27C89.9052 416.27 90.6391 416.261 91.3731 416.243C91.5879 416.243 91.785 416.243 91.9909 416.234L93.9332 416.189C99.1607 416.064 105.588 415.912 111.155 414.652C111.424 414.589 111.692 414.526 111.961 414.455C112.757 414.258 113.527 414.035 114.27 413.784C116.857 412.917 119.131 411.719 120.831 410.047C120.966 409.913 121.082 409.788 121.216 409.645C121.718 409.109 122.156 408.528 122.523 407.893C122.899 407.258 123.212 406.579 123.445 405.846C123.74 404.925 123.929 403.923 123.991 402.824C124.09 401.027 123.991 398.971 123.75 396.744C123.642 395.752 123.517 394.733 123.364 393.678C122.962 390.871 122.425 387.858 121.87 384.774C119.73 372.874 117.305 359.383 120.921 349.227C120.983 349.058 120.975 348.897 120.921 348.736C122.21 348.986 123.687 349.209 125.262 349.37C125.54 349.397 125.808 349.424 126.095 349.451C127.196 349.54 128.341 349.594 129.505 349.594C130.373 349.594 131.25 349.558 132.128 349.496C133.148 349.415 134.169 349.281 135.18 349.093C135.189 349.129 135.18 349.174 135.198 349.218C135.243 349.344 135.279 349.469 135.314 349.594C135.413 349.862 135.484 350.139 135.574 350.407C138.617 360.412 136.317 373.312 134.258 384.765C133.032 391.604 131.877 398.068 132.137 402.815C132.656 412.113 142.251 414.965 151.99 415.832C155.884 416.18 159.796 416.216 163.17 416.216C164.128 416.243 165.059 416.252 165.972 416.252C166.885 416.252 167.816 416.243 168.711 416.216C172.22 416.109 175.397 415.787 178.244 415.26C184.152 414.169 188.618 412.166 191.59 409.279C192.208 408.671 192.763 408.036 193.255 407.356C193.55 406.954 193.819 406.534 194.069 406.096C194.589 405.175 194.992 404.227 195.278 403.253C195.359 402.985 195.43 402.725 195.493 402.457C195.717 401.527 195.842 400.589 195.896 399.641V399.587C196.191 393.991 193.783 388.341 191.805 385.212C190.99 383.924 190.328 382.556 189.791 381.197C189.71 381.001 189.639 380.813 189.567 380.625C189.424 380.241 189.29 379.856 189.164 379.472C188.609 377.764 188.234 376.146 187.992 374.832C187.911 374.394 187.848 373.983 187.795 373.616C187.616 372.4 187.571 371.631 187.562 371.596C186.971 365.212 187.419 360.993 188.377 356.88C188.448 356.585 188.52 356.281 188.592 355.986C188.744 355.387 188.905 354.788 189.066 354.189C189.111 354.037 189.146 353.885 189.191 353.733C189.451 352.821 189.719 351.883 190.015 350.917C191.259 346.697 192.673 341.896 193.846 334.861C194.016 333.886 194.177 332.858 194.32 331.794C194.472 330.721 194.624 329.604 194.768 328.441C194.821 327.968 194.875 327.494 194.938 327.011C195.001 326.528 195.045 326.037 195.099 325.536C195.153 325.035 195.197 324.526 195.251 324.007C195.305 323.489 195.349 322.961 195.394 322.425C195.448 321.879 195.493 321.343 195.529 320.78C195.573 320.216 195.618 319.653 195.654 319.081C195.779 317.347 195.887 315.523 195.976 313.61C195.976 313.601 195.976 313.592 195.976 313.583V313.556C196.979 295.971 195.448 282.578 193.371 273.012C193.354 272.932 193.336 272.842 193.318 272.762C191.689 265.324 189.728 260.219 188.395 257.287C188.744 257.519 189.102 257.76 189.451 257.984C191.912 259.593 194.365 260.943 196.782 262.087C197.131 262.248 197.48 262.409 197.82 262.561C197.999 262.642 198.169 262.722 198.348 262.794C198.509 262.865 198.679 262.937 198.841 263.008C200.899 263.884 202.922 264.617 204.909 265.208C209.994 266.727 214.8 267.398 219.124 267.541C219.741 267.559 220.35 267.568 220.95 267.568C222.373 267.568 223.725 267.514 225.023 267.416C225.9 267.353 226.759 267.273 227.574 267.174C228.567 267.049 229.552 266.906 230.536 266.727C236.462 265.699 242.218 263.723 247.499 260.952C248.421 260.46 249.343 259.951 250.238 259.414C251.133 258.878 252.019 258.315 252.888 257.734C253.46 257.349 254.033 256.947 254.588 256.536C254.875 256.33 255.152 256.124 255.43 255.91C255.976 255.499 256.513 255.06 257.05 254.622C258.115 253.737 259.144 252.825 260.129 251.869C260.236 251.833 260.335 251.761 260.415 251.681C260.496 251.601 260.568 251.493 260.612 251.377C260.791 251.198 260.97 251.019 261.158 250.841C261.337 250.662 261.516 250.474 261.686 250.295C269.492 242.035 272.911 230.985 270.897 221.562L270.87 221.535ZM36.4132 186.927C34.4529 185.488 32.5731 183.995 30.7739 182.466C30.5233 182.252 30.2815 182.055 30.0399 181.84C29.8698 181.688 29.6999 181.545 29.5388 181.393C12.7912 166.642 3.10603 147.635 1.77231 126.769C1.77231 126.715 1.76335 126.662 1.76335 126.617C1.71859 125.937 1.69164 125.249 1.66479 124.561C1.66479 124.435 1.65582 124.319 1.64687 124.194C1.62897 123.389 1.61103 122.576 1.61103 121.771C1.61103 103.676 5.61223 87.5572 13.5161 73.8697C13.5429 73.8161 13.5699 73.7625 13.5878 73.7088C13.8384 72.9042 19.8088 53.8795 21.1783 37.7156C22.5389 21.6144 28.5629 10.8593 35.2136 5.67403C37.0844 4.21678 39 3.1976 40.8798 2.62543C41.3363 2.49133 41.7928 2.36617 42.2583 2.25888C43.9769 1.84764 45.7045 1.62413 47.459 1.62413C55.2733 1.62413 63.4187 5.79026 72.6026 14.3639C82.4846 23.5991 88.1059 26.0755 96.7348 24.9759C106.653 23.4918 117.179 22.7319 128.028 22.7319C138.877 22.7319 149.403 23.4829 159.339 24.9669C162.759 25.3961 165.703 25.262 168.639 24.359C169.418 24.1266 170.188 23.8405 170.976 23.5008C171.71 23.17 172.453 22.7855 173.205 22.3564C176.248 20.6131 179.515 18.0204 183.454 14.3371C190.856 7.41737 197.587 3.37641 204.014 2.0622C205.062 1.84764 206.109 1.72247 207.138 1.65095C208.087 1.58837 209.027 1.58837 209.958 1.64201C211.703 1.74929 213.449 2.05326 215.167 2.58073C223.716 5.17338 233.123 17.037 234.878 37.6709C236.256 53.8974 242.227 72.8595 242.477 73.6641C242.495 73.7178 242.522 73.7714 242.549 73.825C250.462 87.5125 254.463 103.632 254.472 121.727C254.472 147.295 242.119 170.442 219.679 186.9C211.202 193.114 201.589 198.255 190.99 202.278C190.874 202.287 190.749 202.313 190.641 202.376C190.606 202.394 190.588 202.43 190.561 202.447C177.591 207.32 163.17 210.529 147.595 211.978C147.586 211.978 147.577 211.96 147.568 211.96C147.291 211.835 146.978 211.879 146.745 212.058C140.676 212.595 134.446 212.872 128.046 212.872C121.1 212.872 114.333 212.55 107.781 211.924C107.727 211.906 107.673 211.906 107.62 211.906C91.7492 210.36 77.0872 206.98 63.9558 201.857C63.1592 201.544 62.3714 201.232 61.5837 200.91C61.4673 200.811 61.3241 200.758 61.1719 200.74C52.1134 196.976 43.8247 192.363 36.4042 186.927H36.4132ZM145.554 213.784C143.71 216.153 138.832 220.596 128.046 220.596C117.322 220.596 111.657 216.063 109.419 213.694C115.47 214.222 121.682 214.49 128.046 214.49C134.016 214.49 139.861 214.248 145.554 213.784ZM24.3381 315.353C22.4046 315.138 20.6503 314.709 19.0212 314.11C15.6018 312.841 12.8448 310.731 10.8307 307.763C10.6607 307.504 10.4995 307.235 10.3384 306.967C6.48045 300.611 6.17615 291.822 6.79378 284.804C6.82958 284.795 6.87444 284.787 6.90129 284.778C7.12507 284.724 7.39355 284.661 7.74265 284.59C13.5609 283.32 35.7329 279.592 50.0995 292.35C43.8695 313.02 35.7418 316.614 24.3381 315.353ZM48.0407 368.35C44.3707 367.492 41.5153 366.133 39.2865 364.622C38.3466 363.988 37.4962 363.317 36.7711 362.664C33.6024 359.759 31.8481 356.371 31.0515 353.224C30.5144 351.123 30.407 349.129 30.6039 347.457C30.6845 346.751 30.8187 346.054 30.9887 345.365C32.0271 341.297 34.6677 337.695 38.4361 334.843C41.6496 332.402 45.6955 330.507 50.2695 329.371C53.4024 328.593 56.777 328.155 60.3216 328.137C61.6285 339.053 63.5173 345.464 65.1195 350.899C66.7934 356.585 68.0645 360.903 67.8049 368.1C59.4714 369.736 53.0175 369.504 48.0317 368.341L48.0407 368.35ZM188.457 350.434C186.479 357.157 185.047 362.012 185.942 371.694C185.96 372.025 186.479 379.821 190.427 386.052C193.004 390.111 196.37 398.729 192.655 405.264C188.985 411.71 179.417 414.839 164.253 414.571C164.227 414.571 164.209 414.562 164.182 414.562C160.7 414.562 156.475 414.562 152.295 414.196C150.307 414.026 148.338 413.767 146.458 413.391C145.125 413.123 143.845 412.792 142.636 412.39C137.695 410.736 134.052 407.83 133.766 402.708C133.506 398.157 134.661 391.783 135.869 385.042C137.928 373.563 140.237 360.644 137.266 350.336C137.185 350.068 137.095 349.8 137.006 349.531C136.925 349.272 136.854 348.995 136.756 348.736C136.764 348.736 136.773 348.736 136.791 348.736C138.053 348.405 139.28 347.967 140.434 347.404C140.837 347.207 141.007 346.715 140.81 346.313C140.613 345.911 140.121 345.75 139.718 345.946C135.323 348.11 129.809 348.208 125.217 347.716C125.164 347.716 125.101 347.708 125.047 347.699C120.106 347.153 116.284 345.928 116.204 345.911C115.774 345.768 115.326 346.009 115.174 346.429C115.04 346.858 115.273 347.305 115.693 347.457C115.872 347.511 117.332 347.976 119.525 348.458C119.471 348.521 119.417 348.602 119.39 348.691C115.64 359.249 118.101 372.964 120.276 385.069C121.485 391.818 122.631 398.184 122.38 402.734C121.762 413.91 104.997 414.294 93.8974 414.553L91.9461 414.607C86.5217 414.759 81.8133 414.473 77.7853 413.784C75.0284 413.311 72.6027 412.649 70.5081 411.782C68.6015 411.004 66.9723 410.056 65.6296 408.948C64.3317 407.884 63.2754 406.677 62.4967 405.309C58.782 398.783 62.1476 390.164 64.7255 386.106C68.673 379.865 69.1921 372.07 69.2011 371.775C69.2279 371.506 69.2459 371.247 69.2638 370.988C69.2817 370.702 69.3086 370.425 69.3265 370.147C69.3444 369.861 69.3624 369.593 69.3713 369.316C69.8278 361.198 68.4852 356.612 66.677 350.488C65.0658 345.025 63.1681 338.589 61.8791 327.485C61.8791 327.467 61.8881 327.431 61.897 327.413C61.897 327.395 61.897 327.387 61.906 327.369C61.906 327.243 61.8701 327.127 61.8254 327.029C61.8075 326.895 61.7987 326.743 61.7808 326.609C61.7539 326.34 61.718 326.081 61.6912 325.804C61.3152 322.228 60.993 318.187 60.7602 313.565C60.7065 312.51 60.6708 311.473 60.635 310.445C60.8856 310.516 61.2167 310.597 61.6016 310.695C61.8433 310.758 62.1209 310.82 62.4163 310.901C62.6759 310.963 62.9443 311.035 63.2397 311.106C65.8355 311.741 69.8635 312.662 75.0552 313.654C75.1626 314.888 75.4043 317.141 75.7176 317.829C75.7802 317.981 75.9325 318.071 76.0936 318.071C76.1474 318.071 76.201 318.062 76.2547 318.035C76.4606 317.937 76.5501 317.704 76.4695 317.499C76.2547 317.016 76.0398 315.281 75.9055 313.806C88.9204 316.265 108.783 319.09 131.412 319.09C144.767 319.09 159.08 318.089 173.509 315.46C173.383 316.649 173.169 318.67 172.99 319.752C172.954 319.975 173.106 320.181 173.33 320.225C173.348 320.225 173.375 320.225 173.392 320.225C173.589 320.225 173.759 320.082 173.795 319.886C173.992 318.688 174.225 316.453 174.341 315.308C181.073 314.057 187.822 312.439 194.508 310.4C194.463 311.437 194.419 312.492 194.356 313.565C194.356 313.583 194.356 313.601 194.356 313.619C193.362 333.832 190.641 343.05 188.457 350.461V350.434ZM227.377 265.529C224.96 265.815 222.257 265.976 219.312 265.887C217.414 265.833 215.418 265.672 213.35 265.377C211.256 265.082 209.09 264.653 206.852 264.045C204.014 263.285 201.069 262.248 198.071 260.872C197.713 260.711 197.364 260.541 197.005 260.371C196.638 260.192 196.272 260.013 195.905 259.826C192.852 258.27 189.746 256.357 186.64 254.005C186.587 253.97 186.515 253.943 186.461 253.925C186.425 253.907 186.39 253.889 186.354 253.871C186.327 253.871 186.291 253.871 186.264 253.871C186.193 253.862 186.112 253.854 186.04 253.862C186.022 253.862 186.005 253.88 185.987 253.88C185.906 253.898 185.817 253.925 185.745 253.97H185.736C185.736 253.97 185.673 254.032 185.647 254.059C185.602 254.095 185.548 254.122 185.512 254.175C185.512 254.175 185.512 254.175 185.512 254.184C185.477 254.238 185.459 254.292 185.432 254.345C185.414 254.39 185.378 254.426 185.369 254.47C185.369 254.506 185.369 254.551 185.369 254.587C185.369 254.649 185.351 254.712 185.369 254.783C185.369 254.81 185.387 254.837 185.396 254.873C185.414 254.944 185.432 255.016 185.477 255.078V255.087C185.503 255.132 188.305 259.763 190.784 269.231C192.897 277.277 195.162 290.446 194.58 308.666C138.205 326.081 76.9976 312.796 63.2218 309.381C62.9264 309.309 62.649 309.247 62.3984 309.175C62.0851 309.095 61.8164 309.023 61.5747 308.961C61.154 308.854 60.823 308.764 60.626 308.71C60.1606 288.425 63.2845 273.54 65.9519 264.653C66.2473 263.661 66.5427 262.749 66.8202 261.909C67.1245 260.988 67.4199 260.165 67.6884 259.432C68.7446 256.589 69.5055 255.096 69.5324 255.043C69.7025 254.712 69.6309 254.309 69.3534 254.059C69.0759 253.809 68.6641 253.782 68.3597 253.997C67.9211 254.292 57.52 261.488 52.3283 283.955C51.7823 286.351 51.2093 288.568 50.6185 290.633C36.0998 278.332 14.6081 281.505 7.93955 282.882C7.62626 282.945 7.34882 283.007 7.09819 283.061C7.06239 283.061 7.01753 283.079 6.99067 283.079C7.6262 277.473 8.73614 273.37 8.77194 273.263C19.4327 228.866 56.9472 204.986 61.1184 202.447C61.19 202.474 61.2616 202.501 61.3332 202.537C61.6465 202.662 61.9507 202.778 62.264 202.903C75.7265 208.294 90.7913 211.853 107.127 213.462C108.345 215.169 114.207 222.214 128.055 222.214C141.464 222.214 146.441 215.607 147.649 213.587C163.233 212.148 177.68 208.965 190.713 204.119C192.512 207.043 200.505 218.799 213.798 220.346C217.262 220.748 220.091 220.39 222.561 219.586C223.197 219.38 223.805 219.13 224.396 218.862C224.987 218.602 225.569 218.316 226.124 218.003C226.258 217.923 226.41 217.851 226.553 217.771C226.553 217.825 226.571 217.896 226.58 217.95C226.616 218.173 226.652 218.441 226.706 218.754C226.741 218.996 226.795 219.273 226.858 219.559C228.2 226.452 234.126 246.353 258.061 251.511C249.835 259.092 238.843 264.153 227.386 265.503L227.377 265.529ZM260.478 249.151C260.147 249.491 259.816 249.83 259.476 250.17C235.648 245.593 229.785 226.05 228.469 219.335C228.415 219.04 228.361 218.772 228.317 218.531C228.263 218.218 228.218 217.941 228.191 217.726C228.138 217.324 228.111 217.091 228.111 217.065C228.111 216.993 228.075 216.922 228.048 216.85C229.427 215.938 230.742 214.928 232.076 213.9C236.176 210.735 240.401 207.481 247.239 206.757C248.009 206.676 248.815 206.631 249.656 206.614C249.826 206.614 249.987 206.605 250.157 206.605C250.328 206.605 250.515 206.605 250.694 206.605C251.187 206.605 251.679 206.64 252.163 206.676C259.52 207.266 265.267 211.307 268.06 217.932C272.106 227.525 269.062 240.068 260.487 249.151H260.478Z" fill="#885266"/>
<path d="M258.052 251.538C249.826 259.12 238.834 264.18 227.376 265.53C224.96 265.816 222.256 265.977 219.311 265.887C217.414 265.834 215.418 265.673 213.35 265.378C211.255 265.083 209.089 264.654 206.851 264.046C204.014 263.286 201.069 262.249 198.07 260.872C197.712 260.711 197.363 260.541 197.005 260.371C196.638 260.192 196.271 260.014 195.904 259.826C192.852 258.27 189.746 256.357 186.64 254.006C186.586 253.97 186.514 253.943 186.461 253.925C186.425 253.907 186.389 253.89 186.353 253.872C186.326 253.872 186.291 253.872 186.264 253.872C186.192 253.863 186.112 253.854 186.04 253.863C186.022 253.863 186.004 253.881 185.986 253.881C185.906 253.898 185.816 253.925 185.745 253.97H185.736C185.736 253.97 185.673 254.033 185.646 254.059C185.601 254.095 185.548 254.122 185.512 254.176C185.512 254.176 185.512 254.176 185.512 254.185C185.476 254.238 185.458 254.292 185.431 254.346C185.413 254.39 185.378 254.426 185.369 254.471C185.369 254.506 185.369 254.551 185.369 254.587C185.369 254.649 185.351 254.712 185.369 254.784C185.369 254.81 185.387 254.837 185.395 254.873C185.413 254.945 185.431 255.016 185.476 255.079V255.088C185.503 255.132 188.305 259.763 190.784 269.231C192.897 277.277 195.161 290.446 194.579 308.666C138.205 326.082 76.9972 312.796 63.2214 309.381C62.926 309.31 62.6486 309.247 62.3979 309.176C62.0846 309.095 61.8159 309.024 61.5743 308.961C61.1536 308.854 60.8225 308.764 60.6256 308.711C60.1602 288.425 63.2841 273.54 65.9515 264.654C66.2469 263.661 66.5422 262.749 66.8197 261.909C67.1241 260.988 67.4194 260.166 67.688 259.432C68.7442 256.59 69.5051 255.096 69.532 255.043C69.702 254.712 69.6305 254.31 69.353 254.059C69.0755 253.809 68.6636 253.782 68.3593 253.997C67.9207 254.292 57.5196 261.489 52.3279 283.955C51.7819 286.351 51.2089 288.569 50.6181 290.634C36.0993 278.332 14.6077 281.506 7.93911 282.883C7.62582 282.945 7.34838 283.008 7.09775 283.061C7.06195 283.061 7.01709 283.079 6.99023 283.079C7.62577 277.474 8.7357 273.37 8.7715 273.263C19.4323 228.866 56.9467 204.987 61.118 202.448C61.1896 202.475 61.2612 202.501 61.3328 202.537C61.6461 202.662 61.9502 202.779 62.2635 202.904C75.726 208.295 90.7909 211.853 107.127 213.462C108.344 215.17 114.207 222.214 128.054 222.214C141.463 222.214 146.44 215.608 147.649 213.587C163.233 212.148 177.68 208.965 190.712 204.12C192.512 207.043 200.505 218.799 213.797 220.346C217.262 220.748 220.09 220.391 222.561 219.586C223.196 219.38 223.805 219.13 224.396 218.862C224.986 218.603 225.568 218.317 226.123 218.004C226.257 217.923 226.41 217.852 226.553 217.771C226.553 217.825 226.571 217.896 226.58 217.95C226.615 218.174 226.651 218.442 226.705 218.755C226.741 218.996 226.795 219.273 226.857 219.559C228.2 226.452 234.125 246.353 258.061 251.511L258.052 251.538Z" fill="#0097D8"/>
<path d="M127.921 183.306C133.265 183.306 136.156 180.392 136.272 180.267C136.586 179.945 136.577 179.426 136.254 179.113C135.932 178.801 135.413 178.81 135.1 179.131C135.073 179.158 132.575 181.679 127.912 181.679C123.338 181.679 121.1 179.283 120.993 179.167C120.697 178.827 120.178 178.801 119.847 179.096C119.507 179.391 119.48 179.909 119.775 180.24C119.883 180.365 122.55 183.306 127.912 183.306H127.921Z" fill="#885266"/>
<path d="M47.4767 20.9797C47.4767 20.9797 47.5574 20.9975 47.6022 20.9975C47.7722 20.9975 47.9333 20.8903 47.987 20.7115C48.6315 18.691 48.6404 16.3576 48.6404 16.2592C48.6404 16.0357 48.4615 15.8569 48.2377 15.8569C48.0139 15.8569 47.8349 16.0357 47.8349 16.2592C47.8349 16.2861 47.835 18.5747 47.2263 20.4701C47.1547 20.6846 47.2798 20.9081 47.4947 20.9797H47.4767Z" fill="#885266"/>
<path d="M36.35 31.0822C36.35 31.0822 36.4307 31.1001 36.4754 31.1001C36.6455 31.1001 36.8066 30.9928 36.8603 30.814C37.5047 28.7935 37.5137 26.4601 37.5137 26.3618C37.5137 26.1383 37.3347 25.9595 37.1109 25.9595C36.8871 25.9595 36.7082 26.1383 36.7082 26.3618C36.7082 26.3886 36.708 28.6773 36.0993 30.5726C36.0277 30.7872 36.1531 31.0107 36.3679 31.0822H36.35Z" fill="#885266"/>
<path d="M31.8033 53.5848C31.8033 53.5848 31.8838 53.6027 31.9286 53.6027C32.0986 53.6027 32.2597 53.4954 32.3134 53.3166C32.9579 51.2961 32.9668 48.9538 32.9668 48.8554C32.9668 48.6319 32.7878 48.4531 32.5641 48.4531C32.3403 48.4531 32.1613 48.6319 32.1613 48.8554C32.1613 48.8823 32.1614 51.1709 31.5437 53.0663C31.4721 53.2808 31.5975 53.5133 31.8033 53.5758V53.5848Z" fill="#885266"/>
<path d="M23.3887 75.5416C23.165 75.4879 22.9501 75.631 22.9054 75.8455C22.9054 75.8634 22.3862 78.0985 21.3747 79.815C21.2584 80.0117 21.3299 80.262 21.5179 80.3693C21.5805 80.405 21.6524 80.4229 21.724 80.4229C21.8672 80.4229 22.0013 80.3514 22.073 80.2262C23.1471 78.4024 23.6753 76.1227 23.7021 76.0244C23.7558 75.8098 23.6125 75.5863 23.3977 75.5416H23.3887Z" fill="#885266"/>
<path d="M36.0197 69.2656C36.0913 69.3103 36.1629 69.3282 36.2435 69.3282C36.3777 69.3282 36.5119 69.2656 36.5835 69.1405C37.7293 67.3614 38.3469 65.0995 38.3737 65.0101C38.4364 64.7956 38.3021 64.572 38.0872 64.5095C37.8724 64.4558 37.6488 64.581 37.5862 64.7955C37.5862 64.8134 36.9774 67.0217 35.8943 68.7024C35.7689 68.8902 35.8317 69.1405 36.0197 69.2656Z" fill="#885266"/>
<path d="M30.9173 89.2734C30.7114 89.1751 30.4699 89.2555 30.3714 89.4522C30.3177 89.5506 29.1362 91.9465 28.6439 94.9862C28.6081 95.2097 28.7602 95.4153 28.9839 95.4511C29.0018 95.4511 29.0288 95.4511 29.0467 95.4511C29.2436 95.4511 29.4136 95.308 29.4494 95.1114C29.9149 92.2058 31.0875 89.8366 31.0965 89.8098C31.195 89.6131 31.1142 89.3628 30.9173 89.2645V89.2734Z" fill="#885266"/>
<path d="M14.9482 98.9827C14.7334 98.9201 14.5095 99.0363 14.4379 99.2509C14.4111 99.3493 13.6951 101.647 13.4534 105.268C13.4355 105.491 13.6055 105.688 13.8293 105.697C13.8383 105.697 13.8472 105.697 13.8562 105.697C14.071 105.697 14.25 105.536 14.259 105.321C14.4917 101.808 15.1989 99.5191 15.2078 99.4923C15.2705 99.2777 15.1541 99.0542 14.9393 98.9827H14.9482Z" fill="#885266"/>
<path d="M13.4262 125.267C13.4083 125.043 13.2025 124.882 12.9876 124.9C12.7639 124.918 12.6026 125.115 12.6205 125.338C12.6294 125.446 12.8711 128.02 13.4798 130.202C13.5335 130.381 13.6948 130.497 13.8738 130.497C13.9096 130.497 13.9453 130.497 13.9811 130.479C14.1959 130.416 14.3213 130.193 14.2676 129.978C13.6858 127.877 13.4352 125.285 13.4352 125.258L13.4262 125.267Z" fill="#885266"/>
<path d="M25.2599 119.679C25.4836 119.679 25.6626 119.492 25.6626 119.268C25.6447 117.507 26.0027 114.378 26.0116 114.342C26.0385 114.118 25.8774 113.922 25.6537 113.895C25.4299 113.877 25.233 114.029 25.2061 114.253C25.1882 114.387 24.8392 117.462 24.8571 119.277C24.8571 119.5 25.045 119.679 25.2599 119.679Z" fill="#885266"/>
<path d="M25.4389 140.116C25.3762 139.902 25.1613 139.777 24.9376 139.83C24.7227 139.893 24.5974 140.116 24.6511 140.331C24.6958 140.483 25.6985 144.077 26.5667 145.436C26.6473 145.561 26.7725 145.623 26.9068 145.623C26.9784 145.623 27.0589 145.606 27.1216 145.561C27.3096 145.445 27.3634 145.185 27.247 144.998C26.4414 143.737 25.4389 140.152 25.4299 140.116H25.4389Z" fill="#885266"/>
<path d="M18.5112 150.889C18.4485 150.675 18.2336 150.55 18.0098 150.603C17.795 150.666 17.6696 150.889 17.7233 151.104C17.7591 151.22 18.5559 154.054 20.1134 155.637C20.194 155.717 20.3013 155.762 20.3997 155.762C20.4982 155.762 20.6057 155.726 20.6862 155.645C20.8473 155.485 20.8473 155.234 20.6862 155.073C19.2719 153.643 18.5022 150.925 18.4932 150.898L18.5112 150.889Z" fill="#885266"/>
<path d="M34.9895 159.767C34.8552 159.588 34.5958 159.553 34.4167 159.687C34.2377 159.821 34.2018 160.08 34.3361 160.259C34.4346 160.384 36.6724 163.316 37.7824 164.184C37.854 164.237 37.9435 164.273 38.033 164.273C38.1494 164.273 38.2746 164.219 38.3551 164.112C38.4894 163.933 38.4627 163.683 38.2837 163.54C37.2543 162.735 35.0074 159.794 34.9805 159.767H34.9895Z" fill="#885266"/>
<path d="M32.5462 172.337C32.385 172.176 32.1345 172.176 31.9734 172.337C31.8123 172.498 31.8123 172.757 31.9734 172.909C32.0539 172.99 33.88 174.796 35.3301 175.842C35.4017 175.895 35.4822 175.922 35.5718 175.922C35.6971 175.922 35.8223 175.859 35.9028 175.752C36.0371 175.573 35.9925 175.314 35.8135 175.189C34.4081 174.179 32.573 172.355 32.5551 172.337H32.5462Z" fill="#885266"/>
<path d="M52.7761 186.096C50.8337 185.292 48.3543 182.77 48.3364 182.753C48.1842 182.592 47.9245 182.592 47.7634 182.753C47.6023 182.905 47.6023 183.164 47.7634 183.325C47.8708 183.432 50.3772 185.989 52.4807 186.856C52.5344 186.874 52.588 186.883 52.6328 186.883C52.7939 186.883 52.9462 186.785 53.0089 186.633C53.0984 186.427 52.991 186.186 52.7851 186.105L52.7761 186.096Z" fill="#885266"/>
<path d="M69.022 191.353C67.7599 191.004 64.6808 189.359 64.645 189.341C64.448 189.234 64.1973 189.306 64.0899 189.502C63.9825 189.699 64.0542 189.949 64.2512 190.057C64.3765 190.128 67.4376 191.764 68.7982 192.14C68.834 192.149 68.8699 192.157 68.9057 192.157C69.0847 192.157 69.2458 192.041 69.2995 191.862C69.3622 191.648 69.2279 191.424 69.013 191.362L69.022 191.353Z" fill="#885266"/>
<path d="M84.203 201.964C82.5828 201.732 79.1546 200.319 79.1188 200.311C78.9129 200.221 78.6712 200.328 78.5906 200.534C78.5011 200.74 78.5996 200.981 78.8144 201.062C78.9576 201.124 82.3771 202.528 84.0957 202.769C84.1136 202.769 84.1316 202.769 84.1495 202.769C84.3464 202.769 84.5254 202.626 84.5522 202.42C84.588 202.197 84.4268 201.991 84.203 201.964Z" fill="#885266"/>
<path d="M92.6081 197.245C89.6273 197.245 88.3114 196.315 88.2935 196.297C88.1145 196.163 87.864 196.199 87.7297 196.377C87.5955 196.556 87.6311 196.815 87.8101 196.95C87.8728 196.994 89.314 198.067 92.617 198.067C92.8408 198.067 93.0198 197.888 93.0198 197.665C93.0198 197.441 92.8408 197.262 92.617 197.262L92.6081 197.245Z" fill="#885266"/>
<path d="M107.548 201.116C105.677 201.214 103.207 200.311 103.18 200.302C102.965 200.222 102.732 200.338 102.66 200.543C102.58 200.758 102.696 200.99 102.902 201.062C103.001 201.098 105.319 201.938 107.306 201.929C107.405 201.929 107.494 201.929 107.584 201.929C107.807 201.92 107.986 201.732 107.968 201.509C107.96 201.285 107.789 201.125 107.548 201.125V201.116Z" fill="#885266"/>
<path d="M127.696 205.093C124.546 205.701 122.147 205.102 122.12 205.093C121.896 205.04 121.681 205.165 121.628 205.388C121.574 205.612 121.699 205.827 121.923 205.88C121.995 205.898 123.105 206.175 124.814 206.175C125.691 206.175 126.721 206.104 127.849 205.889C128.072 205.844 128.216 205.63 128.171 205.415C128.126 205.192 127.911 205.049 127.696 205.093Z" fill="#885266"/>
<path d="M148.043 199.774C145.779 200.382 142.234 200.266 142.198 200.266C141.992 200.266 141.786 200.436 141.777 200.659C141.777 200.883 141.947 201.071 142.171 201.08C142.216 201.08 142.511 201.088 142.977 201.088C144.194 201.088 146.53 201.017 148.258 200.552C148.473 200.498 148.607 200.275 148.544 200.051C148.491 199.837 148.258 199.712 148.043 199.765V199.774Z" fill="#885266"/>
<path d="M164.101 202.215C161.362 203.208 158.641 203.369 158.614 203.369C158.39 203.378 158.22 203.574 158.229 203.798C158.238 204.012 158.417 204.182 158.632 204.182H158.65C158.766 204.182 161.514 204.012 164.369 202.984C164.584 202.904 164.691 202.671 164.611 202.466C164.53 202.251 164.298 202.153 164.092 202.224L164.101 202.215Z" fill="#885266"/>
<path d="M178.316 193.141C175.469 194.554 172.819 194.965 172.793 194.965C172.569 195.001 172.417 195.206 172.452 195.43C172.479 195.635 172.658 195.779 172.855 195.779C172.873 195.779 172.9 195.779 172.918 195.779C173.034 195.761 175.72 195.349 178.682 193.874C178.879 193.776 178.969 193.535 178.861 193.329C178.763 193.123 178.512 193.043 178.316 193.15V193.141Z" fill="#885266"/>
<path d="M200.291 184.531C197.704 186.373 195.144 187.187 195.126 187.196C194.911 187.267 194.795 187.491 194.858 187.705C194.911 187.875 195.072 187.991 195.243 187.991C195.287 187.991 195.323 187.991 195.368 187.973C195.475 187.938 198.071 187.115 200.765 185.202C200.944 185.077 200.989 184.817 200.864 184.639C200.73 184.46 200.479 184.415 200.3 184.54L200.291 184.531Z" fill="#885266"/>
<path d="M194.114 193.632C192.387 194.66 189.299 195.662 189.272 195.671C189.057 195.742 188.941 195.966 189.012 196.18C189.066 196.35 189.227 196.457 189.397 196.457C189.442 196.457 189.478 196.457 189.523 196.439C189.648 196.395 192.727 195.393 194.535 194.321C194.732 194.204 194.795 193.954 194.678 193.766C194.562 193.57 194.311 193.507 194.123 193.623L194.114 193.632Z" fill="#885266"/>
<path d="M216.098 174.965C213.815 177.424 210.754 179.328 210.727 179.355C210.539 179.471 210.477 179.722 210.593 179.918C210.673 180.043 210.799 180.106 210.942 180.106C211.014 180.106 211.085 180.088 211.157 180.043C211.282 179.963 214.334 178.059 216.697 175.52C216.85 175.359 216.841 175.099 216.68 174.947C216.518 174.795 216.259 174.804 216.107 174.965H216.098Z" fill="#885266"/>
<path d="M223.546 160.724C223.34 160.643 223.098 160.742 223.017 160.956C222.221 163.012 220.627 164.747 220.619 164.756C220.466 164.917 220.475 165.176 220.636 165.328C220.717 165.399 220.815 165.435 220.914 165.435C221.021 165.435 221.129 165.39 221.209 165.301C221.281 165.23 222.919 163.442 223.778 161.242C223.859 161.037 223.751 160.795 223.546 160.715V160.724Z" fill="#885266"/>
<path d="M231.969 165.337C231.763 165.247 231.521 165.337 231.432 165.551C230.617 167.464 228.308 169.521 228.281 169.539C228.111 169.691 228.093 169.941 228.245 170.111C228.326 170.2 228.433 170.245 228.55 170.245C228.648 170.245 228.738 170.209 228.818 170.146C228.917 170.057 231.289 167.956 232.175 165.873C232.264 165.667 232.175 165.426 231.96 165.337H231.969Z" fill="#885266"/>
<path d="M237.303 145.069C237.079 145.024 236.865 145.159 236.82 145.382C236.122 148.52 234.251 151.354 234.224 151.381C234.099 151.569 234.152 151.819 234.34 151.944C234.412 151.989 234.493 152.016 234.564 152.016C234.698 152.016 234.824 151.953 234.904 151.837C234.985 151.721 236.883 148.851 237.617 145.561C237.661 145.346 237.527 145.123 237.303 145.078V145.069Z" fill="#885266"/>
<path d="M231.566 139.071C231.566 139.071 231.637 139.089 231.682 139.089C231.861 139.089 232.023 138.972 232.076 138.794C232.112 138.668 232.953 135.7 232.542 132.383C232.515 132.16 232.3 131.999 232.085 132.035C231.861 132.062 231.7 132.267 231.736 132.491C232.13 135.638 231.306 138.552 231.297 138.579C231.235 138.794 231.36 139.017 231.575 139.08L231.566 139.071Z" fill="#885266"/>
<path d="M244.885 128.056C244.885 128.056 244.912 128.056 244.93 128.056C245.136 128.056 245.315 127.904 245.333 127.69C245.691 124.078 245.342 121.217 245.333 121.101C245.306 120.877 245.091 120.716 244.876 120.752C244.653 120.779 244.492 120.984 244.527 121.208C244.527 121.235 244.877 124.096 244.527 127.618C244.51 127.842 244.671 128.038 244.894 128.065L244.885 128.056Z" fill="#885266"/>
<path d="M236.417 107.324C236.417 107.324 237.465 111.525 237.563 115.021C237.563 115.245 237.751 115.414 237.966 115.414H237.975C238.199 115.414 238.378 115.218 238.369 114.994C238.261 111.409 237.241 107.297 237.196 107.118C237.142 106.903 236.919 106.769 236.704 106.823C236.489 106.877 236.355 107.1 236.408 107.315L236.417 107.324Z" fill="#885266"/>
<path d="M228.558 95.7644C228.558 95.7644 228.621 95.7644 228.657 95.7555C228.871 95.7018 229.006 95.4783 228.952 95.2638C228.621 93.9585 226.159 90.1857 226.061 90.0248C225.935 89.8371 225.685 89.7834 225.497 89.9086C225.309 90.0337 225.255 90.2841 225.38 90.4718C226.07 91.5268 227.923 94.4949 228.164 95.4694C228.209 95.6571 228.379 95.7733 228.558 95.7733V95.7644Z" fill="#885266"/>
<path d="M236.041 85.8493C236.086 86.037 236.247 86.1711 236.435 86.1711C236.462 86.1711 236.489 86.1711 236.525 86.1622C236.74 86.1175 236.883 85.894 236.838 85.6794C236.525 84.2579 234.412 80.1008 234.323 79.922C234.224 79.7253 233.974 79.6448 233.777 79.7431C233.58 79.8415 233.499 80.0918 233.598 80.2885C233.616 80.3332 235.746 84.5261 236.041 85.8493Z" fill="#885266"/>
<path d="M228.2 67.7814C228.272 67.9155 228.415 67.996 228.558 67.996C228.621 67.996 228.692 67.9781 228.755 67.9423C228.952 67.8351 229.024 67.5847 228.916 67.388C228.03 65.7788 226.884 59.628 226.875 59.5654C226.831 59.3419 226.625 59.2078 226.401 59.2435C226.177 59.2882 226.034 59.4939 226.078 59.7174C226.123 59.9766 227.26 66.0649 228.209 67.7814H228.2Z" fill="#885266"/>
<path d="M218.399 75.6935C218.399 75.6935 218.462 75.6935 218.498 75.6846C218.712 75.6309 218.847 75.4074 218.793 75.1929C218.193 72.788 216.985 68.2017 216.985 68.2017L216.197 68.4073C216.197 68.4073 217.405 72.9757 218.005 75.3806C218.05 75.5684 218.22 75.6846 218.399 75.6846V75.6935Z" fill="#885266"/>
<path d="M206.941 70.3563C206.941 70.3563 207.022 70.3563 207.057 70.3384C207.272 70.2758 207.398 70.0434 207.326 69.8288C207.326 69.802 206.431 66.8517 206.476 64.3932C206.476 64.1697 206.297 63.9819 206.073 63.9819C205.84 63.9819 205.661 64.1607 205.661 64.3842C205.625 66.968 206.512 69.945 206.547 70.0702C206.601 70.249 206.762 70.3563 206.932 70.3563H206.941Z" fill="#885266"/>
<path d="M225.712 42.9457C225.712 42.9457 225.775 42.9457 225.811 42.9368C226.025 42.8832 226.159 42.6597 226.106 42.4451C225.721 40.9253 225.309 36.6519 225.309 36.6072C225.291 36.3837 225.094 36.2317 224.862 36.2406C224.638 36.2585 224.477 36.4641 224.495 36.6876C224.512 36.8664 224.915 41.0683 225.318 42.6507C225.363 42.8385 225.533 42.9547 225.712 42.9547V42.9457Z" fill="#885266"/>
<path d="M217.486 30.7869C217.486 30.7869 217.504 30.7869 217.522 30.7869C217.746 30.769 217.916 30.5723 217.898 30.3488C217.719 28.1138 217.898 22.9821 217.898 22.9285C217.898 22.705 217.728 22.5172 217.504 22.5083C217.28 22.5262 217.092 22.6782 217.083 22.9017C217.083 23.1162 216.904 28.1317 217.083 30.4114C217.101 30.626 217.28 30.7869 217.486 30.7869Z" fill="#885266"/>
<path d="M213.216 52.3595C213.216 52.3595 213.269 52.3595 213.287 52.3595C213.511 52.3148 213.654 52.1092 213.609 51.8857C213.019 48.712 212.652 44.6084 212.652 44.5637C212.634 44.3402 212.437 44.1793 212.213 44.1972C211.989 44.215 211.828 44.4117 211.846 44.6352C211.846 44.6799 212.213 48.8192 212.822 52.0288C212.858 52.2254 213.028 52.3595 213.225 52.3595H213.216Z" fill="#885266"/>
<path d="M208.15 20.6847C208.266 20.6847 208.383 20.631 208.463 20.5416C209.698 19.0575 211.122 15.2848 211.184 15.1239C211.265 14.9093 211.158 14.6768 210.943 14.6053C210.737 14.5249 210.495 14.6321 210.423 14.8467C210.406 14.8825 208.991 18.6552 207.837 20.0231C207.693 20.1929 207.72 20.4522 207.89 20.5953C207.971 20.6578 208.06 20.6936 208.15 20.6936V20.6847Z" fill="#885266"/>
<path d="M198.832 52.5831C198.832 52.5831 197.982 56.9459 197.624 58.9664C197.588 59.1899 197.731 59.3955 197.955 59.4402C197.982 59.4402 198 59.4402 198.026 59.4402C198.223 59.4402 198.393 59.2972 198.429 59.1005C198.787 57.08 199.62 52.7708 199.629 52.7261C199.673 52.5026 199.53 52.2881 199.306 52.2523C199.092 52.2076 198.877 52.3507 198.832 52.5742V52.5831Z" fill="#885266"/>
<path d="M198.357 38.27C198.438 38.3415 198.536 38.3772 198.635 38.3772C198.742 38.3772 198.85 38.3325 198.93 38.2431C200.416 36.6339 201.499 33.2992 201.544 33.1562C201.616 32.9416 201.499 32.7092 201.284 32.6466C201.07 32.5751 200.837 32.6913 200.774 32.9059C200.765 32.9416 199.7 36.2048 198.33 37.6888C198.178 37.8498 198.187 38.109 198.357 38.261V38.27Z" fill="#885266"/>
<path d="M195.377 19.4331C195.511 19.4331 195.636 19.3705 195.717 19.2543C196.755 17.7076 199.476 15.3027 199.503 15.2848C199.673 15.1328 199.691 14.8825 199.539 14.7127C199.387 14.5428 199.136 14.5249 198.966 14.6769C198.85 14.7752 196.146 17.1712 195.045 18.8073C194.92 18.995 194.965 19.2453 195.153 19.3705C195.224 19.4152 195.305 19.442 195.377 19.442V19.4331Z" fill="#885266"/>
<path d="M188.385 35.9097C188.511 35.9097 188.627 35.8561 188.708 35.7488C189.316 34.9531 191.876 30.7781 191.984 30.5993C192.1 30.4115 192.037 30.1612 191.849 30.045C191.661 29.9288 191.411 29.9913 191.295 30.1791C191.268 30.2238 188.645 34.5061 188.063 35.2571C187.929 35.4359 187.956 35.6862 188.135 35.8293C188.206 35.8829 188.296 35.9097 188.385 35.9097Z" fill="#885266"/>
<path d="M175.066 34.1664C175.138 34.1664 175.219 34.1485 175.281 34.1038C176.499 33.3439 178.853 30.045 178.951 29.9019C179.086 29.7142 179.041 29.4638 178.853 29.3387C178.674 29.2135 178.414 29.2493 178.289 29.437C177.635 30.3579 175.738 32.8611 174.852 33.4243C174.664 33.5406 174.601 33.7909 174.726 33.9876C174.807 34.1127 174.932 34.1753 175.075 34.1753L175.066 34.1664Z" fill="#885266"/>
<path d="M180.437 52.3415C180.437 52.3415 180.518 52.3594 180.554 52.3594C180.733 52.3594 180.894 52.2432 180.947 52.0644C181.108 51.519 182.469 49.5969 183.293 48.5151C183.427 48.3363 183.391 48.0771 183.212 47.943C183.033 47.8088 182.782 47.8446 182.639 48.0234C182.415 48.3184 180.419 50.9647 180.16 51.8319C180.097 52.0465 180.222 52.27 180.437 52.3326V52.3415Z" fill="#885266"/>
<path d="M49.1861 44.5639C49.1592 44.7874 49.3113 44.9931 49.5351 45.0199C49.553 45.0199 49.5709 45.0199 49.5888 45.0199C49.7857 45.0199 49.9647 44.8679 49.9916 44.6623C50.2601 42.5703 50.0005 38.1538 49.9916 37.9661C49.9737 37.7426 49.7768 37.5548 49.5619 37.5817C49.3382 37.5995 49.1681 37.7873 49.1771 38.0108C49.1771 38.0555 49.4456 42.5435 49.1771 44.555L49.1861 44.5639Z" fill="#885266"/>
<path d="M54.3065 65.2692C54.3602 65.2961 54.4139 65.305 54.4766 65.305C54.6287 65.305 54.781 65.2156 54.8437 65.0636C55.4166 63.7941 55.3358 60.4505 55.3358 60.3074C55.3358 60.0839 55.1479 59.9141 54.9331 59.9141H54.9241C54.7003 59.9141 54.5214 60.1107 54.5303 60.3343C54.5572 61.2462 54.5304 63.8209 54.1186 64.7328C54.0291 64.9384 54.1186 65.1798 54.3245 65.2692H54.3065Z" fill="#885266"/>
<path d="M60.8587 45.1271C60.6439 45.1897 60.5275 45.4222 60.5901 45.6367C60.7155 46.0301 61.7985 49.5078 62.3625 50.3482C62.443 50.4644 62.5682 50.527 62.7025 50.527C62.7831 50.527 62.8547 50.5091 62.9263 50.4555C63.1142 50.3303 63.1681 50.08 63.0427 49.8923C62.622 49.2664 61.7 46.4324 61.3777 45.3953C61.3151 45.1808 61.0825 45.0556 60.8677 45.1271H60.8587Z" fill="#885266"/>
<path d="M61.6727 23.7689C61.7264 23.7957 61.789 23.8046 61.8517 23.8046C62.0128 23.8046 62.1651 23.7242 62.2368 23.5811C62.3263 23.3755 62.2634 23.152 62.0576 23.0626C61.8069 22.8302 60.9297 20.9974 60.2673 19.4239C60.1778 19.2183 59.9363 19.12 59.7304 19.2094C59.5245 19.2988 59.4261 19.5312 59.5156 19.7458C61.1178 23.5364 61.5295 23.7242 61.6727 23.7778V23.7689Z" fill="#885266"/>
<path d="M69.1652 35.9278C69.2457 36.0261 69.362 36.0798 69.4873 36.0798C69.5768 36.0798 69.6663 36.0529 69.7379 35.9904C69.917 35.8473 69.9439 35.597 69.8006 35.4182C69.1025 34.551 67.0526 30.9034 67.0347 30.8676C66.9273 30.6709 66.6767 30.5994 66.4798 30.7156C66.2829 30.8229 66.2111 31.0733 66.3275 31.2699C66.417 31.4219 68.4312 35.0069 69.1652 35.9278Z" fill="#885266"/>
<path d="M78.1346 52.3241C78.1972 52.3599 78.269 52.3778 78.3406 52.3778C78.4839 52.3778 78.618 52.3062 78.6896 52.1721C78.806 51.9754 78.7345 51.7251 78.5375 51.6178C77.6245 51.0904 75.2344 48.4977 74.393 47.5501C74.2409 47.3802 73.9903 47.3623 73.8203 47.5143C73.6502 47.6663 73.6323 47.9166 73.7844 48.0865C73.9097 48.2295 76.9172 51.6178 78.1346 52.3241Z" fill="#885266"/>
<path d="M86.199 35.8473C86.2706 35.9904 86.4139 36.0708 86.5661 36.0708C86.6288 36.0708 86.6914 36.0529 86.7451 36.0261C86.942 35.9278 87.0315 35.6775 86.9241 35.4808C86.7361 35.1053 84.6953 32.6288 84.0687 31.8868C83.9255 31.717 83.666 31.6901 83.4959 31.8332C83.3258 31.9762 83.2989 32.2355 83.4422 32.4053C84.4984 33.6838 86.0557 35.597 86.19 35.8473H86.199Z" fill="#885266"/>
<path d="M99.8942 48.0684C99.9748 48.1668 100.091 48.2204 100.217 48.2204C100.306 48.2204 100.396 48.1936 100.467 48.131C100.646 47.988 100.673 47.7376 100.53 47.5588C99.2139 45.896 96.8956 43.5179 96.7971 43.4195C96.645 43.2586 96.3855 43.2586 96.2244 43.4195C96.0632 43.5715 96.0632 43.8308 96.2244 43.9917C96.2512 44.0185 98.6142 46.4324 99.9032 48.0684H99.8942Z" fill="#885266"/>
<path d="M108.918 38.0734C108.962 38.2611 109.132 38.3952 109.311 38.3952C109.338 38.3952 109.374 38.3952 109.401 38.3863C109.616 38.3416 109.759 38.1181 109.714 37.9035C109.464 36.777 107.584 33.3261 107.503 33.1741C107.396 32.9775 107.145 32.9059 106.948 33.0132C106.752 33.1205 106.68 33.3708 106.787 33.5675C107.315 34.533 108.73 37.2419 108.918 38.0823V38.0734Z" fill="#885266"/>
<path d="M119.766 47.8893C119.801 48.086 119.972 48.2201 120.169 48.2201C120.195 48.2201 120.222 48.2201 120.249 48.2201C120.473 48.1754 120.616 47.9608 120.571 47.7463C120.321 46.4678 119.148 43.6785 119.103 43.5533C119.014 43.3477 118.781 43.2494 118.566 43.3388C118.36 43.4282 118.262 43.6606 118.352 43.8752C118.36 43.902 119.542 46.7092 119.775 47.8983L119.766 47.8893Z" fill="#885266"/>
<path d="M123.974 35.677C123.974 35.9005 124.153 36.0793 124.376 36.0793C124.6 36.0793 124.779 35.8915 124.779 35.668C124.779 34.7651 124.009 32.2976 123.92 32.0204C123.848 31.8059 123.624 31.6897 123.41 31.7522C123.195 31.8238 123.078 32.0473 123.141 32.2618C123.365 32.986 123.956 35.0154 123.965 35.668L123.974 35.677Z" fill="#885266"/>
<path d="M137.489 46.7813C137.543 46.7992 137.588 46.8081 137.641 46.8081C137.803 46.8081 137.955 46.7098 138.017 46.5489C138.322 45.7979 139.127 43.7953 139.27 43.5092C139.369 43.3125 139.288 43.0622 139.091 42.9638C138.886 42.8655 138.644 42.946 138.546 43.1427C138.367 43.5092 137.382 45.9677 137.265 46.2449C137.185 46.4505 137.283 46.6919 137.489 46.7724V46.7813Z" fill="#885266"/>
<path d="M140.658 35.2306C140.703 35.2485 140.756 35.2574 140.801 35.2574C140.962 35.2574 141.123 35.1591 141.186 34.9982C141.41 34.4081 142.045 32.781 142.323 32.3698C142.448 32.182 142.394 31.9317 142.206 31.8065C142.018 31.6814 141.768 31.735 141.643 31.9228C141.267 32.486 140.515 34.4886 140.425 34.7121C140.345 34.9267 140.452 35.1591 140.667 35.2306H140.658Z" fill="#885266"/>
<path d="M156.815 36.5715C156.868 36.5983 156.931 36.6072 156.985 36.6072C157.137 36.6072 157.28 36.5178 157.352 36.3748C157.369 36.3479 158.793 33.3262 159.482 32.3785C159.616 32.1997 159.571 31.9404 159.392 31.8153C159.213 31.6812 158.954 31.7259 158.829 31.9047C158.095 32.9149 156.68 35.9099 156.618 36.035C156.519 36.2407 156.618 36.4821 156.815 36.5715Z" fill="#885266"/>
<path d="M161.514 48.6225C161.577 48.6583 161.648 48.6851 161.729 48.6851C161.863 48.6851 161.997 48.6136 162.078 48.4884C162.087 48.4705 163.224 46.611 164.728 44.662C164.862 44.4832 164.835 44.2329 164.656 44.0898C164.477 43.9557 164.226 43.9826 164.083 44.1614C162.552 46.1461 161.398 48.0414 161.389 48.0593C161.272 48.247 161.335 48.4974 161.523 48.6136L161.514 48.6225Z" fill="#885266"/>
<path d="M15.0461 288.47C15.0371 288.246 14.876 288.041 14.6254 288.085C14.4016 288.094 14.2316 288.282 14.2406 288.505C14.2585 288.935 14.4466 292.698 15.0194 293.664C15.1 293.789 15.2342 293.861 15.3684 293.861C15.44 293.861 15.5116 293.843 15.5743 293.807C15.7623 293.691 15.8248 293.44 15.7174 293.253C15.3594 292.663 15.1177 290.007 15.055 288.479L15.0461 288.47Z" fill="#885266"/>
<path d="M17.6514 302.077C17.5798 301.863 17.347 301.755 17.1321 301.827C16.9173 301.898 16.8099 302.131 16.8815 302.345C16.9978 302.676 18.0361 305.635 19.0834 306.502C19.155 306.565 19.2535 306.592 19.343 306.592C19.4594 306.592 19.5758 306.538 19.6564 306.44C19.7996 306.27 19.7727 306.011 19.6026 305.868C18.8597 305.26 17.9467 302.926 17.6514 302.077Z" fill="#885266"/>
<path d="M25.2694 293.414C25.2425 293.638 25.4125 293.834 25.6363 293.861C25.6542 293.861 25.6632 293.861 25.6811 293.861C25.887 293.861 26.066 293.709 26.0839 293.495C26.1734 292.574 26.0839 288.989 26.0839 288.837C26.0839 288.613 25.8959 288.443 25.6811 288.443H25.6722C25.4484 288.443 25.2694 288.631 25.2784 288.864C25.2784 288.899 25.3679 292.547 25.2784 293.414H25.2694Z" fill="#885266"/>
<path d="M29.4489 304.893C29.5295 304.893 29.6011 304.875 29.6727 304.831C30.3799 304.366 31.4897 302.622 31.615 302.426C31.7314 302.238 31.6778 301.988 31.4898 301.862C31.3018 301.746 31.0511 301.8 30.9258 301.988C30.4872 302.676 29.6459 303.874 29.2252 304.151C29.0372 304.276 28.9836 304.527 29.1089 304.714C29.1895 304.831 29.3147 304.902 29.4489 304.893Z" fill="#885266"/>
<path d="M36.2519 295.747C36.3683 295.747 36.4756 295.703 36.5561 295.613C37.317 294.755 37.9347 292.484 37.9974 292.234C38.0511 292.019 37.9257 291.796 37.7109 291.742C37.496 291.679 37.2722 291.814 37.2185 292.028C37.0484 292.672 36.4935 294.469 35.9475 295.077C35.7953 295.247 35.8133 295.497 35.9834 295.649C36.0639 295.72 36.1535 295.747 36.2519 295.747Z" fill="#885266"/>
<path d="M37.6301 305.331C37.7106 305.447 37.836 305.501 37.9614 305.501C38.0419 305.501 38.1225 305.474 38.1941 305.429C39.134 304.777 40.8973 302.184 41.1032 301.889C41.2285 301.701 41.1837 301.451 40.9957 301.326C40.8077 301.201 40.5572 301.245 40.4319 301.433C39.9127 302.193 38.4268 304.276 37.7376 304.759C37.5496 304.884 37.5048 305.143 37.639 305.322L37.6301 305.331Z" fill="#885266"/>
<path d="M241.108 218.915C239.085 219.738 237.196 221.258 237.115 221.32C236.936 221.463 236.91 221.714 237.053 221.892C237.133 221.991 237.25 222.044 237.366 222.044C237.456 222.044 237.545 222.017 237.626 221.955C237.644 221.937 239.497 220.453 241.412 219.666C241.618 219.577 241.716 219.344 241.636 219.139C241.546 218.933 241.314 218.835 241.108 218.915Z" fill="#885266"/>
<path d="M248.161 225.174C247.973 225.057 247.722 225.12 247.606 225.317C246.478 227.23 244.679 228.911 244.661 228.928C244.5 229.08 244.491 229.34 244.643 229.501C244.723 229.59 244.831 229.626 244.938 229.626C245.037 229.626 245.135 229.59 245.216 229.518C245.296 229.447 247.114 227.739 248.304 225.728C248.42 225.531 248.358 225.29 248.161 225.174Z" fill="#885266"/>
<path d="M254.687 214.293C254.669 214.07 254.472 213.909 254.248 213.918C252.95 214.007 249.772 214.982 249.638 215.017C249.423 215.08 249.307 215.312 249.369 215.527C249.423 215.706 249.584 215.813 249.754 215.813C249.79 215.813 249.835 215.813 249.871 215.795C249.907 215.786 253.093 214.812 254.302 214.731C254.525 214.714 254.696 214.517 254.678 214.293H254.687Z" fill="#885266"/>
<path d="M256.45 223.94C256.567 223.94 256.674 223.895 256.755 223.797C257.426 223.028 258.035 220.82 258.106 220.569C258.169 220.355 258.035 220.131 257.82 220.069C257.605 220.015 257.381 220.14 257.319 220.355C257.149 220.98 256.611 222.724 256.137 223.26C255.985 223.43 256.003 223.689 256.173 223.832C256.253 223.904 256.343 223.931 256.441 223.931L256.45 223.94Z" fill="#885266"/>
<path d="M255.411 231.092C255.197 231.03 254.973 231.146 254.901 231.36C254.901 231.378 254.176 233.622 252.735 234.981C252.574 235.133 252.565 235.392 252.717 235.553C252.798 235.634 252.905 235.678 253.013 235.678C253.111 235.678 253.21 235.643 253.29 235.571C254.883 234.069 255.644 231.709 255.68 231.602C255.752 231.387 255.626 231.164 255.411 231.092Z" fill="#885266"/>
<path d="M264.318 226.559C264.095 226.559 263.916 226.738 263.916 226.961C263.916 226.988 263.907 229.581 262.976 231.279C262.868 231.476 262.94 231.726 263.137 231.834C263.2 231.87 263.262 231.887 263.334 231.887C263.477 231.887 263.62 231.807 263.692 231.673C264.721 229.795 264.739 227.078 264.739 226.961C264.739 226.738 264.56 226.559 264.336 226.559H264.318Z" fill="#885266"/>
<path d="M260.532 238.164C260.335 238.056 260.084 238.128 259.977 238.325C259.959 238.36 258.026 241.847 256.244 242.866C256.047 242.982 255.985 243.224 256.092 243.42C256.164 243.555 256.307 243.626 256.45 243.626C256.522 243.626 256.584 243.608 256.656 243.572C258.634 242.446 260.613 238.87 260.693 238.718C260.8 238.521 260.729 238.271 260.532 238.164Z" fill="#885266"/>
<path d="M49.8131 337.847C49.8131 337.847 49.8669 337.847 49.8938 337.847C49.9117 337.847 52.1941 337.364 54.6915 337.006C54.9152 336.971 55.0675 336.765 55.0407 336.55C55.0049 336.327 54.799 336.175 54.5842 336.202C52.0689 336.559 49.7594 337.042 49.7325 337.051C49.5177 337.096 49.3746 337.31 49.4193 337.534C49.4641 337.722 49.6252 337.856 49.8131 337.856V337.847Z" fill="#885266"/>
<path d="M44.6658 344.4C44.621 344.176 44.3972 344.033 44.1914 344.078C41.7566 344.561 39.304 345.75 39.1966 345.794C38.9907 345.893 38.9101 346.134 39.0086 346.34C39.0802 346.483 39.2236 346.572 39.3757 346.572C39.4384 346.572 39.4921 346.563 39.5547 346.528C39.5816 346.519 42.0251 345.339 44.3524 344.874C44.5762 344.829 44.7195 344.614 44.6748 344.4H44.6658Z" fill="#885266"/>
<path d="M52.668 347.296C52.6859 347.502 52.8648 347.663 53.0707 347.663C53.0886 347.663 53.0976 347.663 53.1155 347.663L57.5732 347.18C57.7969 347.153 57.9582 346.957 57.9313 346.733C57.9045 346.51 57.6986 346.358 57.4838 346.375L53.0261 346.858C52.8024 346.885 52.6411 347.082 52.668 347.305V347.296Z" fill="#885266"/>
<path d="M56.5176 356.398C56.5176 356.621 56.6966 356.8 56.9203 356.8H61.378C61.6018 356.8 61.781 356.621 61.781 356.389C61.781 356.156 61.6018 355.986 61.378 355.986H56.9203C56.6966 355.986 56.5176 356.165 56.5176 356.398Z" fill="#885266"/>
<path d="M46.241 354.681C46.241 354.681 43.3946 355.253 41.6223 354.69C41.4075 354.627 41.1747 354.743 41.112 354.958C41.0404 355.172 41.1658 355.396 41.3806 355.467C42.0609 355.682 42.8575 355.754 43.6094 355.754C45.0416 355.754 46.3305 355.494 46.411 355.476C46.6348 355.432 46.7692 355.217 46.7244 354.994C46.6796 354.779 46.4648 354.627 46.241 354.681Z" fill="#885266"/>
<path d="M49.034 361.413C49.9112 361.618 50.7793 361.69 51.5491 361.69C53.0171 361.69 54.1182 361.431 54.1809 361.422C54.3957 361.368 54.5299 361.154 54.4851 360.93C54.4403 360.707 54.2165 360.581 53.9927 360.626C53.9659 360.626 51.594 361.18 49.2219 360.626C48.9982 360.572 48.7833 360.707 48.7296 360.93C48.6759 361.154 48.8102 361.368 49.034 361.422V361.413Z" fill="#885266"/>
<path d="M74.0435 335.138C74.0973 335.138 74.1509 335.129 74.2046 335.102C74.4105 335.012 74.5089 334.771 74.4194 334.565C73.7212 332.947 73.0051 328.093 73.0051 328.048C72.9693 327.825 72.7544 327.673 72.5396 327.708C72.3158 327.744 72.1638 327.95 72.1996 328.173C72.2264 328.379 72.9424 333.18 73.6764 334.896C73.7391 335.048 73.8914 335.147 74.0525 335.147L74.0435 335.138Z" fill="#885266"/>
<path d="M77.5887 349.263C77.3649 349.299 77.2216 349.514 77.2574 349.737C77.2574 349.782 77.9736 353.912 77.9736 355.074C77.9736 355.298 78.1525 355.477 78.3763 355.477C78.6001 355.477 78.7793 355.298 78.7793 355.074C78.7793 353.841 78.0811 349.773 78.0542 349.594C78.0184 349.371 77.8125 349.228 77.5798 349.263H77.5887Z" fill="#885266"/>
<path d="M79.3068 369.673C79.083 369.7 78.922 369.897 78.9488 370.121C78.9488 370.156 79.2979 373.384 78.9488 375.351C78.913 375.574 79.0561 375.78 79.2799 375.824C79.3068 375.824 79.3247 375.824 79.3516 375.824C79.5485 375.824 79.7185 375.681 79.7544 375.485C80.1213 373.402 79.7723 370.165 79.7544 370.022C79.7275 369.799 79.5216 369.638 79.3068 369.665V369.673Z" fill="#885266"/>
<path d="M75.216 392.721C75.0012 392.677 74.7774 392.811 74.7326 393.034C74.7326 393.07 74.0076 396.414 73.6495 397.835C73.5958 398.05 73.73 398.273 73.9448 398.327C73.9806 398.327 74.0075 398.336 74.0433 398.336C74.2224 398.336 74.3924 398.211 74.4371 398.032C74.7952 396.601 75.5202 393.24 75.5202 393.204C75.565 392.99 75.4308 392.766 75.207 392.721H75.216Z" fill="#885266"/>
<path d="M86.1369 334.682C86.11 334.458 85.9042 334.297 85.6804 334.333C85.4566 334.36 85.2954 334.566 85.3312 334.789C85.4028 335.37 86.0742 340.538 86.5665 341.646C86.6381 341.798 86.7813 341.888 86.9424 341.888C86.9961 341.888 87.0498 341.879 87.1035 341.852C87.3093 341.762 87.3988 341.521 87.3093 341.315C86.9334 340.475 86.3338 336.246 86.1369 334.691V334.682Z" fill="#885266"/>
<path d="M88.9024 360.876C88.6876 360.921 88.5445 361.136 88.5893 361.359C88.5982 361.404 89.5381 365.82 89.3054 367.421C89.2696 367.644 89.4306 367.85 89.6544 367.876C89.6723 367.876 89.6903 367.876 89.7171 367.876C89.914 367.876 90.093 367.733 90.1199 367.528C90.3705 365.793 89.4306 361.368 89.3948 361.18C89.35 360.957 89.1262 360.832 88.9114 360.867L88.9024 360.876Z" fill="#885266"/>
<path d="M88.1145 392.114C87.8907 392.132 87.7207 392.328 87.7386 392.552C87.8729 394.242 88.0069 397.156 87.7653 397.791C87.6847 398.005 87.7921 398.238 88.007 398.309C88.0517 398.327 88.1056 398.336 88.1503 398.336C88.3114 398.336 88.4725 398.238 88.5352 398.077C88.9201 397.058 88.5978 392.945 88.562 392.48C88.5441 392.257 88.3472 392.096 88.1234 392.105L88.1145 392.114Z" fill="#885266"/>
<path d="M91.6771 319.349C91.6592 319.126 91.4623 318.947 91.2385 318.974C91.0147 318.992 90.8447 319.188 90.8626 319.412C90.8984 319.913 91.2475 324.374 91.7398 325.491C91.8114 325.643 91.9546 325.733 92.1157 325.733C92.1694 325.733 92.223 325.724 92.2768 325.697C92.4826 325.607 92.5721 325.366 92.4826 325.16C92.1067 324.32 91.7666 320.681 91.6681 319.349H91.6771Z" fill="#885266"/>
<path d="M99.4914 337.712L99.9121 343.676C99.93 343.89 100.109 344.051 100.315 344.051C100.324 344.051 100.333 344.051 100.342 344.051C100.565 344.033 100.736 343.837 100.718 343.613L100.297 337.65L99.4824 337.704L99.4914 337.712Z" fill="#885266"/>
<path d="M103.431 366.24C103.413 366.464 103.583 366.66 103.807 366.678C103.816 366.678 103.825 366.678 103.834 366.678C104.048 366.678 104.227 366.517 104.236 366.303C104.362 364.586 103.753 361.091 103.726 360.939C103.69 360.715 103.475 360.563 103.252 360.608C103.028 360.644 102.885 360.858 102.921 361.082C102.921 361.118 103.529 364.631 103.422 366.249L103.431 366.24Z" fill="#885266"/>
<path d="M104.227 380.098C104.218 379.874 104.03 379.668 103.806 379.713C103.583 379.722 103.412 379.91 103.421 380.133C103.421 380.25 103.564 383.075 103.914 384.773C103.949 384.961 104.12 385.095 104.308 385.095C104.334 385.095 104.361 385.095 104.388 385.095C104.603 385.051 104.746 384.836 104.701 384.612C104.361 382.976 104.227 380.133 104.218 380.098H104.227Z" fill="#885266"/>
<path d="M107.995 393.553C107.771 393.571 107.61 393.776 107.628 394C107.628 394.036 107.977 397.594 107.628 400.043C107.592 400.267 107.753 400.472 107.977 400.499C107.995 400.499 108.013 400.499 108.04 400.499C108.237 400.499 108.416 400.356 108.443 400.151C108.81 397.603 108.46 394.062 108.443 393.91C108.425 393.687 108.219 393.526 107.995 393.544V393.553Z" fill="#885266"/>
<path d="M105.892 324.848C105.829 324.633 105.615 324.508 105.391 324.562C105.176 324.624 105.042 324.848 105.104 325.062C105.346 325.965 106.196 328.942 106.975 329.524C107.047 329.577 107.136 329.604 107.217 329.604C107.342 329.604 107.458 329.55 107.539 329.443C107.673 329.264 107.637 329.005 107.458 328.871C107.082 328.585 106.348 326.564 105.892 324.848Z" fill="#885266"/>
<path d="M122.076 336.201C120.456 335.683 118.039 333.6 118.012 333.582C117.842 333.439 117.582 333.457 117.439 333.627C117.296 333.797 117.314 334.056 117.484 334.199C117.591 334.288 120.053 336.407 121.834 336.979C121.879 336.988 121.915 336.997 121.959 336.997C122.129 336.997 122.291 336.89 122.344 336.711C122.416 336.497 122.291 336.273 122.085 336.201H122.076Z" fill="#885266"/>
<path d="M126.005 324.919C124.349 324.579 122.12 323.676 122.102 323.667C121.896 323.578 121.654 323.685 121.574 323.891C121.484 324.097 121.592 324.338 121.798 324.418C121.887 324.454 124.116 325.366 125.852 325.715C125.879 325.715 125.906 325.715 125.933 325.715C126.121 325.715 126.291 325.581 126.327 325.393C126.372 325.169 126.229 324.955 126.005 324.91V324.919Z" fill="#885266"/>
<path d="M138.071 335.584C136.531 336.183 132.521 336.166 132.521 336.183C132.297 336.183 132.118 336.362 132.118 336.586C132.118 336.809 132.297 336.997 132.521 336.997H132.539C132.852 336.997 136.719 336.979 138.366 336.344C138.572 336.264 138.679 336.031 138.599 335.817C138.518 335.611 138.277 335.504 138.071 335.584Z" fill="#885266"/>
<path d="M146.709 325.116C146.601 324.919 146.351 324.847 146.154 324.964C144.588 325.849 140.765 326.904 140.73 326.913C140.515 326.975 140.389 327.199 140.443 327.413C140.497 327.592 140.658 327.708 140.837 327.708C140.873 327.708 140.909 327.708 140.944 327.69C141.106 327.646 144.901 326.591 146.548 325.661C146.745 325.554 146.816 325.303 146.7 325.107L146.709 325.116Z" fill="#885266"/>
<path d="M145.715 358.186C145.715 358.186 145.742 358.186 145.76 358.186C145.966 358.186 146.145 358.034 146.163 357.819C146.288 356.594 145.939 352.5 145.921 352.321C145.903 352.098 145.707 351.937 145.483 351.954C145.259 351.972 145.098 352.169 145.116 352.393C145.116 352.437 145.474 356.585 145.357 357.739C145.339 357.962 145.5 358.159 145.724 358.186H145.715Z" fill="#885266"/>
<path d="M146.333 371.757C146.109 371.775 145.939 371.971 145.957 372.195C146.038 373.348 146.199 376.549 145.966 377.487C145.912 377.702 146.047 377.926 146.261 377.979C146.297 377.979 146.324 377.988 146.36 377.988C146.539 377.988 146.709 377.863 146.754 377.684C147.067 376.433 146.772 372.311 146.763 372.141C146.745 371.918 146.53 371.757 146.324 371.766L146.333 371.757Z" fill="#885266"/>
<path d="M145.626 392.301C145.608 392.078 145.403 391.917 145.188 391.926C144.964 391.944 144.794 392.14 144.812 392.364C144.821 392.534 145.134 396.44 146.011 398.005C146.083 398.139 146.226 398.211 146.369 398.211C146.441 398.211 146.504 398.193 146.566 398.157C146.763 398.05 146.835 397.799 146.718 397.603C145.931 396.19 145.626 392.328 145.626 392.292V392.301Z" fill="#885266"/>
<path d="M161.067 320.386C161.192 320.199 161.147 319.948 160.959 319.823C160.78 319.698 160.521 319.743 160.395 319.93C160.386 319.948 159.205 321.638 157.665 321.951C157.441 321.995 157.298 322.21 157.343 322.425C157.379 322.621 157.549 322.755 157.737 322.755C157.764 322.755 157.791 322.755 157.817 322.755C159.679 322.389 161.004 320.485 161.058 320.404L161.067 320.386Z" fill="#885266"/>
<path d="M189.209 314.137C188.994 314.19 188.851 314.405 188.905 314.62C188.905 314.637 189.335 316.56 188.905 318.526C188.86 318.741 188.994 318.964 189.218 319.009C189.245 319.009 189.272 319.018 189.308 319.018C189.496 319.018 189.666 318.884 189.702 318.696C190.167 316.56 189.72 314.53 189.702 314.441C189.657 314.226 189.442 314.083 189.218 314.137H189.209Z" fill="#885266"/>
<path d="M183.319 325.911C183.104 325.867 182.881 326.01 182.836 326.233C182.639 327.217 182.03 329.944 181.609 330.712C181.502 330.909 181.574 331.159 181.771 331.267C181.833 331.302 181.896 331.32 181.967 331.32C182.111 331.32 182.254 331.24 182.326 331.106C182.89 330.069 183.606 326.555 183.632 326.403C183.677 326.18 183.534 325.965 183.31 325.92L183.319 325.911Z" fill="#885266"/>
<path d="M163.806 330.498C163.582 330.498 163.403 330.686 163.403 330.909C163.403 330.936 163.403 333.922 162.803 335.451C162.723 335.657 162.821 335.898 163.036 335.978C163.081 335.996 163.134 336.005 163.188 336.005C163.349 336.005 163.502 335.907 163.564 335.746C164.227 334.065 164.218 331.026 164.218 330.9C164.218 330.677 164.039 330.498 163.815 330.498H163.806Z" fill="#885266"/>
<path d="M156.171 349.004C155.947 348.986 155.75 349.138 155.723 349.361C155.705 349.522 155.267 353.367 155.267 354.466C155.267 354.69 155.446 354.869 155.669 354.869C155.893 354.869 156.072 354.69 156.072 354.466C156.072 353.42 156.52 349.496 156.52 349.46C156.547 349.236 156.385 349.04 156.162 349.013L156.171 349.004Z" fill="#885266"/>
<path d="M156.86 367.421C156.627 367.403 156.448 367.59 156.439 367.814C156.439 367.975 156.35 371.819 156.439 372.829C156.457 373.044 156.636 373.196 156.842 373.196C156.851 373.196 156.869 373.196 156.878 373.196C157.102 373.178 157.263 372.981 157.245 372.758C157.155 371.801 157.245 367.877 157.245 367.841C157.245 367.617 157.075 367.43 156.851 367.421H156.86Z" fill="#885266"/>
<path d="M160.235 389.261C160.199 389.038 159.993 388.886 159.778 388.913C159.554 388.948 159.402 389.154 159.429 389.369C159.554 390.227 160.181 394.563 160.557 395.251C160.628 395.385 160.772 395.466 160.915 395.466C160.978 395.466 161.049 395.448 161.112 395.412C161.309 395.305 161.38 395.055 161.273 394.858C161.049 394.447 160.53 391.327 160.235 389.244V389.261Z" fill="#885266"/>
<path d="M175.863 389.476C175.657 389.557 175.55 389.798 175.639 390.004C176.06 391.05 177.152 393.991 177.152 395.055C177.152 395.278 177.331 395.457 177.555 395.457C177.778 395.457 177.957 395.278 177.957 395.055C177.957 393.607 176.454 389.861 176.391 389.7C176.31 389.494 176.069 389.396 175.863 389.476Z" fill="#885266"/>
<path d="M169.785 375.369C169.562 375.369 169.383 375.547 169.383 375.762C169.383 375.941 169.293 380.134 169.383 381.135C169.4 381.35 169.579 381.502 169.785 381.502C169.794 381.502 169.812 381.502 169.821 381.502C170.045 381.484 170.206 381.287 170.188 381.064C170.099 380.107 170.188 375.825 170.188 375.78C170.188 375.556 170.018 375.369 169.794 375.369H169.785Z" fill="#885266"/>
<path d="M175.97 363.603C175.881 362.262 176.409 358.624 176.418 358.588C176.454 358.364 176.293 358.159 176.078 358.123C175.863 358.096 175.648 358.239 175.612 358.463C175.594 358.615 175.066 362.226 175.156 363.648C175.174 363.862 175.353 364.032 175.558 364.032C175.558 364.032 175.576 364.032 175.585 364.032C175.809 364.014 175.979 363.827 175.961 363.603H175.97Z" fill="#885266"/>
<path d="M171.441 340.243C171.226 340.234 171.02 340.386 170.994 340.609C170.994 340.645 170.626 344.382 170.197 345.955C170.134 346.17 170.259 346.393 170.483 346.456C170.519 346.465 170.555 346.474 170.591 346.474C170.77 346.474 170.931 346.358 170.985 346.179C171.441 344.534 171.799 340.85 171.808 340.69C171.826 340.466 171.665 340.269 171.441 340.243Z" fill="#885266"/>
<path d="M117.591 272.843L114.011 268.086C109.902 273.656 105.606 277.286 105.409 277.447C105.14 277.67 105.033 278.046 105.149 278.386C105.265 278.716 105.579 278.949 105.928 278.949L108.721 278.976L108.336 282.033C108.309 282.266 108.372 282.507 108.524 282.686C108.694 282.891 108.935 282.99 109.177 282.99C109.356 282.99 109.544 282.927 109.696 282.802C109.884 282.641 114.002 279.208 118.28 273.772L118.083 273.504L117.591 272.834V272.843Z" fill="#3EBAC2"/>
<path d="M96.6192 239.379C96.5118 239.379 96.4223 239.468 96.4223 239.576V250.688H91.2038V239.576C91.2038 239.468 91.1143 239.379 91.0069 239.379H84.6783C84.5709 239.379 84.4814 239.468 84.4814 239.576V270.088C84.4814 270.196 84.5709 270.285 84.6873 270.285H91.0158C91.1232 270.285 91.2127 270.196 91.2127 270.088V257.599H96.4313V270.088C96.4313 270.196 96.5208 270.285 96.6282 270.285H102.948C103.055 270.285 103.145 270.196 103.145 270.088V239.576C103.145 239.468 103.055 239.379 102.939 239.379H96.6192Z" fill="#3EBAC2"/>
<path d="M163.878 263.366V258.208H169.839C169.947 258.208 170.036 258.118 170.036 258.011V251.681C170.036 251.574 169.947 251.485 169.839 251.485H163.878V246.255H170.779C170.887 246.255 170.976 246.165 170.976 246.058V239.567C170.976 239.46 170.887 239.371 170.779 239.371H156.744C156.636 239.371 156.547 239.46 156.547 239.567V270.08C156.547 270.187 156.636 270.277 156.744 270.277H170.824C170.931 270.277 171.021 270.187 171.021 270.08V263.563C171.021 263.455 170.931 263.366 170.824 263.366H163.878Z" fill="#3EBAC2"/>
<path d="M142.386 239.371H134.312C134.312 239.371 134.25 239.388 134.223 239.406V270.187C134.223 270.187 134.267 270.277 134.312 270.277H140.837C140.945 270.277 141.034 270.187 141.034 270.08V258.664H141.956C145.08 258.664 147.569 257.796 149.341 256.08C151.113 254.363 152.017 251.967 152.017 248.954C152.017 246.094 151.131 243.76 149.377 242.008C147.622 240.256 145.268 239.371 142.386 239.371ZM143.952 251.574C143.433 251.994 142.69 252.253 141.715 252.37L141.034 252.45V245.611L141.715 245.682C142.726 245.79 143.487 246.04 143.988 246.442C144.606 246.943 144.928 247.819 144.928 249.062C144.928 250.224 144.615 251.055 143.961 251.583L143.952 251.574Z" fill="#3EBAC2"/>
<path d="M123.033 266.745C121.172 264.438 118.692 260.281 118.692 260.281C117.099 257.429 116.096 254.801 115.72 252.468C115.282 249.732 115.872 247.533 117.305 246.576C117.725 246.299 118.164 246.147 118.63 246.147C118.647 246.147 118.665 246.147 118.683 246.147C118.808 246.147 118.925 246.183 119.05 246.209C119.292 246.263 119.534 246.343 119.739 246.478C121.037 247.336 121.539 249.759 121.046 252.798C120.769 254.506 119.99 257.081 119.319 258.878C120.634 261.175 122.675 264.152 123.696 265.52C125.54 261.864 127.187 257.447 127.751 253.916C129.102 245.449 125.182 241.847 123.436 240.693C122.102 239.808 120.59 239.361 119.041 239.29C118.898 239.29 118.764 239.281 118.621 239.281C116.884 239.281 115.13 239.772 113.581 240.801C109.83 243.295 108.121 248.087 109.007 253.612C109.661 257.653 111.603 262.159 114.798 267.004L118.576 272.118L119.14 272.86C123.293 277.947 127.33 281.63 128.136 282.355C128.288 282.498 128.485 282.569 128.682 282.569C128.807 282.569 128.941 282.542 129.058 282.48C129.362 282.328 129.541 281.997 129.514 281.648L129.263 278.671L132.119 278.761C132.119 278.761 132.155 278.761 132.173 278.761C132.396 278.761 132.62 278.644 132.772 278.466C132.915 278.296 133.005 278.054 132.987 277.831C132.969 277.607 132.88 277.384 132.719 277.232C132.665 277.187 127.643 272.708 123.042 266.754L123.033 266.745Z" fill="#3EBAC2"/>
<path d="M134.115 239.576V270.089C134.115 270.151 134.187 270.16 134.232 270.196V239.415C134.169 239.451 134.115 239.504 134.115 239.576Z" fill="#3EBAC2"/>
<path d="M124.529 266.62L124.806 266.075C126.883 261.971 128.44 257.492 128.987 254.095C130.454 244.895 126.077 240.899 124.126 239.612C122.667 238.646 120.93 238.083 119.113 238.003C118.952 238.003 118.791 237.994 118.63 237.994C116.589 237.994 114.611 238.593 112.919 239.719C108.739 242.499 106.833 247.756 107.799 253.791C108.444 257.796 110.288 262.195 113.277 266.897L113.242 266.951L113.268 266.987L113.018 267.326C108.999 272.78 104.792 276.32 104.622 276.472C103.95 277.035 103.7 277.974 103.986 278.806C104.272 279.637 105.051 280.2 105.919 280.209L107.325 280.227L107.119 281.881C107.047 282.462 107.217 283.061 107.593 283.508C107.996 283.991 108.578 284.259 109.196 284.259C109.67 284.259 110.127 284.089 110.494 283.794C110.673 283.651 114.808 280.191 119.122 274.747C123.007 279.342 126.597 282.623 127.331 283.276C127.707 283.615 128.19 283.803 128.7 283.803C129.022 283.803 129.345 283.723 129.631 283.58C130.401 283.186 130.839 282.373 130.768 281.514L130.643 279.959L132.066 280.004H132.084H132.2C132.773 280.004 133.346 279.735 133.731 279.279C134.098 278.85 134.286 278.287 134.25 277.733C134.214 277.161 133.954 276.624 133.552 276.267C133.507 276.231 128.924 272.127 124.556 266.62H124.529ZM109.697 282.811C109.545 282.936 109.366 282.999 109.178 282.999C108.936 282.999 108.694 282.891 108.524 282.695C108.372 282.516 108.301 282.274 108.336 282.042L108.721 278.984L105.928 278.958C105.579 278.958 105.266 278.725 105.15 278.394C105.033 278.055 105.132 277.688 105.409 277.456C105.606 277.286 109.903 273.665 114.011 268.095L117.592 272.851L118.084 273.522L118.281 273.79C114.011 279.226 109.894 282.659 109.697 282.82V282.811ZM132.764 278.448C132.612 278.627 132.388 278.743 132.164 278.743C132.146 278.743 132.128 278.743 132.11 278.743L129.255 278.654L129.506 281.631C129.533 281.979 129.354 282.301 129.049 282.462C128.933 282.525 128.799 282.552 128.673 282.552C128.476 282.552 128.279 282.48 128.127 282.337C127.322 281.613 123.294 277.921 119.131 272.842L118.567 272.1L114.79 266.987C111.604 262.141 109.652 257.644 108.999 253.594C108.104 248.069 109.813 243.286 113.573 240.783C115.112 239.755 116.867 239.263 118.612 239.263C118.755 239.263 118.899 239.263 119.033 239.272C120.581 239.344 122.094 239.8 123.428 240.676C125.173 241.829 129.094 245.441 127.742 253.898C127.178 257.43 125.531 261.846 123.687 265.503C122.667 264.135 120.617 261.167 119.31 258.86C119.991 257.072 120.769 254.497 121.038 252.781C121.521 249.741 121.02 247.318 119.731 246.46C119.525 246.326 119.284 246.245 119.042 246.192C118.926 246.165 118.8 246.138 118.675 246.129C118.657 246.129 118.639 246.129 118.621 246.129C118.147 246.129 117.708 246.281 117.296 246.558C115.864 247.515 115.274 249.714 115.712 252.45C116.088 254.792 117.09 257.412 118.684 260.264C118.684 260.264 121.163 264.421 123.025 266.727C127.635 272.682 132.657 277.161 132.701 277.205C132.871 277.357 132.961 277.581 132.97 277.804C132.988 278.028 132.898 278.269 132.755 278.439L132.764 278.448ZM118.567 257.287C117.744 255.481 117.198 253.8 116.947 252.253C116.589 250.063 116.992 248.284 117.986 247.622C118.209 247.47 118.415 247.399 118.639 247.399C118.666 247.399 118.702 247.408 118.729 247.417L118.8 247.434C118.952 247.47 119.024 247.497 119.069 247.524C119.749 247.98 120.286 249.75 119.83 252.575C119.615 253.907 119.087 255.758 118.567 257.278V257.287Z" fill="#004A9E"/>
<path d="M104.37 270.089V239.576C104.37 238.861 103.825 238.289 103.135 238.191C103.064 238.182 103.01 238.155 102.938 238.155H96.6189C95.8312 238.155 95.1956 238.798 95.1956 239.585V249.473H92.4388V239.585C92.4388 238.798 91.7942 238.155 91.0065 238.155H84.678C83.8903 238.155 83.2549 238.798 83.2549 239.585V270.098C83.2549 270.885 83.8992 271.52 84.6869 271.52H91.0155C91.8032 271.52 92.4388 270.876 92.4388 270.089V258.833H95.1956V270.089C95.1956 270.876 95.8401 271.511 96.6278 271.511H102.947C103.019 271.511 103.082 271.484 103.144 271.466C103.834 271.368 104.37 270.795 104.37 270.08V270.089ZM103.144 270.089C103.144 270.196 103.055 270.286 102.947 270.286H96.6278C96.5204 270.286 96.4309 270.196 96.4309 270.089V257.6H91.2123V270.089C91.2123 270.196 91.1229 270.286 91.0155 270.286H84.6869C84.5795 270.286 84.49 270.196 84.49 270.089V239.576C84.49 239.469 84.5706 239.38 84.6869 239.38H91.0155C91.1229 239.38 91.2123 239.469 91.2123 239.576V250.689H96.4309V239.576C96.4309 239.469 96.5204 239.38 96.6278 239.38H102.947C103.055 239.38 103.144 239.469 103.144 239.576V270.089Z" fill="#004A9E"/>
<path d="M141.706 245.673L141.025 245.602V252.441L141.715 252.36C142.681 252.253 143.433 251.985 143.952 251.565C144.606 251.037 144.919 250.206 144.919 249.044C144.919 247.801 144.606 246.916 143.979 246.424C143.478 246.022 142.717 245.771 141.706 245.664V245.673ZM143.174 250.626C142.959 250.796 142.646 250.939 142.261 251.028V247.005C142.681 247.095 143.013 247.229 143.21 247.399C143.523 247.649 143.684 248.221 143.684 249.061C143.684 249.83 143.514 250.349 143.174 250.626Z" fill="#004A9E"/>
<path d="M142.386 238.146H134.312C134.312 238.146 134.258 238.163 134.223 238.163C133.48 238.208 132.88 238.816 132.88 239.576V270.089C132.88 270.849 133.48 271.448 134.223 271.492C134.249 271.492 134.276 271.51 134.312 271.51H140.837C141.625 271.51 142.261 270.867 142.261 270.08V259.897C145.573 259.843 148.24 258.86 150.191 256.974C152.214 255.016 153.244 252.325 153.244 248.963C153.244 245.602 152.232 243.134 150.245 241.14C148.249 239.147 145.608 238.146 142.386 238.146ZM149.341 256.088C147.569 257.805 145.08 258.672 141.956 258.672H141.034V270.089C141.034 270.196 140.945 270.285 140.837 270.285H134.312C134.267 270.285 134.258 270.232 134.223 270.205C134.178 270.169 134.115 270.151 134.115 270.098V239.585C134.115 239.513 134.16 239.46 134.223 239.424C134.249 239.406 134.276 239.388 134.312 239.388H142.386C145.268 239.388 147.622 240.273 149.377 242.026C151.131 243.778 152.017 246.12 152.017 248.972C152.017 251.985 151.122 254.381 149.341 256.097V256.088Z" fill="#004A9E"/>
<path d="M170.824 262.141H165.104V259.441H169.839C170.627 259.441 171.262 258.797 171.262 258.01V251.681C171.262 250.894 170.618 250.25 169.839 250.25H165.104V247.479H170.779C171.567 247.479 172.202 246.835 172.202 246.048V239.558C172.202 238.771 171.558 238.127 170.77 238.127H156.735C155.947 238.127 155.312 238.771 155.312 239.558V270.071C155.312 270.857 155.956 271.492 156.744 271.492H170.824C171.611 271.492 172.256 270.849 172.256 270.062V263.544C172.256 262.758 171.611 262.123 170.824 262.123V262.141ZM171.021 270.08C171.021 270.187 170.931 270.276 170.824 270.276H156.744C156.636 270.276 156.547 270.187 156.547 270.08V239.567C156.547 239.46 156.627 239.37 156.744 239.37H170.779C170.886 239.37 170.976 239.46 170.976 239.567V246.057C170.976 246.165 170.886 246.254 170.779 246.254H163.878V251.484H169.839C169.947 251.484 170.036 251.573 170.036 251.681V258.01C170.036 258.118 169.947 258.207 169.839 258.207H163.878V263.366H170.824C170.931 263.366 171.021 263.455 171.021 263.562V270.08Z" fill="#004A9E"/>
</svg>
