<svg width="272" height="417" viewBox="0 0 272 417" fill="none" xmlns="http://www.w3.org/2000/svg">
<path d="M270.897 221.568C270.584 220.111 270.145 218.698 269.572 217.339C269.044 216.078 268.409 214.907 267.693 213.825C267.487 213.512 267.281 213.217 267.057 212.913C266.833 212.618 266.61 212.331 266.377 212.054C266.028 211.634 265.661 211.232 265.276 210.847C264.381 209.953 263.414 209.148 262.367 208.451C262.071 208.254 261.758 208.057 261.445 207.879C260.827 207.512 260.174 207.181 259.511 206.886C258.67 206.52 257.811 206.198 256.907 205.929C256.522 205.813 256.128 205.715 255.725 205.625C255.322 205.536 254.928 205.455 254.517 205.384C253.693 205.25 252.861 205.143 252.001 205.089C251.59 205.062 251.169 205.035 250.748 205.026C241.188 204.865 236.086 208.826 231.109 212.653C228.344 214.79 225.667 216.838 222.319 217.991C222.122 218.054 221.917 218.126 221.711 218.188C221.487 218.251 221.254 218.322 221.021 218.385C220.816 218.439 220.61 218.483 220.404 218.537C219.697 218.689 218.972 218.805 218.202 218.868C216.913 218.975 215.525 218.966 214.013 218.787C212.616 218.626 211.283 218.34 210.003 217.947C209.689 217.848 209.367 217.75 209.063 217.643C207.98 217.258 206.923 216.811 205.939 216.31C205.652 216.167 205.375 216.024 205.097 215.863C202.197 214.272 199.727 212.251 197.74 210.275C197.552 210.087 197.364 209.899 197.185 209.712C196.272 208.773 195.484 207.87 194.804 207.029C194.526 206.689 194.275 206.367 194.034 206.063C193.917 205.903 193.801 205.751 193.694 205.607C193.47 205.312 193.273 205.035 193.094 204.776C192.995 204.642 192.915 204.526 192.834 204.4H192.297V202.773H194.311C203.97 198.874 212.813 194.037 220.672 188.27C224.96 185.131 228.881 181.743 232.434 178.139C247.812 162.545 256.128 142.981 256.128 121.772C256.128 112.026 254.973 102.834 252.7 94.2766C252.162 92.2558 251.563 90.2797 250.9 88.3394C250.569 87.3737 250.22 86.4081 249.862 85.4513C249.683 84.9774 249.495 84.4946 249.307 84.0296C248.743 82.6079 248.134 81.213 247.508 79.836C246.872 78.459 246.201 77.1089 245.494 75.7766C245.02 74.8824 244.536 74.0061 244.035 73.1299C244.017 73.0762 243.999 73.0137 243.972 72.9332C243.945 72.8527 243.918 72.7544 243.883 72.6471C243.865 72.5934 243.847 72.5308 243.829 72.4682C243.766 72.2804 243.704 72.0569 243.623 71.7976C243.471 71.2879 243.283 70.6531 243.059 69.902C242.952 69.5265 242.835 69.1241 242.719 68.7038C242.477 67.8544 242.209 66.8976 241.931 65.8604C240.58 60.8353 238.861 53.7983 237.671 46.5557C237.509 45.5543 237.357 44.5528 237.214 43.5513C236.999 42.0491 236.811 40.547 236.668 39.0627C236.614 38.562 236.57 38.0702 236.525 37.5873C236.319 35.1731 235.979 32.7232 235.495 30.2821C233.714 21.2512 230.053 12.3991 224.503 6.68543C224.351 6.53342 224.208 6.38141 224.047 6.2294C221.603 3.82413 218.811 2.02687 215.669 1.07013C215.427 0.998595 215.176 0.944981 214.935 0.882391C214.111 0.658853 213.279 0.471094 212.455 0.336971C211.802 0.229673 211.148 0.140222 210.495 0.0776318C210.28 0.0597488 210.056 0.0418767 209.842 0.0329351C201.231 -0.423083 192.36 3.85094 182.37 13.1948C177.045 18.1753 172.972 21.3585 168.487 22.7623C167.637 23.0305 166.76 23.2362 165.874 23.3703C164.182 23.6296 162.4 23.6743 160.44 23.4776C160.172 23.4597 159.894 23.424 159.617 23.3882C159.608 23.3882 159.599 23.3882 159.59 23.3882H159.572C150.406 22.0112 140.721 21.278 130.74 21.1618C129.845 21.1528 128.95 21.1439 128.055 21.1439C117.126 21.1439 106.519 21.9039 96.538 23.4061C96.1979 23.4419 95.8756 23.4687 95.5444 23.5044C94.1391 23.6386 92.8143 23.6564 91.5612 23.5491C85.3401 23.0216 80.5602 19.597 73.7395 13.2217C67.1962 7.09674 61.1273 3.1714 55.3001 1.31157C53.1608 0.623069 51.0662 0.220714 48.9806 0.0955323C46.5459 -0.0564735 44.147 0.167056 41.7481 0.757196C41.3095 0.864495 40.8798 0.971797 40.4412 1.09698C34.1486 3.01046 29.2613 8.28597 25.7882 15.0189C25.3586 15.8594 24.9379 16.7178 24.553 17.603C24.1591 18.4883 23.7921 19.3913 23.452 20.3034C23.2819 20.7594 23.1118 21.2243 22.9507 21.6893C22.4674 23.0842 22.0287 24.5059 21.6439 25.9544C21.3932 26.9111 21.1515 27.8858 20.9367 28.8604C20.2922 31.7843 19.8536 34.735 19.603 37.6231C19.236 42.0134 18.5199 46.6272 17.6695 51.0175C17.2936 52.9757 16.8908 54.8802 16.479 56.7043C15.763 59.9054 15.02 62.8561 14.3487 65.3507C14.2502 65.7084 14.1607 66.0571 14.0622 66.3969C13.8832 67.0764 13.7042 67.7113 13.5431 68.3014C13.4625 68.5965 13.373 68.8826 13.3014 69.1509C13.2656 69.285 13.2208 69.4192 13.185 69.5533C13.1134 69.8126 13.0418 70.063 12.9702 70.3044C12.8359 70.7783 12.7106 71.1985 12.6032 71.5741C12.5495 71.7529 12.4958 71.9317 12.451 72.0837C12.4331 72.1642 12.4063 72.2357 12.3884 72.3073C12.3257 72.5219 12.2631 72.7007 12.2183 72.8437C12.1646 72.9958 12.1377 73.103 12.1109 73.1746C11.8603 73.6127 11.6096 74.0509 11.3769 74.489C10.1595 76.6886 9.04065 78.9508 8.02022 81.2666C7.82329 81.7316 7.61742 82.1966 7.42049 82.6615C6.82972 84.0653 6.27475 85.496 5.75558 86.9356C5.40649 87.9013 5.07529 88.8759 4.76201 89.8595C4.44872 90.8431 4.14438 91.8266 3.86689 92.8281C3.58046 93.8295 3.31192 94.8309 3.06129 95.8503C1.01148 103.916 0 112.598 0 121.772C0 138.904 5.42439 154.963 15.6197 168.715C16.1031 169.368 16.6044 170.02 17.1056 170.664C17.6158 171.308 18.135 171.943 18.6542 172.577C20.2385 174.473 21.9213 176.324 23.6937 178.13C27.2473 181.725 31.1768 185.114 35.4644 188.252C42.6343 193.51 50.6008 197.998 59.2744 201.709C53.0176 205.706 27.5068 223.383 13.561 254.33C12.7822 256.047 12.0482 257.808 11.35 259.605C10.8846 260.803 10.437 262.029 10.0074 263.271C9.79255 263.888 9.58667 264.514 9.38079 265.14C8.56624 267.653 7.83225 270.237 7.18776 272.892C6.96398 273.706 2.35415 290.641 6.85657 303.374C6.99084 303.75 7.13406 304.116 7.27728 304.492C7.57266 305.225 7.90385 305.949 8.27085 306.647C8.53938 307.174 8.83477 307.684 9.15701 308.185C9.26443 308.355 9.37184 308.515 9.47925 308.676C9.62247 308.891 9.76569 309.088 9.91786 309.293C12.1377 312.316 15.0737 314.47 18.69 315.767C20.3728 316.366 22.1988 316.777 24.1681 316.992C25.9314 317.189 27.5874 317.251 29.1628 317.189C31.6781 317.081 33.9606 316.625 36.0373 315.794C43.0997 312.968 47.8796 305.744 51.7555 292.608C51.8629 292.457 51.9166 292.269 51.9076 292.09C52.5969 289.694 53.2682 287.127 53.9127 284.338C54.772 280.636 55.7745 277.354 56.8576 274.466C57.1262 273.742 57.4036 273.044 57.6811 272.365C57.8154 272.025 57.9676 271.694 58.1018 271.363C58.5225 270.38 58.9522 269.459 59.3818 268.583C59.9547 267.42 60.5365 266.338 61.1094 265.346C61.5391 264.595 61.9687 263.897 62.3894 263.253C63.929 260.875 65.3791 259.096 66.5517 257.844C66.4443 258.13 66.3279 258.443 66.2116 258.765C65.8804 259.632 65.5313 260.634 65.1553 261.76C65.0569 262.046 64.9674 262.332 64.8689 262.628C64.7257 263.075 64.5825 263.54 64.4392 264.013C64.1439 264.979 63.8485 266.025 63.5441 267.134C63.4636 267.42 63.392 267.706 63.3203 268.001C63.1682 268.592 63.016 269.2 62.8638 269.817C62.7922 270.129 62.7117 270.451 62.6401 270.773C60.2859 280.788 58.254 295.202 59.167 313.621C59.3102 316.509 59.4893 319.174 59.6951 321.651C59.7936 322.884 59.91 324.074 60.0263 325.209C60.0532 325.433 60.08 325.665 60.0979 325.889C60.1158 326.103 60.1427 326.327 60.1606 326.542C56.7413 326.577 53.483 326.971 50.4397 327.659C38.5884 330.377 30.1295 337.781 29.0106 347.295C28.9748 347.581 28.948 347.885 28.9301 348.189C28.7958 350.603 29.1986 353.5 30.416 356.424C30.6845 357.068 30.9888 357.712 31.3379 358.347C31.517 358.659 31.696 358.981 31.8929 359.294C32.0898 359.607 32.2957 359.929 32.5105 360.242C32.7343 360.555 32.9581 360.868 33.1998 361.172C33.9248 362.093 34.7483 362.996 35.6882 363.863C38.3019 366.26 42.1867 368.692 47.808 369.979C48.3451 370.105 48.9001 370.221 49.4819 370.319C49.5893 370.337 49.6967 370.355 49.8041 370.373C50.1443 370.435 50.5023 370.48 50.8604 370.534C51.9166 370.686 53.0176 370.784 54.1812 370.847C54.5661 370.865 54.96 370.883 55.3628 370.9C55.7835 370.918 56.2221 370.918 56.6607 370.918C56.7771 370.918 56.9024 370.918 57.0187 370.909C57.3768 370.909 57.7527 370.892 58.1197 370.883C61.0289 370.793 64.2244 370.462 67.7512 369.792C67.7512 369.89 67.7422 369.979 67.7333 370.078C67.7333 370.176 67.7243 370.275 67.7154 370.364C67.6975 370.641 67.6796 370.918 67.6527 371.204C67.6437 371.348 67.6348 371.473 67.6169 371.616C67.6169 371.625 67.6169 371.75 67.59 371.982C67.5721 372.152 67.5542 372.385 67.5184 372.653C67.4737 373.029 67.411 373.476 67.3305 374.003C67.1425 375.174 66.8381 376.695 66.3637 378.349C65.7282 380.557 64.7794 383.007 63.383 385.216C63.1503 385.591 62.9086 385.994 62.6669 386.423C62.5506 386.638 62.4252 386.87 62.3089 387.103C62.2552 387.219 62.1925 387.335 62.1298 387.46C61.7718 388.184 61.4227 388.962 61.0915 389.785C59.9458 392.673 59.1044 396.151 59.2923 399.594C59.2923 399.612 59.2923 399.63 59.2923 399.647C59.355 400.908 59.5698 402.169 59.9458 403.394C60.2322 404.315 60.6171 405.227 61.1184 406.103C63.8306 410.869 69.3534 413.963 77.5706 415.376C78.4209 415.519 79.316 415.653 80.2201 415.76C80.6766 415.814 81.1421 415.867 81.6075 415.912C82.0819 415.966 82.5563 416.001 83.0397 416.037C83.532 416.073 84.0243 416.1 84.5166 416.136C85.0179 416.162 85.5192 416.189 86.0383 416.207C87.0677 416.243 88.1329 416.261 89.216 416.261C89.9231 416.261 90.6571 416.252 91.3911 416.234C91.6059 416.234 91.8029 416.234 92.0087 416.225L93.9511 416.18C99.1786 416.055 105.606 415.903 111.173 414.642C111.442 414.58 111.71 414.517 111.979 414.446C112.775 414.249 113.545 414.025 114.288 413.775C116.875 412.908 119.149 411.71 120.849 410.037C120.984 409.903 121.1 409.778 121.234 409.635C121.727 409.099 122.165 408.517 122.541 407.883C122.908 407.248 123.221 406.568 123.463 405.835C123.758 404.914 123.946 403.913 124.009 402.813C124.108 401.016 124.009 398.959 123.767 396.732C123.66 395.749 123.526 394.721 123.382 393.666C122.98 390.858 122.443 387.845 121.888 384.76C119.748 372.859 117.323 359.366 120.939 349.208C121.001 349.038 120.984 348.878 120.939 348.717C122.228 348.967 123.705 349.19 125.28 349.351C125.558 349.378 125.826 349.405 126.113 349.432C127.214 349.521 128.359 349.575 129.523 349.575C130.391 349.575 131.268 349.539 132.146 349.477C133.166 349.396 134.186 349.262 135.198 349.074C135.207 349.11 135.198 349.155 135.216 349.199C135.261 349.325 135.296 349.45 135.332 349.575C135.422 349.843 135.502 350.12 135.592 350.389C138.635 360.394 136.335 373.297 134.276 384.751C133.05 391.591 131.895 398.056 132.155 402.804C132.674 412.103 142.269 414.955 152.008 415.823C155.902 416.171 159.814 416.207 163.188 416.207C164.146 416.234 165.077 416.243 165.99 416.243C166.903 416.243 167.834 416.234 168.729 416.207C172.238 416.1 175.415 415.778 178.262 415.25C184.17 414.16 188.636 412.157 191.608 409.269C192.226 408.66 192.781 408.026 193.273 407.346C193.568 406.944 193.837 406.523 194.088 406.085C194.607 405.164 195.009 404.217 195.296 403.242C195.376 402.974 195.448 402.714 195.511 402.446C195.726 401.525 195.851 400.577 195.914 399.63V399.576C196.2 393.979 193.801 388.327 191.823 385.198C191.008 383.91 190.346 382.542 189.818 381.183C189.737 380.987 189.666 380.799 189.594 380.611C189.451 380.226 189.317 379.842 189.191 379.458C188.636 377.75 188.26 376.131 188.019 374.817C187.938 374.379 187.866 373.967 187.822 373.601C187.634 372.385 187.58 371.616 187.58 371.58C186.989 365.205 187.437 360.975 188.395 356.862C188.466 356.567 188.538 356.263 188.609 355.968C188.762 355.369 188.914 354.77 189.084 354.171C189.129 354.019 189.164 353.867 189.209 353.715C189.46 352.803 189.737 351.873 190.024 350.898C191.268 346.678 192.682 341.876 193.864 334.839C194.025 333.865 194.186 332.836 194.338 331.772C194.49 330.699 194.634 329.582 194.786 328.419C194.839 327.945 194.893 327.471 194.956 326.989C195.018 326.506 195.063 326.014 195.117 325.513C195.171 325.013 195.215 324.503 195.269 323.984C195.323 323.466 195.368 322.938 195.412 322.402C195.466 321.856 195.511 321.32 195.547 320.756C195.591 320.193 195.627 319.63 195.672 319.057C195.797 317.323 195.905 315.499 195.994 313.585C195.994 313.576 195.994 313.567 195.994 313.558C195.994 313.558 195.994 313.541 195.994 313.532C196.997 295.944 195.466 282.549 193.389 272.982C193.371 272.901 193.354 272.812 193.336 272.731C191.698 265.292 189.737 260.195 188.413 257.254C188.762 257.495 189.12 257.728 189.469 257.96C191.93 259.57 194.383 260.92 196.8 262.064C197.149 262.225 197.498 262.386 197.838 262.538C198.017 262.619 198.187 262.699 198.366 262.771C198.527 262.851 198.688 262.923 198.85 262.985C200.908 263.862 202.94 264.595 204.918 265.185C210.003 266.705 214.809 267.376 219.133 267.519C219.75 267.536 220.359 267.545 220.959 267.545C222.382 267.545 223.734 267.492 225.032 267.393C225.909 267.331 226.768 267.25 227.583 267.152C228.576 267.027 229.561 266.884 230.546 266.705C236.471 265.677 242.227 263.701 247.508 260.929C248.43 260.437 249.352 259.927 250.247 259.391C251.142 258.854 252.028 258.291 252.896 257.71C253.469 257.316 254.033 256.914 254.597 256.512C254.884 256.306 255.161 256.1 255.439 255.886C255.985 255.465 256.522 255.036 257.059 254.598C258.124 253.713 259.153 252.801 260.138 251.844C260.245 251.808 260.344 251.737 260.424 251.656C260.505 251.567 260.577 251.469 260.621 251.352C260.8 251.173 260.979 250.995 261.167 250.816C261.346 250.637 261.525 250.449 261.695 250.27C269.501 242.008 272.92 230.957 270.915 221.532L270.897 221.568ZM227.395 265.569C224.978 265.855 222.275 266.016 219.33 265.927C217.432 265.873 215.436 265.712 213.368 265.417C211.274 265.122 209.108 264.693 206.87 264.085C204.032 263.325 201.087 262.288 198.089 260.911C197.731 260.75 197.382 260.58 197.023 260.41C196.656 260.231 196.29 260.052 195.923 259.865C192.87 258.309 189.764 256.395 186.658 254.044C186.604 254.008 186.533 253.981 186.479 253.963C186.443 253.945 186.407 253.927 186.372 253.91C186.345 253.91 186.309 253.91 186.282 253.91C186.211 253.901 186.13 253.892 186.058 253.901C186.04 253.901 186.023 253.919 186.005 253.919C185.924 253.936 185.835 253.963 185.763 254.008H185.754C185.754 254.008 185.691 254.071 185.664 254.097C185.62 254.133 185.566 254.16 185.53 254.214C185.53 254.214 185.53 254.214 185.53 254.223C185.494 254.276 185.477 254.33 185.45 254.383C185.432 254.428 185.396 254.464 185.387 254.509C185.387 254.544 185.387 254.589 185.387 254.625C185.387 254.687 185.369 254.75 185.387 254.822C185.387 254.848 185.405 254.875 185.414 254.911C185.432 254.983 185.45 255.054 185.494 255.117V255.126C185.521 255.17 188.323 259.802 190.802 269.271C192.915 277.318 195.18 290.489 194.598 308.712C138.223 326.13 77.0156 312.843 63.2398 309.428C62.9444 309.356 62.6669 309.293 62.4163 309.222C62.103 309.141 61.8345 309.07 61.5928 309.007C61.1721 308.9 60.8409 308.811 60.644 308.757C60.1785 288.469 63.3024 273.581 65.9699 264.693C66.2653 263.701 66.5607 262.788 66.8381 261.948C67.1425 261.027 67.4379 260.204 67.7064 259.471C68.7626 256.628 69.5235 255.135 69.5503 255.081C69.7204 254.75 69.6488 254.348 69.3713 254.097C69.0938 253.847 68.6821 253.82 68.3777 254.035C67.9391 254.33 57.5379 261.528 52.3463 283.998C51.8002 286.394 51.2274 288.612 50.6366 290.677C36.1178 278.374 14.6262 281.548 7.95756 282.925C7.64427 282.987 7.36679 283.05 7.11615 283.104C7.08035 283.104 7.03559 283.122 7.00874 283.122C7.64427 277.515 8.75421 273.411 8.79002 273.304C19.4508 228.9 56.965 205.017 61.1363 202.478C61.2079 202.505 61.2795 202.532 61.3511 202.567C61.6644 202.693 61.9687 202.809 62.282 202.934C75.7445 208.326 90.8093 211.884 107.145 213.494C108.362 215.202 114.225 222.248 128.073 222.248C141.482 222.248 146.459 215.64 147.667 213.619C163.251 212.179 177.698 208.996 190.731 204.15C192.53 207.074 200.523 218.832 213.816 220.379C217.28 220.781 220.108 220.424 222.579 219.619C223.215 219.413 223.823 219.163 224.414 218.895C225.005 218.635 225.587 218.349 226.142 218.036C226.276 217.956 226.428 217.884 226.571 217.804C226.571 217.857 226.589 217.929 226.598 217.983C226.634 218.206 226.67 218.474 226.723 218.787C226.759 219.029 226.813 219.306 226.876 219.592C228.218 226.486 234.144 246.39 258.079 251.549C249.853 259.131 238.861 264.192 227.404 265.543L227.395 265.569Z" fill="#D0D1D1"/>
<path d="M50.6541 170.396C50.7436 170.602 50.9137 170.754 51.1196 170.825C60.0618 179.105 71.6714 185.838 85.125 190.434C85.1966 190.47 85.2682 190.497 85.3487 190.515C98.1668 194.869 112.641 197.301 128.064 197.301C182.227 197.301 224.655 167.338 224.646 129.104C224.646 110.3 214.299 91.523 196.271 77.5742C177.787 63.2767 153.556 55.4082 128.046 55.4082C101.738 55.4082 77.5165 62.5704 59.838 75.5713C41.5329 89.0283 31.4539 108.047 31.4629 129.131C31.4629 144.761 38.5611 159.005 50.6541 170.387V170.396ZM53.3305 170.656C58.6296 170.253 74.491 170.664 83.8539 188.279C71.922 183.978 61.5387 177.961 53.3305 170.656ZM170.42 188.923C180.875 168.411 199.529 170.298 202.644 170.781C194.033 178.399 183.059 184.613 170.42 188.923ZM60.8047 76.8858C78.2057 64.0904 102.087 57.0445 128.046 57.0445C153.198 57.0445 177.08 64.7879 195.278 78.8708C212.911 92.5066 223.017 110.819 223.026 129.113C223.026 144.484 215.946 158.486 203.907 169.636C203.79 169.448 203.611 169.305 203.378 169.261C203.137 169.216 197.444 168.134 190.247 170.065C183.605 171.845 174.422 176.637 168.371 189.379C168.335 189.46 168.317 189.549 168.308 189.629C156.152 193.519 142.538 195.683 128.073 195.692C112.909 195.692 98.677 193.322 86.0827 189.066C75.3772 166.981 55.1208 168.742 51.7372 169.207C39.9933 158.137 33.101 144.305 33.101 129.149C33.101 108.592 42.9383 90.0387 60.8137 76.8947L60.8047 76.8858Z" fill="#443E3B"/>
<path d="M128.064 175.529C130.758 175.529 132.942 174.232 132.942 172.631C132.942 171.031 130.758 169.734 128.064 169.734C125.37 169.734 123.186 171.031 123.186 172.631C123.186 174.232 125.37 175.529 128.064 175.529Z" fill="#443E3B"/>
<path d="M76.7832 155.044C77.1233 155.044 77.4455 155.053 77.7767 155.053C90.1024 155.053 95.1151 149.151 95.3299 148.892C95.7596 148.373 95.679 147.613 95.1688 147.184C94.6496 146.755 93.8798 146.826 93.4502 147.336C93.4054 147.39 88.6076 152.924 76.8458 152.603C65.0124 152.308 59.6149 146.496 59.5343 146.406C59.0868 145.905 58.317 145.861 57.8157 146.308C57.3144 146.755 57.2697 147.524 57.7083 148.025C57.95 148.302 63.7861 154.704 76.7742 155.035L76.7832 155.044Z" fill="#443E3B"/>
<path d="M178.351 155.044C178.674 155.044 179.005 155.044 179.345 155.035C192.333 154.704 198.169 148.293 198.411 148.016C198.858 147.515 198.814 146.737 198.303 146.299C197.802 145.852 197.023 145.897 196.585 146.406C196.531 146.469 191.223 152.299 179.282 152.603C167.494 152.889 162.723 147.399 162.678 147.345C162.248 146.827 161.478 146.755 160.959 147.184C160.44 147.613 160.369 148.382 160.798 148.901C161.013 149.16 166.026 155.062 178.351 155.062V155.044Z" fill="#443E3B"/>
<path d="M270.897 221.568C270.584 220.111 270.145 218.698 269.572 217.339C269.044 216.078 268.409 214.907 267.693 213.825C267.487 213.512 267.281 213.208 267.057 212.913C266.833 212.618 266.61 212.332 266.377 212.055C266.028 211.634 265.661 211.232 265.276 210.848C264.381 209.953 263.414 209.149 262.367 208.451C262.071 208.255 261.758 208.058 261.445 207.879C260.827 207.512 260.183 207.173 259.511 206.886C258.679 206.511 257.811 206.198 256.907 205.93C256.522 205.822 256.128 205.715 255.725 205.635C255.322 205.545 254.928 205.465 254.517 205.393C253.693 205.259 252.861 205.152 252.001 205.098C251.59 205.062 251.178 205.045 250.748 205.036C241.188 204.875 236.086 208.836 231.109 212.663C228.344 214.8 225.667 216.847 222.319 218.001C222.122 218.063 221.917 218.135 221.711 218.197C221.487 218.26 221.254 218.332 221.021 218.394C220.816 218.448 220.61 218.493 220.404 218.546C219.697 218.698 218.972 218.814 218.202 218.877C216.913 218.984 215.525 218.975 214.013 218.797C212.616 218.636 211.283 218.349 210.003 217.956C209.689 217.858 209.367 217.759 209.063 217.652C207.98 217.268 206.923 216.82 205.939 216.32C205.652 216.168 205.375 216.025 205.097 215.873C202.197 214.281 199.727 212.26 197.74 210.284C197.552 210.096 197.364 209.909 197.185 209.721C196.289 208.791 195.484 207.879 194.804 207.038C194.535 206.708 194.275 206.377 194.034 206.073C193.917 205.912 193.801 205.76 193.694 205.617C193.479 205.322 193.282 205.044 193.094 204.785C192.995 204.651 192.915 204.535 192.834 204.41H192.297V202.782H194.311C203.97 198.884 212.813 194.046 220.672 188.279C224.96 185.141 228.881 181.752 232.434 178.148C247.812 162.563 256.128 142.999 256.128 121.781C256.128 112.035 254.973 102.843 252.7 94.2858C252.162 92.265 251.572 90.289 250.9 88.3487C250.569 87.383 250.22 86.4173 249.862 85.4605C249.683 84.9866 249.495 84.5038 249.307 84.0389C248.743 82.6172 248.143 81.2223 247.508 79.8453C246.872 78.4683 246.201 77.1181 245.494 75.7858C245.019 74.8917 244.536 74.0154 244.035 73.1392C244.017 73.0855 243.999 73.0229 243.972 72.9424C243.954 72.8619 243.918 72.7636 243.883 72.6563C243.865 72.6026 243.847 72.5401 243.829 72.4775C243.766 72.2897 243.704 72.0662 243.623 71.8069C243.471 71.2972 243.283 70.6624 243.059 69.9113C242.952 69.5357 242.835 69.1333 242.719 68.7131C242.477 67.8636 242.218 66.9069 241.931 65.8697C240.58 60.8446 238.861 53.8076 237.671 46.5649C237.509 45.5635 237.357 44.562 237.214 43.5606C236.999 42.0584 236.82 40.5562 236.668 39.0719C236.614 38.5712 236.57 38.0794 236.525 37.5966C236.319 35.1824 235.979 32.7324 235.495 30.2914C233.723 21.2605 230.062 12.4083 224.503 6.69471C224.351 6.5427 224.208 6.39069 224.047 6.23868C221.603 3.83341 218.811 2.03615 215.669 1.0794C215.427 1.00787 215.176 0.954259 214.935 0.891668C214.111 0.66813 213.279 0.480316 212.455 0.346194C211.802 0.238895 211.148 0.140558 210.495 0.0869092C210.28 0.0690261 210.056 0.051154 209.842 0.0422125C201.23 -0.413805 192.36 3.86022 182.37 13.2041C177.045 18.1845 172.972 21.3677 168.487 22.7715C167.637 23.0398 166.76 23.2454 165.874 23.3796C164.182 23.6389 162.4 23.6836 160.44 23.4869C160.172 23.46 159.894 23.4243 159.617 23.3885H159.572C150.406 22.0115 140.721 21.2783 130.74 21.1621C129.845 21.1531 128.95 21.1442 128.055 21.1442C117.126 21.1442 106.519 21.9042 96.538 23.4064C96.1979 23.4422 95.8756 23.469 95.5444 23.5048C94.1391 23.6389 92.8143 23.6568 91.5612 23.5495C85.3401 23.0219 80.5602 19.5973 73.7395 13.222C67.1962 7.09706 61.1273 3.17173 55.3001 1.31189C53.1608 0.623396 51.0662 0.221041 48.9806 0.0958594C46.5459 -0.0561465 44.147 0.167383 41.7481 0.757523C41.3095 0.864822 40.8798 0.972124 40.4412 1.09731C34.1486 3.01079 29.2613 8.2863 25.7882 15.0193C25.3586 15.8598 24.9379 16.7182 24.553 17.6034C24.1681 18.4886 23.7921 19.3916 23.452 20.3037C23.2819 20.7597 23.1118 21.2246 22.9507 21.6896C22.4674 23.0845 22.0287 24.5062 21.6439 25.9547C21.3932 26.9115 21.1515 27.8861 20.9367 28.8607C20.3012 31.7846 19.8536 34.7353 19.6119 37.6234C19.2449 42.0137 18.5289 46.6276 17.6695 51.0178C17.2936 52.976 16.8908 54.8806 16.479 56.7046C15.763 59.9057 15.02 62.8564 14.3487 65.3511C14.2502 65.7087 14.1607 66.0574 14.0622 66.3972C13.8832 67.0768 13.7042 67.7116 13.5431 68.3018C13.4625 68.5968 13.373 68.883 13.3014 69.1512C13.2656 69.2853 13.2208 69.4195 13.185 69.5536C13.1134 69.8129 13.0418 70.0633 12.9702 70.3047C12.8359 70.7786 12.7106 71.1988 12.6032 71.5744C12.5495 71.7532 12.4958 71.9321 12.451 72.0841C12.4331 72.1645 12.4063 72.2361 12.3884 72.3076C12.3257 72.5222 12.2631 72.701 12.2183 72.8441C12.1735 72.9961 12.1377 73.1034 12.1198 73.1749C11.8692 73.613 11.6186 74.0512 11.3769 74.4893C10.1595 76.6889 9.04065 78.9511 8.02022 81.267C7.82329 81.7319 7.61742 82.1969 7.42049 82.6618C6.82972 84.0657 6.27475 85.4963 5.75558 86.9359C5.41544 87.9016 5.07529 88.8763 4.762 89.8598C4.44872 90.8434 4.14438 91.827 3.86689 92.8284C3.58046 93.8299 3.32087 94.8313 3.06129 95.8506C1.01148 103.916 0 112.598 0 121.772C0 138.904 5.42439 154.963 15.6197 168.715C16.1031 169.368 16.6044 170.021 17.1056 170.664C17.6158 171.308 18.135 171.943 18.6542 172.578C20.2385 174.473 21.9213 176.324 23.6937 178.13C27.2473 181.725 31.1768 185.114 35.4644 188.252C42.6343 193.51 50.6008 197.999 59.2744 201.709C53.0176 205.706 27.5068 223.384 13.561 254.33C12.7912 256.047 12.0482 257.808 11.35 259.606C10.8846 260.804 10.437 262.029 10.0074 263.272C9.79254 263.889 9.58667 264.515 9.38079 265.14C8.56624 267.653 7.83224 270.237 7.19671 272.893C6.97294 273.706 2.3631 290.633 6.85657 303.374C6.99084 303.75 7.13406 304.117 7.27727 304.492C7.57266 305.225 7.90385 305.95 8.27085 306.647C8.53938 307.166 8.84372 307.684 9.15701 308.185C9.26443 308.355 9.37184 308.516 9.48821 308.677C9.63142 308.891 9.77464 309.088 9.91786 309.294C12.1377 312.316 15.0737 314.471 18.69 315.767C20.3728 316.366 22.1988 316.778 24.1681 316.992C25.9314 317.189 27.5874 317.252 29.1628 317.189C31.6781 317.082 33.9606 316.626 36.0373 315.794C43.0997 312.969 47.8796 305.744 51.7555 292.609C51.8629 292.457 51.9255 292.269 51.9076 292.09C52.5969 289.694 53.2682 287.128 53.9127 284.338C54.772 280.636 55.7745 277.355 56.8576 274.466C57.1262 273.742 57.4036 273.045 57.6811 272.365C57.8154 272.025 57.9676 271.695 58.1018 271.364C58.5225 270.38 58.9522 269.459 59.3818 268.583C59.9547 267.421 60.5365 266.339 61.1094 265.346C61.5391 264.595 61.9687 263.898 62.3894 263.254C63.938 260.875 65.3881 259.096 66.5517 257.844C66.5517 257.844 66.5547 257.841 66.5607 257.835C66.4443 258.13 66.3279 258.443 66.2026 258.765C65.8714 259.632 65.5223 260.634 65.1464 261.761C65.0479 262.047 64.9584 262.333 64.8599 262.628C64.7257 263.075 64.5735 263.54 64.4303 264.014C64.1349 264.979 63.8395 266.026 63.5352 267.134C63.4546 267.421 63.383 267.707 63.3024 268.002C63.1503 268.592 62.9981 269.2 62.8459 269.817C62.7743 270.13 62.6938 270.452 62.6222 270.774C60.268 280.788 58.2361 295.202 59.1491 313.621C59.2923 316.51 59.4714 319.174 59.6772 321.651C59.7846 322.885 59.8921 324.074 60.0084 325.21C60.0353 325.433 60.0621 325.666 60.08 325.889C60.0979 326.104 60.1248 326.327 60.1516 326.542C56.7323 326.578 53.4741 326.971 50.4307 327.66C38.5794 330.378 30.1206 337.781 29.0017 347.295C28.9659 347.581 28.939 347.885 28.9211 348.189C28.7869 350.604 29.1897 353.501 30.407 356.424C30.6755 357.068 30.9799 357.703 31.329 358.347C31.508 358.66 31.687 358.982 31.8839 359.295C32.0809 359.608 32.2868 359.93 32.5016 360.242C32.7254 360.555 32.9491 360.868 33.1908 361.172C33.9159 362.093 34.7394 362.996 35.6792 363.864C38.293 366.26 42.1778 368.692 47.7991 369.98C48.3361 370.105 48.9001 370.221 49.4729 370.32C49.5803 370.337 49.6878 370.355 49.7952 370.373C50.1353 370.436 50.4934 370.481 50.8514 370.534C51.9076 370.686 53.0086 370.785 54.1723 370.847C54.5572 370.865 54.951 370.883 55.3538 370.901C55.7835 370.91 56.2221 370.919 56.6607 370.919C56.7771 370.919 56.8934 370.919 57.0187 370.919C57.3768 370.919 57.7527 370.901 58.1197 370.892C61.0289 370.802 64.2244 370.472 67.7512 369.801C67.7512 369.899 67.7333 369.989 67.7243 370.087C67.7243 370.185 67.7154 370.284 67.7064 370.373C67.6885 370.65 67.6706 370.928 67.6437 371.214C67.6258 371.357 67.6258 371.482 67.6079 371.625C67.6079 371.634 67.599 371.759 67.5721 371.992C67.5542 372.162 67.5363 372.394 67.5005 372.662C67.4558 373.038 67.3931 373.485 67.3125 374.012C67.1246 375.184 66.8202 376.704 66.3458 378.358C65.7103 380.567 64.7615 383.017 63.3651 385.225C63.1324 385.601 62.8907 386.003 62.649 386.432C62.5326 386.647 62.4073 386.879 62.291 387.112C62.2373 387.228 62.1746 387.344 62.1119 387.469C61.7539 388.194 61.4048 388.963 61.0736 389.794C59.9368 392.682 59.0954 396.152 59.2744 399.603C59.2744 399.621 59.2744 399.639 59.2744 399.657C59.346 400.917 59.5519 402.178 59.9279 403.403C60.2143 404.324 60.5992 405.236 61.1005 406.113C63.8127 410.878 69.3355 413.972 77.5527 415.385C78.403 415.528 79.2981 415.662 80.2022 415.769C80.6587 415.823 81.1242 415.877 81.5896 415.921C82.064 415.975 82.5384 416.011 83.0218 416.047C83.5141 416.082 84.0064 416.109 84.4987 416.145C85 416.172 85.5013 416.199 86.0204 416.216C87.0498 416.252 88.115 416.27 89.1981 416.27C89.9052 416.27 90.6392 416.261 91.3732 416.243C91.588 416.243 91.785 416.243 91.9908 416.234L93.9332 416.19C99.1607 416.064 105.588 415.912 111.155 414.652C111.424 414.589 111.692 414.526 111.961 414.455C112.757 414.258 113.527 414.035 114.27 413.784C116.857 412.917 119.131 411.719 120.831 410.047C120.966 409.913 121.082 409.787 121.216 409.644C121.718 409.108 122.156 408.527 122.523 407.892C122.899 407.257 123.212 406.577 123.445 405.844C123.741 404.923 123.928 403.922 123.991 402.822C124.09 401.025 123.991 398.968 123.749 396.742C123.642 395.749 123.517 394.73 123.365 393.675C122.962 390.867 122.425 387.854 121.87 384.769C119.73 372.868 117.305 359.375 120.921 349.218C120.984 349.048 120.975 348.887 120.921 348.726C122.21 348.976 123.687 349.2 125.262 349.361C125.54 349.387 125.808 349.414 126.095 349.441C127.196 349.531 128.341 349.584 129.505 349.584C130.373 349.584 131.251 349.548 132.128 349.486C133.148 349.405 134.169 349.271 135.18 349.083C135.189 349.119 135.18 349.164 135.198 349.209C135.243 349.334 135.279 349.459 135.314 349.584C135.413 349.852 135.484 350.13 135.574 350.398C138.617 360.403 136.317 373.306 134.258 384.76C133.032 391.6 131.877 398.065 132.137 402.813C132.656 412.112 142.251 414.965 151.99 415.832C155.884 416.181 159.796 416.216 163.17 416.216C164.128 416.243 165.059 416.252 165.972 416.252C166.885 416.252 167.816 416.243 168.711 416.216C172.22 416.109 175.398 415.787 178.244 415.26C184.152 414.169 188.618 412.166 191.59 409.278C192.208 408.67 192.763 408.035 193.255 407.355C193.55 406.953 193.819 406.533 194.07 406.095C194.589 405.174 194.992 404.226 195.278 403.251C195.359 402.983 195.43 402.724 195.493 402.455C195.717 401.525 195.842 400.587 195.896 399.639V399.585C196.191 393.988 193.783 388.337 191.805 385.207C190.99 383.92 190.328 382.552 189.791 381.193C189.71 380.996 189.639 380.808 189.567 380.62C189.424 380.236 189.29 379.851 189.164 379.467C188.609 377.759 188.233 376.141 187.992 374.826C187.911 374.388 187.849 373.977 187.795 373.61C187.616 372.394 187.571 371.625 187.562 371.589C186.971 365.205 187.419 360.985 188.377 356.872C188.448 356.576 188.52 356.272 188.592 355.977C188.744 355.378 188.905 354.779 189.066 354.18C189.111 354.028 189.146 353.876 189.191 353.724C189.451 352.812 189.719 351.873 190.015 350.908C191.259 346.687 192.673 341.886 193.846 334.849C194.016 333.874 194.177 332.846 194.32 331.782C194.472 330.709 194.625 329.591 194.768 328.429C194.821 327.955 194.875 327.481 194.938 326.998C195.001 326.515 195.045 326.023 195.099 325.523C195.153 325.022 195.197 324.512 195.251 323.994C195.305 323.475 195.35 322.947 195.394 322.411C195.448 321.865 195.493 321.329 195.529 320.766C195.573 320.202 195.618 319.639 195.654 319.067C195.779 317.332 195.887 315.508 195.976 313.595C195.976 313.586 195.976 313.577 195.976 313.568V313.541C196.979 295.953 195.448 282.559 193.371 272.991C193.354 272.911 193.336 272.821 193.318 272.741C191.689 265.301 189.728 260.196 188.395 257.263C188.744 257.495 189.102 257.737 189.451 257.96C191.912 259.57 194.365 260.92 196.782 262.065C197.131 262.225 197.48 262.386 197.82 262.538C197.999 262.619 198.169 262.699 198.348 262.771C198.509 262.842 198.679 262.914 198.841 262.986C200.899 263.862 202.922 264.595 204.909 265.185C209.994 266.705 214.8 267.376 219.124 267.519C219.741 267.537 220.35 267.546 220.95 267.546C222.373 267.546 223.725 267.492 225.023 267.394C225.9 267.331 226.759 267.251 227.574 267.152C228.567 267.027 229.552 266.884 230.537 266.705C236.462 265.677 242.218 263.701 247.499 260.929C248.421 260.437 249.343 259.928 250.238 259.391C251.133 258.855 252.019 258.291 252.888 257.71C253.46 257.326 254.033 256.923 254.588 256.512C254.875 256.306 255.152 256.101 255.43 255.886C255.976 255.475 256.513 255.037 257.05 254.598C258.115 253.713 259.144 252.801 260.129 251.844C260.236 251.809 260.335 251.737 260.415 251.657C260.496 251.576 260.568 251.469 260.612 251.353C260.791 251.174 260.97 250.995 261.158 250.816C261.337 250.637 261.516 250.45 261.686 250.271C269.492 242.009 272.911 230.957 270.897 221.533V221.568ZM36.4401 186.947C34.4798 185.507 32.6 184.014 30.8009 182.485C30.5502 182.27 30.3085 182.074 30.0669 181.859C29.8968 181.707 29.7267 181.564 29.5656 181.412C12.818 166.659 3.1329 147.649 1.79918 126.779C1.79918 126.726 1.79023 126.672 1.79023 126.627C1.74547 125.948 1.71862 125.259 1.69176 124.571C1.69176 124.446 1.68281 124.329 1.67386 124.204C1.65596 123.399 1.63806 122.586 1.63806 121.781C1.63806 103.683 5.63922 87.5618 13.5431 73.8724C13.5699 73.8187 13.5968 73.7651 13.6147 73.7114C13.8653 72.9067 19.8357 53.8791 21.2052 37.7129C22.5658 21.6092 28.5899 10.8525 35.2406 5.66641C37.1114 4.20894 39.027 3.18963 40.9067 2.61738C41.3632 2.48325 41.8197 2.35804 42.2852 2.25074C44.0038 1.83943 45.7314 1.61593 47.4858 1.61593C55.3001 1.61593 63.4457 5.78268 72.6295 14.3576C82.5116 23.5942 88.1329 26.071 96.7618 24.9712C106.68 23.4869 117.206 22.7269 128.055 22.7269C138.904 22.7269 149.43 23.4779 159.366 24.9622C162.785 25.3914 165.73 25.2573 168.666 24.3542C169.445 24.1217 170.215 23.8356 171.003 23.4958C171.737 23.165 172.479 22.7805 173.231 22.3513C176.275 20.6077 179.542 18.0147 183.48 14.3307C190.883 7.41001 197.614 3.36846 204.041 2.05405C205.088 1.83946 206.136 1.71426 207.165 1.64273C208.114 1.58013 209.054 1.58013 209.985 1.63377C211.73 1.74107 213.476 2.04513 215.194 2.57268C223.743 5.16572 233.15 17.0311 234.905 37.6682C236.283 53.897 242.254 72.8619 242.504 73.6667C242.522 73.7203 242.549 73.774 242.576 73.8277C250.489 87.5171 254.49 103.639 254.499 121.736C254.499 147.309 242.146 170.459 219.706 186.92C211.229 193.134 201.615 198.276 191.017 202.299C190.901 202.308 190.776 202.335 190.668 202.398C190.632 202.416 190.614 202.451 190.588 202.469C177.617 207.342 163.197 210.552 147.622 212.001C147.613 212.001 147.604 211.983 147.595 211.983C147.318 211.858 147.005 211.903 146.772 212.081C140.703 212.618 134.473 212.895 128.073 212.895C121.127 212.895 114.36 212.573 107.807 211.947C107.754 211.929 107.7 211.929 107.646 211.929C91.776 210.383 77.1141 207.003 63.9827 201.879C63.1861 201.566 62.3984 201.253 61.6107 200.931C61.4943 200.833 61.3511 200.779 61.1989 200.761C52.1404 196.997 43.8516 192.383 36.4311 186.947H36.4401ZM145.581 213.807C143.737 216.177 138.859 220.621 128.073 220.621C117.349 220.621 111.683 216.087 109.446 213.718C115.497 214.245 121.709 214.514 128.073 214.514C134.043 214.514 139.888 214.272 145.581 213.807ZM24.365 315.401C22.4315 315.186 20.6771 314.757 19.048 314.158C15.6287 312.888 12.8717 310.778 10.8577 307.809C10.6877 307.55 10.5265 307.282 10.3654 307.014C6.50748 300.656 6.20314 291.867 6.82077 284.848C6.85657 284.839 6.90133 284.83 6.92818 284.821C7.15196 284.767 7.42049 284.704 7.76959 284.633C13.5878 283.363 35.7598 279.635 50.1264 292.394C43.8964 313.067 35.7687 316.662 24.365 315.401ZM48.0587 368.397C44.3887 367.539 41.5333 366.18 39.3044 364.669C38.3646 364.034 37.5142 363.363 36.7892 362.71C33.6205 359.804 31.866 356.415 31.0694 353.268C30.5323 351.167 30.4249 349.173 30.6218 347.501C30.7024 346.794 30.8367 346.097 31.0067 345.409C32.0451 341.34 34.6857 337.737 38.4541 334.884C41.6675 332.443 45.7135 330.548 50.2875 329.412C53.4204 328.634 56.795 328.196 60.3396 328.178C61.6465 339.096 63.5352 345.507 65.1374 350.943C66.8113 356.63 68.0823 360.949 67.8228 368.147C59.4893 369.783 53.0355 369.551 48.0497 368.388L48.0587 368.397ZM188.475 350.478C186.497 357.202 185.065 362.058 185.96 371.741C185.978 372.072 186.497 379.869 190.444 386.101C193.022 390.161 196.388 398.78 192.673 405.317C189.003 411.764 179.434 414.893 164.271 414.625C164.244 414.625 164.227 414.616 164.2 414.616C160.718 414.616 156.493 414.616 152.313 414.249C150.325 414.079 148.356 413.82 146.476 413.445C145.143 413.176 143.863 412.845 142.654 412.443C137.713 410.789 134.07 407.883 133.784 402.759C133.524 398.208 134.679 391.833 135.887 385.091C137.946 373.61 140.255 360.69 137.284 350.38C137.203 350.112 137.114 349.843 137.024 349.575C136.943 349.316 136.872 349.039 136.773 348.779C136.782 348.779 136.791 348.779 136.809 348.779C138.071 348.449 139.298 348.01 140.452 347.447C140.855 347.25 141.025 346.759 140.828 346.356C140.631 345.954 140.139 345.793 139.736 345.99C135.341 348.154 129.827 348.252 125.235 347.76C125.182 347.76 125.119 347.751 125.065 347.742C120.124 347.197 116.302 345.972 116.222 345.954C115.792 345.811 115.344 346.052 115.192 346.473C115.058 346.902 115.291 347.349 115.711 347.501C115.89 347.554 117.349 348.019 119.542 348.502C119.489 348.565 119.435 348.645 119.408 348.735C115.658 359.295 118.119 373.011 120.294 385.118C121.503 391.869 122.648 398.235 122.398 402.786C121.78 413.963 105.015 414.348 93.9153 414.607L91.964 414.661C86.5396 414.813 81.8313 414.526 77.8033 413.838C75.0463 413.364 72.6206 412.702 70.526 411.835C68.6194 411.057 66.9903 410.109 65.6476 409.001C64.3497 407.937 63.2935 406.729 62.5147 405.361C58.8 398.834 62.1656 390.214 64.7436 386.155C68.691 379.914 69.2102 372.117 69.2191 371.822C69.246 371.553 69.2639 371.294 69.2818 371.035C69.2997 370.749 69.3266 370.472 69.3445 370.194C69.3624 369.908 69.3803 369.64 69.3892 369.363C69.8457 361.244 68.5031 356.657 66.6949 350.532C65.0837 345.069 63.1861 338.631 61.8971 327.525C61.8971 327.508 61.9061 327.472 61.915 327.454C61.915 327.436 61.915 327.427 61.924 327.409C61.924 327.284 61.8882 327.168 61.8434 327.069C61.8255 326.935 61.8166 326.783 61.7987 326.649C61.7718 326.381 61.736 326.122 61.7091 325.844C61.3332 322.268 61.011 318.226 60.7782 313.604C60.7245 312.548 60.6887 311.511 60.6529 310.483C60.9035 310.554 61.2347 310.635 61.6196 310.733C61.8613 310.796 62.1388 310.858 62.4342 310.939C62.6938 311.002 62.9623 311.073 63.2577 311.145C65.8535 311.779 69.8815 312.7 75.0732 313.693C75.1806 314.927 75.4223 317.18 75.7356 317.869C75.7982 318.021 75.9504 318.11 76.1115 318.11C76.1652 318.11 76.2189 318.101 76.2726 318.074C76.4785 317.976 76.568 317.743 76.4875 317.538C76.2726 317.055 76.0578 315.32 75.9235 313.845C88.9385 316.304 108.801 319.129 131.43 319.129C144.785 319.129 159.098 318.128 173.527 315.499C173.401 316.688 173.187 318.709 173.008 319.791C172.972 320.015 173.124 320.22 173.348 320.265C173.366 320.265 173.392 320.265 173.41 320.265C173.607 320.265 173.777 320.122 173.813 319.925C174.01 318.727 174.243 316.492 174.359 315.347C181.09 314.095 187.84 312.477 194.526 310.438C194.481 311.475 194.437 312.531 194.374 313.604C194.374 313.621 194.374 313.639 194.374 313.657C193.38 333.874 190.659 343.093 188.475 350.505V350.478ZM227.395 265.57C224.978 265.856 222.275 266.017 219.33 265.927C217.432 265.874 215.436 265.713 213.368 265.418C211.274 265.123 209.108 264.693 206.87 264.085C204.032 263.325 201.087 262.288 198.089 260.911C197.731 260.75 197.382 260.58 197.023 260.41C196.656 260.232 196.289 260.053 195.922 259.865C192.87 258.309 189.764 256.396 186.658 254.044C186.604 254.008 186.533 253.981 186.479 253.964C186.443 253.946 186.407 253.928 186.372 253.91C186.345 253.91 186.309 253.91 186.282 253.91C186.211 253.901 186.13 253.892 186.058 253.901C186.04 253.901 186.023 253.919 186.005 253.919C185.924 253.937 185.835 253.964 185.763 254.008H185.754C185.754 254.008 185.691 254.071 185.664 254.098C185.62 254.133 185.566 254.16 185.53 254.214C185.53 254.214 185.53 254.214 185.53 254.223C185.494 254.277 185.477 254.33 185.45 254.384C185.432 254.429 185.396 254.464 185.387 254.509C185.387 254.545 185.387 254.589 185.387 254.625C185.387 254.688 185.369 254.75 185.387 254.822C185.387 254.849 185.405 254.876 185.414 254.911C185.432 254.983 185.45 255.054 185.494 255.117V255.126C185.521 255.171 188.323 259.802 190.802 269.271C192.915 277.319 195.18 290.49 194.598 308.712C138.223 326.131 77.0156 312.844 63.2398 309.428C62.9444 309.356 62.6669 309.294 62.4163 309.222C62.103 309.142 61.8345 309.07 61.5928 309.008C61.1721 308.9 60.8409 308.811 60.644 308.757C60.1785 288.469 63.3024 273.581 65.9699 264.693C66.2653 263.701 66.5607 262.789 66.8381 261.948C67.1425 261.027 67.4379 260.205 67.7064 259.472C68.7626 256.628 69.5235 255.135 69.5503 255.081C69.7204 254.75 69.6488 254.348 69.3713 254.098C69.0938 253.847 68.6821 253.82 68.3777 254.035C67.9391 254.33 57.5379 261.528 52.3462 283.998C51.8002 286.394 51.2274 288.612 50.6366 290.677C36.1178 278.374 14.6262 281.548 7.95756 282.925C7.64427 282.988 7.36679 283.05 7.11615 283.104C7.08035 283.104 7.03559 283.122 7.00874 283.122C7.64427 277.516 8.75421 273.411 8.79002 273.304C19.4508 228.9 56.965 205.018 61.1363 202.478C61.2079 202.505 61.2795 202.532 61.3511 202.568C61.6644 202.693 61.9687 202.809 62.282 202.934C75.7445 208.326 90.8093 211.885 107.145 213.494C108.362 215.202 114.225 222.248 128.073 222.248C141.482 222.248 146.459 215.64 147.667 213.619C163.251 212.18 177.698 208.997 190.731 204.15C192.53 207.074 200.523 218.832 213.816 220.379C217.28 220.782 220.108 220.424 222.579 219.619C223.215 219.414 223.823 219.163 224.414 218.895C225.005 218.636 225.587 218.349 226.142 218.037C226.276 217.956 226.428 217.885 226.571 217.804C226.571 217.858 226.589 217.929 226.598 217.983C226.634 218.206 226.67 218.475 226.723 218.788C226.759 219.029 226.813 219.306 226.876 219.592C228.218 226.486 234.144 246.39 258.079 251.549C249.853 259.132 238.861 264.193 227.404 265.543L227.395 265.57ZM260.496 249.189C260.165 249.529 259.834 249.868 259.493 250.208C235.666 245.63 229.803 226.084 228.487 219.369C228.433 219.074 228.379 218.806 228.335 218.564C228.281 218.251 228.236 217.974 228.209 217.759C228.156 217.357 228.129 217.124 228.129 217.098C228.129 217.026 228.093 216.955 228.066 216.883C229.444 215.971 230.76 214.961 232.094 213.932C236.194 210.767 240.419 207.512 247.257 206.788C248.027 206.708 248.833 206.663 249.674 206.645C249.844 206.645 250.005 206.636 250.175 206.636C250.345 206.636 250.533 206.636 250.712 206.636C251.205 206.636 251.697 206.672 252.18 206.708C259.538 207.298 265.285 211.339 268.078 217.965C272.124 227.559 269.08 240.104 260.505 249.189H260.496Z" fill="#443E3B"/>
<path d="M258.07 251.567C249.844 259.15 238.852 264.21 227.395 265.561C224.978 265.847 222.275 266.008 219.33 265.918C217.432 265.865 215.436 265.704 213.368 265.409C211.274 265.114 209.108 264.684 206.87 264.076C204.032 263.316 201.087 262.279 198.089 260.902C197.731 260.741 197.382 260.571 197.024 260.401C196.657 260.223 196.29 260.044 195.923 259.856C192.87 258.3 189.764 256.387 186.658 254.035C186.604 253.999 186.533 253.972 186.479 253.954C186.443 253.937 186.408 253.919 186.372 253.901C186.345 253.901 186.309 253.901 186.282 253.901C186.211 253.892 186.13 253.883 186.058 253.892C186.04 253.892 186.023 253.91 186.005 253.91C185.924 253.928 185.835 253.955 185.763 253.999H185.754C185.754 253.999 185.691 254.062 185.665 254.089C185.62 254.124 185.566 254.151 185.53 254.205C185.53 254.205 185.53 254.205 185.53 254.214C185.494 254.267 185.477 254.321 185.45 254.375C185.432 254.419 185.396 254.455 185.387 254.5C185.387 254.536 185.387 254.58 185.387 254.616C185.387 254.679 185.369 254.741 185.387 254.813C185.387 254.84 185.405 254.867 185.414 254.902C185.432 254.974 185.45 255.045 185.494 255.108V255.117C185.521 255.162 188.323 259.793 190.803 269.262C192.915 277.31 195.18 290.481 194.598 308.703C138.224 326.122 77.0156 312.834 63.2398 309.419C62.9444 309.347 62.667 309.285 62.4163 309.213C62.103 309.133 61.8345 309.061 61.5928 308.998C61.1721 308.891 60.8409 308.802 60.644 308.748C60.1785 288.46 63.3025 273.572 65.9699 264.684C66.2653 263.692 66.5607 262.78 66.8382 261.939C67.1425 261.018 67.4379 260.196 67.7065 259.462C68.7627 256.619 69.5235 255.126 69.5504 255.072C69.7205 254.741 69.6488 254.339 69.3714 254.089C69.0939 253.838 68.6821 253.811 68.3778 254.026C67.9392 254.321 57.538 261.519 52.3463 283.989C51.8003 286.385 51.2274 288.603 50.6366 290.668C36.1179 278.365 14.6262 281.539 7.95761 282.916C7.64432 282.979 7.36683 283.041 7.1162 283.095C7.0804 283.095 7.03564 283.113 7.00879 283.113C7.64432 277.507 8.75426 273.402 8.79007 273.295C19.4509 228.891 56.9651 205.009 61.1363 202.469C61.2079 202.496 61.2795 202.523 61.3511 202.559C61.6644 202.684 61.9688 202.8 62.2821 202.925C75.7446 208.317 90.8093 211.876 107.145 213.485C108.363 215.193 114.226 222.239 128.073 222.239C141.482 222.239 146.459 215.631 147.667 213.61C163.251 212.171 177.698 208.988 190.731 204.141C192.53 207.065 200.523 218.823 213.816 220.37C217.28 220.772 220.109 220.415 222.579 219.61C223.215 219.404 223.823 219.154 224.414 218.886C225.005 218.627 225.587 218.34 226.142 218.027C226.276 217.947 226.428 217.875 226.571 217.795C226.571 217.849 226.589 217.92 226.598 217.974C226.634 218.197 226.67 218.466 226.723 218.779C226.759 219.02 226.813 219.297 226.876 219.583C228.218 226.477 234.144 246.381 258.079 251.54L258.07 251.567Z" fill="#D0D1D1"/>
<path d="M127.938 183.335C133.282 183.335 136.173 180.42 136.29 180.295C136.603 179.973 136.594 179.454 136.272 179.141C135.95 178.828 135.43 178.837 135.117 179.159C135.09 179.186 132.593 181.708 127.929 181.708C123.355 181.708 121.118 179.311 121.01 179.195C120.715 178.855 120.196 178.828 119.864 179.123C119.524 179.419 119.497 179.937 119.793 180.268C119.9 180.393 122.568 183.335 127.929 183.335H127.938Z" fill="#443E3B"/>
<path d="M47.5043 20.9833C47.5043 20.9833 47.5848 21.0012 47.6296 21.0012C47.7996 21.0012 47.9608 20.8939 48.0145 20.7151C48.659 18.6943 48.6679 16.3606 48.6679 16.2622C48.6679 16.0387 48.4889 15.8599 48.2651 15.8599C48.0413 15.8599 47.8623 16.0387 47.8623 16.2622C47.8623 16.2891 47.8623 18.5781 47.2536 20.4737C47.182 20.6883 47.3073 20.9118 47.5222 20.9833H47.5043Z" fill="#443E3B"/>
<path d="M36.3685 31.0873C36.3685 31.0873 36.4491 31.1052 36.4938 31.1052C36.6639 31.1052 36.825 30.9979 36.8787 30.8191C37.5232 28.7983 37.5322 26.4646 37.5322 26.3662C37.5322 26.1427 37.3531 25.9639 37.1294 25.9639C36.9056 25.9639 36.7266 26.1427 36.7266 26.3662C36.7266 26.3931 36.7266 28.6821 36.1179 30.5777C36.0463 30.7923 36.1716 31.0158 36.3864 31.0873H36.3685Z" fill="#443E3B"/>
<path d="M31.8209 53.5841C31.8209 53.5841 31.9015 53.6019 31.9462 53.6019C32.1163 53.6019 32.2774 53.4947 32.3311 53.3159C32.9756 51.2951 32.9845 48.9523 32.9845 48.854C32.9845 48.6304 32.8055 48.4517 32.5817 48.4517C32.358 48.4517 32.1789 48.6304 32.1789 48.854C32.1789 48.8808 32.1789 51.1699 31.5613 53.0655C31.4897 53.2801 31.615 53.5125 31.8209 53.5751V53.5841Z" fill="#443E3B"/>
<path d="M23.4073 75.5533C23.1835 75.4997 22.9687 75.6427 22.9239 75.8573C22.9239 75.8752 22.4048 78.1106 21.3933 79.8273C21.2769 80.024 21.3485 80.2744 21.5365 80.3817C21.5992 80.4175 21.6708 80.4353 21.7424 80.4353C21.8856 80.4353 22.0199 80.3638 22.0915 80.2387C23.1656 78.4146 23.6937 76.1345 23.7206 76.0361C23.7743 75.8215 23.6311 75.598 23.4162 75.5533H23.4073Z" fill="#443E3B"/>
<path d="M36.0372 69.2766C36.1088 69.3213 36.1804 69.3392 36.261 69.3392C36.3952 69.3392 36.5295 69.2766 36.6011 69.1514C37.7469 67.3721 38.3645 65.1099 38.3913 65.0204C38.454 64.8058 38.3197 64.5823 38.1049 64.5197C37.8901 64.4661 37.6663 64.5913 37.6036 64.8059C37.6036 64.8237 36.995 67.0323 35.9119 68.7133C35.7866 68.9011 35.8492 69.1514 36.0372 69.2766Z" fill="#443E3B"/>
<path d="M30.9351 89.2876C30.7292 89.1892 30.4875 89.2697 30.389 89.4664C30.3353 89.5648 29.1538 91.9611 28.6615 95.0012C28.6257 95.2248 28.7778 95.4304 29.0016 95.4661C29.0195 95.4661 29.0464 95.4661 29.0643 95.4661C29.2612 95.4661 29.4313 95.3231 29.4671 95.1264C29.9325 92.2204 31.1051 89.8509 31.1141 89.8241C31.2125 89.6273 31.132 89.377 30.9351 89.2786V89.2876Z" fill="#443E3B"/>
<path d="M14.9659 98.9983C14.751 98.9357 14.5273 99.052 14.4556 99.2666C14.4288 99.3649 13.7127 101.663 13.471 105.284C13.4531 105.508 13.6232 105.704 13.847 105.713C13.8559 105.713 13.8649 105.713 13.8738 105.713C14.0886 105.713 14.2677 105.552 14.2766 105.338C14.5094 101.824 15.2165 99.5348 15.2254 99.508C15.2881 99.2934 15.1717 99.0699 14.9569 98.9983H14.9659Z" fill="#443E3B"/>
<path d="M13.4534 125.277C13.4355 125.054 13.2297 124.893 13.0148 124.911C12.7911 124.928 12.6299 125.125 12.6478 125.349C12.6568 125.456 12.8985 128.031 13.5072 130.213C13.5609 130.392 13.722 130.508 13.901 130.508C13.9368 130.508 13.9726 130.508 14.0084 130.49C14.2232 130.428 14.3486 130.204 14.2949 129.989C13.713 127.888 13.4624 125.295 13.4624 125.268L13.4534 125.277Z" fill="#443E3B"/>
<path d="M25.2873 119.698C25.511 119.698 25.6901 119.51 25.6901 119.286C25.6722 117.525 26.0302 114.395 26.0392 114.36C26.066 114.136 25.9049 113.939 25.6811 113.913C25.4573 113.895 25.2604 114.047 25.2336 114.27C25.2156 114.404 24.8666 117.48 24.8845 119.295C24.8845 119.519 25.0724 119.698 25.2873 119.698Z" fill="#443E3B"/>
<path d="M25.4661 140.129C25.4035 139.914 25.1886 139.789 24.9649 139.843C24.75 139.906 24.6247 140.129 24.6784 140.344C24.7232 140.496 25.7257 144.09 26.594 145.449C26.6745 145.574 26.7998 145.637 26.9341 145.637C27.0057 145.637 27.0863 145.619 27.1489 145.575C27.3369 145.458 27.3906 145.199 27.2742 145.011C26.4686 143.75 25.4661 140.165 25.4572 140.129H25.4661Z" fill="#443E3B"/>
<path d="M18.5286 150.913C18.466 150.698 18.2511 150.573 18.0274 150.627C17.8125 150.689 17.6872 150.913 17.7409 151.127C17.7767 151.244 18.5734 154.078 20.1309 155.661C20.2114 155.741 20.3188 155.786 20.4173 155.786C20.5158 155.786 20.6232 155.75 20.7037 155.67C20.8649 155.509 20.8649 155.258 20.7037 155.097C19.2895 153.667 18.5197 150.949 18.5107 150.922L18.5286 150.913Z" fill="#443E3B"/>
<path d="M35.0081 159.791C34.8738 159.613 34.6143 159.577 34.4352 159.711C34.2562 159.845 34.2204 160.104 34.3547 160.283C34.4531 160.408 36.6909 163.341 37.8009 164.209C37.8725 164.262 37.962 164.298 38.0515 164.298C38.1679 164.298 38.2932 164.244 38.3737 164.137C38.508 163.958 38.4811 163.708 38.3021 163.565C37.2727 162.76 35.026 159.818 34.9992 159.791H35.0081Z" fill="#443E3B"/>
<path d="M32.5736 172.363C32.4125 172.202 32.1618 172.202 32.0007 172.363C31.8396 172.524 31.8396 172.783 32.0007 172.935C32.0813 173.016 33.9073 174.822 35.3574 175.868C35.429 175.922 35.5096 175.948 35.5991 175.948C35.7244 175.948 35.8497 175.886 35.9303 175.779C36.0645 175.6 36.0198 175.34 35.8408 175.215C34.4354 174.205 32.6005 172.381 32.5825 172.363H32.5736Z" fill="#443E3B"/>
<path d="M52.8024 186.115C50.86 185.31 48.3806 182.789 48.3627 182.771C48.2105 182.61 47.9509 182.61 47.7898 182.771C47.6287 182.923 47.6287 183.182 47.7898 183.343C47.8972 183.451 50.4035 186.008 52.507 186.875C52.5607 186.893 52.6145 186.902 52.6592 186.902C52.8203 186.902 52.9725 186.804 53.0352 186.652C53.1247 186.446 53.0173 186.205 52.8114 186.124L52.8024 186.115Z" fill="#443E3B"/>
<path d="M69.0406 191.382C67.7784 191.033 64.6993 189.388 64.6635 189.37C64.4665 189.263 64.2159 189.334 64.1085 189.531C64.0011 189.728 64.0727 189.978 64.2696 190.085C64.3949 190.157 67.4562 191.793 68.8168 192.169C68.8526 192.178 68.8884 192.187 68.9242 192.187C69.1032 192.187 69.2643 192.071 69.318 191.892C69.3807 191.677 69.2464 191.454 69.0316 191.391L69.0406 191.382Z" fill="#443E3B"/>
<path d="M84.2215 201.995C82.6014 201.763 79.1731 200.35 79.1373 200.341C78.9314 200.252 78.6897 200.359 78.6092 200.565C78.5197 200.771 78.6181 201.012 78.833 201.092C78.9762 201.155 82.3955 202.559 84.1141 202.8C84.132 202.8 84.1499 202.8 84.1678 202.8C84.3648 202.8 84.5438 202.657 84.5706 202.452C84.6064 202.228 84.4453 202.022 84.2215 201.995Z" fill="#443E3B"/>
<path d="M92.6266 197.274C89.6459 197.274 88.3301 196.344 88.3122 196.326C88.1331 196.192 87.8825 196.228 87.7482 196.407C87.614 196.586 87.6498 196.845 87.8288 196.979C87.8914 197.024 89.3326 198.097 92.6355 198.097C92.8593 198.097 93.0384 197.918 93.0384 197.694C93.0384 197.471 92.8593 197.292 92.6355 197.292L92.6266 197.274Z" fill="#443E3B"/>
<path d="M107.575 201.137C105.704 201.236 103.234 200.332 103.207 200.324C102.992 200.243 102.759 200.359 102.688 200.565C102.607 200.78 102.724 201.012 102.93 201.084C103.028 201.119 105.346 201.96 107.333 201.951C107.432 201.951 107.521 201.951 107.611 201.951C107.835 201.942 108.014 201.754 107.996 201.531C107.987 201.307 107.817 201.146 107.575 201.146V201.137Z" fill="#443E3B"/>
<path d="M127.724 205.125C124.573 205.733 122.174 205.134 122.147 205.125C121.923 205.071 121.709 205.196 121.655 205.42C121.601 205.643 121.727 205.858 121.95 205.912C122.022 205.929 123.132 206.207 124.842 206.207C125.719 206.207 126.748 206.135 127.876 205.92C128.1 205.876 128.243 205.661 128.198 205.447C128.153 205.223 127.939 205.08 127.724 205.125Z" fill="#443E3B"/>
<path d="M148.061 199.805C145.796 200.413 142.251 200.296 142.216 200.296C142.01 200.296 141.804 200.466 141.795 200.69C141.795 200.913 141.965 201.101 142.189 201.11C142.234 201.11 142.529 201.119 142.994 201.119C144.212 201.119 146.548 201.047 148.276 200.582C148.49 200.529 148.625 200.305 148.562 200.082C148.508 199.867 148.276 199.742 148.061 199.796V199.805Z" fill="#443E3B"/>
<path d="M164.119 202.246C161.38 203.239 158.659 203.4 158.632 203.4C158.409 203.409 158.238 203.605 158.247 203.829C158.256 204.043 158.435 204.213 158.65 204.213H158.668C158.784 204.213 161.532 204.043 164.388 203.015C164.603 202.935 164.71 202.702 164.63 202.496C164.549 202.282 164.316 202.184 164.11 202.255L164.119 202.246Z" fill="#443E3B"/>
<path d="M178.334 193.17C175.488 194.583 172.838 194.994 172.811 194.994C172.587 195.03 172.435 195.235 172.471 195.459C172.498 195.665 172.677 195.808 172.874 195.808C172.892 195.808 172.919 195.808 172.937 195.808C173.053 195.79 175.738 195.379 178.701 193.903C178.898 193.805 178.987 193.563 178.88 193.358C178.782 193.152 178.531 193.072 178.334 193.179V193.17Z" fill="#443E3B"/>
<path d="M200.317 184.559C197.731 186.401 195.171 187.215 195.153 187.224C194.938 187.295 194.821 187.519 194.884 187.733C194.938 187.903 195.099 188.02 195.269 188.02C195.314 188.02 195.35 188.02 195.394 188.002C195.502 187.966 198.098 187.143 200.792 185.23C200.971 185.105 201.016 184.845 200.89 184.666C200.756 184.488 200.505 184.443 200.326 184.568L200.317 184.559Z" fill="#443E3B"/>
<path d="M194.132 193.662C192.405 194.69 189.316 195.692 189.29 195.701C189.075 195.772 188.958 195.996 189.03 196.21C189.084 196.38 189.245 196.488 189.415 196.488C189.46 196.488 189.495 196.488 189.54 196.47C189.665 196.425 192.745 195.423 194.553 194.35C194.75 194.234 194.812 193.984 194.696 193.796C194.58 193.599 194.329 193.537 194.141 193.653L194.132 193.662Z" fill="#443E3B"/>
<path d="M216.116 174.983C213.834 177.442 210.773 179.347 210.746 179.374C210.558 179.49 210.495 179.74 210.611 179.937C210.692 180.062 210.817 180.125 210.961 180.125C211.032 180.125 211.104 180.107 211.175 180.062C211.301 179.982 214.353 178.077 216.716 175.538C216.868 175.377 216.859 175.118 216.698 174.966C216.537 174.814 216.278 174.822 216.125 174.983H216.116Z" fill="#443E3B"/>
<path d="M223.573 160.739C223.367 160.659 223.125 160.757 223.045 160.972C222.248 163.028 220.655 164.763 220.646 164.772C220.494 164.933 220.503 165.192 220.664 165.344C220.744 165.416 220.843 165.452 220.941 165.452C221.049 165.452 221.156 165.407 221.237 165.317C221.308 165.246 222.946 163.458 223.806 161.258C223.886 161.052 223.779 160.811 223.573 160.73V160.739Z" fill="#443E3B"/>
<path d="M231.995 165.362C231.79 165.273 231.548 165.362 231.458 165.577C230.644 167.49 228.334 169.547 228.308 169.565C228.137 169.717 228.12 169.967 228.272 170.137C228.352 170.226 228.46 170.271 228.576 170.271C228.675 170.271 228.764 170.235 228.845 170.173C228.943 170.083 231.315 167.982 232.201 165.899C232.291 165.693 232.201 165.451 231.986 165.362H231.995Z" fill="#443E3B"/>
<path d="M237.322 145.092C237.098 145.047 236.883 145.181 236.838 145.405C236.14 148.543 234.27 151.377 234.243 151.404C234.117 151.592 234.171 151.842 234.359 151.968C234.431 152.012 234.511 152.039 234.583 152.039C234.717 152.039 234.842 151.977 234.923 151.86C235.004 151.744 236.901 148.874 237.635 145.583C237.68 145.369 237.546 145.145 237.322 145.101V145.092Z" fill="#443E3B"/>
<path d="M231.593 139.092C231.593 139.092 231.665 139.11 231.71 139.11C231.889 139.11 232.05 138.994 232.103 138.815C232.139 138.69 232.981 135.721 232.569 132.404C232.542 132.18 232.327 132.02 232.112 132.055C231.889 132.082 231.728 132.288 231.763 132.511C232.157 135.659 231.334 138.574 231.325 138.6C231.262 138.815 231.387 139.039 231.602 139.101L231.593 139.092Z" fill="#443E3B"/>
<path d="M244.903 128.076C244.903 128.076 244.93 128.076 244.948 128.076C245.154 128.076 245.333 127.924 245.351 127.709C245.709 124.097 245.36 121.236 245.351 121.119C245.324 120.896 245.109 120.735 244.894 120.771C244.67 120.797 244.509 121.003 244.545 121.227C244.545 121.253 244.894 124.115 244.545 127.638C244.527 127.861 244.688 128.058 244.912 128.085L244.903 128.076Z" fill="#443E3B"/>
<path d="M236.436 107.34C236.436 107.34 237.483 111.543 237.582 115.039C237.582 115.262 237.77 115.432 237.984 115.432H237.993C238.217 115.432 238.396 115.236 238.387 115.012C238.28 111.426 237.259 107.313 237.215 107.135C237.161 106.92 236.937 106.786 236.722 106.839C236.507 106.893 236.373 107.117 236.427 107.331L236.436 107.34Z" fill="#443E3B"/>
<path d="M228.585 95.779C228.585 95.779 228.648 95.779 228.684 95.77C228.899 95.7164 229.033 95.4928 228.979 95.2782C228.648 93.9728 226.186 90.1994 226.088 90.0385C225.963 89.8507 225.712 89.7971 225.524 89.9223C225.336 90.0475 225.282 90.2978 225.408 90.4855C226.097 91.5406 227.95 94.5093 228.191 95.4839C228.236 95.6717 228.406 95.7879 228.585 95.7879V95.779Z" fill="#443E3B"/>
<path d="M236.059 85.8541C236.104 86.0419 236.265 86.176 236.453 86.176C236.48 86.176 236.506 86.176 236.542 86.1671C236.757 86.1224 236.9 85.8988 236.856 85.6842C236.542 84.2625 234.43 80.1047 234.34 79.9259C234.242 79.7291 233.991 79.6487 233.794 79.7471C233.597 79.8454 233.517 80.0958 233.615 80.2925C233.633 80.3372 235.764 84.5307 236.059 85.8541Z" fill="#443E3B"/>
<path d="M228.227 67.7832C228.299 67.9173 228.442 67.9978 228.585 67.9978C228.648 67.9978 228.72 67.9799 228.782 67.9442C228.979 67.8369 229.051 67.5865 228.943 67.3898C228.057 65.7803 226.911 59.6286 226.902 59.566C226.858 59.3424 226.652 59.2083 226.428 59.244C226.204 59.2887 226.061 59.4944 226.106 59.718C226.151 59.9773 227.287 66.0664 228.236 67.7832H228.227Z" fill="#443E3B"/>
<path d="M218.426 75.7054C218.426 75.7054 218.488 75.7054 218.524 75.6965C218.739 75.6428 218.873 75.4193 218.819 75.2047C218.22 72.7994 217.011 68.2124 217.011 68.2124L216.224 68.418C216.224 68.418 217.432 72.9872 218.032 75.3925C218.077 75.5802 218.247 75.6965 218.426 75.6965V75.7054Z" fill="#443E3B"/>
<path d="M206.969 70.367C206.969 70.367 207.049 70.367 207.085 70.3491C207.3 70.2865 207.425 70.054 207.353 69.8394C207.353 69.8126 206.458 66.8619 206.503 64.403C206.503 64.1794 206.324 63.9917 206.1 63.9917C205.868 63.9917 205.689 64.1705 205.689 64.394C205.653 66.9781 206.539 69.9557 206.575 70.0809C206.628 70.2597 206.79 70.367 206.96 70.367H206.969Z" fill="#443E3B"/>
<path d="M225.739 42.9526C225.739 42.9526 225.802 42.9526 225.838 42.9437C226.053 42.89 226.187 42.6665 226.133 42.4519C225.748 40.9318 225.336 36.6578 225.336 36.613C225.319 36.3895 225.122 36.2375 224.889 36.2465C224.665 36.2644 224.504 36.47 224.522 36.6935C224.54 36.8724 224.943 41.0749 225.345 42.6575C225.39 42.8453 225.56 42.9616 225.739 42.9616V42.9526Z" fill="#443E3B"/>
<path d="M217.513 30.7926C217.513 30.7926 217.531 30.7926 217.548 30.7926C217.772 30.7747 217.942 30.5779 217.924 30.3544C217.745 28.119 217.924 22.9866 217.924 22.9329C217.924 22.7094 217.754 22.5216 217.531 22.5127C217.307 22.5306 217.119 22.6826 217.11 22.9061C217.11 23.1207 216.931 28.1369 217.11 30.417C217.128 30.6316 217.307 30.7926 217.513 30.7926Z" fill="#443E3B"/>
<path d="M213.234 52.3588C213.234 52.3588 213.288 52.3588 213.306 52.3588C213.53 52.3141 213.673 52.1084 213.628 51.8849C213.037 48.7107 212.67 44.6065 212.67 44.5618C212.652 44.3382 212.455 44.1773 212.232 44.1952C212.008 44.2131 211.847 44.4098 211.865 44.6333C211.865 44.678 212.232 48.818 212.84 52.028C212.876 52.2247 213.046 52.3588 213.243 52.3588H213.234Z" fill="#443E3B"/>
<path d="M208.168 20.6797C208.284 20.6797 208.4 20.6261 208.481 20.5367C209.716 19.0524 211.139 15.279 211.202 15.1181C211.283 14.9035 211.175 14.671 210.96 14.5995C210.754 14.519 210.513 14.6263 210.441 14.8409C210.423 14.8767 209.009 18.65 207.854 20.018C207.711 20.1879 207.738 20.4472 207.908 20.5903C207.989 20.6529 208.078 20.6886 208.168 20.6886V20.6797Z" fill="#443E3B"/>
<path d="M198.858 52.5827C198.858 52.5827 198.008 56.9461 197.65 58.9669C197.614 59.1904 197.757 59.3961 197.981 59.4408C198.008 59.4408 198.026 59.4408 198.053 59.4408C198.25 59.4408 198.42 59.2977 198.456 59.101C198.814 57.0802 199.646 52.7704 199.655 52.7257C199.7 52.5022 199.557 52.2876 199.333 52.2518C199.118 52.2071 198.903 52.3502 198.858 52.5737V52.5827Z" fill="#443E3B"/>
<path d="M198.375 38.2762C198.455 38.3477 198.554 38.3835 198.652 38.3835C198.76 38.3835 198.867 38.3388 198.948 38.2494C200.434 36.6399 201.517 33.3047 201.561 33.1616C201.633 32.947 201.517 32.7145 201.302 32.652C201.087 32.5804 200.854 32.6967 200.792 32.9113C200.783 32.9471 199.718 36.2107 198.348 37.695C198.196 37.8559 198.205 38.1153 198.375 38.2673V38.2762Z" fill="#443E3B"/>
<path d="M195.394 19.4367C195.528 19.4367 195.654 19.3741 195.734 19.2579C196.773 17.711 199.494 15.3057 199.521 15.2879C199.691 15.1359 199.708 14.8855 199.556 14.7156C199.404 14.5457 199.154 14.5278 198.983 14.6798C198.867 14.7782 196.164 17.1745 195.063 18.8108C194.938 18.9986 194.982 19.249 195.17 19.3741C195.242 19.4189 195.322 19.4457 195.394 19.4457V19.4367Z" fill="#443E3B"/>
<path d="M188.404 35.9155C188.529 35.9155 188.646 35.8619 188.726 35.7546C189.335 34.9588 191.895 30.7831 192.002 30.6042C192.119 30.4165 192.056 30.1661 191.868 30.0499C191.68 29.9336 191.429 29.9962 191.313 30.184C191.286 30.2287 188.663 34.5117 188.082 35.2628C187.947 35.4416 187.974 35.692 188.153 35.835C188.225 35.8887 188.314 35.9155 188.404 35.9155Z" fill="#443E3B"/>
<path d="M175.084 34.172C175.156 34.172 175.236 34.1541 175.299 34.1094C176.516 33.3493 178.87 30.0499 178.969 29.9068C179.103 29.7191 179.058 29.4688 178.87 29.3436C178.691 29.2184 178.432 29.2542 178.306 29.4419C177.653 30.3629 175.755 32.8665 174.869 33.4298C174.681 33.546 174.619 33.7964 174.744 33.9931C174.824 34.1183 174.95 34.1809 175.093 34.1809L175.084 34.172Z" fill="#443E3B"/>
<path d="M180.464 52.35C180.464 52.35 180.544 52.3679 180.58 52.3679C180.759 52.3679 180.92 52.2516 180.974 52.0728C181.135 51.5274 182.495 49.6049 183.319 48.523C183.453 48.3442 183.417 48.0849 183.238 47.9508C183.059 47.8167 182.809 47.8524 182.666 48.0312C182.442 48.3263 180.446 50.973 180.186 51.8403C180.123 52.0549 180.249 52.2785 180.464 52.3411V52.35Z" fill="#443E3B"/>
<path d="M49.2134 44.5621C49.1865 44.7856 49.3387 44.9913 49.5625 45.0181C49.5804 45.0181 49.5983 45.0181 49.6162 45.0181C49.8131 45.0181 49.9921 44.8661 50.019 44.6604C50.2875 42.5681 50.0279 38.151 50.019 37.9632C50.0011 37.7397 49.8042 37.5519 49.5893 37.5787C49.3656 37.5966 49.1955 37.7844 49.2044 38.0079C49.2044 38.0526 49.473 42.5413 49.2044 44.5531L49.2134 44.5621Z" fill="#443E3B"/>
<path d="M54.3329 65.2798C54.3866 65.3066 54.4404 65.3156 54.503 65.3156C54.6552 65.3156 54.8073 65.2262 54.87 65.0742C55.4429 63.8045 55.3623 60.4603 55.3623 60.3173C55.3623 60.0937 55.1743 59.9238 54.9595 59.9238H54.9506C54.7268 59.9238 54.5478 60.1206 54.5567 60.3441C54.5836 61.2561 54.5567 63.8313 54.145 64.7433C54.0555 64.949 54.145 65.1904 54.3508 65.2798H54.3329Z" fill="#443E3B"/>
<path d="M60.886 45.1345C60.6712 45.1971 60.5548 45.4295 60.6175 45.6441C60.7428 46.0376 61.8259 49.5158 62.3898 50.3563C62.4704 50.4726 62.5957 50.5351 62.73 50.5351C62.8105 50.5351 62.8821 50.5173 62.9537 50.4636C63.1417 50.3385 63.1954 50.0881 63.0701 49.9003C62.6494 49.2744 61.7274 46.4399 61.4052 45.4027C61.3425 45.1881 61.1098 45.0629 60.895 45.1345H60.886Z" fill="#443E3B"/>
<path d="M61.7001 23.7642C61.7538 23.791 61.8165 23.8 61.8792 23.8C62.0403 23.8 62.1925 23.7195 62.2641 23.5764C62.3536 23.3708 62.2909 23.1472 62.085 23.0578C61.8344 22.8253 60.9572 20.9923 60.2948 19.4186C60.2053 19.2129 59.9636 19.1146 59.7577 19.204C59.5519 19.2934 59.4534 19.5259 59.5429 19.7405C61.1452 23.5317 61.5569 23.7195 61.7001 23.7731V23.7642Z" fill="#443E3B"/>
<path d="M69.1836 35.9247C69.2642 36.023 69.3805 36.0767 69.5058 36.0767C69.5953 36.0767 69.6849 36.0499 69.7565 35.9873C69.9355 35.8442 69.9623 35.5938 69.8191 35.415C69.1209 34.5477 67.0711 30.8995 67.0532 30.8637C66.9458 30.667 66.6952 30.5955 66.4983 30.7118C66.3013 30.819 66.2297 31.0694 66.3461 31.2661C66.4356 31.4181 68.4496 35.0037 69.1836 35.9247Z" fill="#443E3B"/>
<path d="M78.162 52.3234C78.2247 52.3591 78.2963 52.377 78.3679 52.377C78.5111 52.377 78.6454 52.3055 78.717 52.1714C78.8334 51.9747 78.7618 51.7243 78.5648 51.617C77.6518 51.0895 75.2619 48.4964 74.4205 47.5486C74.2683 47.3787 74.0177 47.3608 73.8476 47.5128C73.6775 47.6648 73.6596 47.9152 73.8118 48.0851C73.9371 48.2282 76.9447 51.617 78.162 52.3234Z" fill="#443E3B"/>
<path d="M86.2265 35.8528C86.2981 35.9959 86.4413 36.0763 86.5935 36.0763C86.6561 36.0763 86.7188 36.0585 86.7725 36.0316C86.9694 35.9333 87.0589 35.6829 86.9515 35.4862C86.7635 35.1107 84.7227 32.6339 84.0961 31.8917C83.9529 31.7218 83.6933 31.695 83.5232 31.8381C83.3532 31.9811 83.3263 32.2405 83.4695 32.4103C84.5258 33.689 86.0833 35.6024 86.2175 35.8528H86.2265Z" fill="#443E3B"/>
<path d="M99.9217 48.0671C100.002 48.1655 100.119 48.2192 100.244 48.2192C100.333 48.2192 100.423 48.1923 100.495 48.1297C100.674 47.9867 100.7 47.7363 100.557 47.5575C99.2414 45.8944 96.923 43.5159 96.8246 43.4176C96.6724 43.2566 96.4128 43.2566 96.2517 43.4176C96.0906 43.5696 96.0906 43.8289 96.2517 43.9898C96.2786 44.0166 98.6417 46.4308 99.9306 48.0671H99.9217Z" fill="#443E3B"/>
<path d="M108.945 38.08C108.99 38.2677 109.16 38.4018 109.339 38.4018C109.366 38.4018 109.401 38.4019 109.428 38.3929C109.643 38.3482 109.786 38.1247 109.742 37.9101C109.491 36.7834 107.611 33.332 107.531 33.18C107.423 32.9833 107.173 32.9118 106.976 33.0191C106.779 33.1264 106.707 33.3767 106.815 33.5735C107.343 34.5391 108.757 37.2484 108.945 38.0889V38.08Z" fill="#443E3B"/>
<path d="M119.784 47.8886C119.82 48.0853 119.99 48.2194 120.187 48.2194C120.214 48.2194 120.241 48.2194 120.268 48.2194C120.491 48.1747 120.635 47.9601 120.59 47.7455C120.339 46.4668 119.167 43.6771 119.122 43.5519C119.032 43.3462 118.8 43.2479 118.585 43.3373C118.379 43.4267 118.281 43.6592 118.37 43.8738C118.379 43.9007 119.561 46.7083 119.793 47.8975L119.784 47.8886Z" fill="#443E3B"/>
<path d="M123.991 35.6742C123.991 35.8977 124.17 36.0765 124.394 36.0765C124.618 36.0765 124.797 35.8887 124.797 35.6652C124.797 34.7621 124.027 32.2943 123.937 32.0171C123.866 31.8025 123.642 31.6862 123.427 31.7488C123.212 31.8204 123.096 32.0439 123.159 32.2585C123.382 32.9828 123.973 35.0125 123.982 35.6652L123.991 35.6742Z" fill="#443E3B"/>
<path d="M137.516 46.7887C137.57 46.8066 137.615 46.8155 137.669 46.8155C137.83 46.8155 137.982 46.7172 138.045 46.5563C138.349 45.8052 139.155 43.8022 139.298 43.5161C139.396 43.3194 139.316 43.0691 139.119 42.9707C138.913 42.8723 138.671 42.9528 138.573 43.1495C138.394 43.5161 137.409 45.975 137.293 46.2522C137.212 46.4579 137.311 46.6993 137.516 46.7798V46.7887Z" fill="#443E3B"/>
<path d="M140.685 35.2365C140.73 35.2544 140.784 35.2634 140.828 35.2634C140.99 35.2634 141.151 35.165 141.213 35.004C141.437 34.4139 142.073 32.7865 142.35 32.3752C142.475 32.1875 142.422 31.9371 142.234 31.8119C142.046 31.6867 141.795 31.7404 141.67 31.9282C141.294 32.4915 140.542 34.4944 140.453 34.7179C140.372 34.9325 140.479 35.165 140.694 35.2365H140.685Z" fill="#443E3B"/>
<path d="M156.833 36.5683C156.887 36.5951 156.95 36.6041 157.003 36.6041C157.155 36.6041 157.299 36.5146 157.37 36.3716C157.388 36.3448 158.811 33.3225 159.501 32.3747C159.635 32.1959 159.59 31.9366 159.411 31.8114C159.232 31.6772 158.973 31.722 158.847 31.9008C158.113 32.9112 156.699 35.9066 156.636 36.0318C156.538 36.2375 156.636 36.4789 156.833 36.5683Z" fill="#443E3B"/>
<path d="M161.541 48.6305C161.604 48.6663 161.676 48.6931 161.756 48.6931C161.891 48.6931 162.025 48.6216 162.105 48.4964C162.114 48.4785 163.251 46.6187 164.755 44.6694C164.889 44.4906 164.862 44.2403 164.683 44.0972C164.504 43.9631 164.254 43.9899 164.11 44.1687C162.58 46.1537 161.425 48.0493 161.416 48.0672C161.3 48.255 161.362 48.5054 161.55 48.6216L161.541 48.6305Z" fill="#443E3B"/>
<path d="M15.0735 288.505C15.0646 288.281 14.9034 288.076 14.6528 288.12C14.429 288.129 14.259 288.317 14.2679 288.541C14.2858 288.97 14.4738 292.734 15.0467 293.7C15.1272 293.825 15.2615 293.897 15.3958 293.897C15.4674 293.897 15.539 293.879 15.6016 293.843C15.7896 293.727 15.8523 293.476 15.7449 293.289C15.3868 292.698 15.1451 290.043 15.0825 288.514L15.0735 288.505Z" fill="#443E3B"/>
<path d="M17.6698 302.123C17.5982 301.908 17.3655 301.801 17.1507 301.873C16.9358 301.944 16.8284 302.177 16.9 302.391C17.0164 302.722 18.0547 305.682 19.102 306.549C19.1736 306.612 19.2721 306.639 19.3616 306.639C19.478 306.639 19.5943 306.585 19.6749 306.486C19.8181 306.317 19.7912 306.057 19.6212 305.914C18.8782 305.306 17.9652 302.972 17.6698 302.123Z" fill="#443E3B"/>
<path d="M25.287 293.45C25.2601 293.673 25.4302 293.87 25.654 293.897C25.6719 293.897 25.6808 293.897 25.6987 293.897C25.9046 293.897 26.0836 293.745 26.1015 293.53C26.191 292.609 26.1015 289.023 26.1015 288.871C26.1015 288.648 25.9136 288.478 25.6987 288.478H25.6898C25.466 288.478 25.287 288.666 25.2959 288.898C25.2959 288.934 25.3854 292.582 25.2959 293.45H25.287Z" fill="#443E3B"/>
<path d="M29.4676 304.939C29.5481 304.939 29.6197 304.921 29.6913 304.876C30.3985 304.411 31.5084 302.668 31.6337 302.471C31.7501 302.283 31.6964 302.033 31.5084 301.908C31.3204 301.792 31.0698 301.845 30.9445 302.033C30.5059 302.722 29.6645 303.92 29.2438 304.197C29.0558 304.322 29.0021 304.572 29.1274 304.76C29.208 304.876 29.3333 304.948 29.4676 304.939Z" fill="#443E3B"/>
<path d="M36.2704 295.792C36.3868 295.792 36.4942 295.747 36.5748 295.658C37.3356 294.799 37.9532 292.528 38.0159 292.278C38.0696 292.063 37.9443 291.84 37.7295 291.786C37.5146 291.723 37.2908 291.857 37.2371 292.072C37.0671 292.716 36.5121 294.513 35.9661 295.121C35.8139 295.291 35.8318 295.541 36.0019 295.693C36.0824 295.765 36.172 295.792 36.2704 295.792Z" fill="#443E3B"/>
<path d="M37.6574 305.368C37.738 305.485 37.8633 305.538 37.9886 305.538C38.0692 305.538 38.1498 305.511 38.2214 305.467C39.1612 304.814 40.9246 302.221 41.1305 301.926C41.2558 301.738 41.211 301.488 41.0231 301.363C40.8351 301.237 40.5845 301.282 40.4592 301.47C39.94 302.23 38.4541 304.313 37.7649 304.796C37.5769 304.921 37.5321 305.181 37.6664 305.359L37.6574 305.368Z" fill="#443E3B"/>
<path d="M241.126 218.948C239.103 219.771 237.215 221.291 237.134 221.354C236.955 221.497 236.928 221.747 237.071 221.926C237.152 222.024 237.268 222.078 237.385 222.078C237.474 222.078 237.564 222.051 237.644 221.989C237.662 221.971 239.515 220.486 241.431 219.7C241.636 219.61 241.735 219.378 241.654 219.172C241.565 218.966 241.332 218.868 241.126 218.948Z" fill="#443E3B"/>
<path d="M248.179 225.208C247.991 225.091 247.741 225.154 247.624 225.351C246.496 227.264 244.697 228.945 244.679 228.963C244.518 229.115 244.509 229.374 244.661 229.535C244.742 229.625 244.849 229.661 244.957 229.661C245.055 229.661 245.154 229.625 245.234 229.553C245.315 229.482 247.132 227.774 248.323 225.762C248.439 225.565 248.376 225.324 248.179 225.208Z" fill="#443E3B"/>
<path d="M254.705 214.326C254.687 214.103 254.49 213.942 254.266 213.951C252.968 214.04 249.791 215.015 249.657 215.05C249.442 215.113 249.325 215.345 249.388 215.56C249.442 215.739 249.603 215.846 249.773 215.846C249.809 215.846 249.853 215.846 249.889 215.828C249.925 215.819 253.112 214.845 254.32 214.764C254.544 214.746 254.714 214.55 254.696 214.326H254.705Z" fill="#443E3B"/>
<path d="M256.468 223.973C256.584 223.973 256.692 223.929 256.772 223.83C257.444 223.061 258.052 220.853 258.124 220.602C258.186 220.388 258.052 220.164 257.837 220.102C257.623 220.048 257.399 220.173 257.336 220.388C257.166 221.014 256.629 222.757 256.155 223.294C256.002 223.464 256.02 223.723 256.19 223.866C256.271 223.938 256.36 223.964 256.459 223.964L256.468 223.973Z" fill="#443E3B"/>
<path d="M255.439 231.127C255.224 231.065 255 231.181 254.929 231.395C254.929 231.413 254.204 233.658 252.762 235.017C252.601 235.169 252.592 235.428 252.744 235.589C252.825 235.67 252.932 235.714 253.04 235.714C253.138 235.714 253.237 235.678 253.317 235.607C254.911 234.105 255.672 231.744 255.707 231.637C255.779 231.422 255.654 231.199 255.439 231.127Z" fill="#443E3B"/>
<path d="M264.336 226.594C264.112 226.594 263.933 226.773 263.933 226.996C263.933 227.023 263.924 229.616 262.993 231.315C262.886 231.512 262.957 231.762 263.154 231.869C263.217 231.905 263.28 231.923 263.351 231.923C263.495 231.923 263.638 231.842 263.709 231.708C264.739 229.831 264.757 227.112 264.757 226.996C264.757 226.773 264.578 226.594 264.354 226.594H264.336Z" fill="#443E3B"/>
<path d="M260.558 238.2C260.361 238.092 260.111 238.164 260.003 238.361C259.985 238.396 258.052 241.884 256.271 242.903C256.074 243.019 256.011 243.261 256.118 243.457C256.19 243.591 256.333 243.663 256.477 243.663C256.548 243.663 256.611 243.645 256.682 243.609C258.661 242.483 260.639 238.906 260.719 238.754C260.827 238.557 260.755 238.307 260.558 238.2Z" fill="#443E3B"/>
<path d="M49.8405 337.898C49.8405 337.898 49.8942 337.898 49.9211 337.898C49.939 337.898 52.2215 337.415 54.7189 337.057C54.9427 337.022 55.0948 336.816 55.068 336.601C55.0322 336.378 54.8263 336.226 54.6115 336.253C52.0962 336.61 49.7868 337.093 49.76 337.102C49.5451 337.147 49.4019 337.361 49.4467 337.585C49.4914 337.773 49.6526 337.907 49.8405 337.907V337.898Z" fill="#443E3B"/>
<path d="M44.6931 344.452C44.6483 344.228 44.4245 344.085 44.2187 344.13C41.7839 344.613 39.3313 345.802 39.2239 345.847C39.018 345.945 38.9375 346.186 39.0359 346.392C39.1076 346.535 39.2508 346.624 39.4029 346.624C39.4656 346.624 39.5193 346.615 39.582 346.58C39.6088 346.571 42.0525 345.39 44.3798 344.926C44.6036 344.881 44.7468 344.666 44.702 344.452H44.6931Z" fill="#443E3B"/>
<path d="M52.6865 347.34C52.7044 347.546 52.8834 347.706 53.0893 347.706C53.1072 347.706 53.1162 347.706 53.1341 347.706L57.5917 347.224C57.8155 347.197 57.9766 347 57.9498 346.777C57.9229 346.553 57.7171 346.401 57.5022 346.419L53.0446 346.902C52.8208 346.929 52.6597 347.125 52.6865 347.349V347.34Z" fill="#443E3B"/>
<path d="M56.5439 356.451C56.5439 356.675 56.723 356.854 56.9467 356.854H61.4044C61.6282 356.854 61.8072 356.675 61.8072 356.442C61.8072 356.21 61.6282 356.04 61.4044 356.04H56.9467C56.723 356.04 56.5439 356.219 56.5439 356.451Z" fill="#443E3B"/>
<path d="M46.2596 354.726C46.2596 354.726 43.4131 355.298 41.6408 354.735C41.426 354.672 41.1932 354.788 41.1306 355.003C41.059 355.217 41.1843 355.441 41.3991 355.513C42.0794 355.727 42.8761 355.799 43.6279 355.799C45.0601 355.799 46.3491 355.539 46.4297 355.521C46.6534 355.477 46.7877 355.262 46.7429 355.039C46.6982 354.824 46.4834 354.672 46.2596 354.726Z" fill="#443E3B"/>
<path d="M49.0525 361.468C49.9297 361.673 50.798 361.745 51.5678 361.745C53.0357 361.745 54.1367 361.485 54.1994 361.477C54.4142 361.423 54.5485 361.208 54.5037 360.985C54.459 360.761 54.2352 360.636 54.0114 360.681C53.9846 360.681 51.6125 361.235 49.2405 360.681C49.0167 360.627 48.8018 360.761 48.7481 360.985C48.6944 361.208 48.8287 361.423 49.0525 361.477V361.468Z" fill="#443E3B"/>
<path d="M74.062 335.189C74.1157 335.189 74.1695 335.18 74.2232 335.153C74.429 335.063 74.5275 334.822 74.438 334.616C73.7398 332.998 73.0237 328.143 73.0237 328.098C72.9879 327.874 72.7731 327.722 72.5583 327.758C72.3345 327.794 72.1823 328 72.2181 328.223C72.245 328.429 72.9611 333.23 73.6951 334.947C73.7577 335.099 73.9099 335.197 74.071 335.197L74.062 335.189Z" fill="#443E3B"/>
<path d="M77.616 349.307C77.3922 349.343 77.249 349.558 77.2848 349.781C77.2848 349.826 78.0009 353.957 78.0009 355.119C78.0009 355.343 78.1799 355.522 78.4037 355.522C78.6274 355.522 78.8065 355.343 78.8065 355.119C78.8065 353.885 78.1083 349.817 78.0814 349.638C78.0456 349.415 77.8397 349.271 77.607 349.307H77.616Z" fill="#443E3B"/>
<path d="M79.3254 369.73C79.1017 369.756 78.9405 369.953 78.9674 370.177C78.9674 370.212 79.3165 373.44 78.9674 375.407C78.9316 375.631 79.0748 375.837 79.2986 375.881C79.3254 375.881 79.3433 375.881 79.3702 375.881C79.5671 375.881 79.7372 375.738 79.773 375.542C80.14 373.458 79.7909 370.221 79.773 370.078C79.7461 369.855 79.5403 369.694 79.3254 369.721V369.73Z" fill="#443E3B"/>
<path d="M75.2433 392.781C75.0285 392.736 74.8047 392.87 74.76 393.094C74.76 393.13 74.0349 396.474 73.6769 397.896C73.6232 398.11 73.7574 398.334 73.9723 398.387C74.0081 398.387 74.0349 398.396 74.0707 398.396C74.2498 398.396 74.4198 398.271 74.4646 398.092C74.8226 396.662 75.5477 393.3 75.5477 393.264C75.5924 393.049 75.4582 392.826 75.2344 392.781H75.2433Z" fill="#443E3B"/>
<path d="M86.1543 334.733C86.1275 334.509 85.9216 334.348 85.6978 334.384C85.4741 334.411 85.3129 334.616 85.3487 334.84C85.4203 335.421 86.0917 340.589 86.584 341.698C86.6556 341.85 86.7988 341.939 86.9599 341.939C87.0137 341.939 87.0674 341.931 87.1211 341.904C87.3269 341.814 87.4165 341.573 87.3269 341.367C86.951 340.527 86.3513 336.297 86.1543 334.742V334.733Z" fill="#443E3B"/>
<path d="M88.9299 360.931C88.7151 360.976 88.5718 361.19 88.6166 361.414C88.6255 361.459 89.5654 365.876 89.3327 367.476C89.2969 367.7 89.458 367.905 89.6818 367.932C89.6997 367.932 89.7176 367.932 89.7444 367.932C89.9414 367.932 90.1204 367.789 90.1472 367.584C90.3979 365.849 89.458 361.423 89.4222 361.235C89.3774 361.012 89.1537 360.886 88.9388 360.922L88.9299 360.931Z" fill="#443E3B"/>
<path d="M88.1419 392.172C87.9181 392.19 87.748 392.387 87.7659 392.611C87.9002 394.3 88.0345 397.215 87.7928 397.85C87.7122 398.065 87.8196 398.297 88.0345 398.369C88.0792 398.387 88.1329 398.396 88.1777 398.396C88.3388 398.396 88.4999 398.297 88.5626 398.136C88.9475 397.117 88.6252 393.004 88.5894 392.539C88.5715 392.315 88.3746 392.154 88.1508 392.163L88.1419 392.172Z" fill="#443E3B"/>
<path d="M91.7045 319.398C91.6866 319.174 91.4897 318.995 91.2659 319.022C91.0421 319.04 90.8721 319.237 90.89 319.46C90.9258 319.961 91.2749 324.423 91.7672 325.541C91.8388 325.693 91.982 325.782 92.1431 325.782C92.1968 325.782 92.2505 325.773 92.3042 325.746C92.5101 325.657 92.5996 325.415 92.5101 325.21C92.1342 324.369 91.794 320.73 91.6956 319.398H91.7045Z" fill="#443E3B"/>
<path d="M99.5099 337.754L99.9306 343.718C99.9485 343.933 100.128 344.094 100.333 344.094C100.342 344.094 100.351 344.094 100.36 344.094C100.584 344.076 100.754 343.879 100.736 343.656L100.316 337.692L99.501 337.746L99.5099 337.754Z" fill="#443E3B"/>
<path d="M103.457 366.296C103.439 366.519 103.609 366.716 103.833 366.734C103.842 366.734 103.851 366.734 103.86 366.734C104.075 366.734 104.254 366.573 104.263 366.358C104.388 364.642 103.779 361.145 103.752 360.993C103.717 360.77 103.502 360.618 103.278 360.663C103.054 360.698 102.911 360.913 102.947 361.136C102.947 361.172 103.556 364.686 103.448 366.305L103.457 366.296Z" fill="#443E3B"/>
<path d="M104.254 380.155C104.245 379.932 104.057 379.726 103.833 379.771C103.61 379.78 103.44 379.968 103.449 380.191C103.449 380.307 103.592 383.133 103.941 384.832C103.977 385.019 104.147 385.154 104.335 385.154C104.362 385.154 104.388 385.154 104.415 385.154C104.63 385.109 104.773 384.894 104.729 384.671C104.388 383.034 104.254 380.191 104.245 380.155H104.254Z" fill="#443E3B"/>
<path d="M108.022 393.612C107.799 393.63 107.637 393.836 107.655 394.059C107.655 394.095 108.004 397.654 107.655 400.104C107.62 400.327 107.781 400.533 108.004 400.56C108.022 400.56 108.04 400.56 108.067 400.56C108.264 400.56 108.443 400.417 108.47 400.211C108.837 397.663 108.488 394.122 108.47 393.97C108.452 393.747 108.246 393.586 108.022 393.603V393.612Z" fill="#443E3B"/>
<path d="M105.91 324.888C105.847 324.673 105.632 324.548 105.408 324.602C105.194 324.664 105.059 324.888 105.122 325.102C105.364 326.006 106.214 328.983 106.993 329.564C107.064 329.618 107.154 329.645 107.234 329.645C107.36 329.645 107.476 329.591 107.557 329.484C107.691 329.305 107.655 329.046 107.476 328.912C107.1 328.625 106.366 326.605 105.91 324.888Z" fill="#443E3B"/>
<path d="M122.093 336.243C120.473 335.725 118.056 333.641 118.03 333.624C117.859 333.48 117.6 333.498 117.457 333.668C117.313 333.838 117.331 334.097 117.501 334.24C117.609 334.33 120.07 336.449 121.852 337.021C121.896 337.03 121.932 337.039 121.977 337.039C122.147 337.039 122.308 336.932 122.362 336.753C122.433 336.538 122.308 336.315 122.102 336.243H122.093Z" fill="#443E3B"/>
<path d="M126.032 324.968C124.376 324.628 122.147 323.725 122.129 323.716C121.923 323.627 121.682 323.734 121.601 323.94C121.512 324.146 121.619 324.387 121.825 324.467C121.914 324.503 124.143 325.415 125.88 325.764C125.907 325.764 125.933 325.764 125.96 325.764C126.148 325.764 126.318 325.63 126.354 325.442C126.399 325.218 126.256 325.004 126.032 324.959V324.968Z" fill="#443E3B"/>
<path d="M138.098 335.626C136.558 336.226 132.548 336.208 132.548 336.225C132.325 336.225 132.146 336.404 132.146 336.628C132.146 336.851 132.325 337.039 132.548 337.039H132.566C132.88 337.039 136.746 337.021 138.393 336.386C138.599 336.306 138.707 336.074 138.626 335.859C138.546 335.653 138.304 335.546 138.098 335.626Z" fill="#443E3B"/>
<path d="M146.736 325.165C146.629 324.968 146.378 324.897 146.181 325.013C144.615 325.898 140.793 326.953 140.757 326.962C140.542 327.025 140.417 327.248 140.47 327.463C140.524 327.642 140.685 327.758 140.864 327.758C140.9 327.758 140.936 327.758 140.972 327.74C141.133 327.695 144.928 326.64 146.575 325.71C146.772 325.603 146.844 325.353 146.727 325.156L146.736 325.165Z" fill="#443E3B"/>
<path d="M145.743 358.231C145.743 358.231 145.77 358.231 145.787 358.231C145.993 358.231 146.172 358.079 146.19 357.864C146.316 356.639 145.966 352.544 145.949 352.365C145.931 352.141 145.734 351.981 145.51 351.998C145.286 352.016 145.125 352.213 145.143 352.437C145.143 352.481 145.501 356.63 145.385 357.784C145.367 358.007 145.528 358.204 145.752 358.231H145.743Z" fill="#443E3B"/>
<path d="M146.36 371.813C146.136 371.831 145.966 372.028 145.984 372.251C146.065 373.405 146.226 376.606 145.993 377.545C145.94 377.759 146.074 377.983 146.289 378.036C146.324 378.036 146.351 378.045 146.387 378.045C146.566 378.045 146.736 377.92 146.781 377.741C147.094 376.489 146.799 372.367 146.79 372.197C146.772 371.974 146.557 371.813 146.351 371.822L146.36 371.813Z" fill="#443E3B"/>
<path d="M145.653 392.351C145.635 392.128 145.429 391.967 145.214 391.976C144.99 391.994 144.82 392.191 144.838 392.414C144.847 392.584 145.16 396.491 146.038 398.056C146.109 398.19 146.252 398.262 146.396 398.262C146.467 398.262 146.53 398.244 146.593 398.208C146.79 398.101 146.861 397.85 146.745 397.654C145.957 396.241 145.653 392.378 145.653 392.343V392.351Z" fill="#443E3B"/>
<path d="M161.085 320.435C161.211 320.247 161.166 319.997 160.978 319.872C160.799 319.747 160.539 319.791 160.414 319.979C160.405 319.997 159.224 321.687 157.684 322C157.46 322.045 157.317 322.259 157.362 322.474C157.398 322.671 157.568 322.805 157.756 322.805C157.782 322.805 157.809 322.805 157.836 322.805C159.698 322.438 161.023 320.533 161.076 320.453L161.085 320.435Z" fill="#443E3B"/>
<path d="M189.227 314.185C189.012 314.238 188.869 314.453 188.922 314.667C188.922 314.685 189.352 316.608 188.922 318.575C188.878 318.79 189.012 319.013 189.236 319.058C189.263 319.058 189.289 319.067 189.325 319.067C189.513 319.067 189.683 318.933 189.719 318.745C190.185 316.608 189.737 314.578 189.719 314.489C189.674 314.274 189.46 314.131 189.236 314.185H189.227Z" fill="#443E3B"/>
<path d="M183.346 325.952C183.132 325.907 182.908 326.05 182.863 326.273C182.666 327.257 182.058 329.984 181.637 330.753C181.529 330.95 181.601 331.2 181.798 331.307C181.861 331.343 181.923 331.361 181.995 331.361C182.138 331.361 182.281 331.281 182.353 331.147C182.917 330.109 183.633 326.595 183.66 326.443C183.705 326.22 183.561 326.005 183.338 325.96L183.346 325.952Z" fill="#443E3B"/>
<path d="M163.823 330.539C163.6 330.539 163.421 330.726 163.421 330.95C163.421 330.977 163.421 333.963 162.821 335.492C162.74 335.698 162.839 335.939 163.054 336.02C163.098 336.038 163.152 336.047 163.206 336.047C163.367 336.047 163.519 335.948 163.582 335.787C164.244 334.106 164.235 331.066 164.235 330.941C164.235 330.717 164.056 330.539 163.832 330.539H163.823Z" fill="#443E3B"/>
<path d="M156.188 349.057C155.964 349.039 155.768 349.191 155.741 349.414C155.723 349.575 155.284 353.42 155.284 354.52C155.284 354.743 155.463 354.922 155.687 354.922C155.911 354.922 156.09 354.743 156.09 354.52C156.09 353.474 156.537 349.548 156.537 349.513C156.564 349.289 156.403 349.092 156.179 349.065L156.188 349.057Z" fill="#443E3B"/>
<path d="M156.877 367.476C156.645 367.458 156.466 367.646 156.457 367.87C156.457 368.031 156.367 371.875 156.457 372.886C156.475 373.1 156.654 373.253 156.86 373.253C156.869 373.253 156.886 373.253 156.895 373.253C157.119 373.235 157.28 373.038 157.262 372.814C157.173 371.858 157.262 367.932 157.262 367.897C157.262 367.673 157.092 367.485 156.869 367.476H156.877Z" fill="#443E3B"/>
<path d="M160.262 389.311C160.226 389.088 160.02 388.936 159.805 388.963C159.582 388.998 159.429 389.204 159.456 389.419C159.582 390.277 160.208 394.614 160.584 395.302C160.656 395.436 160.799 395.517 160.942 395.517C161.005 395.517 161.076 395.499 161.139 395.463C161.336 395.356 161.408 395.105 161.3 394.909C161.076 394.497 160.557 391.377 160.262 389.293V389.311Z" fill="#443E3B"/>
<path d="M175.89 389.535C175.684 389.615 175.577 389.857 175.667 390.062C176.087 391.109 177.179 394.05 177.179 395.114C177.179 395.338 177.358 395.517 177.582 395.517C177.806 395.517 177.985 395.338 177.985 395.114C177.985 393.666 176.481 389.919 176.418 389.758C176.338 389.553 176.096 389.454 175.89 389.535Z" fill="#443E3B"/>
<path d="M169.812 375.416C169.588 375.416 169.409 375.595 169.409 375.809C169.409 375.988 169.319 380.182 169.409 381.183C169.427 381.398 169.606 381.55 169.812 381.55C169.821 381.55 169.839 381.55 169.848 381.55C170.071 381.532 170.232 381.335 170.215 381.112C170.125 380.155 170.215 375.872 170.215 375.827C170.215 375.604 170.044 375.416 169.821 375.416H169.812Z" fill="#443E3B"/>
<path d="M175.988 363.658C175.898 362.317 176.426 358.678 176.435 358.642C176.471 358.418 176.31 358.213 176.095 358.177C175.88 358.15 175.666 358.293 175.63 358.517C175.612 358.669 175.084 362.281 175.173 363.703C175.191 363.918 175.37 364.087 175.576 364.087C175.576 364.087 175.594 364.087 175.603 364.087C175.827 364.07 175.997 363.882 175.979 363.658H175.988Z" fill="#443E3B"/>
<path d="M171.46 340.294C171.245 340.285 171.039 340.437 171.012 340.661C171.012 340.697 170.645 344.434 170.215 346.008C170.153 346.223 170.278 346.446 170.502 346.509C170.538 346.518 170.573 346.527 170.609 346.527C170.788 346.527 170.949 346.41 171.003 346.232C171.46 344.586 171.818 340.902 171.827 340.741C171.844 340.518 171.683 340.321 171.46 340.294Z" fill="#443E3B"/>
<path d="M117.609 272.883L114.028 268.126C109.92 273.697 105.623 277.327 105.426 277.488C105.158 277.712 105.05 278.087 105.167 278.427C105.283 278.758 105.596 278.99 105.945 278.99L108.738 279.017L108.353 282.075C108.326 282.308 108.389 282.549 108.541 282.728C108.711 282.934 108.953 283.032 109.195 283.032C109.374 283.032 109.562 282.969 109.714 282.844C109.902 282.683 114.019 279.25 118.298 273.813L118.101 273.545L117.609 272.874V272.883Z" fill="#D0D1D1"/>
<path d="M96.6358 239.415C96.5284 239.415 96.4389 239.504 96.4389 239.612V250.726H91.2204V239.612C91.2204 239.504 91.1308 239.415 91.0234 239.415H84.695C84.5876 239.415 84.498 239.504 84.498 239.612V270.129C84.498 270.237 84.5876 270.326 84.7039 270.326H91.0324C91.1398 270.326 91.2293 270.237 91.2293 270.129V257.638H96.4478V270.129C96.4478 270.237 96.5373 270.326 96.6447 270.326H102.964C103.072 270.326 103.161 270.237 103.161 270.129V239.612C103.161 239.504 103.072 239.415 102.955 239.415H96.6358Z" fill="#D0D1D1"/>
<path d="M163.895 263.405V258.246H169.857C169.964 258.246 170.054 258.157 170.054 258.049V251.719C170.054 251.611 169.964 251.522 169.857 251.522H163.895V246.291H170.797C170.904 246.291 170.994 246.202 170.994 246.094V239.603C170.994 239.496 170.904 239.406 170.797 239.406H156.761C156.654 239.406 156.564 239.496 156.564 239.603V270.12C156.564 270.228 156.654 270.317 156.761 270.317H170.842C170.949 270.317 171.038 270.228 171.038 270.12V263.602C171.038 263.495 170.949 263.405 170.842 263.405H163.895Z" fill="#D0D1D1"/>
<path d="M142.404 239.406H134.33C134.33 239.406 134.267 239.424 134.24 239.442V270.228C134.24 270.228 134.285 270.317 134.33 270.317H140.855C140.963 270.317 141.052 270.228 141.052 270.12V258.702H141.974C145.098 258.702 147.586 257.835 149.359 256.118C151.131 254.401 152.035 252.005 152.035 248.992C152.035 245.978 151.149 243.796 149.395 242.044C147.64 240.291 145.286 239.406 142.404 239.406ZM143.97 251.611C143.451 252.032 142.708 252.291 141.732 252.407L141.052 252.488V245.647L141.732 245.719C142.744 245.826 143.505 246.077 144.006 246.479C144.624 246.98 144.946 247.856 144.946 249.099C144.946 250.261 144.633 251.093 143.979 251.62L143.97 251.611Z" fill="#D0D1D1"/>
<path d="M123.06 266.776C121.198 264.47 118.719 260.312 118.719 260.312C117.125 257.459 116.123 254.831 115.747 252.497C115.308 249.761 115.899 247.561 117.331 246.604C117.752 246.327 118.19 246.175 118.656 246.175C118.674 246.175 118.692 246.175 118.71 246.175C118.835 246.175 118.951 246.211 119.077 246.238C119.318 246.291 119.56 246.372 119.766 246.506C121.064 247.364 121.565 249.788 121.073 252.828C120.795 254.536 120.016 257.111 119.345 258.908C120.661 261.206 122.702 264.183 123.722 265.552C125.566 261.894 127.213 257.477 127.777 253.945C129.129 245.478 125.208 241.874 123.463 240.721C122.129 239.836 120.616 239.389 119.068 239.317C118.924 239.317 118.79 239.308 118.647 239.308C116.91 239.308 115.156 239.8 113.607 240.828C109.857 243.323 108.147 248.116 109.033 253.641C109.687 257.683 111.629 262.189 114.825 267.036L118.602 272.15L119.166 272.892C123.319 277.98 127.356 281.664 128.162 282.388C128.314 282.531 128.511 282.603 128.708 282.603C128.833 282.603 128.968 282.576 129.084 282.514C129.388 282.362 129.567 282.031 129.54 281.682L129.29 278.704L132.145 278.794C132.145 278.794 132.181 278.794 132.199 278.794C132.423 278.794 132.647 278.678 132.799 278.499C132.942 278.329 133.031 278.087 133.014 277.864C132.996 277.64 132.906 277.417 132.745 277.265C132.691 277.22 127.67 272.74 123.069 266.785L123.06 266.776Z" fill="#D0D1D1"/>
<path d="M134.133 239.603V270.12C134.133 270.183 134.204 270.192 134.249 270.228V239.442C134.187 239.478 134.133 239.531 134.133 239.603Z" fill="#3EBAC2"/>
<path d="M124.545 266.66L124.823 266.115C126.9 262.01 128.457 257.531 129.003 254.133C130.471 244.932 126.094 240.935 124.143 239.648C122.684 238.682 120.947 238.119 119.13 238.038C118.969 238.038 118.808 238.029 118.647 238.029C116.606 238.029 114.628 238.628 112.936 239.755C108.756 242.536 106.849 247.793 107.816 253.829C108.46 257.835 110.304 262.234 113.294 266.937L113.258 266.991L113.285 267.027L113.034 267.366C109.015 272.821 104.808 276.362 104.638 276.514C103.967 277.077 103.716 278.016 104.003 278.847C104.289 279.679 105.068 280.242 105.936 280.251L107.341 280.269L107.136 281.923C107.064 282.504 107.234 283.104 107.61 283.551C108.013 284.033 108.595 284.302 109.212 284.302C109.687 284.302 110.143 284.132 110.51 283.837C110.689 283.694 114.825 280.233 119.139 274.788C123.024 279.384 126.613 282.665 127.347 283.318C127.723 283.658 128.207 283.846 128.717 283.846C129.039 283.846 129.361 283.765 129.648 283.622C130.417 283.229 130.856 282.415 130.784 281.557L130.659 280.001L132.082 280.046H132.1H132.217C132.789 280.046 133.362 279.777 133.747 279.321C134.114 278.892 134.302 278.329 134.266 277.774C134.231 277.202 133.971 276.666 133.568 276.308C133.523 276.272 128.94 272.168 124.572 266.66H124.545ZM109.713 282.853C109.561 282.978 109.382 283.041 109.194 283.041C108.953 283.041 108.711 282.934 108.541 282.737C108.389 282.558 108.317 282.317 108.353 282.084L108.738 279.026L105.945 278.999C105.596 278.999 105.283 278.767 105.166 278.436C105.05 278.096 105.148 277.73 105.426 277.497C105.623 277.327 109.919 273.706 114.028 268.135L117.608 272.892L118.101 273.563L118.298 273.831C114.028 279.268 109.91 282.701 109.713 282.862V282.853ZM132.789 278.49C132.637 278.669 132.414 278.785 132.19 278.785C132.172 278.785 132.154 278.785 132.136 278.785L129.281 278.695L129.531 281.673C129.558 282.022 129.379 282.343 129.075 282.504C128.958 282.567 128.824 282.594 128.699 282.594C128.502 282.594 128.305 282.522 128.153 282.379C127.347 281.655 123.319 277.962 119.157 272.883L118.593 272.141L114.816 267.027C111.629 262.18 109.678 257.683 109.024 253.632C108.129 248.106 109.839 243.323 113.598 240.819C115.138 239.791 116.892 239.299 118.638 239.299C118.781 239.299 118.924 239.299 119.058 239.308C120.607 239.379 122.12 239.835 123.453 240.712C125.199 241.865 129.12 245.478 127.768 253.936C127.204 257.468 125.557 261.885 123.713 265.542C122.693 264.174 120.643 261.206 119.336 258.899C120.016 257.111 120.795 254.535 121.063 252.819C121.547 249.778 121.046 247.355 119.757 246.497C119.551 246.363 119.309 246.282 119.067 246.229C118.951 246.202 118.826 246.175 118.7 246.166C118.682 246.166 118.665 246.166 118.647 246.166C118.172 246.166 117.734 246.318 117.322 246.595C115.89 247.552 115.299 249.752 115.738 252.488C116.114 254.83 117.116 257.45 118.709 260.303C118.709 260.303 121.189 264.46 123.051 266.767C127.66 272.722 132.682 277.202 132.727 277.247C132.897 277.399 132.986 277.622 132.995 277.846C133.013 278.069 132.924 278.311 132.781 278.481L132.789 278.49ZM118.584 257.316C117.761 255.51 117.215 253.829 116.964 252.282C116.606 250.091 117.009 248.312 118.002 247.65C118.226 247.498 118.432 247.427 118.656 247.427C118.682 247.427 118.718 247.436 118.745 247.445L118.817 247.463C118.969 247.498 119.041 247.525 119.085 247.552C119.766 248.008 120.303 249.778 119.846 252.604C119.631 253.936 119.103 255.787 118.584 257.307V257.316Z" fill="#443E3B"/>
<path d="M104.397 270.12V239.603C104.397 238.888 103.851 238.315 103.162 238.217C103.09 238.208 103.036 238.181 102.965 238.181H96.6453C95.8576 238.181 95.2221 238.825 95.2221 239.612V249.501H92.4651V239.612C92.4651 238.825 91.8206 238.181 91.0329 238.181H84.7045C83.9168 238.181 83.2812 238.825 83.2812 239.612V270.129C83.2812 270.916 83.9257 271.551 84.7134 271.551H91.0419C91.8296 271.551 92.4651 270.907 92.4651 270.12V258.863H95.2221V270.12C95.2221 270.907 95.8666 271.542 96.6543 271.542H102.974C103.045 271.542 103.108 271.515 103.171 271.497C103.86 271.399 104.397 270.827 104.397 270.111V270.12ZM103.162 270.12C103.162 270.228 103.072 270.317 102.965 270.317H96.6453C96.5379 270.317 96.4484 270.228 96.4484 270.12V257.629H91.2299V270.12C91.2299 270.228 91.1403 270.317 91.0329 270.317H84.7045C84.5971 270.317 84.5076 270.228 84.5076 270.12V239.603C84.5076 239.496 84.5881 239.406 84.7045 239.406H91.0329C91.1403 239.406 91.2299 239.496 91.2299 239.603V250.717H96.4484V239.603C96.4484 239.496 96.5379 239.406 96.6453 239.406H102.965C103.072 239.406 103.162 239.496 103.162 239.603V270.12Z" fill="#443E3B"/>
<path d="M141.732 245.701L141.052 245.629V252.47L141.741 252.389C142.708 252.282 143.46 252.014 143.979 251.593C144.632 251.066 144.945 250.234 144.945 249.072C144.945 247.829 144.632 246.944 144.006 246.452C143.504 246.05 142.744 245.799 141.732 245.692V245.701ZM143.2 250.655C142.985 250.824 142.672 250.967 142.287 251.057V247.033C142.708 247.123 143.039 247.257 143.236 247.427C143.549 247.677 143.71 248.249 143.71 249.09C143.71 249.859 143.54 250.377 143.2 250.655Z" fill="#443E3B"/>
<path d="M142.404 238.181H134.33C134.33 238.181 134.276 238.199 134.24 238.199C133.497 238.244 132.897 238.852 132.897 239.612V270.129C132.897 270.889 133.497 271.488 134.24 271.533C134.267 271.533 134.294 271.551 134.33 271.551H140.855C141.643 271.551 142.278 270.907 142.278 270.12V259.936C145.59 259.882 148.258 258.899 150.209 257.012C152.232 255.054 153.261 252.362 153.261 249C153.261 245.799 152.25 243.171 150.263 241.177C148.267 239.183 145.626 238.181 142.404 238.181ZM149.359 256.118C147.586 257.835 145.098 258.702 141.974 258.702H141.052V270.12C141.052 270.228 140.962 270.317 140.855 270.317H134.33C134.285 270.317 134.276 270.263 134.24 270.236C134.195 270.201 134.133 270.183 134.133 270.129V239.612C134.133 239.54 134.177 239.487 134.24 239.451C134.267 239.433 134.294 239.415 134.33 239.415H142.404C145.286 239.415 147.64 240.3 149.394 242.053C151.149 243.805 152.035 246.148 152.035 249C152.035 252.014 151.14 254.41 149.359 256.127V256.118Z" fill="#443E3B"/>
<path d="M170.85 262.172H165.13V259.471H169.866C170.653 259.471 171.289 258.828 171.289 258.041V251.71C171.289 250.923 170.644 250.279 169.866 250.279H165.13V247.508H170.805C171.593 247.508 172.229 246.864 172.229 246.077V239.585C172.229 238.799 171.584 238.155 170.797 238.155H156.761C155.973 238.155 155.338 238.799 155.338 239.585V270.103C155.338 270.89 155.982 271.525 156.77 271.525H170.85C171.638 271.525 172.282 270.881 172.282 270.094V263.576C172.282 262.789 171.638 262.154 170.85 262.154V262.172ZM171.047 270.112C171.047 270.219 170.958 270.309 170.85 270.309H156.77C156.663 270.309 156.573 270.219 156.573 270.112V239.594C156.573 239.487 156.654 239.398 156.77 239.398H170.805C170.913 239.398 171.002 239.487 171.002 239.594V246.086C171.002 246.193 170.913 246.283 170.805 246.283H163.904V251.513H169.866C169.973 251.513 170.063 251.603 170.063 251.71V258.041C170.063 258.148 169.973 258.237 169.866 258.237H163.904V263.397H170.85C170.958 263.397 171.047 263.486 171.047 263.593V270.112Z" fill="#443E3B"/>
</svg>
