<svg width="12" height="12" viewBox="0 0 12 12" fill="none" xmlns="http://www.w3.org/2000/svg">
<path d="M11.977 10.6563L11.9828 1.3244C11.9791 1.15069 11.9412 0.979464 11.8711 0.820542C11.7375 0.500093 11.4828 0.245418 11.1624 0.111756C11.0034 0.0417194 10.8322 0.0037704 10.6585 8.57443e-05L1.3266 0.00586818C1.15258 0.00597606 0.980245 0.0403578 0.819432 0.107052C0.658618 0.173745 0.512476 0.271444 0.38935 0.39457C0.140685 0.643234 0.000864226 0.980373 0.000647056 1.33182C0.000428875 1.68327 0.139832 2.02023 0.388188 2.26859C0.636544 2.51694 0.97351 2.65635 1.32496 2.65613L7.47469 2.64299L0.387381 9.73029C0.13973 9.97794 0.000478934 10.3137 0.00026189 10.6637C4.48363e-05 11.0137 0.13888 11.3493 0.386224 11.5967C0.633568 11.844 0.96916 11.9829 1.31917 11.9826C1.66919 11.9824 2.00495 11.8432 2.25261 11.5955L9.33991 4.50821L9.32677 10.6579C9.32595 10.8322 9.35963 11.0048 9.42587 11.1658C9.49211 11.3269 9.5896 11.4732 9.71271 11.5963C9.83583 11.7194 9.98214 11.8169 10.1432 11.8832C10.3042 11.9494 10.4769 11.9831 10.6511 11.9823C10.8253 11.9829 10.998 11.949 11.1591 11.8825C11.3202 11.8161 11.4666 11.7184 11.5899 11.5951C11.7132 11.4719 11.8109 11.3254 11.8773 11.1643C11.9437 11.0032 11.9776 10.8305 11.977 10.6563Z" fill="#7071AC"/>
</svg>
