<svg width="500" height="202" viewBox="0 0 500 202" fill="none" xmlns="http://www.w3.org/2000/svg">
<g clip-path="url(#clip0_682_36398)">
<path d="M435.714 31.2256H276.543" stroke="white" stroke-width="7.56144" stroke-miterlimit="10"/>
<path d="M223.237 31.2256H64.0664" stroke="white" stroke-width="7.56144" stroke-miterlimit="10"/>
<path d="M407.603 7.26709L435.721 31.2327L407.603 55.191" stroke="white" stroke-width="7.56144" stroke-linecap="round" stroke-linejoin="round"/>
<path opacity="0.6" d="M438.398 7.26709L466.517 31.2327L438.398 55.191" stroke="white" stroke-width="7.56144" stroke-linecap="round" stroke-linejoin="round"/>
<path opacity="0.2" d="M468.464 7.26709L496.582 31.2327L468.464 55.191" stroke="white" stroke-width="7.56144" stroke-linecap="round" stroke-linejoin="round"/>
<path d="M91.3984 55.191L63.2871 31.2327L91.3984 7.26709" stroke="white" stroke-width="7.56144" stroke-linecap="round" stroke-linejoin="round"/>
<path opacity="0.6" d="M60.602 55.191L32.4834 31.2327L60.602 7.26709" stroke="white" stroke-width="7.56144" stroke-linecap="round" stroke-linejoin="round"/>
<path opacity="0.2" d="M30.5365 55.191L2.41797 31.2327L30.5365 7.26709" stroke="white" stroke-width="7.56144" stroke-linecap="round" stroke-linejoin="round"/>
<path d="M243.113 57.0151C225.44 52.4044 217.657 30.073 228.46 15.3872C239.678 0.139679 264.215 1.8833 273.296 18.4659C279.139 29.1246 276.688 42.9422 267.687 51.0693" stroke="white" stroke-width="7.56144" stroke-miterlimit="10"/>
<path d="M359.811 120.405C358.834 115.495 357.39 110.651 356.281 105.763L354.26 96.7314C353.115 91.5735 352.7 88.1081 348.491 84.475C341.81 78.7043 332.539 79.784 326.477 85.7736C320.905 77.9893 309.387 75.2973 302.684 82.8627C295.047 74.6334 287.141 71.1972 277.68 79.2879L271.189 50.4051C270.299 46.4291 268.862 38.1925 267.272 34.7856C263.894 27.563 255.492 24.3603 248.001 26.8116C235.222 31.5026 237.461 42.3582 239.7 52.3093L256.061 125.096C248.03 117.669 237.629 110.556 226.199 111.023C214.74 111.497 207.796 125.548 215.994 132.88C218.081 134.755 220.721 135.047 223.223 136.047C241.203 143.203 246.527 169.657 259.657 182.759C266.71 189.8 278.745 193.987 284.055 199.721L284.128 199.802C284.952 200.699 286.316 200.714 287.155 199.838C288.986 197.934 288.847 194.877 286.834 193.163C285.273 191.828 283.282 190.463 280.715 188.91C266.17 180.133 262.676 178.295 254.376 163.127C248.096 151.652 240.867 137.849 229.029 131.21C226.498 129.787 224.368 129.349 221.822 128.299C216.775 126.212 220.313 119.552 224.244 118.209C226.833 117.319 230.604 118.311 233.135 118.99C243.055 121.66 253.034 130.145 258.548 138.855C260.007 141.153 260.547 146.26 264.558 144.765C267.418 143.7 266.732 140.935 266.185 138.644C264.456 131.436 262.917 124.17 261.298 116.94L247.096 53.7611C245.419 46.3051 241.13 36.4562 251.072 32.8814C262.881 31.3786 262.822 44.4739 264.748 53.0461L275.995 103.181C276.484 105.406 276.674 109.725 278.723 111.162C280.977 112.745 284.179 111.322 284.106 108.535C284.063 106.785 283.45 104.902 283.063 103.188L281.021 94.2728C277.987 80.9294 292.516 78.2446 296.236 86.5979C297.724 89.9393 300.117 102.932 300.868 106.843C301.641 110.914 307.462 111.454 307.834 106.909C308.126 103.334 305.354 97.9789 305.376 93.66C305.427 84.8033 316.623 82.5344 320.861 89.9466C321.693 91.3984 321.933 93.0325 322.298 94.6376L323.997 102.218C324.45 104.304 324.676 108.032 326.704 109.309C328.578 110.483 331.467 109.367 331.926 107.178C332.546 104.253 329.818 98.6938 329.928 95.2504C330.132 88.7793 337.973 85.8757 343.042 89.0346C346.361 91.1065 346.864 95.1263 347.638 98.6136L352.714 121.23C355.843 135.164 356.967 147.355 355.77 161.778C355.376 166.527 354.545 168.643 352.058 172.692C350.511 175.209 349.461 177.426 348.783 179.491C348.192 181.3 349.191 183.27 351.015 183.825C351.037 183.825 351.058 183.839 351.08 183.846C352.787 184.379 354.632 183.577 355.311 181.928C356.128 179.951 357.601 177.405 359.877 172.845C365.683 161.172 362.255 132.632 359.804 120.398L359.811 120.405Z" fill="white"/>
</g>
<defs>
<clipPath id="clip0_682_36398">
<rect width="500" height="202" fill="white"/>
</clipPath>
</defs>
</svg>
