<svg width="51" height="50" viewBox="0 0 51 50" fill="none" xmlns="http://www.w3.org/2000/svg">
<mask id="mask0_705_45389" style="mask-type:alpha" maskUnits="userSpaceOnUse" x="-1" y="-1" width="51" height="51">
<rect x="-0.0478516" y="-0.0209961" width="50" height="50" fill="#D9D9D9"/>
</mask>
<g mask="url(#mask0_705_45389)">
<path d="M41.7475 23.5404C41.7475 16.0769 34.2497 9.99609 25.0319 9.99609C15.8142 9.99609 8.31641 16.0769 8.31641 23.5404C8.31641 30.2376 14.2612 35.8352 22.2933 36.9014C22.8444 37.018 23.5791 37.2679 23.7628 37.7178C23.9298 38.1342 23.8797 38.8006 23.8129 39.2338C23.8129 39.2338 23.6125 40.4166 23.5791 40.6665C23.5124 41.083 23.2452 42.3158 25.0319 41.5661C26.8187 40.8164 34.6672 35.9018 38.1739 31.8869C40.5953 29.238 41.7642 26.5391 41.7642 23.5571L41.7475 23.5404Z" fill="white"/>
<path d="M41.7475 23.5404C41.7475 16.0769 34.2497 9.99609 25.0319 9.99609C15.8142 9.99609 8.31641 16.0769 8.31641 23.5404C8.31641 30.2376 14.2612 35.8352 22.2933 36.9014C22.8444 37.018 23.5791 37.2679 23.7628 37.7178C23.9298 38.1342 23.8797 38.8006 23.8129 39.2338C23.8129 39.2338 23.6125 40.4166 23.5791 40.6665C23.5124 41.083 23.2452 42.3158 25.0319 41.5661C26.8187 40.8164 34.6672 35.9018 38.1739 31.8869C40.5953 29.238 41.7642 26.5391 41.7642 23.5571L41.7475 23.5404Z" fill="#5D64A3"/>
<path d="M36.1864 27.8555C36.3701 27.8555 36.5037 27.7055 36.5037 27.5389V26.3561C36.5037 26.1728 36.3534 26.0396 36.1864 26.0396H32.9969V24.8068H36.1864C36.3701 24.8068 36.5037 24.6568 36.5037 24.4902V23.3074C36.5037 23.1241 36.3534 22.9909 36.1864 22.9909H32.9969V21.758H36.1864C36.3701 21.758 36.5037 21.6081 36.5037 21.4415V20.2587C36.5037 20.0754 36.3534 19.9421 36.1864 19.9421H31.494C31.3103 19.9421 31.1768 20.0921 31.1768 20.2587V27.5389C31.1768 27.7222 31.327 27.8555 31.494 27.8555H36.1864Z" fill="#3E3A39"/>
<path d="M36.1864 27.8555C36.3701 27.8555 36.5037 27.7055 36.5037 27.5389V26.3561C36.5037 26.1728 36.3534 26.0396 36.1864 26.0396H32.9969V24.8068H36.1864C36.3701 24.8068 36.5037 24.6568 36.5037 24.4902V23.3074C36.5037 23.1241 36.3534 22.9909 36.1864 22.9909H32.9969V21.758H36.1864C36.3701 21.758 36.5037 21.6081 36.5037 21.4415V20.2587C36.5037 20.0754 36.3534 19.9421 36.1864 19.9421H31.494C31.3103 19.9421 31.1768 20.0921 31.1768 20.2587V27.5389C31.1768 27.7222 31.327 27.8555 31.494 27.8555H36.1864Z" fill="white"/>
<path d="M18.8192 27.8555C19.0029 27.8555 19.1365 27.7055 19.1365 27.5389V26.3561C19.1365 26.1728 18.9862 26.0396 18.8192 26.0396H15.6297V20.2587C15.6297 20.0754 15.4795 19.9421 15.3125 19.9421H14.1268C13.9432 19.9421 13.8096 20.0921 13.8096 20.2587V27.5389C13.8096 27.7222 13.9599 27.8555 14.1268 27.8555H18.8192Z" fill="#3E3A39"/>
<path d="M18.8192 27.8555C19.0029 27.8555 19.1365 27.7055 19.1365 27.5389V26.3561C19.1365 26.1728 18.9862 26.0396 18.8192 26.0396H15.6297V20.2587C15.6297 20.0754 15.4795 19.9421 15.3125 19.9421H14.1268C13.9432 19.9421 13.8096 20.0921 13.8096 20.2587V27.5389C13.8096 27.7222 13.9599 27.8555 14.1268 27.8555H18.8192Z" fill="white"/>
<path d="M21.6416 19.9253H20.4559C20.2807 19.9253 20.1387 20.067 20.1387 20.2418V27.5221C20.1387 27.6969 20.2807 27.8386 20.4559 27.8386H21.6416C21.8168 27.8386 21.9588 27.6969 21.9588 27.5221V20.2418C21.9588 20.067 21.8168 19.9253 21.6416 19.9253Z" fill="#3E3A39"/>
<path d="M21.6416 19.9253H20.4559C20.2807 19.9253 20.1387 20.067 20.1387 20.2418V27.5221C20.1387 27.6969 20.2807 27.8386 20.4559 27.8386H21.6416C21.8168 27.8386 21.9588 27.6969 21.9588 27.5221V20.2418C21.9588 20.067 21.8168 19.9253 21.6416 19.9253Z" fill="white"/>
<path d="M29.707 19.9253H28.5214C28.3377 19.9253 28.2041 20.0752 28.2041 20.2418V24.5733L24.8643 20.0752C24.8643 20.0752 24.8643 20.0586 24.8309 20.0419C24.8309 20.0419 24.8309 20.0419 24.8142 20.0252C24.8142 20.0252 24.8142 20.0252 24.7975 20.0252C24.7975 20.0252 24.7975 20.0252 24.7808 20.0252C24.7808 20.0252 24.7808 20.0252 24.7641 20.0252C24.7641 20.0252 24.7641 20.0252 24.7474 20.0252C24.7474 20.0252 24.7474 20.0252 24.7307 20.0252C24.7307 20.0252 24.7307 20.0252 24.714 20.0252C24.714 20.0252 24.714 20.0252 24.6973 20.0252C24.6973 20.0252 24.6973 20.0252 24.6806 20.0252H23.495C23.3113 20.0252 23.1777 20.1752 23.1777 20.3418V27.622C23.1777 27.8053 23.328 27.9386 23.495 27.9386H24.6806C24.8643 27.9386 24.9979 27.7886 24.9979 27.622V23.3072L28.3377 27.8053C28.3377 27.8053 28.3878 27.8719 28.4212 27.8886C28.4212 27.8886 28.4212 27.8886 28.4379 27.8886C28.4379 27.8886 28.4379 27.8886 28.4546 27.8886C28.488 27.8886 28.5047 27.8886 28.5381 27.8886H29.7237C29.9074 27.8886 30.041 27.7387 30.041 27.5721V20.2918C30.041 20.1085 29.8907 19.9753 29.7237 19.9753L29.707 19.9253Z" fill="#3E3A39"/>
<path d="M29.707 19.9253H28.5214C28.3377 19.9253 28.2041 20.0752 28.2041 20.2418V24.5733L24.8643 20.0752C24.8643 20.0752 24.8643 20.0586 24.8309 20.0419C24.8309 20.0419 24.8309 20.0419 24.8142 20.0252C24.8142 20.0252 24.8142 20.0252 24.7975 20.0252C24.7975 20.0252 24.7975 20.0252 24.7808 20.0252C24.7808 20.0252 24.7808 20.0252 24.7641 20.0252C24.7641 20.0252 24.7641 20.0252 24.7474 20.0252C24.7474 20.0252 24.7474 20.0252 24.7307 20.0252C24.7307 20.0252 24.7307 20.0252 24.714 20.0252C24.714 20.0252 24.714 20.0252 24.6973 20.0252C24.6973 20.0252 24.6973 20.0252 24.6806 20.0252H23.495C23.3113 20.0252 23.1777 20.1752 23.1777 20.3418V27.622C23.1777 27.8053 23.328 27.9386 23.495 27.9386H24.6806C24.8643 27.9386 24.9979 27.7886 24.9979 27.622V23.3072L28.3377 27.8053C28.3377 27.8053 28.3878 27.8719 28.4212 27.8886C28.4212 27.8886 28.4212 27.8886 28.4379 27.8886C28.4379 27.8886 28.4379 27.8886 28.4546 27.8886C28.488 27.8886 28.5047 27.8886 28.5381 27.8886H29.7237C29.9074 27.8886 30.041 27.7387 30.041 27.5721V20.2918C30.041 20.1085 29.8907 19.9753 29.7237 19.9753L29.707 19.9253Z" fill="white"/>
</g>
</svg>
