<svg width="51" height="50" viewBox="0 0 51 50" fill="none" xmlns="http://www.w3.org/2000/svg">
<mask id="mask0_705_45392" style="mask-type:alpha" maskUnits="userSpaceOnUse" x="0" y="-1" width="51" height="51">
<rect x="0.144531" y="-0.0209961" width="50" height="50" fill="#D9D9D9"/>
</mask>
<g mask="url(#mask0_705_45392)">
<path d="M36.5669 20.3694C35.9901 20.3694 35.5122 20.8462 35.5122 21.4216V23.6083C35.5122 29.3627 30.8155 34.0649 25.031 34.0649C19.2466 34.0649 14.5498 29.3791 14.5498 23.6083V21.4216C14.5498 20.8462 14.0719 20.3694 13.4951 20.3694C12.9183 20.3694 12.4404 20.8462 12.4404 21.4216V23.6083C12.4404 30.1683 17.5162 35.561 23.9598 36.1036V39.7042H21.4384C20.8616 39.7042 20.3837 40.181 20.3837 40.7564C20.3837 41.3319 20.8616 41.8086 21.4384 41.8086H28.5742C29.151 41.8086 29.6289 41.3319 29.6289 40.7564C29.6289 40.181 29.151 39.7042 28.5742 39.7042H26.0528V36.1036C32.4964 35.561 37.5722 30.1683 37.5722 23.6083V21.4216C37.5722 20.8462 37.0943 20.3694 36.5175 20.3694H36.5669Z" fill="white"/>
<path d="M36.5669 20.3694C35.9901 20.3694 35.5122 20.8462 35.5122 21.4216V23.6083C35.5122 29.3627 30.8155 34.0649 25.031 34.0649C19.2466 34.0649 14.5498 29.3791 14.5498 23.6083V21.4216C14.5498 20.8462 14.0719 20.3694 13.4951 20.3694C12.9183 20.3694 12.4404 20.8462 12.4404 21.4216V23.6083C12.4404 30.1683 17.5162 35.561 23.9598 36.1036V39.7042H21.4384C20.8616 39.7042 20.3837 40.181 20.3837 40.7564C20.3837 41.3319 20.8616 41.8086 21.4384 41.8086H28.5742C29.151 41.8086 29.6289 41.3319 29.6289 40.7564C29.6289 40.181 29.151 39.7042 28.5742 39.7042H26.0528V36.1036C32.4964 35.561 37.5722 30.1683 37.5722 23.6083V21.4216C37.5722 20.8462 37.0943 20.3694 36.5175 20.3694H36.5669Z" fill="#5D64A3"/>
<path d="M28.4756 25.3015C27.8988 25.3015 27.4209 24.8247 27.4209 24.2493C27.4209 23.6739 27.8988 23.1971 28.4756 23.1971H32.4967V20.6487H28.4756C27.8988 20.6487 27.4209 20.1719 27.4209 19.5965C27.4209 19.021 27.8988 18.5442 28.4756 18.5442H32.4967V15.9794H28.4756C27.8988 15.9794 27.4209 15.5026 27.4209 14.9272C27.4209 14.3517 27.8988 13.8749 28.4756 13.8749H32.2989C31.5243 10.5867 28.5745 8.13696 25.0642 8.13696C21.554 8.13696 18.5877 10.5867 17.8296 13.8749H21.6529C22.2297 13.8749 22.7076 14.3517 22.7076 14.9272C22.7076 15.5026 22.2297 15.9794 21.6529 15.9794H17.6318V18.5442H21.6529C22.2297 18.5442 22.7076 19.021 22.7076 19.5965C22.7076 20.1719 22.2297 20.6487 21.6529 20.6487H17.6318V23.1971H21.6529C22.2297 23.1971 22.7076 23.6739 22.7076 24.2493C22.7076 24.8247 22.2297 25.3015 21.6529 25.3015H17.8296C18.6041 28.5898 21.554 31.0395 25.0642 31.0395C28.5745 31.0395 31.5408 28.5898 32.2989 25.3015H28.4756Z" fill="white"/>
<path d="M28.4756 25.3015C27.8988 25.3015 27.4209 24.8247 27.4209 24.2493C27.4209 23.6739 27.8988 23.1971 28.4756 23.1971H32.4967V20.6487H28.4756C27.8988 20.6487 27.4209 20.1719 27.4209 19.5965C27.4209 19.021 27.8988 18.5442 28.4756 18.5442H32.4967V15.9794H28.4756C27.8988 15.9794 27.4209 15.5026 27.4209 14.9272C27.4209 14.3517 27.8988 13.8749 28.4756 13.8749H32.2989C31.5243 10.5867 28.5745 8.13696 25.0642 8.13696C21.554 8.13696 18.5877 10.5867 17.8296 13.8749H21.6529C22.2297 13.8749 22.7076 14.3517 22.7076 14.9272C22.7076 15.5026 22.2297 15.9794 21.6529 15.9794H17.6318V18.5442H21.6529C22.2297 18.5442 22.7076 19.021 22.7076 19.5965C22.7076 20.1719 22.2297 20.6487 21.6529 20.6487H17.6318V23.1971H21.6529C22.2297 23.1971 22.7076 23.6739 22.7076 24.2493C22.7076 24.8247 22.2297 25.3015 21.6529 25.3015H17.8296C18.6041 28.5898 21.554 31.0395 25.0642 31.0395C28.5745 31.0395 31.5408 28.5898 32.2989 25.3015H28.4756Z" fill="#5D64A3"/>
</g>
</svg>
