<svg width="51" height="50" viewBox="0 0 51 50" fill="none" xmlns="http://www.w3.org/2000/svg">
<mask id="mask0_705_45390" style="mask-type:alpha" maskUnits="userSpaceOnUse" x="-1" y="-1" width="51" height="51">
<rect x="-0.144531" y="-0.0209961" width="50" height="50" fill="#D9D9D9"/>
</mask>
<g mask="url(#mask0_705_45390)">
<path d="M36.254 18.5094C36.254 18.5094 36.1371 19.2591 36.3542 19.409C36.5045 19.509 37.807 19.4423 38.2412 19.5256C40.5289 19.9921 40.2617 22.0412 40.2951 23.8571C41.4473 24.0404 42.8333 24.3402 43.0671 25.7063C43.184 26.406 43.2007 29.1715 43.0838 29.8713C42.8333 31.4706 40.6625 31.6205 39.3767 31.4872C39.1262 31.4039 38.5918 29.8546 38.4582 29.5214H40.3953C40.3953 29.5214 40.6291 29.4048 40.6625 29.3382C40.8128 29.1049 40.8128 27.0391 40.7126 26.7892C40.6959 26.7393 40.3285 26.3727 40.2951 26.3727H36.254V31.5039H33.9496V26.3727H31.6952L31.5449 26.2228V23.9737H33.9663V21.7747H32.3966V19.4756H33.9663C33.9663 19.4756 33.9162 18.526 33.9663 18.526C34.2835 18.526 36.2039 18.4427 36.2707 18.526L36.254 18.5094ZM38.0408 23.9571V22.0246C38.0408 21.6914 36.254 21.6414 36.254 21.9246V23.9737H38.0408V23.9571Z" fill="white"/>
<path d="M36.254 18.5094C36.254 18.5094 36.1371 19.2591 36.3542 19.409C36.5045 19.509 37.807 19.4423 38.2412 19.5256C40.5289 19.9921 40.2617 22.0412 40.2951 23.8571C41.4473 24.0404 42.8333 24.3402 43.0671 25.7063C43.184 26.406 43.2007 29.1715 43.0838 29.8713C42.8333 31.4706 40.6625 31.6205 39.3767 31.4872C39.1262 31.4039 38.5918 29.8546 38.4582 29.5214H40.3953C40.3953 29.5214 40.6291 29.4048 40.6625 29.3382C40.8128 29.1049 40.8128 27.0391 40.7126 26.7892C40.6959 26.7393 40.3285 26.3727 40.2951 26.3727H36.254V31.5039H33.9496V26.3727H31.6952L31.5449 26.2228V23.9737H33.9663V21.7747H32.3966V19.4756H33.9663C33.9663 19.4756 33.9162 18.526 33.9663 18.526C34.2835 18.526 36.2039 18.4427 36.2707 18.526L36.254 18.5094ZM38.0408 23.9571V22.0246C38.0408 21.6914 36.254 21.6414 36.254 21.9246V23.9737H38.0408V23.9571Z" fill="#5D64A3"/>
<path d="M30.7926 19.4424V21.7581H29.3231V29.0883H31.6276V31.3873H23.6455L24.6975 29.0883H26.9018V21.7581H25.4323V19.4424H30.7926Z" fill="white"/>
<path d="M30.7926 19.4424V21.7581H29.3231V29.0883H31.6276V31.3873H23.6455L24.6975 29.0883H26.9018V21.7581H25.4323V19.4424H30.7926Z" fill="#5D64A3"/>
<path d="M13.8772 18.6091V29.7711C13.8772 29.871 13.6267 30.4541 13.5432 30.5874C12.9086 31.6037 11.8232 31.3704 10.7879 31.3871L9.98633 29.5045C10.337 29.4879 11.556 29.6545 11.556 29.138V18.7091L13.8605 18.6091H13.8772Z" fill="white"/>
<path d="M13.8772 18.6091V29.7711C13.8772 29.871 13.6267 30.4541 13.5432 30.5874C12.9086 31.6037 11.8232 31.3704 10.7879 31.3871L9.98633 29.5045C10.337 29.4879 11.556 29.6545 11.556 29.138V18.7091L13.8605 18.6091H13.8772Z" fill="#5D64A3"/>
<path d="M23.6458 18.509C23.7627 18.609 22.4769 21.0246 22.3767 21.3911C22.3266 21.5744 22.3266 21.6744 22.3767 21.8576H24.5809C23.9798 23.257 23.1448 24.6731 22.7942 26.1558H24.2637C24.1468 26.489 23.5623 28.055 23.3452 28.1216C22.694 28.0883 20.2058 28.4048 19.9721 27.6552C19.7049 26.7889 21.3581 24.19 21.2078 24.0567C20.4396 24.0567 19.2373 24.2733 19.2373 23.1904C19.8886 21.6077 20.5565 20.0084 21.3748 18.509H23.6291H23.6458Z" fill="white"/>
<path d="M23.6458 18.509C23.7627 18.609 22.4769 21.0246 22.3767 21.3911C22.3266 21.5744 22.3266 21.6744 22.3767 21.8576H24.5809C23.9798 23.257 23.1448 24.6731 22.7942 26.1558H24.2637C24.1468 26.489 23.5623 28.055 23.3452 28.1216C22.694 28.0883 20.2058 28.4048 19.9721 27.6552C19.7049 26.7889 21.3581 24.19 21.2078 24.0567C20.4396 24.0567 19.2373 24.2733 19.2373 23.1904C19.8886 21.6077 20.5565 20.0084 21.3748 18.509H23.6291H23.6458Z" fill="#5D64A3"/>
<path d="M9.88626 21.8582C9.402 24.6237 9.96976 27.8889 8.14958 30.238C7.99929 30.238 6.94727 27.8057 6.94727 27.6724C6.94727 27.4225 7.13095 27.1393 7.14765 26.8394C7.33134 25.1901 7.34804 23.5075 7.46493 21.8582H9.88626Z" fill="white"/>
<path d="M9.88626 21.8582C9.402 24.6237 9.96976 27.8889 8.14958 30.238C7.99929 30.238 6.94727 27.8057 6.94727 27.6724C6.94727 27.4225 7.13095 27.1393 7.14765 26.8394C7.33134 25.1901 7.34804 23.5075 7.46493 21.8582H9.88626Z" fill="#5D64A3"/>
<path d="M17.868 21.858L18.1853 26.3061C18.1352 26.6226 18.4859 27.4723 18.4692 27.6555C18.4358 28.1053 17.4004 29.6547 17.2836 30.2378C17.0498 30.2378 16.5655 29.1882 16.482 28.9383C15.597 26.7559 15.8475 24.157 15.5469 21.8413H17.8513L17.868 21.858Z" fill="white"/>
<path d="M17.868 21.858L18.1853 26.3061C18.1352 26.6226 18.4859 27.4723 18.4692 27.6555C18.4358 28.1053 17.4004 29.6547 17.2836 30.2378C17.0498 30.2378 16.5655 29.1882 16.482 28.9383C15.597 26.7559 15.8475 24.157 15.5469 21.8413H17.8513L17.868 21.858Z" fill="#5D64A3"/>
<path d="M23.3283 29.0884C22.9943 29.9048 22.6604 30.7544 22.2095 31.4874C21.6918 31.4541 18.686 31.6707 18.6025 31.2375C18.8196 30.9043 19.4709 29.0718 19.7214 29.0051C20.9404 29.305 22.0926 29.0884 23.3283 29.1051V29.0884Z" fill="white"/>
<path d="M23.3283 29.0884C22.9943 29.9048 22.6604 30.7544 22.2095 31.4874C21.6918 31.4541 18.686 31.6707 18.6025 31.2375C18.8196 30.9043 19.4709 29.0718 19.7214 29.0051C20.9404 29.305 22.0926 29.0884 23.3283 29.1051V29.0884Z" fill="#5D64A3"/>
<path d="M40.779 21.7577C40.729 20.7915 40.6789 19.4254 41.9814 19.442C42.8664 19.442 43.334 20.2917 43 21.108C42.9332 21.2579 42.4155 21.7577 42.2986 21.7577H40.779Z" fill="white"/>
<path d="M40.779 21.7577C40.729 20.7915 40.6789 19.4254 41.9814 19.442C42.8664 19.442 43.334 20.2917 43 21.108C42.9332 21.2579 42.4155 21.7577 42.2986 21.7577H40.779Z" fill="#5D64A3"/>
</g>
</svg>
