<svg width="51" height="50" viewBox="0 0 51 50" fill="none" xmlns="http://www.w3.org/2000/svg">
<mask id="mask0_705_45391" style="mask-type:alpha" maskUnits="userSpaceOnUse" x="0" y="-1" width="51" height="51">
<rect x="0.0478516" y="-0.0209961" width="50" height="50" fill="#D9D9D9"/>
</mask>
<g mask="url(#mask0_705_45391)">
<path d="M11.9735 35.9687C10.5374 35.5855 9.40183 34.436 9.00106 33.0199C8.31641 30.4043 8.31641 24.9733 8.31641 24.9733C8.31641 24.9733 8.31641 19.5422 9.00106 16.96C9.41853 15.5273 10.5374 14.3944 11.9735 14.0112C14.5618 13.3115 25.0153 13.3115 25.0153 13.3115C25.0153 13.3115 35.5021 13.3115 38.0904 14.0112C39.5599 14.3944 40.6621 15.5273 41.0461 16.96C41.7475 19.5422 41.7475 24.9733 41.7475 24.9733C41.7475 24.9733 41.7475 30.4043 41.0461 33.0199C40.6621 34.436 39.5599 35.5855 38.0904 35.9687C35.5021 36.6684 25.0153 36.6684 25.0153 36.6684C25.0153 36.6684 14.5618 36.6684 11.9735 35.9687ZM21.6922 29.9878L30.3589 24.9733L21.6922 19.9754V29.9878Z" fill="white"/>
<path d="M11.9735 35.9687C10.5374 35.5855 9.40183 34.436 9.00106 33.0199C8.31641 30.4043 8.31641 24.9733 8.31641 24.9733C8.31641 24.9733 8.31641 19.5422 9.00106 16.96C9.41853 15.5273 10.5374 14.3944 11.9735 14.0112C14.5618 13.3115 25.0153 13.3115 25.0153 13.3115C25.0153 13.3115 35.5021 13.3115 38.0904 14.0112C39.5599 14.3944 40.6621 15.5273 41.0461 16.96C41.7475 19.5422 41.7475 24.9733 41.7475 24.9733C41.7475 24.9733 41.7475 30.4043 41.0461 33.0199C40.6621 34.436 39.5599 35.5855 38.0904 35.9687C35.5021 36.6684 25.0153 36.6684 25.0153 36.6684C25.0153 36.6684 14.5618 36.6684 11.9735 35.9687ZM21.6922 29.9878L30.3589 24.9733L21.6922 19.9754V29.9878Z" fill="#5D64A3"/>
<path d="M21.6924 29.9875L30.3758 24.973L21.6924 19.9751V29.9875Z" fill="#3E3A39"/>
<path d="M21.6924 29.9875L30.3758 24.973L21.6924 19.9751V29.9875Z" fill="white"/>
</g>
</svg>
