<svg width="22" height="18" viewBox="0 0 22 18" fill="none" xmlns="http://www.w3.org/2000/svg">
<path d="M22 10.2363C22 12.4144 20.9246 14.3864 18.972 15.7886C18.2351 16.3181 17.3976 16.7558 16.4758 17.0989C16.4658 17.0995 16.4552 17.1017 16.4457 17.1066C16.4429 17.1082 16.4412 17.111 16.4384 17.1126C15.3099 17.5284 14.0551 17.8011 12.7003 17.924C12.6998 17.9235 12.6992 17.923 12.6981 17.9224C12.6735 17.9115 12.6467 17.9159 12.6266 17.9306C12.0986 17.9765 11.5562 18 11.0003 18C10.3958 18 9.80751 17.9727 9.23655 17.9186C9.23208 17.9175 9.22761 17.9175 9.22314 17.9175C7.8421 17.7858 6.56665 17.4973 5.42416 17.0607C5.35488 17.0345 5.28617 17.0077 5.21857 16.9804C5.20795 16.9716 5.19566 16.9672 5.18225 16.9656C4.39453 16.6449 3.67272 16.252 3.02801 15.7886C2.85761 15.6662 2.69392 15.5394 2.53694 15.4088C2.51626 15.3908 2.49448 15.3733 2.47381 15.3553C2.45872 15.3427 2.4442 15.3296 2.42967 15.317C0.973209 14.0597 0.13073 12.4406 0.0145255 10.6631C0.0139668 10.6587 0.0134081 10.6543 0.0134081 10.6494C0.00949743 10.5915 0.00726276 10.533 0.00502807 10.474L0.00335204 10.4429C0.00111734 10.374 0 10.3052 0 10.2363C0 8.69427 0.349171 7.32109 1.0369 6.155C1.03913 6.15063 1.04137 6.14572 1.04304 6.14134C1.06539 6.07249 1.58496 4.45178 1.70395 3.07477C1.82295 1.70268 2.34755 0.786315 2.92521 0.344798C3.08779 0.220212 3.25483 0.133329 3.41852 0.0846969C3.45819 0.0732218 3.49785 0.0628396 3.53808 0.0535503C3.6878 0.0185787 3.83809 0 3.9906 0C4.66995 0 5.37891 0.354634 6.17781 1.08576C7.03705 1.87262 7.52701 2.08409 8.27731 1.9901C9.1399 1.86388 10.0561 1.7994 11.0003 1.7994C11.9444 1.7994 12.8601 1.86388 13.7244 1.99065C14.0216 2.02726 14.2786 2.01524 14.5333 1.93929C14.6009 1.91907 14.6685 1.89557 14.7367 1.86606C14.8004 1.8382 14.8652 1.80486 14.9305 1.7688C15.1959 1.62072 15.4792 1.39996 15.8222 1.08576C16.4663 0.49616 17.0518 0.151908 17.6111 0.0404359C17.7021 0.0224037 17.7926 0.0114751 17.8826 0.00546431C17.9647 0.000546426 18.0468 7.91624e-09 18.1278 0.00491789C18.2804 0.0142072 18.4312 0.0398895 18.582 0.0846969C19.3251 0.306548 20.1435 1.3169 20.296 3.07477C20.4156 4.45724 20.9352 6.07304 20.957 6.14134C20.9586 6.14572 20.9609 6.15063 20.9631 6.155C21.6514 7.32109 22 8.69427 22 10.2363Z" fill="#A99BCC"/>
</svg>
