<svg width="22" height="22" viewBox="0 0 22 22" fill="none" xmlns="http://www.w3.org/2000/svg">
<path d="M0 17.782V4.21804C0 1.87469 1.90226 0 4.21804 0H8.68421C9.59398 0 10.3383 0.744361 10.3383 1.65413C10.3383 2.56391 9.59398 3.30827 8.68421 3.30827H4.21804C3.7218 3.30827 3.30827 3.7218 3.30827 4.21804V17.782C3.30827 18.2782 3.7218 18.6917 4.21804 18.6917H17.782C18.2782 18.6917 18.6917 18.2782 18.6917 17.782V13.3158C18.6917 12.406 19.4361 11.6617 20.3459 11.6617C21.2556 11.6617 22 12.406 22 13.3158V17.782C22 20.1253 20.0977 22 17.782 22H4.21804C1.87469 22 0 20.1253 0 17.782ZM14.6115 2.76064e-07C13.7018 2.76064e-07 12.9574 0.744361 12.9574 1.65414C12.9574 2.56391 13.7018 3.30827 14.6115 3.30827H16.3484L10.0627 9.59398C9.42857 10.2281 9.42857 11.2757 10.0627 11.9373C10.6967 12.599 11.7444 12.5714 12.406 11.9373L18.6917 5.65163V7.38847C18.6917 8.29825 19.4361 9.04261 20.3459 9.04261C21.2556 9.04261 22 8.29825 22 7.38847V1.73684C22 0.77193 21.2281 0 20.2632 0L14.6115 2.76064e-07Z" fill="white"/>
</svg>
