<svg width="1378" height="995" viewBox="0 0 1378 995" fill="none" xmlns="http://www.w3.org/2000/svg">
<g style="mix-blend-mode:color-dodge" clip-path="url(#clip0_740_1572)">
<path d="M616.471 161.278C617.411 163.335 618.043 164.482 618.043 164.482C617.5 163.409 616.985 162.351 616.471 161.278Z" fill="#438287"/>
<path d="M801.546 120.85C801.546 120.85 794.992 57.3323 740.104 36.1401C740.104 36.1401 747.496 60.8006 743.925 113.267C743.925 113.267 732.095 202.15 706.114 271.341C646.392 361.973 488.74 427.048 427.02 449.798C421.979 451.518 416.336 453.517 410.164 455.824C404.727 457.705 401.714 458.66 401.714 458.66C401.832 458.719 401.964 458.807 402.096 458.881C316.701 491.903 147.837 575.981 52.3169 749.898C52.3169 749.898 -3.06996 832.462 0.133633 984.511L169.292 994.107C169.292 994.107 144.178 878.05 155.787 812.034C167.587 752.72 222.739 586.445 475.602 500.516L475.485 500.163C565.112 472.225 683.424 407.987 752.654 293.767C753.389 288.756 754.374 284.024 755.564 279.526C775.168 247.062 810.084 179.371 801.575 120.85H801.546Z" fill="url(#paint0_linear_740_1572)"/>
<path d="M1326.79 327.948C1286.14 274.894 1050.45 271.763 1050.45 271.763C1005.25 269.397 982.914 267.134 955.668 264.783C897.298 256.45 842.176 239.887 795.988 222.354L795.842 222.296C718.059 192.771 665.611 160.571 665.611 160.571C619.35 129.679 602.979 94.5696 602.979 94.5696C588.093 164.083 632.076 211.406 632.076 211.406C662.628 253.702 723.041 284.579 780.97 305.874C869.348 349.36 993.627 353.225 993.627 353.225C1151.59 361.308 1179.67 415.773 1179.67 415.773C1179.67 415.773 1218.57 442.667 1215.56 496.779C1213.72 529.817 1377.75 407.249 1377.75 407.249L1326.8 327.933L1326.79 327.948Z" fill="#70BBA6"/>
<path d="M608.785 165.29C609.682 167.656 610.299 168.979 610.299 168.979C609.77 167.73 609.285 166.51 608.785 165.29Z" fill="#A170D6"/>
<path d="M786.277 76.0551C786.968 77.1867 787.658 78.3036 788.334 79.4646C788.334 79.4646 787.644 78.186 786.277 76.0551Z" fill="#A170D6"/>
<path d="M640.939 8.09833C640.939 8.09833 560.071 45.3389 608.786 165.276C602.584 148.86 587.962 93.0579 662.953 51.8788C744.659 13.0657 776.783 61.2697 786.262 76.0396C719.06 -34.5946 640.939 8.09833 640.939 8.09833Z" fill="#90D3AE"/>
</g>
<defs>
<linearGradient id="paint0_linear_740_1572" x1="802.887" y1="68.5351" x2="-0.000165027" y2="961.712" gradientUnits="userSpaceOnUse">
<stop stop-color="#5AA89B" stop-opacity="0.47"/>
<stop offset="1" stop-color="#5AA89B"/>
</linearGradient>
<clipPath id="clip0_740_1572">
<rect width="1377.74" height="994.12" fill="white"/>
</clipPath>
</defs>
</svg>
